{
  "header": {
    "PPQ": 960,
    "bpm": 69.99998833333528,
    "timeSignature": [
      3,
      8
    ],
    "name": "Track 0"
  },
  "startTime": 0,
  "duration": 167.14288499999716,
  "tracks": [
    {
      "startTime": 0,
      "duration": 0,
      "length": 0,
      "id": 0,
      "name": "Track 0"
    },
    {
      "startTime": 0.857143,
      "duration": 167.14288499999716,
      "length": 1068,
      "id": 1,
      "name": "Für Elise",
      "instrumentNumber": 0,
      "instrument": "acoustic grand piano",
      "instrumentFamily": "piano",
      "channelNumber": 0,
      "isPercussion": false,
      "notes": [
        {
          "name": "E5",
          "midi": 76,
          "time": 0.857143,
          "velocity": 0.5590551181102362,
          "duration": 0.21428574999999994
        },
        {
          "name": "D#5",
          "midi": 75,
          "time": 1.07142875,
          "velocity": 0.2992125984251969,
          "duration": 0.21428574999999994
        },
        {
          "name": "E5",
          "midi": 76,
          "time": 1.2857144999999999,
          "velocity": 0.44881889763779526,
          "duration": 0.21428574999999994
        },
        {
          "name": "D#5",
          "midi": 75,
          "time": 1.5000002499999998,
          "velocity": 0.5511811023622047,
          "duration": 0.21428574999999994
        },
        {
          "name": "E5",
          "midi": 76,
          "time": 1.7142859999999998,
          "velocity": 0.5984251968503937,
          "duration": 0.21428574999999994
        },
        {
          "name": "B4",
          "midi": 71,
          "time": 1.9285717499999997,
          "velocity": 0.5984251968503937,
          "duration": 0.21428575000000016
        },
        {
          "name": "D5",
          "midi": 74,
          "time": 2.1428575,
          "velocity": 0.5984251968503937,
          "duration": 0.21428575000000016
        },
        {
          "name": "C5",
          "midi": 72,
          "time": 2.35714325,
          "velocity": 0.6535433070866141,
          "duration": 0.21428575000000016
        },
        {
          "name": "A4",
          "midi": 69,
          "time": 2.571429,
          "velocity": 0.7007874015748031,
          "duration": 0.6428572500000005
        },
        {
          "name": "A2",
          "midi": 45,
          "time": 2.571429,
          "velocity": 0.5039370078740157,
          "duration": 0.21428575000000016
        },
        {
          "name": "E3",
          "midi": 52,
          "time": 2.7857147500000004,
          "velocity": 0.5039370078740157,
          "duration": 0.21428575000000016
        },
        {
          "name": "A3",
          "midi": 57,
          "time": 3.0000005000000005,
          "velocity": 0.5511811023622047,
          "duration": 0.21428575000000016
        },
        {
          "name": "C4",
          "midi": 60,
          "time": 3.2142862500000007,
          "velocity": 0.5984251968503937,
          "duration": 0.21428575000000016
        },
        {
          "name": "E4",
          "midi": 64,
          "time": 3.428572000000001,
          "velocity": 0.5984251968503937,
          "duration": 0.21428575000000016
        },
        {
          "name": "A4",
          "midi": 69,
          "time": 3.642857750000001,
          "velocity": 0.5984251968503937,
          "duration": 0.21428575000000016
        },
        {
          "name": "B4",
          "midi": 71,
          "time": 3.857143500000001,
          "velocity": 0.6535433070866141,
          "duration": 0.6428572500000005
        },
        {
          "name": "E2",
          "midi": 40,
          "time": 3.857143500000001,
          "velocity": 0.5039370078740157,
          "duration": 0.21428575000000016
        },
        {
          "name": "E3",
          "midi": 52,
          "time": 4.071429250000001,
          "velocity": 0.5039370078740157,
          "duration": 0.21428575000000016
        },
        {
          "name": "G#3",
          "midi": 56,
          "time": 4.2857150000000015,
          "velocity": 0.5511811023622047,
          "duration": 0.21428575000000016
        },
        {
          "name": "E4",
          "midi": 64,
          "time": 4.500000750000002,
          "velocity": 0.5984251968503937,
          "duration": 0.21428575000000016
        },
        {
          "name": "G#4",
          "midi": 68,
          "time": 4.714286500000002,
          "velocity": 0.5984251968503937,
          "duration": 0.21428575000000016
        },
        {
          "name": "B4",
          "midi": 71,
          "time": 4.928572250000002,
          "velocity": 0.5984251968503937,
          "duration": 0.21428575000000016
        },
        {
          "name": "C5",
          "midi": 72,
          "time": 5.142858000000002,
          "velocity": 0.6535433070866141,
          "duration": 0.6428572500000005
        },
        {
          "name": "A2",
          "midi": 45,
          "time": 5.142858000000002,
          "velocity": 0.5039370078740157,
          "duration": 0.21428575000000016
        },
        {
          "name": "E3",
          "midi": 52,
          "time": 5.357143750000002,
          "velocity": 0.5511811023622047,
          "duration": 0.21428575000000016
        },
        {
          "name": "A3",
          "midi": 57,
          "time": 5.5714295000000025,
          "velocity": 0.5984251968503937,
          "duration": 0.21428575000000016
        },
        {
          "name": "E4",
          "midi": 64,
          "time": 5.785715250000003,
          "velocity": 0.5984251968503937,
          "duration": 0.21428575000000016
        },
        {
          "name": "E5",
          "midi": 76,
          "time": 6.000001000000003,
          "velocity": 0.5984251968503937,
          "duration": 0.21428575000000016
        },
        {
          "name": "D#5",
          "midi": 75,
          "time": 6.214286750000003,
          "velocity": 0.5039370078740157,
          "duration": 0.21428575000000016
        },
        {
          "name": "E5",
          "midi": 76,
          "time": 6.428572500000003,
          "velocity": 0.5984251968503937,
          "duration": 0.21428575000000016
        },
        {
          "name": "D#5",
          "midi": 75,
          "time": 6.642858250000003,
          "velocity": 0.5511811023622047,
          "duration": 0.21428575000000016
        },
        {
          "name": "E5",
          "midi": 76,
          "time": 6.8571440000000035,
          "velocity": 0.5984251968503937,
          "duration": 0.21428575000000016
        },
        {
          "name": "B4",
          "midi": 71,
          "time": 7.071429750000004,
          "velocity": 0.5984251968503937,
          "duration": 0.21428575000000016
        },
        {
          "name": "D5",
          "midi": 74,
          "time": 7.285715500000004,
          "velocity": 0.5984251968503937,
          "duration": 0.21428575000000016
        },
        {
          "name": "C5",
          "midi": 72,
          "time": 7.500001250000004,
          "velocity": 0.5984251968503937,
          "duration": 0.21428575000000016
        },
        {
          "name": "A4",
          "midi": 69,
          "time": 7.714287000000004,
          "velocity": 0.6535433070866141,
          "duration": 0.6428572500000005
        },
        {
          "name": "A2",
          "midi": 45,
          "time": 7.714287000000004,
          "velocity": 0.44881889763779526,
          "duration": 0.21428575000000016
        },
        {
          "name": "E3",
          "midi": 52,
          "time": 7.928572750000004,
          "velocity": 0.5039370078740157,
          "duration": 0.21428575000000016
        },
        {
          "name": "A3",
          "midi": 57,
          "time": 8.142858500000004,
          "velocity": 0.5511811023622047,
          "duration": 0.21428575000000016
        },
        {
          "name": "C4",
          "midi": 60,
          "time": 8.357144250000005,
          "velocity": 0.5984251968503937,
          "duration": 0.21428575000000016
        },
        {
          "name": "E4",
          "midi": 64,
          "time": 8.571430000000005,
          "velocity": 0.5984251968503937,
          "duration": 0.21428575000000016
        },
        {
          "name": "A4",
          "midi": 69,
          "time": 8.785715750000005,
          "velocity": 0.5984251968503937,
          "duration": 0.21428575000000016
        },
        {
          "name": "B4",
          "midi": 71,
          "time": 9.000001500000005,
          "velocity": 0.6535433070866141,
          "duration": 0.6428572500000005
        },
        {
          "name": "E2",
          "midi": 40,
          "time": 9.000001500000005,
          "velocity": 0.5039370078740157,
          "duration": 0.21428575000000016
        },
        {
          "name": "E3",
          "midi": 52,
          "time": 9.214287250000005,
          "velocity": 0.5511811023622047,
          "duration": 0.21428575000000016
        },
        {
          "name": "G#3",
          "midi": 56,
          "time": 9.428573000000005,
          "velocity": 0.5984251968503937,
          "duration": 0.21428575000000016
        },
        {
          "name": "E4",
          "midi": 64,
          "time": 9.642858750000006,
          "velocity": 0.5984251968503937,
          "duration": 0.21428575000000016
        },
        {
          "name": "C5",
          "midi": 72,
          "time": 9.857144500000006,
          "velocity": 0.5984251968503937,
          "duration": 0.21428575000000016
        },
        {
          "name": "B4",
          "midi": 71,
          "time": 10.071430250000006,
          "velocity": 0.5984251968503937,
          "duration": 0.21428575000000016
        },
        {
          "name": "A4",
          "midi": 69,
          "time": 10.285716000000006,
          "velocity": 0.6535433070866141,
          "duration": 0.6428572500000005
        },
        {
          "name": "A2",
          "midi": 45,
          "time": 10.285716000000006,
          "velocity": 0.5039370078740157,
          "duration": 0.21428575000000016
        },
        {
          "name": "E3",
          "midi": 52,
          "time": 10.500001750000006,
          "velocity": 0.5511811023622047,
          "duration": 0.21428575000000016
        },
        {
          "name": "A3",
          "midi": 57,
          "time": 10.714287500000006,
          "velocity": 0.5511811023622047,
          "duration": 0.21428575000000016
        },
        {
          "name": "E5",
          "midi": 76,
          "time": 11.142859000000007,
          "velocity": 0.5039370078740157,
          "duration": 0.21428575000000016
        },
        {
          "name": "D#5",
          "midi": 75,
          "time": 11.357144750000007,
          "velocity": 0.5511811023622047,
          "duration": 0.21428575000000016
        },
        {
          "name": "E5",
          "midi": 76,
          "time": 11.571430500000007,
          "velocity": 0.5511811023622047,
          "duration": 0.21428575000000016
        },
        {
          "name": "D#5",
          "midi": 75,
          "time": 11.785716250000007,
          "velocity": 0.5039370078740157,
          "duration": 0.21428575000000016
        },
        {
          "name": "E5",
          "midi": 76,
          "time": 12.000002000000007,
          "velocity": 0.5984251968503937,
          "duration": 0.21428575000000016
        },
        {
          "name": "B4",
          "midi": 71,
          "time": 12.214287750000008,
          "velocity": 0.5984251968503937,
          "duration": 0.21428575000000016
        },
        {
          "name": "D5",
          "midi": 74,
          "time": 12.428573500000008,
          "velocity": 0.5984251968503937,
          "duration": 0.21428575000000016
        },
        {
          "name": "C5",
          "midi": 72,
          "time": 12.642859250000008,
          "velocity": 0.5984251968503937,
          "duration": 0.21428575000000016
        },
        {
          "name": "A4",
          "midi": 69,
          "time": 12.857145000000008,
          "velocity": 0.5984251968503937,
          "duration": 0.6428572500000005
        },
        {
          "name": "A2",
          "midi": 45,
          "time": 12.857145000000008,
          "velocity": 0.5984251968503937,
          "duration": 0.21428575000000016
        },
        {
          "name": "E3",
          "midi": 52,
          "time": 13.071430750000008,
          "velocity": 0.5984251968503937,
          "duration": 0.21428575000000016
        },
        {
          "name": "A3",
          "midi": 57,
          "time": 13.285716500000008,
          "velocity": 0.5984251968503937,
          "duration": 0.21428575000000016
        },
        {
          "name": "C4",
          "midi": 60,
          "time": 13.500002250000009,
          "velocity": 0.5984251968503937,
          "duration": 0.21428575000000016
        },
        {
          "name": "E4",
          "midi": 64,
          "time": 13.714288000000009,
          "velocity": 0.5984251968503937,
          "duration": 0.21428575000000016
        },
        {
          "name": "A4",
          "midi": 69,
          "time": 13.928573750000009,
          "velocity": 0.5984251968503937,
          "duration": 0.21428575000000016
        },
        {
          "name": "B4",
          "midi": 71,
          "time": 14.142859500000009,
          "velocity": 0.6535433070866141,
          "duration": 0.6428572500000005
        },
        {
          "name": "E2",
          "midi": 40,
          "time": 14.142859500000009,
          "velocity": 0.5039370078740157,
          "duration": 0.21428575000000016
        },
        {
          "name": "E3",
          "midi": 52,
          "time": 14.35714525000001,
          "velocity": 0.5511811023622047,
          "duration": 0.21428575000000016
        },
        {
          "name": "G#3",
          "midi": 56,
          "time": 14.57143100000001,
          "velocity": 0.5984251968503937,
          "duration": 0.21428575000000016
        },
        {
          "name": "E4",
          "midi": 64,
          "time": 14.78571675000001,
          "velocity": 0.5984251968503937,
          "duration": 0.21428575000000016
        },
        {
          "name": "G#4",
          "midi": 68,
          "time": 15.00000250000001,
          "velocity": 0.5984251968503937,
          "duration": 0.21428575000000016
        },
        {
          "name": "B4",
          "midi": 71,
          "time": 15.21428825000001,
          "velocity": 0.5984251968503937,
          "duration": 0.21428575000000016
        },
        {
          "name": "C5",
          "midi": 72,
          "time": 15.42857400000001,
          "velocity": 0.5984251968503937,
          "duration": 0.4285715000000003
        },
        {
          "name": "A2",
          "midi": 45,
          "time": 15.42857400000001,
          "velocity": 0.5039370078740157,
          "duration": 0.21428575000000016
        },
        {
          "name": "E3",
          "midi": 52,
          "time": 15.64285975000001,
          "velocity": 0.5984251968503937,
          "duration": 0.21428575000000016
        },
        {
          "name": "A3",
          "midi": 57,
          "time": 15.85714550000001,
          "velocity": 0.5984251968503937,
          "duration": 0.21428575000000016
        },
        {
          "name": "E4",
          "midi": 64,
          "time": 16.07143125000001,
          "velocity": 0.5984251968503937,
          "duration": 0.2142857499999984
        },
        {
          "name": "E5",
          "midi": 76,
          "time": 16.28571700000001,
          "velocity": 0.5984251968503937,
          "duration": 0.2142857499999984
        },
        {
          "name": "D#5",
          "midi": 75,
          "time": 16.500002750000007,
          "velocity": 0.5511811023622047,
          "duration": 0.2142857499999984
        },
        {
          "name": "E5",
          "midi": 76,
          "time": 16.714288500000006,
          "velocity": 0.5984251968503937,
          "duration": 0.2142857499999984
        },
        {
          "name": "D#5",
          "midi": 75,
          "time": 16.928574250000004,
          "velocity": 0.5511811023622047,
          "duration": 0.2142857499999984
        },
        {
          "name": "E5",
          "midi": 76,
          "time": 17.142860000000002,
          "velocity": 0.5984251968503937,
          "duration": 0.2142857499999984
        },
        {
          "name": "B4",
          "midi": 71,
          "time": 17.35714575,
          "velocity": 0.5984251968503937,
          "duration": 0.2142857499999984
        },
        {
          "name": "D5",
          "midi": 74,
          "time": 17.5714315,
          "velocity": 0.5984251968503937,
          "duration": 0.2142857499999984
        },
        {
          "name": "C5",
          "midi": 72,
          "time": 17.785717249999998,
          "velocity": 0.5984251968503937,
          "duration": 0.2142857499999984
        },
        {
          "name": "A4",
          "midi": 69,
          "time": 18.000002999999996,
          "velocity": 0.5984251968503937,
          "duration": 0.4285714999999968
        },
        {
          "name": "A2",
          "midi": 45,
          "time": 18.000002999999996,
          "velocity": 0.5511811023622047,
          "duration": 0.2142857499999984
        },
        {
          "name": "E3",
          "midi": 52,
          "time": 18.214288749999994,
          "velocity": 0.5984251968503937,
          "duration": 0.2142857499999984
        },
        {
          "name": "A3",
          "midi": 57,
          "time": 18.428574499999993,
          "velocity": 0.5984251968503937,
          "duration": 0.2142857499999984
        },
        {
          "name": "C4",
          "midi": 60,
          "time": 18.64286024999999,
          "velocity": 0.5984251968503937,
          "duration": 0.2142857499999984
        },
        {
          "name": "E4",
          "midi": 64,
          "time": 18.85714599999999,
          "velocity": 0.5984251968503937,
          "duration": 0.2142857499999984
        },
        {
          "name": "A4",
          "midi": 69,
          "time": 19.071431749999988,
          "velocity": 0.5984251968503937,
          "duration": 0.2142857499999984
        },
        {
          "name": "B4",
          "midi": 71,
          "time": 19.285717499999986,
          "velocity": 0.5984251968503937,
          "duration": 0.4285714999999968
        },
        {
          "name": "E2",
          "midi": 40,
          "time": 19.285717499999986,
          "velocity": 0.5039370078740157,
          "duration": 0.2142857499999984
        },
        {
          "name": "E3",
          "midi": 52,
          "time": 19.500003249999985,
          "velocity": 0.5984251968503937,
          "duration": 0.2142857499999984
        },
        {
          "name": "G#3",
          "midi": 56,
          "time": 19.714288999999983,
          "velocity": 0.5984251968503937,
          "duration": 0.2142857499999984
        },
        {
          "name": "E4",
          "midi": 64,
          "time": 19.92857474999998,
          "velocity": 0.5984251968503937,
          "duration": 0.2142857499999984
        },
        {
          "name": "C5",
          "midi": 72,
          "time": 20.14286049999998,
          "velocity": 0.5984251968503937,
          "duration": 0.2142857499999984
        },
        {
          "name": "B4",
          "midi": 71,
          "time": 20.35714624999998,
          "velocity": 0.5984251968503937,
          "duration": 0.2142857499999984
        },
        {
          "name": "A4",
          "midi": 69,
          "time": 20.571431999999977,
          "velocity": 0.6535433070866141,
          "duration": 0.4285714999999968
        },
        {
          "name": "A2",
          "midi": 45,
          "time": 20.571431999999977,
          "velocity": 0.5984251968503937,
          "duration": 0.2142857499999984
        },
        {
          "name": "E3",
          "midi": 52,
          "time": 20.785717749999975,
          "velocity": 0.5984251968503937,
          "duration": 0.2142857499999984
        },
        {
          "name": "A3",
          "midi": 57,
          "time": 21.000003499999973,
          "velocity": 0.5984251968503937,
          "duration": 0.2142857499999984
        },
        {
          "name": "B4",
          "midi": 71,
          "time": 21.214289249999972,
          "velocity": 0.5984251968503937,
          "duration": 0.2142857499999984
        },
        {
          "name": "C5",
          "midi": 72,
          "time": 21.42857499999997,
          "velocity": 0.5984251968503937,
          "duration": 0.2142857499999984
        },
        {
          "name": "D5",
          "midi": 74,
          "time": 21.64286074999997,
          "velocity": 0.5984251968503937,
          "duration": 0.2142857499999984
        },
        {
          "name": "E5",
          "midi": 76,
          "time": 21.857146499999967,
          "velocity": 0.5984251968503937,
          "duration": 0.6428572499999952
        },
        {
          "name": "C3",
          "midi": 48,
          "time": 21.857146499999967,
          "velocity": 0.5511811023622047,
          "duration": 0.2142857499999984
        },
        {
          "name": "G3",
          "midi": 55,
          "time": 22.071432249999965,
          "velocity": 0.5984251968503937,
          "duration": 0.2142857499999984
        },
        {
          "name": "C4",
          "midi": 60,
          "time": 22.285717999999964,
          "velocity": 0.5984251968503937,
          "duration": 0.2142857499999984
        },
        {
          "name": "G4",
          "midi": 67,
          "time": 22.500003749999962,
          "velocity": 0.5984251968503937,
          "duration": 0.2142857499999984
        },
        {
          "name": "F5",
          "midi": 77,
          "time": 22.71428949999996,
          "velocity": 0.5984251968503937,
          "duration": 0.2142857499999984
        },
        {
          "name": "E5",
          "midi": 76,
          "time": 22.92857524999996,
          "velocity": 0.5984251968503937,
          "duration": 0.2142857499999984
        },
        {
          "name": "D5",
          "midi": 74,
          "time": 23.142860999999957,
          "velocity": 0.5984251968503937,
          "duration": 0.6428572499999952
        },
        {
          "name": "G2",
          "midi": 43,
          "time": 23.142860999999957,
          "velocity": 0.5039370078740157,
          "duration": 0.2142857499999984
        },
        {
          "name": "G3",
          "midi": 55,
          "time": 23.357146749999956,
          "velocity": 0.5984251968503937,
          "duration": 0.2142857499999984
        },
        {
          "name": "B3",
          "midi": 59,
          "time": 23.571432499999954,
          "velocity": 0.5984251968503937,
          "duration": 0.2142857499999984
        },
        {
          "name": "F4",
          "midi": 65,
          "time": 23.785718249999952,
          "velocity": 0.5984251968503937,
          "duration": 0.2142857499999984
        },
        {
          "name": "E5",
          "midi": 76,
          "time": 24.00000399999995,
          "velocity": 0.5984251968503937,
          "duration": 0.2142857499999984
        },
        {
          "name": "D5",
          "midi": 74,
          "time": 24.21428974999995,
          "velocity": 0.5984251968503937,
          "duration": 0.2142857499999984
        },
        {
          "name": "C5",
          "midi": 72,
          "time": 24.428575499999948,
          "velocity": 0.5984251968503937,
          "duration": 0.6428572499999952
        },
        {
          "name": "A2",
          "midi": 45,
          "time": 24.428575499999948,
          "velocity": 0.5039370078740157,
          "duration": 0.2142857499999984
        },
        {
          "name": "E3",
          "midi": 52,
          "time": 24.642861249999946,
          "velocity": 0.5984251968503937,
          "duration": 0.2142857499999984
        },
        {
          "name": "A3",
          "midi": 57,
          "time": 24.857146999999944,
          "velocity": 0.5984251968503937,
          "duration": 0.2142857499999984
        },
        {
          "name": "E4",
          "midi": 64,
          "time": 25.071432749999943,
          "velocity": 0.5984251968503937,
          "duration": 0.2142857499999984
        },
        {
          "name": "D5",
          "midi": 74,
          "time": 25.28571849999994,
          "velocity": 0.5984251968503937,
          "duration": 0.2142857499999984
        },
        {
          "name": "C5",
          "midi": 72,
          "time": 25.50000424999994,
          "velocity": 0.5984251968503937,
          "duration": 0.2142857499999984
        },
        {
          "name": "B4",
          "midi": 71,
          "time": 25.714289999999938,
          "velocity": 0.5984251968503937,
          "duration": 0.4285714999999968
        },
        {
          "name": "E2",
          "midi": 40,
          "time": 25.714289999999938,
          "velocity": 0.5039370078740157,
          "duration": 0.2142857499999984
        },
        {
          "name": "E3",
          "midi": 52,
          "time": 25.928575749999936,
          "velocity": 0.5984251968503937,
          "duration": 0.2142857499999984
        },
        {
          "name": "E4",
          "midi": 64,
          "time": 26.142861499999935,
          "velocity": 0.5984251968503937,
          "duration": 0.2142857499999984
        },
        {
          "name": "E4",
          "midi": 64,
          "time": 26.357147249999933,
          "velocity": 0.5984251968503937,
          "duration": 0.2142857499999984
        },
        {
          "name": "E5",
          "midi": 76,
          "time": 26.57143299999993,
          "velocity": 0.5984251968503937,
          "duration": 0.2142857499999984
        },
        {
          "name": "E4",
          "midi": 64,
          "time": 26.78571874999993,
          "velocity": 0.5984251968503937,
          "duration": 0.2142857499999984
        },
        {
          "name": "E5",
          "midi": 76,
          "time": 27.00000449999993,
          "velocity": 0.5984251968503937,
          "duration": 0.2142857499999984
        },
        {
          "name": "E5",
          "midi": 76,
          "time": 27.214290249999927,
          "velocity": 0.5511811023622047,
          "duration": 0.2142857499999984
        },
        {
          "name": "E6",
          "midi": 88,
          "time": 27.428575999999925,
          "velocity": 0.5039370078740157,
          "duration": 0.2142857499999984
        },
        {
          "name": "D#5",
          "midi": 75,
          "time": 27.642861749999923,
          "velocity": 0.5511811023622047,
          "duration": 0.2142857499999984
        },
        {
          "name": "E5",
          "midi": 76,
          "time": 27.857147499999922,
          "velocity": 0.5984251968503937,
          "duration": 0.2142857499999984
        },
        {
          "name": "D#5",
          "midi": 75,
          "time": 28.07143324999992,
          "velocity": 0.5984251968503937,
          "duration": 0.2142857499999984
        },
        {
          "name": "E5",
          "midi": 76,
          "time": 28.28571899999992,
          "velocity": 0.5984251968503937,
          "duration": 0.2142857499999984
        },
        {
          "name": "D#5",
          "midi": 75,
          "time": 28.500004749999917,
          "velocity": 0.5984251968503937,
          "duration": 0.2142857499999984
        },
        {
          "name": "E5",
          "midi": 76,
          "time": 28.714290499999915,
          "velocity": 0.5984251968503937,
          "duration": 0.2142857499999984
        },
        {
          "name": "B4",
          "midi": 71,
          "time": 28.928576249999914,
          "velocity": 0.5984251968503937,
          "duration": 0.2142857499999984
        },
        {
          "name": "D5",
          "midi": 74,
          "time": 29.142861999999912,
          "velocity": 0.5511811023622047,
          "duration": 0.2142857499999984
        },
        {
          "name": "C5",
          "midi": 72,
          "time": 29.35714774999991,
          "velocity": 0.5984251968503937,
          "duration": 0.2142857499999984
        },
        {
          "name": "A4",
          "midi": 69,
          "time": 29.57143349999991,
          "velocity": 0.5984251968503937,
          "duration": 0.4285714999999968
        },
        {
          "name": "A2",
          "midi": 45,
          "time": 29.57143349999991,
          "velocity": 0.5039370078740157,
          "duration": 0.2142857499999984
        },
        {
          "name": "E3",
          "midi": 52,
          "time": 29.785719249999907,
          "velocity": 0.5511811023622047,
          "duration": 0.2142857499999984
        },
        {
          "name": "A3",
          "midi": 57,
          "time": 30.000004999999906,
          "velocity": 0.5984251968503937,
          "duration": 0.2142857499999984
        },
        {
          "name": "C4",
          "midi": 60,
          "time": 30.214290749999904,
          "velocity": 0.5984251968503937,
          "duration": 0.2142857499999984
        },
        {
          "name": "E4",
          "midi": 64,
          "time": 30.428576499999902,
          "velocity": 0.5984251968503937,
          "duration": 0.2142857499999984
        },
        {
          "name": "A4",
          "midi": 69,
          "time": 30.6428622499999,
          "velocity": 0.5984251968503937,
          "duration": 0.2142857499999984
        },
        {
          "name": "B4",
          "midi": 71,
          "time": 30.8571479999999,
          "velocity": 0.5984251968503937,
          "duration": 0.4285714999999968
        },
        {
          "name": "E2",
          "midi": 40,
          "time": 30.8571479999999,
          "velocity": 0.5039370078740157,
          "duration": 0.2142857499999984
        },
        {
          "name": "E3",
          "midi": 52,
          "time": 31.071433749999898,
          "velocity": 0.5511811023622047,
          "duration": 0.2142857499999984
        },
        {
          "name": "G#3",
          "midi": 56,
          "time": 31.285719499999896,
          "velocity": 0.5984251968503937,
          "duration": 0.2142857499999984
        },
        {
          "name": "E4",
          "midi": 64,
          "time": 31.500005249999894,
          "velocity": 0.5984251968503937,
          "duration": 0.2142857499999984
        },
        {
          "name": "G#4",
          "midi": 68,
          "time": 31.714290999999893,
          "velocity": 0.5984251968503937,
          "duration": 0.2142857499999984
        },
        {
          "name": "B4",
          "midi": 71,
          "time": 31.92857674999989,
          "velocity": 0.5984251968503937,
          "duration": 0.21428575000000194
        },
        {
          "name": "C5",
          "midi": 72,
          "time": 32.14286249999989,
          "velocity": 0.5984251968503937,
          "duration": 0.4285715000000039
        },
        {
          "name": "A2",
          "midi": 45,
          "time": 32.14286249999989,
          "velocity": 0.5511811023622047,
          "duration": 0.21428575000000194
        },
        {
          "name": "E3",
          "midi": 52,
          "time": 32.357148249999895,
          "velocity": 0.5984251968503937,
          "duration": 0.21428575000000194
        },
        {
          "name": "A3",
          "midi": 57,
          "time": 32.5714339999999,
          "velocity": 0.5984251968503937,
          "duration": 0.21428575000000194
        },
        {
          "name": "E4",
          "midi": 64,
          "time": 32.7857197499999,
          "velocity": 0.5984251968503937,
          "duration": 0.21428575000000194
        },
        {
          "name": "E5",
          "midi": 76,
          "time": 33.0000054999999,
          "velocity": 0.5984251968503937,
          "duration": 0.21428575000000194
        },
        {
          "name": "D#5",
          "midi": 75,
          "time": 33.2142912499999,
          "velocity": 0.5984251968503937,
          "duration": 0.21428575000000194
        },
        {
          "name": "E5",
          "midi": 76,
          "time": 33.428576999999905,
          "velocity": 0.5984251968503937,
          "duration": 0.21428575000000194
        },
        {
          "name": "D#5",
          "midi": 75,
          "time": 33.64286274999991,
          "velocity": 0.5511811023622047,
          "duration": 0.21428575000000194
        },
        {
          "name": "E5",
          "midi": 76,
          "time": 33.85714849999991,
          "velocity": 0.5984251968503937,
          "duration": 0.21428575000000194
        },
        {
          "name": "B4",
          "midi": 71,
          "time": 34.07143424999991,
          "velocity": 0.5511811023622047,
          "duration": 0.21428575000000194
        },
        {
          "name": "D5",
          "midi": 74,
          "time": 34.28571999999991,
          "velocity": 0.5984251968503937,
          "duration": 0.21428575000000194
        },
        {
          "name": "C5",
          "midi": 72,
          "time": 34.500005749999914,
          "velocity": 0.5984251968503937,
          "duration": 0.21428575000000194
        },
        {
          "name": "A4",
          "midi": 69,
          "time": 34.714291499999916,
          "velocity": 0.6535433070866141,
          "duration": 0.4285715000000039
        },
        {
          "name": "A2",
          "midi": 45,
          "time": 34.714291499999916,
          "velocity": 0.5039370078740157,
          "duration": 0.21428575000000194
        },
        {
          "name": "E3",
          "midi": 52,
          "time": 34.92857724999992,
          "velocity": 0.5984251968503937,
          "duration": 0.21428575000000194
        },
        {
          "name": "A3",
          "midi": 57,
          "time": 35.14286299999992,
          "velocity": 0.5984251968503937,
          "duration": 0.21428575000000194
        },
        {
          "name": "C4",
          "midi": 60,
          "time": 35.35714874999992,
          "velocity": 0.5984251968503937,
          "duration": 0.21428575000000194
        },
        {
          "name": "E4",
          "midi": 64,
          "time": 35.571434499999924,
          "velocity": 0.5984251968503937,
          "duration": 0.21428575000000194
        },
        {
          "name": "A4",
          "midi": 69,
          "time": 35.785720249999926,
          "velocity": 0.5984251968503937,
          "duration": 0.21428575000000194
        },
        {
          "name": "B4",
          "midi": 71,
          "time": 36.00000599999993,
          "velocity": 0.5984251968503937,
          "duration": 0.4285715000000039
        },
        {
          "name": "E2",
          "midi": 40,
          "time": 36.00000599999993,
          "velocity": 0.5039370078740157,
          "duration": 0.21428575000000194
        },
        {
          "name": "E3",
          "midi": 52,
          "time": 36.21429174999993,
          "velocity": 0.5511811023622047,
          "duration": 0.21428575000000194
        },
        {
          "name": "G#3",
          "midi": 56,
          "time": 36.42857749999993,
          "velocity": 0.5984251968503937,
          "duration": 0.21428575000000194
        },
        {
          "name": "E4",
          "midi": 64,
          "time": 36.642863249999934,
          "velocity": 0.5984251968503937,
          "duration": 0.21428575000000194
        },
        {
          "name": "C5",
          "midi": 72,
          "time": 36.857148999999936,
          "velocity": 0.5984251968503937,
          "duration": 0.21428575000000194
        },
        {
          "name": "B4",
          "midi": 71,
          "time": 37.07143474999994,
          "velocity": 0.5984251968503937,
          "duration": 0.21428575000000194
        },
        {
          "name": "A4",
          "midi": 69,
          "time": 37.28572049999994,
          "velocity": 0.5984251968503937,
          "duration": 0.4285715000000039
        },
        {
          "name": "A2",
          "midi": 45,
          "time": 37.28572049999994,
          "velocity": 0.5511811023622047,
          "duration": 0.21428575000000194
        },
        {
          "name": "E3",
          "midi": 52,
          "time": 37.50000624999994,
          "velocity": 0.5984251968503937,
          "duration": 0.21428575000000194
        },
        {
          "name": "A3",
          "midi": 57,
          "time": 37.71429199999994,
          "velocity": 0.5984251968503937,
          "duration": 0.21428575000000194
        },
        {
          "name": "B4",
          "midi": 71,
          "time": 37.928577749999945,
          "velocity": 0.5984251968503937,
          "duration": 0.21428575000000194
        },
        {
          "name": "C5",
          "midi": 72,
          "time": 38.14286349999995,
          "velocity": 0.5984251968503937,
          "duration": 0.21428575000000194
        },
        {
          "name": "D5",
          "midi": 74,
          "time": 38.35714924999995,
          "velocity": 0.5984251968503937,
          "duration": 0.21428575000000194
        },
        {
          "name": "E5",
          "midi": 76,
          "time": 38.57143499999995,
          "velocity": 0.5984251968503937,
          "duration": 0.6428572500000058
        },
        {
          "name": "C3",
          "midi": 48,
          "time": 38.57143499999995,
          "velocity": 0.5039370078740157,
          "duration": 0.21428575000000194
        },
        {
          "name": "G3",
          "midi": 55,
          "time": 38.78572074999995,
          "velocity": 0.5511811023622047,
          "duration": 0.21428575000000194
        },
        {
          "name": "C4",
          "midi": 60,
          "time": 39.000006499999955,
          "velocity": 0.5984251968503937,
          "duration": 0.21428575000000194
        },
        {
          "name": "G4",
          "midi": 67,
          "time": 39.21429224999996,
          "velocity": 0.5984251968503937,
          "duration": 0.21428575000000194
        },
        {
          "name": "F5",
          "midi": 77,
          "time": 39.42857799999996,
          "velocity": 0.5984251968503937,
          "duration": 0.21428575000000194
        },
        {
          "name": "E5",
          "midi": 76,
          "time": 39.64286374999996,
          "velocity": 0.5984251968503937,
          "duration": 0.21428575000000194
        },
        {
          "name": "D5",
          "midi": 74,
          "time": 39.85714949999996,
          "velocity": 0.5984251968503937,
          "duration": 0.6428572500000058
        },
        {
          "name": "G2",
          "midi": 43,
          "time": 39.85714949999996,
          "velocity": 0.5039370078740157,
          "duration": 0.21428575000000194
        },
        {
          "name": "G3",
          "midi": 55,
          "time": 40.071435249999965,
          "velocity": 0.5511811023622047,
          "duration": 0.21428575000000194
        },
        {
          "name": "B3",
          "midi": 59,
          "time": 40.28572099999997,
          "velocity": 0.5984251968503937,
          "duration": 0.21428575000000194
        },
        {
          "name": "F4",
          "midi": 65,
          "time": 40.50000674999997,
          "velocity": 0.5984251968503937,
          "duration": 0.21428575000000194
        },
        {
          "name": "E5",
          "midi": 76,
          "time": 40.71429249999997,
          "velocity": 0.5984251968503937,
          "duration": 0.21428575000000194
        },
        {
          "name": "D5",
          "midi": 74,
          "time": 40.92857824999997,
          "velocity": 0.5984251968503937,
          "duration": 0.21428575000000194
        },
        {
          "name": "C5",
          "midi": 72,
          "time": 41.142863999999975,
          "velocity": 0.6535433070866141,
          "duration": 0.6428572500000058
        },
        {
          "name": "A2",
          "midi": 45,
          "time": 41.142863999999975,
          "velocity": 0.5511811023622047,
          "duration": 0.21428575000000194
        },
        {
          "name": "E3",
          "midi": 52,
          "time": 41.35714974999998,
          "velocity": 0.5511811023622047,
          "duration": 0.21428575000000194
        },
        {
          "name": "A3",
          "midi": 57,
          "time": 41.57143549999998,
          "velocity": 0.5984251968503937,
          "duration": 0.21428575000000194
        },
        {
          "name": "E4",
          "midi": 64,
          "time": 41.78572124999998,
          "velocity": 0.5984251968503937,
          "duration": 0.21428575000000194
        },
        {
          "name": "D5",
          "midi": 74,
          "time": 42.00000699999998,
          "velocity": 0.5984251968503937,
          "duration": 0.21428575000000194
        },
        {
          "name": "C5",
          "midi": 72,
          "time": 42.214292749999984,
          "velocity": 0.5984251968503937,
          "duration": 0.21428575000000194
        },
        {
          "name": "B4",
          "midi": 71,
          "time": 42.428578499999986,
          "velocity": 0.6535433070866141,
          "duration": 0.4285715000000039
        },
        {
          "name": "E2",
          "midi": 40,
          "time": 42.428578499999986,
          "velocity": 0.5039370078740157,
          "duration": 0.21428575000000194
        },
        {
          "name": "E3",
          "midi": 52,
          "time": 42.64286424999999,
          "velocity": 0.5511811023622047,
          "duration": 0.21428575000000194
        },
        {
          "name": "E4",
          "midi": 64,
          "time": 42.85714999999999,
          "velocity": 0.5984251968503937,
          "duration": 0.21428575000000194
        },
        {
          "name": "E4",
          "midi": 64,
          "time": 43.07143574999999,
          "velocity": 0.5984251968503937,
          "duration": 0.21428575000000194
        },
        {
          "name": "E5",
          "midi": 76,
          "time": 43.285721499999994,
          "velocity": 0.6535433070866141,
          "duration": 0.21428575000000194
        },
        {
          "name": "E4",
          "midi": 64,
          "time": 43.500007249999996,
          "velocity": 0.5984251968503937,
          "duration": 0.21428575000000194
        },
        {
          "name": "E5",
          "midi": 76,
          "time": 43.714293,
          "velocity": 0.5984251968503937,
          "duration": 0.21428575000000194
        },
        {
          "name": "E5",
          "midi": 76,
          "time": 43.92857875,
          "velocity": 0.5511811023622047,
          "duration": 0.21428575000000194
        },
        {
          "name": "E6",
          "midi": 88,
          "time": 44.1428645,
          "velocity": 0.5039370078740157,
          "duration": 0.21428575000000194
        },
        {
          "name": "D#5",
          "midi": 75,
          "time": 44.357150250000004,
          "velocity": 0.5984251968503937,
          "duration": 0.21428575000000194
        },
        {
          "name": "E5",
          "midi": 76,
          "time": 44.571436000000006,
          "velocity": 0.5511811023622047,
          "duration": 0.21428575000000194
        },
        {
          "name": "D#5",
          "midi": 75,
          "time": 44.78572175000001,
          "velocity": 0.5984251968503937,
          "duration": 0.21428575000000194
        },
        {
          "name": "E5",
          "midi": 76,
          "time": 45.00000750000001,
          "velocity": 0.5984251968503937,
          "duration": 0.21428575000000194
        },
        {
          "name": "D#5",
          "midi": 75,
          "time": 45.21429325000001,
          "velocity": 0.5984251968503937,
          "duration": 0.21428575000000194
        },
        {
          "name": "E5",
          "midi": 76,
          "time": 45.42857900000001,
          "velocity": 0.5984251968503937,
          "duration": 0.21428575000000194
        },
        {
          "name": "B4",
          "midi": 71,
          "time": 45.642864750000015,
          "velocity": 0.5984251968503937,
          "duration": 0.21428575000000194
        },
        {
          "name": "D5",
          "midi": 74,
          "time": 45.85715050000002,
          "velocity": 0.5984251968503937,
          "duration": 0.21428575000000194
        },
        {
          "name": "C5",
          "midi": 72,
          "time": 46.07143625000002,
          "velocity": 0.5984251968503937,
          "duration": 0.21428575000000194
        },
        {
          "name": "A4",
          "midi": 69,
          "time": 46.28572200000002,
          "velocity": 0.6535433070866141,
          "duration": 0.4285715000000039
        },
        {
          "name": "A2",
          "midi": 45,
          "time": 46.28572200000002,
          "velocity": 0.5039370078740157,
          "duration": 0.21428575000000194
        },
        {
          "name": "E3",
          "midi": 52,
          "time": 46.50000775000002,
          "velocity": 0.5511811023622047,
          "duration": 0.21428575000000194
        },
        {
          "name": "A3",
          "midi": 57,
          "time": 46.714293500000025,
          "velocity": 0.5984251968503937,
          "duration": 0.21428575000000194
        },
        {
          "name": "C4",
          "midi": 60,
          "time": 46.92857925000003,
          "velocity": 0.5511811023622047,
          "duration": 0.21428575000000194
        },
        {
          "name": "E4",
          "midi": 64,
          "time": 47.14286500000003,
          "velocity": 0.5984251968503937,
          "duration": 0.21428575000000194
        },
        {
          "name": "A4",
          "midi": 69,
          "time": 47.35715075000003,
          "velocity": 0.5984251968503937,
          "duration": 0.21428575000000194
        },
        {
          "name": "B4",
          "midi": 71,
          "time": 47.57143650000003,
          "velocity": 0.5984251968503937,
          "duration": 0.4285715000000039
        },
        {
          "name": "E2",
          "midi": 40,
          "time": 47.57143650000003,
          "velocity": 0.5039370078740157,
          "duration": 0.21428575000000194
        },
        {
          "name": "E3",
          "midi": 52,
          "time": 47.785722250000035,
          "velocity": 0.5984251968503937,
          "duration": 0.21428575000000194
        },
        {
          "name": "G#3",
          "midi": 56,
          "time": 48.00000800000004,
          "velocity": 0.5984251968503937,
          "duration": 0.21428575000000194
        },
        {
          "name": "E4",
          "midi": 64,
          "time": 48.21429375000004,
          "velocity": 0.5984251968503937,
          "duration": 0.21428575000000194
        },
        {
          "name": "G#4",
          "midi": 68,
          "time": 48.42857950000004,
          "velocity": 0.5984251968503937,
          "duration": 0.21428575000000194
        },
        {
          "name": "B4",
          "midi": 71,
          "time": 48.64286525000004,
          "velocity": 0.5984251968503937,
          "duration": 0.21428575000000194
        },
        {
          "name": "C5",
          "midi": 72,
          "time": 48.857151000000044,
          "velocity": 0.5984251968503937,
          "duration": 0.4285715000000039
        },
        {
          "name": "A2",
          "midi": 45,
          "time": 48.857151000000044,
          "velocity": 0.5984251968503937,
          "duration": 0.21428575000000194
        },
        {
          "name": "E3",
          "midi": 52,
          "time": 49.071436750000046,
          "velocity": 0.5984251968503937,
          "duration": 0.21428575000000194
        },
        {
          "name": "A3",
          "midi": 57,
          "time": 49.28572250000005,
          "velocity": 0.5984251968503937,
          "duration": 0.21428575000000194
        },
        {
          "name": "E4",
          "midi": 64,
          "time": 49.50000825000005,
          "velocity": 0.5984251968503937,
          "duration": 0.21428575000000194
        },
        {
          "name": "E5",
          "midi": 76,
          "time": 49.71429400000005,
          "velocity": 0.5984251968503937,
          "duration": 0.21428575000000194
        },
        {
          "name": "D#5",
          "midi": 75,
          "time": 49.928579750000054,
          "velocity": 0.5984251968503937,
          "duration": 0.21428575000000194
        },
        {
          "name": "E5",
          "midi": 76,
          "time": 50.142865500000056,
          "velocity": 0.5984251968503937,
          "duration": 0.21428575000000194
        },
        {
          "name": "D#5",
          "midi": 75,
          "time": 50.35715125000006,
          "velocity": 0.5511811023622047,
          "duration": 0.21428575000000194
        },
        {
          "name": "E5",
          "midi": 76,
          "time": 50.57143700000006,
          "velocity": 0.5984251968503937,
          "duration": 0.21428575000000194
        },
        {
          "name": "B4",
          "midi": 71,
          "time": 50.78572275000006,
          "velocity": 0.5984251968503937,
          "duration": 0.21428575000000194
        },
        {
          "name": "D5",
          "midi": 74,
          "time": 51.000008500000064,
          "velocity": 0.5984251968503937,
          "duration": 0.21428575000000194
        },
        {
          "name": "C5",
          "midi": 72,
          "time": 51.214294250000066,
          "velocity": 0.5511811023622047,
          "duration": 0.21428575000000194
        },
        {
          "name": "A4",
          "midi": 69,
          "time": 51.42858000000007,
          "velocity": 0.5984251968503937,
          "duration": 0.4285715000000039
        },
        {
          "name": "A2",
          "midi": 45,
          "time": 51.42858000000007,
          "velocity": 0.5039370078740157,
          "duration": 0.21428575000000194
        },
        {
          "name": "E3",
          "midi": 52,
          "time": 51.64286575000007,
          "velocity": 0.5511811023622047,
          "duration": 0.21428575000000194
        },
        {
          "name": "A3",
          "midi": 57,
          "time": 51.85715150000007,
          "velocity": 0.5984251968503937,
          "duration": 0.21428575000000194
        },
        {
          "name": "C4",
          "midi": 60,
          "time": 52.07143725000007,
          "velocity": 0.5984251968503937,
          "duration": 0.21428575000000194
        },
        {
          "name": "E4",
          "midi": 64,
          "time": 52.285723000000075,
          "velocity": 0.5984251968503937,
          "duration": 0.21428575000000194
        },
        {
          "name": "A4",
          "midi": 69,
          "time": 52.50000875000008,
          "velocity": 0.5984251968503937,
          "duration": 0.21428575000000194
        },
        {
          "name": "B4",
          "midi": 71,
          "time": 52.71429450000008,
          "velocity": 0.5984251968503937,
          "duration": 0.4285715000000039
        },
        {
          "name": "E2",
          "midi": 40,
          "time": 52.71429450000008,
          "velocity": 0.5039370078740157,
          "duration": 0.21428575000000194
        },
        {
          "name": "E3",
          "midi": 52,
          "time": 52.92858025000008,
          "velocity": 0.5039370078740157,
          "duration": 0.21428575000000194
        },
        {
          "name": "G#3",
          "midi": 56,
          "time": 53.14286600000008,
          "velocity": 0.5511811023622047,
          "duration": 0.21428575000000194
        },
        {
          "name": "E4",
          "midi": 64,
          "time": 53.357151750000085,
          "velocity": 0.5984251968503937,
          "duration": 0.21428575000000194
        },
        {
          "name": "C5",
          "midi": 72,
          "time": 53.57143750000009,
          "velocity": 0.5984251968503937,
          "duration": 0.21428575000000194
        },
        {
          "name": "B4",
          "midi": 71,
          "time": 53.78572325000009,
          "velocity": 0.5984251968503937,
          "duration": 0.21428575000000194
        },
        {
          "name": "A4",
          "midi": 69,
          "time": 54.00000900000009,
          "velocity": 0.7007874015748031,
          "duration": 0.4285715000000039
        },
        {
          "name": "A2",
          "midi": 45,
          "time": 54.00000900000009,
          "velocity": 0.5511811023622047,
          "duration": 0.21428575000000194
        },
        {
          "name": "E3",
          "midi": 52,
          "time": 54.21429475000009,
          "velocity": 0.5984251968503937,
          "duration": 0.21428575000000194
        },
        {
          "name": "A3",
          "midi": 57,
          "time": 54.428580500000095,
          "velocity": 0.6535433070866141,
          "duration": 0.21428575000000194
        },
        {
          "name": "A#3",
          "midi": 58,
          "time": 54.6428662500001,
          "velocity": 0.4015748031496063,
          "duration": 0.10714287500000097
        },
        {
          "name": "C4",
          "midi": 60,
          "time": 54.6428662500001,
          "velocity": 0.4015748031496063,
          "duration": 0.10714287500000097
        },
        {
          "name": "E4",
          "midi": 64,
          "time": 54.6428662500001,
          "velocity": 0.4015748031496063,
          "duration": 0.10714287500000097
        },
        {
          "name": "C5",
          "midi": 72,
          "time": 54.6428662500001,
          "velocity": 0.4015748031496063,
          "duration": 0.10714287500000097
        },
        {
          "name": "C4",
          "midi": 60,
          "time": 54.8571520000001,
          "velocity": 0.5039370078740157,
          "duration": 0.10714287500000097
        },
        {
          "name": "A3",
          "midi": 57,
          "time": 54.8571520000001,
          "velocity": 0.5039370078740157,
          "duration": 0.10714287500000097
        },
        {
          "name": "F4",
          "midi": 65,
          "time": 54.8571520000001,
          "velocity": 0.5039370078740157,
          "duration": 0.10714287500000097
        },
        {
          "name": "C5",
          "midi": 72,
          "time": 54.8571520000001,
          "velocity": 0.5039370078740157,
          "duration": 0.10714287500000097
        },
        {
          "name": "A#3",
          "midi": 58,
          "time": 55.0714377500001,
          "velocity": 0.6141732283464567,
          "duration": 0.10714287500000097
        },
        {
          "name": "C4",
          "midi": 60,
          "time": 55.0714377500001,
          "velocity": 0.6141732283464567,
          "duration": 0.10714287500000097
        },
        {
          "name": "G3",
          "midi": 55,
          "time": 55.0714377500001,
          "velocity": 0.6141732283464567,
          "duration": 0.10714287500000097
        },
        {
          "name": "E4",
          "midi": 64,
          "time": 55.0714377500001,
          "velocity": 0.5511811023622047,
          "duration": 0.10714287500000097
        },
        {
          "name": "C5",
          "midi": 72,
          "time": 55.0714377500001,
          "velocity": 0.6535433070866141,
          "duration": 0.10714287500000097
        },
        {
          "name": "G4",
          "midi": 67,
          "time": 55.0714377500001,
          "velocity": 0.5511811023622047,
          "duration": 0.10714287500000097
        },
        {
          "name": "C5",
          "midi": 72,
          "time": 55.2857235000001,
          "velocity": 0.7480314960629921,
          "duration": 0.8571430000000078
        },
        {
          "name": "F3",
          "midi": 53,
          "time": 55.2857235000001,
          "velocity": 0.5984251968503937,
          "duration": 0.21428575000000194
        },
        {
          "name": "A3",
          "midi": 57,
          "time": 55.500009250000105,
          "velocity": 0.5984251968503937,
          "duration": 0.21428575000000194
        },
        {
          "name": "C4",
          "midi": 60,
          "time": 55.71429500000011,
          "velocity": 0.5984251968503937,
          "duration": 0.21428575000000194
        },
        {
          "name": "A3",
          "midi": 57,
          "time": 55.92858075000011,
          "velocity": 0.5984251968503937,
          "duration": 0.21428575000000194
        },
        {
          "name": "C4",
          "midi": 60,
          "time": 56.14286650000011,
          "velocity": 0.5984251968503937,
          "duration": 0.21428575000000194
        },
        {
          "name": "F5",
          "midi": 77,
          "time": 56.14286650000011,
          "velocity": 0.5984251968503937,
          "duration": 0.3214286250000029
        },
        {
          "name": "A3",
          "midi": 57,
          "time": 56.35715225000011,
          "velocity": 0.5984251968503937,
          "duration": 0.21428575000000194
        },
        {
          "name": "E5",
          "midi": 76,
          "time": 56.46429512500011,
          "velocity": 0.5984251968503937,
          "duration": 0.10714287500000097
        },
        {
          "name": "E5",
          "midi": 76,
          "time": 56.571438000000114,
          "velocity": 0.5984251968503937,
          "duration": 0.4285715000000039
        },
        {
          "name": "F3",
          "midi": 53,
          "time": 56.571438000000114,
          "velocity": 0.5984251968503937,
          "duration": 0.21428575000000194
        },
        {
          "name": "A#3",
          "midi": 58,
          "time": 56.785723750000116,
          "velocity": 0.5984251968503937,
          "duration": 0.21428575000000194
        },
        {
          "name": "D5",
          "midi": 74,
          "time": 57.00000950000012,
          "velocity": 0.5984251968503937,
          "duration": 0.4285715000000039
        },
        {
          "name": "D4",
          "midi": 62,
          "time": 57.00000950000012,
          "velocity": 0.5984251968503937,
          "duration": 0.21428575000000194
        },
        {
          "name": "A#3",
          "midi": 58,
          "time": 57.21429525000012,
          "velocity": 0.5984251968503937,
          "duration": 0.21428575000000194
        },
        {
          "name": "D4",
          "midi": 62,
          "time": 57.42858100000012,
          "velocity": 0.5984251968503937,
          "duration": 0.21428575000000194
        },
        {
          "name": "A#5",
          "midi": 82,
          "time": 57.42858100000012,
          "velocity": 0.5984251968503937,
          "duration": 0.3214286250000029
        },
        {
          "name": "A#3",
          "midi": 58,
          "time": 57.642866750000124,
          "velocity": 0.5984251968503937,
          "duration": 0.21428575000000194
        },
        {
          "name": "A5",
          "midi": 81,
          "time": 57.750009625000125,
          "velocity": 0.5984251968503937,
          "duration": 0.10714287500000097
        },
        {
          "name": "A5",
          "midi": 81,
          "time": 57.857152500000126,
          "velocity": 0.5984251968503937,
          "duration": 0.21428575000000194
        },
        {
          "name": "F3",
          "midi": 53,
          "time": 57.857152500000126,
          "velocity": 0.5984251968503937,
          "duration": 0.21428575000000194
        },
        {
          "name": "G5",
          "midi": 79,
          "time": 58.07143825000013,
          "velocity": 0.5984251968503937,
          "duration": 0.21428575000000194
        },
        {
          "name": "E4",
          "midi": 64,
          "time": 58.07143825000013,
          "velocity": 0.5984251968503937,
          "duration": 0.21428575000000194
        },
        {
          "name": "F5",
          "midi": 77,
          "time": 58.28572400000013,
          "velocity": 0.5984251968503937,
          "duration": 0.21428575000000194
        },
        {
          "name": "A#3",
          "midi": 58,
          "time": 58.28572400000013,
          "velocity": 0.5039370078740157,
          "duration": 0.21428575000000194
        },
        {
          "name": "G3",
          "midi": 55,
          "time": 58.28572400000013,
          "velocity": 0.5511811023622047,
          "duration": 0.21428575000000194
        },
        {
          "name": "F3",
          "midi": 53,
          "time": 58.28572400000013,
          "velocity": 0.5984251968503937,
          "duration": 0.21428575000000194
        },
        {
          "name": "E5",
          "midi": 76,
          "time": 58.50000975000013,
          "velocity": 0.5984251968503937,
          "duration": 0.21428575000000194
        },
        {
          "name": "E4",
          "midi": 64,
          "time": 58.50000975000013,
          "velocity": 0.5984251968503937,
          "duration": 0.21428575000000194
        },
        {
          "name": "D5",
          "midi": 74,
          "time": 58.714295500000134,
          "velocity": 0.5984251968503937,
          "duration": 0.21428575000000194
        },
        {
          "name": "A#3",
          "midi": 58,
          "time": 58.714295500000134,
          "velocity": 0.5039370078740157,
          "duration": 0.21428575000000194
        },
        {
          "name": "G3",
          "midi": 55,
          "time": 58.714295500000134,
          "velocity": 0.5511811023622047,
          "duration": 0.21428575000000194
        },
        {
          "name": "F3",
          "midi": 53,
          "time": 58.714295500000134,
          "velocity": 0.5984251968503937,
          "duration": 0.21428575000000194
        },
        {
          "name": "C5",
          "midi": 72,
          "time": 58.928581250000136,
          "velocity": 0.5984251968503937,
          "duration": 0.21428575000000194
        },
        {
          "name": "E4",
          "midi": 64,
          "time": 58.928581250000136,
          "velocity": 0.5984251968503937,
          "duration": 0.21428575000000194
        },
        {
          "name": "A#4",
          "midi": 70,
          "time": 59.14286700000014,
          "velocity": 0.5984251968503937,
          "duration": 0.4285715000000039
        },
        {
          "name": "F3",
          "midi": 53,
          "time": 59.14286700000014,
          "velocity": 0.6141732283464567,
          "duration": 0.21428575000000194
        },
        {
          "name": "A3",
          "midi": 57,
          "time": 59.35715275000014,
          "velocity": 0.6141732283464567,
          "duration": 0.21428575000000194
        },
        {
          "name": "A4",
          "midi": 69,
          "time": 59.57143850000014,
          "velocity": 0.5984251968503937,
          "duration": 0.4285715000000039
        },
        {
          "name": "C4",
          "midi": 60,
          "time": 59.57143850000014,
          "velocity": 0.6141732283464567,
          "duration": 0.21428575000000194
        },
        {
          "name": "A3",
          "midi": 57,
          "time": 59.78572425000014,
          "velocity": 0.6141732283464567,
          "duration": 0.21428575000000194
        },
        {
          "name": "A4",
          "midi": 69,
          "time": 60.000010000000145,
          "velocity": 0.6535433070866141,
          "duration": 0.10714287500000097
        },
        {
          "name": "C4",
          "midi": 60,
          "time": 60.000010000000145,
          "velocity": 0.6141732283464567,
          "duration": 0.21428575000000194
        },
        {
          "name": "G4",
          "midi": 67,
          "time": 60.107152875000146,
          "velocity": 0.5984251968503937,
          "duration": 0.10714287500000097
        },
        {
          "name": "A4",
          "midi": 69,
          "time": 60.21429575000015,
          "velocity": 0.6535433070866141,
          "duration": 0.10714287500000097
        },
        {
          "name": "A3",
          "midi": 57,
          "time": 60.21429575000015,
          "velocity": 0.6141732283464567,
          "duration": 0.21428575000000194
        },
        {
          "name": "A#4",
          "midi": 70,
          "time": 60.32143862500015,
          "velocity": 0.7007874015748031,
          "duration": 0.10714287500000097
        },
        {
          "name": "C5",
          "midi": 72,
          "time": 60.42858150000015,
          "velocity": 0.7480314960629921,
          "duration": 0.8571430000000078
        },
        {
          "name": "F3",
          "midi": 53,
          "time": 60.42858150000015,
          "velocity": 0.5984251968503937,
          "duration": 0.21428575000000194
        },
        {
          "name": "A3",
          "midi": 57,
          "time": 60.64286725000015,
          "velocity": 0.5984251968503937,
          "duration": 0.21428575000000194
        },
        {
          "name": "C4",
          "midi": 60,
          "time": 60.85715300000015,
          "velocity": 0.5984251968503937,
          "duration": 0.21428575000000194
        },
        {
          "name": "A3",
          "midi": 57,
          "time": 61.071438750000155,
          "velocity": 0.5984251968503937,
          "duration": 0.21428575000000194
        },
        {
          "name": "D5",
          "midi": 74,
          "time": 61.28572450000016,
          "velocity": 0.7086614173228346,
          "duration": 0.21428575000000194
        },
        {
          "name": "C4",
          "midi": 60,
          "time": 61.28572450000016,
          "velocity": 0.5984251968503937,
          "duration": 0.21428575000000194
        },
        {
          "name": "D#5",
          "midi": 75,
          "time": 61.50001025000016,
          "velocity": 0.7086614173228346,
          "duration": 0.21428575000000194
        },
        {
          "name": "A3",
          "midi": 57,
          "time": 61.50001025000016,
          "velocity": 0.5984251968503937,
          "duration": 0.21428575000000194
        },
        {
          "name": "E5",
          "midi": 76,
          "time": 61.71429600000016,
          "velocity": 0.6141732283464567,
          "duration": 0.6428572500000058
        },
        {
          "name": "E3",
          "midi": 52,
          "time": 61.71429600000016,
          "velocity": 0.5984251968503937,
          "duration": 0.21428575000000194
        },
        {
          "name": "A3",
          "midi": 57,
          "time": 61.92858175000016,
          "velocity": 0.5984251968503937,
          "duration": 0.21428575000000194
        },
        {
          "name": "C4",
          "midi": 60,
          "time": 62.142867500000165,
          "velocity": 0.5984251968503937,
          "duration": 0.21428575000000194
        },
        {
          "name": "E5",
          "midi": 76,
          "time": 62.35715325000017,
          "velocity": 0.7086614173228346,
          "duration": 0.21428575000000194
        },
        {
          "name": "A3",
          "midi": 57,
          "time": 62.35715325000017,
          "velocity": 0.5984251968503937,
          "duration": 0.21428575000000194
        },
        {
          "name": "F5",
          "midi": 77,
          "time": 62.57143900000017,
          "velocity": 0.7086614173228346,
          "duration": 0.21428575000000194
        },
        {
          "name": "D4",
          "midi": 62,
          "time": 62.57143900000017,
          "velocity": 0.5984251968503937,
          "duration": 0.21428575000000194
        },
        {
          "name": "D3",
          "midi": 50,
          "time": 62.57143900000017,
          "velocity": 0.5984251968503937,
          "duration": 0.21428575000000194
        },
        {
          "name": "A4",
          "midi": 69,
          "time": 62.78572475000017,
          "velocity": 0.7086614173228346,
          "duration": 0.21428575000000194
        },
        {
          "name": "F3",
          "midi": 53,
          "time": 62.78572475000017,
          "velocity": 0.5984251968503937,
          "duration": 0.21428575000000194
        },
        {
          "name": "C5",
          "midi": 72,
          "time": 63.00001050000017,
          "velocity": 0.7086614173228346,
          "duration": 0.8571430000000078
        },
        {
          "name": "G3",
          "midi": 55,
          "time": 63.00001050000017,
          "velocity": 0.5984251968503937,
          "duration": 0.21428575000000194
        },
        {
          "name": "E4",
          "midi": 64,
          "time": 63.214296250000174,
          "velocity": 0.5984251968503937,
          "duration": 0.21428575000000194
        },
        {
          "name": "G3",
          "midi": 55,
          "time": 63.428582000000176,
          "velocity": 0.5984251968503937,
          "duration": 0.21428575000000194
        },
        {
          "name": "E4",
          "midi": 64,
          "time": 63.64286775000018,
          "velocity": 0.5984251968503937,
          "duration": 0.21428575000000194
        },
        {
          "name": "D5",
          "midi": 74,
          "time": 63.85715350000018,
          "velocity": 0.7086614173228346,
          "duration": 0.3214286249999958
        },
        {
          "name": "G3",
          "midi": 55,
          "time": 63.85715350000018,
          "velocity": 0.5984251968503937,
          "duration": 0.21428575000000194
        },
        {
          "name": "F4",
          "midi": 65,
          "time": 64.07143925000018,
          "velocity": 0.5984251968503937,
          "duration": 0.21428574999998773
        },
        {
          "name": "B4",
          "midi": 71,
          "time": 64.17858212500018,
          "velocity": 0.7086614173228346,
          "duration": 0.10714287499999386
        },
        {
          "name": "C5",
          "midi": 72,
          "time": 64.28572500000017,
          "velocity": 0.7086614173228346,
          "duration": 0.10714287499999386
        },
        {
          "name": "C4",
          "midi": 60,
          "time": 64.28572500000017,
          "velocity": 0.5984251968503937,
          "duration": 0.42857149999997546
        },
        {
          "name": "E4",
          "midi": 64,
          "time": 64.28572500000017,
          "velocity": 0.5984251968503937,
          "duration": 0.42857149999997546
        },
        {
          "name": "G5",
          "midi": 79,
          "time": 64.39286787500016,
          "velocity": 0.7086614173228346,
          "duration": 0.10714287499999386
        },
        {
          "name": "G4",
          "midi": 67,
          "time": 64.50001075000016,
          "velocity": 0.7086614173228346,
          "duration": 0.10714287499999386
        },
        {
          "name": "G5",
          "midi": 79,
          "time": 64.60715362500015,
          "velocity": 0.7086614173228346,
          "duration": 0.10714287499999386
        },
        {
          "name": "A4",
          "midi": 69,
          "time": 64.71429650000015,
          "velocity": 0.7086614173228346,
          "duration": 0.10714287499999386
        },
        {
          "name": "G5",
          "midi": 79,
          "time": 64.82143937500014,
          "velocity": 0.7086614173228346,
          "duration": 0.10714287499999386
        },
        {
          "name": "B4",
          "midi": 71,
          "time": 64.92858225000013,
          "velocity": 0.7086614173228346,
          "duration": 0.10714287499999386
        },
        {
          "name": "G4",
          "midi": 67,
          "time": 64.92858225000013,
          "velocity": 0.5984251968503937,
          "duration": 0.10714287499999386
        },
        {
          "name": "F4",
          "midi": 65,
          "time": 64.92858225000013,
          "velocity": 0.5984251968503937,
          "duration": 0.10714287499999386
        },
        {
          "name": "G5",
          "midi": 79,
          "time": 65.03572512500013,
          "velocity": 0.7086614173228346,
          "duration": 0.10714287499999386
        },
        {
          "name": "C5",
          "midi": 72,
          "time": 65.14286800000012,
          "velocity": 0.7086614173228346,
          "duration": 0.10714287499999386
        },
        {
          "name": "G4",
          "midi": 67,
          "time": 65.14286800000012,
          "velocity": 0.5984251968503937,
          "duration": 0.10714287499999386
        },
        {
          "name": "E4",
          "midi": 64,
          "time": 65.14286800000012,
          "velocity": 0.5984251968503937,
          "duration": 0.10714287499999386
        },
        {
          "name": "G5",
          "midi": 79,
          "time": 65.25001087500011,
          "velocity": 0.7086614173228346,
          "duration": 0.10714287499999386
        },
        {
          "name": "D5",
          "midi": 74,
          "time": 65.35715375000011,
          "velocity": 0.7086614173228346,
          "duration": 0.10714287499999386
        },
        {
          "name": "G4",
          "midi": 67,
          "time": 65.35715375000011,
          "velocity": 0.5984251968503937,
          "duration": 0.10714287499999386
        },
        {
          "name": "F4",
          "midi": 65,
          "time": 65.35715375000011,
          "velocity": 0.5984251968503937,
          "duration": 0.10714287499999386
        },
        {
          "name": "D4",
          "midi": 62,
          "time": 65.35715375000011,
          "velocity": 0.5984251968503937,
          "duration": 0.10714287499999386
        },
        {
          "name": "G5",
          "midi": 79,
          "time": 65.4642966250001,
          "velocity": 0.7086614173228346,
          "duration": 0.10714287499999386
        },
        {
          "name": "E5",
          "midi": 76,
          "time": 65.5714395000001,
          "velocity": 0.7086614173228346,
          "duration": 0.10714287499999386
        },
        {
          "name": "C4",
          "midi": 60,
          "time": 65.5714395000001,
          "velocity": 0.5984251968503937,
          "duration": 0.21428574999998773
        },
        {
          "name": "E4",
          "midi": 64,
          "time": 65.5714395000001,
          "velocity": 0.5984251968503937,
          "duration": 0.21428574999998773
        },
        {
          "name": "G4",
          "midi": 67,
          "time": 65.5714395000001,
          "velocity": 0.5984251968503937,
          "duration": 0.21428574999998773
        },
        {
          "name": "G5",
          "midi": 79,
          "time": 65.67858237500009,
          "velocity": 0.7086614173228346,
          "duration": 0.10714287499999386
        },
        {
          "name": "C6",
          "midi": 84,
          "time": 65.78572525000008,
          "velocity": 0.7086614173228346,
          "duration": 0.10714287499999386
        },
        {
          "name": "B5",
          "midi": 83,
          "time": 65.89286812500008,
          "velocity": 0.7086614173228346,
          "duration": 0.10714287499999386
        },
        {
          "name": "A5",
          "midi": 81,
          "time": 66.00001100000007,
          "velocity": 0.7086614173228346,
          "duration": 0.10714287499999386
        },
        {
          "name": "F3",
          "midi": 53,
          "time": 66.00001100000007,
          "velocity": 0.5984251968503937,
          "duration": 0.21428574999998773
        },
        {
          "name": "A3",
          "midi": 57,
          "time": 66.00001100000007,
          "velocity": 0.5984251968503937,
          "duration": 0.21428574999998773
        },
        {
          "name": "G5",
          "midi": 79,
          "time": 66.10715387500007,
          "velocity": 0.7086614173228346,
          "duration": 0.10714287499999386
        },
        {
          "name": "F5",
          "midi": 77,
          "time": 66.21429675000006,
          "velocity": 0.7086614173228346,
          "duration": 0.10714287499999386
        },
        {
          "name": "D5",
          "midi": 74,
          "time": 66.32143962500005,
          "velocity": 0.7086614173228346,
          "duration": 0.10714287499999386
        },
        {
          "name": "C5",
          "midi": 72,
          "time": 66.42858250000005,
          "velocity": 0.7086614173228346,
          "duration": 0.10714287499999386
        },
        {
          "name": "G3",
          "midi": 55,
          "time": 66.42858250000005,
          "velocity": 0.5984251968503937,
          "duration": 0.21428574999998773
        },
        {
          "name": "B3",
          "midi": 59,
          "time": 66.42858250000005,
          "velocity": 0.5984251968503937,
          "duration": 0.21428574999998773
        },
        {
          "name": "G5",
          "midi": 79,
          "time": 66.53572537500004,
          "velocity": 0.7086614173228346,
          "duration": 0.10714287499999386
        },
        {
          "name": "F5",
          "midi": 77,
          "time": 66.64286825000003,
          "velocity": 0.7086614173228346,
          "duration": 0.10714287499999386
        },
        {
          "name": "D5",
          "midi": 74,
          "time": 66.75001112500003,
          "velocity": 0.7086614173228346,
          "duration": 0.10714287499999386
        },
        {
          "name": "C5",
          "midi": 72,
          "time": 66.85715400000002,
          "velocity": 0.7086614173228346,
          "duration": 0.10714287499999386
        },
        {
          "name": "C4",
          "midi": 60,
          "time": 66.85715400000002,
          "velocity": 0.5984251968503937,
          "duration": 0.21428574999998773
        },
        {
          "name": "G5",
          "midi": 79,
          "time": 66.96429687500002,
          "velocity": 0.7086614173228346,
          "duration": 0.10714287499999386
        },
        {
          "name": "G4",
          "midi": 67,
          "time": 67.07143975000001,
          "velocity": 0.7086614173228346,
          "duration": 0.10714287499999386
        },
        {
          "name": "G5",
          "midi": 79,
          "time": 67.178582625,
          "velocity": 0.7086614173228346,
          "duration": 0.10714287499999386
        },
        {
          "name": "A4",
          "midi": 69,
          "time": 67.2857255,
          "velocity": 0.7086614173228346,
          "duration": 0.10714287499999386
        },
        {
          "name": "G5",
          "midi": 79,
          "time": 67.39286837499999,
          "velocity": 0.7086614173228346,
          "duration": 0.10714287499999386
        },
        {
          "name": "B4",
          "midi": 71,
          "time": 67.50001124999999,
          "velocity": 0.7086614173228346,
          "duration": 0.10714287499999386
        },
        {
          "name": "G4",
          "midi": 67,
          "time": 67.50001124999999,
          "velocity": 0.5984251968503937,
          "duration": 0.10714287499999386
        },
        {
          "name": "F4",
          "midi": 65,
          "time": 67.50001124999999,
          "velocity": 0.5984251968503937,
          "duration": 0.10714287499999386
        },
        {
          "name": "G5",
          "midi": 79,
          "time": 67.60715412499998,
          "velocity": 0.7086614173228346,
          "duration": 0.10714287499999386
        },
        {
          "name": "C5",
          "midi": 72,
          "time": 67.71429699999997,
          "velocity": 0.7086614173228346,
          "duration": 0.10714287499999386
        },
        {
          "name": "G4",
          "midi": 67,
          "time": 67.71429699999997,
          "velocity": 0.5984251968503937,
          "duration": 0.10714287499999386
        },
        {
          "name": "E4",
          "midi": 64,
          "time": 67.71429699999997,
          "velocity": 0.5984251968503937,
          "duration": 0.10714287499999386
        },
        {
          "name": "G5",
          "midi": 79,
          "time": 67.82143987499997,
          "velocity": 0.7086614173228346,
          "duration": 0.10714287499999386
        },
        {
          "name": "D5",
          "midi": 74,
          "time": 67.92858274999996,
          "velocity": 0.7086614173228346,
          "duration": 0.10714287499999386
        },
        {
          "name": "G4",
          "midi": 67,
          "time": 67.92858274999996,
          "velocity": 0.5984251968503937,
          "duration": 0.10714287499999386
        },
        {
          "name": "F4",
          "midi": 65,
          "time": 67.92858274999996,
          "velocity": 0.5984251968503937,
          "duration": 0.10714287499999386
        },
        {
          "name": "D4",
          "midi": 62,
          "time": 67.92858274999996,
          "velocity": 0.5984251968503937,
          "duration": 0.10714287499999386
        },
        {
          "name": "G5",
          "midi": 79,
          "time": 68.03572562499996,
          "velocity": 0.7086614173228346,
          "duration": 0.10714287499999386
        },
        {
          "name": "E5",
          "midi": 76,
          "time": 68.14286849999995,
          "velocity": 0.7086614173228346,
          "duration": 0.10714287499999386
        },
        {
          "name": "C4",
          "midi": 60,
          "time": 68.14286849999995,
          "velocity": 0.5984251968503937,
          "duration": 0.21428574999998773
        },
        {
          "name": "E4",
          "midi": 64,
          "time": 68.14286849999995,
          "velocity": 0.5984251968503937,
          "duration": 0.21428574999998773
        },
        {
          "name": "G4",
          "midi": 67,
          "time": 68.14286849999995,
          "velocity": 0.5984251968503937,
          "duration": 0.21428574999998773
        },
        {
          "name": "G5",
          "midi": 79,
          "time": 68.25001137499994,
          "velocity": 0.7086614173228346,
          "duration": 0.10714287499999386
        },
        {
          "name": "C6",
          "midi": 84,
          "time": 68.35715424999994,
          "velocity": 0.7086614173228346,
          "duration": 0.10714287499999386
        },
        {
          "name": "B5",
          "midi": 83,
          "time": 68.46429712499993,
          "velocity": 0.7086614173228346,
          "duration": 0.10714287499999386
        },
        {
          "name": "A5",
          "midi": 81,
          "time": 68.57143999999992,
          "velocity": 0.7086614173228346,
          "duration": 0.10714287499999386
        },
        {
          "name": "F3",
          "midi": 53,
          "time": 68.57143999999992,
          "velocity": 0.5984251968503937,
          "duration": 0.21428574999998773
        },
        {
          "name": "A3",
          "midi": 57,
          "time": 68.57143999999992,
          "velocity": 0.5984251968503937,
          "duration": 0.21428574999998773
        },
        {
          "name": "G5",
          "midi": 79,
          "time": 68.67858287499992,
          "velocity": 0.7086614173228346,
          "duration": 0.10714287499999386
        },
        {
          "name": "F5",
          "midi": 77,
          "time": 68.78572574999991,
          "velocity": 0.7086614173228346,
          "duration": 0.10714287499999386
        },
        {
          "name": "E5",
          "midi": 76,
          "time": 68.8928686249999,
          "velocity": 0.7086614173228346,
          "duration": 0.10714287499999386
        },
        {
          "name": "D5",
          "midi": 74,
          "time": 69.0000114999999,
          "velocity": 0.7086614173228346,
          "duration": 0.10714287499999386
        },
        {
          "name": "G3",
          "midi": 55,
          "time": 69.0000114999999,
          "velocity": 0.5984251968503937,
          "duration": 0.21428574999998773
        },
        {
          "name": "B3",
          "midi": 59,
          "time": 69.0000114999999,
          "velocity": 0.5984251968503937,
          "duration": 0.21428574999998773
        },
        {
          "name": "G5",
          "midi": 79,
          "time": 69.1071543749999,
          "velocity": 0.7086614173228346,
          "duration": 0.10714287499999386
        },
        {
          "name": "F5",
          "midi": 77,
          "time": 69.21429724999989,
          "velocity": 0.7086614173228346,
          "duration": 0.10714287499999386
        },
        {
          "name": "D5",
          "midi": 74,
          "time": 69.32144012499988,
          "velocity": 0.7086614173228346,
          "duration": 0.10714287499999386
        },
        {
          "name": "E5",
          "midi": 76,
          "time": 69.42858299999988,
          "velocity": 0.7086614173228346,
          "duration": 0.10714287499999386
        },
        {
          "name": "G#3",
          "midi": 56,
          "time": 69.42858299999988,
          "velocity": 0.5984251968503937,
          "duration": 0.21428574999998773
        },
        {
          "name": "B3",
          "midi": 59,
          "time": 69.42858299999988,
          "velocity": 0.5984251968503937,
          "duration": 0.21428574999998773
        },
        {
          "name": "F5",
          "midi": 77,
          "time": 69.53572587499987,
          "velocity": 0.7086614173228346,
          "duration": 0.10714287499999386
        },
        {
          "name": "E5",
          "midi": 76,
          "time": 69.64286874999986,
          "velocity": 0.7086614173228346,
          "duration": 0.10714287499999386
        },
        {
          "name": "D#5",
          "midi": 75,
          "time": 69.75001162499986,
          "velocity": 0.7086614173228346,
          "duration": 0.10714287499999386
        },
        {
          "name": "E5",
          "midi": 76,
          "time": 69.85715449999985,
          "velocity": 0.7086614173228346,
          "duration": 0.10714287499999386
        },
        {
          "name": "B4",
          "midi": 71,
          "time": 69.96429737499984,
          "velocity": 0.7086614173228346,
          "duration": 0.10714287499999386
        },
        {
          "name": "E5",
          "midi": 76,
          "time": 70.07144024999984,
          "velocity": 0.7086614173228346,
          "duration": 0.10714287499999386
        },
        {
          "name": "D#5",
          "midi": 75,
          "time": 70.17858312499983,
          "velocity": 0.7086614173228346,
          "duration": 0.10714287499999386
        },
        {
          "name": "E5",
          "midi": 76,
          "time": 70.28572599999983,
          "velocity": 0.7086614173228346,
          "duration": 0.10714287499999386
        },
        {
          "name": "B4",
          "midi": 71,
          "time": 70.39286887499982,
          "velocity": 0.7086614173228346,
          "duration": 0.10714287499999386
        },
        {
          "name": "E5",
          "midi": 76,
          "time": 70.50001174999981,
          "velocity": 0.7086614173228346,
          "duration": 0.10714287499999386
        },
        {
          "name": "D#5",
          "midi": 75,
          "time": 70.60715462499981,
          "velocity": 0.7086614173228346,
          "duration": 0.10714287499999386
        },
        {
          "name": "E5",
          "midi": 76,
          "time": 70.7142974999998,
          "velocity": 0.6535433070866141,
          "duration": 0.6428572500000058
        },
        {
          "name": "B4",
          "midi": 71,
          "time": 71.35715474999981,
          "velocity": 0.6535433070866141,
          "duration": 0.21428575000000194
        },
        {
          "name": "E5",
          "midi": 76,
          "time": 71.57144049999981,
          "velocity": 0.6535433070866141,
          "duration": 0.21428575000000194
        },
        {
          "name": "D#5",
          "midi": 75,
          "time": 71.78572624999981,
          "velocity": 0.6535433070866141,
          "duration": 0.21428575000000194
        },
        {
          "name": "E5",
          "midi": 76,
          "time": 72.00001199999981,
          "velocity": 0.5511811023622047,
          "duration": 0.6428572500000058
        },
        {
          "name": "B4",
          "midi": 71,
          "time": 72.64286924999982,
          "velocity": 0.5511811023622047,
          "duration": 0.21428575000000194
        },
        {
          "name": "E5",
          "midi": 76,
          "time": 72.85715499999982,
          "velocity": 0.5039370078740157,
          "duration": 0.21428575000000194
        },
        {
          "name": "D#5",
          "midi": 75,
          "time": 73.07144074999982,
          "velocity": 0.5511811023622047,
          "duration": 0.21428575000000194
        },
        {
          "name": "E5",
          "midi": 76,
          "time": 73.28572649999983,
          "velocity": 0.5984251968503937,
          "duration": 0.21428575000000194
        },
        {
          "name": "D#5",
          "midi": 75,
          "time": 73.50001224999983,
          "velocity": 0.5511811023622047,
          "duration": 0.21428575000000194
        },
        {
          "name": "E5",
          "midi": 76,
          "time": 73.71429799999983,
          "velocity": 0.5984251968503937,
          "duration": 0.21428575000000194
        },
        {
          "name": "D#5",
          "midi": 75,
          "time": 73.92858374999983,
          "velocity": 0.5511811023622047,
          "duration": 0.21428575000000194
        },
        {
          "name": "E5",
          "midi": 76,
          "time": 74.14286949999983,
          "velocity": 0.5984251968503937,
          "duration": 0.21428575000000194
        },
        {
          "name": "D#5",
          "midi": 75,
          "time": 74.35715524999983,
          "velocity": 0.5984251968503937,
          "duration": 0.21428575000000194
        },
        {
          "name": "E5",
          "midi": 76,
          "time": 74.57144099999984,
          "velocity": 0.44881889763779526,
          "duration": 0.21428575000000194
        },
        {
          "name": "D#5",
          "midi": 75,
          "time": 74.78572674999984,
          "velocity": 0.5039370078740157,
          "duration": 0.21428575000000194
        },
        {
          "name": "E5",
          "midi": 76,
          "time": 75.00001249999984,
          "velocity": 0.5984251968503937,
          "duration": 0.21428575000000194
        },
        {
          "name": "B4",
          "midi": 71,
          "time": 75.21429824999984,
          "velocity": 0.5984251968503937,
          "duration": 0.21428575000000194
        },
        {
          "name": "D5",
          "midi": 74,
          "time": 75.42858399999984,
          "velocity": 0.5984251968503937,
          "duration": 0.21428575000000194
        },
        {
          "name": "C5",
          "midi": 72,
          "time": 75.64286974999985,
          "velocity": 0.5984251968503937,
          "duration": 0.21428575000000194
        },
        {
          "name": "A4",
          "midi": 69,
          "time": 75.85715549999985,
          "velocity": 0.5984251968503937,
          "duration": 0.6428572500000058
        },
        {
          "name": "A2",
          "midi": 45,
          "time": 75.85715549999985,
          "velocity": 0.5039370078740157,
          "duration": 0.21428575000000194
        },
        {
          "name": "E3",
          "midi": 52,
          "time": 76.07144124999985,
          "velocity": 0.5511811023622047,
          "duration": 0.21428575000000194
        },
        {
          "name": "A3",
          "midi": 57,
          "time": 76.28572699999985,
          "velocity": 0.5984251968503937,
          "duration": 0.21428575000000194
        },
        {
          "name": "C4",
          "midi": 60,
          "time": 76.50001274999985,
          "velocity": 0.5984251968503937,
          "duration": 0.21428575000000194
        },
        {
          "name": "E4",
          "midi": 64,
          "time": 76.71429849999986,
          "velocity": 0.5984251968503937,
          "duration": 0.21428575000000194
        },
        {
          "name": "A4",
          "midi": 69,
          "time": 76.92858424999986,
          "velocity": 0.5984251968503937,
          "duration": 0.21428575000000194
        },
        {
          "name": "B4",
          "midi": 71,
          "time": 77.14286999999986,
          "velocity": 0.5984251968503937,
          "duration": 0.6428572500000058
        },
        {
          "name": "E2",
          "midi": 40,
          "time": 77.14286999999986,
          "velocity": 0.5039370078740157,
          "duration": 0.21428575000000194
        },
        {
          "name": "E3",
          "midi": 52,
          "time": 77.35715574999986,
          "velocity": 0.5511811023622047,
          "duration": 0.21428575000000194
        },
        {
          "name": "G#3",
          "midi": 56,
          "time": 77.57144149999986,
          "velocity": 0.5984251968503937,
          "duration": 0.21428575000000194
        },
        {
          "name": "E4",
          "midi": 64,
          "time": 77.78572724999987,
          "velocity": 0.5984251968503937,
          "duration": 0.21428575000000194
        },
        {
          "name": "G#4",
          "midi": 68,
          "time": 78.00001299999987,
          "velocity": 0.5984251968503937,
          "duration": 0.21428575000000194
        },
        {
          "name": "B4",
          "midi": 71,
          "time": 78.21429874999987,
          "velocity": 0.5984251968503937,
          "duration": 0.21428575000000194
        },
        {
          "name": "C5",
          "midi": 72,
          "time": 78.42858449999987,
          "velocity": 0.5984251968503937,
          "duration": 0.6428572500000058
        },
        {
          "name": "A2",
          "midi": 45,
          "time": 78.42858449999987,
          "velocity": 0.5511811023622047,
          "duration": 0.21428575000000194
        },
        {
          "name": "E3",
          "midi": 52,
          "time": 78.64287024999987,
          "velocity": 0.5511811023622047,
          "duration": 0.21428575000000194
        },
        {
          "name": "A3",
          "midi": 57,
          "time": 78.85715599999988,
          "velocity": 0.5984251968503937,
          "duration": 0.21428575000000194
        },
        {
          "name": "E4",
          "midi": 64,
          "time": 79.07144174999988,
          "velocity": 0.5984251968503937,
          "duration": 0.21428575000000194
        },
        {
          "name": "E5",
          "midi": 76,
          "time": 79.28572749999988,
          "velocity": 0.5984251968503937,
          "duration": 0.21428575000000194
        },
        {
          "name": "D#5",
          "midi": 75,
          "time": 79.50001324999988,
          "velocity": 0.5511811023622047,
          "duration": 0.21428575000000194
        },
        {
          "name": "E5",
          "midi": 76,
          "time": 79.71429899999988,
          "velocity": 0.5984251968503937,
          "duration": 0.21428575000000194
        },
        {
          "name": "D#5",
          "midi": 75,
          "time": 79.92858474999989,
          "velocity": 0.5511811023622047,
          "duration": 0.21428575000000194
        },
        {
          "name": "E5",
          "midi": 76,
          "time": 80.14287049999989,
          "velocity": 0.5984251968503937,
          "duration": 0.21428575000000194
        },
        {
          "name": "B4",
          "midi": 71,
          "time": 80.35715624999989,
          "velocity": 0.5984251968503937,
          "duration": 0.21428575000000194
        },
        {
          "name": "D5",
          "midi": 74,
          "time": 80.57144199999989,
          "velocity": 0.5984251968503937,
          "duration": 0.21428575000000194
        },
        {
          "name": "C5",
          "midi": 72,
          "time": 80.7857277499999,
          "velocity": 0.5984251968503937,
          "duration": 0.21428575000000194
        },
        {
          "name": "A4",
          "midi": 69,
          "time": 81.0000134999999,
          "velocity": 0.5984251968503937,
          "duration": 0.6428572500000058
        },
        {
          "name": "A2",
          "midi": 45,
          "time": 81.0000134999999,
          "velocity": 0.5511811023622047,
          "duration": 0.21428575000000194
        },
        {
          "name": "E3",
          "midi": 52,
          "time": 81.2142992499999,
          "velocity": 0.5984251968503937,
          "duration": 0.21428575000000194
        },
        {
          "name": "A3",
          "midi": 57,
          "time": 81.4285849999999,
          "velocity": 0.5984251968503937,
          "duration": 0.21428575000000194
        },
        {
          "name": "C4",
          "midi": 60,
          "time": 81.6428707499999,
          "velocity": 0.5984251968503937,
          "duration": 0.21428575000000194
        },
        {
          "name": "E4",
          "midi": 64,
          "time": 81.8571564999999,
          "velocity": 0.5984251968503937,
          "duration": 0.21428575000000194
        },
        {
          "name": "A4",
          "midi": 69,
          "time": 82.0714422499999,
          "velocity": 0.5984251968503937,
          "duration": 0.21428575000000194
        },
        {
          "name": "B4",
          "midi": 71,
          "time": 82.2857279999999,
          "velocity": 0.5984251968503937,
          "duration": 0.6428572500000058
        },
        {
          "name": "E2",
          "midi": 40,
          "time": 82.2857279999999,
          "velocity": 0.5511811023622047,
          "duration": 0.21428575000000194
        },
        {
          "name": "E3",
          "midi": 52,
          "time": 82.50001374999991,
          "velocity": 0.5511811023622047,
          "duration": 0.21428575000000194
        },
        {
          "name": "G#3",
          "midi": 56,
          "time": 82.71429949999991,
          "velocity": 0.5984251968503937,
          "duration": 0.21428575000000194
        },
        {
          "name": "E4",
          "midi": 64,
          "time": 82.92858524999991,
          "velocity": 0.5984251968503937,
          "duration": 0.21428575000000194
        },
        {
          "name": "C5",
          "midi": 72,
          "time": 83.14287099999991,
          "velocity": 0.5984251968503937,
          "duration": 0.21428575000000194
        },
        {
          "name": "B4",
          "midi": 71,
          "time": 83.35715674999992,
          "velocity": 0.5984251968503937,
          "duration": 0.21428575000000194
        },
        {
          "name": "A4",
          "midi": 69,
          "time": 83.57144249999992,
          "velocity": 0.5984251968503937,
          "duration": 0.6428572500000058
        },
        {
          "name": "A2",
          "midi": 45,
          "time": 83.57144249999992,
          "velocity": 0.5039370078740157,
          "duration": 0.21428575000000194
        },
        {
          "name": "E3",
          "midi": 52,
          "time": 83.78572824999992,
          "velocity": 0.5511811023622047,
          "duration": 0.21428575000000194
        },
        {
          "name": "A3",
          "midi": 57,
          "time": 84.00001399999992,
          "velocity": 0.5984251968503937,
          "duration": 0.21428575000000194
        },
        {
          "name": "E5",
          "midi": 76,
          "time": 84.42858549999993,
          "velocity": 0.5039370078740157,
          "duration": 0.21428575000000194
        },
        {
          "name": "D#5",
          "midi": 75,
          "time": 84.64287124999993,
          "velocity": 0.5511811023622047,
          "duration": 0.21428575000000194
        },
        {
          "name": "E5",
          "midi": 76,
          "time": 84.85715699999993,
          "velocity": 0.5984251968503937,
          "duration": 0.21428575000000194
        },
        {
          "name": "D#5",
          "midi": 75,
          "time": 85.07144274999993,
          "velocity": 0.5039370078740157,
          "duration": 0.21428575000000194
        },
        {
          "name": "E5",
          "midi": 76,
          "time": 85.28572849999993,
          "velocity": 0.5984251968503937,
          "duration": 0.21428575000000194
        },
        {
          "name": "B4",
          "midi": 71,
          "time": 85.50001424999994,
          "velocity": 0.5984251968503937,
          "duration": 0.21428575000000194
        },
        {
          "name": "D5",
          "midi": 74,
          "time": 85.71429999999994,
          "velocity": 0.5984251968503937,
          "duration": 0.21428575000000194
        },
        {
          "name": "C5",
          "midi": 72,
          "time": 85.92858574999994,
          "velocity": 0.5984251968503937,
          "duration": 0.21428575000000194
        },
        {
          "name": "A4",
          "midi": 69,
          "time": 86.14287149999994,
          "velocity": 0.5984251968503937,
          "duration": 0.6428572500000058
        },
        {
          "name": "A2",
          "midi": 45,
          "time": 86.14287149999994,
          "velocity": 0.5039370078740157,
          "duration": 0.21428575000000194
        },
        {
          "name": "E3",
          "midi": 52,
          "time": 86.35715724999994,
          "velocity": 0.5511811023622047,
          "duration": 0.21428575000000194
        },
        {
          "name": "A3",
          "midi": 57,
          "time": 86.57144299999995,
          "velocity": 0.5511811023622047,
          "duration": 0.21428575000000194
        },
        {
          "name": "C4",
          "midi": 60,
          "time": 86.78572874999995,
          "velocity": 0.5984251968503937,
          "duration": 0.21428575000000194
        },
        {
          "name": "E4",
          "midi": 64,
          "time": 87.00001449999995,
          "velocity": 0.5984251968503937,
          "duration": 0.21428575000000194
        },
        {
          "name": "A4",
          "midi": 69,
          "time": 87.21430024999995,
          "velocity": 0.5984251968503937,
          "duration": 0.21428575000000194
        },
        {
          "name": "B4",
          "midi": 71,
          "time": 87.42858599999995,
          "velocity": 0.5984251968503937,
          "duration": 0.6428572500000058
        },
        {
          "name": "E2",
          "midi": 40,
          "time": 87.42858599999995,
          "velocity": 0.5039370078740157,
          "duration": 0.21428575000000194
        },
        {
          "name": "E3",
          "midi": 52,
          "time": 87.64287174999996,
          "velocity": 0.5511811023622047,
          "duration": 0.21428575000000194
        },
        {
          "name": "G#3",
          "midi": 56,
          "time": 87.85715749999996,
          "velocity": 0.5511811023622047,
          "duration": 0.21428575000000194
        },
        {
          "name": "E4",
          "midi": 64,
          "time": 88.07144324999996,
          "velocity": 0.5511811023622047,
          "duration": 0.21428575000000194
        },
        {
          "name": "G#4",
          "midi": 68,
          "time": 88.28572899999996,
          "velocity": 0.5984251968503937,
          "duration": 0.21428575000000194
        },
        {
          "name": "B4",
          "midi": 71,
          "time": 88.50001474999996,
          "velocity": 0.5984251968503937,
          "duration": 0.21428575000000194
        },
        {
          "name": "C5",
          "midi": 72,
          "time": 88.71430049999996,
          "velocity": 0.6535433070866141,
          "duration": 0.4285715000000039
        },
        {
          "name": "A2",
          "midi": 45,
          "time": 88.71430049999996,
          "velocity": 0.5511811023622047,
          "duration": 0.21428575000000194
        },
        {
          "name": "E3",
          "midi": 52,
          "time": 88.92858624999997,
          "velocity": 0.5511811023622047,
          "duration": 0.21428575000000194
        },
        {
          "name": "A3",
          "midi": 57,
          "time": 89.14287199999997,
          "velocity": 0.5984251968503937,
          "duration": 0.21428575000000194
        },
        {
          "name": "E4",
          "midi": 64,
          "time": 89.35715774999997,
          "velocity": 0.5984251968503937,
          "duration": 0.21428575000000194
        },
        {
          "name": "E5",
          "midi": 76,
          "time": 89.57144349999997,
          "velocity": 0.5984251968503937,
          "duration": 0.21428575000000194
        },
        {
          "name": "D#5",
          "midi": 75,
          "time": 89.78572924999997,
          "velocity": 0.5984251968503937,
          "duration": 0.21428575000000194
        },
        {
          "name": "E5",
          "midi": 76,
          "time": 90.00001499999998,
          "velocity": 0.5984251968503937,
          "duration": 0.21428575000000194
        },
        {
          "name": "D#5",
          "midi": 75,
          "time": 90.21430074999998,
          "velocity": 0.5984251968503937,
          "duration": 0.21428575000000194
        },
        {
          "name": "E5",
          "midi": 76,
          "time": 90.42858649999998,
          "velocity": 0.5984251968503937,
          "duration": 0.21428575000000194
        },
        {
          "name": "B4",
          "midi": 71,
          "time": 90.64287224999998,
          "velocity": 0.5984251968503937,
          "duration": 0.21428575000000194
        },
        {
          "name": "D5",
          "midi": 74,
          "time": 90.85715799999998,
          "velocity": 0.5984251968503937,
          "duration": 0.21428575000000194
        },
        {
          "name": "C5",
          "midi": 72,
          "time": 91.07144374999999,
          "velocity": 0.5984251968503937,
          "duration": 0.21428575000000194
        },
        {
          "name": "A4",
          "midi": 69,
          "time": 91.28572949999999,
          "velocity": 0.5984251968503937,
          "duration": 0.4285715000000039
        },
        {
          "name": "A2",
          "midi": 45,
          "time": 91.28572949999999,
          "velocity": 0.5511811023622047,
          "duration": 0.21428575000000194
        },
        {
          "name": "E3",
          "midi": 52,
          "time": 91.50001524999999,
          "velocity": 0.5511811023622047,
          "duration": 0.21428575000000194
        },
        {
          "name": "A3",
          "midi": 57,
          "time": 91.71430099999999,
          "velocity": 0.5511811023622047,
          "duration": 0.21428575000000194
        },
        {
          "name": "C4",
          "midi": 60,
          "time": 91.92858675,
          "velocity": 0.5984251968503937,
          "duration": 0.21428575000000194
        },
        {
          "name": "E4",
          "midi": 64,
          "time": 92.1428725,
          "velocity": 0.6535433070866141,
          "duration": 0.21428575000000194
        },
        {
          "name": "A4",
          "midi": 69,
          "time": 92.35715825,
          "velocity": 0.6535433070866141,
          "duration": 0.21428575000000194
        },
        {
          "name": "B4",
          "midi": 71,
          "time": 92.571444,
          "velocity": 0.6535433070866141,
          "duration": 0.4285715000000039
        },
        {
          "name": "E2",
          "midi": 40,
          "time": 92.571444,
          "velocity": 0.5511811023622047,
          "duration": 0.21428575000000194
        },
        {
          "name": "E3",
          "midi": 52,
          "time": 92.78572975,
          "velocity": 0.5511811023622047,
          "duration": 0.21428575000000194
        },
        {
          "name": "G#3",
          "midi": 56,
          "time": 93.0000155,
          "velocity": 0.5511811023622047,
          "duration": 0.21428575000000194
        },
        {
          "name": "E4",
          "midi": 64,
          "time": 93.21430125,
          "velocity": 0.5984251968503937,
          "duration": 0.21428575000000194
        },
        {
          "name": "C5",
          "midi": 72,
          "time": 93.42858700000001,
          "velocity": 0.5984251968503937,
          "duration": 0.21428575000000194
        },
        {
          "name": "B4",
          "midi": 71,
          "time": 93.64287275000001,
          "velocity": 0.5984251968503937,
          "duration": 0.21428575000000194
        },
        {
          "name": "A4",
          "midi": 69,
          "time": 93.85715850000001,
          "velocity": 0.6535433070866141,
          "duration": 0.4285715000000039
        },
        {
          "name": "A2",
          "midi": 45,
          "time": 93.85715850000001,
          "velocity": 0.5039370078740157,
          "duration": 0.21428575000000194
        },
        {
          "name": "E3",
          "midi": 52,
          "time": 94.07144425000001,
          "velocity": 0.5511811023622047,
          "duration": 0.21428575000000194
        },
        {
          "name": "A3",
          "midi": 57,
          "time": 94.28573000000002,
          "velocity": 0.5984251968503937,
          "duration": 0.21428575000000194
        },
        {
          "name": "B4",
          "midi": 71,
          "time": 94.50001575000002,
          "velocity": 0.6535433070866141,
          "duration": 0.21428575000000194
        },
        {
          "name": "C5",
          "midi": 72,
          "time": 94.71430150000002,
          "velocity": 0.5984251968503937,
          "duration": 0.21428575000000194
        },
        {
          "name": "D5",
          "midi": 74,
          "time": 94.92858725000002,
          "velocity": 0.5984251968503937,
          "duration": 0.21428575000000194
        },
        {
          "name": "E5",
          "midi": 76,
          "time": 95.14287300000002,
          "velocity": 0.6535433070866141,
          "duration": 0.6428572500000058
        },
        {
          "name": "C3",
          "midi": 48,
          "time": 95.14287300000002,
          "velocity": 0.5039370078740157,
          "duration": 0.21428575000000194
        },
        {
          "name": "G3",
          "midi": 55,
          "time": 95.35715875000002,
          "velocity": 0.5511811023622047,
          "duration": 0.21428575000000194
        },
        {
          "name": "C4",
          "midi": 60,
          "time": 95.57144450000003,
          "velocity": 0.5984251968503937,
          "duration": 0.21428575000000194
        },
        {
          "name": "G4",
          "midi": 67,
          "time": 95.78573025000003,
          "velocity": 0.5984251968503937,
          "duration": 0.21428575000000194
        },
        {
          "name": "F5",
          "midi": 77,
          "time": 96.00001600000003,
          "velocity": 0.5984251968503937,
          "duration": 0.21428575000000194
        },
        {
          "name": "E5",
          "midi": 76,
          "time": 96.21430175000003,
          "velocity": 0.5984251968503937,
          "duration": 0.21428575000000194
        },
        {
          "name": "D5",
          "midi": 74,
          "time": 96.42858750000003,
          "velocity": 0.5984251968503937,
          "duration": 0.6428572500000058
        },
        {
          "name": "G2",
          "midi": 43,
          "time": 96.42858750000003,
          "velocity": 0.5511811023622047,
          "duration": 0.21428575000000194
        },
        {
          "name": "G3",
          "midi": 55,
          "time": 96.64287325000004,
          "velocity": 0.5984251968503937,
          "duration": 0.21428575000000194
        },
        {
          "name": "B3",
          "midi": 59,
          "time": 96.85715900000004,
          "velocity": 0.5984251968503937,
          "duration": 0.21428575000000194
        },
        {
          "name": "F4",
          "midi": 65,
          "time": 97.07144475000004,
          "velocity": 0.5984251968503937,
          "duration": 0.21428575000000194
        },
        {
          "name": "E5",
          "midi": 76,
          "time": 97.28573050000004,
          "velocity": 0.5984251968503937,
          "duration": 0.21428575000000194
        },
        {
          "name": "D5",
          "midi": 74,
          "time": 97.50001625000004,
          "velocity": 0.5984251968503937,
          "duration": 0.21428575000000194
        },
        {
          "name": "C5",
          "midi": 72,
          "time": 97.71430200000005,
          "velocity": 0.5984251968503937,
          "duration": 0.6428572500000058
        },
        {
          "name": "A2",
          "midi": 45,
          "time": 97.71430200000005,
          "velocity": 0.5511811023622047,
          "duration": 0.21428575000000194
        },
        {
          "name": "E3",
          "midi": 52,
          "time": 97.92858775000005,
          "velocity": 0.5984251968503937,
          "duration": 0.21428575000000194
        },
        {
          "name": "A3",
          "midi": 57,
          "time": 98.14287350000005,
          "velocity": 0.5984251968503937,
          "duration": 0.21428575000000194
        },
        {
          "name": "E4",
          "midi": 64,
          "time": 98.35715925000005,
          "velocity": 0.5984251968503937,
          "duration": 0.21428575000000194
        },
        {
          "name": "D5",
          "midi": 74,
          "time": 98.57144500000005,
          "velocity": 0.5984251968503937,
          "duration": 0.21428575000000194
        },
        {
          "name": "C5",
          "midi": 72,
          "time": 98.78573075000006,
          "velocity": 0.5984251968503937,
          "duration": 0.21428575000000194
        },
        {
          "name": "B4",
          "midi": 71,
          "time": 99.00001650000006,
          "velocity": 0.5984251968503937,
          "duration": 0.4285715000000039
        },
        {
          "name": "E2",
          "midi": 40,
          "time": 99.00001650000006,
          "velocity": 0.5984251968503937,
          "duration": 0.21428575000000194
        },
        {
          "name": "E3",
          "midi": 52,
          "time": 99.21430225000006,
          "velocity": 0.5984251968503937,
          "duration": 0.21428575000000194
        },
        {
          "name": "E4",
          "midi": 64,
          "time": 99.42858800000006,
          "velocity": 0.5984251968503937,
          "duration": 0.21428575000000194
        },
        {
          "name": "E4",
          "midi": 64,
          "time": 99.64287375000006,
          "velocity": 0.5984251968503937,
          "duration": 0.21428575000000194
        },
        {
          "name": "E5",
          "midi": 76,
          "time": 99.85715950000007,
          "velocity": 0.5984251968503937,
          "duration": 0.21428575000000194
        },
        {
          "name": "E4",
          "midi": 64,
          "time": 100.07144525000007,
          "velocity": 0.5984251968503937,
          "duration": 0.21428575000000194
        },
        {
          "name": "E5",
          "midi": 76,
          "time": 100.28573100000007,
          "velocity": 0.5984251968503937,
          "duration": 0.21428575000000194
        },
        {
          "name": "E5",
          "midi": 76,
          "time": 100.50001675000007,
          "velocity": 0.5984251968503937,
          "duration": 0.21428575000000194
        },
        {
          "name": "E6",
          "midi": 88,
          "time": 100.71430250000007,
          "velocity": 0.5984251968503937,
          "duration": 0.21428575000000194
        },
        {
          "name": "D#5",
          "midi": 75,
          "time": 100.92858825000008,
          "velocity": 0.5984251968503937,
          "duration": 0.21428575000000194
        },
        {
          "name": "E5",
          "midi": 76,
          "time": 101.14287400000008,
          "velocity": 0.5984251968503937,
          "duration": 0.21428575000000194
        },
        {
          "name": "D#5",
          "midi": 75,
          "time": 101.35715975000008,
          "velocity": 0.5984251968503937,
          "duration": 0.21428575000000194
        },
        {
          "name": "E5",
          "midi": 76,
          "time": 101.57144550000008,
          "velocity": 0.5984251968503937,
          "duration": 0.21428575000000194
        },
        {
          "name": "D#5",
          "midi": 75,
          "time": 101.78573125000008,
          "velocity": 0.5984251968503937,
          "duration": 0.21428575000000194
        },
        {
          "name": "E5",
          "midi": 76,
          "time": 102.00001700000008,
          "velocity": 0.5984251968503937,
          "duration": 0.21428575000000194
        },
        {
          "name": "B4",
          "midi": 71,
          "time": 102.21430275000009,
          "velocity": 0.5984251968503937,
          "duration": 0.21428575000000194
        },
        {
          "name": "D5",
          "midi": 74,
          "time": 102.42858850000009,
          "velocity": 0.5984251968503937,
          "duration": 0.21428575000000194
        },
        {
          "name": "C5",
          "midi": 72,
          "time": 102.64287425000009,
          "velocity": 0.5984251968503937,
          "duration": 0.21428575000000194
        },
        {
          "name": "A4",
          "midi": 69,
          "time": 102.85716000000009,
          "velocity": 0.5984251968503937,
          "duration": 0.4285715000000039
        },
        {
          "name": "A2",
          "midi": 45,
          "time": 102.85716000000009,
          "velocity": 0.5984251968503937,
          "duration": 0.21428575000000194
        },
        {
          "name": "E3",
          "midi": 52,
          "time": 103.0714457500001,
          "velocity": 0.5984251968503937,
          "duration": 0.21428575000000194
        },
        {
          "name": "A3",
          "midi": 57,
          "time": 103.2857315000001,
          "velocity": 0.5984251968503937,
          "duration": 0.21428575000000194
        },
        {
          "name": "C4",
          "midi": 60,
          "time": 103.5000172500001,
          "velocity": 0.5984251968503937,
          "duration": 0.21428575000000194
        },
        {
          "name": "E4",
          "midi": 64,
          "time": 103.7143030000001,
          "velocity": 0.5984251968503937,
          "duration": 0.21428575000000194
        },
        {
          "name": "A4",
          "midi": 69,
          "time": 103.9285887500001,
          "velocity": 0.5984251968503937,
          "duration": 0.21428575000000194
        },
        {
          "name": "B4",
          "midi": 71,
          "time": 104.1428745000001,
          "velocity": 0.5984251968503937,
          "duration": 0.4285715000000039
        },
        {
          "name": "E2",
          "midi": 40,
          "time": 104.1428745000001,
          "velocity": 0.5984251968503937,
          "duration": 0.21428575000000194
        },
        {
          "name": "E3",
          "midi": 52,
          "time": 104.3571602500001,
          "velocity": 0.5984251968503937,
          "duration": 0.21428575000000194
        },
        {
          "name": "G#3",
          "midi": 56,
          "time": 104.57144600000011,
          "velocity": 0.5984251968503937,
          "duration": 0.21428575000000194
        },
        {
          "name": "E4",
          "midi": 64,
          "time": 104.78573175000011,
          "velocity": 0.5984251968503937,
          "duration": 0.21428575000000194
        },
        {
          "name": "G#4",
          "midi": 68,
          "time": 105.00001750000011,
          "velocity": 0.5984251968503937,
          "duration": 0.21428575000000194
        },
        {
          "name": "B4",
          "midi": 71,
          "time": 105.21430325000011,
          "velocity": 0.5984251968503937,
          "duration": 0.21428575000000194
        },
        {
          "name": "C5",
          "midi": 72,
          "time": 105.42858900000012,
          "velocity": 0.5984251968503937,
          "duration": 0.4285715000000039
        },
        {
          "name": "A2",
          "midi": 45,
          "time": 105.42858900000012,
          "velocity": 0.5984251968503937,
          "duration": 0.21428575000000194
        },
        {
          "name": "E3",
          "midi": 52,
          "time": 105.64287475000012,
          "velocity": 0.5984251968503937,
          "duration": 0.21428575000000194
        },
        {
          "name": "A3",
          "midi": 57,
          "time": 105.85716050000012,
          "velocity": 0.5984251968503937,
          "duration": 0.21428575000000194
        },
        {
          "name": "E4",
          "midi": 64,
          "time": 106.07144625000012,
          "velocity": 0.5984251968503937,
          "duration": 0.21428575000000194
        },
        {
          "name": "E5",
          "midi": 76,
          "time": 106.28573200000012,
          "velocity": 0.5984251968503937,
          "duration": 0.21428575000000194
        },
        {
          "name": "D#5",
          "midi": 75,
          "time": 106.50001775000013,
          "velocity": 0.5984251968503937,
          "duration": 0.21428575000000194
        },
        {
          "name": "E5",
          "midi": 76,
          "time": 106.71430350000013,
          "velocity": 0.5984251968503937,
          "duration": 0.21428575000000194
        },
        {
          "name": "D#5",
          "midi": 75,
          "time": 106.92858925000013,
          "velocity": 0.5984251968503937,
          "duration": 0.21428575000000194
        },
        {
          "name": "E5",
          "midi": 76,
          "time": 107.14287500000013,
          "velocity": 0.5984251968503937,
          "duration": 0.21428575000000194
        },
        {
          "name": "B4",
          "midi": 71,
          "time": 107.35716075000013,
          "velocity": 0.5984251968503937,
          "duration": 0.21428575000000194
        },
        {
          "name": "D5",
          "midi": 74,
          "time": 107.57144650000014,
          "velocity": 0.5984251968503937,
          "duration": 0.21428575000000194
        },
        {
          "name": "C5",
          "midi": 72,
          "time": 107.78573225000014,
          "velocity": 0.5984251968503937,
          "duration": 0.21428575000000194
        },
        {
          "name": "A4",
          "midi": 69,
          "time": 108.00001800000014,
          "velocity": 0.6535433070866141,
          "duration": 0.4285715000000039
        },
        {
          "name": "A2",
          "midi": 45,
          "time": 108.00001800000014,
          "velocity": 0.5511811023622047,
          "duration": 0.21428575000000194
        },
        {
          "name": "E3",
          "midi": 52,
          "time": 108.21430375000014,
          "velocity": 0.5511811023622047,
          "duration": 0.21428575000000194
        },
        {
          "name": "A3",
          "midi": 57,
          "time": 108.42858950000014,
          "velocity": 0.5984251968503937,
          "duration": 0.21428575000000194
        },
        {
          "name": "C4",
          "midi": 60,
          "time": 108.64287525000015,
          "velocity": 0.6535433070866141,
          "duration": 0.21428575000000194
        },
        {
          "name": "E4",
          "midi": 64,
          "time": 108.85716100000015,
          "velocity": 0.6535433070866141,
          "duration": 0.21428575000000194
        },
        {
          "name": "A4",
          "midi": 69,
          "time": 109.07144675000015,
          "velocity": 0.6535433070866141,
          "duration": 0.21428575000000194
        },
        {
          "name": "B4",
          "midi": 71,
          "time": 109.28573250000015,
          "velocity": 0.7007874015748031,
          "duration": 0.4285715000000039
        },
        {
          "name": "E2",
          "midi": 40,
          "time": 109.28573250000015,
          "velocity": 0.5039370078740157,
          "duration": 0.21428575000000194
        },
        {
          "name": "E3",
          "midi": 52,
          "time": 109.50001825000015,
          "velocity": 0.5511811023622047,
          "duration": 0.21428575000000194
        },
        {
          "name": "G#3",
          "midi": 56,
          "time": 109.71430400000015,
          "velocity": 0.5984251968503937,
          "duration": 0.21428575000000194
        },
        {
          "name": "E4",
          "midi": 64,
          "time": 109.92858975000016,
          "velocity": 0.5984251968503937,
          "duration": 0.21428575000000194
        },
        {
          "name": "C5",
          "midi": 72,
          "time": 110.14287550000016,
          "velocity": 0.5984251968503937,
          "duration": 0.21428575000000194
        },
        {
          "name": "B4",
          "midi": 71,
          "time": 110.35716125000016,
          "velocity": 0.6535433070866141,
          "duration": 0.21428575000000194
        },
        {
          "name": "A2",
          "midi": 45,
          "time": 110.57144700000016,
          "velocity": 0.7007874015748031,
          "duration": 0.10714287499999386
        },
        {
          "name": "A4",
          "midi": 69,
          "time": 110.57144700000016,
          "velocity": 0.7007874015748031,
          "duration": 0.42857149999997546
        },
        {
          "name": "A2",
          "midi": 45,
          "time": 110.78573275000015,
          "velocity": 0.5984251968503937,
          "duration": 0.10714287499999386
        },
        {
          "name": "A2",
          "midi": 45,
          "time": 111.00001850000014,
          "velocity": 0.6535433070866141,
          "duration": 0.10714287499999386
        },
        {
          "name": "A2",
          "midi": 45,
          "time": 111.21430425000013,
          "velocity": 0.7007874015748031,
          "duration": 0.10714287499999386
        },
        {
          "name": "A2",
          "midi": 45,
          "time": 111.42859000000011,
          "velocity": 0.5984251968503937,
          "duration": 0.10714287499999386
        },
        {
          "name": "A2",
          "midi": 45,
          "time": 111.6428757500001,
          "velocity": 0.6535433070866141,
          "duration": 0.10714287499999386
        },
        {
          "name": "A2",
          "midi": 45,
          "time": 111.85716150000009,
          "velocity": 0.7007874015748031,
          "duration": 0.10714287499999386
        },
        {
          "name": "E4",
          "midi": 64,
          "time": 111.85716150000009,
          "velocity": 0.6141732283464567,
          "duration": 1.2857144999999264
        },
        {
          "name": "G4",
          "midi": 67,
          "time": 111.85716150000009,
          "velocity": 0.6141732283464567,
          "duration": 1.2857144999999264
        },
        {
          "name": "A#4",
          "midi": 70,
          "time": 111.85716150000009,
          "velocity": 0.6141732283464567,
          "duration": 1.2857144999999264
        },
        {
          "name": "C#5",
          "midi": 73,
          "time": 111.85716150000009,
          "velocity": 0.6141732283464567,
          "duration": 1.2857144999999264
        },
        {
          "name": "A2",
          "midi": 45,
          "time": 112.07144725000008,
          "velocity": 0.5984251968503937,
          "duration": 0.10714287499999386
        },
        {
          "name": "A2",
          "midi": 45,
          "time": 112.28573300000006,
          "velocity": 0.6535433070866141,
          "duration": 0.10714287499999386
        },
        {
          "name": "A2",
          "midi": 45,
          "time": 112.50001875000005,
          "velocity": 0.7007874015748031,
          "duration": 0.10714287499999386
        },
        {
          "name": "A2",
          "midi": 45,
          "time": 112.71430450000004,
          "velocity": 0.5984251968503937,
          "duration": 0.10714287499999386
        },
        {
          "name": "A2",
          "midi": 45,
          "time": 112.92859025000003,
          "velocity": 0.6535433070866141,
          "duration": 0.10714287499999386
        },
        {
          "name": "A2",
          "midi": 45,
          "time": 113.14287600000002,
          "velocity": 0.6141732283464567,
          "duration": 0.10714287499999386
        },
        {
          "name": "D5",
          "midi": 74,
          "time": 113.14287600000002,
          "velocity": 0.6141732283464567,
          "duration": 0.8571429999999509
        },
        {
          "name": "F4",
          "midi": 65,
          "time": 113.14287600000002,
          "velocity": 0.6141732283464567,
          "duration": 0.8571429999999509
        },
        {
          "name": "A4",
          "midi": 69,
          "time": 113.14287600000002,
          "velocity": 0.6141732283464567,
          "duration": 0.8571429999999509
        },
        {
          "name": "A2",
          "midi": 45,
          "time": 113.35716175,
          "velocity": 0.6141732283464567,
          "duration": 0.10714287499999386
        },
        {
          "name": "A2",
          "midi": 45,
          "time": 113.57144749999999,
          "velocity": 0.6141732283464567,
          "duration": 0.10714287499999386
        },
        {
          "name": "A2",
          "midi": 45,
          "time": 113.78573324999998,
          "velocity": 0.6141732283464567,
          "duration": 0.10714287499999386
        },
        {
          "name": "A2",
          "midi": 45,
          "time": 114.00001899999997,
          "velocity": 0.6141732283464567,
          "duration": 0.10714287499999386
        },
        {
          "name": "C#5",
          "midi": 73,
          "time": 114.00001899999997,
          "velocity": 0.6141732283464567,
          "duration": 0.21428574999998773
        },
        {
          "name": "E5",
          "midi": 76,
          "time": 114.00001899999997,
          "velocity": 0.6141732283464567,
          "duration": 0.21428574999998773
        },
        {
          "name": "A2",
          "midi": 45,
          "time": 114.21430474999995,
          "velocity": 0.6141732283464567,
          "duration": 0.10714287499999386
        },
        {
          "name": "D5",
          "midi": 74,
          "time": 114.21430474999995,
          "velocity": 0.6141732283464567,
          "duration": 0.21428574999998773
        },
        {
          "name": "F5",
          "midi": 77,
          "time": 114.21430474999995,
          "velocity": 0.6141732283464567,
          "duration": 0.21428574999998773
        },
        {
          "name": "A2",
          "midi": 45,
          "time": 114.42859049999994,
          "velocity": 0.6141732283464567,
          "duration": 0.10714287499999386
        },
        {
          "name": "F5",
          "midi": 77,
          "time": 114.42859049999994,
          "velocity": 0.6141732283464567,
          "duration": 0.8571429999999509
        },
        {
          "name": "D5",
          "midi": 74,
          "time": 114.42859049999994,
          "velocity": 0.6141732283464567,
          "duration": 0.8571429999999509
        },
        {
          "name": "G#4",
          "midi": 68,
          "time": 114.42859049999994,
          "velocity": 0.6141732283464567,
          "duration": 0.8571429999999509
        },
        {
          "name": "A2",
          "midi": 45,
          "time": 114.64287624999993,
          "velocity": 0.6141732283464567,
          "duration": 0.10714287499999386
        },
        {
          "name": "A2",
          "midi": 45,
          "time": 114.85716199999992,
          "velocity": 0.6141732283464567,
          "duration": 0.10714287499999386
        },
        {
          "name": "A2",
          "midi": 45,
          "time": 115.0714477499999,
          "velocity": 0.6141732283464567,
          "duration": 0.10714287499999386
        },
        {
          "name": "A2",
          "midi": 45,
          "time": 115.28573349999989,
          "velocity": 0.6141732283464567,
          "duration": 0.10714287499999386
        },
        {
          "name": "F5",
          "midi": 77,
          "time": 115.28573349999989,
          "velocity": 0.6141732283464567,
          "duration": 0.42857149999997546
        },
        {
          "name": "D5",
          "midi": 74,
          "time": 115.28573349999989,
          "velocity": 0.6141732283464567,
          "duration": 0.42857149999997546
        },
        {
          "name": "G#4",
          "midi": 68,
          "time": 115.28573349999989,
          "velocity": 0.6141732283464567,
          "duration": 0.42857149999997546
        },
        {
          "name": "A2",
          "midi": 45,
          "time": 115.50001924999988,
          "velocity": 0.6141732283464567,
          "duration": 0.10714287499999386
        },
        {
          "name": "A2",
          "midi": 45,
          "time": 115.71430499999987,
          "velocity": 0.6141732283464567,
          "duration": 0.10714287499999386
        },
        {
          "name": "A4",
          "midi": 69,
          "time": 115.71430499999987,
          "velocity": 0.6141732283464567,
          "duration": 1.2857144999999264
        },
        {
          "name": "C5",
          "midi": 72,
          "time": 115.71430499999987,
          "velocity": 0.6141732283464567,
          "duration": 1.2857144999999264
        },
        {
          "name": "E5",
          "midi": 76,
          "time": 115.71430499999987,
          "velocity": 0.6141732283464567,
          "duration": 1.2857144999999264
        },
        {
          "name": "A2",
          "midi": 45,
          "time": 115.92859074999986,
          "velocity": 0.5984251968503937,
          "duration": 0.10714287499999386
        },
        {
          "name": "A2",
          "midi": 45,
          "time": 116.14287649999984,
          "velocity": 0.6535433070866141,
          "duration": 0.10714287499999386
        },
        {
          "name": "A2",
          "midi": 45,
          "time": 116.35716224999983,
          "velocity": 0.7007874015748031,
          "duration": 0.10714287499999386
        },
        {
          "name": "A2",
          "midi": 45,
          "time": 116.57144799999982,
          "velocity": 0.6535433070866141,
          "duration": 0.10714287499999386
        },
        {
          "name": "A2",
          "midi": 45,
          "time": 116.7857337499998,
          "velocity": 0.5984251968503937,
          "duration": 0.10714287499999386
        },
        {
          "name": "A2",
          "midi": 45,
          "time": 117.0000194999998,
          "velocity": 0.6535433070866141,
          "duration": 0.10714287499999386
        },
        {
          "name": "D2",
          "midi": 38,
          "time": 117.0000194999998,
          "velocity": 0.7007874015748031,
          "duration": 0.10714287499999386
        },
        {
          "name": "D5",
          "midi": 74,
          "time": 117.0000194999998,
          "velocity": 0.6535433070866141,
          "duration": 0.8571429999999509
        },
        {
          "name": "F4",
          "midi": 65,
          "time": 117.0000194999998,
          "velocity": 0.7007874015748031,
          "duration": 0.8571429999999509
        },
        {
          "name": "A2",
          "midi": 45,
          "time": 117.21430524999978,
          "velocity": 0.6535433070866141,
          "duration": 0.10714287499999386
        },
        {
          "name": "D2",
          "midi": 38,
          "time": 117.21430524999978,
          "velocity": 0.6535433070866141,
          "duration": 0.10714287499999386
        },
        {
          "name": "A2",
          "midi": 45,
          "time": 117.42859099999977,
          "velocity": 0.5984251968503937,
          "duration": 0.10714287499999386
        },
        {
          "name": "D2",
          "midi": 38,
          "time": 117.42859099999977,
          "velocity": 0.6535433070866141,
          "duration": 0.10714287499999386
        },
        {
          "name": "A2",
          "midi": 45,
          "time": 117.64287674999976,
          "velocity": 0.7007874015748031,
          "duration": 0.10714287499999386
        },
        {
          "name": "D2",
          "midi": 38,
          "time": 117.64287674999976,
          "velocity": 0.6535433070866141,
          "duration": 0.10714287499999386
        },
        {
          "name": "A2",
          "midi": 45,
          "time": 117.85716249999975,
          "velocity": 0.6141732283464567,
          "duration": 0.10714287499999386
        },
        {
          "name": "D2",
          "midi": 38,
          "time": 117.85716249999975,
          "velocity": 0.6141732283464567,
          "duration": 0.10714287499999386
        },
        {
          "name": "C5",
          "midi": 72,
          "time": 117.85716249999975,
          "velocity": 0.6535433070866141,
          "duration": 0.21428574999998773
        },
        {
          "name": "E4",
          "midi": 64,
          "time": 117.85716249999975,
          "velocity": 0.6535433070866141,
          "duration": 0.21428574999998773
        },
        {
          "name": "A2",
          "midi": 45,
          "time": 118.07144824999973,
          "velocity": 0.6141732283464567,
          "duration": 0.10714287499999386
        },
        {
          "name": "D2",
          "midi": 38,
          "time": 118.07144824999973,
          "velocity": 0.6141732283464567,
          "duration": 0.10714287499999386
        },
        {
          "name": "B4",
          "midi": 71,
          "time": 118.07144824999973,
          "velocity": 0.6141732283464567,
          "duration": 0.21428574999998773
        },
        {
          "name": "D4",
          "midi": 62,
          "time": 118.07144824999973,
          "velocity": 0.6141732283464567,
          "duration": 0.21428574999998773
        },
        {
          "name": "D#2",
          "midi": 39,
          "time": 118.28573399999972,
          "velocity": 0.5984251968503937,
          "duration": 0.10714287499999386
        },
        {
          "name": "A2",
          "midi": 45,
          "time": 118.28573399999972,
          "velocity": 0.6535433070866141,
          "duration": 0.10714287499999386
        },
        {
          "name": "C4",
          "midi": 60,
          "time": 118.28573399999972,
          "velocity": 0.6535433070866141,
          "duration": 0.8571429999999651
        },
        {
          "name": "F#4",
          "midi": 66,
          "time": 118.28573399999972,
          "velocity": 0.6141732283464567,
          "duration": 0.8571429999999651
        },
        {
          "name": "A4",
          "midi": 69,
          "time": 118.28573399999972,
          "velocity": 0.6535433070866141,
          "duration": 0.8571429999999651
        },
        {
          "name": "A2",
          "midi": 45,
          "time": 118.50001974999971,
          "velocity": 0.5984251968503937,
          "duration": 0.10714287499999386
        },
        {
          "name": "D#2",
          "midi": 39,
          "time": 118.50001974999971,
          "velocity": 0.6141732283464567,
          "duration": 0.05357143749999693
        },
        {
          "name": "A2",
          "midi": 45,
          "time": 118.7143054999997,
          "velocity": 0.6141732283464567,
          "duration": 0.10714287499999386
        },
        {
          "name": "D#2",
          "midi": 39,
          "time": 118.7143054999997,
          "velocity": 0.6141732283464567,
          "duration": 0.05357143749999693
        },
        {
          "name": "A2",
          "midi": 45,
          "time": 118.92859124999968,
          "velocity": 0.6141732283464567,
          "duration": 0.10714287500000808
        },
        {
          "name": "D#2",
          "midi": 39,
          "time": 118.92859124999968,
          "velocity": 0.6141732283464567,
          "duration": 0.013392859375002786
        },
        {
          "name": "A2",
          "midi": 45,
          "time": 119.14287699999969,
          "velocity": 0.6141732283464567,
          "duration": 0.10714287499999386
        },
        {
          "name": "C4",
          "midi": 60,
          "time": 119.14287699999969,
          "velocity": 0.6141732283464567,
          "duration": 0.42857149999997546
        },
        {
          "name": "A4",
          "midi": 69,
          "time": 119.14287699999969,
          "velocity": 0.6141732283464567,
          "duration": 0.42857149999997546
        },
        {
          "name": "D#2",
          "midi": 39,
          "time": 119.14287699999969,
          "velocity": 0.6141732283464567,
          "duration": 0.05357143749999693
        },
        {
          "name": "A2",
          "midi": 45,
          "time": 119.35716274999967,
          "velocity": 0.6141732283464567,
          "duration": 0.10714287499999386
        },
        {
          "name": "D#2",
          "midi": 39,
          "time": 119.35716274999967,
          "velocity": 0.6141732283464567,
          "duration": 0.05357143749999693
        },
        {
          "name": "A2",
          "midi": 45,
          "time": 119.57144849999966,
          "velocity": 0.6141732283464567,
          "duration": 0.10714287499999386
        },
        {
          "name": "E2",
          "midi": 40,
          "time": 119.57144849999966,
          "velocity": 0.6141732283464567,
          "duration": 0.10714287499999386
        },
        {
          "name": "A4",
          "midi": 69,
          "time": 119.57144849999966,
          "velocity": 0.6141732283464567,
          "duration": 0.42857149999997546
        },
        {
          "name": "C4",
          "midi": 60,
          "time": 119.57144849999966,
          "velocity": 0.6141732283464567,
          "duration": 0.42857149999997546
        },
        {
          "name": "A2",
          "midi": 45,
          "time": 119.78573424999965,
          "velocity": 0.6141732283464567,
          "duration": 0.10714287499999386
        },
        {
          "name": "E2",
          "midi": 40,
          "time": 119.78573424999965,
          "velocity": 0.6141732283464567,
          "duration": 0.10714287499999386
        },
        {
          "name": "A2",
          "midi": 45,
          "time": 120.00001999999964,
          "velocity": 0.6141732283464567,
          "duration": 0.10714287499999386
        },
        {
          "name": "E2",
          "midi": 40,
          "time": 120.00001999999964,
          "velocity": 0.6141732283464567,
          "duration": 0.10714287499999386
        },
        {
          "name": "C5",
          "midi": 72,
          "time": 120.00001999999964,
          "velocity": 0.6141732283464567,
          "duration": 0.42857149999997546
        },
        {
          "name": "E4",
          "midi": 64,
          "time": 120.00001999999964,
          "velocity": 0.6141732283464567,
          "duration": 0.42857149999997546
        },
        {
          "name": "A2",
          "midi": 45,
          "time": 120.21430574999962,
          "velocity": 0.6141732283464567,
          "duration": 0.10714287499999386
        },
        {
          "name": "E2",
          "midi": 40,
          "time": 120.21430574999962,
          "velocity": 0.6141732283464567,
          "duration": 0.10714287499999386
        },
        {
          "name": "G#2",
          "midi": 44,
          "time": 120.42859149999961,
          "velocity": 0.6141732283464567,
          "duration": 0.10714287499999386
        },
        {
          "name": "E2",
          "midi": 40,
          "time": 120.42859149999961,
          "velocity": 0.6141732283464567,
          "duration": 0.10714287499999386
        },
        {
          "name": "B4",
          "midi": 71,
          "time": 120.42859149999961,
          "velocity": 0.6141732283464567,
          "duration": 0.42857149999997546
        },
        {
          "name": "D4",
          "midi": 62,
          "time": 120.42859149999961,
          "velocity": 0.6141732283464567,
          "duration": 0.42857149999997546
        },
        {
          "name": "G#2",
          "midi": 44,
          "time": 120.6428772499996,
          "velocity": 0.6141732283464567,
          "duration": 0.10714287499999386
        },
        {
          "name": "E2",
          "midi": 40,
          "time": 120.6428772499996,
          "velocity": 0.6141732283464567,
          "duration": 0.10714287499999386
        },
        {
          "name": "A2",
          "midi": 45,
          "time": 120.85716299999959,
          "velocity": 0.6141732283464567,
          "duration": 0.10714287499999386
        },
        {
          "name": "A1",
          "midi": 33,
          "time": 120.85716299999959,
          "velocity": 0.6141732283464567,
          "duration": 0.10714287499999386
        },
        {
          "name": "A4",
          "midi": 69,
          "time": 120.85716299999959,
          "velocity": 0.6141732283464567,
          "duration": 1.2857144999999264
        },
        {
          "name": "C4",
          "midi": 60,
          "time": 120.85716299999959,
          "velocity": 0.6141732283464567,
          "duration": 1.2857144999999264
        },
        {
          "name": "A2",
          "midi": 45,
          "time": 121.07144874999958,
          "velocity": 0.5984251968503937,
          "duration": 0.10714287499999386
        },
        {
          "name": "A2",
          "midi": 45,
          "time": 121.28573449999956,
          "velocity": 0.6535433070866141,
          "duration": 0.10714287499999386
        },
        {
          "name": "A2",
          "midi": 45,
          "time": 121.50002024999955,
          "velocity": 0.7007874015748031,
          "duration": 0.10714287499999386
        },
        {
          "name": "A2",
          "midi": 45,
          "time": 121.71430599999954,
          "velocity": 0.5984251968503937,
          "duration": 0.10714287499999386
        },
        {
          "name": "A2",
          "midi": 45,
          "time": 121.92859174999953,
          "velocity": 0.6535433070866141,
          "duration": 0.10714287499999386
        },
        {
          "name": "A2",
          "midi": 45,
          "time": 122.14287749999951,
          "velocity": 0.5984251968503937,
          "duration": 0.10714287499999386
        },
        {
          "name": "E4",
          "midi": 64,
          "time": 122.14287749999951,
          "velocity": 0.6535433070866141,
          "duration": 1.2857144999999264
        },
        {
          "name": "G4",
          "midi": 67,
          "time": 122.14287749999951,
          "velocity": 0.6141732283464567,
          "duration": 1.2857144999999264
        },
        {
          "name": "A#4",
          "midi": 70,
          "time": 122.14287749999951,
          "velocity": 0.6141732283464567,
          "duration": 1.2857144999999264
        },
        {
          "name": "C#5",
          "midi": 73,
          "time": 122.14287749999951,
          "velocity": 0.6141732283464567,
          "duration": 1.2857144999999264
        },
        {
          "name": "A2",
          "midi": 45,
          "time": 122.3571632499995,
          "velocity": 0.7007874015748031,
          "duration": 0.10714287499999386
        },
        {
          "name": "A2",
          "midi": 45,
          "time": 122.57144899999949,
          "velocity": 0.6535433070866141,
          "duration": 0.10714287499999386
        },
        {
          "name": "A2",
          "midi": 45,
          "time": 122.78573474999948,
          "velocity": 0.7007874015748031,
          "duration": 0.10714287499999386
        },
        {
          "name": "A2",
          "midi": 45,
          "time": 123.00002049999947,
          "velocity": 0.5984251968503937,
          "duration": 0.10714287499999386
        },
        {
          "name": "A2",
          "midi": 45,
          "time": 123.21430624999945,
          "velocity": 0.6535433070866141,
          "duration": 0.10714287499999386
        },
        {
          "name": "A2",
          "midi": 45,
          "time": 123.42859199999944,
          "velocity": 0.6141732283464567,
          "duration": 0.10714287499999386
        },
        {
          "name": "D5",
          "midi": 74,
          "time": 123.42859199999944,
          "velocity": 0.6141732283464567,
          "duration": 0.8571429999999509
        },
        {
          "name": "A4",
          "midi": 69,
          "time": 123.42859199999944,
          "velocity": 0.6141732283464567,
          "duration": 0.8571429999999509
        },
        {
          "name": "F4",
          "midi": 65,
          "time": 123.42859199999944,
          "velocity": 0.6141732283464567,
          "duration": 0.8571429999999509
        },
        {
          "name": "A2",
          "midi": 45,
          "time": 123.64287774999943,
          "velocity": 0.6141732283464567,
          "duration": 0.10714287499999386
        },
        {
          "name": "A2",
          "midi": 45,
          "time": 123.85716349999942,
          "velocity": 0.6141732283464567,
          "duration": 0.10714287499999386
        },
        {
          "name": "A2",
          "midi": 45,
          "time": 124.0714492499994,
          "velocity": 0.6141732283464567,
          "duration": 0.10714287499999386
        },
        {
          "name": "A2",
          "midi": 45,
          "time": 124.28573499999939,
          "velocity": 0.6141732283464567,
          "duration": 0.10714287499999386
        },
        {
          "name": "C#5",
          "midi": 73,
          "time": 124.28573499999939,
          "velocity": 0.6141732283464567,
          "duration": 0.21428574999998773
        },
        {
          "name": "E5",
          "midi": 76,
          "time": 124.28573499999939,
          "velocity": 0.6141732283464567,
          "duration": 0.21428574999998773
        },
        {
          "name": "A2",
          "midi": 45,
          "time": 124.50002074999938,
          "velocity": 0.6141732283464567,
          "duration": 0.10714287499999386
        },
        {
          "name": "D5",
          "midi": 74,
          "time": 124.50002074999938,
          "velocity": 0.6141732283464567,
          "duration": 0.21428574999998773
        },
        {
          "name": "F5",
          "midi": 77,
          "time": 124.50002074999938,
          "velocity": 0.6141732283464567,
          "duration": 0.21428574999998773
        },
        {
          "name": "A2",
          "midi": 45,
          "time": 124.71430649999937,
          "velocity": 0.6141732283464567,
          "duration": 0.10714287499999386
        },
        {
          "name": "D5",
          "midi": 74,
          "time": 124.71430649999937,
          "velocity": 0.6141732283464567,
          "duration": 0.8571429999999509
        },
        {
          "name": "F5",
          "midi": 77,
          "time": 124.71430649999937,
          "velocity": 0.6141732283464567,
          "duration": 0.8571429999999509
        },
        {
          "name": "A2",
          "midi": 45,
          "time": 124.92859224999935,
          "velocity": 0.6141732283464567,
          "duration": 0.10714287499999386
        },
        {
          "name": "A2",
          "midi": 45,
          "time": 125.14287799999934,
          "velocity": 0.6141732283464567,
          "duration": 0.10714287499999386
        },
        {
          "name": "A2",
          "midi": 45,
          "time": 125.35716374999933,
          "velocity": 0.6141732283464567,
          "duration": 0.10714287499999386
        },
        {
          "name": "A2",
          "midi": 45,
          "time": 125.57144949999932,
          "velocity": 0.6141732283464567,
          "duration": 0.10714287499999386
        },
        {
          "name": "D5",
          "midi": 74,
          "time": 125.57144949999932,
          "velocity": 0.6141732283464567,
          "duration": 0.42857149999997546
        },
        {
          "name": "F5",
          "midi": 77,
          "time": 125.57144949999932,
          "velocity": 0.6535433070866141,
          "duration": 0.42857149999997546
        },
        {
          "name": "A2",
          "midi": 45,
          "time": 125.7857352499993,
          "velocity": 0.6141732283464567,
          "duration": 0.10714287499999386
        },
        {
          "name": "A#2",
          "midi": 46,
          "time": 126.0000209999993,
          "velocity": 0.5984251968503937,
          "duration": 0.10714287499999386
        },
        {
          "name": "F5",
          "midi": 77,
          "time": 126.0000209999993,
          "velocity": 0.7007874015748031,
          "duration": 1.2857144999999264
        },
        {
          "name": "D5",
          "midi": 74,
          "time": 126.0000209999993,
          "velocity": 0.6141732283464567,
          "duration": 1.2857144999999264
        },
        {
          "name": "A#2",
          "midi": 46,
          "time": 126.21430674999928,
          "velocity": 0.6535433070866141,
          "duration": 0.10714287499999386
        },
        {
          "name": "A#2",
          "midi": 46,
          "time": 126.42859249999927,
          "velocity": 0.7007874015748031,
          "duration": 0.10714287499999386
        },
        {
          "name": "A#2",
          "midi": 46,
          "time": 126.64287824999926,
          "velocity": 0.6535433070866141,
          "duration": 0.10714287499999386
        },
        {
          "name": "A#2",
          "midi": 46,
          "time": 126.85716399999924,
          "velocity": 0.7007874015748031,
          "duration": 0.10714287499999386
        },
        {
          "name": "A#2",
          "midi": 46,
          "time": 127.07144974999923,
          "velocity": 0.5984251968503937,
          "duration": 0.10714287499999386
        },
        {
          "name": "A#2",
          "midi": 46,
          "time": 127.28573549999922,
          "velocity": 0.6535433070866141,
          "duration": 0.10714287499999386
        },
        {
          "name": "D#5",
          "midi": 75,
          "time": 127.28573549999922,
          "velocity": 0.5984251968503937,
          "duration": 0.8571429999999509
        },
        {
          "name": "G4",
          "midi": 67,
          "time": 127.28573549999922,
          "velocity": 0.6141732283464567,
          "duration": 0.8571429999999509
        },
        {
          "name": "A#2",
          "midi": 46,
          "time": 127.50002124999921,
          "velocity": 0.6141732283464567,
          "duration": 0.10714287499999386
        },
        {
          "name": "A#2",
          "midi": 46,
          "time": 127.7143069999992,
          "velocity": 0.6141732283464567,
          "duration": 0.10714287499999386
        },
        {
          "name": "A#2",
          "midi": 46,
          "time": 127.92859274999918,
          "velocity": 0.6141732283464567,
          "duration": 0.10714287499999386
        },
        {
          "name": "A#2",
          "midi": 46,
          "time": 128.14287849999917,
          "velocity": 0.6141732283464567,
          "duration": 0.10714287499999386
        },
        {
          "name": "D5",
          "midi": 74,
          "time": 128.14287849999917,
          "velocity": 0.5984251968503937,
          "duration": 0.21428574999998773
        },
        {
          "name": "F4",
          "midi": 65,
          "time": 128.14287849999917,
          "velocity": 0.6141732283464567,
          "duration": 0.21428574999998773
        },
        {
          "name": "A#2",
          "midi": 46,
          "time": 128.35716424999916,
          "velocity": 0.6141732283464567,
          "duration": 0.10714287499999386
        },
        {
          "name": "C5",
          "midi": 72,
          "time": 128.35716424999916,
          "velocity": 0.6535433070866141,
          "duration": 0.21428574999998773
        },
        {
          "name": "D#4",
          "midi": 63,
          "time": 128.35716424999916,
          "velocity": 0.6141732283464567,
          "duration": 0.21428574999998773
        },
        {
          "name": "A#2",
          "midi": 46,
          "time": 128.57144999999915,
          "velocity": 0.6141732283464567,
          "duration": 0.10714287499999386
        },
        {
          "name": "A#4",
          "midi": 70,
          "time": 128.57144999999915,
          "velocity": 0.6535433070866141,
          "duration": 0.8571429999999509
        },
        {
          "name": "F4",
          "midi": 65,
          "time": 128.57144999999915,
          "velocity": 0.6141732283464567,
          "duration": 0.8571429999999509
        },
        {
          "name": "D4",
          "midi": 62,
          "time": 128.57144999999915,
          "velocity": 0.6141732283464567,
          "duration": 0.8571429999999509
        },
        {
          "name": "A#2",
          "midi": 46,
          "time": 128.78573574999913,
          "velocity": 0.6141732283464567,
          "duration": 0.10714287499999386
        },
        {
          "name": "A#2",
          "midi": 46,
          "time": 129.00002149999912,
          "velocity": 0.6535433070866141,
          "duration": 0.10714287499999386
        },
        {
          "name": "A#2",
          "midi": 46,
          "time": 129.2143072499991,
          "velocity": 0.5984251968503937,
          "duration": 0.10714287499999386
        },
        {
          "name": "A#2",
          "midi": 46,
          "time": 129.4285929999991,
          "velocity": 0.6141732283464567,
          "duration": 0.10714287499999386
        },
        {
          "name": "D4",
          "midi": 62,
          "time": 129.4285929999991,
          "velocity": 0.6535433070866141,
          "duration": 0.42857149999997546
        },
        {
          "name": "F4",
          "midi": 65,
          "time": 129.4285929999991,
          "velocity": 0.6141732283464567,
          "duration": 0.42857149999997546
        },
        {
          "name": "A4",
          "midi": 69,
          "time": 129.4285929999991,
          "velocity": 0.6141732283464567,
          "duration": 0.42857149999997546
        },
        {
          "name": "A#2",
          "midi": 46,
          "time": 129.64287874999908,
          "velocity": 0.7007874015748031,
          "duration": 0.10714287499999386
        },
        {
          "name": "B2",
          "midi": 47,
          "time": 129.85716449999907,
          "velocity": 0.6141732283464567,
          "duration": 0.21428574999998773
        },
        {
          "name": "D4",
          "midi": 62,
          "time": 129.85716449999907,
          "velocity": 0.6141732283464567,
          "duration": 0.8571429999999509
        },
        {
          "name": "F4",
          "midi": 65,
          "time": 129.85716449999907,
          "velocity": 0.6141732283464567,
          "duration": 0.8571429999999509
        },
        {
          "name": "G#4",
          "midi": 68,
          "time": 129.85716449999907,
          "velocity": 0.6141732283464567,
          "duration": 0.8571429999999509
        },
        {
          "name": "B2",
          "midi": 47,
          "time": 130.07145024999906,
          "velocity": 0.6141732283464567,
          "duration": 0.21428574999998773
        },
        {
          "name": "B2",
          "midi": 47,
          "time": 130.28573599999905,
          "velocity": 0.6141732283464567,
          "duration": 0.21428574999998773
        },
        {
          "name": "B2",
          "midi": 47,
          "time": 130.50002174999904,
          "velocity": 0.6141732283464567,
          "duration": 0.21428574999998773
        },
        {
          "name": "B2",
          "midi": 47,
          "time": 130.71430749999902,
          "velocity": 0.6141732283464567,
          "duration": 0.21428574999998773
        },
        {
          "name": "D4",
          "midi": 62,
          "time": 130.71430749999902,
          "velocity": 0.6141732283464567,
          "duration": 0.42857149999997546
        },
        {
          "name": "F4",
          "midi": 65,
          "time": 130.71430749999902,
          "velocity": 0.6141732283464567,
          "duration": 0.42857149999997546
        },
        {
          "name": "G#4",
          "midi": 68,
          "time": 130.71430749999902,
          "velocity": 0.6141732283464567,
          "duration": 0.42857149999997546
        },
        {
          "name": "B2",
          "midi": 47,
          "time": 130.928593249999,
          "velocity": 0.6141732283464567,
          "duration": 0.21428574999998773
        },
        {
          "name": "C4",
          "midi": 60,
          "time": 131.142878999999,
          "velocity": 0.6141732283464567,
          "duration": 0.8571430000000078
        },
        {
          "name": "E4",
          "midi": 64,
          "time": 131.142878999999,
          "velocity": 0.6141732283464567,
          "duration": 0.8571430000000078
        },
        {
          "name": "A4",
          "midi": 69,
          "time": 131.142878999999,
          "velocity": 0.6141732283464567,
          "duration": 0.8571430000000078
        },
        {
          "name": "C3",
          "midi": 48,
          "time": 131.142878999999,
          "velocity": 0.6141732283464567,
          "duration": 0.8571430000000078
        },
        {
          "name": "B4",
          "midi": 71,
          "time": 132.428593499999,
          "velocity": 0.6141732283464567,
          "duration": 0.21428574999998773
        },
        {
          "name": "E4",
          "midi": 64,
          "time": 132.428593499999,
          "velocity": 0.6141732283464567,
          "duration": 0.21428574999998773
        },
        {
          "name": "F4",
          "midi": 65,
          "time": 132.428593499999,
          "velocity": 0.6141732283464567,
          "duration": 0.21428574999998773
        },
        {
          "name": "E3",
          "midi": 52,
          "time": 132.428593499999,
          "velocity": 0.6141732283464567,
          "duration": 0.21428574999998773
        },
        {
          "name": "G#3",
          "midi": 56,
          "time": 132.428593499999,
          "velocity": 0.6141732283464567,
          "duration": 0.21428574999998773
        },
        {
          "name": "C4",
          "midi": 60,
          "time": 133.714307999999,
          "velocity": 0.6141732283464567,
          "duration": 0.14285716666665849
        },
        {
          "name": "C4",
          "midi": 60,
          "time": 133.85716516666565,
          "velocity": 0.6141732283464567,
          "duration": 0.14285716666665849
        },
        {
          "name": "E4",
          "midi": 64,
          "time": 134.0000223333323,
          "velocity": 0.6141732283464567,
          "duration": 0.14285716666665849
        },
        {
          "name": "A4",
          "midi": 69,
          "time": 134.14287949999897,
          "velocity": 0.6141732283464567,
          "duration": 0.14285716666665849
        },
        {
          "name": "C5",
          "midi": 72,
          "time": 134.28573666666563,
          "velocity": 0.6141732283464567,
          "duration": 0.14285716666665849
        },
        {
          "name": "E5",
          "midi": 76,
          "time": 134.4285938333323,
          "velocity": 0.6141732283464567,
          "duration": 0.14285716666665849
        },
        {
          "name": "D5",
          "midi": 74,
          "time": 134.57145099999894,
          "velocity": 0.6141732283464567,
          "duration": 0.14285716666665849
        },
        {
          "name": "A3",
          "midi": 57,
          "time": 134.57145099999894,
          "velocity": 0.6141732283464567,
          "duration": 0.42857149999997546
        },
        {
          "name": "C4",
          "midi": 60,
          "time": 134.57145099999894,
          "velocity": 0.6141732283464567,
          "duration": 0.42857149999997546
        },
        {
          "name": "E4",
          "midi": 64,
          "time": 134.57145099999894,
          "velocity": 0.6141732283464567,
          "duration": 0.42857149999997546
        },
        {
          "name": "C5",
          "midi": 72,
          "time": 134.7143081666656,
          "velocity": 0.6141732283464567,
          "duration": 0.14285716666665849
        },
        {
          "name": "B4",
          "midi": 71,
          "time": 134.85716533333226,
          "velocity": 0.6141732283464567,
          "duration": 0.14285716666665849
        },
        {
          "name": "A4",
          "midi": 69,
          "time": 135.00002249999892,
          "velocity": 0.6141732283464567,
          "duration": 0.14285716666665849
        },
        {
          "name": "E4",
          "midi": 64,
          "time": 135.00002249999892,
          "velocity": 0.6141732283464567,
          "duration": 0.42857149999997546
        },
        {
          "name": "C4",
          "midi": 60,
          "time": 135.00002249999892,
          "velocity": 0.6141732283464567,
          "duration": 0.42857149999997546
        },
        {
          "name": "A3",
          "midi": 57,
          "time": 135.00002249999892,
          "velocity": 0.6141732283464567,
          "duration": 0.42857149999997546
        },
        {
          "name": "C5",
          "midi": 72,
          "time": 135.14287966666558,
          "velocity": 0.6141732283464567,
          "duration": 0.14285716666665849
        },
        {
          "name": "E5",
          "midi": 76,
          "time": 135.28573683333224,
          "velocity": 0.6141732283464567,
          "duration": 0.14285716666665849
        },
        {
          "name": "A5",
          "midi": 81,
          "time": 135.4285939999989,
          "velocity": 0.6141732283464567,
          "duration": 0.14285716666665849
        },
        {
          "name": "C6",
          "midi": 84,
          "time": 135.57145116666555,
          "velocity": 0.6141732283464567,
          "duration": 0.14285716666665849
        },
        {
          "name": "E6",
          "midi": 88,
          "time": 135.7143083333322,
          "velocity": 0.6141732283464567,
          "duration": 0.14285716666665849
        },
        {
          "name": "D6",
          "midi": 86,
          "time": 135.85716549999887,
          "velocity": 0.6141732283464567,
          "duration": 0.14285716666665849
        },
        {
          "name": "E4",
          "midi": 64,
          "time": 135.85716549999887,
          "velocity": 0.6141732283464567,
          "duration": 0.42857149999997546
        },
        {
          "name": "C4",
          "midi": 60,
          "time": 135.85716549999887,
          "velocity": 0.6141732283464567,
          "duration": 0.42857149999997546
        },
        {
          "name": "A3",
          "midi": 57,
          "time": 135.85716549999887,
          "velocity": 0.6141732283464567,
          "duration": 0.42857149999997546
        },
        {
          "name": "C6",
          "midi": 84,
          "time": 136.00002266666553,
          "velocity": 0.6141732283464567,
          "duration": 0.14285716666665849
        },
        {
          "name": "B5",
          "midi": 83,
          "time": 136.1428798333322,
          "velocity": 0.6141732283464567,
          "duration": 0.14285716666665849
        },
        {
          "name": "A5",
          "midi": 81,
          "time": 136.28573699999885,
          "velocity": 0.6141732283464567,
          "duration": 0.14285716666665849
        },
        {
          "name": "E4",
          "midi": 64,
          "time": 136.28573699999885,
          "velocity": 0.6141732283464567,
          "duration": 0.42857149999997546
        },
        {
          "name": "C4",
          "midi": 60,
          "time": 136.28573699999885,
          "velocity": 0.6141732283464567,
          "duration": 0.42857149999997546
        },
        {
          "name": "A3",
          "midi": 57,
          "time": 136.28573699999885,
          "velocity": 0.6141732283464567,
          "duration": 0.42857149999997546
        },
        {
          "name": "C6",
          "midi": 84,
          "time": 136.4285941666655,
          "velocity": 0.6141732283464567,
          "duration": 0.14285716666665849
        },
        {
          "name": "E6",
          "midi": 88,
          "time": 136.57145133333216,
          "velocity": 0.6141732283464567,
          "duration": 0.14285716666665849
        },
        {
          "name": "A6",
          "midi": 93,
          "time": 136.71430849999882,
          "velocity": 0.6141732283464567,
          "duration": 0.14285716666665849
        },
        {
          "name": "C7",
          "midi": 96,
          "time": 136.85716566666548,
          "velocity": 0.6141732283464567,
          "duration": 0.14285716666665849
        },
        {
          "name": "E7",
          "midi": 100,
          "time": 137.00002283333214,
          "velocity": 0.6141732283464567,
          "duration": 0.14285716666665849
        },
        {
          "name": "D7",
          "midi": 98,
          "time": 137.1428799999988,
          "velocity": 0.6141732283464567,
          "duration": 0.14285716666665849
        },
        {
          "name": "A3",
          "midi": 57,
          "time": 137.1428799999988,
          "velocity": 0.6141732283464567,
          "duration": 0.42857149999997546
        },
        {
          "name": "C4",
          "midi": 60,
          "time": 137.1428799999988,
          "velocity": 0.6141732283464567,
          "duration": 0.42857149999997546
        },
        {
          "name": "E4",
          "midi": 64,
          "time": 137.1428799999988,
          "velocity": 0.6141732283464567,
          "duration": 0.42857149999997546
        },
        {
          "name": "C7",
          "midi": 96,
          "time": 137.28573716666546,
          "velocity": 0.6141732283464567,
          "duration": 0.14285716666665849
        },
        {
          "name": "B6",
          "midi": 95,
          "time": 137.42859433333211,
          "velocity": 0.6141732283464567,
          "duration": 0.14285716666665849
        },
        {
          "name": "A#6",
          "midi": 94,
          "time": 137.57145149999877,
          "velocity": 0.6141732283464567,
          "duration": 0.14285716666665849
        },
        {
          "name": "E4",
          "midi": 64,
          "time": 137.57145149999877,
          "velocity": 0.6141732283464567,
          "duration": 0.42857149999997546
        },
        {
          "name": "C4",
          "midi": 60,
          "time": 137.57145149999877,
          "velocity": 0.6141732283464567,
          "duration": 0.42857149999997546
        },
        {
          "name": "A3",
          "midi": 57,
          "time": 137.57145149999877,
          "velocity": 0.6141732283464567,
          "duration": 0.42857149999997546
        },
        {
          "name": "A6",
          "midi": 93,
          "time": 137.71430866666543,
          "velocity": 0.6141732283464567,
          "duration": 0.14285716666665849
        },
        {
          "name": "G#6",
          "midi": 92,
          "time": 137.8571658333321,
          "velocity": 0.6141732283464567,
          "duration": 0.14285716666665849
        },
        {
          "name": "G6",
          "midi": 91,
          "time": 138.00002299999875,
          "velocity": 0.6141732283464567,
          "duration": 0.14285716666665849
        },
        {
          "name": "F#6",
          "midi": 90,
          "time": 138.1428801666654,
          "velocity": 0.6141732283464567,
          "duration": 0.14285716666665849
        },
        {
          "name": "F6",
          "midi": 89,
          "time": 138.28573733333207,
          "velocity": 0.6141732283464567,
          "duration": 0.14285716666665849
        },
        {
          "name": "E6",
          "midi": 88,
          "time": 138.42859449999872,
          "velocity": 0.6141732283464567,
          "duration": 0.14285716666665849
        },
        {
          "name": "D#6",
          "midi": 87,
          "time": 138.57145166666538,
          "velocity": 0.6141732283464567,
          "duration": 0.14285716666665849
        },
        {
          "name": "D6",
          "midi": 86,
          "time": 138.71430883333204,
          "velocity": 0.6141732283464567,
          "duration": 0.14285716666665849
        },
        {
          "name": "C#6",
          "midi": 85,
          "time": 138.8571659999987,
          "velocity": 0.6141732283464567,
          "duration": 0.14285716666665849
        },
        {
          "name": "C6",
          "midi": 84,
          "time": 139.00002316666536,
          "velocity": 0.6141732283464567,
          "duration": 0.14285716666665849
        },
        {
          "name": "B5",
          "midi": 83,
          "time": 139.14288033333202,
          "velocity": 0.6141732283464567,
          "duration": 0.14285716666665849
        },
        {
          "name": "A#5",
          "midi": 82,
          "time": 139.28573749999867,
          "velocity": 0.6141732283464567,
          "duration": 0.14285716666665849
        },
        {
          "name": "A5",
          "midi": 81,
          "time": 139.42859466666533,
          "velocity": 0.6141732283464567,
          "duration": 0.14285716666665849
        },
        {
          "name": "G#5",
          "midi": 80,
          "time": 139.571451833332,
          "velocity": 0.6141732283464567,
          "duration": 0.14285716666665849
        },
        {
          "name": "G5",
          "midi": 79,
          "time": 139.71430899999865,
          "velocity": 0.6141732283464567,
          "duration": 0.14285716666665849
        },
        {
          "name": "F#5",
          "midi": 78,
          "time": 139.8571661666653,
          "velocity": 0.6141732283464567,
          "duration": 0.14285716666665849
        },
        {
          "name": "F5",
          "midi": 77,
          "time": 140.00002333333197,
          "velocity": 0.6141732283464567,
          "duration": 0.14285716666665849
        },
        {
          "name": "E5",
          "midi": 76,
          "time": 140.14288049999863,
          "velocity": 0.6141732283464567,
          "duration": 0.21428574999998773
        },
        {
          "name": "D#5",
          "midi": 75,
          "time": 140.3571662499986,
          "velocity": 0.6141732283464567,
          "duration": 0.21428574999998773
        },
        {
          "name": "E5",
          "midi": 76,
          "time": 140.5714519999986,
          "velocity": 0.6535433070866141,
          "duration": 0.21428574999998773
        },
        {
          "name": "B4",
          "midi": 71,
          "time": 140.7857377499986,
          "velocity": 0.6141732283464567,
          "duration": 0.21428574999998773
        },
        {
          "name": "D5",
          "midi": 74,
          "time": 141.00002349999858,
          "velocity": 0.6141732283464567,
          "duration": 0.21428574999998773
        },
        {
          "name": "C5",
          "midi": 72,
          "time": 141.21430924999856,
          "velocity": 0.6141732283464567,
          "duration": 0.21428574999998773
        },
        {
          "name": "A4",
          "midi": 69,
          "time": 141.42859499999855,
          "velocity": 0.6535433070866141,
          "duration": 0.42857149999997546
        },
        {
          "name": "A2",
          "midi": 45,
          "time": 141.42859499999855,
          "velocity": 0.5511811023622047,
          "duration": 0.21428574999998773
        },
        {
          "name": "E3",
          "midi": 52,
          "time": 141.64288074999854,
          "velocity": 0.5984251968503937,
          "duration": 0.21428574999998773
        },
        {
          "name": "A3",
          "midi": 57,
          "time": 141.85716649999853,
          "velocity": 0.6141732283464567,
          "duration": 0.21428574999998773
        },
        {
          "name": "C4",
          "midi": 60,
          "time": 142.07145224999852,
          "velocity": 0.5511811023622047,
          "duration": 0.21428574999998773
        },
        {
          "name": "E4",
          "midi": 64,
          "time": 142.2857379999985,
          "velocity": 0.5984251968503937,
          "duration": 0.21428574999998773
        },
        {
          "name": "A4",
          "midi": 69,
          "time": 142.5000237499985,
          "velocity": 0.6535433070866141,
          "duration": 0.21428574999998773
        },
        {
          "name": "B4",
          "midi": 71,
          "time": 142.71430949999848,
          "velocity": 0.7007874015748031,
          "duration": 0.42857149999997546
        },
        {
          "name": "E2",
          "midi": 40,
          "time": 142.71430949999848,
          "velocity": 0.5984251968503937,
          "duration": 0.21428574999998773
        },
        {
          "name": "E3",
          "midi": 52,
          "time": 142.92859524999847,
          "velocity": 0.6141732283464567,
          "duration": 0.21428574999998773
        },
        {
          "name": "G#3",
          "midi": 56,
          "time": 143.14288099999845,
          "velocity": 0.6141732283464567,
          "duration": 0.21428574999998773
        },
        {
          "name": "E4",
          "midi": 64,
          "time": 143.35716674999844,
          "velocity": 0.6141732283464567,
          "duration": 0.21428574999998773
        },
        {
          "name": "G#4",
          "midi": 68,
          "time": 143.57145249999843,
          "velocity": 0.5511811023622047,
          "duration": 0.21428574999998773
        },
        {
          "name": "B4",
          "midi": 71,
          "time": 143.78573824999842,
          "velocity": 0.5511811023622047,
          "duration": 0.21428574999998773
        },
        {
          "name": "C5",
          "midi": 72,
          "time": 144.0000239999984,
          "velocity": 0.6141732283464567,
          "duration": 0.42857149999997546
        },
        {
          "name": "A2",
          "midi": 45,
          "time": 144.0000239999984,
          "velocity": 0.6535433070866141,
          "duration": 0.21428574999998773
        },
        {
          "name": "E3",
          "midi": 52,
          "time": 144.2143097499984,
          "velocity": 0.6141732283464567,
          "duration": 0.21428574999998773
        },
        {
          "name": "A3",
          "midi": 57,
          "time": 144.42859549999838,
          "velocity": 0.6141732283464567,
          "duration": 0.21428574999998773
        },
        {
          "name": "E4",
          "midi": 64,
          "time": 144.64288124999837,
          "velocity": 0.6141732283464567,
          "duration": 0.21428574999998773
        },
        {
          "name": "E5",
          "midi": 76,
          "time": 144.85716699999836,
          "velocity": 0.6141732283464567,
          "duration": 0.21428574999998773
        },
        {
          "name": "D#5",
          "midi": 75,
          "time": 145.07145274999834,
          "velocity": 0.6141732283464567,
          "duration": 0.21428574999998773
        },
        {
          "name": "E5",
          "midi": 76,
          "time": 145.28573849999833,
          "velocity": 0.6535433070866141,
          "duration": 0.21428574999998773
        },
        {
          "name": "D#5",
          "midi": 75,
          "time": 145.50002424999832,
          "velocity": 0.6141732283464567,
          "duration": 0.21428574999998773
        },
        {
          "name": "E5",
          "midi": 76,
          "time": 145.7143099999983,
          "velocity": 0.6535433070866141,
          "duration": 0.21428574999998773
        },
        {
          "name": "B4",
          "midi": 71,
          "time": 145.9285957499983,
          "velocity": 0.6141732283464567,
          "duration": 0.21428574999998773
        },
        {
          "name": "D5",
          "midi": 74,
          "time": 146.14288149999828,
          "velocity": 0.5511811023622047,
          "duration": 0.21428574999998773
        },
        {
          "name": "C5",
          "midi": 72,
          "time": 146.35716724999827,
          "velocity": 0.6141732283464567,
          "duration": 0.21428574999998773
        },
        {
          "name": "A4",
          "midi": 69,
          "time": 146.57145299999826,
          "velocity": 0.6141732283464567,
          "duration": 0.42857149999997546
        },
        {
          "name": "A2",
          "midi": 45,
          "time": 146.57145299999826,
          "velocity": 0.5511811023622047,
          "duration": 0.21428574999998773
        },
        {
          "name": "E3",
          "midi": 52,
          "time": 146.78573874999825,
          "velocity": 0.5984251968503937,
          "duration": 0.21428574999998773
        },
        {
          "name": "A3",
          "midi": 57,
          "time": 147.00002449999823,
          "velocity": 0.5984251968503937,
          "duration": 0.21428574999998773
        },
        {
          "name": "C4",
          "midi": 60,
          "time": 147.21431024999822,
          "velocity": 0.6535433070866141,
          "duration": 0.21428574999998773
        },
        {
          "name": "E4",
          "midi": 64,
          "time": 147.4285959999982,
          "velocity": 0.6535433070866141,
          "duration": 0.21428574999998773
        },
        {
          "name": "A4",
          "midi": 69,
          "time": 147.6428817499982,
          "velocity": 0.5984251968503937,
          "duration": 0.21428574999998773
        },
        {
          "name": "B4",
          "midi": 71,
          "time": 147.85716749999818,
          "velocity": 0.6535433070866141,
          "duration": 0.42857149999997546
        },
        {
          "name": "E2",
          "midi": 40,
          "time": 147.85716749999818,
          "velocity": 0.5039370078740157,
          "duration": 0.21428574999998773
        },
        {
          "name": "E3",
          "midi": 52,
          "time": 148.07145324999817,
          "velocity": 0.5511811023622047,
          "duration": 0.21428574999998773
        },
        {
          "name": "G#3",
          "midi": 56,
          "time": 148.28573899999816,
          "velocity": 0.5984251968503937,
          "duration": 0.21428574999998773
        },
        {
          "name": "E4",
          "midi": 64,
          "time": 148.50002474999815,
          "velocity": 0.6535433070866141,
          "duration": 0.21428574999998773
        },
        {
          "name": "C5",
          "midi": 72,
          "time": 148.71431049999813,
          "velocity": 0.6141732283464567,
          "duration": 0.21428574999998773
        },
        {
          "name": "B4",
          "midi": 71,
          "time": 148.92859624999812,
          "velocity": 0.6141732283464567,
          "duration": 0.21428574999998773
        },
        {
          "name": "A4",
          "midi": 69,
          "time": 149.1428819999981,
          "velocity": 0.6141732283464567,
          "duration": 0.42857149999997546
        },
        {
          "name": "A2",
          "midi": 45,
          "time": 149.1428819999981,
          "velocity": 0.6141732283464567,
          "duration": 0.21428574999998773
        },
        {
          "name": "E3",
          "midi": 52,
          "time": 149.3571677499981,
          "velocity": 0.6141732283464567,
          "duration": 0.21428574999998773
        },
        {
          "name": "A3",
          "midi": 57,
          "time": 149.57145349999809,
          "velocity": 0.6141732283464567,
          "duration": 0.21428574999998773
        },
        {
          "name": "B4",
          "midi": 71,
          "time": 149.78573924999807,
          "velocity": 0.6141732283464567,
          "duration": 0.21428574999998773
        },
        {
          "name": "C5",
          "midi": 72,
          "time": 150.00002499999806,
          "velocity": 0.6141732283464567,
          "duration": 0.21428574999998773
        },
        {
          "name": "D5",
          "midi": 74,
          "time": 150.21431074999805,
          "velocity": 0.6141732283464567,
          "duration": 0.21428574999998773
        },
        {
          "name": "E5",
          "midi": 76,
          "time": 150.42859649999804,
          "velocity": 0.6141732283464567,
          "duration": 0.6428572499999632
        },
        {
          "name": "C3",
          "midi": 48,
          "time": 150.42859649999804,
          "velocity": 0.5511811023622047,
          "duration": 0.21428574999998773
        },
        {
          "name": "G3",
          "midi": 55,
          "time": 150.64288224999802,
          "velocity": 0.6141732283464567,
          "duration": 0.21428574999998773
        },
        {
          "name": "C4",
          "midi": 60,
          "time": 150.857167999998,
          "velocity": 0.6141732283464567,
          "duration": 0.21428574999998773
        },
        {
          "name": "G4",
          "midi": 67,
          "time": 151.071453749998,
          "velocity": 0.6141732283464567,
          "duration": 0.21428574999998773
        },
        {
          "name": "F5",
          "midi": 77,
          "time": 151.285739499998,
          "velocity": 0.6141732283464567,
          "duration": 0.21428574999998773
        },
        {
          "name": "E5",
          "midi": 76,
          "time": 151.50002524999798,
          "velocity": 0.6141732283464567,
          "duration": 0.21428574999998773
        },
        {
          "name": "D5",
          "midi": 74,
          "time": 151.71431099999796,
          "velocity": 0.6141732283464567,
          "duration": 0.6428572499999632
        },
        {
          "name": "G2",
          "midi": 43,
          "time": 151.71431099999796,
          "velocity": 0.5039370078740157,
          "duration": 0.21428574999998773
        },
        {
          "name": "G3",
          "midi": 55,
          "time": 151.92859674999795,
          "velocity": 0.6141732283464567,
          "duration": 0.21428574999998773
        },
        {
          "name": "B3",
          "midi": 59,
          "time": 152.14288249999794,
          "velocity": 0.6141732283464567,
          "duration": 0.21428574999998773
        },
        {
          "name": "F4",
          "midi": 65,
          "time": 152.35716824999793,
          "velocity": 0.6141732283464567,
          "duration": 0.21428574999998773
        },
        {
          "name": "E5",
          "midi": 76,
          "time": 152.5714539999979,
          "velocity": 0.6141732283464567,
          "duration": 0.21428574999998773
        },
        {
          "name": "D5",
          "midi": 74,
          "time": 152.7857397499979,
          "velocity": 0.6141732283464567,
          "duration": 0.21428574999998773
        },
        {
          "name": "C5",
          "midi": 72,
          "time": 153.0000254999979,
          "velocity": 0.6141732283464567,
          "duration": 0.6428572499999632
        },
        {
          "name": "A2",
          "midi": 45,
          "time": 153.0000254999979,
          "velocity": 0.5511811023622047,
          "duration": 0.21428574999998773
        },
        {
          "name": "E3",
          "midi": 52,
          "time": 153.21431124999788,
          "velocity": 0.6141732283464567,
          "duration": 0.21428574999998773
        },
        {
          "name": "A3",
          "midi": 57,
          "time": 153.42859699999786,
          "velocity": 0.6141732283464567,
          "duration": 0.21428574999998773
        },
        {
          "name": "E4",
          "midi": 64,
          "time": 153.64288274999785,
          "velocity": 0.6141732283464567,
          "duration": 0.21428574999998773
        },
        {
          "name": "D5",
          "midi": 74,
          "time": 153.85716849999784,
          "velocity": 0.6141732283464567,
          "duration": 0.21428574999998773
        },
        {
          "name": "C5",
          "midi": 72,
          "time": 154.07145424999783,
          "velocity": 0.6141732283464567,
          "duration": 0.21428574999998773
        },
        {
          "name": "B4",
          "midi": 71,
          "time": 154.28573999999782,
          "velocity": 0.5984251968503937,
          "duration": 0.42857149999997546
        },
        {
          "name": "E2",
          "midi": 40,
          "time": 154.28573999999782,
          "velocity": 0.5039370078740157,
          "duration": 0.21428574999998773
        },
        {
          "name": "E3",
          "midi": 52,
          "time": 154.5000257499978,
          "velocity": 0.5984251968503937,
          "duration": 0.21428574999998773
        },
        {
          "name": "E4",
          "midi": 64,
          "time": 154.7143114999978,
          "velocity": 0.5039370078740157,
          "duration": 0.21428574999998773
        },
        {
          "name": "E4",
          "midi": 64,
          "time": 154.92859724999778,
          "velocity": 0.5511811023622047,
          "duration": 0.21428574999998773
        },
        {
          "name": "E5",
          "midi": 76,
          "time": 155.14288299999777,
          "velocity": 0.6535433070866141,
          "duration": 0.21428574999998773
        },
        {
          "name": "E4",
          "midi": 64,
          "time": 155.35716874999775,
          "velocity": 0.5984251968503937,
          "duration": 0.21428574999998773
        },
        {
          "name": "E5",
          "midi": 76,
          "time": 155.57145449999774,
          "velocity": 0.5984251968503937,
          "duration": 0.21428574999998773
        },
        {
          "name": "E5",
          "midi": 76,
          "time": 155.78574024999773,
          "velocity": 0.5511811023622047,
          "duration": 0.21428574999998773
        },
        {
          "name": "E6",
          "midi": 88,
          "time": 156.00002599999772,
          "velocity": 0.5984251968503937,
          "duration": 0.21428574999998773
        },
        {
          "name": "D#5",
          "midi": 75,
          "time": 156.2143117499977,
          "velocity": 0.5984251968503937,
          "duration": 0.21428574999998773
        },
        {
          "name": "E5",
          "midi": 76,
          "time": 156.4285974999977,
          "velocity": 0.5511811023622047,
          "duration": 0.21428574999998773
        },
        {
          "name": "D#5",
          "midi": 75,
          "time": 156.64288324999768,
          "velocity": 0.5984251968503937,
          "duration": 0.21428574999998773
        },
        {
          "name": "E5",
          "midi": 76,
          "time": 156.85716899999767,
          "velocity": 0.5984251968503937,
          "duration": 0.21428574999998773
        },
        {
          "name": "D#5",
          "midi": 75,
          "time": 157.07145474999766,
          "velocity": 0.5511811023622047,
          "duration": 0.21428574999998773
        },
        {
          "name": "E5",
          "midi": 76,
          "time": 157.28574049999764,
          "velocity": 0.5984251968503937,
          "duration": 0.21428574999998773
        },
        {
          "name": "B4",
          "midi": 71,
          "time": 157.50002624999763,
          "velocity": 0.5984251968503937,
          "duration": 0.21428574999998773
        },
        {
          "name": "D5",
          "midi": 74,
          "time": 157.71431199999762,
          "velocity": 0.5984251968503937,
          "duration": 0.21428574999998773
        },
        {
          "name": "C5",
          "midi": 72,
          "time": 157.9285977499976,
          "velocity": 0.5984251968503937,
          "duration": 0.21428574999998773
        },
        {
          "name": "A4",
          "midi": 69,
          "time": 158.1428834999976,
          "velocity": 0.5984251968503937,
          "duration": 0.42857149999997546
        },
        {
          "name": "A2",
          "midi": 45,
          "time": 158.1428834999976,
          "velocity": 0.5039370078740157,
          "duration": 0.21428574999998773
        },
        {
          "name": "E3",
          "midi": 52,
          "time": 158.35716924999758,
          "velocity": 0.5511811023622047,
          "duration": 0.21428574999998773
        },
        {
          "name": "A3",
          "midi": 57,
          "time": 158.57145499999757,
          "velocity": 0.5984251968503937,
          "duration": 0.21428574999998773
        },
        {
          "name": "C4",
          "midi": 60,
          "time": 158.78574074999756,
          "velocity": 0.5984251968503937,
          "duration": 0.21428574999998773
        },
        {
          "name": "E4",
          "midi": 64,
          "time": 159.00002649999755,
          "velocity": 0.5984251968503937,
          "duration": 0.21428574999998773
        },
        {
          "name": "A4",
          "midi": 69,
          "time": 159.21431224999753,
          "velocity": 0.5984251968503937,
          "duration": 0.21428574999998773
        },
        {
          "name": "B4",
          "midi": 71,
          "time": 159.42859799999752,
          "velocity": 0.5984251968503937,
          "duration": 0.42857149999997546
        },
        {
          "name": "E2",
          "midi": 40,
          "time": 159.42859799999752,
          "velocity": 0.5039370078740157,
          "duration": 0.21428574999998773
        },
        {
          "name": "E3",
          "midi": 52,
          "time": 159.6428837499975,
          "velocity": 0.5511811023622047,
          "duration": 0.21428574999998773
        },
        {
          "name": "G#3",
          "midi": 56,
          "time": 159.8571694999975,
          "velocity": 0.5511811023622047,
          "duration": 0.21428574999998773
        },
        {
          "name": "E4",
          "midi": 64,
          "time": 160.07145524999748,
          "velocity": 0.5511811023622047,
          "duration": 0.21428574999998773
        },
        {
          "name": "G#4",
          "midi": 68,
          "time": 160.28574099999747,
          "velocity": 0.5984251968503937,
          "duration": 0.21428574999998773
        },
        {
          "name": "B4",
          "midi": 71,
          "time": 160.50002674999746,
          "velocity": 0.5984251968503937,
          "duration": 0.21428574999998773
        },
        {
          "name": "C5",
          "midi": 72,
          "time": 160.71431249999745,
          "velocity": 0.5984251968503937,
          "duration": 0.42857149999997546
        },
        {
          "name": "A2",
          "midi": 45,
          "time": 160.71431249999745,
          "velocity": 0.5984251968503937,
          "duration": 0.21428574999998773
        },
        {
          "name": "E3",
          "midi": 52,
          "time": 160.92859824999744,
          "velocity": 0.5984251968503937,
          "duration": 0.21428574999998773
        },
        {
          "name": "A3",
          "midi": 57,
          "time": 161.14288399999742,
          "velocity": 0.5984251968503937,
          "duration": 0.21428574999998773
        },
        {
          "name": "E4",
          "midi": 64,
          "time": 161.3571697499974,
          "velocity": 0.5984251968503937,
          "duration": 0.21428574999998773
        },
        {
          "name": "E5",
          "midi": 76,
          "time": 161.5714554999974,
          "velocity": 0.5984251968503937,
          "duration": 0.21428574999998773
        },
        {
          "name": "D#5",
          "midi": 75,
          "time": 161.7857412499974,
          "velocity": 0.5984251968503937,
          "duration": 0.21428574999998773
        },
        {
          "name": "E5",
          "midi": 76,
          "time": 162.00002699999737,
          "velocity": 0.5984251968503937,
          "duration": 0.21428574999998773
        },
        {
          "name": "D#5",
          "midi": 75,
          "time": 162.21431274999736,
          "velocity": 0.5984251968503937,
          "duration": 0.21428574999998773
        },
        {
          "name": "E5",
          "midi": 76,
          "time": 162.42859849999735,
          "velocity": 0.5984251968503937,
          "duration": 0.21428574999998773
        },
        {
          "name": "B4",
          "midi": 71,
          "time": 162.64288424999734,
          "velocity": 0.5984251968503937,
          "duration": 0.21428574999998773
        },
        {
          "name": "D5",
          "midi": 74,
          "time": 162.85716999999732,
          "velocity": 0.5984251968503937,
          "duration": 0.21428574999998773
        },
        {
          "name": "C5",
          "midi": 72,
          "time": 163.0714557499973,
          "velocity": 0.5984251968503937,
          "duration": 0.21428574999998773
        },
        {
          "name": "A4",
          "midi": 69,
          "time": 163.2857414999973,
          "velocity": 0.5984251968503937,
          "duration": 0.42857149999997546
        },
        {
          "name": "A2",
          "midi": 45,
          "time": 163.2857414999973,
          "velocity": 0.5984251968503937,
          "duration": 0.21428574999998773
        },
        {
          "name": "E3",
          "midi": 52,
          "time": 163.5000272499973,
          "velocity": 0.5984251968503937,
          "duration": 0.21428574999998773
        },
        {
          "name": "A3",
          "midi": 57,
          "time": 163.71431299999728,
          "velocity": 0.5984251968503937,
          "duration": 0.21428574999998773
        },
        {
          "name": "C4",
          "midi": 60,
          "time": 163.92859874999726,
          "velocity": 0.5984251968503937,
          "duration": 0.21428574999998773
        },
        {
          "name": "E4",
          "midi": 64,
          "time": 164.14288449999725,
          "velocity": 0.5984251968503937,
          "duration": 0.21428574999998773
        },
        {
          "name": "A4",
          "midi": 69,
          "time": 164.35717024999724,
          "velocity": 0.5511811023622047,
          "duration": 0.21428574999998773
        },
        {
          "name": "B4",
          "midi": 71,
          "time": 164.57145599999723,
          "velocity": 0.5039370078740157,
          "duration": 0.42857149999997546
        },
        {
          "name": "E2",
          "midi": 40,
          "time": 164.57145599999723,
          "velocity": 0.5039370078740157,
          "duration": 0.21428574999998773
        },
        {
          "name": "E3",
          "midi": 52,
          "time": 164.78574174999721,
          "velocity": 0.5039370078740157,
          "duration": 0.21428574999998773
        },
        {
          "name": "G#3",
          "midi": 56,
          "time": 165.0000274999972,
          "velocity": 0.44881889763779526,
          "duration": 0.21428574999998773
        },
        {
          "name": "E4",
          "midi": 64,
          "time": 165.2143132499972,
          "velocity": 0.4015748031496063,
          "duration": 0.21428574999998773
        },
        {
          "name": "C5",
          "midi": 72,
          "time": 165.42859899999718,
          "velocity": 0.4015748031496063,
          "duration": 0.21428574999998773
        },
        {
          "name": "B4",
          "midi": 71,
          "time": 165.64288474999717,
          "velocity": 0.4015748031496063,
          "duration": 0.21428574999998773
        },
        {
          "name": "C4",
          "midi": 60,
          "time": 165.85717049999715,
          "velocity": 0.3543307086614173,
          "duration": 1.2857145000000116
        },
        {
          "name": "A4",
          "midi": 69,
          "time": 165.85717049999715,
          "velocity": 0.3543307086614173,
          "duration": 1.2857145000000116
        },
        {
          "name": "A2",
          "midi": 45,
          "time": 165.85717049999715,
          "velocity": 0.3543307086614173,
          "duration": 1.2857145000000116
        },
        {
          "name": "A1",
          "midi": 33,
          "time": 165.85717049999715,
          "velocity": 0.3543307086614173,
          "duration": 1.2857145000000116
        }
      ],
      "controlChanges": {
        "64": [
          {
            "number": 64,
            "time": 165.83306335312216,
            "value": 1
          },
          {
            "number": 64,
            "time": 169.68574256666383,
            "value": 0
          }
        ]
      }
    },
    {
      "startTime": 0,
      "duration": 0,
      "length": 0,
      "id": 2,
      "name": "http://www.forelise.com/",
      "instrumentNumber": 0,
      "instrument": "acoustic grand piano",
      "instrumentFamily": "piano",
      "channelNumber": 1,
      "isPercussion": false
    },
    {
      "startTime": 0,
      "duration": 0,
      "length": 0,
      "id": 3,
      "name": "Composed by Ludwig van Beethoven",
      "instrumentNumber": 0,
      "instrument": "acoustic grand piano",
      "instrumentFamily": "piano",
      "channelNumber": 2,
      "isPercussion": false
    }
  ]
}
