{
  "header": {
    "PPQ": 1024,
    "timeSignature": [
      4,
      4
    ],
    "bpm": 120.00024000048
  },
  "startTime": 0,
  "duration": 379.99924000000107,
  "tracks": [
    {
      "startTime": 0,
      "duration": 0,
      "length": 0,
      "id": 0
    },
    {
      "startTime": 7.499985,
      "duration": 369.49926100000135,
      "length": 485,
      "id": 1,
      "name": "Violin",
      "instrumentNumber": 40,
      "instrument": "violin",
      "instrumentFamily": "strings",
      "channelNumber": 0,
      "isPercussion": false,
      "notes": [
        {
          "name": "A#4",
          "midi": 70,
          "time": 7.499985,
          "velocity": 0.5039370078740157,
          "duration": 0.24999950000000037
        },
        {
          "name": "C5",
          "midi": 72,
          "time": 7.7499845,
          "velocity": 0.5039370078740157,
          "duration": 1.7499965
        },
        {
          "name": "A#4",
          "midi": 70,
          "time": 10.999978,
          "velocity": 0.5039370078740157,
          "duration": 0.49999900000000075
        },
        {
          "name": "A#4",
          "midi": 70,
          "time": 11.499977000000001,
          "velocity": 0.5039370078740157,
          "duration": 1.9999959999999994
        },
        {
          "name": "G#4",
          "midi": 68,
          "time": 14.999970000000001,
          "velocity": 0.5039370078740157,
          "duration": 0.49999900000000075
        },
        {
          "name": "C5",
          "midi": 72,
          "time": 15.499969000000002,
          "velocity": 0.5039370078740157,
          "duration": 0.49999900000000075
        },
        {
          "name": "C5",
          "midi": 72,
          "time": 15.999968000000003,
          "velocity": 0.5039370078740157,
          "duration": 0.49999899999999897
        },
        {
          "name": "C5",
          "midi": 72,
          "time": 16.499967,
          "velocity": 0.5039370078740157,
          "duration": 0.24999950000000126
        },
        {
          "name": "C5",
          "midi": 72,
          "time": 16.749966500000003,
          "velocity": 0.5039370078740157,
          "duration": 0.7499985000000002
        },
        {
          "name": "C5",
          "midi": 72,
          "time": 17.499965000000003,
          "velocity": 0.5039370078740157,
          "duration": 0.24999950000000126
        },
        {
          "name": "C5",
          "midi": 72,
          "time": 17.749964500000004,
          "velocity": 0.5039370078740157,
          "duration": 0.7499985000000002
        },
        {
          "name": "A#4",
          "midi": 70,
          "time": 18.499963000000005,
          "velocity": 0.5039370078740157,
          "duration": 0.24999950000000126
        },
        {
          "name": "A#4",
          "midi": 70,
          "time": 18.749962500000006,
          "velocity": 0.5039370078740157,
          "duration": 0.7499985000000002
        },
        {
          "name": "G#4",
          "midi": 68,
          "time": 19.499961000000006,
          "velocity": 0.5039370078740157,
          "duration": 0.24999950000000126
        },
        {
          "name": "A#4",
          "midi": 70,
          "time": 19.749960500000007,
          "velocity": 0.5039370078740157,
          "duration": 0.7499985000000002
        },
        {
          "name": "C5",
          "midi": 72,
          "time": 20.499959000000008,
          "velocity": 0.5039370078740157,
          "duration": 0.24999950000000126
        },
        {
          "name": "A#4",
          "midi": 70,
          "time": 20.74995850000001,
          "velocity": 0.5039370078740157,
          "duration": 0.7499985000000002
        },
        {
          "name": "F4",
          "midi": 65,
          "time": 21.49995700000001,
          "velocity": 0.5039370078740157,
          "duration": 0.24999950000000126
        },
        {
          "name": "G#4",
          "midi": 68,
          "time": 21.74995650000001,
          "velocity": 0.5039370078740157,
          "duration": 1.2499974999999992
        },
        {
          "name": "G#4",
          "midi": 68,
          "time": 22.99995400000001,
          "velocity": 0.5039370078740157,
          "duration": 0.24999950000000126
        },
        {
          "name": "C5",
          "midi": 72,
          "time": 23.24995350000001,
          "velocity": 0.5039370078740157,
          "duration": 0.49999899999999897
        },
        {
          "name": "C5",
          "midi": 72,
          "time": 23.74995250000001,
          "velocity": 0.5039370078740157,
          "duration": 0.7499985000000002
        },
        {
          "name": "A#4",
          "midi": 70,
          "time": 24.49995100000001,
          "velocity": 0.5039370078740157,
          "duration": 0.24999950000000126
        },
        {
          "name": "G#4",
          "midi": 68,
          "time": 24.74995050000001,
          "velocity": 0.5039370078740157,
          "duration": 1.2499974999999992
        },
        {
          "name": "A#4",
          "midi": 70,
          "time": 26.999946000000012,
          "velocity": 0.5039370078740157,
          "duration": 0.24999950000000126
        },
        {
          "name": "A#4",
          "midi": 70,
          "time": 27.249945500000013,
          "velocity": 0.5039370078740157,
          "duration": 0.24999950000000126
        },
        {
          "name": "A#4",
          "midi": 70,
          "time": 27.499945000000015,
          "velocity": 0.5039370078740157,
          "duration": 0.24999950000000126
        },
        {
          "name": "A#4",
          "midi": 70,
          "time": 27.749944500000016,
          "velocity": 0.5039370078740157,
          "duration": 1.7499964999999982
        },
        {
          "name": "C5",
          "midi": 72,
          "time": 30.499939000000015,
          "velocity": 0.5039370078740157,
          "duration": 0.49999899999999897
        },
        {
          "name": "C5",
          "midi": 72,
          "time": 30.999938000000014,
          "velocity": 0.5039370078740157,
          "duration": 0.49999899999999897
        },
        {
          "name": "C5",
          "midi": 72,
          "time": 31.499937000000013,
          "velocity": 0.5039370078740157,
          "duration": 0.24999950000000126
        },
        {
          "name": "C5",
          "midi": 72,
          "time": 31.749936500000015,
          "velocity": 0.5039370078740157,
          "duration": 0.7499985000000002
        },
        {
          "name": "C5",
          "midi": 72,
          "time": 32.499935000000015,
          "velocity": 0.5039370078740157,
          "duration": 0.24999950000000126
        },
        {
          "name": "C5",
          "midi": 72,
          "time": 32.749934500000016,
          "velocity": 0.5039370078740157,
          "duration": 0.7499984999999967
        },
        {
          "name": "C5",
          "midi": 72,
          "time": 33.49993300000001,
          "velocity": 0.5039370078740157,
          "duration": 0.24999950000000126
        },
        {
          "name": "C5",
          "midi": 72,
          "time": 33.749932500000014,
          "velocity": 0.5039370078740157,
          "duration": 0.7499984999999967
        },
        {
          "name": "A#4",
          "midi": 70,
          "time": 34.49993100000001,
          "velocity": 0.5039370078740157,
          "duration": 0.4999990000000025
        },
        {
          "name": "A#4",
          "midi": 70,
          "time": 35.249929500000015,
          "velocity": 0.5039370078740157,
          "duration": 0.24999950000000126
        },
        {
          "name": "A#4",
          "midi": 70,
          "time": 35.499929000000016,
          "velocity": 0.5039370078740157,
          "duration": 0.24999950000000126
        },
        {
          "name": "A#4",
          "midi": 70,
          "time": 35.74992850000002,
          "velocity": 0.5039370078740157,
          "duration": 0.24999950000000126
        },
        {
          "name": "A#4",
          "midi": 70,
          "time": 35.99992800000002,
          "velocity": 0.5039370078740157,
          "duration": 0.7499984999999967
        },
        {
          "name": "A#4",
          "midi": 70,
          "time": 36.749926500000015,
          "velocity": 0.5039370078740157,
          "duration": 0.7499984999999967
        },
        {
          "name": "G#4",
          "midi": 68,
          "time": 37.49992500000001,
          "velocity": 0.5039370078740157,
          "duration": 0.7499984999999967
        },
        {
          "name": "G#4",
          "midi": 68,
          "time": 38.24992350000001,
          "velocity": 0.5039370078740157,
          "duration": 0.7499984999999967
        },
        {
          "name": "A#4",
          "midi": 70,
          "time": 39.49992100000001,
          "velocity": 0.5039370078740157,
          "duration": 0.24999950000000126
        },
        {
          "name": "C5",
          "midi": 72,
          "time": 39.74992050000001,
          "velocity": 0.5039370078740157,
          "duration": 1.7499965000000017
        },
        {
          "name": "A#4",
          "midi": 70,
          "time": 42.99991400000001,
          "velocity": 0.5039370078740157,
          "duration": 0.4999990000000025
        },
        {
          "name": "A#4",
          "midi": 70,
          "time": 43.499913000000014,
          "velocity": 0.5039370078740157,
          "duration": 0.24999950000000126
        },
        {
          "name": "A#4",
          "midi": 70,
          "time": 43.749912500000015,
          "velocity": 0.5039370078740157,
          "duration": 0.7499984999999967
        },
        {
          "name": "C5",
          "midi": 72,
          "time": 44.49991100000001,
          "velocity": 0.5039370078740157,
          "duration": 1.4999970000000005
        },
        {
          "name": "G#4",
          "midi": 68,
          "time": 46.99990600000001,
          "velocity": 0.5039370078740157,
          "duration": 0.4999990000000025
        },
        {
          "name": "C5",
          "midi": 72,
          "time": 47.49990500000001,
          "velocity": 0.5039370078740157,
          "duration": 0.24999950000000126
        },
        {
          "name": "C5",
          "midi": 72,
          "time": 47.749904500000014,
          "velocity": 0.5039370078740157,
          "duration": 0.7499984999999967
        },
        {
          "name": "C5",
          "midi": 72,
          "time": 48.49990300000001,
          "velocity": 0.5039370078740157,
          "duration": 0.24999950000000126
        },
        {
          "name": "C5",
          "midi": 72,
          "time": 48.74990250000001,
          "velocity": 0.5039370078740157,
          "duration": 0.7499984999999967
        },
        {
          "name": "C5",
          "midi": 72,
          "time": 49.49990100000001,
          "velocity": 0.5039370078740157,
          "duration": 0.24999950000000126
        },
        {
          "name": "C5",
          "midi": 72,
          "time": 49.74990050000001,
          "velocity": 0.5039370078740157,
          "duration": 0.7499984999999967
        },
        {
          "name": "A#4",
          "midi": 70,
          "time": 50.499899000000006,
          "velocity": 0.5039370078740157,
          "duration": 0.24999950000000126
        },
        {
          "name": "A#4",
          "midi": 70,
          "time": 50.74989850000001,
          "velocity": 0.5039370078740157,
          "duration": 0.7499984999999967
        },
        {
          "name": "G#4",
          "midi": 68,
          "time": 51.499897000000004,
          "velocity": 0.5039370078740157,
          "duration": 0.24999950000000126
        },
        {
          "name": "A#4",
          "midi": 70,
          "time": 51.749896500000006,
          "velocity": 0.5039370078740157,
          "duration": 0.7499984999999967
        },
        {
          "name": "C5",
          "midi": 72,
          "time": 52.499895,
          "velocity": 0.5039370078740157,
          "duration": 0.24999950000000126
        },
        {
          "name": "A#4",
          "midi": 70,
          "time": 52.7498945,
          "velocity": 0.5039370078740157,
          "duration": 0.7499984999999967
        },
        {
          "name": "F4",
          "midi": 65,
          "time": 53.499893,
          "velocity": 0.5039370078740157,
          "duration": 0.24999950000000126
        },
        {
          "name": "G#4",
          "midi": 68,
          "time": 53.7498925,
          "velocity": 0.5039370078740157,
          "duration": 0.9999979999999979
        },
        {
          "name": "G#4",
          "midi": 68,
          "time": 54.7498905,
          "velocity": 0.5039370078740157,
          "duration": 0.24999950000000126
        },
        {
          "name": "G#4",
          "midi": 68,
          "time": 54.99989,
          "velocity": 0.5039370078740157,
          "duration": 0.24999950000000126
        },
        {
          "name": "C5",
          "midi": 72,
          "time": 55.2498895,
          "velocity": 0.5039370078740157,
          "duration": 0.4999990000000025
        },
        {
          "name": "C5",
          "midi": 72,
          "time": 55.749888500000004,
          "velocity": 0.5039370078740157,
          "duration": 0.7499984999999967
        },
        {
          "name": "A#4",
          "midi": 70,
          "time": 56.499887,
          "velocity": 0.5039370078740157,
          "duration": 0.24999950000000126
        },
        {
          "name": "G#4",
          "midi": 68,
          "time": 56.7498865,
          "velocity": 0.5039370078740157,
          "duration": 1.2499974999999992
        },
        {
          "name": "A#4",
          "midi": 70,
          "time": 58.999882,
          "velocity": 0.5039370078740157,
          "duration": 0.4999990000000025
        },
        {
          "name": "A#4",
          "midi": 70,
          "time": 59.499881,
          "velocity": 0.5039370078740157,
          "duration": 1.999996000000003
        },
        {
          "name": "G#4",
          "midi": 68,
          "time": 62.999874000000005,
          "velocity": 0.5039370078740157,
          "duration": 0.4999990000000025
        },
        {
          "name": "C5",
          "midi": 72,
          "time": 63.49987300000001,
          "velocity": 0.5039370078740157,
          "duration": 0.24999950000000126
        },
        {
          "name": "C5",
          "midi": 72,
          "time": 63.74987250000001,
          "velocity": 0.5039370078740157,
          "duration": 0.7499985000000038
        },
        {
          "name": "C5",
          "midi": 72,
          "time": 64.49987100000001,
          "velocity": 0.5039370078740157,
          "duration": 0.24999950000000126
        },
        {
          "name": "C5",
          "midi": 72,
          "time": 64.74987050000001,
          "velocity": 0.5039370078740157,
          "duration": 0.7499985000000038
        },
        {
          "name": "C5",
          "midi": 72,
          "time": 65.49986900000002,
          "velocity": 0.5039370078740157,
          "duration": 0.24999950000000126
        },
        {
          "name": "C5",
          "midi": 72,
          "time": 65.74986850000002,
          "velocity": 0.5039370078740157,
          "duration": 0.7499985000000038
        },
        {
          "name": "A#4",
          "midi": 70,
          "time": 66.49986700000002,
          "velocity": 0.5039370078740157,
          "duration": 0.24999950000000126
        },
        {
          "name": "A#4",
          "midi": 70,
          "time": 66.74986650000002,
          "velocity": 0.5039370078740157,
          "duration": 0.7499985000000038
        },
        {
          "name": "G#4",
          "midi": 68,
          "time": 67.49986500000003,
          "velocity": 0.5039370078740157,
          "duration": 0.24999950000000126
        },
        {
          "name": "A#4",
          "midi": 70,
          "time": 67.74986450000003,
          "velocity": 0.5039370078740157,
          "duration": 0.7499985000000038
        },
        {
          "name": "C5",
          "midi": 72,
          "time": 68.49986300000003,
          "velocity": 0.5039370078740157,
          "duration": 0.24999950000000126
        },
        {
          "name": "A#4",
          "midi": 70,
          "time": 68.74986250000003,
          "velocity": 0.5039370078740157,
          "duration": 0.4999990000000025
        },
        {
          "name": "F4",
          "midi": 65,
          "time": 69.24986150000004,
          "velocity": 0.5039370078740157,
          "duration": 0.4999990000000025
        },
        {
          "name": "G#4",
          "midi": 68,
          "time": 69.74986050000004,
          "velocity": 0.5039370078740157,
          "duration": 0.7499985000000038
        },
        {
          "name": "G#4",
          "midi": 68,
          "time": 70.49985900000004,
          "velocity": 0.5039370078740157,
          "duration": 0.4999990000000025
        },
        {
          "name": "G#4",
          "midi": 68,
          "time": 70.99985800000005,
          "velocity": 0.5039370078740157,
          "duration": 0.4999990000000025
        },
        {
          "name": "C5",
          "midi": 72,
          "time": 71.49985700000005,
          "velocity": 0.5039370078740157,
          "duration": 0.4999990000000025
        },
        {
          "name": "C5",
          "midi": 72,
          "time": 71.99985600000005,
          "velocity": 0.5039370078740157,
          "duration": 0.999998000000005
        },
        {
          "name": "A#4",
          "midi": 70,
          "time": 72.99985400000006,
          "velocity": 0.5039370078740157,
          "duration": 0.4999990000000025
        },
        {
          "name": "G#4",
          "midi": 68,
          "time": 73.49985300000006,
          "velocity": 0.5039370078740157,
          "duration": 0.999998000000005
        },
        {
          "name": "C5",
          "midi": 72,
          "time": 75.49984900000007,
          "velocity": 0.5039370078740157,
          "duration": 0.24999950000000126
        },
        {
          "name": "D#5",
          "midi": 75,
          "time": 75.74984850000007,
          "velocity": 0.5039370078740157,
          "duration": 0.999998000000005
        },
        {
          "name": "C5",
          "midi": 72,
          "time": 76.74984650000007,
          "velocity": 0.5039370078740157,
          "duration": 0.24999950000000126
        },
        {
          "name": "C#5",
          "midi": 73,
          "time": 76.99984600000008,
          "velocity": 0.5039370078740157,
          "duration": 0.24999950000000126
        },
        {
          "name": "C5",
          "midi": 72,
          "time": 77.24984550000008,
          "velocity": 0.5039370078740157,
          "duration": 0.24999950000000126
        },
        {
          "name": "A#4",
          "midi": 70,
          "time": 77.49984500000008,
          "velocity": 0.5039370078740157,
          "duration": 0.24999950000000126
        },
        {
          "name": "G#4",
          "midi": 68,
          "time": 77.74984450000008,
          "velocity": 0.5039370078740157,
          "duration": 1.2499975000000063
        },
        {
          "name": "G#4",
          "midi": 68,
          "time": 78.99984200000009,
          "velocity": 0.5039370078740157,
          "duration": 0.4999990000000025
        },
        {
          "name": "C5",
          "midi": 72,
          "time": 79.49984100000009,
          "velocity": 0.5039370078740157,
          "duration": 0.4999990000000025
        },
        {
          "name": "C5",
          "midi": 72,
          "time": 79.99984000000009,
          "velocity": 0.5039370078740157,
          "duration": 0.999998000000005
        },
        {
          "name": "A#4",
          "midi": 70,
          "time": 80.9998380000001,
          "velocity": 0.5039370078740157,
          "duration": 0.4999990000000025
        },
        {
          "name": "A#4",
          "midi": 70,
          "time": 81.4998370000001,
          "velocity": 0.5039370078740157,
          "duration": 1.4999969999999934
        },
        {
          "name": "G#4",
          "midi": 68,
          "time": 82.99983400000009,
          "velocity": 0.5039370078740157,
          "duration": 2.999994000000001
        },
        {
          "name": "F4",
          "midi": 65,
          "time": 87.99982400000009,
          "velocity": 0.5039370078740157,
          "duration": 0.4999990000000025
        },
        {
          "name": "F4",
          "midi": 65,
          "time": 88.49982300000009,
          "velocity": 0.5039370078740157,
          "duration": 0.4999990000000025
        },
        {
          "name": "G#4",
          "midi": 68,
          "time": 88.9998220000001,
          "velocity": 0.5039370078740157,
          "duration": 0.4999990000000025
        },
        {
          "name": "G#4",
          "midi": 68,
          "time": 89.4998210000001,
          "velocity": 0.5039370078740157,
          "duration": 0.4999990000000025
        },
        {
          "name": "A#4",
          "midi": 70,
          "time": 89.9998200000001,
          "velocity": 0.5039370078740157,
          "duration": 0.4999990000000025
        },
        {
          "name": "A#4",
          "midi": 70,
          "time": 90.4998190000001,
          "velocity": 0.5039370078740157,
          "duration": 0.4999990000000025
        },
        {
          "name": "A#4",
          "midi": 70,
          "time": 90.9998180000001,
          "velocity": 0.5039370078740157,
          "duration": 2.4999949999999984
        },
        {
          "name": "G#4",
          "midi": 68,
          "time": 93.4998130000001,
          "velocity": 0.5039370078740157,
          "duration": 1.9999959999999959
        },
        {
          "name": "F4",
          "midi": 65,
          "time": 95.4998090000001,
          "velocity": 0.5039370078740157,
          "duration": 0.4999990000000025
        },
        {
          "name": "F4",
          "midi": 65,
          "time": 95.9998080000001,
          "velocity": 0.5039370078740157,
          "duration": 0.4999990000000025
        },
        {
          "name": "F4",
          "midi": 65,
          "time": 96.4998070000001,
          "velocity": 0.5039370078740157,
          "duration": 0.4999990000000025
        },
        {
          "name": "G#4",
          "midi": 68,
          "time": 96.9998060000001,
          "velocity": 0.5039370078740157,
          "duration": 0.4999990000000025
        },
        {
          "name": "G#4",
          "midi": 68,
          "time": 97.49980500000011,
          "velocity": 0.5039370078740157,
          "duration": 0.4999990000000025
        },
        {
          "name": "A#4",
          "midi": 70,
          "time": 97.99980400000011,
          "velocity": 0.5039370078740157,
          "duration": 0.4999990000000025
        },
        {
          "name": "A#4",
          "midi": 70,
          "time": 98.49980300000011,
          "velocity": 0.5039370078740157,
          "duration": 0.4999990000000025
        },
        {
          "name": "A#4",
          "midi": 70,
          "time": 98.99980200000012,
          "velocity": 0.5039370078740157,
          "duration": 1.2499975000000063
        },
        {
          "name": "C5",
          "midi": 72,
          "time": 100.24979950000012,
          "velocity": 0.5039370078740157,
          "duration": 0.24999950000000126
        },
        {
          "name": "A#4",
          "midi": 70,
          "time": 100.49979900000012,
          "velocity": 0.5039370078740157,
          "duration": 0.999998000000005
        },
        {
          "name": "G#4",
          "midi": 68,
          "time": 101.49979700000013,
          "velocity": 0.5039370078740157,
          "duration": 1.2499975000000063
        },
        {
          "name": "G#4",
          "midi": 68,
          "time": 102.74979450000014,
          "velocity": 0.5039370078740157,
          "duration": 0.24999950000000126
        },
        {
          "name": "D#5",
          "midi": 75,
          "time": 102.99979400000014,
          "velocity": 0.5039370078740157,
          "duration": 0.4999990000000025
        },
        {
          "name": "A#4",
          "midi": 70,
          "time": 103.49979300000014,
          "velocity": 0.5039370078740157,
          "duration": 0.24999950000000126
        },
        {
          "name": "G#4",
          "midi": 68,
          "time": 103.74979250000014,
          "velocity": 0.5039370078740157,
          "duration": 0.999998000000005
        },
        {
          "name": "C5",
          "midi": 72,
          "time": 104.74979050000015,
          "velocity": 0.5039370078740157,
          "duration": 0.7499985000000038
        },
        {
          "name": "G#4",
          "midi": 68,
          "time": 105.49978900000015,
          "velocity": 0.5039370078740157,
          "duration": 0.999998000000005
        },
        {
          "name": "G#4",
          "midi": 68,
          "time": 106.49978700000015,
          "velocity": 0.5039370078740157,
          "duration": 0.4999990000000025
        },
        {
          "name": "G#4",
          "midi": 68,
          "time": 107.24978550000016,
          "velocity": 0.5039370078740157,
          "duration": 0.24999950000000126
        },
        {
          "name": "G#4",
          "midi": 68,
          "time": 107.49978500000016,
          "velocity": 0.5039370078740157,
          "duration": 0.24999950000000126
        },
        {
          "name": "G#4",
          "midi": 68,
          "time": 107.74978450000016,
          "velocity": 0.5039370078740157,
          "duration": 0.24999950000000126
        },
        {
          "name": "G#4",
          "midi": 68,
          "time": 107.99978400000016,
          "velocity": 0.5039370078740157,
          "duration": 0.4999990000000025
        },
        {
          "name": "G4",
          "midi": 67,
          "time": 108.49978300000016,
          "velocity": 0.5039370078740157,
          "duration": 0.4999990000000025
        },
        {
          "name": "F4",
          "midi": 65,
          "time": 108.99978200000017,
          "velocity": 0.5039370078740157,
          "duration": 0.4999990000000025
        },
        {
          "name": "D#4",
          "midi": 63,
          "time": 109.49978100000017,
          "velocity": 0.5039370078740157,
          "duration": 0.7499985000000038
        },
        {
          "name": "D#4",
          "midi": 63,
          "time": 110.24977950000017,
          "velocity": 0.5039370078740157,
          "duration": 0.24999950000000126
        },
        {
          "name": "D#4",
          "midi": 63,
          "time": 110.49977900000017,
          "velocity": 0.5039370078740157,
          "duration": 0.4999990000000025
        },
        {
          "name": "D#5",
          "midi": 75,
          "time": 110.99977800000018,
          "velocity": 0.5039370078740157,
          "duration": 0.4999990000000025
        },
        {
          "name": "G#4",
          "midi": 68,
          "time": 111.49977700000018,
          "velocity": 0.5039370078740157,
          "duration": 0.999998000000005
        },
        {
          "name": "C5",
          "midi": 72,
          "time": 112.49977500000018,
          "velocity": 0.5039370078740157,
          "duration": 0.999998000000005
        },
        {
          "name": "G#4",
          "midi": 68,
          "time": 113.49977300000019,
          "velocity": 0.5039370078740157,
          "duration": 0.999998000000005
        },
        {
          "name": "G#4",
          "midi": 68,
          "time": 114.4997710000002,
          "velocity": 0.5039370078740157,
          "duration": 1.4999969999999934
        },
        {
          "name": "G#4",
          "midi": 68,
          "time": 115.99976800000019,
          "velocity": 0.5039370078740157,
          "duration": 0.4999990000000025
        },
        {
          "name": "G4",
          "midi": 67,
          "time": 116.49976700000019,
          "velocity": 0.5039370078740157,
          "duration": 0.4999990000000025
        },
        {
          "name": "F4",
          "midi": 65,
          "time": 116.99976600000019,
          "velocity": 0.5039370078740157,
          "duration": 0.4999990000000025
        },
        {
          "name": "D#4",
          "midi": 63,
          "time": 117.4997650000002,
          "velocity": 0.5039370078740157,
          "duration": 0.999998000000005
        },
        {
          "name": "F4",
          "midi": 65,
          "time": 118.4997630000002,
          "velocity": 0.5039370078740157,
          "duration": 1.4999969999999934
        },
        {
          "name": "F4",
          "midi": 65,
          "time": 119.9997600000002,
          "velocity": 0.5039370078740157,
          "duration": 0.4999990000000025
        },
        {
          "name": "F4",
          "midi": 65,
          "time": 120.4997590000002,
          "velocity": 0.5039370078740157,
          "duration": 0.4999990000000025
        },
        {
          "name": "G#4",
          "midi": 68,
          "time": 120.9997580000002,
          "velocity": 0.5039370078740157,
          "duration": 0.4999990000000025
        },
        {
          "name": "G#4",
          "midi": 68,
          "time": 121.4997570000002,
          "velocity": 0.5039370078740157,
          "duration": 0.4999990000000025
        },
        {
          "name": "A#4",
          "midi": 70,
          "time": 121.9997560000002,
          "velocity": 0.5039370078740157,
          "duration": 0.999998000000005
        },
        {
          "name": "A#4",
          "midi": 70,
          "time": 122.99975400000021,
          "velocity": 0.5039370078740157,
          "duration": 0.7499985000000038
        },
        {
          "name": "C5",
          "midi": 72,
          "time": 123.74975250000021,
          "velocity": 0.5039370078740157,
          "duration": 0.24999950000000126
        },
        {
          "name": "A#4",
          "midi": 70,
          "time": 123.99975200000021,
          "velocity": 0.5039370078740157,
          "duration": 1.4999969999999934
        },
        {
          "name": "G#4",
          "midi": 68,
          "time": 125.49974900000021,
          "velocity": 0.5039370078740157,
          "duration": 1.9999959999999959
        },
        {
          "name": "F4",
          "midi": 65,
          "time": 127.4997450000002,
          "velocity": 0.5039370078740157,
          "duration": 0.4999990000000025
        },
        {
          "name": "F4",
          "midi": 65,
          "time": 127.9997440000002,
          "velocity": 0.5039370078740157,
          "duration": 0.4999989999999883
        },
        {
          "name": "F4",
          "midi": 65,
          "time": 128.4997430000002,
          "velocity": 0.5039370078740157,
          "duration": 0.4999990000000025
        },
        {
          "name": "G#4",
          "midi": 68,
          "time": 128.9997420000002,
          "velocity": 0.5039370078740157,
          "duration": 0.4999990000000025
        },
        {
          "name": "G#4",
          "midi": 68,
          "time": 129.4997410000002,
          "velocity": 0.5039370078740157,
          "duration": 0.4999990000000025
        },
        {
          "name": "A#4",
          "midi": 70,
          "time": 129.9997400000002,
          "velocity": 0.5039370078740157,
          "duration": 0.4999990000000025
        },
        {
          "name": "A#4",
          "midi": 70,
          "time": 130.4997390000002,
          "velocity": 0.5039370078740157,
          "duration": 0.4999990000000025
        },
        {
          "name": "A#4",
          "midi": 70,
          "time": 130.9997380000002,
          "velocity": 0.5039370078740157,
          "duration": 1.2499975000000063
        },
        {
          "name": "C5",
          "midi": 72,
          "time": 132.2497355000002,
          "velocity": 0.5039370078740157,
          "duration": 0.24999950000000126
        },
        {
          "name": "A#4",
          "midi": 70,
          "time": 132.49973500000021,
          "velocity": 0.5039370078740157,
          "duration": 0.999998000000005
        },
        {
          "name": "G#4",
          "midi": 68,
          "time": 133.49973300000022,
          "velocity": 0.5039370078740157,
          "duration": 1.2499975000000063
        },
        {
          "name": "G#4",
          "midi": 68,
          "time": 134.74973050000023,
          "velocity": 0.5039370078740157,
          "duration": 0.24999950000000126
        },
        {
          "name": "D#5",
          "midi": 75,
          "time": 134.99973000000023,
          "velocity": 0.5039370078740157,
          "duration": 0.4999990000000025
        },
        {
          "name": "A#4",
          "midi": 70,
          "time": 135.49972900000023,
          "velocity": 0.5039370078740157,
          "duration": 0.24999950000000126
        },
        {
          "name": "G#4",
          "midi": 68,
          "time": 135.74972850000023,
          "velocity": 0.5039370078740157,
          "duration": 0.999998000000005
        },
        {
          "name": "C5",
          "midi": 72,
          "time": 136.74972650000024,
          "velocity": 0.5039370078740157,
          "duration": 0.7499985000000038
        },
        {
          "name": "G#4",
          "midi": 68,
          "time": 137.49972500000024,
          "velocity": 0.5039370078740157,
          "duration": 0.999998000000005
        },
        {
          "name": "G#4",
          "midi": 68,
          "time": 138.49972300000024,
          "velocity": 0.5039370078740157,
          "duration": 0.999998000000005
        },
        {
          "name": "G#4",
          "midi": 68,
          "time": 139.74972050000025,
          "velocity": 0.5039370078740157,
          "duration": 0.24999950000000126
        },
        {
          "name": "G#4",
          "midi": 68,
          "time": 139.99972000000025,
          "velocity": 0.5039370078740157,
          "duration": 0.4999990000000025
        },
        {
          "name": "G4",
          "midi": 67,
          "time": 140.49971900000025,
          "velocity": 0.5039370078740157,
          "duration": 0.4999990000000025
        },
        {
          "name": "F4",
          "midi": 65,
          "time": 140.99971800000026,
          "velocity": 0.5039370078740157,
          "duration": 0.4999990000000025
        },
        {
          "name": "D#4",
          "midi": 63,
          "time": 141.49971700000026,
          "velocity": 0.5039370078740157,
          "duration": 0.7499985000000038
        },
        {
          "name": "D#4",
          "midi": 63,
          "time": 142.24971550000026,
          "velocity": 0.5039370078740157,
          "duration": 0.24999950000000126
        },
        {
          "name": "D#4",
          "midi": 63,
          "time": 142.49971500000026,
          "velocity": 0.5039370078740157,
          "duration": 0.4999990000000025
        },
        {
          "name": "D#5",
          "midi": 75,
          "time": 142.99971400000027,
          "velocity": 0.5039370078740157,
          "duration": 0.4999990000000025
        },
        {
          "name": "G#4",
          "midi": 68,
          "time": 143.49971300000027,
          "velocity": 0.5039370078740157,
          "duration": 0.4999990000000025
        },
        {
          "name": "G#4",
          "midi": 68,
          "time": 143.99971200000027,
          "velocity": 0.5039370078740157,
          "duration": 0.4999990000000025
        },
        {
          "name": "C5",
          "midi": 72,
          "time": 144.49971100000027,
          "velocity": 0.5039370078740157,
          "duration": 0.999998000000005
        },
        {
          "name": "G#4",
          "midi": 68,
          "time": 145.49970900000028,
          "velocity": 0.5039370078740157,
          "duration": 0.999998000000005
        },
        {
          "name": "G#4",
          "midi": 68,
          "time": 146.49970700000029,
          "velocity": 0.5039370078740157,
          "duration": 0.999998000000005
        },
        {
          "name": "G#4",
          "midi": 68,
          "time": 147.4997050000003,
          "velocity": 0.5039370078740157,
          "duration": 0.24999950000000126
        },
        {
          "name": "G#4",
          "midi": 68,
          "time": 147.7497045000003,
          "velocity": 0.5039370078740157,
          "duration": 0.24999950000000126
        },
        {
          "name": "G#4",
          "midi": 68,
          "time": 147.9997040000003,
          "velocity": 0.5039370078740157,
          "duration": 0.4999990000000025
        },
        {
          "name": "G4",
          "midi": 67,
          "time": 148.4997030000003,
          "velocity": 0.5039370078740157,
          "duration": 0.4999990000000025
        },
        {
          "name": "F4",
          "midi": 65,
          "time": 148.9997020000003,
          "velocity": 0.5039370078740157,
          "duration": 0.4999990000000025
        },
        {
          "name": "D#4",
          "midi": 63,
          "time": 149.4997010000003,
          "velocity": 0.5039370078740157,
          "duration": 0.999998000000005
        },
        {
          "name": "D#4",
          "midi": 63,
          "time": 150.4996990000003,
          "velocity": 0.5039370078740157,
          "duration": 0.4999990000000025
        },
        {
          "name": "F4",
          "midi": 65,
          "time": 150.9996980000003,
          "velocity": 0.5039370078740157,
          "duration": 0.4999990000000025
        },
        {
          "name": "A#3",
          "midi": 58,
          "time": 151.4996970000003,
          "velocity": 0.5039370078740157,
          "duration": 0.24999950000000126
        },
        {
          "name": "G#3",
          "midi": 56,
          "time": 151.7496965000003,
          "velocity": 0.5039370078740157,
          "duration": 1.7499965000000088
        },
        {
          "name": "A#4",
          "midi": 70,
          "time": 159.49968100000032,
          "velocity": 0.5039370078740157,
          "duration": 0.24999950000000126
        },
        {
          "name": "C5",
          "midi": 72,
          "time": 159.74968050000032,
          "velocity": 0.5039370078740157,
          "duration": 1.7499965000000088
        },
        {
          "name": "A#4",
          "midi": 70,
          "time": 163.49967300000034,
          "velocity": 0.5039370078740157,
          "duration": 0.24999950000000126
        },
        {
          "name": "A#4",
          "midi": 70,
          "time": 163.74967250000034,
          "velocity": 0.5039370078740157,
          "duration": 0.7499985000000038
        },
        {
          "name": "A#4",
          "midi": 70,
          "time": 164.49967100000035,
          "velocity": 0.5039370078740157,
          "duration": 1.99999600000001
        },
        {
          "name": "G#4",
          "midi": 68,
          "time": 166.99966600000036,
          "velocity": 0.5039370078740157,
          "duration": 0.4999990000000025
        },
        {
          "name": "C5",
          "midi": 72,
          "time": 167.49966500000036,
          "velocity": 0.5039370078740157,
          "duration": 0.4999990000000025
        },
        {
          "name": "C5",
          "midi": 72,
          "time": 167.99966400000037,
          "velocity": 0.5039370078740157,
          "duration": 0.4999990000000025
        },
        {
          "name": "C5",
          "midi": 72,
          "time": 168.49966300000037,
          "velocity": 0.5039370078740157,
          "duration": 0.24999950000000126
        },
        {
          "name": "C5",
          "midi": 72,
          "time": 168.74966250000037,
          "velocity": 0.5039370078740157,
          "duration": 0.7499985000000038
        },
        {
          "name": "C5",
          "midi": 72,
          "time": 169.49966100000037,
          "velocity": 0.5039370078740157,
          "duration": 0.24999950000000126
        },
        {
          "name": "C5",
          "midi": 72,
          "time": 169.74966050000037,
          "velocity": 0.5039370078740157,
          "duration": 0.7499985000000038
        },
        {
          "name": "A#4",
          "midi": 70,
          "time": 170.49965900000038,
          "velocity": 0.5039370078740157,
          "duration": 0.24999950000000126
        },
        {
          "name": "A#4",
          "midi": 70,
          "time": 170.74965850000038,
          "velocity": 0.5039370078740157,
          "duration": 0.7499985000000038
        },
        {
          "name": "G#4",
          "midi": 68,
          "time": 171.49965700000038,
          "velocity": 0.5039370078740157,
          "duration": 0.24999950000000126
        },
        {
          "name": "A#4",
          "midi": 70,
          "time": 171.74965650000038,
          "velocity": 0.5039370078740157,
          "duration": 0.7499985000000038
        },
        {
          "name": "C5",
          "midi": 72,
          "time": 172.4996550000004,
          "velocity": 0.5039370078740157,
          "duration": 0.24999950000000126
        },
        {
          "name": "A#4",
          "midi": 70,
          "time": 172.7496545000004,
          "velocity": 0.5039370078740157,
          "duration": 0.7499985000000038
        },
        {
          "name": "F4",
          "midi": 65,
          "time": 173.4996530000004,
          "velocity": 0.5039370078740157,
          "duration": 0.4999990000000025
        },
        {
          "name": "G#4",
          "midi": 68,
          "time": 173.9996520000004,
          "velocity": 0.5039370078740157,
          "duration": 0.7499985000000038
        },
        {
          "name": "F4",
          "midi": 65,
          "time": 174.7496505000004,
          "velocity": 0.5039370078740157,
          "duration": 0.7499985000000038
        },
        {
          "name": "A#4",
          "midi": 70,
          "time": 175.4996490000004,
          "velocity": 0.5039370078740157,
          "duration": 0.24999950000000126
        },
        {
          "name": "C5",
          "midi": 72,
          "time": 175.7496485000004,
          "velocity": 0.5039370078740157,
          "duration": 1.7499965000000088
        },
        {
          "name": "A#4",
          "midi": 70,
          "time": 178.99964200000042,
          "velocity": 0.5039370078740157,
          "duration": 0.4999990000000025
        },
        {
          "name": "A#4",
          "midi": 70,
          "time": 179.49964100000042,
          "velocity": 0.5039370078740157,
          "duration": 0.4999990000000025
        },
        {
          "name": "A#4",
          "midi": 70,
          "time": 179.99964000000043,
          "velocity": 0.5039370078740157,
          "duration": 1.4999970000000076
        },
        {
          "name": "G#4",
          "midi": 68,
          "time": 182.99963400000044,
          "velocity": 0.5039370078740157,
          "duration": 0.24999950000000126
        },
        {
          "name": "C5",
          "midi": 72,
          "time": 183.24963350000044,
          "velocity": 0.5039370078740157,
          "duration": 0.4999990000000025
        },
        {
          "name": "C5",
          "midi": 72,
          "time": 183.74963250000044,
          "velocity": 0.5039370078740157,
          "duration": 0.4999990000000025
        },
        {
          "name": "C5",
          "midi": 72,
          "time": 184.24963150000045,
          "velocity": 0.5039370078740157,
          "duration": 0.4999990000000025
        },
        {
          "name": "C5",
          "midi": 72,
          "time": 184.74963050000045,
          "velocity": 0.5039370078740157,
          "duration": 0.4999990000000025
        },
        {
          "name": "C5",
          "midi": 72,
          "time": 185.24962950000045,
          "velocity": 0.5039370078740157,
          "duration": 0.4999990000000025
        },
        {
          "name": "C5",
          "midi": 72,
          "time": 185.74962850000045,
          "velocity": 0.5039370078740157,
          "duration": 0.4999990000000025
        },
        {
          "name": "A#4",
          "midi": 70,
          "time": 186.24962750000046,
          "velocity": 0.5039370078740157,
          "duration": 0.24999950000000126
        },
        {
          "name": "A#4",
          "midi": 70,
          "time": 186.49962700000046,
          "velocity": 0.5039370078740157,
          "duration": 0.4999990000000025
        },
        {
          "name": "A#4",
          "midi": 70,
          "time": 186.99962600000046,
          "velocity": 0.5039370078740157,
          "duration": 0.4999990000000025
        },
        {
          "name": "G#4",
          "midi": 68,
          "time": 187.49962500000046,
          "velocity": 0.5039370078740157,
          "duration": 0.24999950000000126
        },
        {
          "name": "A#4",
          "midi": 70,
          "time": 187.74962450000046,
          "velocity": 0.5039370078740157,
          "duration": 0.7499985000000038
        },
        {
          "name": "C5",
          "midi": 72,
          "time": 188.49962300000047,
          "velocity": 0.5039370078740157,
          "duration": 0.24999950000000126
        },
        {
          "name": "A#4",
          "midi": 70,
          "time": 188.74962250000047,
          "velocity": 0.5039370078740157,
          "duration": 0.4999990000000025
        },
        {
          "name": "F4",
          "midi": 65,
          "time": 189.24962150000047,
          "velocity": 0.5039370078740157,
          "duration": 0.4999990000000025
        },
        {
          "name": "G#4",
          "midi": 68,
          "time": 189.74962050000047,
          "velocity": 0.5039370078740157,
          "duration": 0.4999990000000025
        },
        {
          "name": "F4",
          "midi": 65,
          "time": 190.24961950000048,
          "velocity": 0.5039370078740157,
          "duration": 0.7499985000000038
        },
        {
          "name": "G#4",
          "midi": 68,
          "time": 190.99961800000048,
          "velocity": 0.5039370078740157,
          "duration": 0.4999990000000025
        },
        {
          "name": "C5",
          "midi": 72,
          "time": 191.49961700000048,
          "velocity": 0.5039370078740157,
          "duration": 0.4999990000000025
        },
        {
          "name": "C5",
          "midi": 72,
          "time": 191.9996160000005,
          "velocity": 0.5039370078740157,
          "duration": 1.4999970000000076
        },
        {
          "name": "A#4",
          "midi": 70,
          "time": 193.4996130000005,
          "velocity": 0.5039370078740157,
          "duration": 0.999998000000005
        },
        {
          "name": "G#4",
          "midi": 68,
          "time": 194.9996100000005,
          "velocity": 0.5039370078740157,
          "duration": 0.4999990000000025
        },
        {
          "name": "D#5",
          "midi": 75,
          "time": 195.4996090000005,
          "velocity": 0.5039370078740157,
          "duration": 0.4999990000000025
        },
        {
          "name": "D#5",
          "midi": 75,
          "time": 195.9996080000005,
          "velocity": 0.5039370078740157,
          "duration": 0.999998000000005
        },
        {
          "name": "C5",
          "midi": 72,
          "time": 196.9996060000005,
          "velocity": 0.5039370078740157,
          "duration": 0.4999990000000025
        },
        {
          "name": "C#5",
          "midi": 73,
          "time": 197.4996050000005,
          "velocity": 0.5039370078740157,
          "duration": 0.7499985000000038
        },
        {
          "name": "C5",
          "midi": 72,
          "time": 198.24960350000052,
          "velocity": 0.5039370078740157,
          "duration": 0.24999950000000126
        },
        {
          "name": "A#4",
          "midi": 70,
          "time": 198.49960300000052,
          "velocity": 0.5039370078740157,
          "duration": 0.24999950000000126
        },
        {
          "name": "G#4",
          "midi": 68,
          "time": 198.74960250000052,
          "velocity": 0.5039370078740157,
          "duration": 0.7499985000000038
        },
        {
          "name": "C5",
          "midi": 72,
          "time": 199.49960100000052,
          "velocity": 0.5039370078740157,
          "duration": 0.4999990000000025
        },
        {
          "name": "C5",
          "midi": 72,
          "time": 199.99960000000053,
          "velocity": 0.5039370078740157,
          "duration": 0.999998000000005
        },
        {
          "name": "A#4",
          "midi": 70,
          "time": 200.99959800000053,
          "velocity": 0.5039370078740157,
          "duration": 0.4999990000000025
        },
        {
          "name": "A#4",
          "midi": 70,
          "time": 201.49959700000053,
          "velocity": 0.5039370078740157,
          "duration": 0.999998000000005
        },
        {
          "name": "G#4",
          "midi": 68,
          "time": 202.49959500000054,
          "velocity": 0.5039370078740157,
          "duration": 0.4999990000000025
        },
        {
          "name": "G#4",
          "midi": 68,
          "time": 202.99959400000054,
          "velocity": 0.5039370078740157,
          "duration": 2.9999939999999867
        },
        {
          "name": "F4",
          "midi": 65,
          "time": 207.49958500000054,
          "velocity": 0.5039370078740157,
          "duration": 0.4999990000000025
        },
        {
          "name": "F4",
          "midi": 65,
          "time": 207.99958400000054,
          "velocity": 0.5039370078740157,
          "duration": 0.4999990000000025
        },
        {
          "name": "F4",
          "midi": 65,
          "time": 208.49958300000054,
          "velocity": 0.5039370078740157,
          "duration": 0.4999990000000025
        },
        {
          "name": "G#4",
          "midi": 68,
          "time": 208.99958200000054,
          "velocity": 0.5039370078740157,
          "duration": 0.4999990000000025
        },
        {
          "name": "G#4",
          "midi": 68,
          "time": 209.49958100000055,
          "velocity": 0.5039370078740157,
          "duration": 0.4999990000000025
        },
        {
          "name": "A#4",
          "midi": 70,
          "time": 209.99958000000055,
          "velocity": 0.5039370078740157,
          "duration": 0.4999990000000025
        },
        {
          "name": "A#4",
          "midi": 70,
          "time": 210.49957900000055,
          "velocity": 0.5039370078740157,
          "duration": 0.4999990000000025
        },
        {
          "name": "A#4",
          "midi": 70,
          "time": 210.99957800000055,
          "velocity": 0.5039370078740157,
          "duration": 2.4999950000000126
        },
        {
          "name": "G#4",
          "midi": 68,
          "time": 213.49957300000057,
          "velocity": 0.5039370078740157,
          "duration": 1.99999600000001
        },
        {
          "name": "F4",
          "midi": 65,
          "time": 215.49956900000058,
          "velocity": 0.5039370078740157,
          "duration": 0.4999990000000025
        },
        {
          "name": "F4",
          "midi": 65,
          "time": 215.99956800000058,
          "velocity": 0.5039370078740157,
          "duration": 0.4999990000000025
        },
        {
          "name": "F4",
          "midi": 65,
          "time": 216.49956700000058,
          "velocity": 0.5039370078740157,
          "duration": 0.4999990000000025
        },
        {
          "name": "G#4",
          "midi": 68,
          "time": 216.99956600000058,
          "velocity": 0.5039370078740157,
          "duration": 0.4999990000000025
        },
        {
          "name": "G#4",
          "midi": 68,
          "time": 217.4995650000006,
          "velocity": 0.5039370078740157,
          "duration": 0.4999990000000025
        },
        {
          "name": "A#4",
          "midi": 70,
          "time": 217.9995640000006,
          "velocity": 0.5039370078740157,
          "duration": 0.4999990000000025
        },
        {
          "name": "A#4",
          "midi": 70,
          "time": 218.4995630000006,
          "velocity": 0.5039370078740157,
          "duration": 0.4999990000000025
        },
        {
          "name": "A#4",
          "midi": 70,
          "time": 218.9995620000006,
          "velocity": 0.5039370078740157,
          "duration": 1.2499975000000063
        },
        {
          "name": "C5",
          "midi": 72,
          "time": 220.2495595000006,
          "velocity": 0.5039370078740157,
          "duration": 0.24999950000000126
        },
        {
          "name": "A#4",
          "midi": 70,
          "time": 220.4995590000006,
          "velocity": 0.5039370078740157,
          "duration": 0.999998000000005
        },
        {
          "name": "G#4",
          "midi": 68,
          "time": 221.4995570000006,
          "velocity": 0.5039370078740157,
          "duration": 1.2499975000000063
        },
        {
          "name": "G#4",
          "midi": 68,
          "time": 222.7495545000006,
          "velocity": 0.5039370078740157,
          "duration": 0.24999950000000126
        },
        {
          "name": "D#5",
          "midi": 75,
          "time": 222.99955400000061,
          "velocity": 0.5039370078740157,
          "duration": 0.4999990000000025
        },
        {
          "name": "A#4",
          "midi": 70,
          "time": 223.49955300000062,
          "velocity": 0.5039370078740157,
          "duration": 0.24999950000000126
        },
        {
          "name": "G#4",
          "midi": 68,
          "time": 223.74955250000062,
          "velocity": 0.5039370078740157,
          "duration": 0.999998000000005
        },
        {
          "name": "C5",
          "midi": 72,
          "time": 224.74955050000062,
          "velocity": 0.5039370078740157,
          "duration": 0.7499985000000038
        },
        {
          "name": "G#4",
          "midi": 68,
          "time": 225.49954900000063,
          "velocity": 0.5039370078740157,
          "duration": 0.999998000000005
        },
        {
          "name": "G#4",
          "midi": 68,
          "time": 226.49954700000063,
          "velocity": 0.5039370078740157,
          "duration": 0.4999990000000025
        },
        {
          "name": "G#4",
          "midi": 68,
          "time": 227.24954550000064,
          "velocity": 0.5039370078740157,
          "duration": 0.24999950000000126
        },
        {
          "name": "G#4",
          "midi": 68,
          "time": 227.49954500000064,
          "velocity": 0.5039370078740157,
          "duration": 0.24999950000000126
        },
        {
          "name": "G#4",
          "midi": 68,
          "time": 227.74954450000064,
          "velocity": 0.5039370078740157,
          "duration": 0.24999950000000126
        },
        {
          "name": "G#4",
          "midi": 68,
          "time": 227.99954400000064,
          "velocity": 0.5039370078740157,
          "duration": 0.4999990000000025
        },
        {
          "name": "G4",
          "midi": 67,
          "time": 228.49954300000064,
          "velocity": 0.5039370078740157,
          "duration": 0.4999990000000025
        },
        {
          "name": "F4",
          "midi": 65,
          "time": 228.99954200000064,
          "velocity": 0.5039370078740157,
          "duration": 0.4999990000000025
        },
        {
          "name": "D#4",
          "midi": 63,
          "time": 229.49954100000065,
          "velocity": 0.5039370078740157,
          "duration": 0.7499985000000038
        },
        {
          "name": "D#4",
          "midi": 63,
          "time": 230.24953950000065,
          "velocity": 0.5039370078740157,
          "duration": 0.24999950000000126
        },
        {
          "name": "D#4",
          "midi": 63,
          "time": 230.49953900000065,
          "velocity": 0.5039370078740157,
          "duration": 0.4999990000000025
        },
        {
          "name": "D#5",
          "midi": 75,
          "time": 230.99953800000065,
          "velocity": 0.5039370078740157,
          "duration": 0.4999990000000025
        },
        {
          "name": "G#4",
          "midi": 68,
          "time": 231.49953700000066,
          "velocity": 0.5039370078740157,
          "duration": 0.999998000000005
        },
        {
          "name": "C5",
          "midi": 72,
          "time": 232.49953500000066,
          "velocity": 0.5039370078740157,
          "duration": 0.999998000000005
        },
        {
          "name": "G#4",
          "midi": 68,
          "time": 233.49953300000067,
          "velocity": 0.5039370078740157,
          "duration": 0.999998000000005
        },
        {
          "name": "G#4",
          "midi": 68,
          "time": 234.49953100000067,
          "velocity": 0.5039370078740157,
          "duration": 1.4999970000000076
        },
        {
          "name": "G#4",
          "midi": 68,
          "time": 235.99952800000068,
          "velocity": 0.5039370078740157,
          "duration": 0.4999990000000025
        },
        {
          "name": "G4",
          "midi": 67,
          "time": 236.49952700000068,
          "velocity": 0.5039370078740157,
          "duration": 0.4999990000000025
        },
        {
          "name": "F4",
          "midi": 65,
          "time": 236.99952600000069,
          "velocity": 0.5039370078740157,
          "duration": 0.4999990000000025
        },
        {
          "name": "D#4",
          "midi": 63,
          "time": 237.4995250000007,
          "velocity": 0.5039370078740157,
          "duration": 0.999998000000005
        },
        {
          "name": "F4",
          "midi": 65,
          "time": 238.4995230000007,
          "velocity": 0.5039370078740157,
          "duration": 1.4999970000000076
        },
        {
          "name": "F4",
          "midi": 65,
          "time": 239.9995200000007,
          "velocity": 0.5039370078740157,
          "duration": 0.4999990000000025
        },
        {
          "name": "F4",
          "midi": 65,
          "time": 240.4995190000007,
          "velocity": 0.5039370078740157,
          "duration": 0.4999990000000025
        },
        {
          "name": "G#4",
          "midi": 68,
          "time": 240.9995180000007,
          "velocity": 0.5039370078740157,
          "duration": 0.4999990000000025
        },
        {
          "name": "G#4",
          "midi": 68,
          "time": 241.4995170000007,
          "velocity": 0.5039370078740157,
          "duration": 0.4999990000000025
        },
        {
          "name": "A#4",
          "midi": 70,
          "time": 241.9995160000007,
          "velocity": 0.5039370078740157,
          "duration": 0.999998000000005
        },
        {
          "name": "A#4",
          "midi": 70,
          "time": 242.99951400000072,
          "velocity": 0.5039370078740157,
          "duration": 2.4999950000000126
        },
        {
          "name": "G#4",
          "midi": 68,
          "time": 245.49950900000073,
          "velocity": 0.5039370078740157,
          "duration": 1.99999600000001
        },
        {
          "name": "F4",
          "midi": 65,
          "time": 247.49950500000074,
          "velocity": 0.5039370078740157,
          "duration": 0.4999990000000025
        },
        {
          "name": "F4",
          "midi": 65,
          "time": 247.99950400000074,
          "velocity": 0.5039370078740157,
          "duration": 0.4999990000000025
        },
        {
          "name": "F4",
          "midi": 65,
          "time": 248.49950300000074,
          "velocity": 0.5039370078740157,
          "duration": 0.4999990000000025
        },
        {
          "name": "G#4",
          "midi": 68,
          "time": 248.99950200000075,
          "velocity": 0.5039370078740157,
          "duration": 0.4999990000000025
        },
        {
          "name": "G#4",
          "midi": 68,
          "time": 249.49950100000075,
          "velocity": 0.5039370078740157,
          "duration": 0.4999990000000025
        },
        {
          "name": "A#4",
          "midi": 70,
          "time": 249.99950000000075,
          "velocity": 0.5039370078740157,
          "duration": 0.4999990000000025
        },
        {
          "name": "A#4",
          "midi": 70,
          "time": 250.49949900000075,
          "velocity": 0.5039370078740157,
          "duration": 0.4999990000000025
        },
        {
          "name": "A#4",
          "midi": 70,
          "time": 250.99949800000076,
          "velocity": 0.5039370078740157,
          "duration": 1.2499975000000063
        },
        {
          "name": "C5",
          "midi": 72,
          "time": 252.24949550000076,
          "velocity": 0.5039370078740157,
          "duration": 0.24999950000000126
        },
        {
          "name": "A#4",
          "midi": 70,
          "time": 252.49949500000076,
          "velocity": 0.5039370078740157,
          "duration": 0.999998000000005
        },
        {
          "name": "G#4",
          "midi": 68,
          "time": 253.49949300000077,
          "velocity": 0.5039370078740157,
          "duration": 1.2499975000000063
        },
        {
          "name": "G#4",
          "midi": 68,
          "time": 254.74949050000077,
          "velocity": 0.5039370078740157,
          "duration": 0.24999950000000126
        },
        {
          "name": "D#5",
          "midi": 75,
          "time": 254.99949000000078,
          "velocity": 0.5039370078740157,
          "duration": 0.4999990000000025
        },
        {
          "name": "A#4",
          "midi": 70,
          "time": 255.49948900000078,
          "velocity": 0.5039370078740157,
          "duration": 0.24999950000000126
        },
        {
          "name": "G#4",
          "midi": 68,
          "time": 255.74948850000078,
          "velocity": 0.5039370078740157,
          "duration": 0.999998000000005
        },
        {
          "name": "C5",
          "midi": 72,
          "time": 256.7494865000008,
          "velocity": 0.5039370078740157,
          "duration": 0.7499985000000038
        },
        {
          "name": "G#4",
          "midi": 68,
          "time": 257.4994850000008,
          "velocity": 0.5039370078740157,
          "duration": 0.999998000000005
        },
        {
          "name": "G#4",
          "midi": 68,
          "time": 258.4994830000008,
          "velocity": 0.5039370078740157,
          "duration": 0.999998000000005
        },
        {
          "name": "G#4",
          "midi": 68,
          "time": 259.7494805000008,
          "velocity": 0.5039370078740157,
          "duration": 0.24999950000000126
        },
        {
          "name": "G#4",
          "midi": 68,
          "time": 259.9994800000008,
          "velocity": 0.5039370078740157,
          "duration": 0.4999990000000025
        },
        {
          "name": "G4",
          "midi": 67,
          "time": 260.4994790000008,
          "velocity": 0.5039370078740157,
          "duration": 0.4999990000000025
        },
        {
          "name": "F4",
          "midi": 65,
          "time": 260.9994780000008,
          "velocity": 0.5039370078740157,
          "duration": 0.4999990000000025
        },
        {
          "name": "D#4",
          "midi": 63,
          "time": 261.4994770000008,
          "velocity": 0.5039370078740157,
          "duration": 0.7499985000000038
        },
        {
          "name": "D#4",
          "midi": 63,
          "time": 262.2494755000008,
          "velocity": 0.5039370078740157,
          "duration": 0.24999950000000126
        },
        {
          "name": "D#4",
          "midi": 63,
          "time": 262.4994750000008,
          "velocity": 0.5039370078740157,
          "duration": 0.4999990000000025
        },
        {
          "name": "D#5",
          "midi": 75,
          "time": 262.9994740000008,
          "velocity": 0.5039370078740157,
          "duration": 0.4999990000000025
        },
        {
          "name": "G#4",
          "midi": 68,
          "time": 263.4994730000008,
          "velocity": 0.5039370078740157,
          "duration": 0.4999990000000025
        },
        {
          "name": "G#4",
          "midi": 68,
          "time": 263.9994720000008,
          "velocity": 0.5039370078740157,
          "duration": 0.4999990000000025
        },
        {
          "name": "C5",
          "midi": 72,
          "time": 264.4994710000008,
          "velocity": 0.5039370078740157,
          "duration": 0.999998000000005
        },
        {
          "name": "G#4",
          "midi": 68,
          "time": 265.49946900000083,
          "velocity": 0.5039370078740157,
          "duration": 0.999998000000005
        },
        {
          "name": "G#4",
          "midi": 68,
          "time": 266.49946700000083,
          "velocity": 0.5039370078740157,
          "duration": 0.999998000000005
        },
        {
          "name": "G#4",
          "midi": 68,
          "time": 267.49946500000084,
          "velocity": 0.5039370078740157,
          "duration": 0.24999950000000126
        },
        {
          "name": "G#4",
          "midi": 68,
          "time": 267.74946450000084,
          "velocity": 0.5039370078740157,
          "duration": 0.24999950000000126
        },
        {
          "name": "G#4",
          "midi": 68,
          "time": 267.99946400000084,
          "velocity": 0.5039370078740157,
          "duration": 0.4999990000000025
        },
        {
          "name": "G4",
          "midi": 67,
          "time": 268.49946300000084,
          "velocity": 0.5039370078740157,
          "duration": 0.4999990000000025
        },
        {
          "name": "F4",
          "midi": 65,
          "time": 268.99946200000085,
          "velocity": 0.5039370078740157,
          "duration": 0.4999990000000025
        },
        {
          "name": "D#4",
          "midi": 63,
          "time": 269.49946100000085,
          "velocity": 0.5039370078740157,
          "duration": 0.999998000000005
        },
        {
          "name": "F4",
          "midi": 65,
          "time": 270.49945900000085,
          "velocity": 0.5039370078740157,
          "duration": 0.4999990000000025
        },
        {
          "name": "F4",
          "midi": 65,
          "time": 270.99945800000086,
          "velocity": 0.5039370078740157,
          "duration": 0.4999990000000025
        },
        {
          "name": "F4",
          "midi": 65,
          "time": 271.49945700000086,
          "velocity": 0.5039370078740157,
          "duration": 0.4999990000000025
        },
        {
          "name": "G#4",
          "midi": 68,
          "time": 271.99945600000086,
          "velocity": 0.5039370078740157,
          "duration": 0.7499985000000038
        },
        {
          "name": "C5",
          "midi": 72,
          "time": 272.74945450000087,
          "velocity": 0.5039370078740157,
          "duration": 1.2499975000000063
        },
        {
          "name": "D#5",
          "midi": 75,
          "time": 275.4994490000009,
          "velocity": 0.5039370078740157,
          "duration": 1.4999970000000076
        },
        {
          "name": "C#5",
          "midi": 73,
          "time": 276.9994460000009,
          "velocity": 0.5039370078740157,
          "duration": 0.24999950000000126
        },
        {
          "name": "C5",
          "midi": 72,
          "time": 277.2494455000009,
          "velocity": 0.5039370078740157,
          "duration": 0.4999990000000025
        },
        {
          "name": "C#5",
          "midi": 73,
          "time": 277.7494445000009,
          "velocity": 0.5039370078740157,
          "duration": 0.24999950000000126
        },
        {
          "name": "C5",
          "midi": 72,
          "time": 277.9994440000009,
          "velocity": 0.5039370078740157,
          "duration": 0.999998000000005
        },
        {
          "name": "G#4",
          "midi": 68,
          "time": 279.2494415000009,
          "velocity": 0.5039370078740157,
          "duration": 0.24999950000000126
        },
        {
          "name": "G#4",
          "midi": 68,
          "time": 279.4994410000009,
          "velocity": 0.5039370078740157,
          "duration": 0.24999950000000126
        },
        {
          "name": "G#4",
          "midi": 68,
          "time": 279.7494405000009,
          "velocity": 0.5039370078740157,
          "duration": 0.999998000000005
        },
        {
          "name": "C5",
          "midi": 72,
          "time": 280.7494385000009,
          "velocity": 0.5039370078740157,
          "duration": 1.2499975000000063
        },
        {
          "name": "D#5",
          "midi": 75,
          "time": 283.4994330000009,
          "velocity": 0.5039370078740157,
          "duration": 1.4999970000000076
        },
        {
          "name": "F5",
          "midi": 77,
          "time": 284.9994300000009,
          "velocity": 0.5039370078740157,
          "duration": 0.24999950000000126
        },
        {
          "name": "D#5",
          "midi": 75,
          "time": 285.24942950000093,
          "velocity": 0.5039370078740157,
          "duration": 0.4999990000000025
        },
        {
          "name": "G#5",
          "midi": 80,
          "time": 285.74942850000093,
          "velocity": 0.5039370078740157,
          "duration": 1.2499975000000063
        },
        {
          "name": "G#4",
          "midi": 68,
          "time": 287.24942550000094,
          "velocity": 0.5039370078740157,
          "duration": 0.24999950000000126
        },
        {
          "name": "G#4",
          "midi": 68,
          "time": 287.49942500000094,
          "velocity": 0.5039370078740157,
          "duration": 0.24999950000000126
        },
        {
          "name": "G#4",
          "midi": 68,
          "time": 287.74942450000094,
          "velocity": 0.5039370078740157,
          "duration": 0.999998000000005
        },
        {
          "name": "C5",
          "midi": 72,
          "time": 288.74942250000095,
          "velocity": 0.5039370078740157,
          "duration": 1.2499975000000063
        },
        {
          "name": "D#5",
          "midi": 75,
          "time": 291.49941700000096,
          "velocity": 0.5039370078740157,
          "duration": 1.4999970000000076
        },
        {
          "name": "C#5",
          "midi": 73,
          "time": 292.99941400000097,
          "velocity": 0.5039370078740157,
          "duration": 0.24999950000000126
        },
        {
          "name": "C5",
          "midi": 72,
          "time": 293.24941350000097,
          "velocity": 0.5039370078740157,
          "duration": 0.4999990000000025
        },
        {
          "name": "C#5",
          "midi": 73,
          "time": 293.749412500001,
          "velocity": 0.5039370078740157,
          "duration": 0.24999950000000126
        },
        {
          "name": "C5",
          "midi": 72,
          "time": 293.999412000001,
          "velocity": 0.5039370078740157,
          "duration": 0.999998000000005
        },
        {
          "name": "A#4",
          "midi": 70,
          "time": 295.249409500001,
          "velocity": 0.5039370078740157,
          "duration": 0.24999950000000126
        },
        {
          "name": "A#4",
          "midi": 70,
          "time": 295.499409000001,
          "velocity": 0.5039370078740157,
          "duration": 0.24999950000000126
        },
        {
          "name": "A#4",
          "midi": 70,
          "time": 295.749408500001,
          "velocity": 0.5039370078740157,
          "duration": 0.24999950000000126
        },
        {
          "name": "F4",
          "midi": 65,
          "time": 295.999408000001,
          "velocity": 0.5039370078740157,
          "duration": 0.24999950000000126
        },
        {
          "name": "G#4",
          "midi": 68,
          "time": 296.249407500001,
          "velocity": 0.5039370078740157,
          "duration": 0.24999950000000126
        },
        {
          "name": "G#4",
          "midi": 68,
          "time": 296.499407000001,
          "velocity": 0.5039370078740157,
          "duration": 1.4999970000000076
        },
        {
          "name": "A#4",
          "midi": 70,
          "time": 299.249401500001,
          "velocity": 0.5039370078740157,
          "duration": 0.24999950000000126
        },
        {
          "name": "A#4",
          "midi": 70,
          "time": 299.499401000001,
          "velocity": 0.5039370078740157,
          "duration": 0.24999950000000126
        },
        {
          "name": "A#4",
          "midi": 70,
          "time": 299.749400500001,
          "velocity": 0.5039370078740157,
          "duration": 0.7499985000000038
        },
        {
          "name": "C5",
          "midi": 72,
          "time": 300.499399000001,
          "velocity": 0.5039370078740157,
          "duration": 2.999994000000015
        },
        {
          "name": "F4",
          "midi": 65,
          "time": 303.999392000001,
          "velocity": 0.5039370078740157,
          "duration": 0.4999990000000025
        },
        {
          "name": "F4",
          "midi": 65,
          "time": 304.499391000001,
          "velocity": 0.5039370078740157,
          "duration": 0.4999990000000025
        },
        {
          "name": "G#4",
          "midi": 68,
          "time": 304.99939000000103,
          "velocity": 0.5039370078740157,
          "duration": 0.4999990000000025
        },
        {
          "name": "G#4",
          "midi": 68,
          "time": 305.49938900000103,
          "velocity": 0.5039370078740157,
          "duration": 0.4999990000000025
        },
        {
          "name": "A#4",
          "midi": 70,
          "time": 305.99938800000103,
          "velocity": 0.5039370078740157,
          "duration": 0.4999990000000025
        },
        {
          "name": "A#4",
          "midi": 70,
          "time": 306.49938700000104,
          "velocity": 0.5039370078740157,
          "duration": 0.4999990000000025
        },
        {
          "name": "A#4",
          "midi": 70,
          "time": 306.99938600000104,
          "velocity": 0.5039370078740157,
          "duration": 2.4999950000000126
        },
        {
          "name": "G#4",
          "midi": 68,
          "time": 309.49938100000105,
          "velocity": 0.5039370078740157,
          "duration": 1.99999600000001
        },
        {
          "name": "F4",
          "midi": 65,
          "time": 311.49937700000106,
          "velocity": 0.5039370078740157,
          "duration": 0.4999990000000025
        },
        {
          "name": "F4",
          "midi": 65,
          "time": 311.99937600000106,
          "velocity": 0.5039370078740157,
          "duration": 0.4999990000000025
        },
        {
          "name": "F4",
          "midi": 65,
          "time": 312.49937500000107,
          "velocity": 0.5039370078740157,
          "duration": 0.4999990000000025
        },
        {
          "name": "G#4",
          "midi": 68,
          "time": 312.99937400000107,
          "velocity": 0.5039370078740157,
          "duration": 0.4999990000000025
        },
        {
          "name": "G#4",
          "midi": 68,
          "time": 313.49937300000107,
          "velocity": 0.5039370078740157,
          "duration": 0.4999990000000025
        },
        {
          "name": "A#4",
          "midi": 70,
          "time": 313.9993720000011,
          "velocity": 0.5039370078740157,
          "duration": 0.4999990000000025
        },
        {
          "name": "A#4",
          "midi": 70,
          "time": 314.4993710000011,
          "velocity": 0.5039370078740157,
          "duration": 0.4999990000000025
        },
        {
          "name": "A#4",
          "midi": 70,
          "time": 314.9993700000011,
          "velocity": 0.5039370078740157,
          "duration": 1.2499975000000063
        },
        {
          "name": "C5",
          "midi": 72,
          "time": 316.2493675000011,
          "velocity": 0.5039370078740157,
          "duration": 0.24999950000000126
        },
        {
          "name": "A#4",
          "midi": 70,
          "time": 316.4993670000011,
          "velocity": 0.5039370078740157,
          "duration": 0.999998000000005
        },
        {
          "name": "G#4",
          "midi": 68,
          "time": 317.4993650000011,
          "velocity": 0.5039370078740157,
          "duration": 1.2499975000000063
        },
        {
          "name": "G#4",
          "midi": 68,
          "time": 318.7493625000011,
          "velocity": 0.5039370078740157,
          "duration": 0.24999950000000126
        },
        {
          "name": "D#5",
          "midi": 75,
          "time": 318.9993620000011,
          "velocity": 0.5039370078740157,
          "duration": 0.4999990000000025
        },
        {
          "name": "A#4",
          "midi": 70,
          "time": 319.4993610000011,
          "velocity": 0.5039370078740157,
          "duration": 0.24999950000000126
        },
        {
          "name": "G#4",
          "midi": 68,
          "time": 319.7493605000011,
          "velocity": 0.5039370078740157,
          "duration": 0.999998000000005
        },
        {
          "name": "C5",
          "midi": 72,
          "time": 320.7493585000011,
          "velocity": 0.5039370078740157,
          "duration": 0.7499985000000038
        },
        {
          "name": "G#4",
          "midi": 68,
          "time": 321.4993570000011,
          "velocity": 0.5039370078740157,
          "duration": 0.999998000000005
        },
        {
          "name": "G#4",
          "midi": 68,
          "time": 322.4993550000011,
          "velocity": 0.5039370078740157,
          "duration": 0.4999990000000025
        },
        {
          "name": "G#4",
          "midi": 68,
          "time": 323.2493535000011,
          "velocity": 0.5039370078740157,
          "duration": 0.24999950000000126
        },
        {
          "name": "G#4",
          "midi": 68,
          "time": 323.4993530000011,
          "velocity": 0.5039370078740157,
          "duration": 0.24999950000000126
        },
        {
          "name": "G#4",
          "midi": 68,
          "time": 323.7493525000011,
          "velocity": 0.5039370078740157,
          "duration": 0.24999950000000126
        },
        {
          "name": "G#4",
          "midi": 68,
          "time": 323.9993520000011,
          "velocity": 0.5039370078740157,
          "duration": 0.4999990000000025
        },
        {
          "name": "G4",
          "midi": 67,
          "time": 324.4993510000011,
          "velocity": 0.5039370078740157,
          "duration": 0.4999990000000025
        },
        {
          "name": "F4",
          "midi": 65,
          "time": 324.99935000000113,
          "velocity": 0.5039370078740157,
          "duration": 0.4999990000000025
        },
        {
          "name": "D#4",
          "midi": 63,
          "time": 325.49934900000113,
          "velocity": 0.5039370078740157,
          "duration": 0.7499985000000038
        },
        {
          "name": "D#4",
          "midi": 63,
          "time": 326.24934750000114,
          "velocity": 0.5039370078740157,
          "duration": 0.24999950000000126
        },
        {
          "name": "D#4",
          "midi": 63,
          "time": 326.49934700000114,
          "velocity": 0.5039370078740157,
          "duration": 0.4999990000000025
        },
        {
          "name": "D#5",
          "midi": 75,
          "time": 326.99934600000114,
          "velocity": 0.5039370078740157,
          "duration": 0.4999990000000025
        },
        {
          "name": "G#4",
          "midi": 68,
          "time": 327.49934500000114,
          "velocity": 0.5039370078740157,
          "duration": 0.999998000000005
        },
        {
          "name": "C5",
          "midi": 72,
          "time": 328.49934300000115,
          "velocity": 0.5039370078740157,
          "duration": 0.999998000000005
        },
        {
          "name": "G#4",
          "midi": 68,
          "time": 329.49934100000115,
          "velocity": 0.5039370078740157,
          "duration": 0.999998000000005
        },
        {
          "name": "G#4",
          "midi": 68,
          "time": 330.49933900000116,
          "velocity": 0.5039370078740157,
          "duration": 1.4999970000000076
        },
        {
          "name": "G#4",
          "midi": 68,
          "time": 331.99933600000116,
          "velocity": 0.5039370078740157,
          "duration": 0.4999990000000025
        },
        {
          "name": "G4",
          "midi": 67,
          "time": 332.49933500000117,
          "velocity": 0.5039370078740157,
          "duration": 0.4999990000000025
        },
        {
          "name": "F4",
          "midi": 65,
          "time": 332.99933400000117,
          "velocity": 0.5039370078740157,
          "duration": 0.4999990000000025
        },
        {
          "name": "D#4",
          "midi": 63,
          "time": 333.4993330000012,
          "velocity": 0.5039370078740157,
          "duration": 0.999998000000005
        },
        {
          "name": "F4",
          "midi": 65,
          "time": 334.4993310000012,
          "velocity": 0.5039370078740157,
          "duration": 1.4999970000000076
        },
        {
          "name": "F4",
          "midi": 65,
          "time": 335.9993280000012,
          "velocity": 0.5039370078740157,
          "duration": 0.4999990000000025
        },
        {
          "name": "F4",
          "midi": 65,
          "time": 336.4993270000012,
          "velocity": 0.5039370078740157,
          "duration": 0.4999990000000025
        },
        {
          "name": "G#4",
          "midi": 68,
          "time": 336.9993260000012,
          "velocity": 0.5039370078740157,
          "duration": 0.4999990000000025
        },
        {
          "name": "G#4",
          "midi": 68,
          "time": 337.4993250000012,
          "velocity": 0.5039370078740157,
          "duration": 0.4999990000000025
        },
        {
          "name": "A#4",
          "midi": 70,
          "time": 337.9993240000012,
          "velocity": 0.5039370078740157,
          "duration": 0.999998000000005
        },
        {
          "name": "A#4",
          "midi": 70,
          "time": 338.9993220000012,
          "velocity": 0.5039370078740157,
          "duration": 0.7499985000000038
        },
        {
          "name": "C5",
          "midi": 72,
          "time": 339.7493205000012,
          "velocity": 0.5039370078740157,
          "duration": 0.24999950000000126
        },
        {
          "name": "A#4",
          "midi": 70,
          "time": 339.9993200000012,
          "velocity": 0.5039370078740157,
          "duration": 1.4999970000000076
        },
        {
          "name": "G#4",
          "midi": 68,
          "time": 341.4993170000012,
          "velocity": 0.5039370078740157,
          "duration": 1.99999600000001
        },
        {
          "name": "F4",
          "midi": 65,
          "time": 343.4993130000012,
          "velocity": 0.5039370078740157,
          "duration": 0.4999990000000025
        },
        {
          "name": "F4",
          "midi": 65,
          "time": 343.9993120000012,
          "velocity": 0.5039370078740157,
          "duration": 0.4999990000000025
        },
        {
          "name": "F4",
          "midi": 65,
          "time": 344.4993110000012,
          "velocity": 0.5039370078740157,
          "duration": 0.4999990000000025
        },
        {
          "name": "G#4",
          "midi": 68,
          "time": 344.99931000000123,
          "velocity": 0.5039370078740157,
          "duration": 0.4999990000000025
        },
        {
          "name": "G#4",
          "midi": 68,
          "time": 345.49930900000123,
          "velocity": 0.5039370078740157,
          "duration": 0.4999990000000025
        },
        {
          "name": "A#4",
          "midi": 70,
          "time": 345.99930800000124,
          "velocity": 0.5039370078740157,
          "duration": 0.4999990000000025
        },
        {
          "name": "A#4",
          "midi": 70,
          "time": 346.49930700000124,
          "velocity": 0.5039370078740157,
          "duration": 0.4999990000000025
        },
        {
          "name": "A#4",
          "midi": 70,
          "time": 346.99930600000124,
          "velocity": 0.5039370078740157,
          "duration": 1.2499975000000063
        },
        {
          "name": "C5",
          "midi": 72,
          "time": 348.24930350000125,
          "velocity": 0.5039370078740157,
          "duration": 0.24999950000000126
        },
        {
          "name": "A#4",
          "midi": 70,
          "time": 348.49930300000125,
          "velocity": 0.5039370078740157,
          "duration": 0.999998000000005
        },
        {
          "name": "G#4",
          "midi": 68,
          "time": 349.49930100000125,
          "velocity": 0.5039370078740157,
          "duration": 1.2499975000000063
        },
        {
          "name": "G#4",
          "midi": 68,
          "time": 350.74929850000126,
          "velocity": 0.5039370078740157,
          "duration": 0.24999950000000126
        },
        {
          "name": "D#5",
          "midi": 75,
          "time": 350.99929800000126,
          "velocity": 0.5039370078740157,
          "duration": 0.4999990000000025
        },
        {
          "name": "A#4",
          "midi": 70,
          "time": 351.49929700000126,
          "velocity": 0.5039370078740157,
          "duration": 0.24999950000000126
        },
        {
          "name": "G#4",
          "midi": 68,
          "time": 351.74929650000126,
          "velocity": 0.5039370078740157,
          "duration": 0.999998000000005
        },
        {
          "name": "C5",
          "midi": 72,
          "time": 352.74929450000127,
          "velocity": 0.5039370078740157,
          "duration": 0.7499985000000038
        },
        {
          "name": "G#4",
          "midi": 68,
          "time": 353.4992930000013,
          "velocity": 0.5039370078740157,
          "duration": 0.999998000000005
        },
        {
          "name": "G#4",
          "midi": 68,
          "time": 354.4992910000013,
          "velocity": 0.5039370078740157,
          "duration": 0.999998000000005
        },
        {
          "name": "G#4",
          "midi": 68,
          "time": 355.7492885000013,
          "velocity": 0.5039370078740157,
          "duration": 0.24999950000000126
        },
        {
          "name": "G#4",
          "midi": 68,
          "time": 355.9992880000013,
          "velocity": 0.5039370078740157,
          "duration": 0.4999990000000025
        },
        {
          "name": "G4",
          "midi": 67,
          "time": 356.4992870000013,
          "velocity": 0.5039370078740157,
          "duration": 0.4999990000000025
        },
        {
          "name": "F4",
          "midi": 65,
          "time": 356.9992860000013,
          "velocity": 0.5039370078740157,
          "duration": 0.4999990000000025
        },
        {
          "name": "D#4",
          "midi": 63,
          "time": 357.4992850000013,
          "velocity": 0.5039370078740157,
          "duration": 0.7499985000000038
        },
        {
          "name": "D#4",
          "midi": 63,
          "time": 358.2492835000013,
          "velocity": 0.5039370078740157,
          "duration": 0.24999950000000126
        },
        {
          "name": "D#4",
          "midi": 63,
          "time": 358.4992830000013,
          "velocity": 0.5039370078740157,
          "duration": 0.4999990000000025
        },
        {
          "name": "D#5",
          "midi": 75,
          "time": 358.9992820000013,
          "velocity": 0.5039370078740157,
          "duration": 0.4999990000000025
        },
        {
          "name": "G#4",
          "midi": 68,
          "time": 359.4992810000013,
          "velocity": 0.5039370078740157,
          "duration": 0.4999990000000025
        },
        {
          "name": "G#4",
          "midi": 68,
          "time": 359.9992800000013,
          "velocity": 0.5039370078740157,
          "duration": 0.4999990000000025
        },
        {
          "name": "C5",
          "midi": 72,
          "time": 360.4992790000013,
          "velocity": 0.5039370078740157,
          "duration": 0.999998000000005
        },
        {
          "name": "G#4",
          "midi": 68,
          "time": 361.4992770000013,
          "velocity": 0.5039370078740157,
          "duration": 0.999998000000005
        },
        {
          "name": "G#4",
          "midi": 68,
          "time": 362.4992750000013,
          "velocity": 0.5039370078740157,
          "duration": 0.999998000000005
        },
        {
          "name": "G#4",
          "midi": 68,
          "time": 363.4992730000013,
          "velocity": 0.5039370078740157,
          "duration": 0.24999950000000126
        },
        {
          "name": "G#4",
          "midi": 68,
          "time": 363.7492725000013,
          "velocity": 0.5039370078740157,
          "duration": 0.24999950000000126
        },
        {
          "name": "G#4",
          "midi": 68,
          "time": 363.9992720000013,
          "velocity": 0.5039370078740157,
          "duration": 0.4999990000000025
        },
        {
          "name": "G4",
          "midi": 67,
          "time": 364.49927100000133,
          "velocity": 0.5039370078740157,
          "duration": 0.4999990000000025
        },
        {
          "name": "F4",
          "midi": 65,
          "time": 364.99927000000133,
          "velocity": 0.5039370078740157,
          "duration": 0.4999990000000025
        },
        {
          "name": "D#4",
          "midi": 63,
          "time": 365.49926900000133,
          "velocity": 0.5039370078740157,
          "duration": 0.999998000000005
        },
        {
          "name": "F4",
          "midi": 65,
          "time": 366.49926700000134,
          "velocity": 0.5039370078740157,
          "duration": 0.4999990000000025
        },
        {
          "name": "F4",
          "midi": 65,
          "time": 366.99926600000134,
          "velocity": 0.5039370078740157,
          "duration": 0.4999990000000025
        },
        {
          "name": "A#3",
          "midi": 58,
          "time": 367.49926500000134,
          "velocity": 0.5039370078740157,
          "duration": 0.24999950000000126
        },
        {
          "name": "G#3",
          "midi": 56,
          "time": 367.74926450000135,
          "velocity": 0.5039370078740157,
          "duration": 1.7499965000000088
        }
      ],
      "controlChanges": {
        "7": [
          {
            "number": 7,
            "time": 0,
            "value": 0.7952755905511811
          }
        ],
        "10": [
          {
            "number": 10,
            "time": 0,
            "value": 0.5039370078740157
          }
        ],
        "32": [
          {
            "number": 32,
            "time": 0,
            "value": 0
          }
        ]
      }
    },
    {
      "startTime": 0,
      "duration": 379.99924000000107,
      "length": 744,
      "id": 2,
      "name": "Piano",
      "instrumentNumber": 0,
      "instrument": "acoustic grand piano",
      "instrumentFamily": "piano",
      "channelNumber": 1,
      "isPercussion": false,
      "notes": [
        {
          "name": "C3",
          "midi": 48,
          "time": 0,
          "velocity": 0.5039370078740157,
          "duration": 1.499997
        },
        {
          "name": "F3",
          "midi": 53,
          "time": 0,
          "velocity": 0.5039370078740157,
          "duration": 1.499997
        },
        {
          "name": "G#3",
          "midi": 56,
          "time": 0,
          "velocity": 0.5039370078740157,
          "duration": 1.499997
        },
        {
          "name": "F2",
          "midi": 41,
          "time": 0,
          "velocity": 0.5039370078740157,
          "duration": 1.499997
        },
        {
          "name": "C#3",
          "midi": 49,
          "time": 1.499997,
          "velocity": 0.5039370078740157,
          "duration": 2.4999949999999997
        },
        {
          "name": "F3",
          "midi": 53,
          "time": 1.499997,
          "velocity": 0.5039370078740157,
          "duration": 2.4999949999999997
        },
        {
          "name": "G#3",
          "midi": 56,
          "time": 1.499997,
          "velocity": 0.5039370078740157,
          "duration": 2.4999949999999997
        },
        {
          "name": "G#2",
          "midi": 44,
          "time": 1.499997,
          "velocity": 0.5039370078740157,
          "duration": 2.4999949999999997
        },
        {
          "name": "D#3",
          "midi": 51,
          "time": 3.9999919999999998,
          "velocity": 0.5039370078740157,
          "duration": 1.4999969999999996
        },
        {
          "name": "G3",
          "midi": 55,
          "time": 3.9999919999999998,
          "velocity": 0.5039370078740157,
          "duration": 1.4999969999999996
        },
        {
          "name": "A#3",
          "midi": 58,
          "time": 3.9999919999999998,
          "velocity": 0.5039370078740157,
          "duration": 1.4999969999999996
        },
        {
          "name": "D#2",
          "midi": 39,
          "time": 3.9999919999999998,
          "velocity": 0.5039370078740157,
          "duration": 1.4999969999999996
        },
        {
          "name": "C#3",
          "midi": 49,
          "time": 5.499988999999999,
          "velocity": 0.5039370078740157,
          "duration": 2.499995
        },
        {
          "name": "F3",
          "midi": 53,
          "time": 5.499988999999999,
          "velocity": 0.5039370078740157,
          "duration": 2.499995
        },
        {
          "name": "G#3",
          "midi": 56,
          "time": 5.499988999999999,
          "velocity": 0.5039370078740157,
          "duration": 2.499995
        },
        {
          "name": "C#2",
          "midi": 37,
          "time": 5.499988999999999,
          "velocity": 0.5039370078740157,
          "duration": 2.499995
        },
        {
          "name": "C3",
          "midi": 48,
          "time": 7.9999839999999995,
          "velocity": 0.5039370078740157,
          "duration": 1.4999970000000005
        },
        {
          "name": "F3",
          "midi": 53,
          "time": 7.9999839999999995,
          "velocity": 0.5039370078740157,
          "duration": 1.4999970000000005
        },
        {
          "name": "G#3",
          "midi": 56,
          "time": 7.9999839999999995,
          "velocity": 0.5039370078740157,
          "duration": 1.4999970000000005
        },
        {
          "name": "F2",
          "midi": 41,
          "time": 7.9999839999999995,
          "velocity": 0.5039370078740157,
          "duration": 1.4999970000000005
        },
        {
          "name": "C#3",
          "midi": 49,
          "time": 9.499981,
          "velocity": 0.5039370078740157,
          "duration": 2.499995
        },
        {
          "name": "F3",
          "midi": 53,
          "time": 9.499981,
          "velocity": 0.5039370078740157,
          "duration": 2.499995
        },
        {
          "name": "G#3",
          "midi": 56,
          "time": 9.499981,
          "velocity": 0.5039370078740157,
          "duration": 2.499995
        },
        {
          "name": "G#2",
          "midi": 44,
          "time": 9.499981,
          "velocity": 0.5039370078740157,
          "duration": 2.499995
        },
        {
          "name": "D#3",
          "midi": 51,
          "time": 11.999976,
          "velocity": 0.5039370078740157,
          "duration": 1.4999970000000005
        },
        {
          "name": "G3",
          "midi": 55,
          "time": 11.999976,
          "velocity": 0.5039370078740157,
          "duration": 1.4999970000000005
        },
        {
          "name": "A#3",
          "midi": 58,
          "time": 11.999976,
          "velocity": 0.5039370078740157,
          "duration": 1.4999970000000005
        },
        {
          "name": "D#2",
          "midi": 39,
          "time": 11.999976,
          "velocity": 0.5039370078740157,
          "duration": 1.4999970000000005
        },
        {
          "name": "C#3",
          "midi": 49,
          "time": 13.499973,
          "velocity": 0.5039370078740157,
          "duration": 2.499995
        },
        {
          "name": "F3",
          "midi": 53,
          "time": 13.499973,
          "velocity": 0.5039370078740157,
          "duration": 2.499995
        },
        {
          "name": "G#3",
          "midi": 56,
          "time": 13.499973,
          "velocity": 0.5039370078740157,
          "duration": 2.499995
        },
        {
          "name": "C#2",
          "midi": 37,
          "time": 13.499973,
          "velocity": 0.5039370078740157,
          "duration": 2.499995
        },
        {
          "name": "C3",
          "midi": 48,
          "time": 15.999968,
          "velocity": 0.5039370078740157,
          "duration": 1.4999969999999987
        },
        {
          "name": "F3",
          "midi": 53,
          "time": 15.999968,
          "velocity": 0.5039370078740157,
          "duration": 1.4999969999999987
        },
        {
          "name": "G#3",
          "midi": 56,
          "time": 15.999968,
          "velocity": 0.5039370078740157,
          "duration": 1.4999969999999987
        },
        {
          "name": "F2",
          "midi": 41,
          "time": 15.999968,
          "velocity": 0.5039370078740157,
          "duration": 1.4999969999999987
        },
        {
          "name": "C#3",
          "midi": 49,
          "time": 17.499965,
          "velocity": 0.5039370078740157,
          "duration": 2.4999949999999984
        },
        {
          "name": "F3",
          "midi": 53,
          "time": 17.499965,
          "velocity": 0.5039370078740157,
          "duration": 2.4999949999999984
        },
        {
          "name": "G#3",
          "midi": 56,
          "time": 17.499965,
          "velocity": 0.5039370078740157,
          "duration": 2.4999949999999984
        },
        {
          "name": "G#2",
          "midi": 44,
          "time": 17.499965,
          "velocity": 0.5039370078740157,
          "duration": 2.4999949999999984
        },
        {
          "name": "D#3",
          "midi": 51,
          "time": 19.999959999999998,
          "velocity": 0.5039370078740157,
          "duration": 1.4999970000000005
        },
        {
          "name": "G3",
          "midi": 55,
          "time": 19.999959999999998,
          "velocity": 0.5039370078740157,
          "duration": 1.4999970000000005
        },
        {
          "name": "A#3",
          "midi": 58,
          "time": 19.999959999999998,
          "velocity": 0.5039370078740157,
          "duration": 1.4999970000000005
        },
        {
          "name": "D#2",
          "midi": 39,
          "time": 19.999959999999998,
          "velocity": 0.5039370078740157,
          "duration": 1.4999970000000005
        },
        {
          "name": "C#3",
          "midi": 49,
          "time": 21.499957,
          "velocity": 0.5039370078740157,
          "duration": 2.4999949999999984
        },
        {
          "name": "F3",
          "midi": 53,
          "time": 21.499957,
          "velocity": 0.5039370078740157,
          "duration": 2.4999949999999984
        },
        {
          "name": "G#3",
          "midi": 56,
          "time": 21.499957,
          "velocity": 0.5039370078740157,
          "duration": 2.4999949999999984
        },
        {
          "name": "C#2",
          "midi": 37,
          "time": 21.499957,
          "velocity": 0.5039370078740157,
          "duration": 2.4999949999999984
        },
        {
          "name": "C3",
          "midi": 48,
          "time": 23.999951999999997,
          "velocity": 0.5039370078740157,
          "duration": 1.4999970000000005
        },
        {
          "name": "F3",
          "midi": 53,
          "time": 23.999951999999997,
          "velocity": 0.5039370078740157,
          "duration": 1.4999970000000005
        },
        {
          "name": "G#3",
          "midi": 56,
          "time": 23.999951999999997,
          "velocity": 0.5039370078740157,
          "duration": 1.4999970000000005
        },
        {
          "name": "F2",
          "midi": 41,
          "time": 23.999951999999997,
          "velocity": 0.5039370078740157,
          "duration": 1.4999970000000005
        },
        {
          "name": "C#3",
          "midi": 49,
          "time": 25.499948999999997,
          "velocity": 0.5039370078740157,
          "duration": 2.4999949999999984
        },
        {
          "name": "F3",
          "midi": 53,
          "time": 25.499948999999997,
          "velocity": 0.5039370078740157,
          "duration": 2.4999949999999984
        },
        {
          "name": "G#3",
          "midi": 56,
          "time": 25.499948999999997,
          "velocity": 0.5039370078740157,
          "duration": 2.4999949999999984
        },
        {
          "name": "G#2",
          "midi": 44,
          "time": 25.499948999999997,
          "velocity": 0.5039370078740157,
          "duration": 2.4999949999999984
        },
        {
          "name": "D#3",
          "midi": 51,
          "time": 27.999943999999996,
          "velocity": 0.5039370078740157,
          "duration": 1.4999970000000005
        },
        {
          "name": "G3",
          "midi": 55,
          "time": 27.999943999999996,
          "velocity": 0.5039370078740157,
          "duration": 1.4999970000000005
        },
        {
          "name": "A#3",
          "midi": 58,
          "time": 27.999943999999996,
          "velocity": 0.5039370078740157,
          "duration": 1.4999970000000005
        },
        {
          "name": "D#2",
          "midi": 39,
          "time": 27.999943999999996,
          "velocity": 0.5039370078740157,
          "duration": 1.4999970000000005
        },
        {
          "name": "C#3",
          "midi": 49,
          "time": 29.499940999999996,
          "velocity": 0.5039370078740157,
          "duration": 2.4999949999999984
        },
        {
          "name": "F3",
          "midi": 53,
          "time": 29.499940999999996,
          "velocity": 0.5039370078740157,
          "duration": 2.4999949999999984
        },
        {
          "name": "G#3",
          "midi": 56,
          "time": 29.499940999999996,
          "velocity": 0.5039370078740157,
          "duration": 2.4999949999999984
        },
        {
          "name": "C#2",
          "midi": 37,
          "time": 29.499940999999996,
          "velocity": 0.5039370078740157,
          "duration": 2.4999949999999984
        },
        {
          "name": "C3",
          "midi": 48,
          "time": 31.999935999999995,
          "velocity": 0.5039370078740157,
          "duration": 1.499996999999997
        },
        {
          "name": "F3",
          "midi": 53,
          "time": 31.999935999999995,
          "velocity": 0.5039370078740157,
          "duration": 1.499996999999997
        },
        {
          "name": "G#3",
          "midi": 56,
          "time": 31.999935999999995,
          "velocity": 0.5039370078740157,
          "duration": 1.499996999999997
        },
        {
          "name": "F2",
          "midi": 41,
          "time": 31.999935999999995,
          "velocity": 0.5039370078740157,
          "duration": 1.499996999999997
        },
        {
          "name": "C#3",
          "midi": 49,
          "time": 33.49993299999999,
          "velocity": 0.5039370078740157,
          "duration": 2.4999949999999984
        },
        {
          "name": "F3",
          "midi": 53,
          "time": 33.49993299999999,
          "velocity": 0.5039370078740157,
          "duration": 2.4999949999999984
        },
        {
          "name": "G#3",
          "midi": 56,
          "time": 33.49993299999999,
          "velocity": 0.5039370078740157,
          "duration": 2.4999949999999984
        },
        {
          "name": "G#2",
          "midi": 44,
          "time": 33.49993299999999,
          "velocity": 0.5039370078740157,
          "duration": 2.4999949999999984
        },
        {
          "name": "D#3",
          "midi": 51,
          "time": 35.99992799999999,
          "velocity": 0.5039370078740157,
          "duration": 1.4999970000000005
        },
        {
          "name": "G3",
          "midi": 55,
          "time": 35.99992799999999,
          "velocity": 0.5039370078740157,
          "duration": 1.4999970000000005
        },
        {
          "name": "A#3",
          "midi": 58,
          "time": 35.99992799999999,
          "velocity": 0.5039370078740157,
          "duration": 1.4999970000000005
        },
        {
          "name": "D#2",
          "midi": 39,
          "time": 35.99992799999999,
          "velocity": 0.5039370078740157,
          "duration": 1.4999970000000005
        },
        {
          "name": "C#3",
          "midi": 49,
          "time": 37.49992499999999,
          "velocity": 0.5039370078740157,
          "duration": 2.4999949999999984
        },
        {
          "name": "F3",
          "midi": 53,
          "time": 37.49992499999999,
          "velocity": 0.5039370078740157,
          "duration": 2.4999949999999984
        },
        {
          "name": "G#3",
          "midi": 56,
          "time": 37.49992499999999,
          "velocity": 0.5039370078740157,
          "duration": 2.4999949999999984
        },
        {
          "name": "C#2",
          "midi": 37,
          "time": 37.49992499999999,
          "velocity": 0.5039370078740157,
          "duration": 2.4999949999999984
        },
        {
          "name": "C3",
          "midi": 48,
          "time": 39.99991999999999,
          "velocity": 0.5039370078740157,
          "duration": 1.4999970000000005
        },
        {
          "name": "F3",
          "midi": 53,
          "time": 39.99991999999999,
          "velocity": 0.5039370078740157,
          "duration": 1.4999970000000005
        },
        {
          "name": "G#3",
          "midi": 56,
          "time": 39.99991999999999,
          "velocity": 0.5039370078740157,
          "duration": 1.4999970000000005
        },
        {
          "name": "F2",
          "midi": 41,
          "time": 39.99991999999999,
          "velocity": 0.5039370078740157,
          "duration": 1.4999970000000005
        },
        {
          "name": "C#3",
          "midi": 49,
          "time": 41.49991699999999,
          "velocity": 0.5039370078740157,
          "duration": 2.4999949999999984
        },
        {
          "name": "F3",
          "midi": 53,
          "time": 41.49991699999999,
          "velocity": 0.5039370078740157,
          "duration": 2.4999949999999984
        },
        {
          "name": "G#3",
          "midi": 56,
          "time": 41.49991699999999,
          "velocity": 0.5039370078740157,
          "duration": 2.4999949999999984
        },
        {
          "name": "G#2",
          "midi": 44,
          "time": 41.49991699999999,
          "velocity": 0.5039370078740157,
          "duration": 2.4999949999999984
        },
        {
          "name": "D#3",
          "midi": 51,
          "time": 43.99991199999999,
          "velocity": 0.5039370078740157,
          "duration": 1.4999970000000005
        },
        {
          "name": "G3",
          "midi": 55,
          "time": 43.99991199999999,
          "velocity": 0.5039370078740157,
          "duration": 1.4999970000000005
        },
        {
          "name": "A#3",
          "midi": 58,
          "time": 43.99991199999999,
          "velocity": 0.5039370078740157,
          "duration": 1.4999970000000005
        },
        {
          "name": "D#2",
          "midi": 39,
          "time": 43.99991199999999,
          "velocity": 0.5039370078740157,
          "duration": 1.4999970000000005
        },
        {
          "name": "C#3",
          "midi": 49,
          "time": 45.49990899999999,
          "velocity": 0.5039370078740157,
          "duration": 2.4999949999999984
        },
        {
          "name": "F3",
          "midi": 53,
          "time": 45.49990899999999,
          "velocity": 0.5039370078740157,
          "duration": 2.4999949999999984
        },
        {
          "name": "G#3",
          "midi": 56,
          "time": 45.49990899999999,
          "velocity": 0.5039370078740157,
          "duration": 2.4999949999999984
        },
        {
          "name": "C#2",
          "midi": 37,
          "time": 45.49990899999999,
          "velocity": 0.5039370078740157,
          "duration": 2.4999949999999984
        },
        {
          "name": "C3",
          "midi": 48,
          "time": 47.99990399999999,
          "velocity": 0.5039370078740157,
          "duration": 1.4999970000000005
        },
        {
          "name": "F3",
          "midi": 53,
          "time": 47.99990399999999,
          "velocity": 0.5039370078740157,
          "duration": 1.4999970000000005
        },
        {
          "name": "G#3",
          "midi": 56,
          "time": 47.99990399999999,
          "velocity": 0.5039370078740157,
          "duration": 1.4999970000000005
        },
        {
          "name": "F2",
          "midi": 41,
          "time": 47.99990399999999,
          "velocity": 0.5039370078740157,
          "duration": 1.4999970000000005
        },
        {
          "name": "C#3",
          "midi": 49,
          "time": 49.49990099999999,
          "velocity": 0.5039370078740157,
          "duration": 2.4999949999999984
        },
        {
          "name": "F3",
          "midi": 53,
          "time": 49.49990099999999,
          "velocity": 0.5039370078740157,
          "duration": 2.4999949999999984
        },
        {
          "name": "G#3",
          "midi": 56,
          "time": 49.49990099999999,
          "velocity": 0.5039370078740157,
          "duration": 2.4999949999999984
        },
        {
          "name": "G#2",
          "midi": 44,
          "time": 49.49990099999999,
          "velocity": 0.5039370078740157,
          "duration": 2.4999949999999984
        },
        {
          "name": "D#3",
          "midi": 51,
          "time": 51.999895999999985,
          "velocity": 0.5039370078740157,
          "duration": 1.4999970000000005
        },
        {
          "name": "G3",
          "midi": 55,
          "time": 51.999895999999985,
          "velocity": 0.5039370078740157,
          "duration": 1.4999970000000005
        },
        {
          "name": "A#3",
          "midi": 58,
          "time": 51.999895999999985,
          "velocity": 0.5039370078740157,
          "duration": 1.4999970000000005
        },
        {
          "name": "D#2",
          "midi": 39,
          "time": 51.999895999999985,
          "velocity": 0.5039370078740157,
          "duration": 1.4999970000000005
        },
        {
          "name": "C#3",
          "midi": 49,
          "time": 53.499892999999986,
          "velocity": 0.5039370078740157,
          "duration": 2.4999949999999984
        },
        {
          "name": "F3",
          "midi": 53,
          "time": 53.499892999999986,
          "velocity": 0.5039370078740157,
          "duration": 2.4999949999999984
        },
        {
          "name": "G#3",
          "midi": 56,
          "time": 53.499892999999986,
          "velocity": 0.5039370078740157,
          "duration": 2.4999949999999984
        },
        {
          "name": "C#2",
          "midi": 37,
          "time": 53.499892999999986,
          "velocity": 0.5039370078740157,
          "duration": 2.4999949999999984
        },
        {
          "name": "C3",
          "midi": 48,
          "time": 55.999887999999984,
          "velocity": 0.5039370078740157,
          "duration": 1.4999970000000005
        },
        {
          "name": "F3",
          "midi": 53,
          "time": 55.999887999999984,
          "velocity": 0.5039370078740157,
          "duration": 1.4999970000000005
        },
        {
          "name": "G#3",
          "midi": 56,
          "time": 55.999887999999984,
          "velocity": 0.5039370078740157,
          "duration": 1.4999970000000005
        },
        {
          "name": "F2",
          "midi": 41,
          "time": 55.999887999999984,
          "velocity": 0.5039370078740157,
          "duration": 1.4999970000000005
        },
        {
          "name": "C#3",
          "midi": 49,
          "time": 57.499884999999985,
          "velocity": 0.5039370078740157,
          "duration": 2.4999949999999984
        },
        {
          "name": "F3",
          "midi": 53,
          "time": 57.499884999999985,
          "velocity": 0.5039370078740157,
          "duration": 2.4999949999999984
        },
        {
          "name": "G#3",
          "midi": 56,
          "time": 57.499884999999985,
          "velocity": 0.5039370078740157,
          "duration": 2.4999949999999984
        },
        {
          "name": "G#2",
          "midi": 44,
          "time": 57.499884999999985,
          "velocity": 0.5039370078740157,
          "duration": 2.4999949999999984
        },
        {
          "name": "D#3",
          "midi": 51,
          "time": 59.99987999999998,
          "velocity": 0.5039370078740157,
          "duration": 1.4999970000000005
        },
        {
          "name": "G3",
          "midi": 55,
          "time": 59.99987999999998,
          "velocity": 0.5039370078740157,
          "duration": 1.4999970000000005
        },
        {
          "name": "A#3",
          "midi": 58,
          "time": 59.99987999999998,
          "velocity": 0.5039370078740157,
          "duration": 1.4999970000000005
        },
        {
          "name": "D#2",
          "midi": 39,
          "time": 59.99987999999998,
          "velocity": 0.5039370078740157,
          "duration": 1.4999970000000005
        },
        {
          "name": "C#3",
          "midi": 49,
          "time": 61.499876999999984,
          "velocity": 0.5039370078740157,
          "duration": 2.4999949999999984
        },
        {
          "name": "F3",
          "midi": 53,
          "time": 61.499876999999984,
          "velocity": 0.5039370078740157,
          "duration": 2.4999949999999984
        },
        {
          "name": "G#3",
          "midi": 56,
          "time": 61.499876999999984,
          "velocity": 0.5039370078740157,
          "duration": 2.4999949999999984
        },
        {
          "name": "C#2",
          "midi": 37,
          "time": 61.499876999999984,
          "velocity": 0.5039370078740157,
          "duration": 2.4999949999999984
        },
        {
          "name": "C3",
          "midi": 48,
          "time": 63.99987199999998,
          "velocity": 0.5039370078740157,
          "duration": 1.4999969999999934
        },
        {
          "name": "F3",
          "midi": 53,
          "time": 63.99987199999998,
          "velocity": 0.5039370078740157,
          "duration": 1.4999969999999934
        },
        {
          "name": "G#3",
          "midi": 56,
          "time": 63.99987199999998,
          "velocity": 0.5039370078740157,
          "duration": 1.4999969999999934
        },
        {
          "name": "F2",
          "midi": 41,
          "time": 63.99987199999998,
          "velocity": 0.5039370078740157,
          "duration": 1.4999969999999934
        },
        {
          "name": "C#3",
          "midi": 49,
          "time": 65.49986899999998,
          "velocity": 0.5039370078740157,
          "duration": 2.4999949999999984
        },
        {
          "name": "F3",
          "midi": 53,
          "time": 65.49986899999998,
          "velocity": 0.5039370078740157,
          "duration": 2.4999949999999984
        },
        {
          "name": "G#3",
          "midi": 56,
          "time": 65.49986899999998,
          "velocity": 0.5039370078740157,
          "duration": 2.4999949999999984
        },
        {
          "name": "G#2",
          "midi": 44,
          "time": 65.49986899999998,
          "velocity": 0.5039370078740157,
          "duration": 2.4999949999999984
        },
        {
          "name": "D#3",
          "midi": 51,
          "time": 67.99986399999997,
          "velocity": 0.5039370078740157,
          "duration": 1.4999969999999934
        },
        {
          "name": "G3",
          "midi": 55,
          "time": 67.99986399999997,
          "velocity": 0.5039370078740157,
          "duration": 1.4999969999999934
        },
        {
          "name": "A#3",
          "midi": 58,
          "time": 67.99986399999997,
          "velocity": 0.5039370078740157,
          "duration": 1.4999969999999934
        },
        {
          "name": "D#2",
          "midi": 39,
          "time": 67.99986399999997,
          "velocity": 0.5039370078740157,
          "duration": 1.4999969999999934
        },
        {
          "name": "C#3",
          "midi": 49,
          "time": 69.49986099999997,
          "velocity": 0.5039370078740157,
          "duration": 2.4999949999999984
        },
        {
          "name": "F3",
          "midi": 53,
          "time": 69.49986099999997,
          "velocity": 0.5039370078740157,
          "duration": 2.4999949999999984
        },
        {
          "name": "G#3",
          "midi": 56,
          "time": 69.49986099999997,
          "velocity": 0.5039370078740157,
          "duration": 2.4999949999999984
        },
        {
          "name": "C#2",
          "midi": 37,
          "time": 69.49986099999997,
          "velocity": 0.5039370078740157,
          "duration": 2.4999949999999984
        },
        {
          "name": "F3",
          "midi": 53,
          "time": 71.99985599999997,
          "velocity": 0.5039370078740157,
          "duration": 1.4999969999999934
        },
        {
          "name": "G#3",
          "midi": 56,
          "time": 71.99985599999997,
          "velocity": 0.5039370078740157,
          "duration": 1.4999969999999934
        },
        {
          "name": "C4",
          "midi": 60,
          "time": 71.99985599999997,
          "velocity": 0.5039370078740157,
          "duration": 1.4999969999999934
        },
        {
          "name": "F2",
          "midi": 41,
          "time": 71.99985599999997,
          "velocity": 0.5039370078740157,
          "duration": 1.4999969999999934
        },
        {
          "name": "D#3",
          "midi": 51,
          "time": 73.49985299999996,
          "velocity": 0.5039370078740157,
          "duration": 2.4999949999999984
        },
        {
          "name": "G3",
          "midi": 55,
          "time": 73.49985299999996,
          "velocity": 0.5039370078740157,
          "duration": 2.4999949999999984
        },
        {
          "name": "A#3",
          "midi": 58,
          "time": 73.49985299999996,
          "velocity": 0.5039370078740157,
          "duration": 2.4999949999999984
        },
        {
          "name": "D#2",
          "midi": 39,
          "time": 73.49985299999996,
          "velocity": 0.5039370078740157,
          "duration": 2.4999949999999984
        },
        {
          "name": "D#3",
          "midi": 51,
          "time": 75.99984799999996,
          "velocity": 0.5039370078740157,
          "duration": 1.4999969999999934
        },
        {
          "name": "G3",
          "midi": 55,
          "time": 75.99984799999996,
          "velocity": 0.5039370078740157,
          "duration": 1.4999969999999934
        },
        {
          "name": "C4",
          "midi": 60,
          "time": 75.99984799999996,
          "velocity": 0.5039370078740157,
          "duration": 1.4999969999999934
        },
        {
          "name": "C2",
          "midi": 36,
          "time": 75.99984799999996,
          "velocity": 0.5039370078740157,
          "duration": 1.4999969999999934
        },
        {
          "name": "F3",
          "midi": 53,
          "time": 77.49984499999995,
          "velocity": 0.5039370078740157,
          "duration": 2.4999949999999984
        },
        {
          "name": "G#3",
          "midi": 56,
          "time": 77.49984499999995,
          "velocity": 0.5039370078740157,
          "duration": 2.4999949999999984
        },
        {
          "name": "C#4",
          "midi": 61,
          "time": 77.49984499999995,
          "velocity": 0.5039370078740157,
          "duration": 2.4999949999999984
        },
        {
          "name": "C#2",
          "midi": 37,
          "time": 77.49984499999995,
          "velocity": 0.5039370078740157,
          "duration": 2.4999949999999984
        },
        {
          "name": "F3",
          "midi": 53,
          "time": 79.99983999999995,
          "velocity": 0.5039370078740157,
          "duration": 1.4999969999999934
        },
        {
          "name": "G#3",
          "midi": 56,
          "time": 79.99983999999995,
          "velocity": 0.5039370078740157,
          "duration": 1.4999969999999934
        },
        {
          "name": "C4",
          "midi": 60,
          "time": 79.99983999999995,
          "velocity": 0.5039370078740157,
          "duration": 1.4999969999999934
        },
        {
          "name": "F2",
          "midi": 41,
          "time": 79.99983999999995,
          "velocity": 0.5039370078740157,
          "duration": 1.4999969999999934
        },
        {
          "name": "D#3",
          "midi": 51,
          "time": 81.49983699999994,
          "velocity": 0.5039370078740157,
          "duration": 1.4999969999999934
        },
        {
          "name": "G3",
          "midi": 55,
          "time": 81.49983699999994,
          "velocity": 0.5039370078740157,
          "duration": 1.4999969999999934
        },
        {
          "name": "A#3",
          "midi": 58,
          "time": 81.49983699999994,
          "velocity": 0.5039370078740157,
          "duration": 1.4999969999999934
        },
        {
          "name": "D#2",
          "midi": 39,
          "time": 81.49983699999994,
          "velocity": 0.5039370078740157,
          "duration": 1.4999969999999934
        },
        {
          "name": "C#3",
          "midi": 49,
          "time": 82.99983399999994,
          "velocity": 0.5039370078740157,
          "duration": 4.999989999999997
        },
        {
          "name": "F3",
          "midi": 53,
          "time": 82.99983399999994,
          "velocity": 0.5039370078740157,
          "duration": 4.999989999999997
        },
        {
          "name": "G#3",
          "midi": 56,
          "time": 82.99983399999994,
          "velocity": 0.5039370078740157,
          "duration": 4.999989999999997
        },
        {
          "name": "C#2",
          "midi": 37,
          "time": 82.99983399999994,
          "velocity": 0.5039370078740157,
          "duration": 4.999989999999997
        },
        {
          "name": "C3",
          "midi": 48,
          "time": 87.99982399999993,
          "velocity": 0.5039370078740157,
          "duration": 1.4999969999999934
        },
        {
          "name": "F3",
          "midi": 53,
          "time": 87.99982399999993,
          "velocity": 0.5039370078740157,
          "duration": 1.4999969999999934
        },
        {
          "name": "G#3",
          "midi": 56,
          "time": 87.99982399999993,
          "velocity": 0.5039370078740157,
          "duration": 1.4999969999999934
        },
        {
          "name": "F2",
          "midi": 41,
          "time": 87.99982399999993,
          "velocity": 0.5039370078740157,
          "duration": 1.4999969999999934
        },
        {
          "name": "F3",
          "midi": 53,
          "time": 89.49982099999993,
          "velocity": 0.5039370078740157,
          "duration": 2.4999949999999984
        },
        {
          "name": "G#3",
          "midi": 56,
          "time": 89.49982099999993,
          "velocity": 0.5039370078740157,
          "duration": 2.4999949999999984
        },
        {
          "name": "C#4",
          "midi": 61,
          "time": 89.49982099999993,
          "velocity": 0.5039370078740157,
          "duration": 2.4999949999999984
        },
        {
          "name": "C#2",
          "midi": 37,
          "time": 89.49982099999993,
          "velocity": 0.5039370078740157,
          "duration": 2.4999949999999984
        },
        {
          "name": "D#3",
          "midi": 51,
          "time": 91.99981599999992,
          "velocity": 0.5039370078740157,
          "duration": 1.4999969999999934
        },
        {
          "name": "G#3",
          "midi": 56,
          "time": 91.99981599999992,
          "velocity": 0.5039370078740157,
          "duration": 1.4999969999999934
        },
        {
          "name": "C4",
          "midi": 60,
          "time": 91.99981599999992,
          "velocity": 0.5039370078740157,
          "duration": 1.4999969999999934
        },
        {
          "name": "G#2",
          "midi": 44,
          "time": 91.99981599999992,
          "velocity": 0.5039370078740157,
          "duration": 1.4999969999999934
        },
        {
          "name": "D#3",
          "midi": 51,
          "time": 93.49981299999992,
          "velocity": 0.5039370078740157,
          "duration": 2.4999949999999984
        },
        {
          "name": "G3",
          "midi": 55,
          "time": 93.49981299999992,
          "velocity": 0.5039370078740157,
          "duration": 2.4999949999999984
        },
        {
          "name": "A#3",
          "midi": 58,
          "time": 93.49981299999992,
          "velocity": 0.5039370078740157,
          "duration": 2.4999949999999984
        },
        {
          "name": "D#2",
          "midi": 39,
          "time": 93.49981299999992,
          "velocity": 0.5039370078740157,
          "duration": 2.4999949999999984
        },
        {
          "name": "C3",
          "midi": 48,
          "time": 95.99980799999992,
          "velocity": 0.5039370078740157,
          "duration": 1.4999969999999934
        },
        {
          "name": "F3",
          "midi": 53,
          "time": 95.99980799999992,
          "velocity": 0.5039370078740157,
          "duration": 1.4999969999999934
        },
        {
          "name": "G#3",
          "midi": 56,
          "time": 95.99980799999992,
          "velocity": 0.5039370078740157,
          "duration": 1.4999969999999934
        },
        {
          "name": "F2",
          "midi": 41,
          "time": 95.99980799999992,
          "velocity": 0.5039370078740157,
          "duration": 1.4999969999999934
        },
        {
          "name": "F3",
          "midi": 53,
          "time": 97.49980499999991,
          "velocity": 0.5039370078740157,
          "duration": 2.4999949999999984
        },
        {
          "name": "G#3",
          "midi": 56,
          "time": 97.49980499999991,
          "velocity": 0.5039370078740157,
          "duration": 2.4999949999999984
        },
        {
          "name": "C#4",
          "midi": 61,
          "time": 97.49980499999991,
          "velocity": 0.5039370078740157,
          "duration": 2.4999949999999984
        },
        {
          "name": "C#2",
          "midi": 37,
          "time": 97.49980499999991,
          "velocity": 0.5039370078740157,
          "duration": 2.4999949999999984
        },
        {
          "name": "D#3",
          "midi": 51,
          "time": 99.99979999999991,
          "velocity": 0.5039370078740157,
          "duration": 1.4999969999999934
        },
        {
          "name": "G#3",
          "midi": 56,
          "time": 99.99979999999991,
          "velocity": 0.5039370078740157,
          "duration": 1.4999969999999934
        },
        {
          "name": "C4",
          "midi": 60,
          "time": 99.99979999999991,
          "velocity": 0.5039370078740157,
          "duration": 1.4999969999999934
        },
        {
          "name": "G#2",
          "midi": 44,
          "time": 99.99979999999991,
          "velocity": 0.5039370078740157,
          "duration": 1.4999969999999934
        },
        {
          "name": "D#3",
          "midi": 51,
          "time": 101.4997969999999,
          "velocity": 0.5039370078740157,
          "duration": 2.4999949999999984
        },
        {
          "name": "G3",
          "midi": 55,
          "time": 101.4997969999999,
          "velocity": 0.5039370078740157,
          "duration": 2.4999949999999984
        },
        {
          "name": "A#3",
          "midi": 58,
          "time": 101.4997969999999,
          "velocity": 0.5039370078740157,
          "duration": 2.4999949999999984
        },
        {
          "name": "D#2",
          "midi": 39,
          "time": 101.4997969999999,
          "velocity": 0.5039370078740157,
          "duration": 2.4999949999999984
        },
        {
          "name": "C3",
          "midi": 48,
          "time": 103.9997919999999,
          "velocity": 0.5039370078740157,
          "duration": 1.4999969999999934
        },
        {
          "name": "F3",
          "midi": 53,
          "time": 103.9997919999999,
          "velocity": 0.5039370078740157,
          "duration": 1.4999969999999934
        },
        {
          "name": "G#3",
          "midi": 56,
          "time": 103.9997919999999,
          "velocity": 0.5039370078740157,
          "duration": 1.4999969999999934
        },
        {
          "name": "F2",
          "midi": 41,
          "time": 103.9997919999999,
          "velocity": 0.5039370078740157,
          "duration": 1.4999969999999934
        },
        {
          "name": "F3",
          "midi": 53,
          "time": 105.4997889999999,
          "velocity": 0.5039370078740157,
          "duration": 2.4999949999999984
        },
        {
          "name": "G#3",
          "midi": 56,
          "time": 105.4997889999999,
          "velocity": 0.5039370078740157,
          "duration": 2.4999949999999984
        },
        {
          "name": "C#4",
          "midi": 61,
          "time": 105.4997889999999,
          "velocity": 0.5039370078740157,
          "duration": 2.4999949999999984
        },
        {
          "name": "C#2",
          "midi": 37,
          "time": 105.4997889999999,
          "velocity": 0.5039370078740157,
          "duration": 2.4999949999999984
        },
        {
          "name": "D#3",
          "midi": 51,
          "time": 107.99978399999989,
          "velocity": 0.5039370078740157,
          "duration": 1.4999969999999934
        },
        {
          "name": "G#3",
          "midi": 56,
          "time": 107.99978399999989,
          "velocity": 0.5039370078740157,
          "duration": 1.4999969999999934
        },
        {
          "name": "C4",
          "midi": 60,
          "time": 107.99978399999989,
          "velocity": 0.5039370078740157,
          "duration": 1.4999969999999934
        },
        {
          "name": "G#2",
          "midi": 44,
          "time": 107.99978399999989,
          "velocity": 0.5039370078740157,
          "duration": 1.4999969999999934
        },
        {
          "name": "D#3",
          "midi": 51,
          "time": 109.49978099999989,
          "velocity": 0.5039370078740157,
          "duration": 2.4999949999999984
        },
        {
          "name": "G3",
          "midi": 55,
          "time": 109.49978099999989,
          "velocity": 0.5039370078740157,
          "duration": 2.4999949999999984
        },
        {
          "name": "A#3",
          "midi": 58,
          "time": 109.49978099999989,
          "velocity": 0.5039370078740157,
          "duration": 2.4999949999999984
        },
        {
          "name": "D#2",
          "midi": 39,
          "time": 109.49978099999989,
          "velocity": 0.5039370078740157,
          "duration": 2.4999949999999984
        },
        {
          "name": "C3",
          "midi": 48,
          "time": 111.99977599999988,
          "velocity": 0.5039370078740157,
          "duration": 1.4999969999999934
        },
        {
          "name": "F3",
          "midi": 53,
          "time": 111.99977599999988,
          "velocity": 0.5039370078740157,
          "duration": 1.4999969999999934
        },
        {
          "name": "G#3",
          "midi": 56,
          "time": 111.99977599999988,
          "velocity": 0.5039370078740157,
          "duration": 1.4999969999999934
        },
        {
          "name": "F2",
          "midi": 41,
          "time": 111.99977599999988,
          "velocity": 0.5039370078740157,
          "duration": 1.4999969999999934
        },
        {
          "name": "F3",
          "midi": 53,
          "time": 113.49977299999988,
          "velocity": 0.5039370078740157,
          "duration": 2.4999949999999984
        },
        {
          "name": "G#3",
          "midi": 56,
          "time": 113.49977299999988,
          "velocity": 0.5039370078740157,
          "duration": 2.4999949999999984
        },
        {
          "name": "C#4",
          "midi": 61,
          "time": 113.49977299999988,
          "velocity": 0.5039370078740157,
          "duration": 2.4999949999999984
        },
        {
          "name": "C#2",
          "midi": 37,
          "time": 113.49977299999988,
          "velocity": 0.5039370078740157,
          "duration": 2.4999949999999984
        },
        {
          "name": "D#3",
          "midi": 51,
          "time": 115.99976799999988,
          "velocity": 0.5039370078740157,
          "duration": 1.4999969999999934
        },
        {
          "name": "G#3",
          "midi": 56,
          "time": 115.99976799999988,
          "velocity": 0.5039370078740157,
          "duration": 1.4999969999999934
        },
        {
          "name": "C4",
          "midi": 60,
          "time": 115.99976799999988,
          "velocity": 0.5039370078740157,
          "duration": 1.4999969999999934
        },
        {
          "name": "G#2",
          "midi": 44,
          "time": 115.99976799999988,
          "velocity": 0.5039370078740157,
          "duration": 1.4999969999999934
        },
        {
          "name": "D#3",
          "midi": 51,
          "time": 117.49976499999987,
          "velocity": 0.5039370078740157,
          "duration": 2.4999949999999984
        },
        {
          "name": "G3",
          "midi": 55,
          "time": 117.49976499999987,
          "velocity": 0.5039370078740157,
          "duration": 2.4999949999999984
        },
        {
          "name": "A#3",
          "midi": 58,
          "time": 117.49976499999987,
          "velocity": 0.5039370078740157,
          "duration": 2.4999949999999984
        },
        {
          "name": "D#2",
          "midi": 39,
          "time": 117.49976499999987,
          "velocity": 0.5039370078740157,
          "duration": 2.4999949999999984
        },
        {
          "name": "C3",
          "midi": 48,
          "time": 119.99975999999987,
          "velocity": 0.5039370078740157,
          "duration": 1.4999969999999934
        },
        {
          "name": "F3",
          "midi": 53,
          "time": 119.99975999999987,
          "velocity": 0.5039370078740157,
          "duration": 1.4999969999999934
        },
        {
          "name": "G#3",
          "midi": 56,
          "time": 119.99975999999987,
          "velocity": 0.5039370078740157,
          "duration": 1.4999969999999934
        },
        {
          "name": "F2",
          "midi": 41,
          "time": 119.99975999999987,
          "velocity": 0.5039370078740157,
          "duration": 1.4999969999999934
        },
        {
          "name": "F3",
          "midi": 53,
          "time": 121.49975699999986,
          "velocity": 0.5039370078740157,
          "duration": 2.4999949999999984
        },
        {
          "name": "G#3",
          "midi": 56,
          "time": 121.49975699999986,
          "velocity": 0.5039370078740157,
          "duration": 2.4999949999999984
        },
        {
          "name": "C#4",
          "midi": 61,
          "time": 121.49975699999986,
          "velocity": 0.5039370078740157,
          "duration": 2.4999949999999984
        },
        {
          "name": "C#2",
          "midi": 37,
          "time": 121.49975699999986,
          "velocity": 0.5039370078740157,
          "duration": 2.4999949999999984
        },
        {
          "name": "D#3",
          "midi": 51,
          "time": 123.99975199999986,
          "velocity": 0.5039370078740157,
          "duration": 1.4999969999999934
        },
        {
          "name": "G#3",
          "midi": 56,
          "time": 123.99975199999986,
          "velocity": 0.5039370078740157,
          "duration": 1.4999969999999934
        },
        {
          "name": "C4",
          "midi": 60,
          "time": 123.99975199999986,
          "velocity": 0.5039370078740157,
          "duration": 1.4999969999999934
        },
        {
          "name": "G#2",
          "midi": 44,
          "time": 123.99975199999986,
          "velocity": 0.5039370078740157,
          "duration": 1.4999969999999934
        },
        {
          "name": "D#3",
          "midi": 51,
          "time": 125.49974899999985,
          "velocity": 0.5039370078740157,
          "duration": 2.4999949999999984
        },
        {
          "name": "G3",
          "midi": 55,
          "time": 125.49974899999985,
          "velocity": 0.5039370078740157,
          "duration": 2.4999949999999984
        },
        {
          "name": "A#3",
          "midi": 58,
          "time": 125.49974899999985,
          "velocity": 0.5039370078740157,
          "duration": 2.4999949999999984
        },
        {
          "name": "D#2",
          "midi": 39,
          "time": 125.49974899999985,
          "velocity": 0.5039370078740157,
          "duration": 2.4999949999999984
        },
        {
          "name": "C3",
          "midi": 48,
          "time": 127.99974399999985,
          "velocity": 0.5039370078740157,
          "duration": 1.4999970000000076
        },
        {
          "name": "F3",
          "midi": 53,
          "time": 127.99974399999985,
          "velocity": 0.5039370078740157,
          "duration": 1.4999970000000076
        },
        {
          "name": "G#3",
          "midi": 56,
          "time": 127.99974399999985,
          "velocity": 0.5039370078740157,
          "duration": 1.4999970000000076
        },
        {
          "name": "F2",
          "midi": 41,
          "time": 127.99974399999985,
          "velocity": 0.5039370078740157,
          "duration": 1.4999970000000076
        },
        {
          "name": "F3",
          "midi": 53,
          "time": 129.49974099999986,
          "velocity": 0.5039370078740157,
          "duration": 2.4999950000000126
        },
        {
          "name": "G#3",
          "midi": 56,
          "time": 129.49974099999986,
          "velocity": 0.5039370078740157,
          "duration": 2.4999950000000126
        },
        {
          "name": "C#4",
          "midi": 61,
          "time": 129.49974099999986,
          "velocity": 0.5039370078740157,
          "duration": 2.4999950000000126
        },
        {
          "name": "C#2",
          "midi": 37,
          "time": 129.49974099999986,
          "velocity": 0.5039370078740157,
          "duration": 2.4999950000000126
        },
        {
          "name": "D#3",
          "midi": 51,
          "time": 131.99973599999987,
          "velocity": 0.5039370078740157,
          "duration": 1.4999970000000076
        },
        {
          "name": "G#3",
          "midi": 56,
          "time": 131.99973599999987,
          "velocity": 0.5039370078740157,
          "duration": 1.4999970000000076
        },
        {
          "name": "C4",
          "midi": 60,
          "time": 131.99973599999987,
          "velocity": 0.5039370078740157,
          "duration": 1.4999970000000076
        },
        {
          "name": "G#2",
          "midi": 44,
          "time": 131.99973599999987,
          "velocity": 0.5039370078740157,
          "duration": 1.4999970000000076
        },
        {
          "name": "D#3",
          "midi": 51,
          "time": 133.49973299999988,
          "velocity": 0.5039370078740157,
          "duration": 2.4999950000000126
        },
        {
          "name": "G3",
          "midi": 55,
          "time": 133.49973299999988,
          "velocity": 0.5039370078740157,
          "duration": 2.4999950000000126
        },
        {
          "name": "A#3",
          "midi": 58,
          "time": 133.49973299999988,
          "velocity": 0.5039370078740157,
          "duration": 2.4999950000000126
        },
        {
          "name": "D#2",
          "midi": 39,
          "time": 133.49973299999988,
          "velocity": 0.5039370078740157,
          "duration": 2.4999950000000126
        },
        {
          "name": "C3",
          "midi": 48,
          "time": 135.9997279999999,
          "velocity": 0.5039370078740157,
          "duration": 1.4999970000000076
        },
        {
          "name": "F3",
          "midi": 53,
          "time": 135.9997279999999,
          "velocity": 0.5039370078740157,
          "duration": 1.4999970000000076
        },
        {
          "name": "G#3",
          "midi": 56,
          "time": 135.9997279999999,
          "velocity": 0.5039370078740157,
          "duration": 1.4999970000000076
        },
        {
          "name": "F2",
          "midi": 41,
          "time": 135.9997279999999,
          "velocity": 0.5039370078740157,
          "duration": 1.4999970000000076
        },
        {
          "name": "F3",
          "midi": 53,
          "time": 137.4997249999999,
          "velocity": 0.5039370078740157,
          "duration": 2.4999950000000126
        },
        {
          "name": "G#3",
          "midi": 56,
          "time": 137.4997249999999,
          "velocity": 0.5039370078740157,
          "duration": 2.4999950000000126
        },
        {
          "name": "C#4",
          "midi": 61,
          "time": 137.4997249999999,
          "velocity": 0.5039370078740157,
          "duration": 2.4999950000000126
        },
        {
          "name": "C#2",
          "midi": 37,
          "time": 137.4997249999999,
          "velocity": 0.5039370078740157,
          "duration": 2.4999950000000126
        },
        {
          "name": "D#3",
          "midi": 51,
          "time": 139.9997199999999,
          "velocity": 0.5039370078740157,
          "duration": 1.4999970000000076
        },
        {
          "name": "G#3",
          "midi": 56,
          "time": 139.9997199999999,
          "velocity": 0.5039370078740157,
          "duration": 1.4999970000000076
        },
        {
          "name": "C4",
          "midi": 60,
          "time": 139.9997199999999,
          "velocity": 0.5039370078740157,
          "duration": 1.4999970000000076
        },
        {
          "name": "G#2",
          "midi": 44,
          "time": 139.9997199999999,
          "velocity": 0.5039370078740157,
          "duration": 1.4999970000000076
        },
        {
          "name": "D#3",
          "midi": 51,
          "time": 141.49971699999992,
          "velocity": 0.5039370078740157,
          "duration": 2.4999950000000126
        },
        {
          "name": "G3",
          "midi": 55,
          "time": 141.49971699999992,
          "velocity": 0.5039370078740157,
          "duration": 2.4999950000000126
        },
        {
          "name": "A#3",
          "midi": 58,
          "time": 141.49971699999992,
          "velocity": 0.5039370078740157,
          "duration": 2.4999950000000126
        },
        {
          "name": "D#2",
          "midi": 39,
          "time": 141.49971699999992,
          "velocity": 0.5039370078740157,
          "duration": 2.4999950000000126
        },
        {
          "name": "C3",
          "midi": 48,
          "time": 143.99971199999993,
          "velocity": 0.5039370078740157,
          "duration": 1.4999970000000076
        },
        {
          "name": "F3",
          "midi": 53,
          "time": 143.99971199999993,
          "velocity": 0.5039370078740157,
          "duration": 1.4999970000000076
        },
        {
          "name": "G#3",
          "midi": 56,
          "time": 143.99971199999993,
          "velocity": 0.5039370078740157,
          "duration": 1.4999970000000076
        },
        {
          "name": "F2",
          "midi": 41,
          "time": 143.99971199999993,
          "velocity": 0.5039370078740157,
          "duration": 1.4999970000000076
        },
        {
          "name": "F3",
          "midi": 53,
          "time": 145.49970899999994,
          "velocity": 0.5039370078740157,
          "duration": 2.4999950000000126
        },
        {
          "name": "G#3",
          "midi": 56,
          "time": 145.49970899999994,
          "velocity": 0.5039370078740157,
          "duration": 2.4999950000000126
        },
        {
          "name": "C#4",
          "midi": 61,
          "time": 145.49970899999994,
          "velocity": 0.5039370078740157,
          "duration": 2.4999950000000126
        },
        {
          "name": "C#2",
          "midi": 37,
          "time": 145.49970899999994,
          "velocity": 0.5039370078740157,
          "duration": 2.4999950000000126
        },
        {
          "name": "D#3",
          "midi": 51,
          "time": 147.99970399999995,
          "velocity": 0.5039370078740157,
          "duration": 1.4999970000000076
        },
        {
          "name": "G#3",
          "midi": 56,
          "time": 147.99970399999995,
          "velocity": 0.5039370078740157,
          "duration": 1.4999970000000076
        },
        {
          "name": "C4",
          "midi": 60,
          "time": 147.99970399999995,
          "velocity": 0.5039370078740157,
          "duration": 1.4999970000000076
        },
        {
          "name": "G#2",
          "midi": 44,
          "time": 147.99970399999995,
          "velocity": 0.5039370078740157,
          "duration": 1.4999970000000076
        },
        {
          "name": "D#3",
          "midi": 51,
          "time": 149.49970099999996,
          "velocity": 0.5039370078740157,
          "duration": 2.4999950000000126
        },
        {
          "name": "G3",
          "midi": 55,
          "time": 149.49970099999996,
          "velocity": 0.5039370078740157,
          "duration": 2.4999950000000126
        },
        {
          "name": "A#3",
          "midi": 58,
          "time": 149.49970099999996,
          "velocity": 0.5039370078740157,
          "duration": 2.4999950000000126
        },
        {
          "name": "D#2",
          "midi": 39,
          "time": 149.49970099999996,
          "velocity": 0.5039370078740157,
          "duration": 2.4999950000000126
        },
        {
          "name": "C3",
          "midi": 48,
          "time": 151.99969599999997,
          "velocity": 0.5039370078740157,
          "duration": 1.4999970000000076
        },
        {
          "name": "F3",
          "midi": 53,
          "time": 151.99969599999997,
          "velocity": 0.5039370078740157,
          "duration": 1.4999970000000076
        },
        {
          "name": "G#3",
          "midi": 56,
          "time": 151.99969599999997,
          "velocity": 0.5039370078740157,
          "duration": 1.4999970000000076
        },
        {
          "name": "F2",
          "midi": 41,
          "time": 151.99969599999997,
          "velocity": 0.5039370078740157,
          "duration": 1.4999970000000076
        },
        {
          "name": "C#3",
          "midi": 49,
          "time": 153.49969299999998,
          "velocity": 0.5039370078740157,
          "duration": 2.4999950000000126
        },
        {
          "name": "F3",
          "midi": 53,
          "time": 153.49969299999998,
          "velocity": 0.5039370078740157,
          "duration": 2.4999950000000126
        },
        {
          "name": "G#3",
          "midi": 56,
          "time": 153.49969299999998,
          "velocity": 0.5039370078740157,
          "duration": 2.4999950000000126
        },
        {
          "name": "G#2",
          "midi": 44,
          "time": 153.49969299999998,
          "velocity": 0.5039370078740157,
          "duration": 2.4999950000000126
        },
        {
          "name": "D#3",
          "midi": 51,
          "time": 155.999688,
          "velocity": 0.5039370078740157,
          "duration": 1.4999970000000076
        },
        {
          "name": "G3",
          "midi": 55,
          "time": 155.999688,
          "velocity": 0.5039370078740157,
          "duration": 1.4999970000000076
        },
        {
          "name": "A#3",
          "midi": 58,
          "time": 155.999688,
          "velocity": 0.5039370078740157,
          "duration": 1.4999970000000076
        },
        {
          "name": "D#2",
          "midi": 39,
          "time": 155.999688,
          "velocity": 0.5039370078740157,
          "duration": 1.4999970000000076
        },
        {
          "name": "C#3",
          "midi": 49,
          "time": 157.499685,
          "velocity": 0.5039370078740157,
          "duration": 2.4999950000000126
        },
        {
          "name": "F3",
          "midi": 53,
          "time": 157.499685,
          "velocity": 0.5039370078740157,
          "duration": 2.4999950000000126
        },
        {
          "name": "G#3",
          "midi": 56,
          "time": 157.499685,
          "velocity": 0.5039370078740157,
          "duration": 2.4999950000000126
        },
        {
          "name": "C#2",
          "midi": 37,
          "time": 157.499685,
          "velocity": 0.5039370078740157,
          "duration": 2.4999950000000126
        },
        {
          "name": "C3",
          "midi": 48,
          "time": 159.99968,
          "velocity": 0.5039370078740157,
          "duration": 1.4999970000000076
        },
        {
          "name": "F3",
          "midi": 53,
          "time": 159.99968,
          "velocity": 0.5039370078740157,
          "duration": 1.4999970000000076
        },
        {
          "name": "G#3",
          "midi": 56,
          "time": 159.99968,
          "velocity": 0.5039370078740157,
          "duration": 1.4999970000000076
        },
        {
          "name": "F2",
          "midi": 41,
          "time": 159.99968,
          "velocity": 0.5039370078740157,
          "duration": 1.4999970000000076
        },
        {
          "name": "C#3",
          "midi": 49,
          "time": 161.49967700000002,
          "velocity": 0.5039370078740157,
          "duration": 2.4999950000000126
        },
        {
          "name": "F3",
          "midi": 53,
          "time": 161.49967700000002,
          "velocity": 0.5039370078740157,
          "duration": 2.4999950000000126
        },
        {
          "name": "G#3",
          "midi": 56,
          "time": 161.49967700000002,
          "velocity": 0.5039370078740157,
          "duration": 2.4999950000000126
        },
        {
          "name": "G#2",
          "midi": 44,
          "time": 161.49967700000002,
          "velocity": 0.5039370078740157,
          "duration": 2.4999950000000126
        },
        {
          "name": "D#3",
          "midi": 51,
          "time": 163.99967200000003,
          "velocity": 0.5039370078740157,
          "duration": 1.4999970000000076
        },
        {
          "name": "G3",
          "midi": 55,
          "time": 163.99967200000003,
          "velocity": 0.5039370078740157,
          "duration": 1.4999970000000076
        },
        {
          "name": "A#3",
          "midi": 58,
          "time": 163.99967200000003,
          "velocity": 0.5039370078740157,
          "duration": 1.4999970000000076
        },
        {
          "name": "D#2",
          "midi": 39,
          "time": 163.99967200000003,
          "velocity": 0.5039370078740157,
          "duration": 1.4999970000000076
        },
        {
          "name": "C#3",
          "midi": 49,
          "time": 165.49966900000004,
          "velocity": 0.5039370078740157,
          "duration": 2.4999950000000126
        },
        {
          "name": "F3",
          "midi": 53,
          "time": 165.49966900000004,
          "velocity": 0.5039370078740157,
          "duration": 2.4999950000000126
        },
        {
          "name": "G#3",
          "midi": 56,
          "time": 165.49966900000004,
          "velocity": 0.5039370078740157,
          "duration": 2.4999950000000126
        },
        {
          "name": "C#2",
          "midi": 37,
          "time": 165.49966900000004,
          "velocity": 0.5039370078740157,
          "duration": 2.4999950000000126
        },
        {
          "name": "C3",
          "midi": 48,
          "time": 167.99966400000005,
          "velocity": 0.5039370078740157,
          "duration": 1.4999970000000076
        },
        {
          "name": "F3",
          "midi": 53,
          "time": 167.99966400000005,
          "velocity": 0.5039370078740157,
          "duration": 1.4999970000000076
        },
        {
          "name": "G#3",
          "midi": 56,
          "time": 167.99966400000005,
          "velocity": 0.5039370078740157,
          "duration": 1.4999970000000076
        },
        {
          "name": "F2",
          "midi": 41,
          "time": 167.99966400000005,
          "velocity": 0.5039370078740157,
          "duration": 1.4999970000000076
        },
        {
          "name": "C#3",
          "midi": 49,
          "time": 169.49966100000006,
          "velocity": 0.5039370078740157,
          "duration": 2.4999950000000126
        },
        {
          "name": "F3",
          "midi": 53,
          "time": 169.49966100000006,
          "velocity": 0.5039370078740157,
          "duration": 2.4999950000000126
        },
        {
          "name": "G#3",
          "midi": 56,
          "time": 169.49966100000006,
          "velocity": 0.5039370078740157,
          "duration": 2.4999950000000126
        },
        {
          "name": "G#2",
          "midi": 44,
          "time": 169.49966100000006,
          "velocity": 0.5039370078740157,
          "duration": 2.4999950000000126
        },
        {
          "name": "D#3",
          "midi": 51,
          "time": 171.99965600000007,
          "velocity": 0.5039370078740157,
          "duration": 1.4999970000000076
        },
        {
          "name": "G3",
          "midi": 55,
          "time": 171.99965600000007,
          "velocity": 0.5039370078740157,
          "duration": 1.4999970000000076
        },
        {
          "name": "A#3",
          "midi": 58,
          "time": 171.99965600000007,
          "velocity": 0.5039370078740157,
          "duration": 1.4999970000000076
        },
        {
          "name": "D#2",
          "midi": 39,
          "time": 171.99965600000007,
          "velocity": 0.5039370078740157,
          "duration": 1.4999970000000076
        },
        {
          "name": "C#3",
          "midi": 49,
          "time": 173.49965300000008,
          "velocity": 0.5039370078740157,
          "duration": 2.4999950000000126
        },
        {
          "name": "F3",
          "midi": 53,
          "time": 173.49965300000008,
          "velocity": 0.5039370078740157,
          "duration": 2.4999950000000126
        },
        {
          "name": "G#3",
          "midi": 56,
          "time": 173.49965300000008,
          "velocity": 0.5039370078740157,
          "duration": 2.4999950000000126
        },
        {
          "name": "C#2",
          "midi": 37,
          "time": 173.49965300000008,
          "velocity": 0.5039370078740157,
          "duration": 2.4999950000000126
        },
        {
          "name": "C3",
          "midi": 48,
          "time": 175.9996480000001,
          "velocity": 0.5039370078740157,
          "duration": 1.4999970000000076
        },
        {
          "name": "F3",
          "midi": 53,
          "time": 175.9996480000001,
          "velocity": 0.5039370078740157,
          "duration": 1.4999970000000076
        },
        {
          "name": "G#3",
          "midi": 56,
          "time": 175.9996480000001,
          "velocity": 0.5039370078740157,
          "duration": 1.4999970000000076
        },
        {
          "name": "F2",
          "midi": 41,
          "time": 175.9996480000001,
          "velocity": 0.5039370078740157,
          "duration": 1.4999970000000076
        },
        {
          "name": "C#3",
          "midi": 49,
          "time": 177.4996450000001,
          "velocity": 0.5039370078740157,
          "duration": 2.4999950000000126
        },
        {
          "name": "F3",
          "midi": 53,
          "time": 177.4996450000001,
          "velocity": 0.5039370078740157,
          "duration": 2.4999950000000126
        },
        {
          "name": "G#3",
          "midi": 56,
          "time": 177.4996450000001,
          "velocity": 0.5039370078740157,
          "duration": 2.4999950000000126
        },
        {
          "name": "G#2",
          "midi": 44,
          "time": 177.4996450000001,
          "velocity": 0.5039370078740157,
          "duration": 2.4999950000000126
        },
        {
          "name": "D#3",
          "midi": 51,
          "time": 179.9996400000001,
          "velocity": 0.5039370078740157,
          "duration": 1.4999970000000076
        },
        {
          "name": "G3",
          "midi": 55,
          "time": 179.9996400000001,
          "velocity": 0.5039370078740157,
          "duration": 1.4999970000000076
        },
        {
          "name": "A#3",
          "midi": 58,
          "time": 179.9996400000001,
          "velocity": 0.5039370078740157,
          "duration": 1.4999970000000076
        },
        {
          "name": "D#2",
          "midi": 39,
          "time": 179.9996400000001,
          "velocity": 0.5039370078740157,
          "duration": 1.4999970000000076
        },
        {
          "name": "C#3",
          "midi": 49,
          "time": 181.49963700000012,
          "velocity": 0.5039370078740157,
          "duration": 2.4999950000000126
        },
        {
          "name": "F3",
          "midi": 53,
          "time": 181.49963700000012,
          "velocity": 0.5039370078740157,
          "duration": 2.4999950000000126
        },
        {
          "name": "G#3",
          "midi": 56,
          "time": 181.49963700000012,
          "velocity": 0.5039370078740157,
          "duration": 2.4999950000000126
        },
        {
          "name": "C#2",
          "midi": 37,
          "time": 181.49963700000012,
          "velocity": 0.5039370078740157,
          "duration": 2.4999950000000126
        },
        {
          "name": "C3",
          "midi": 48,
          "time": 183.99963200000013,
          "velocity": 0.5039370078740157,
          "duration": 1.4999970000000076
        },
        {
          "name": "F3",
          "midi": 53,
          "time": 183.99963200000013,
          "velocity": 0.5039370078740157,
          "duration": 1.4999970000000076
        },
        {
          "name": "G#3",
          "midi": 56,
          "time": 183.99963200000013,
          "velocity": 0.5039370078740157,
          "duration": 1.4999970000000076
        },
        {
          "name": "F2",
          "midi": 41,
          "time": 183.99963200000013,
          "velocity": 0.5039370078740157,
          "duration": 1.4999970000000076
        },
        {
          "name": "C#3",
          "midi": 49,
          "time": 185.49962900000014,
          "velocity": 0.5039370078740157,
          "duration": 2.4999950000000126
        },
        {
          "name": "F3",
          "midi": 53,
          "time": 185.49962900000014,
          "velocity": 0.5039370078740157,
          "duration": 2.4999950000000126
        },
        {
          "name": "G#3",
          "midi": 56,
          "time": 185.49962900000014,
          "velocity": 0.5039370078740157,
          "duration": 2.4999950000000126
        },
        {
          "name": "G#2",
          "midi": 44,
          "time": 185.49962900000014,
          "velocity": 0.5039370078740157,
          "duration": 2.4999950000000126
        },
        {
          "name": "D#3",
          "midi": 51,
          "time": 187.99962400000015,
          "velocity": 0.5039370078740157,
          "duration": 1.4999970000000076
        },
        {
          "name": "G3",
          "midi": 55,
          "time": 187.99962400000015,
          "velocity": 0.5039370078740157,
          "duration": 1.4999970000000076
        },
        {
          "name": "A#3",
          "midi": 58,
          "time": 187.99962400000015,
          "velocity": 0.5039370078740157,
          "duration": 1.4999970000000076
        },
        {
          "name": "D#2",
          "midi": 39,
          "time": 187.99962400000015,
          "velocity": 0.5039370078740157,
          "duration": 1.4999970000000076
        },
        {
          "name": "C#3",
          "midi": 49,
          "time": 189.49962100000016,
          "velocity": 0.5039370078740157,
          "duration": 2.4999950000000126
        },
        {
          "name": "F3",
          "midi": 53,
          "time": 189.49962100000016,
          "velocity": 0.5039370078740157,
          "duration": 2.4999950000000126
        },
        {
          "name": "G#3",
          "midi": 56,
          "time": 189.49962100000016,
          "velocity": 0.5039370078740157,
          "duration": 2.4999950000000126
        },
        {
          "name": "C#2",
          "midi": 37,
          "time": 189.49962100000016,
          "velocity": 0.5039370078740157,
          "duration": 2.4999950000000126
        },
        {
          "name": "F3",
          "midi": 53,
          "time": 191.99961600000017,
          "velocity": 0.5039370078740157,
          "duration": 1.4999970000000076
        },
        {
          "name": "G#3",
          "midi": 56,
          "time": 191.99961600000017,
          "velocity": 0.5039370078740157,
          "duration": 1.4999970000000076
        },
        {
          "name": "C4",
          "midi": 60,
          "time": 191.99961600000017,
          "velocity": 0.5039370078740157,
          "duration": 1.4999970000000076
        },
        {
          "name": "F2",
          "midi": 41,
          "time": 191.99961600000017,
          "velocity": 0.5039370078740157,
          "duration": 1.4999970000000076
        },
        {
          "name": "D#3",
          "midi": 51,
          "time": 193.49961300000018,
          "velocity": 0.5039370078740157,
          "duration": 2.4999950000000126
        },
        {
          "name": "G3",
          "midi": 55,
          "time": 193.49961300000018,
          "velocity": 0.5039370078740157,
          "duration": 2.4999950000000126
        },
        {
          "name": "A#3",
          "midi": 58,
          "time": 193.49961300000018,
          "velocity": 0.5039370078740157,
          "duration": 2.4999950000000126
        },
        {
          "name": "D#2",
          "midi": 39,
          "time": 193.49961300000018,
          "velocity": 0.5039370078740157,
          "duration": 2.4999950000000126
        },
        {
          "name": "D#3",
          "midi": 51,
          "time": 195.9996080000002,
          "velocity": 0.5039370078740157,
          "duration": 1.4999970000000076
        },
        {
          "name": "G3",
          "midi": 55,
          "time": 195.9996080000002,
          "velocity": 0.5039370078740157,
          "duration": 1.4999970000000076
        },
        {
          "name": "C4",
          "midi": 60,
          "time": 195.9996080000002,
          "velocity": 0.5039370078740157,
          "duration": 1.4999970000000076
        },
        {
          "name": "C2",
          "midi": 36,
          "time": 195.9996080000002,
          "velocity": 0.5039370078740157,
          "duration": 1.4999970000000076
        },
        {
          "name": "F3",
          "midi": 53,
          "time": 197.4996050000002,
          "velocity": 0.5039370078740157,
          "duration": 2.4999950000000126
        },
        {
          "name": "G#3",
          "midi": 56,
          "time": 197.4996050000002,
          "velocity": 0.5039370078740157,
          "duration": 2.4999950000000126
        },
        {
          "name": "C#4",
          "midi": 61,
          "time": 197.4996050000002,
          "velocity": 0.5039370078740157,
          "duration": 2.4999950000000126
        },
        {
          "name": "C#2",
          "midi": 37,
          "time": 197.4996050000002,
          "velocity": 0.5039370078740157,
          "duration": 2.4999950000000126
        },
        {
          "name": "F3",
          "midi": 53,
          "time": 199.9996000000002,
          "velocity": 0.5039370078740157,
          "duration": 1.4999970000000076
        },
        {
          "name": "G#3",
          "midi": 56,
          "time": 199.9996000000002,
          "velocity": 0.5039370078740157,
          "duration": 1.4999970000000076
        },
        {
          "name": "C4",
          "midi": 60,
          "time": 199.9996000000002,
          "velocity": 0.5039370078740157,
          "duration": 1.4999970000000076
        },
        {
          "name": "F2",
          "midi": 41,
          "time": 199.9996000000002,
          "velocity": 0.5039370078740157,
          "duration": 1.4999970000000076
        },
        {
          "name": "D#3",
          "midi": 51,
          "time": 201.49959700000022,
          "velocity": 0.5039370078740157,
          "duration": 1.4999970000000076
        },
        {
          "name": "G3",
          "midi": 55,
          "time": 201.49959700000022,
          "velocity": 0.5039370078740157,
          "duration": 1.4999970000000076
        },
        {
          "name": "A#3",
          "midi": 58,
          "time": 201.49959700000022,
          "velocity": 0.5039370078740157,
          "duration": 1.4999970000000076
        },
        {
          "name": "D#2",
          "midi": 39,
          "time": 201.49959700000022,
          "velocity": 0.5039370078740157,
          "duration": 1.4999970000000076
        },
        {
          "name": "C#3",
          "midi": 49,
          "time": 202.99959400000023,
          "velocity": 0.5039370078740157,
          "duration": 4.999989999999997
        },
        {
          "name": "F3",
          "midi": 53,
          "time": 202.99959400000023,
          "velocity": 0.5039370078740157,
          "duration": 4.999989999999997
        },
        {
          "name": "G#3",
          "midi": 56,
          "time": 202.99959400000023,
          "velocity": 0.5039370078740157,
          "duration": 4.999989999999997
        },
        {
          "name": "C#2",
          "midi": 37,
          "time": 202.99959400000023,
          "velocity": 0.5039370078740157,
          "duration": 4.999989999999997
        },
        {
          "name": "C3",
          "midi": 48,
          "time": 207.99958400000023,
          "velocity": 0.5039370078740157,
          "duration": 1.4999970000000076
        },
        {
          "name": "F3",
          "midi": 53,
          "time": 207.99958400000023,
          "velocity": 0.5039370078740157,
          "duration": 1.4999970000000076
        },
        {
          "name": "G#3",
          "midi": 56,
          "time": 207.99958400000023,
          "velocity": 0.5039370078740157,
          "duration": 1.4999970000000076
        },
        {
          "name": "F2",
          "midi": 41,
          "time": 207.99958400000023,
          "velocity": 0.5039370078740157,
          "duration": 1.4999970000000076
        },
        {
          "name": "F3",
          "midi": 53,
          "time": 209.49958100000023,
          "velocity": 0.5039370078740157,
          "duration": 2.4999950000000126
        },
        {
          "name": "G#3",
          "midi": 56,
          "time": 209.49958100000023,
          "velocity": 0.5039370078740157,
          "duration": 2.4999950000000126
        },
        {
          "name": "C#4",
          "midi": 61,
          "time": 209.49958100000023,
          "velocity": 0.5039370078740157,
          "duration": 2.4999950000000126
        },
        {
          "name": "C#2",
          "midi": 37,
          "time": 209.49958100000023,
          "velocity": 0.5039370078740157,
          "duration": 2.4999950000000126
        },
        {
          "name": "D#3",
          "midi": 51,
          "time": 211.99957600000025,
          "velocity": 0.5039370078740157,
          "duration": 1.4999970000000076
        },
        {
          "name": "G#3",
          "midi": 56,
          "time": 211.99957600000025,
          "velocity": 0.5039370078740157,
          "duration": 1.4999970000000076
        },
        {
          "name": "C4",
          "midi": 60,
          "time": 211.99957600000025,
          "velocity": 0.5039370078740157,
          "duration": 1.4999970000000076
        },
        {
          "name": "G#2",
          "midi": 44,
          "time": 211.99957600000025,
          "velocity": 0.5039370078740157,
          "duration": 1.4999970000000076
        },
        {
          "name": "D#3",
          "midi": 51,
          "time": 213.49957300000025,
          "velocity": 0.5039370078740157,
          "duration": 2.4999950000000126
        },
        {
          "name": "G3",
          "midi": 55,
          "time": 213.49957300000025,
          "velocity": 0.5039370078740157,
          "duration": 2.4999950000000126
        },
        {
          "name": "A#3",
          "midi": 58,
          "time": 213.49957300000025,
          "velocity": 0.5039370078740157,
          "duration": 2.4999950000000126
        },
        {
          "name": "D#2",
          "midi": 39,
          "time": 213.49957300000025,
          "velocity": 0.5039370078740157,
          "duration": 2.4999950000000126
        },
        {
          "name": "C3",
          "midi": 48,
          "time": 215.99956800000027,
          "velocity": 0.5039370078740157,
          "duration": 1.4999970000000076
        },
        {
          "name": "F3",
          "midi": 53,
          "time": 215.99956800000027,
          "velocity": 0.5039370078740157,
          "duration": 1.4999970000000076
        },
        {
          "name": "G#3",
          "midi": 56,
          "time": 215.99956800000027,
          "velocity": 0.5039370078740157,
          "duration": 1.4999970000000076
        },
        {
          "name": "F2",
          "midi": 41,
          "time": 215.99956800000027,
          "velocity": 0.5039370078740157,
          "duration": 1.4999970000000076
        },
        {
          "name": "F3",
          "midi": 53,
          "time": 217.49956500000027,
          "velocity": 0.5039370078740157,
          "duration": 2.4999950000000126
        },
        {
          "name": "G#3",
          "midi": 56,
          "time": 217.49956500000027,
          "velocity": 0.5039370078740157,
          "duration": 2.4999950000000126
        },
        {
          "name": "C#4",
          "midi": 61,
          "time": 217.49956500000027,
          "velocity": 0.5039370078740157,
          "duration": 2.4999950000000126
        },
        {
          "name": "C#2",
          "midi": 37,
          "time": 217.49956500000027,
          "velocity": 0.5039370078740157,
          "duration": 2.4999950000000126
        },
        {
          "name": "D#3",
          "midi": 51,
          "time": 219.9995600000003,
          "velocity": 0.5039370078740157,
          "duration": 1.4999970000000076
        },
        {
          "name": "G#3",
          "midi": 56,
          "time": 219.9995600000003,
          "velocity": 0.5039370078740157,
          "duration": 1.4999970000000076
        },
        {
          "name": "C4",
          "midi": 60,
          "time": 219.9995600000003,
          "velocity": 0.5039370078740157,
          "duration": 1.4999970000000076
        },
        {
          "name": "G#2",
          "midi": 44,
          "time": 219.9995600000003,
          "velocity": 0.5039370078740157,
          "duration": 1.4999970000000076
        },
        {
          "name": "D#3",
          "midi": 51,
          "time": 221.4995570000003,
          "velocity": 0.5039370078740157,
          "duration": 2.4999950000000126
        },
        {
          "name": "G3",
          "midi": 55,
          "time": 221.4995570000003,
          "velocity": 0.5039370078740157,
          "duration": 2.4999950000000126
        },
        {
          "name": "A#3",
          "midi": 58,
          "time": 221.4995570000003,
          "velocity": 0.5039370078740157,
          "duration": 2.4999950000000126
        },
        {
          "name": "D#2",
          "midi": 39,
          "time": 221.4995570000003,
          "velocity": 0.5039370078740157,
          "duration": 2.4999950000000126
        },
        {
          "name": "C3",
          "midi": 48,
          "time": 223.9995520000003,
          "velocity": 0.5039370078740157,
          "duration": 1.4999970000000076
        },
        {
          "name": "F3",
          "midi": 53,
          "time": 223.9995520000003,
          "velocity": 0.5039370078740157,
          "duration": 1.4999970000000076
        },
        {
          "name": "G#3",
          "midi": 56,
          "time": 223.9995520000003,
          "velocity": 0.5039370078740157,
          "duration": 1.4999970000000076
        },
        {
          "name": "F2",
          "midi": 41,
          "time": 223.9995520000003,
          "velocity": 0.5039370078740157,
          "duration": 1.4999970000000076
        },
        {
          "name": "F3",
          "midi": 53,
          "time": 225.49954900000031,
          "velocity": 0.5039370078740157,
          "duration": 2.4999950000000126
        },
        {
          "name": "G#3",
          "midi": 56,
          "time": 225.49954900000031,
          "velocity": 0.5039370078740157,
          "duration": 2.4999950000000126
        },
        {
          "name": "C#4",
          "midi": 61,
          "time": 225.49954900000031,
          "velocity": 0.5039370078740157,
          "duration": 2.4999950000000126
        },
        {
          "name": "C#2",
          "midi": 37,
          "time": 225.49954900000031,
          "velocity": 0.5039370078740157,
          "duration": 2.4999950000000126
        },
        {
          "name": "D#3",
          "midi": 51,
          "time": 227.99954400000033,
          "velocity": 0.5039370078740157,
          "duration": 1.4999970000000076
        },
        {
          "name": "G#3",
          "midi": 56,
          "time": 227.99954400000033,
          "velocity": 0.5039370078740157,
          "duration": 1.4999970000000076
        },
        {
          "name": "C4",
          "midi": 60,
          "time": 227.99954400000033,
          "velocity": 0.5039370078740157,
          "duration": 1.4999970000000076
        },
        {
          "name": "G#2",
          "midi": 44,
          "time": 227.99954400000033,
          "velocity": 0.5039370078740157,
          "duration": 1.4999970000000076
        },
        {
          "name": "D#3",
          "midi": 51,
          "time": 229.49954100000033,
          "velocity": 0.5039370078740157,
          "duration": 2.4999950000000126
        },
        {
          "name": "G3",
          "midi": 55,
          "time": 229.49954100000033,
          "velocity": 0.5039370078740157,
          "duration": 2.4999950000000126
        },
        {
          "name": "A#3",
          "midi": 58,
          "time": 229.49954100000033,
          "velocity": 0.5039370078740157,
          "duration": 2.4999950000000126
        },
        {
          "name": "D#2",
          "midi": 39,
          "time": 229.49954100000033,
          "velocity": 0.5039370078740157,
          "duration": 2.4999950000000126
        },
        {
          "name": "C3",
          "midi": 48,
          "time": 231.99953600000035,
          "velocity": 0.5039370078740157,
          "duration": 1.4999970000000076
        },
        {
          "name": "F3",
          "midi": 53,
          "time": 231.99953600000035,
          "velocity": 0.5039370078740157,
          "duration": 1.4999970000000076
        },
        {
          "name": "G#3",
          "midi": 56,
          "time": 231.99953600000035,
          "velocity": 0.5039370078740157,
          "duration": 1.4999970000000076
        },
        {
          "name": "F2",
          "midi": 41,
          "time": 231.99953600000035,
          "velocity": 0.5039370078740157,
          "duration": 1.4999970000000076
        },
        {
          "name": "F3",
          "midi": 53,
          "time": 233.49953300000035,
          "velocity": 0.5039370078740157,
          "duration": 2.4999950000000126
        },
        {
          "name": "G#3",
          "midi": 56,
          "time": 233.49953300000035,
          "velocity": 0.5039370078740157,
          "duration": 2.4999950000000126
        },
        {
          "name": "C#4",
          "midi": 61,
          "time": 233.49953300000035,
          "velocity": 0.5039370078740157,
          "duration": 2.4999950000000126
        },
        {
          "name": "C#2",
          "midi": 37,
          "time": 233.49953300000035,
          "velocity": 0.5039370078740157,
          "duration": 2.4999950000000126
        },
        {
          "name": "D#3",
          "midi": 51,
          "time": 235.99952800000037,
          "velocity": 0.5039370078740157,
          "duration": 1.4999970000000076
        },
        {
          "name": "G#3",
          "midi": 56,
          "time": 235.99952800000037,
          "velocity": 0.5039370078740157,
          "duration": 1.4999970000000076
        },
        {
          "name": "C4",
          "midi": 60,
          "time": 235.99952800000037,
          "velocity": 0.5039370078740157,
          "duration": 1.4999970000000076
        },
        {
          "name": "G#2",
          "midi": 44,
          "time": 235.99952800000037,
          "velocity": 0.5039370078740157,
          "duration": 1.4999970000000076
        },
        {
          "name": "D#3",
          "midi": 51,
          "time": 237.49952500000038,
          "velocity": 0.5039370078740157,
          "duration": 2.4999950000000126
        },
        {
          "name": "G3",
          "midi": 55,
          "time": 237.49952500000038,
          "velocity": 0.5039370078740157,
          "duration": 2.4999950000000126
        },
        {
          "name": "A#3",
          "midi": 58,
          "time": 237.49952500000038,
          "velocity": 0.5039370078740157,
          "duration": 2.4999950000000126
        },
        {
          "name": "D#2",
          "midi": 39,
          "time": 237.49952500000038,
          "velocity": 0.5039370078740157,
          "duration": 2.4999950000000126
        },
        {
          "name": "C3",
          "midi": 48,
          "time": 239.9995200000004,
          "velocity": 0.5039370078740157,
          "duration": 1.4999970000000076
        },
        {
          "name": "F3",
          "midi": 53,
          "time": 239.9995200000004,
          "velocity": 0.5039370078740157,
          "duration": 1.4999970000000076
        },
        {
          "name": "G#3",
          "midi": 56,
          "time": 239.9995200000004,
          "velocity": 0.5039370078740157,
          "duration": 1.4999970000000076
        },
        {
          "name": "F2",
          "midi": 41,
          "time": 239.9995200000004,
          "velocity": 0.5039370078740157,
          "duration": 1.4999970000000076
        },
        {
          "name": "F3",
          "midi": 53,
          "time": 241.4995170000004,
          "velocity": 0.5039370078740157,
          "duration": 2.4999950000000126
        },
        {
          "name": "G#3",
          "midi": 56,
          "time": 241.4995170000004,
          "velocity": 0.5039370078740157,
          "duration": 2.4999950000000126
        },
        {
          "name": "C#4",
          "midi": 61,
          "time": 241.4995170000004,
          "velocity": 0.5039370078740157,
          "duration": 2.4999950000000126
        },
        {
          "name": "C#2",
          "midi": 37,
          "time": 241.4995170000004,
          "velocity": 0.5039370078740157,
          "duration": 2.4999950000000126
        },
        {
          "name": "D#3",
          "midi": 51,
          "time": 243.9995120000004,
          "velocity": 0.5039370078740157,
          "duration": 1.4999970000000076
        },
        {
          "name": "G#3",
          "midi": 56,
          "time": 243.9995120000004,
          "velocity": 0.5039370078740157,
          "duration": 1.4999970000000076
        },
        {
          "name": "C4",
          "midi": 60,
          "time": 243.9995120000004,
          "velocity": 0.5039370078740157,
          "duration": 1.4999970000000076
        },
        {
          "name": "G#2",
          "midi": 44,
          "time": 243.9995120000004,
          "velocity": 0.5039370078740157,
          "duration": 1.4999970000000076
        },
        {
          "name": "D#3",
          "midi": 51,
          "time": 245.49950900000042,
          "velocity": 0.5039370078740157,
          "duration": 2.4999950000000126
        },
        {
          "name": "G3",
          "midi": 55,
          "time": 245.49950900000042,
          "velocity": 0.5039370078740157,
          "duration": 2.4999950000000126
        },
        {
          "name": "A#3",
          "midi": 58,
          "time": 245.49950900000042,
          "velocity": 0.5039370078740157,
          "duration": 2.4999950000000126
        },
        {
          "name": "D#2",
          "midi": 39,
          "time": 245.49950900000042,
          "velocity": 0.5039370078740157,
          "duration": 2.4999950000000126
        },
        {
          "name": "C3",
          "midi": 48,
          "time": 247.99950400000043,
          "velocity": 0.5039370078740157,
          "duration": 1.4999970000000076
        },
        {
          "name": "F3",
          "midi": 53,
          "time": 247.99950400000043,
          "velocity": 0.5039370078740157,
          "duration": 1.4999970000000076
        },
        {
          "name": "G#3",
          "midi": 56,
          "time": 247.99950400000043,
          "velocity": 0.5039370078740157,
          "duration": 1.4999970000000076
        },
        {
          "name": "F2",
          "midi": 41,
          "time": 247.99950400000043,
          "velocity": 0.5039370078740157,
          "duration": 1.4999970000000076
        },
        {
          "name": "F3",
          "midi": 53,
          "time": 249.49950100000044,
          "velocity": 0.5039370078740157,
          "duration": 2.4999950000000126
        },
        {
          "name": "G#3",
          "midi": 56,
          "time": 249.49950100000044,
          "velocity": 0.5039370078740157,
          "duration": 2.4999950000000126
        },
        {
          "name": "C#4",
          "midi": 61,
          "time": 249.49950100000044,
          "velocity": 0.5039370078740157,
          "duration": 2.4999950000000126
        },
        {
          "name": "C#2",
          "midi": 37,
          "time": 249.49950100000044,
          "velocity": 0.5039370078740157,
          "duration": 2.4999950000000126
        },
        {
          "name": "D#3",
          "midi": 51,
          "time": 251.99949600000045,
          "velocity": 0.5039370078740157,
          "duration": 1.4999970000000076
        },
        {
          "name": "G#3",
          "midi": 56,
          "time": 251.99949600000045,
          "velocity": 0.5039370078740157,
          "duration": 1.4999970000000076
        },
        {
          "name": "C4",
          "midi": 60,
          "time": 251.99949600000045,
          "velocity": 0.5039370078740157,
          "duration": 1.4999970000000076
        },
        {
          "name": "G#2",
          "midi": 44,
          "time": 251.99949600000045,
          "velocity": 0.5039370078740157,
          "duration": 1.4999970000000076
        },
        {
          "name": "D#3",
          "midi": 51,
          "time": 253.49949300000046,
          "velocity": 0.5039370078740157,
          "duration": 2.4999950000000126
        },
        {
          "name": "G3",
          "midi": 55,
          "time": 253.49949300000046,
          "velocity": 0.5039370078740157,
          "duration": 2.4999950000000126
        },
        {
          "name": "A#3",
          "midi": 58,
          "time": 253.49949300000046,
          "velocity": 0.5039370078740157,
          "duration": 2.4999950000000126
        },
        {
          "name": "D#2",
          "midi": 39,
          "time": 253.49949300000046,
          "velocity": 0.5039370078740157,
          "duration": 2.4999950000000126
        },
        {
          "name": "C3",
          "midi": 48,
          "time": 255.99948800000047,
          "velocity": 0.5039370078740157,
          "duration": 1.4999969999999792
        },
        {
          "name": "F3",
          "midi": 53,
          "time": 255.99948800000047,
          "velocity": 0.5039370078740157,
          "duration": 1.4999969999999792
        },
        {
          "name": "G#3",
          "midi": 56,
          "time": 255.99948800000047,
          "velocity": 0.5039370078740157,
          "duration": 1.4999969999999792
        },
        {
          "name": "F2",
          "midi": 41,
          "time": 255.99948800000047,
          "velocity": 0.5039370078740157,
          "duration": 1.4999969999999792
        },
        {
          "name": "F3",
          "midi": 53,
          "time": 257.49948500000045,
          "velocity": 0.5039370078740157,
          "duration": 2.4999950000000126
        },
        {
          "name": "G#3",
          "midi": 56,
          "time": 257.49948500000045,
          "velocity": 0.5039370078740157,
          "duration": 2.4999950000000126
        },
        {
          "name": "C#4",
          "midi": 61,
          "time": 257.49948500000045,
          "velocity": 0.5039370078740157,
          "duration": 2.4999950000000126
        },
        {
          "name": "C#2",
          "midi": 37,
          "time": 257.49948500000045,
          "velocity": 0.5039370078740157,
          "duration": 2.4999950000000126
        },
        {
          "name": "D#3",
          "midi": 51,
          "time": 259.99948000000046,
          "velocity": 0.5039370078740157,
          "duration": 1.4999970000000076
        },
        {
          "name": "G#3",
          "midi": 56,
          "time": 259.99948000000046,
          "velocity": 0.5039370078740157,
          "duration": 1.4999970000000076
        },
        {
          "name": "C4",
          "midi": 60,
          "time": 259.99948000000046,
          "velocity": 0.5039370078740157,
          "duration": 1.4999970000000076
        },
        {
          "name": "G#2",
          "midi": 44,
          "time": 259.99948000000046,
          "velocity": 0.5039370078740157,
          "duration": 1.4999970000000076
        },
        {
          "name": "D#3",
          "midi": 51,
          "time": 261.49947700000047,
          "velocity": 0.5039370078740157,
          "duration": 2.4999950000000126
        },
        {
          "name": "G3",
          "midi": 55,
          "time": 261.49947700000047,
          "velocity": 0.5039370078740157,
          "duration": 2.4999950000000126
        },
        {
          "name": "A#3",
          "midi": 58,
          "time": 261.49947700000047,
          "velocity": 0.5039370078740157,
          "duration": 2.4999950000000126
        },
        {
          "name": "D#2",
          "midi": 39,
          "time": 261.49947700000047,
          "velocity": 0.5039370078740157,
          "duration": 2.4999950000000126
        },
        {
          "name": "C3",
          "midi": 48,
          "time": 263.9994720000005,
          "velocity": 0.5039370078740157,
          "duration": 1.4999970000000076
        },
        {
          "name": "F3",
          "midi": 53,
          "time": 263.9994720000005,
          "velocity": 0.5039370078740157,
          "duration": 1.4999970000000076
        },
        {
          "name": "G#3",
          "midi": 56,
          "time": 263.9994720000005,
          "velocity": 0.5039370078740157,
          "duration": 1.4999970000000076
        },
        {
          "name": "F2",
          "midi": 41,
          "time": 263.9994720000005,
          "velocity": 0.5039370078740157,
          "duration": 1.4999970000000076
        },
        {
          "name": "F3",
          "midi": 53,
          "time": 265.4994690000005,
          "velocity": 0.5039370078740157,
          "duration": 2.4999950000000126
        },
        {
          "name": "G#3",
          "midi": 56,
          "time": 265.4994690000005,
          "velocity": 0.5039370078740157,
          "duration": 2.4999950000000126
        },
        {
          "name": "C#4",
          "midi": 61,
          "time": 265.4994690000005,
          "velocity": 0.5039370078740157,
          "duration": 2.4999950000000126
        },
        {
          "name": "C#2",
          "midi": 37,
          "time": 265.4994690000005,
          "velocity": 0.5039370078740157,
          "duration": 2.4999950000000126
        },
        {
          "name": "D#3",
          "midi": 51,
          "time": 267.9994640000005,
          "velocity": 0.5039370078740157,
          "duration": 1.4999970000000076
        },
        {
          "name": "G#3",
          "midi": 56,
          "time": 267.9994640000005,
          "velocity": 0.5039370078740157,
          "duration": 1.4999970000000076
        },
        {
          "name": "C4",
          "midi": 60,
          "time": 267.9994640000005,
          "velocity": 0.5039370078740157,
          "duration": 1.4999970000000076
        },
        {
          "name": "G#2",
          "midi": 44,
          "time": 267.9994640000005,
          "velocity": 0.5039370078740157,
          "duration": 1.4999970000000076
        },
        {
          "name": "D#3",
          "midi": 51,
          "time": 269.4994610000005,
          "velocity": 0.5039370078740157,
          "duration": 2.4999950000000126
        },
        {
          "name": "G3",
          "midi": 55,
          "time": 269.4994610000005,
          "velocity": 0.5039370078740157,
          "duration": 2.4999950000000126
        },
        {
          "name": "A#3",
          "midi": 58,
          "time": 269.4994610000005,
          "velocity": 0.5039370078740157,
          "duration": 2.4999950000000126
        },
        {
          "name": "D#2",
          "midi": 39,
          "time": 269.4994610000005,
          "velocity": 0.5039370078740157,
          "duration": 2.4999950000000126
        },
        {
          "name": "F3",
          "midi": 53,
          "time": 271.9994560000005,
          "velocity": 0.5039370078740157,
          "duration": 1.4999970000000076
        },
        {
          "name": "G#3",
          "midi": 56,
          "time": 271.9994560000005,
          "velocity": 0.5039370078740157,
          "duration": 1.4999970000000076
        },
        {
          "name": "C4",
          "midi": 60,
          "time": 271.9994560000005,
          "velocity": 0.5039370078740157,
          "duration": 1.4999970000000076
        },
        {
          "name": "F2",
          "midi": 41,
          "time": 271.9994560000005,
          "velocity": 0.5039370078740157,
          "duration": 1.4999970000000076
        },
        {
          "name": "F3",
          "midi": 53,
          "time": 273.4994530000005,
          "velocity": 0.5039370078740157,
          "duration": 2.4999950000000126
        },
        {
          "name": "G#3",
          "midi": 56,
          "time": 273.4994530000005,
          "velocity": 0.5039370078740157,
          "duration": 2.4999950000000126
        },
        {
          "name": "C#4",
          "midi": 61,
          "time": 273.4994530000005,
          "velocity": 0.5039370078740157,
          "duration": 2.4999950000000126
        },
        {
          "name": "C#2",
          "midi": 37,
          "time": 273.4994530000005,
          "velocity": 0.5039370078740157,
          "duration": 2.4999950000000126
        },
        {
          "name": "D#3",
          "midi": 51,
          "time": 275.99944800000054,
          "velocity": 0.5039370078740157,
          "duration": 1.4999970000000076
        },
        {
          "name": "G3",
          "midi": 55,
          "time": 275.99944800000054,
          "velocity": 0.5039370078740157,
          "duration": 1.4999970000000076
        },
        {
          "name": "A#3",
          "midi": 58,
          "time": 275.99944800000054,
          "velocity": 0.5039370078740157,
          "duration": 1.4999970000000076
        },
        {
          "name": "D#2",
          "midi": 39,
          "time": 275.99944800000054,
          "velocity": 0.5039370078740157,
          "duration": 1.4999970000000076
        },
        {
          "name": "D#3",
          "midi": 51,
          "time": 277.49944500000055,
          "velocity": 0.5039370078740157,
          "duration": 2.4999950000000126
        },
        {
          "name": "G#3",
          "midi": 56,
          "time": 277.49944500000055,
          "velocity": 0.5039370078740157,
          "duration": 2.4999950000000126
        },
        {
          "name": "C4",
          "midi": 60,
          "time": 277.49944500000055,
          "velocity": 0.5039370078740157,
          "duration": 2.4999950000000126
        },
        {
          "name": "G#2",
          "midi": 44,
          "time": 277.49944500000055,
          "velocity": 0.5039370078740157,
          "duration": 2.4999950000000126
        },
        {
          "name": "F3",
          "midi": 53,
          "time": 279.99944000000056,
          "velocity": 0.5039370078740157,
          "duration": 1.4999970000000076
        },
        {
          "name": "G#3",
          "midi": 56,
          "time": 279.99944000000056,
          "velocity": 0.5039370078740157,
          "duration": 1.4999970000000076
        },
        {
          "name": "C4",
          "midi": 60,
          "time": 279.99944000000056,
          "velocity": 0.5039370078740157,
          "duration": 1.4999970000000076
        },
        {
          "name": "F2",
          "midi": 41,
          "time": 279.99944000000056,
          "velocity": 0.5039370078740157,
          "duration": 1.4999970000000076
        },
        {
          "name": "F3",
          "midi": 53,
          "time": 281.49943700000057,
          "velocity": 0.5039370078740157,
          "duration": 2.4999950000000126
        },
        {
          "name": "G#3",
          "midi": 56,
          "time": 281.49943700000057,
          "velocity": 0.5039370078740157,
          "duration": 2.4999950000000126
        },
        {
          "name": "C#4",
          "midi": 61,
          "time": 281.49943700000057,
          "velocity": 0.5039370078740157,
          "duration": 2.4999950000000126
        },
        {
          "name": "C#2",
          "midi": 37,
          "time": 281.49943700000057,
          "velocity": 0.5039370078740157,
          "duration": 2.4999950000000126
        },
        {
          "name": "D#3",
          "midi": 51,
          "time": 283.9994320000006,
          "velocity": 0.5039370078740157,
          "duration": 1.4999970000000076
        },
        {
          "name": "G3",
          "midi": 55,
          "time": 283.9994320000006,
          "velocity": 0.5039370078740157,
          "duration": 1.4999970000000076
        },
        {
          "name": "A#3",
          "midi": 58,
          "time": 283.9994320000006,
          "velocity": 0.5039370078740157,
          "duration": 1.4999970000000076
        },
        {
          "name": "D#2",
          "midi": 39,
          "time": 283.9994320000006,
          "velocity": 0.5039370078740157,
          "duration": 1.4999970000000076
        },
        {
          "name": "D#3",
          "midi": 51,
          "time": 285.4994290000006,
          "velocity": 0.5039370078740157,
          "duration": 2.4999950000000126
        },
        {
          "name": "G#3",
          "midi": 56,
          "time": 285.4994290000006,
          "velocity": 0.5039370078740157,
          "duration": 2.4999950000000126
        },
        {
          "name": "C4",
          "midi": 60,
          "time": 285.4994290000006,
          "velocity": 0.5039370078740157,
          "duration": 2.4999950000000126
        },
        {
          "name": "G#2",
          "midi": 44,
          "time": 285.4994290000006,
          "velocity": 0.5039370078740157,
          "duration": 2.4999950000000126
        },
        {
          "name": "F3",
          "midi": 53,
          "time": 287.9994240000006,
          "velocity": 0.5039370078740157,
          "duration": 1.4999970000000076
        },
        {
          "name": "G#3",
          "midi": 56,
          "time": 287.9994240000006,
          "velocity": 0.5039370078740157,
          "duration": 1.4999970000000076
        },
        {
          "name": "C4",
          "midi": 60,
          "time": 287.9994240000006,
          "velocity": 0.5039370078740157,
          "duration": 1.4999970000000076
        },
        {
          "name": "F2",
          "midi": 41,
          "time": 287.9994240000006,
          "velocity": 0.5039370078740157,
          "duration": 1.4999970000000076
        },
        {
          "name": "F3",
          "midi": 53,
          "time": 289.4994210000006,
          "velocity": 0.5039370078740157,
          "duration": 2.4999950000000126
        },
        {
          "name": "G#3",
          "midi": 56,
          "time": 289.4994210000006,
          "velocity": 0.5039370078740157,
          "duration": 2.4999950000000126
        },
        {
          "name": "C#4",
          "midi": 61,
          "time": 289.4994210000006,
          "velocity": 0.5039370078740157,
          "duration": 2.4999950000000126
        },
        {
          "name": "C#2",
          "midi": 37,
          "time": 289.4994210000006,
          "velocity": 0.5039370078740157,
          "duration": 2.4999950000000126
        },
        {
          "name": "D#3",
          "midi": 51,
          "time": 291.9994160000006,
          "velocity": 0.5039370078740157,
          "duration": 1.4999970000000076
        },
        {
          "name": "G3",
          "midi": 55,
          "time": 291.9994160000006,
          "velocity": 0.5039370078740157,
          "duration": 1.4999970000000076
        },
        {
          "name": "A#3",
          "midi": 58,
          "time": 291.9994160000006,
          "velocity": 0.5039370078740157,
          "duration": 1.4999970000000076
        },
        {
          "name": "D#2",
          "midi": 39,
          "time": 291.9994160000006,
          "velocity": 0.5039370078740157,
          "duration": 1.4999970000000076
        },
        {
          "name": "D#3",
          "midi": 51,
          "time": 293.49941300000063,
          "velocity": 0.5039370078740157,
          "duration": 2.4999950000000126
        },
        {
          "name": "G#3",
          "midi": 56,
          "time": 293.49941300000063,
          "velocity": 0.5039370078740157,
          "duration": 2.4999950000000126
        },
        {
          "name": "C4",
          "midi": 60,
          "time": 293.49941300000063,
          "velocity": 0.5039370078740157,
          "duration": 2.4999950000000126
        },
        {
          "name": "G#2",
          "midi": 44,
          "time": 293.49941300000063,
          "velocity": 0.5039370078740157,
          "duration": 2.4999950000000126
        },
        {
          "name": "F3",
          "midi": 53,
          "time": 295.99940800000064,
          "velocity": 0.5039370078740157,
          "duration": 1.4999970000000076
        },
        {
          "name": "G#3",
          "midi": 56,
          "time": 295.99940800000064,
          "velocity": 0.5039370078740157,
          "duration": 1.4999970000000076
        },
        {
          "name": "C4",
          "midi": 60,
          "time": 295.99940800000064,
          "velocity": 0.5039370078740157,
          "duration": 1.4999970000000076
        },
        {
          "name": "F2",
          "midi": 41,
          "time": 295.99940800000064,
          "velocity": 0.5039370078740157,
          "duration": 1.4999970000000076
        },
        {
          "name": "F3",
          "midi": 53,
          "time": 297.49940500000065,
          "velocity": 0.5039370078740157,
          "duration": 2.4999950000000126
        },
        {
          "name": "G#3",
          "midi": 56,
          "time": 297.49940500000065,
          "velocity": 0.5039370078740157,
          "duration": 2.4999950000000126
        },
        {
          "name": "C#4",
          "midi": 61,
          "time": 297.49940500000065,
          "velocity": 0.5039370078740157,
          "duration": 2.4999950000000126
        },
        {
          "name": "C#2",
          "midi": 37,
          "time": 297.49940500000065,
          "velocity": 0.5039370078740157,
          "duration": 2.4999950000000126
        },
        {
          "name": "D#3",
          "midi": 51,
          "time": 299.99940000000066,
          "velocity": 0.5039370078740157,
          "duration": 3.99999200000002
        },
        {
          "name": "G3",
          "midi": 55,
          "time": 299.99940000000066,
          "velocity": 0.5039370078740157,
          "duration": 3.99999200000002
        },
        {
          "name": "A#3",
          "midi": 58,
          "time": 299.99940000000066,
          "velocity": 0.5039370078740157,
          "duration": 3.99999200000002
        },
        {
          "name": "D#2",
          "midi": 39,
          "time": 299.99940000000066,
          "velocity": 0.5039370078740157,
          "duration": 3.99999200000002
        },
        {
          "name": "C3",
          "midi": 48,
          "time": 303.9993920000007,
          "velocity": 0.5039370078740157,
          "duration": 1.4999970000000076
        },
        {
          "name": "F3",
          "midi": 53,
          "time": 303.9993920000007,
          "velocity": 0.5039370078740157,
          "duration": 1.4999970000000076
        },
        {
          "name": "G#3",
          "midi": 56,
          "time": 303.9993920000007,
          "velocity": 0.5039370078740157,
          "duration": 1.4999970000000076
        },
        {
          "name": "F2",
          "midi": 41,
          "time": 303.9993920000007,
          "velocity": 0.5039370078740157,
          "duration": 1.4999970000000076
        },
        {
          "name": "F3",
          "midi": 53,
          "time": 305.4993890000007,
          "velocity": 0.5039370078740157,
          "duration": 2.4999950000000126
        },
        {
          "name": "G#3",
          "midi": 56,
          "time": 305.4993890000007,
          "velocity": 0.5039370078740157,
          "duration": 2.4999950000000126
        },
        {
          "name": "C#4",
          "midi": 61,
          "time": 305.4993890000007,
          "velocity": 0.5039370078740157,
          "duration": 2.4999950000000126
        },
        {
          "name": "C#2",
          "midi": 37,
          "time": 305.4993890000007,
          "velocity": 0.5039370078740157,
          "duration": 2.4999950000000126
        },
        {
          "name": "D#3",
          "midi": 51,
          "time": 307.9993840000007,
          "velocity": 0.5039370078740157,
          "duration": 1.4999970000000076
        },
        {
          "name": "G#3",
          "midi": 56,
          "time": 307.9993840000007,
          "velocity": 0.5039370078740157,
          "duration": 1.4999970000000076
        },
        {
          "name": "C4",
          "midi": 60,
          "time": 307.9993840000007,
          "velocity": 0.5039370078740157,
          "duration": 1.4999970000000076
        },
        {
          "name": "G#2",
          "midi": 44,
          "time": 307.9993840000007,
          "velocity": 0.5039370078740157,
          "duration": 1.4999970000000076
        },
        {
          "name": "D#3",
          "midi": 51,
          "time": 309.4993810000007,
          "velocity": 0.5039370078740157,
          "duration": 2.4999950000000126
        },
        {
          "name": "G3",
          "midi": 55,
          "time": 309.4993810000007,
          "velocity": 0.5039370078740157,
          "duration": 2.4999950000000126
        },
        {
          "name": "A#3",
          "midi": 58,
          "time": 309.4993810000007,
          "velocity": 0.5039370078740157,
          "duration": 2.4999950000000126
        },
        {
          "name": "D#2",
          "midi": 39,
          "time": 309.4993810000007,
          "velocity": 0.5039370078740157,
          "duration": 2.4999950000000126
        },
        {
          "name": "C3",
          "midi": 48,
          "time": 311.9993760000007,
          "velocity": 0.5039370078740157,
          "duration": 1.4999970000000076
        },
        {
          "name": "F3",
          "midi": 53,
          "time": 311.9993760000007,
          "velocity": 0.5039370078740157,
          "duration": 1.4999970000000076
        },
        {
          "name": "G#3",
          "midi": 56,
          "time": 311.9993760000007,
          "velocity": 0.5039370078740157,
          "duration": 1.4999970000000076
        },
        {
          "name": "F2",
          "midi": 41,
          "time": 311.9993760000007,
          "velocity": 0.5039370078740157,
          "duration": 1.4999970000000076
        },
        {
          "name": "F3",
          "midi": 53,
          "time": 313.49937300000073,
          "velocity": 0.5039370078740157,
          "duration": 2.4999950000000126
        },
        {
          "name": "G#3",
          "midi": 56,
          "time": 313.49937300000073,
          "velocity": 0.5039370078740157,
          "duration": 2.4999950000000126
        },
        {
          "name": "C#4",
          "midi": 61,
          "time": 313.49937300000073,
          "velocity": 0.5039370078740157,
          "duration": 2.4999950000000126
        },
        {
          "name": "C#2",
          "midi": 37,
          "time": 313.49937300000073,
          "velocity": 0.5039370078740157,
          "duration": 2.4999950000000126
        },
        {
          "name": "D#3",
          "midi": 51,
          "time": 315.99936800000074,
          "velocity": 0.5039370078740157,
          "duration": 1.4999970000000076
        },
        {
          "name": "G#3",
          "midi": 56,
          "time": 315.99936800000074,
          "velocity": 0.5039370078740157,
          "duration": 1.4999970000000076
        },
        {
          "name": "C4",
          "midi": 60,
          "time": 315.99936800000074,
          "velocity": 0.5039370078740157,
          "duration": 1.4999970000000076
        },
        {
          "name": "G#2",
          "midi": 44,
          "time": 315.99936800000074,
          "velocity": 0.5039370078740157,
          "duration": 1.4999970000000076
        },
        {
          "name": "D#3",
          "midi": 51,
          "time": 317.49936500000075,
          "velocity": 0.5039370078740157,
          "duration": 2.4999950000000126
        },
        {
          "name": "G3",
          "midi": 55,
          "time": 317.49936500000075,
          "velocity": 0.5039370078740157,
          "duration": 2.4999950000000126
        },
        {
          "name": "A#3",
          "midi": 58,
          "time": 317.49936500000075,
          "velocity": 0.5039370078740157,
          "duration": 2.4999950000000126
        },
        {
          "name": "D#2",
          "midi": 39,
          "time": 317.49936500000075,
          "velocity": 0.5039370078740157,
          "duration": 2.4999950000000126
        },
        {
          "name": "C3",
          "midi": 48,
          "time": 319.99936000000076,
          "velocity": 0.5039370078740157,
          "duration": 1.4999970000000076
        },
        {
          "name": "F3",
          "midi": 53,
          "time": 319.99936000000076,
          "velocity": 0.5039370078740157,
          "duration": 1.4999970000000076
        },
        {
          "name": "G#3",
          "midi": 56,
          "time": 319.99936000000076,
          "velocity": 0.5039370078740157,
          "duration": 1.4999970000000076
        },
        {
          "name": "F2",
          "midi": 41,
          "time": 319.99936000000076,
          "velocity": 0.5039370078740157,
          "duration": 1.4999970000000076
        },
        {
          "name": "F3",
          "midi": 53,
          "time": 321.49935700000077,
          "velocity": 0.5039370078740157,
          "duration": 2.4999950000000126
        },
        {
          "name": "G#3",
          "midi": 56,
          "time": 321.49935700000077,
          "velocity": 0.5039370078740157,
          "duration": 2.4999950000000126
        },
        {
          "name": "C#4",
          "midi": 61,
          "time": 321.49935700000077,
          "velocity": 0.5039370078740157,
          "duration": 2.4999950000000126
        },
        {
          "name": "C#2",
          "midi": 37,
          "time": 321.49935700000077,
          "velocity": 0.5039370078740157,
          "duration": 2.4999950000000126
        },
        {
          "name": "D#3",
          "midi": 51,
          "time": 323.9993520000008,
          "velocity": 0.5039370078740157,
          "duration": 1.4999970000000076
        },
        {
          "name": "G#3",
          "midi": 56,
          "time": 323.9993520000008,
          "velocity": 0.5039370078740157,
          "duration": 1.4999970000000076
        },
        {
          "name": "C4",
          "midi": 60,
          "time": 323.9993520000008,
          "velocity": 0.5039370078740157,
          "duration": 1.4999970000000076
        },
        {
          "name": "G#2",
          "midi": 44,
          "time": 323.9993520000008,
          "velocity": 0.5039370078740157,
          "duration": 1.4999970000000076
        },
        {
          "name": "D#3",
          "midi": 51,
          "time": 325.4993490000008,
          "velocity": 0.5039370078740157,
          "duration": 2.4999950000000126
        },
        {
          "name": "G3",
          "midi": 55,
          "time": 325.4993490000008,
          "velocity": 0.5039370078740157,
          "duration": 2.4999950000000126
        },
        {
          "name": "A#3",
          "midi": 58,
          "time": 325.4993490000008,
          "velocity": 0.5039370078740157,
          "duration": 2.4999950000000126
        },
        {
          "name": "D#2",
          "midi": 39,
          "time": 325.4993490000008,
          "velocity": 0.5039370078740157,
          "duration": 2.4999950000000126
        },
        {
          "name": "C3",
          "midi": 48,
          "time": 327.9993440000008,
          "velocity": 0.5039370078740157,
          "duration": 1.4999970000000076
        },
        {
          "name": "F3",
          "midi": 53,
          "time": 327.9993440000008,
          "velocity": 0.5039370078740157,
          "duration": 1.4999970000000076
        },
        {
          "name": "G#3",
          "midi": 56,
          "time": 327.9993440000008,
          "velocity": 0.5039370078740157,
          "duration": 1.4999970000000076
        },
        {
          "name": "F2",
          "midi": 41,
          "time": 327.9993440000008,
          "velocity": 0.5039370078740157,
          "duration": 1.4999970000000076
        },
        {
          "name": "F3",
          "midi": 53,
          "time": 329.4993410000008,
          "velocity": 0.5039370078740157,
          "duration": 2.4999950000000126
        },
        {
          "name": "G#3",
          "midi": 56,
          "time": 329.4993410000008,
          "velocity": 0.5039370078740157,
          "duration": 2.4999950000000126
        },
        {
          "name": "C#4",
          "midi": 61,
          "time": 329.4993410000008,
          "velocity": 0.5039370078740157,
          "duration": 2.4999950000000126
        },
        {
          "name": "C#2",
          "midi": 37,
          "time": 329.4993410000008,
          "velocity": 0.5039370078740157,
          "duration": 2.4999950000000126
        },
        {
          "name": "D#3",
          "midi": 51,
          "time": 331.9993360000008,
          "velocity": 0.5039370078740157,
          "duration": 1.4999970000000076
        },
        {
          "name": "G#3",
          "midi": 56,
          "time": 331.9993360000008,
          "velocity": 0.5039370078740157,
          "duration": 1.4999970000000076
        },
        {
          "name": "C4",
          "midi": 60,
          "time": 331.9993360000008,
          "velocity": 0.5039370078740157,
          "duration": 1.4999970000000076
        },
        {
          "name": "G#2",
          "midi": 44,
          "time": 331.9993360000008,
          "velocity": 0.5039370078740157,
          "duration": 1.4999970000000076
        },
        {
          "name": "D#3",
          "midi": 51,
          "time": 333.49933300000083,
          "velocity": 0.5039370078740157,
          "duration": 2.4999950000000126
        },
        {
          "name": "G3",
          "midi": 55,
          "time": 333.49933300000083,
          "velocity": 0.5039370078740157,
          "duration": 2.4999950000000126
        },
        {
          "name": "A#3",
          "midi": 58,
          "time": 333.49933300000083,
          "velocity": 0.5039370078740157,
          "duration": 2.4999950000000126
        },
        {
          "name": "D#2",
          "midi": 39,
          "time": 333.49933300000083,
          "velocity": 0.5039370078740157,
          "duration": 2.4999950000000126
        },
        {
          "name": "C3",
          "midi": 48,
          "time": 335.99932800000084,
          "velocity": 0.5039370078740157,
          "duration": 1.4999970000000076
        },
        {
          "name": "F3",
          "midi": 53,
          "time": 335.99932800000084,
          "velocity": 0.5039370078740157,
          "duration": 1.4999970000000076
        },
        {
          "name": "G#3",
          "midi": 56,
          "time": 335.99932800000084,
          "velocity": 0.5039370078740157,
          "duration": 1.4999970000000076
        },
        {
          "name": "F2",
          "midi": 41,
          "time": 335.99932800000084,
          "velocity": 0.5039370078740157,
          "duration": 1.4999970000000076
        },
        {
          "name": "F3",
          "midi": 53,
          "time": 337.49932500000085,
          "velocity": 0.5039370078740157,
          "duration": 2.4999950000000126
        },
        {
          "name": "G#3",
          "midi": 56,
          "time": 337.49932500000085,
          "velocity": 0.5039370078740157,
          "duration": 2.4999950000000126
        },
        {
          "name": "C#4",
          "midi": 61,
          "time": 337.49932500000085,
          "velocity": 0.5039370078740157,
          "duration": 2.4999950000000126
        },
        {
          "name": "C#2",
          "midi": 37,
          "time": 337.49932500000085,
          "velocity": 0.5039370078740157,
          "duration": 2.4999950000000126
        },
        {
          "name": "D#3",
          "midi": 51,
          "time": 339.99932000000086,
          "velocity": 0.5039370078740157,
          "duration": 1.4999970000000076
        },
        {
          "name": "G#3",
          "midi": 56,
          "time": 339.99932000000086,
          "velocity": 0.5039370078740157,
          "duration": 1.4999970000000076
        },
        {
          "name": "C4",
          "midi": 60,
          "time": 339.99932000000086,
          "velocity": 0.5039370078740157,
          "duration": 1.4999970000000076
        },
        {
          "name": "G#2",
          "midi": 44,
          "time": 339.99932000000086,
          "velocity": 0.5039370078740157,
          "duration": 1.4999970000000076
        },
        {
          "name": "D#3",
          "midi": 51,
          "time": 341.4993170000009,
          "velocity": 0.5039370078740157,
          "duration": 2.4999950000000126
        },
        {
          "name": "G3",
          "midi": 55,
          "time": 341.4993170000009,
          "velocity": 0.5039370078740157,
          "duration": 2.4999950000000126
        },
        {
          "name": "A#3",
          "midi": 58,
          "time": 341.4993170000009,
          "velocity": 0.5039370078740157,
          "duration": 2.4999950000000126
        },
        {
          "name": "D#2",
          "midi": 39,
          "time": 341.4993170000009,
          "velocity": 0.5039370078740157,
          "duration": 2.4999950000000126
        },
        {
          "name": "C3",
          "midi": 48,
          "time": 343.9993120000009,
          "velocity": 0.5039370078740157,
          "duration": 1.4999970000000076
        },
        {
          "name": "F3",
          "midi": 53,
          "time": 343.9993120000009,
          "velocity": 0.5039370078740157,
          "duration": 1.4999970000000076
        },
        {
          "name": "G#3",
          "midi": 56,
          "time": 343.9993120000009,
          "velocity": 0.5039370078740157,
          "duration": 1.4999970000000076
        },
        {
          "name": "F2",
          "midi": 41,
          "time": 343.9993120000009,
          "velocity": 0.5039370078740157,
          "duration": 1.4999970000000076
        },
        {
          "name": "F3",
          "midi": 53,
          "time": 345.4993090000009,
          "velocity": 0.5039370078740157,
          "duration": 2.4999950000000126
        },
        {
          "name": "G#3",
          "midi": 56,
          "time": 345.4993090000009,
          "velocity": 0.5039370078740157,
          "duration": 2.4999950000000126
        },
        {
          "name": "C#4",
          "midi": 61,
          "time": 345.4993090000009,
          "velocity": 0.5039370078740157,
          "duration": 2.4999950000000126
        },
        {
          "name": "C#2",
          "midi": 37,
          "time": 345.4993090000009,
          "velocity": 0.5039370078740157,
          "duration": 2.4999950000000126
        },
        {
          "name": "D#3",
          "midi": 51,
          "time": 347.9993040000009,
          "velocity": 0.5039370078740157,
          "duration": 1.4999970000000076
        },
        {
          "name": "G#3",
          "midi": 56,
          "time": 347.9993040000009,
          "velocity": 0.5039370078740157,
          "duration": 1.4999970000000076
        },
        {
          "name": "C4",
          "midi": 60,
          "time": 347.9993040000009,
          "velocity": 0.5039370078740157,
          "duration": 1.4999970000000076
        },
        {
          "name": "G#2",
          "midi": 44,
          "time": 347.9993040000009,
          "velocity": 0.5039370078740157,
          "duration": 1.4999970000000076
        },
        {
          "name": "D#3",
          "midi": 51,
          "time": 349.4993010000009,
          "velocity": 0.5039370078740157,
          "duration": 2.4999950000000126
        },
        {
          "name": "G3",
          "midi": 55,
          "time": 349.4993010000009,
          "velocity": 0.5039370078740157,
          "duration": 2.4999950000000126
        },
        {
          "name": "A#3",
          "midi": 58,
          "time": 349.4993010000009,
          "velocity": 0.5039370078740157,
          "duration": 2.4999950000000126
        },
        {
          "name": "D#2",
          "midi": 39,
          "time": 349.4993010000009,
          "velocity": 0.5039370078740157,
          "duration": 2.4999950000000126
        },
        {
          "name": "C3",
          "midi": 48,
          "time": 351.9992960000009,
          "velocity": 0.5039370078740157,
          "duration": 1.4999970000000076
        },
        {
          "name": "F3",
          "midi": 53,
          "time": 351.9992960000009,
          "velocity": 0.5039370078740157,
          "duration": 1.4999970000000076
        },
        {
          "name": "G#3",
          "midi": 56,
          "time": 351.9992960000009,
          "velocity": 0.5039370078740157,
          "duration": 1.4999970000000076
        },
        {
          "name": "F2",
          "midi": 41,
          "time": 351.9992960000009,
          "velocity": 0.5039370078740157,
          "duration": 1.4999970000000076
        },
        {
          "name": "F3",
          "midi": 53,
          "time": 353.49929300000093,
          "velocity": 0.5039370078740157,
          "duration": 2.4999950000000126
        },
        {
          "name": "G#3",
          "midi": 56,
          "time": 353.49929300000093,
          "velocity": 0.5039370078740157,
          "duration": 2.4999950000000126
        },
        {
          "name": "C#4",
          "midi": 61,
          "time": 353.49929300000093,
          "velocity": 0.5039370078740157,
          "duration": 2.4999950000000126
        },
        {
          "name": "C#2",
          "midi": 37,
          "time": 353.49929300000093,
          "velocity": 0.5039370078740157,
          "duration": 2.4999950000000126
        },
        {
          "name": "D#3",
          "midi": 51,
          "time": 355.99928800000094,
          "velocity": 0.5039370078740157,
          "duration": 1.4999970000000076
        },
        {
          "name": "G#3",
          "midi": 56,
          "time": 355.99928800000094,
          "velocity": 0.5039370078740157,
          "duration": 1.4999970000000076
        },
        {
          "name": "C4",
          "midi": 60,
          "time": 355.99928800000094,
          "velocity": 0.5039370078740157,
          "duration": 1.4999970000000076
        },
        {
          "name": "G#2",
          "midi": 44,
          "time": 355.99928800000094,
          "velocity": 0.5039370078740157,
          "duration": 1.4999970000000076
        },
        {
          "name": "D#3",
          "midi": 51,
          "time": 357.49928500000095,
          "velocity": 0.5039370078740157,
          "duration": 2.4999950000000126
        },
        {
          "name": "G3",
          "midi": 55,
          "time": 357.49928500000095,
          "velocity": 0.5039370078740157,
          "duration": 2.4999950000000126
        },
        {
          "name": "A#3",
          "midi": 58,
          "time": 357.49928500000095,
          "velocity": 0.5039370078740157,
          "duration": 2.4999950000000126
        },
        {
          "name": "D#2",
          "midi": 39,
          "time": 357.49928500000095,
          "velocity": 0.5039370078740157,
          "duration": 2.4999950000000126
        },
        {
          "name": "C3",
          "midi": 48,
          "time": 359.99928000000097,
          "velocity": 0.5039370078740157,
          "duration": 1.4999970000000076
        },
        {
          "name": "F3",
          "midi": 53,
          "time": 359.99928000000097,
          "velocity": 0.5039370078740157,
          "duration": 1.4999970000000076
        },
        {
          "name": "G#3",
          "midi": 56,
          "time": 359.99928000000097,
          "velocity": 0.5039370078740157,
          "duration": 1.4999970000000076
        },
        {
          "name": "F2",
          "midi": 41,
          "time": 359.99928000000097,
          "velocity": 0.5039370078740157,
          "duration": 1.4999970000000076
        },
        {
          "name": "F3",
          "midi": 53,
          "time": 361.499277000001,
          "velocity": 0.5039370078740157,
          "duration": 2.4999950000000126
        },
        {
          "name": "G#3",
          "midi": 56,
          "time": 361.499277000001,
          "velocity": 0.5039370078740157,
          "duration": 2.4999950000000126
        },
        {
          "name": "C#4",
          "midi": 61,
          "time": 361.499277000001,
          "velocity": 0.5039370078740157,
          "duration": 2.4999950000000126
        },
        {
          "name": "C#2",
          "midi": 37,
          "time": 361.499277000001,
          "velocity": 0.5039370078740157,
          "duration": 2.4999950000000126
        },
        {
          "name": "D#3",
          "midi": 51,
          "time": 363.999272000001,
          "velocity": 0.5039370078740157,
          "duration": 1.4999970000000076
        },
        {
          "name": "G#3",
          "midi": 56,
          "time": 363.999272000001,
          "velocity": 0.5039370078740157,
          "duration": 1.4999970000000076
        },
        {
          "name": "C4",
          "midi": 60,
          "time": 363.999272000001,
          "velocity": 0.5039370078740157,
          "duration": 1.4999970000000076
        },
        {
          "name": "G#2",
          "midi": 44,
          "time": 363.999272000001,
          "velocity": 0.5039370078740157,
          "duration": 1.4999970000000076
        },
        {
          "name": "D#3",
          "midi": 51,
          "time": 365.499269000001,
          "velocity": 0.5039370078740157,
          "duration": 2.4999950000000126
        },
        {
          "name": "G3",
          "midi": 55,
          "time": 365.499269000001,
          "velocity": 0.5039370078740157,
          "duration": 2.4999950000000126
        },
        {
          "name": "A#3",
          "midi": 58,
          "time": 365.499269000001,
          "velocity": 0.5039370078740157,
          "duration": 2.4999950000000126
        },
        {
          "name": "D#2",
          "midi": 39,
          "time": 365.499269000001,
          "velocity": 0.5039370078740157,
          "duration": 2.4999950000000126
        },
        {
          "name": "F3",
          "midi": 53,
          "time": 367.999264000001,
          "velocity": 0.5039370078740157,
          "duration": 1.4999970000000076
        },
        {
          "name": "G#3",
          "midi": 56,
          "time": 367.999264000001,
          "velocity": 0.5039370078740157,
          "duration": 1.4999970000000076
        },
        {
          "name": "C4",
          "midi": 60,
          "time": 367.999264000001,
          "velocity": 0.5039370078740157,
          "duration": 1.4999970000000076
        },
        {
          "name": "F2",
          "midi": 41,
          "time": 367.999264000001,
          "velocity": 0.5039370078740157,
          "duration": 1.4999970000000076
        },
        {
          "name": "D#3",
          "midi": 51,
          "time": 369.499261000001,
          "velocity": 0.5039370078740157,
          "duration": 2.4999950000000126
        },
        {
          "name": "G#3",
          "midi": 56,
          "time": 369.499261000001,
          "velocity": 0.5039370078740157,
          "duration": 2.4999950000000126
        },
        {
          "name": "C4",
          "midi": 60,
          "time": 369.499261000001,
          "velocity": 0.5039370078740157,
          "duration": 2.4999950000000126
        },
        {
          "name": "G#2",
          "midi": 44,
          "time": 369.499261000001,
          "velocity": 0.5039370078740157,
          "duration": 2.4999950000000126
        },
        {
          "name": "D#3",
          "midi": 51,
          "time": 371.999256000001,
          "velocity": 0.5039370078740157,
          "duration": 1.4999970000000076
        },
        {
          "name": "G3",
          "midi": 55,
          "time": 371.999256000001,
          "velocity": 0.5039370078740157,
          "duration": 1.4999970000000076
        },
        {
          "name": "A#3",
          "midi": 58,
          "time": 371.999256000001,
          "velocity": 0.5039370078740157,
          "duration": 1.4999970000000076
        },
        {
          "name": "D#2",
          "midi": 39,
          "time": 371.999256000001,
          "velocity": 0.5039370078740157,
          "duration": 1.4999970000000076
        },
        {
          "name": "C#3",
          "midi": 49,
          "time": 373.49925300000103,
          "velocity": 0.5039370078740157,
          "duration": 2.4999950000000126
        },
        {
          "name": "F3",
          "midi": 53,
          "time": 373.49925300000103,
          "velocity": 0.5039370078740157,
          "duration": 2.4999950000000126
        },
        {
          "name": "G#3",
          "midi": 56,
          "time": 373.49925300000103,
          "velocity": 0.5039370078740157,
          "duration": 2.4999950000000126
        },
        {
          "name": "C#2",
          "midi": 37,
          "time": 373.49925300000103,
          "velocity": 0.5039370078740157,
          "duration": 2.4999950000000126
        },
        {
          "name": "C3",
          "midi": 48,
          "time": 375.99924800000105,
          "velocity": 0.5039370078740157,
          "duration": 3.99999200000002
        },
        {
          "name": "F3",
          "midi": 53,
          "time": 375.99924800000105,
          "velocity": 0.5039370078740157,
          "duration": 3.99999200000002
        },
        {
          "name": "G#3",
          "midi": 56,
          "time": 375.99924800000105,
          "velocity": 0.5039370078740157,
          "duration": 3.99999200000002
        },
        {
          "name": "F2",
          "midi": 41,
          "time": 375.99924800000105,
          "velocity": 0.5039370078740157,
          "duration": 3.99999200000002
        }
      ],
      "controlChanges": {
        "7": [
          {
            "number": 7,
            "time": 0,
            "value": 0.7952755905511811
          }
        ],
        "10": [
          {
            "number": 10,
            "time": 0,
            "value": 0.5039370078740157
          }
        ],
        "32": [
          {
            "number": 32,
            "time": 0,
            "value": 0
          }
        ]
      }
    }
  ]
}
