{
  "header": {
    "PPQ": 480,
    "bpm": 136.0001450668214,
    "timeSignature": [
      4,
      4
    ],
    "name": "Plug In Baby"
  },
  "startTime": 0,
  "duration": 199.4115519999991,
  "tracks": [
    {
      "startTime": 0,
      "duration": 0,
      "length": 0,
      "id": 0,
      "name": "Plug In Baby"
    },
    {
      "startTime": 0,
      "duration": 199.411551999999,
      "length": 1585,
      "id": 1,
      "name": "Guitar 1",
      "instrumentNumber": 30,
      "instrument": "distortion guitar",
      "instrumentFamily": "guitar",
      "channelNumber": 0,
      "isPercussion": false,
      "notes": [
        {
          "name": "G#3",
          "midi": 56,
          "time": 0,
          "velocity": 0.7480314960629921,
          "duration": 1.764704
        },
        {
          "name": "A#3",
          "midi": 58,
          "time": 1.764704,
          "velocity": 0.7480314960629921,
          "duration": 0.220588
        },
        {
          "name": "B3",
          "midi": 59,
          "time": 1.985292,
          "velocity": 0.7480314960629921,
          "duration": 0.220588
        },
        {
          "name": "C#4",
          "midi": 61,
          "time": 2.20588,
          "velocity": 0.7480314960629921,
          "duration": 0.22058799999999978
        },
        {
          "name": "A#3",
          "midi": 58,
          "time": 2.426468,
          "velocity": 0.7480314960629921,
          "duration": 0.22058800000000023
        },
        {
          "name": "B3",
          "midi": 59,
          "time": 2.647056,
          "velocity": 0.7480314960629921,
          "duration": 0.22058800000000023
        },
        {
          "name": "C#4",
          "midi": 61,
          "time": 2.8676440000000003,
          "velocity": 0.7480314960629921,
          "duration": 0.22058800000000023
        },
        {
          "name": "D4",
          "midi": 62,
          "time": 3.0882320000000005,
          "velocity": 0.7480314960629921,
          "duration": 0.22058800000000023
        },
        {
          "name": "B3",
          "midi": 59,
          "time": 3.3088200000000008,
          "velocity": 0.7480314960629921,
          "duration": 0.22058800000000023
        },
        {
          "name": "C#4",
          "midi": 61,
          "time": 3.529408000000001,
          "velocity": 0.7480314960629921,
          "duration": 0.22058800000000023
        },
        {
          "name": "D4",
          "midi": 62,
          "time": 3.749996000000001,
          "velocity": 0.7480314960629921,
          "duration": 0.22058800000000023
        },
        {
          "name": "E4",
          "midi": 64,
          "time": 3.9705840000000014,
          "velocity": 0.7480314960629921,
          "duration": 0.22058800000000023
        },
        {
          "name": "F#4",
          "midi": 66,
          "time": 4.191172000000002,
          "velocity": 0.7480314960629921,
          "duration": 0.11029399999999967
        },
        {
          "name": "G4",
          "midi": 67,
          "time": 4.301466000000001,
          "velocity": 0.5984251968503937,
          "duration": 0.11029399999999967
        },
        {
          "name": "F#4",
          "midi": 66,
          "time": 4.411760000000001,
          "velocity": 0.5984251968503937,
          "duration": 0.22058800000000023
        },
        {
          "name": "E4",
          "midi": 64,
          "time": 4.632348000000001,
          "velocity": 0.7480314960629921,
          "duration": 0.22058800000000023
        },
        {
          "name": "D4",
          "midi": 62,
          "time": 4.8529360000000015,
          "velocity": 0.7480314960629921,
          "duration": 0.22058800000000023
        },
        {
          "name": "C#4",
          "midi": 61,
          "time": 5.073524000000002,
          "velocity": 0.7480314960629921,
          "duration": 0.22058800000000023
        },
        {
          "name": "B3",
          "midi": 59,
          "time": 5.294112000000002,
          "velocity": 0.7480314960629921,
          "duration": 0.22058800000000023
        },
        {
          "name": "C#4",
          "midi": 61,
          "time": 5.514700000000002,
          "velocity": 0.7480314960629921,
          "duration": 0.22058800000000023
        },
        {
          "name": "D4",
          "midi": 62,
          "time": 5.735288000000002,
          "velocity": 0.7480314960629921,
          "duration": 0.22058800000000023
        },
        {
          "name": "B3",
          "midi": 59,
          "time": 5.955876000000003,
          "velocity": 0.7480314960629921,
          "duration": 0.22058800000000023
        },
        {
          "name": "C#4",
          "midi": 61,
          "time": 6.176464000000003,
          "velocity": 0.7480314960629921,
          "duration": 0.22058800000000023
        },
        {
          "name": "D4",
          "midi": 62,
          "time": 6.397052000000003,
          "velocity": 0.7480314960629921,
          "duration": 0.22058800000000023
        },
        {
          "name": "E4",
          "midi": 64,
          "time": 6.617640000000003,
          "velocity": 0.7480314960629921,
          "duration": 0.22058800000000023
        },
        {
          "name": "C#4",
          "midi": 61,
          "time": 6.8382280000000035,
          "velocity": 0.7480314960629921,
          "duration": 0.22058800000000023
        },
        {
          "name": "D4",
          "midi": 62,
          "time": 7.058816000000004,
          "velocity": 0.7480314960629921,
          "duration": 0.22058800000000023
        },
        {
          "name": "E4",
          "midi": 64,
          "time": 7.279404000000004,
          "velocity": 0.7480314960629921,
          "duration": 0.22058800000000023
        },
        {
          "name": "F#4",
          "midi": 66,
          "time": 7.499992000000004,
          "velocity": 0.7480314960629921,
          "duration": 0.22058800000000023
        },
        {
          "name": "F#4",
          "midi": 66,
          "time": 7.720580000000004,
          "velocity": 0.7480314960629921,
          "duration": 0.11029399999999967
        },
        {
          "name": "G4",
          "midi": 67,
          "time": 7.830874000000004,
          "velocity": 0.5984251968503937,
          "duration": 0.11029399999999967
        },
        {
          "name": "F#4",
          "midi": 66,
          "time": 7.941168000000004,
          "velocity": 0.5984251968503937,
          "duration": 0.22058800000000023
        },
        {
          "name": "F4",
          "midi": 65,
          "time": 8.161756000000004,
          "velocity": 0.7480314960629921,
          "duration": 0.22058799999999934
        },
        {
          "name": "F#4",
          "midi": 66,
          "time": 8.382344000000003,
          "velocity": 0.7480314960629921,
          "duration": 0.22058799999999934
        },
        {
          "name": "F4",
          "midi": 65,
          "time": 8.602932000000003,
          "velocity": 0.7480314960629921,
          "duration": 0.22058799999999934
        },
        {
          "name": "F#4",
          "midi": 66,
          "time": 8.823520000000002,
          "velocity": 0.7480314960629921,
          "duration": 1.1029399999999967
        },
        {
          "name": "D4",
          "midi": 62,
          "time": 9.044108000000001,
          "velocity": 0.7480314960629921,
          "duration": 0.8823519999999974
        },
        {
          "name": "A3",
          "midi": 57,
          "time": 9.264696,
          "velocity": 0.7480314960629921,
          "duration": 0.22058799999999934
        },
        {
          "name": "F#3",
          "midi": 54,
          "time": 9.485284,
          "velocity": 0.7480314960629921,
          "duration": 0.661763999999998
        },
        {
          "name": "A3",
          "midi": 57,
          "time": 9.705872,
          "velocity": 0.7480314960629921,
          "duration": 0.4411759999999987
        },
        {
          "name": "D4",
          "midi": 62,
          "time": 9.926459999999999,
          "velocity": 0.7480314960629921,
          "duration": 0.22058799999999934
        },
        {
          "name": "F#4",
          "midi": 66,
          "time": 10.147047999999998,
          "velocity": 0.7480314960629921,
          "duration": 0.22058799999999934
        },
        {
          "name": "G#4",
          "midi": 68,
          "time": 10.367635999999997,
          "velocity": 0.7480314960629921,
          "duration": 0.22058799999999934
        },
        {
          "name": "G#4",
          "midi": 68,
          "time": 10.588223999999997,
          "velocity": 0.7480314960629921,
          "duration": 0.4411759999999987
        },
        {
          "name": "F#4",
          "midi": 66,
          "time": 11.029399999999995,
          "velocity": 0.7480314960629921,
          "duration": 0.22058799999999934
        },
        {
          "name": "F4",
          "midi": 65,
          "time": 11.249987999999995,
          "velocity": 0.7480314960629921,
          "duration": 0.22058799999999934
        },
        {
          "name": "F#4",
          "midi": 66,
          "time": 11.470575999999994,
          "velocity": 0.7480314960629921,
          "duration": 0.22058799999999934
        },
        {
          "name": "D4",
          "midi": 62,
          "time": 11.691163999999993,
          "velocity": 0.7480314960629921,
          "duration": 0.22058799999999934
        },
        {
          "name": "C#4",
          "midi": 61,
          "time": 11.911751999999993,
          "velocity": 0.7480314960629921,
          "duration": 0.22058799999999934
        },
        {
          "name": "D4",
          "midi": 62,
          "time": 12.132339999999992,
          "velocity": 0.7480314960629921,
          "duration": 0.22058799999999934
        },
        {
          "name": "A#3",
          "midi": 58,
          "time": 12.352927999999991,
          "velocity": 0.7480314960629921,
          "duration": 0.22058799999999934
        },
        {
          "name": "B3",
          "midi": 59,
          "time": 12.57351599999999,
          "velocity": 0.7480314960629921,
          "duration": 0.22058799999999934
        },
        {
          "name": "C#4",
          "midi": 61,
          "time": 12.79410399999999,
          "velocity": 0.7480314960629921,
          "duration": 0.22058799999999934
        },
        {
          "name": "A#3",
          "midi": 58,
          "time": 13.01469199999999,
          "velocity": 0.7480314960629921,
          "duration": 0.22058799999999934
        },
        {
          "name": "B3",
          "midi": 59,
          "time": 13.235279999999989,
          "velocity": 0.7480314960629921,
          "duration": 0.22058799999999934
        },
        {
          "name": "C#4",
          "midi": 61,
          "time": 13.455867999999988,
          "velocity": 0.7480314960629921,
          "duration": 0.22058799999999934
        },
        {
          "name": "D4",
          "midi": 62,
          "time": 13.676455999999988,
          "velocity": 0.7480314960629921,
          "duration": 0.22058799999999934
        },
        {
          "name": "B3",
          "midi": 59,
          "time": 13.897043999999987,
          "velocity": 0.7480314960629921,
          "duration": 0.22058799999999934
        },
        {
          "name": "C#4",
          "midi": 61,
          "time": 14.117631999999986,
          "velocity": 0.7480314960629921,
          "duration": 0.22058799999999934
        },
        {
          "name": "D4",
          "midi": 62,
          "time": 14.338219999999986,
          "velocity": 0.7480314960629921,
          "duration": 0.22058799999999934
        },
        {
          "name": "E4",
          "midi": 64,
          "time": 14.558807999999985,
          "velocity": 0.7480314960629921,
          "duration": 0.22058799999999934
        },
        {
          "name": "F#4",
          "midi": 66,
          "time": 14.779395999999984,
          "velocity": 0.7480314960629921,
          "duration": 0.11029399999999967
        },
        {
          "name": "G4",
          "midi": 67,
          "time": 14.889689999999984,
          "velocity": 0.5984251968503937,
          "duration": 0.11029399999999967
        },
        {
          "name": "F#4",
          "midi": 66,
          "time": 14.999983999999984,
          "velocity": 0.5984251968503937,
          "duration": 0.22058799999999934
        },
        {
          "name": "E4",
          "midi": 64,
          "time": 15.220571999999983,
          "velocity": 0.7480314960629921,
          "duration": 0.22058799999999934
        },
        {
          "name": "D4",
          "midi": 62,
          "time": 15.441159999999982,
          "velocity": 0.7480314960629921,
          "duration": 0.22058799999999934
        },
        {
          "name": "C#4",
          "midi": 61,
          "time": 15.661747999999982,
          "velocity": 0.7480314960629921,
          "duration": 0.22058799999999934
        },
        {
          "name": "B3",
          "midi": 59,
          "time": 15.882335999999981,
          "velocity": 0.7480314960629921,
          "duration": 0.22058799999999934
        },
        {
          "name": "C#4",
          "midi": 61,
          "time": 16.10292399999998,
          "velocity": 0.7480314960629921,
          "duration": 0.22058799999999934
        },
        {
          "name": "D4",
          "midi": 62,
          "time": 16.32351199999998,
          "velocity": 0.7480314960629921,
          "duration": 0.22058799999999934
        },
        {
          "name": "B3",
          "midi": 59,
          "time": 16.54409999999998,
          "velocity": 0.7480314960629921,
          "duration": 0.22058799999999934
        },
        {
          "name": "C#4",
          "midi": 61,
          "time": 16.76468799999998,
          "velocity": 0.7480314960629921,
          "duration": 0.22058799999999934
        },
        {
          "name": "D4",
          "midi": 62,
          "time": 16.985275999999978,
          "velocity": 0.7480314960629921,
          "duration": 0.22058799999999934
        },
        {
          "name": "E4",
          "midi": 64,
          "time": 17.205863999999977,
          "velocity": 0.7480314960629921,
          "duration": 0.22058799999999934
        },
        {
          "name": "C#4",
          "midi": 61,
          "time": 17.426451999999976,
          "velocity": 0.7480314960629921,
          "duration": 0.22058799999999934
        },
        {
          "name": "D4",
          "midi": 62,
          "time": 17.647039999999976,
          "velocity": 0.7480314960629921,
          "duration": 0.22058799999999934
        },
        {
          "name": "E4",
          "midi": 64,
          "time": 17.867627999999975,
          "velocity": 0.7480314960629921,
          "duration": 0.22058799999999934
        },
        {
          "name": "F#4",
          "midi": 66,
          "time": 18.088215999999974,
          "velocity": 0.7480314960629921,
          "duration": 0.22058799999999934
        },
        {
          "name": "F#4",
          "midi": 66,
          "time": 18.308803999999974,
          "velocity": 0.7480314960629921,
          "duration": 0.11029399999999967
        },
        {
          "name": "G4",
          "midi": 67,
          "time": 18.419097999999973,
          "velocity": 0.5984251968503937,
          "duration": 0.11029399999999967
        },
        {
          "name": "F#4",
          "midi": 66,
          "time": 18.529391999999973,
          "velocity": 0.5984251968503937,
          "duration": 0.22058799999999934
        },
        {
          "name": "F4",
          "midi": 65,
          "time": 18.749979999999972,
          "velocity": 0.7480314960629921,
          "duration": 0.22058799999999934
        },
        {
          "name": "F#4",
          "midi": 66,
          "time": 18.97056799999997,
          "velocity": 0.7480314960629921,
          "duration": 0.22058799999999934
        },
        {
          "name": "F4",
          "midi": 65,
          "time": 19.19115599999997,
          "velocity": 0.7480314960629921,
          "duration": 0.22058799999999934
        },
        {
          "name": "F#4",
          "midi": 66,
          "time": 19.41174399999997,
          "velocity": 0.7480314960629921,
          "duration": 1.1029399999999967
        },
        {
          "name": "D4",
          "midi": 62,
          "time": 19.63233199999997,
          "velocity": 0.7480314960629921,
          "duration": 0.8823519999999974
        },
        {
          "name": "A3",
          "midi": 57,
          "time": 19.85291999999997,
          "velocity": 0.7480314960629921,
          "duration": 0.22058799999999934
        },
        {
          "name": "F#3",
          "midi": 54,
          "time": 20.07350799999997,
          "velocity": 0.7480314960629921,
          "duration": 0.661763999999998
        },
        {
          "name": "A3",
          "midi": 57,
          "time": 20.294095999999968,
          "velocity": 0.7480314960629921,
          "duration": 0.4411759999999987
        },
        {
          "name": "D4",
          "midi": 62,
          "time": 20.514683999999967,
          "velocity": 0.7480314960629921,
          "duration": 0.22058799999999934
        },
        {
          "name": "F#4",
          "midi": 66,
          "time": 20.735271999999966,
          "velocity": 0.7480314960629921,
          "duration": 0.22058799999999934
        },
        {
          "name": "G#4",
          "midi": 68,
          "time": 20.955859999999966,
          "velocity": 0.7480314960629921,
          "duration": 0.22058799999999934
        },
        {
          "name": "G#4",
          "midi": 68,
          "time": 21.176447999999965,
          "velocity": 0.7480314960629921,
          "duration": 0.4411759999999987
        },
        {
          "name": "F#4",
          "midi": 66,
          "time": 21.617623999999964,
          "velocity": 0.7480314960629921,
          "duration": 0.22058799999999934
        },
        {
          "name": "F4",
          "midi": 65,
          "time": 21.838211999999963,
          "velocity": 0.7480314960629921,
          "duration": 0.22058799999999934
        },
        {
          "name": "F#4",
          "midi": 66,
          "time": 22.058799999999962,
          "velocity": 0.7480314960629921,
          "duration": 0.22058799999999934
        },
        {
          "name": "D4",
          "midi": 62,
          "time": 22.279387999999962,
          "velocity": 0.7480314960629921,
          "duration": 0.22058799999999934
        },
        {
          "name": "C#4",
          "midi": 61,
          "time": 22.49997599999996,
          "velocity": 0.7480314960629921,
          "duration": 0.22058799999999934
        },
        {
          "name": "D4",
          "midi": 62,
          "time": 22.72056399999996,
          "velocity": 0.7480314960629921,
          "duration": 0.22058799999999934
        },
        {
          "name": "A#3",
          "midi": 58,
          "time": 22.94115199999996,
          "velocity": 0.7480314960629921,
          "duration": 0.22058799999999934
        },
        {
          "name": "B3",
          "midi": 59,
          "time": 23.16173999999996,
          "velocity": 0.7480314960629921,
          "duration": 0.22058799999999934
        },
        {
          "name": "C#4",
          "midi": 61,
          "time": 23.38232799999996,
          "velocity": 0.7480314960629921,
          "duration": 0.22058799999999934
        },
        {
          "name": "A#3",
          "midi": 58,
          "time": 23.602915999999958,
          "velocity": 0.7480314960629921,
          "duration": 0.22058799999999934
        },
        {
          "name": "B3",
          "midi": 59,
          "time": 23.823503999999957,
          "velocity": 0.7480314960629921,
          "duration": 0.22058799999999934
        },
        {
          "name": "C#4",
          "midi": 61,
          "time": 24.044091999999956,
          "velocity": 0.7480314960629921,
          "duration": 0.22058799999999934
        },
        {
          "name": "D4",
          "midi": 62,
          "time": 24.264679999999956,
          "velocity": 0.7480314960629921,
          "duration": 0.22058799999999934
        },
        {
          "name": "B3",
          "midi": 59,
          "time": 24.485267999999955,
          "velocity": 0.7480314960629921,
          "duration": 0.22058799999999934
        },
        {
          "name": "C#4",
          "midi": 61,
          "time": 24.705855999999955,
          "velocity": 0.7480314960629921,
          "duration": 0.22058799999999934
        },
        {
          "name": "D4",
          "midi": 62,
          "time": 24.926443999999954,
          "velocity": 0.7480314960629921,
          "duration": 0.22058799999999934
        },
        {
          "name": "E4",
          "midi": 64,
          "time": 25.147031999999953,
          "velocity": 0.7480314960629921,
          "duration": 0.22058799999999934
        },
        {
          "name": "F#4",
          "midi": 66,
          "time": 25.367619999999953,
          "velocity": 0.7480314960629921,
          "duration": 0.11029399999999967
        },
        {
          "name": "G4",
          "midi": 67,
          "time": 25.477913999999952,
          "velocity": 0.5984251968503937,
          "duration": 0.11029399999999967
        },
        {
          "name": "F#4",
          "midi": 66,
          "time": 25.588207999999952,
          "velocity": 0.5984251968503937,
          "duration": 0.22058799999999934
        },
        {
          "name": "E4",
          "midi": 64,
          "time": 25.80879599999995,
          "velocity": 0.7480314960629921,
          "duration": 0.22058799999999934
        },
        {
          "name": "D4",
          "midi": 62,
          "time": 26.02938399999995,
          "velocity": 0.7480314960629921,
          "duration": 0.22058799999999934
        },
        {
          "name": "C#4",
          "midi": 61,
          "time": 26.24997199999995,
          "velocity": 0.7480314960629921,
          "duration": 0.22058799999999934
        },
        {
          "name": "B3",
          "midi": 59,
          "time": 26.47055999999995,
          "velocity": 0.7480314960629921,
          "duration": 3.5294079999999894
        },
        {
          "name": "E4",
          "midi": 64,
          "time": 54.705823999999936,
          "velocity": 0.7480314960629921,
          "duration": 0.018382333333335055
        },
        {
          "name": "B3",
          "midi": 59,
          "time": 54.705823999999936,
          "velocity": 0.7480314960629921,
          "duration": 0.018382333333335055
        },
        {
          "name": "G3",
          "midi": 55,
          "time": 54.705823999999936,
          "velocity": 0.7480314960629921,
          "duration": 0.018382333333335055
        },
        {
          "name": "D3",
          "midi": 50,
          "time": 54.705823999999936,
          "velocity": 0.7480314960629921,
          "duration": 0.018382333333335055
        },
        {
          "name": "A2",
          "midi": 45,
          "time": 54.705823999999936,
          "velocity": 0.7480314960629921,
          "duration": 0.018382333333335055
        },
        {
          "name": "F#2",
          "midi": 42,
          "time": 54.705823999999936,
          "velocity": 0.7480314960629921,
          "duration": 0.22058799999999934
        },
        {
          "name": "E4",
          "midi": 64,
          "time": 54.926411999999935,
          "velocity": 0.7480314960629921,
          "duration": 0.018382333333335055
        },
        {
          "name": "B3",
          "midi": 59,
          "time": 54.926411999999935,
          "velocity": 0.7480314960629921,
          "duration": 0.018382333333335055
        },
        {
          "name": "G3",
          "midi": 55,
          "time": 54.926411999999935,
          "velocity": 0.7480314960629921,
          "duration": 0.018382333333335055
        },
        {
          "name": "D3",
          "midi": 50,
          "time": 54.926411999999935,
          "velocity": 0.7480314960629921,
          "duration": 0.018382333333335055
        },
        {
          "name": "A2",
          "midi": 45,
          "time": 54.926411999999935,
          "velocity": 0.7480314960629921,
          "duration": 0.018382333333335055
        },
        {
          "name": "F#2",
          "midi": 42,
          "time": 54.926411999999935,
          "velocity": 0.7480314960629921,
          "duration": 0.22058799999999934
        },
        {
          "name": "E4",
          "midi": 64,
          "time": 55.146999999999935,
          "velocity": 0.7480314960629921,
          "duration": 0.018382333333335055
        },
        {
          "name": "B3",
          "midi": 59,
          "time": 55.146999999999935,
          "velocity": 0.7480314960629921,
          "duration": 0.018382333333335055
        },
        {
          "name": "G3",
          "midi": 55,
          "time": 55.146999999999935,
          "velocity": 0.7480314960629921,
          "duration": 0.018382333333335055
        },
        {
          "name": "D3",
          "midi": 50,
          "time": 55.146999999999935,
          "velocity": 0.7480314960629921,
          "duration": 0.018382333333335055
        },
        {
          "name": "A2",
          "midi": 45,
          "time": 55.146999999999935,
          "velocity": 0.7480314960629921,
          "duration": 0.018382333333335055
        },
        {
          "name": "F#2",
          "midi": 42,
          "time": 55.146999999999935,
          "velocity": 0.7480314960629921,
          "duration": 0.22058799999999934
        },
        {
          "name": "E4",
          "midi": 64,
          "time": 55.367587999999934,
          "velocity": 0.7480314960629921,
          "duration": 0.018382333333335055
        },
        {
          "name": "B3",
          "midi": 59,
          "time": 55.367587999999934,
          "velocity": 0.7480314960629921,
          "duration": 0.018382333333335055
        },
        {
          "name": "G3",
          "midi": 55,
          "time": 55.367587999999934,
          "velocity": 0.7480314960629921,
          "duration": 0.018382333333335055
        },
        {
          "name": "D3",
          "midi": 50,
          "time": 55.367587999999934,
          "velocity": 0.7480314960629921,
          "duration": 0.018382333333335055
        },
        {
          "name": "A2",
          "midi": 45,
          "time": 55.367587999999934,
          "velocity": 0.7480314960629921,
          "duration": 0.018382333333335055
        },
        {
          "name": "F#2",
          "midi": 42,
          "time": 55.367587999999934,
          "velocity": 0.7480314960629921,
          "duration": 0.22058799999999934
        },
        {
          "name": "E4",
          "midi": 64,
          "time": 55.58817599999993,
          "velocity": 0.7480314960629921,
          "duration": 0.018382333333335055
        },
        {
          "name": "B3",
          "midi": 59,
          "time": 55.58817599999993,
          "velocity": 0.7480314960629921,
          "duration": 0.018382333333335055
        },
        {
          "name": "G3",
          "midi": 55,
          "time": 55.58817599999993,
          "velocity": 0.7480314960629921,
          "duration": 0.018382333333335055
        },
        {
          "name": "D3",
          "midi": 50,
          "time": 55.58817599999993,
          "velocity": 0.7480314960629921,
          "duration": 0.018382333333335055
        },
        {
          "name": "C#3",
          "midi": 49,
          "time": 55.58817599999993,
          "velocity": 0.7480314960629921,
          "duration": 0.22058799999999934
        },
        {
          "name": "F#2",
          "midi": 42,
          "time": 55.58817599999993,
          "velocity": 0.7480314960629921,
          "duration": 0.22058799999999934
        },
        {
          "name": "E4",
          "midi": 64,
          "time": 55.80876399999993,
          "velocity": 0.7480314960629921,
          "duration": 0.018382333333335055
        },
        {
          "name": "B3",
          "midi": 59,
          "time": 55.80876399999993,
          "velocity": 0.7480314960629921,
          "duration": 0.018382333333335055
        },
        {
          "name": "G3",
          "midi": 55,
          "time": 55.80876399999993,
          "velocity": 0.7480314960629921,
          "duration": 0.018382333333335055
        },
        {
          "name": "D3",
          "midi": 50,
          "time": 55.80876399999993,
          "velocity": 0.7480314960629921,
          "duration": 0.018382333333335055
        },
        {
          "name": "C#3",
          "midi": 49,
          "time": 55.80876399999993,
          "velocity": 0.7480314960629921,
          "duration": 0.22058799999999934
        },
        {
          "name": "F#2",
          "midi": 42,
          "time": 55.80876399999993,
          "velocity": 0.7480314960629921,
          "duration": 0.22058799999999934
        },
        {
          "name": "E4",
          "midi": 64,
          "time": 56.02935199999993,
          "velocity": 0.7480314960629921,
          "duration": 0.018382333333335055
        },
        {
          "name": "B3",
          "midi": 59,
          "time": 56.02935199999993,
          "velocity": 0.7480314960629921,
          "duration": 0.018382333333335055
        },
        {
          "name": "G3",
          "midi": 55,
          "time": 56.02935199999993,
          "velocity": 0.7480314960629921,
          "duration": 0.018382333333335055
        },
        {
          "name": "D3",
          "midi": 50,
          "time": 56.02935199999993,
          "velocity": 0.7480314960629921,
          "duration": 0.018382333333335055
        },
        {
          "name": "C#3",
          "midi": 49,
          "time": 56.02935199999993,
          "velocity": 0.7480314960629921,
          "duration": 0.22058799999999934
        },
        {
          "name": "F#2",
          "midi": 42,
          "time": 56.02935199999993,
          "velocity": 0.7480314960629921,
          "duration": 0.22058799999999934
        },
        {
          "name": "E4",
          "midi": 64,
          "time": 56.24993999999993,
          "velocity": 0.7480314960629921,
          "duration": 0.018382333333335055
        },
        {
          "name": "B3",
          "midi": 59,
          "time": 56.24993999999993,
          "velocity": 0.7480314960629921,
          "duration": 0.018382333333335055
        },
        {
          "name": "G3",
          "midi": 55,
          "time": 56.24993999999993,
          "velocity": 0.7480314960629921,
          "duration": 0.018382333333335055
        },
        {
          "name": "D3",
          "midi": 50,
          "time": 56.24993999999993,
          "velocity": 0.7480314960629921,
          "duration": 0.018382333333335055
        },
        {
          "name": "C#3",
          "midi": 49,
          "time": 56.24993999999993,
          "velocity": 0.7480314960629921,
          "duration": 0.22058799999999934
        },
        {
          "name": "F#2",
          "midi": 42,
          "time": 56.24993999999993,
          "velocity": 0.7480314960629921,
          "duration": 0.22058799999999934
        },
        {
          "name": "E4",
          "midi": 64,
          "time": 56.47052799999993,
          "velocity": 0.7480314960629921,
          "duration": 0.018382333333335055
        },
        {
          "name": "B3",
          "midi": 59,
          "time": 56.47052799999993,
          "velocity": 0.7480314960629921,
          "duration": 0.018382333333335055
        },
        {
          "name": "G3",
          "midi": 55,
          "time": 56.47052799999993,
          "velocity": 0.7480314960629921,
          "duration": 0.018382333333335055
        },
        {
          "name": "F#3",
          "midi": 54,
          "time": 56.47052799999993,
          "velocity": 0.7480314960629921,
          "duration": 0.22058799999999934
        },
        {
          "name": "C#3",
          "midi": 49,
          "time": 56.47052799999993,
          "velocity": 0.7480314960629921,
          "duration": 0.22058799999999934
        },
        {
          "name": "F#2",
          "midi": 42,
          "time": 56.47052799999993,
          "velocity": 0.7480314960629921,
          "duration": 0.22058799999999934
        },
        {
          "name": "E4",
          "midi": 64,
          "time": 56.69111599999993,
          "velocity": 0.7480314960629921,
          "duration": 0.018382333333335055
        },
        {
          "name": "B3",
          "midi": 59,
          "time": 56.69111599999993,
          "velocity": 0.7480314960629921,
          "duration": 0.018382333333335055
        },
        {
          "name": "G3",
          "midi": 55,
          "time": 56.69111599999993,
          "velocity": 0.7480314960629921,
          "duration": 0.018382333333335055
        },
        {
          "name": "F#3",
          "midi": 54,
          "time": 56.69111599999993,
          "velocity": 0.7480314960629921,
          "duration": 0.22058799999999934
        },
        {
          "name": "C#3",
          "midi": 49,
          "time": 56.69111599999993,
          "velocity": 0.7480314960629921,
          "duration": 0.22058799999999934
        },
        {
          "name": "F#2",
          "midi": 42,
          "time": 56.69111599999993,
          "velocity": 0.7480314960629921,
          "duration": 0.22058799999999934
        },
        {
          "name": "E4",
          "midi": 64,
          "time": 56.91170399999993,
          "velocity": 0.7480314960629921,
          "duration": 0.018382333333335055
        },
        {
          "name": "B3",
          "midi": 59,
          "time": 56.91170399999993,
          "velocity": 0.7480314960629921,
          "duration": 0.018382333333335055
        },
        {
          "name": "G3",
          "midi": 55,
          "time": 56.91170399999993,
          "velocity": 0.7480314960629921,
          "duration": 0.018382333333335055
        },
        {
          "name": "F#3",
          "midi": 54,
          "time": 56.91170399999993,
          "velocity": 0.7480314960629921,
          "duration": 0.22058799999999934
        },
        {
          "name": "C#3",
          "midi": 49,
          "time": 56.91170399999993,
          "velocity": 0.7480314960629921,
          "duration": 0.22058799999999934
        },
        {
          "name": "F#2",
          "midi": 42,
          "time": 56.91170399999993,
          "velocity": 0.7480314960629921,
          "duration": 0.22058799999999934
        },
        {
          "name": "E4",
          "midi": 64,
          "time": 57.13229199999993,
          "velocity": 0.7480314960629921,
          "duration": 0.018382333333335055
        },
        {
          "name": "B3",
          "midi": 59,
          "time": 57.13229199999993,
          "velocity": 0.7480314960629921,
          "duration": 0.018382333333335055
        },
        {
          "name": "G3",
          "midi": 55,
          "time": 57.13229199999993,
          "velocity": 0.7480314960629921,
          "duration": 0.018382333333335055
        },
        {
          "name": "F#3",
          "midi": 54,
          "time": 57.13229199999993,
          "velocity": 0.7480314960629921,
          "duration": 0.22058799999999934
        },
        {
          "name": "C#3",
          "midi": 49,
          "time": 57.13229199999993,
          "velocity": 0.7480314960629921,
          "duration": 0.22058799999999934
        },
        {
          "name": "F#2",
          "midi": 42,
          "time": 57.13229199999993,
          "velocity": 0.7480314960629921,
          "duration": 0.22058799999999934
        },
        {
          "name": "E4",
          "midi": 64,
          "time": 57.35287999999993,
          "velocity": 0.7480314960629921,
          "duration": 0.018382333333335055
        },
        {
          "name": "C#4",
          "midi": 61,
          "time": 57.35287999999993,
          "velocity": 0.7480314960629921,
          "duration": 0.22058799999999934
        },
        {
          "name": "A#3",
          "midi": 58,
          "time": 57.35287999999993,
          "velocity": 0.7480314960629921,
          "duration": 0.22058799999999934
        },
        {
          "name": "F#3",
          "midi": 54,
          "time": 57.35287999999993,
          "velocity": 0.7480314960629921,
          "duration": 0.22058799999999934
        },
        {
          "name": "C#3",
          "midi": 49,
          "time": 57.35287999999993,
          "velocity": 0.7480314960629921,
          "duration": 0.22058799999999934
        },
        {
          "name": "F#2",
          "midi": 42,
          "time": 57.35287999999993,
          "velocity": 0.7480314960629921,
          "duration": 0.22058799999999934
        },
        {
          "name": "E4",
          "midi": 64,
          "time": 57.57346799999993,
          "velocity": 0.7480314960629921,
          "duration": 0.018382333333335055
        },
        {
          "name": "C#4",
          "midi": 61,
          "time": 57.57346799999993,
          "velocity": 0.7480314960629921,
          "duration": 0.22058799999999934
        },
        {
          "name": "A#3",
          "midi": 58,
          "time": 57.57346799999993,
          "velocity": 0.7480314960629921,
          "duration": 0.22058799999999934
        },
        {
          "name": "F#3",
          "midi": 54,
          "time": 57.57346799999993,
          "velocity": 0.7480314960629921,
          "duration": 0.22058799999999934
        },
        {
          "name": "C#3",
          "midi": 49,
          "time": 57.57346799999993,
          "velocity": 0.7480314960629921,
          "duration": 0.22058799999999934
        },
        {
          "name": "F#2",
          "midi": 42,
          "time": 57.57346799999993,
          "velocity": 0.7480314960629921,
          "duration": 0.22058799999999934
        },
        {
          "name": "C#4",
          "midi": 61,
          "time": 57.79405599999993,
          "velocity": 0.7480314960629921,
          "duration": 0.22058799999999934
        },
        {
          "name": "A#3",
          "midi": 58,
          "time": 57.79405599999993,
          "velocity": 0.7480314960629921,
          "duration": 0.22058799999999934
        },
        {
          "name": "F#3",
          "midi": 54,
          "time": 57.79405599999993,
          "velocity": 0.7480314960629921,
          "duration": 0.22058799999999934
        },
        {
          "name": "C#3",
          "midi": 49,
          "time": 57.79405599999993,
          "velocity": 0.7480314960629921,
          "duration": 0.22058799999999934
        },
        {
          "name": "F#2",
          "midi": 42,
          "time": 57.79405599999993,
          "velocity": 0.7480314960629921,
          "duration": 0.22058799999999934
        },
        {
          "name": "G3",
          "midi": 55,
          "time": 58.014643999999926,
          "velocity": 0.7480314960629921,
          "duration": 0.22058799999999934
        },
        {
          "name": "D3",
          "midi": 50,
          "time": 58.014643999999926,
          "velocity": 0.7480314960629921,
          "duration": 0.22058799999999934
        },
        {
          "name": "A2",
          "midi": 45,
          "time": 58.014643999999926,
          "velocity": 0.7480314960629921,
          "duration": 0.22058799999999934
        },
        {
          "name": "E2",
          "midi": 40,
          "time": 58.014643999999926,
          "velocity": 0.7480314960629921,
          "duration": 0.22058799999999934
        },
        {
          "name": "B3",
          "midi": 59,
          "time": 58.235231999999925,
          "velocity": 0.7480314960629921,
          "duration": 0.22058799999999934
        },
        {
          "name": "G3",
          "midi": 55,
          "time": 58.235231999999925,
          "velocity": 0.7480314960629921,
          "duration": 0.22058799999999934
        },
        {
          "name": "D3",
          "midi": 50,
          "time": 58.235231999999925,
          "velocity": 0.7480314960629921,
          "duration": 0.22058799999999934
        },
        {
          "name": "G2",
          "midi": 43,
          "time": 58.235231999999925,
          "velocity": 0.7480314960629921,
          "duration": 0.22058799999999934
        },
        {
          "name": "B3",
          "midi": 59,
          "time": 58.455819999999925,
          "velocity": 0.7480314960629921,
          "duration": 0.22058799999999934
        },
        {
          "name": "G3",
          "midi": 55,
          "time": 58.455819999999925,
          "velocity": 0.7480314960629921,
          "duration": 0.22058799999999934
        },
        {
          "name": "D3",
          "midi": 50,
          "time": 58.455819999999925,
          "velocity": 0.7480314960629921,
          "duration": 0.22058799999999934
        },
        {
          "name": "G2",
          "midi": 43,
          "time": 58.455819999999925,
          "velocity": 0.7480314960629921,
          "duration": 0.22058799999999934
        },
        {
          "name": "B3",
          "midi": 59,
          "time": 58.676407999999924,
          "velocity": 0.7480314960629921,
          "duration": 0.22058799999999934
        },
        {
          "name": "G3",
          "midi": 55,
          "time": 58.676407999999924,
          "velocity": 0.7480314960629921,
          "duration": 0.22058799999999934
        },
        {
          "name": "D3",
          "midi": 50,
          "time": 58.676407999999924,
          "velocity": 0.7480314960629921,
          "duration": 0.22058799999999934
        },
        {
          "name": "G2",
          "midi": 43,
          "time": 58.676407999999924,
          "velocity": 0.7480314960629921,
          "duration": 0.22058799999999934
        },
        {
          "name": "B3",
          "midi": 59,
          "time": 58.89699599999992,
          "velocity": 0.7480314960629921,
          "duration": 0.22058799999999934
        },
        {
          "name": "G3",
          "midi": 55,
          "time": 58.89699599999992,
          "velocity": 0.7480314960629921,
          "duration": 0.22058799999999934
        },
        {
          "name": "D3",
          "midi": 50,
          "time": 58.89699599999992,
          "velocity": 0.7480314960629921,
          "duration": 0.22058799999999934
        },
        {
          "name": "G2",
          "midi": 43,
          "time": 58.89699599999992,
          "velocity": 0.7480314960629921,
          "duration": 0.22058799999999934
        },
        {
          "name": "B3",
          "midi": 59,
          "time": 59.11758399999992,
          "velocity": 0.7480314960629921,
          "duration": 0.22058799999999934
        },
        {
          "name": "G3",
          "midi": 55,
          "time": 59.11758399999992,
          "velocity": 0.7480314960629921,
          "duration": 0.22058799999999934
        },
        {
          "name": "D3",
          "midi": 50,
          "time": 59.11758399999992,
          "velocity": 0.7480314960629921,
          "duration": 0.22058799999999934
        },
        {
          "name": "G2",
          "midi": 43,
          "time": 59.11758399999992,
          "velocity": 0.7480314960629921,
          "duration": 0.22058799999999934
        },
        {
          "name": "B3",
          "midi": 59,
          "time": 59.33817199999992,
          "velocity": 0.7480314960629921,
          "duration": 0.22058799999999934
        },
        {
          "name": "G3",
          "midi": 55,
          "time": 59.33817199999992,
          "velocity": 0.7480314960629921,
          "duration": 0.22058799999999934
        },
        {
          "name": "D3",
          "midi": 50,
          "time": 59.33817199999992,
          "velocity": 0.7480314960629921,
          "duration": 0.22058799999999934
        },
        {
          "name": "G2",
          "midi": 43,
          "time": 59.33817199999992,
          "velocity": 0.7480314960629921,
          "duration": 0.22058799999999934
        },
        {
          "name": "B3",
          "midi": 59,
          "time": 59.55875999999992,
          "velocity": 0.7480314960629921,
          "duration": 0.22058799999999934
        },
        {
          "name": "G3",
          "midi": 55,
          "time": 59.55875999999992,
          "velocity": 0.7480314960629921,
          "duration": 0.22058799999999934
        },
        {
          "name": "D3",
          "midi": 50,
          "time": 59.55875999999992,
          "velocity": 0.7480314960629921,
          "duration": 0.22058799999999934
        },
        {
          "name": "G2",
          "midi": 43,
          "time": 59.55875999999992,
          "velocity": 0.7480314960629921,
          "duration": 0.22058799999999934
        },
        {
          "name": "B3",
          "midi": 59,
          "time": 59.77934799999992,
          "velocity": 0.7480314960629921,
          "duration": 0.22058799999999934
        },
        {
          "name": "G3",
          "midi": 55,
          "time": 59.77934799999992,
          "velocity": 0.7480314960629921,
          "duration": 0.22058799999999934
        },
        {
          "name": "D3",
          "midi": 50,
          "time": 59.77934799999992,
          "velocity": 0.7480314960629921,
          "duration": 0.22058799999999934
        },
        {
          "name": "G2",
          "midi": 43,
          "time": 59.77934799999992,
          "velocity": 0.7480314960629921,
          "duration": 0.22058799999999934
        },
        {
          "name": "B3",
          "midi": 59,
          "time": 59.99993599999992,
          "velocity": 0.7480314960629921,
          "duration": 0.22058799999999934
        },
        {
          "name": "G3",
          "midi": 55,
          "time": 59.99993599999992,
          "velocity": 0.7480314960629921,
          "duration": 0.22058799999999934
        },
        {
          "name": "D3",
          "midi": 50,
          "time": 59.99993599999992,
          "velocity": 0.7480314960629921,
          "duration": 0.22058799999999934
        },
        {
          "name": "G2",
          "midi": 43,
          "time": 59.99993599999992,
          "velocity": 0.7480314960629921,
          "duration": 0.22058799999999934
        },
        {
          "name": "B3",
          "midi": 59,
          "time": 60.22052399999992,
          "velocity": 0.7480314960629921,
          "duration": 0.22058799999999934
        },
        {
          "name": "G3",
          "midi": 55,
          "time": 60.22052399999992,
          "velocity": 0.7480314960629921,
          "duration": 0.22058799999999934
        },
        {
          "name": "D3",
          "midi": 50,
          "time": 60.22052399999992,
          "velocity": 0.7480314960629921,
          "duration": 0.22058799999999934
        },
        {
          "name": "G2",
          "midi": 43,
          "time": 60.22052399999992,
          "velocity": 0.7480314960629921,
          "duration": 0.22058799999999934
        },
        {
          "name": "B3",
          "midi": 59,
          "time": 60.44111199999992,
          "velocity": 0.7480314960629921,
          "duration": 0.22058799999999934
        },
        {
          "name": "G3",
          "midi": 55,
          "time": 60.44111199999992,
          "velocity": 0.7480314960629921,
          "duration": 0.22058799999999934
        },
        {
          "name": "D3",
          "midi": 50,
          "time": 60.44111199999992,
          "velocity": 0.7480314960629921,
          "duration": 0.22058799999999934
        },
        {
          "name": "G2",
          "midi": 43,
          "time": 60.44111199999992,
          "velocity": 0.7480314960629921,
          "duration": 0.22058799999999934
        },
        {
          "name": "B3",
          "midi": 59,
          "time": 60.66169999999992,
          "velocity": 0.7480314960629921,
          "duration": 0.22058799999999934
        },
        {
          "name": "G3",
          "midi": 55,
          "time": 60.66169999999992,
          "velocity": 0.7480314960629921,
          "duration": 0.22058799999999934
        },
        {
          "name": "D3",
          "midi": 50,
          "time": 60.66169999999992,
          "velocity": 0.7480314960629921,
          "duration": 0.22058799999999934
        },
        {
          "name": "G2",
          "midi": 43,
          "time": 60.66169999999992,
          "velocity": 0.7480314960629921,
          "duration": 0.22058799999999934
        },
        {
          "name": "B3",
          "midi": 59,
          "time": 60.88228799999992,
          "velocity": 0.7480314960629921,
          "duration": 0.22058799999999934
        },
        {
          "name": "G3",
          "midi": 55,
          "time": 60.88228799999992,
          "velocity": 0.7480314960629921,
          "duration": 0.22058799999999934
        },
        {
          "name": "D3",
          "midi": 50,
          "time": 60.88228799999992,
          "velocity": 0.7480314960629921,
          "duration": 0.22058799999999934
        },
        {
          "name": "G2",
          "midi": 43,
          "time": 60.88228799999992,
          "velocity": 0.7480314960629921,
          "duration": 0.22058799999999934
        },
        {
          "name": "B3",
          "midi": 59,
          "time": 61.10287599999992,
          "velocity": 0.7480314960629921,
          "duration": 0.22058799999999934
        },
        {
          "name": "G3",
          "midi": 55,
          "time": 61.10287599999992,
          "velocity": 0.7480314960629921,
          "duration": 0.22058799999999934
        },
        {
          "name": "D3",
          "midi": 50,
          "time": 61.10287599999992,
          "velocity": 0.7480314960629921,
          "duration": 0.22058799999999934
        },
        {
          "name": "G2",
          "midi": 43,
          "time": 61.10287599999992,
          "velocity": 0.7480314960629921,
          "duration": 0.22058799999999934
        },
        {
          "name": "B3",
          "midi": 59,
          "time": 61.323463999999916,
          "velocity": 0.7480314960629921,
          "duration": 0.22058799999999934
        },
        {
          "name": "G3",
          "midi": 55,
          "time": 61.323463999999916,
          "velocity": 0.7480314960629921,
          "duration": 0.22058799999999934
        },
        {
          "name": "D3",
          "midi": 50,
          "time": 61.323463999999916,
          "velocity": 0.7480314960629921,
          "duration": 0.22058799999999934
        },
        {
          "name": "G2",
          "midi": 43,
          "time": 61.323463999999916,
          "velocity": 0.7480314960629921,
          "duration": 0.22058799999999934
        },
        {
          "name": "B3",
          "midi": 59,
          "time": 61.544051999999915,
          "velocity": 0.7480314960629921,
          "duration": 0.22058799999999934
        },
        {
          "name": "G3",
          "midi": 55,
          "time": 61.544051999999915,
          "velocity": 0.7480314960629921,
          "duration": 0.22058799999999934
        },
        {
          "name": "D3",
          "midi": 50,
          "time": 61.544051999999915,
          "velocity": 0.7480314960629921,
          "duration": 0.22058799999999934
        },
        {
          "name": "G2",
          "midi": 43,
          "time": 61.544051999999915,
          "velocity": 0.7480314960629921,
          "duration": 0.22058799999999934
        },
        {
          "name": "D4",
          "midi": 62,
          "time": 61.764639999999915,
          "velocity": 0.7480314960629921,
          "duration": 0.22058799999999934
        },
        {
          "name": "B3",
          "midi": 59,
          "time": 61.764639999999915,
          "velocity": 0.7480314960629921,
          "duration": 0.22058799999999934
        },
        {
          "name": "F#3",
          "midi": 54,
          "time": 61.764639999999915,
          "velocity": 0.7480314960629921,
          "duration": 0.22058799999999934
        },
        {
          "name": "B2",
          "midi": 47,
          "time": 61.764639999999915,
          "velocity": 0.7480314960629921,
          "duration": 0.22058799999999934
        },
        {
          "name": "D4",
          "midi": 62,
          "time": 61.985227999999914,
          "velocity": 0.7480314960629921,
          "duration": 0.22058799999999934
        },
        {
          "name": "B3",
          "midi": 59,
          "time": 61.985227999999914,
          "velocity": 0.7480314960629921,
          "duration": 0.22058799999999934
        },
        {
          "name": "F#3",
          "midi": 54,
          "time": 61.985227999999914,
          "velocity": 0.7480314960629921,
          "duration": 0.22058799999999934
        },
        {
          "name": "B2",
          "midi": 47,
          "time": 61.985227999999914,
          "velocity": 0.7480314960629921,
          "duration": 0.22058799999999934
        },
        {
          "name": "D4",
          "midi": 62,
          "time": 62.20581599999991,
          "velocity": 0.7480314960629921,
          "duration": 0.22058799999999934
        },
        {
          "name": "B3",
          "midi": 59,
          "time": 62.20581599999991,
          "velocity": 0.7480314960629921,
          "duration": 0.22058799999999934
        },
        {
          "name": "F#3",
          "midi": 54,
          "time": 62.20581599999991,
          "velocity": 0.7480314960629921,
          "duration": 0.22058799999999934
        },
        {
          "name": "B2",
          "midi": 47,
          "time": 62.20581599999991,
          "velocity": 0.7480314960629921,
          "duration": 0.22058799999999934
        },
        {
          "name": "D4",
          "midi": 62,
          "time": 62.42640399999991,
          "velocity": 0.7480314960629921,
          "duration": 0.22058799999999934
        },
        {
          "name": "B3",
          "midi": 59,
          "time": 62.42640399999991,
          "velocity": 0.7480314960629921,
          "duration": 0.22058799999999934
        },
        {
          "name": "F#3",
          "midi": 54,
          "time": 62.42640399999991,
          "velocity": 0.7480314960629921,
          "duration": 0.22058799999999934
        },
        {
          "name": "B2",
          "midi": 47,
          "time": 62.42640399999991,
          "velocity": 0.7480314960629921,
          "duration": 0.22058799999999934
        },
        {
          "name": "D4",
          "midi": 62,
          "time": 62.64699199999991,
          "velocity": 0.7480314960629921,
          "duration": 0.22058799999999934
        },
        {
          "name": "B3",
          "midi": 59,
          "time": 62.64699199999991,
          "velocity": 0.7480314960629921,
          "duration": 0.22058799999999934
        },
        {
          "name": "F#3",
          "midi": 54,
          "time": 62.64699199999991,
          "velocity": 0.7480314960629921,
          "duration": 0.22058799999999934
        },
        {
          "name": "B2",
          "midi": 47,
          "time": 62.64699199999991,
          "velocity": 0.7480314960629921,
          "duration": 0.22058799999999934
        },
        {
          "name": "D4",
          "midi": 62,
          "time": 62.86757999999991,
          "velocity": 0.7480314960629921,
          "duration": 0.22058799999999934
        },
        {
          "name": "B3",
          "midi": 59,
          "time": 62.86757999999991,
          "velocity": 0.7480314960629921,
          "duration": 0.22058799999999934
        },
        {
          "name": "F#3",
          "midi": 54,
          "time": 62.86757999999991,
          "velocity": 0.7480314960629921,
          "duration": 0.22058799999999934
        },
        {
          "name": "B2",
          "midi": 47,
          "time": 62.86757999999991,
          "velocity": 0.7480314960629921,
          "duration": 0.22058799999999934
        },
        {
          "name": "D4",
          "midi": 62,
          "time": 63.08816799999991,
          "velocity": 0.7480314960629921,
          "duration": 0.22058799999999934
        },
        {
          "name": "B3",
          "midi": 59,
          "time": 63.08816799999991,
          "velocity": 0.7480314960629921,
          "duration": 0.22058799999999934
        },
        {
          "name": "F#3",
          "midi": 54,
          "time": 63.08816799999991,
          "velocity": 0.7480314960629921,
          "duration": 0.22058799999999934
        },
        {
          "name": "B2",
          "midi": 47,
          "time": 63.08816799999991,
          "velocity": 0.7480314960629921,
          "duration": 0.22058799999999934
        },
        {
          "name": "D4",
          "midi": 62,
          "time": 63.30875599999991,
          "velocity": 0.7480314960629921,
          "duration": 0.22058799999999934
        },
        {
          "name": "B3",
          "midi": 59,
          "time": 63.30875599999991,
          "velocity": 0.7480314960629921,
          "duration": 0.22058799999999934
        },
        {
          "name": "F#3",
          "midi": 54,
          "time": 63.30875599999991,
          "velocity": 0.7480314960629921,
          "duration": 0.22058799999999934
        },
        {
          "name": "B2",
          "midi": 47,
          "time": 63.30875599999991,
          "velocity": 0.7480314960629921,
          "duration": 0.22058799999999934
        },
        {
          "name": "C#4",
          "midi": 61,
          "time": 63.52934399999991,
          "velocity": 0.7480314960629921,
          "duration": 0.22058799999999934
        },
        {
          "name": "A#3",
          "midi": 58,
          "time": 63.52934399999991,
          "velocity": 0.7480314960629921,
          "duration": 0.22058799999999934
        },
        {
          "name": "F#3",
          "midi": 54,
          "time": 63.52934399999991,
          "velocity": 0.7480314960629921,
          "duration": 0.22058799999999934
        },
        {
          "name": "C#3",
          "midi": 49,
          "time": 63.52934399999991,
          "velocity": 0.7480314960629921,
          "duration": 0.22058799999999934
        },
        {
          "name": "C#4",
          "midi": 61,
          "time": 63.74993199999991,
          "velocity": 0.7480314960629921,
          "duration": 0.22058799999999934
        },
        {
          "name": "A#3",
          "midi": 58,
          "time": 63.74993199999991,
          "velocity": 0.7480314960629921,
          "duration": 0.22058799999999934
        },
        {
          "name": "F#3",
          "midi": 54,
          "time": 63.74993199999991,
          "velocity": 0.7480314960629921,
          "duration": 0.22058799999999934
        },
        {
          "name": "C#3",
          "midi": 49,
          "time": 63.74993199999991,
          "velocity": 0.7480314960629921,
          "duration": 0.22058799999999934
        },
        {
          "name": "C#4",
          "midi": 61,
          "time": 63.97051999999991,
          "velocity": 0.7480314960629921,
          "duration": 0.22058800000000645
        },
        {
          "name": "A#3",
          "midi": 58,
          "time": 63.97051999999991,
          "velocity": 0.7480314960629921,
          "duration": 0.22058800000000645
        },
        {
          "name": "F#3",
          "midi": 54,
          "time": 63.97051999999991,
          "velocity": 0.7480314960629921,
          "duration": 0.22058800000000645
        },
        {
          "name": "C#3",
          "midi": 49,
          "time": 63.97051999999991,
          "velocity": 0.7480314960629921,
          "duration": 0.22058800000000645
        },
        {
          "name": "C#4",
          "midi": 61,
          "time": 64.19110799999991,
          "velocity": 0.7480314960629921,
          "duration": 0.22058800000000645
        },
        {
          "name": "A#3",
          "midi": 58,
          "time": 64.19110799999991,
          "velocity": 0.7480314960629921,
          "duration": 0.22058800000000645
        },
        {
          "name": "F#3",
          "midi": 54,
          "time": 64.19110799999991,
          "velocity": 0.7480314960629921,
          "duration": 0.22058800000000645
        },
        {
          "name": "C#3",
          "midi": 49,
          "time": 64.19110799999991,
          "velocity": 0.7480314960629921,
          "duration": 0.22058800000000645
        },
        {
          "name": "C#4",
          "midi": 61,
          "time": 64.41169599999992,
          "velocity": 0.7480314960629921,
          "duration": 0.22058800000000645
        },
        {
          "name": "A#3",
          "midi": 58,
          "time": 64.41169599999992,
          "velocity": 0.7480314960629921,
          "duration": 0.22058800000000645
        },
        {
          "name": "F#3",
          "midi": 54,
          "time": 64.41169599999992,
          "velocity": 0.7480314960629921,
          "duration": 0.22058800000000645
        },
        {
          "name": "C#3",
          "midi": 49,
          "time": 64.41169599999992,
          "velocity": 0.7480314960629921,
          "duration": 0.22058800000000645
        },
        {
          "name": "C#4",
          "midi": 61,
          "time": 64.63228399999993,
          "velocity": 0.7480314960629921,
          "duration": 0.22058800000000645
        },
        {
          "name": "A#3",
          "midi": 58,
          "time": 64.63228399999993,
          "velocity": 0.7480314960629921,
          "duration": 0.22058800000000645
        },
        {
          "name": "F#3",
          "midi": 54,
          "time": 64.63228399999993,
          "velocity": 0.7480314960629921,
          "duration": 0.22058800000000645
        },
        {
          "name": "C#3",
          "midi": 49,
          "time": 64.63228399999993,
          "velocity": 0.7480314960629921,
          "duration": 0.22058800000000645
        },
        {
          "name": "C#4",
          "midi": 61,
          "time": 64.85287199999993,
          "velocity": 0.7480314960629921,
          "duration": 0.22058800000000645
        },
        {
          "name": "A#3",
          "midi": 58,
          "time": 64.85287199999993,
          "velocity": 0.7480314960629921,
          "duration": 0.22058800000000645
        },
        {
          "name": "F#3",
          "midi": 54,
          "time": 64.85287199999993,
          "velocity": 0.7480314960629921,
          "duration": 0.22058800000000645
        },
        {
          "name": "C#3",
          "midi": 49,
          "time": 64.85287199999993,
          "velocity": 0.7480314960629921,
          "duration": 0.22058800000000645
        },
        {
          "name": "C#4",
          "midi": 61,
          "time": 65.07345999999994,
          "velocity": 0.7480314960629921,
          "duration": 0.22058800000000645
        },
        {
          "name": "A#3",
          "midi": 58,
          "time": 65.07345999999994,
          "velocity": 0.7480314960629921,
          "duration": 0.22058800000000645
        },
        {
          "name": "F#3",
          "midi": 54,
          "time": 65.07345999999994,
          "velocity": 0.7480314960629921,
          "duration": 0.22058800000000645
        },
        {
          "name": "C#3",
          "midi": 49,
          "time": 65.07345999999994,
          "velocity": 0.7480314960629921,
          "duration": 0.22058800000000645
        },
        {
          "name": "B3",
          "midi": 59,
          "time": 65.29404799999995,
          "velocity": 0.7480314960629921,
          "duration": 0.22058800000000645
        },
        {
          "name": "G3",
          "midi": 55,
          "time": 65.29404799999995,
          "velocity": 0.7480314960629921,
          "duration": 0.22058800000000645
        },
        {
          "name": "D3",
          "midi": 50,
          "time": 65.29404799999995,
          "velocity": 0.7480314960629921,
          "duration": 0.22058800000000645
        },
        {
          "name": "G2",
          "midi": 43,
          "time": 65.29404799999995,
          "velocity": 0.7480314960629921,
          "duration": 0.22058800000000645
        },
        {
          "name": "B3",
          "midi": 59,
          "time": 65.51463599999995,
          "velocity": 0.7480314960629921,
          "duration": 0.22058800000000645
        },
        {
          "name": "G3",
          "midi": 55,
          "time": 65.51463599999995,
          "velocity": 0.7480314960629921,
          "duration": 0.22058800000000645
        },
        {
          "name": "D3",
          "midi": 50,
          "time": 65.51463599999995,
          "velocity": 0.7480314960629921,
          "duration": 0.22058800000000645
        },
        {
          "name": "G2",
          "midi": 43,
          "time": 65.51463599999995,
          "velocity": 0.7480314960629921,
          "duration": 0.22058800000000645
        },
        {
          "name": "B3",
          "midi": 59,
          "time": 65.73522399999996,
          "velocity": 0.7480314960629921,
          "duration": 0.22058800000000645
        },
        {
          "name": "G3",
          "midi": 55,
          "time": 65.73522399999996,
          "velocity": 0.7480314960629921,
          "duration": 0.22058800000000645
        },
        {
          "name": "D3",
          "midi": 50,
          "time": 65.73522399999996,
          "velocity": 0.7480314960629921,
          "duration": 0.22058800000000645
        },
        {
          "name": "G2",
          "midi": 43,
          "time": 65.73522399999996,
          "velocity": 0.7480314960629921,
          "duration": 0.22058800000000645
        },
        {
          "name": "B3",
          "midi": 59,
          "time": 65.95581199999997,
          "velocity": 0.7480314960629921,
          "duration": 0.22058800000000645
        },
        {
          "name": "G3",
          "midi": 55,
          "time": 65.95581199999997,
          "velocity": 0.7480314960629921,
          "duration": 0.22058800000000645
        },
        {
          "name": "D3",
          "midi": 50,
          "time": 65.95581199999997,
          "velocity": 0.7480314960629921,
          "duration": 0.22058800000000645
        },
        {
          "name": "G2",
          "midi": 43,
          "time": 65.95581199999997,
          "velocity": 0.7480314960629921,
          "duration": 0.22058800000000645
        },
        {
          "name": "B3",
          "midi": 59,
          "time": 66.17639999999997,
          "velocity": 0.7480314960629921,
          "duration": 0.22058800000000645
        },
        {
          "name": "G3",
          "midi": 55,
          "time": 66.17639999999997,
          "velocity": 0.7480314960629921,
          "duration": 0.22058800000000645
        },
        {
          "name": "D3",
          "midi": 50,
          "time": 66.17639999999997,
          "velocity": 0.7480314960629921,
          "duration": 0.22058800000000645
        },
        {
          "name": "G2",
          "midi": 43,
          "time": 66.17639999999997,
          "velocity": 0.7480314960629921,
          "duration": 0.22058800000000645
        },
        {
          "name": "B3",
          "midi": 59,
          "time": 66.39698799999998,
          "velocity": 0.7480314960629921,
          "duration": 0.22058800000000645
        },
        {
          "name": "G3",
          "midi": 55,
          "time": 66.39698799999998,
          "velocity": 0.7480314960629921,
          "duration": 0.22058800000000645
        },
        {
          "name": "D3",
          "midi": 50,
          "time": 66.39698799999998,
          "velocity": 0.7480314960629921,
          "duration": 0.22058800000000645
        },
        {
          "name": "G2",
          "midi": 43,
          "time": 66.39698799999998,
          "velocity": 0.7480314960629921,
          "duration": 0.22058800000000645
        },
        {
          "name": "B3",
          "midi": 59,
          "time": 66.61757599999999,
          "velocity": 0.7480314960629921,
          "duration": 0.22058800000000645
        },
        {
          "name": "G3",
          "midi": 55,
          "time": 66.61757599999999,
          "velocity": 0.7480314960629921,
          "duration": 0.22058800000000645
        },
        {
          "name": "D3",
          "midi": 50,
          "time": 66.61757599999999,
          "velocity": 0.7480314960629921,
          "duration": 0.22058800000000645
        },
        {
          "name": "G2",
          "midi": 43,
          "time": 66.61757599999999,
          "velocity": 0.7480314960629921,
          "duration": 0.22058800000000645
        },
        {
          "name": "B3",
          "midi": 59,
          "time": 66.83816399999999,
          "velocity": 0.7480314960629921,
          "duration": 0.22058800000000645
        },
        {
          "name": "G3",
          "midi": 55,
          "time": 66.83816399999999,
          "velocity": 0.7480314960629921,
          "duration": 0.22058800000000645
        },
        {
          "name": "D3",
          "midi": 50,
          "time": 66.83816399999999,
          "velocity": 0.7480314960629921,
          "duration": 0.22058800000000645
        },
        {
          "name": "G2",
          "midi": 43,
          "time": 66.83816399999999,
          "velocity": 0.7480314960629921,
          "duration": 0.22058800000000645
        },
        {
          "name": "B3",
          "midi": 59,
          "time": 67.058752,
          "velocity": 0.7480314960629921,
          "duration": 0.22058800000000645
        },
        {
          "name": "G3",
          "midi": 55,
          "time": 67.058752,
          "velocity": 0.7480314960629921,
          "duration": 0.22058800000000645
        },
        {
          "name": "D3",
          "midi": 50,
          "time": 67.058752,
          "velocity": 0.7480314960629921,
          "duration": 0.22058800000000645
        },
        {
          "name": "G2",
          "midi": 43,
          "time": 67.058752,
          "velocity": 0.7480314960629921,
          "duration": 0.22058800000000645
        },
        {
          "name": "B3",
          "midi": 59,
          "time": 67.27934,
          "velocity": 0.7480314960629921,
          "duration": 0.22058800000000645
        },
        {
          "name": "G3",
          "midi": 55,
          "time": 67.27934,
          "velocity": 0.7480314960629921,
          "duration": 0.22058800000000645
        },
        {
          "name": "D3",
          "midi": 50,
          "time": 67.27934,
          "velocity": 0.7480314960629921,
          "duration": 0.22058800000000645
        },
        {
          "name": "G2",
          "midi": 43,
          "time": 67.27934,
          "velocity": 0.7480314960629921,
          "duration": 0.22058800000000645
        },
        {
          "name": "B3",
          "midi": 59,
          "time": 67.49992800000001,
          "velocity": 0.7480314960629921,
          "duration": 0.22058800000000645
        },
        {
          "name": "G3",
          "midi": 55,
          "time": 67.49992800000001,
          "velocity": 0.7480314960629921,
          "duration": 0.22058800000000645
        },
        {
          "name": "D3",
          "midi": 50,
          "time": 67.49992800000001,
          "velocity": 0.7480314960629921,
          "duration": 0.22058800000000645
        },
        {
          "name": "G2",
          "midi": 43,
          "time": 67.49992800000001,
          "velocity": 0.7480314960629921,
          "duration": 0.22058800000000645
        },
        {
          "name": "B3",
          "midi": 59,
          "time": 67.72051600000002,
          "velocity": 0.7480314960629921,
          "duration": 0.22058800000000645
        },
        {
          "name": "G3",
          "midi": 55,
          "time": 67.72051600000002,
          "velocity": 0.7480314960629921,
          "duration": 0.22058800000000645
        },
        {
          "name": "D3",
          "midi": 50,
          "time": 67.72051600000002,
          "velocity": 0.7480314960629921,
          "duration": 0.22058800000000645
        },
        {
          "name": "G2",
          "midi": 43,
          "time": 67.72051600000002,
          "velocity": 0.7480314960629921,
          "duration": 0.22058800000000645
        },
        {
          "name": "B3",
          "midi": 59,
          "time": 67.94110400000002,
          "velocity": 0.7480314960629921,
          "duration": 0.22058800000000645
        },
        {
          "name": "G3",
          "midi": 55,
          "time": 67.94110400000002,
          "velocity": 0.7480314960629921,
          "duration": 0.22058800000000645
        },
        {
          "name": "D3",
          "midi": 50,
          "time": 67.94110400000002,
          "velocity": 0.7480314960629921,
          "duration": 0.22058800000000645
        },
        {
          "name": "G2",
          "midi": 43,
          "time": 67.94110400000002,
          "velocity": 0.7480314960629921,
          "duration": 0.22058800000000645
        },
        {
          "name": "B3",
          "midi": 59,
          "time": 68.16169200000003,
          "velocity": 0.7480314960629921,
          "duration": 0.22058800000000645
        },
        {
          "name": "G3",
          "midi": 55,
          "time": 68.16169200000003,
          "velocity": 0.7480314960629921,
          "duration": 0.22058800000000645
        },
        {
          "name": "D3",
          "midi": 50,
          "time": 68.16169200000003,
          "velocity": 0.7480314960629921,
          "duration": 0.22058800000000645
        },
        {
          "name": "G2",
          "midi": 43,
          "time": 68.16169200000003,
          "velocity": 0.7480314960629921,
          "duration": 0.22058800000000645
        },
        {
          "name": "B3",
          "midi": 59,
          "time": 68.38228000000004,
          "velocity": 0.7480314960629921,
          "duration": 0.22058800000000645
        },
        {
          "name": "G3",
          "midi": 55,
          "time": 68.38228000000004,
          "velocity": 0.7480314960629921,
          "duration": 0.22058800000000645
        },
        {
          "name": "D3",
          "midi": 50,
          "time": 68.38228000000004,
          "velocity": 0.7480314960629921,
          "duration": 0.22058800000000645
        },
        {
          "name": "G2",
          "midi": 43,
          "time": 68.38228000000004,
          "velocity": 0.7480314960629921,
          "duration": 0.22058800000000645
        },
        {
          "name": "B3",
          "midi": 59,
          "time": 68.60286800000004,
          "velocity": 0.7480314960629921,
          "duration": 0.22058800000000645
        },
        {
          "name": "G3",
          "midi": 55,
          "time": 68.60286800000004,
          "velocity": 0.7480314960629921,
          "duration": 0.22058800000000645
        },
        {
          "name": "D3",
          "midi": 50,
          "time": 68.60286800000004,
          "velocity": 0.7480314960629921,
          "duration": 0.22058800000000645
        },
        {
          "name": "G2",
          "midi": 43,
          "time": 68.60286800000004,
          "velocity": 0.7480314960629921,
          "duration": 0.22058800000000645
        },
        {
          "name": "D4",
          "midi": 62,
          "time": 68.82345600000005,
          "velocity": 0.7480314960629921,
          "duration": 0.22058800000000645
        },
        {
          "name": "B3",
          "midi": 59,
          "time": 68.82345600000005,
          "velocity": 0.7480314960629921,
          "duration": 0.22058800000000645
        },
        {
          "name": "F#3",
          "midi": 54,
          "time": 68.82345600000005,
          "velocity": 0.7480314960629921,
          "duration": 0.22058800000000645
        },
        {
          "name": "B2",
          "midi": 47,
          "time": 68.82345600000005,
          "velocity": 0.7480314960629921,
          "duration": 0.22058800000000645
        },
        {
          "name": "D4",
          "midi": 62,
          "time": 69.04404400000006,
          "velocity": 0.7480314960629921,
          "duration": 0.22058800000000645
        },
        {
          "name": "B3",
          "midi": 59,
          "time": 69.04404400000006,
          "velocity": 0.7480314960629921,
          "duration": 0.22058800000000645
        },
        {
          "name": "F#3",
          "midi": 54,
          "time": 69.04404400000006,
          "velocity": 0.7480314960629921,
          "duration": 0.22058800000000645
        },
        {
          "name": "B2",
          "midi": 47,
          "time": 69.04404400000006,
          "velocity": 0.7480314960629921,
          "duration": 0.22058800000000645
        },
        {
          "name": "D4",
          "midi": 62,
          "time": 69.26463200000006,
          "velocity": 0.7480314960629921,
          "duration": 0.22058800000000645
        },
        {
          "name": "B3",
          "midi": 59,
          "time": 69.26463200000006,
          "velocity": 0.7480314960629921,
          "duration": 0.22058800000000645
        },
        {
          "name": "F#3",
          "midi": 54,
          "time": 69.26463200000006,
          "velocity": 0.7480314960629921,
          "duration": 0.22058800000000645
        },
        {
          "name": "B2",
          "midi": 47,
          "time": 69.26463200000006,
          "velocity": 0.7480314960629921,
          "duration": 0.22058800000000645
        },
        {
          "name": "D4",
          "midi": 62,
          "time": 69.48522000000007,
          "velocity": 0.7480314960629921,
          "duration": 0.22058800000000645
        },
        {
          "name": "B3",
          "midi": 59,
          "time": 69.48522000000007,
          "velocity": 0.7480314960629921,
          "duration": 0.22058800000000645
        },
        {
          "name": "F#3",
          "midi": 54,
          "time": 69.48522000000007,
          "velocity": 0.7480314960629921,
          "duration": 0.22058800000000645
        },
        {
          "name": "B2",
          "midi": 47,
          "time": 69.48522000000007,
          "velocity": 0.7480314960629921,
          "duration": 0.22058800000000645
        },
        {
          "name": "D4",
          "midi": 62,
          "time": 69.70580800000008,
          "velocity": 0.7480314960629921,
          "duration": 0.22058800000000645
        },
        {
          "name": "B3",
          "midi": 59,
          "time": 69.70580800000008,
          "velocity": 0.7480314960629921,
          "duration": 0.22058800000000645
        },
        {
          "name": "F#3",
          "midi": 54,
          "time": 69.70580800000008,
          "velocity": 0.7480314960629921,
          "duration": 0.22058800000000645
        },
        {
          "name": "B2",
          "midi": 47,
          "time": 69.70580800000008,
          "velocity": 0.7480314960629921,
          "duration": 0.22058800000000645
        },
        {
          "name": "D4",
          "midi": 62,
          "time": 69.92639600000008,
          "velocity": 0.7480314960629921,
          "duration": 0.22058800000000645
        },
        {
          "name": "B3",
          "midi": 59,
          "time": 69.92639600000008,
          "velocity": 0.7480314960629921,
          "duration": 0.22058800000000645
        },
        {
          "name": "F#3",
          "midi": 54,
          "time": 69.92639600000008,
          "velocity": 0.7480314960629921,
          "duration": 0.22058800000000645
        },
        {
          "name": "B2",
          "midi": 47,
          "time": 69.92639600000008,
          "velocity": 0.7480314960629921,
          "duration": 0.22058800000000645
        },
        {
          "name": "D4",
          "midi": 62,
          "time": 70.14698400000009,
          "velocity": 0.7480314960629921,
          "duration": 0.22058800000000645
        },
        {
          "name": "B3",
          "midi": 59,
          "time": 70.14698400000009,
          "velocity": 0.7480314960629921,
          "duration": 0.22058800000000645
        },
        {
          "name": "F#3",
          "midi": 54,
          "time": 70.14698400000009,
          "velocity": 0.7480314960629921,
          "duration": 0.22058800000000645
        },
        {
          "name": "B2",
          "midi": 47,
          "time": 70.14698400000009,
          "velocity": 0.7480314960629921,
          "duration": 0.22058800000000645
        },
        {
          "name": "D4",
          "midi": 62,
          "time": 70.3675720000001,
          "velocity": 0.7480314960629921,
          "duration": 0.22058800000000645
        },
        {
          "name": "B3",
          "midi": 59,
          "time": 70.3675720000001,
          "velocity": 0.7480314960629921,
          "duration": 0.22058800000000645
        },
        {
          "name": "F#3",
          "midi": 54,
          "time": 70.3675720000001,
          "velocity": 0.7480314960629921,
          "duration": 0.22058800000000645
        },
        {
          "name": "B2",
          "midi": 47,
          "time": 70.3675720000001,
          "velocity": 0.7480314960629921,
          "duration": 0.22058800000000645
        },
        {
          "name": "D4",
          "midi": 62,
          "time": 70.5881600000001,
          "velocity": 0.7480314960629921,
          "duration": 0.22058800000000645
        },
        {
          "name": "A#3",
          "midi": 58,
          "time": 70.5881600000001,
          "velocity": 0.7480314960629921,
          "duration": 0.22058800000000645
        },
        {
          "name": "F#3",
          "midi": 54,
          "time": 70.5881600000001,
          "velocity": 0.7480314960629921,
          "duration": 0.22058800000000645
        },
        {
          "name": "C#3",
          "midi": 49,
          "time": 70.5881600000001,
          "velocity": 0.7480314960629921,
          "duration": 0.22058800000000645
        },
        {
          "name": "D4",
          "midi": 62,
          "time": 70.80874800000011,
          "velocity": 0.7480314960629921,
          "duration": 0.22058800000000645
        },
        {
          "name": "A#3",
          "midi": 58,
          "time": 70.80874800000011,
          "velocity": 0.7480314960629921,
          "duration": 0.22058800000000645
        },
        {
          "name": "F#3",
          "midi": 54,
          "time": 70.80874800000011,
          "velocity": 0.7480314960629921,
          "duration": 0.22058800000000645
        },
        {
          "name": "C#3",
          "midi": 49,
          "time": 70.80874800000011,
          "velocity": 0.7480314960629921,
          "duration": 0.22058800000000645
        },
        {
          "name": "D4",
          "midi": 62,
          "time": 71.02933600000011,
          "velocity": 0.7480314960629921,
          "duration": 0.22058800000000645
        },
        {
          "name": "A#3",
          "midi": 58,
          "time": 71.02933600000011,
          "velocity": 0.7480314960629921,
          "duration": 0.22058800000000645
        },
        {
          "name": "F#3",
          "midi": 54,
          "time": 71.02933600000011,
          "velocity": 0.7480314960629921,
          "duration": 0.22058800000000645
        },
        {
          "name": "C#3",
          "midi": 49,
          "time": 71.02933600000011,
          "velocity": 0.7480314960629921,
          "duration": 0.22058800000000645
        },
        {
          "name": "D4",
          "midi": 62,
          "time": 71.24992400000012,
          "velocity": 0.7480314960629921,
          "duration": 0.22058800000000645
        },
        {
          "name": "A#3",
          "midi": 58,
          "time": 71.24992400000012,
          "velocity": 0.7480314960629921,
          "duration": 0.22058800000000645
        },
        {
          "name": "F#3",
          "midi": 54,
          "time": 71.24992400000012,
          "velocity": 0.7480314960629921,
          "duration": 0.22058800000000645
        },
        {
          "name": "C#3",
          "midi": 49,
          "time": 71.24992400000012,
          "velocity": 0.7480314960629921,
          "duration": 0.22058800000000645
        },
        {
          "name": "C#4",
          "midi": 61,
          "time": 71.47051200000013,
          "velocity": 0.7480314960629921,
          "duration": 0.22058800000000645
        },
        {
          "name": "A#3",
          "midi": 58,
          "time": 71.47051200000013,
          "velocity": 0.7480314960629921,
          "duration": 0.22058800000000645
        },
        {
          "name": "F#3",
          "midi": 54,
          "time": 71.47051200000013,
          "velocity": 0.7480314960629921,
          "duration": 0.22058800000000645
        },
        {
          "name": "C#3",
          "midi": 49,
          "time": 71.47051200000013,
          "velocity": 0.7480314960629921,
          "duration": 0.22058800000000645
        },
        {
          "name": "C#4",
          "midi": 61,
          "time": 71.69110000000013,
          "velocity": 0.7480314960629921,
          "duration": 0.22058800000000645
        },
        {
          "name": "A#3",
          "midi": 58,
          "time": 71.69110000000013,
          "velocity": 0.7480314960629921,
          "duration": 0.22058800000000645
        },
        {
          "name": "F#3",
          "midi": 54,
          "time": 71.69110000000013,
          "velocity": 0.7480314960629921,
          "duration": 0.22058800000000645
        },
        {
          "name": "C#3",
          "midi": 49,
          "time": 71.69110000000013,
          "velocity": 0.7480314960629921,
          "duration": 0.22058800000000645
        },
        {
          "name": "C#4",
          "midi": 61,
          "time": 71.91168800000014,
          "velocity": 0.7480314960629921,
          "duration": 0.22058800000000645
        },
        {
          "name": "A#3",
          "midi": 58,
          "time": 71.91168800000014,
          "velocity": 0.7480314960629921,
          "duration": 0.22058800000000645
        },
        {
          "name": "F#3",
          "midi": 54,
          "time": 71.91168800000014,
          "velocity": 0.7480314960629921,
          "duration": 0.22058800000000645
        },
        {
          "name": "C#3",
          "midi": 49,
          "time": 71.91168800000014,
          "velocity": 0.7480314960629921,
          "duration": 0.22058800000000645
        },
        {
          "name": "C#4",
          "midi": 61,
          "time": 72.13227600000015,
          "velocity": 0.7480314960629921,
          "duration": 0.22058800000000645
        },
        {
          "name": "A#3",
          "midi": 58,
          "time": 72.13227600000015,
          "velocity": 0.7480314960629921,
          "duration": 0.22058800000000645
        },
        {
          "name": "F#3",
          "midi": 54,
          "time": 72.13227600000015,
          "velocity": 0.7480314960629921,
          "duration": 0.22058800000000645
        },
        {
          "name": "C#3",
          "midi": 49,
          "time": 72.13227600000015,
          "velocity": 0.7480314960629921,
          "duration": 0.22058800000000645
        },
        {
          "name": "B3",
          "midi": 59,
          "time": 72.35286400000015,
          "velocity": 0.7480314960629921,
          "duration": 0.22058800000000645
        },
        {
          "name": "G3",
          "midi": 55,
          "time": 72.35286400000015,
          "velocity": 0.7480314960629921,
          "duration": 0.22058800000000645
        },
        {
          "name": "D3",
          "midi": 50,
          "time": 72.35286400000015,
          "velocity": 0.7480314960629921,
          "duration": 0.22058800000000645
        },
        {
          "name": "G2",
          "midi": 43,
          "time": 72.35286400000015,
          "velocity": 0.7480314960629921,
          "duration": 0.22058800000000645
        },
        {
          "name": "B3",
          "midi": 59,
          "time": 72.57345200000016,
          "velocity": 0.7480314960629921,
          "duration": 0.22058800000000645
        },
        {
          "name": "G3",
          "midi": 55,
          "time": 72.57345200000016,
          "velocity": 0.7480314960629921,
          "duration": 0.22058800000000645
        },
        {
          "name": "D3",
          "midi": 50,
          "time": 72.57345200000016,
          "velocity": 0.7480314960629921,
          "duration": 0.22058800000000645
        },
        {
          "name": "G2",
          "midi": 43,
          "time": 72.57345200000016,
          "velocity": 0.7480314960629921,
          "duration": 0.22058800000000645
        },
        {
          "name": "B3",
          "midi": 59,
          "time": 72.79404000000017,
          "velocity": 0.7480314960629921,
          "duration": 0.22058800000000645
        },
        {
          "name": "G3",
          "midi": 55,
          "time": 72.79404000000017,
          "velocity": 0.7480314960629921,
          "duration": 0.22058800000000645
        },
        {
          "name": "D3",
          "midi": 50,
          "time": 72.79404000000017,
          "velocity": 0.7480314960629921,
          "duration": 0.22058800000000645
        },
        {
          "name": "G2",
          "midi": 43,
          "time": 72.79404000000017,
          "velocity": 0.7480314960629921,
          "duration": 0.22058800000000645
        },
        {
          "name": "B3",
          "midi": 59,
          "time": 73.01462800000017,
          "velocity": 0.7480314960629921,
          "duration": 0.22058800000000645
        },
        {
          "name": "G3",
          "midi": 55,
          "time": 73.01462800000017,
          "velocity": 0.7480314960629921,
          "duration": 0.22058800000000645
        },
        {
          "name": "D3",
          "midi": 50,
          "time": 73.01462800000017,
          "velocity": 0.7480314960629921,
          "duration": 0.22058800000000645
        },
        {
          "name": "G2",
          "midi": 43,
          "time": 73.01462800000017,
          "velocity": 0.7480314960629921,
          "duration": 0.22058800000000645
        },
        {
          "name": "B3",
          "midi": 59,
          "time": 73.23521600000018,
          "velocity": 0.7480314960629921,
          "duration": 0.22058800000000645
        },
        {
          "name": "G3",
          "midi": 55,
          "time": 73.23521600000018,
          "velocity": 0.7480314960629921,
          "duration": 0.22058800000000645
        },
        {
          "name": "D3",
          "midi": 50,
          "time": 73.23521600000018,
          "velocity": 0.7480314960629921,
          "duration": 0.22058800000000645
        },
        {
          "name": "G2",
          "midi": 43,
          "time": 73.23521600000018,
          "velocity": 0.7480314960629921,
          "duration": 0.22058800000000645
        },
        {
          "name": "B3",
          "midi": 59,
          "time": 73.45580400000019,
          "velocity": 0.7480314960629921,
          "duration": 0.22058800000000645
        },
        {
          "name": "G3",
          "midi": 55,
          "time": 73.45580400000019,
          "velocity": 0.7480314960629921,
          "duration": 0.22058800000000645
        },
        {
          "name": "D3",
          "midi": 50,
          "time": 73.45580400000019,
          "velocity": 0.7480314960629921,
          "duration": 0.22058800000000645
        },
        {
          "name": "G2",
          "midi": 43,
          "time": 73.45580400000019,
          "velocity": 0.7480314960629921,
          "duration": 0.22058800000000645
        },
        {
          "name": "B3",
          "midi": 59,
          "time": 73.67639200000019,
          "velocity": 0.7480314960629921,
          "duration": 0.22058800000000645
        },
        {
          "name": "G3",
          "midi": 55,
          "time": 73.67639200000019,
          "velocity": 0.7480314960629921,
          "duration": 0.22058800000000645
        },
        {
          "name": "D3",
          "midi": 50,
          "time": 73.67639200000019,
          "velocity": 0.7480314960629921,
          "duration": 0.22058800000000645
        },
        {
          "name": "G2",
          "midi": 43,
          "time": 73.67639200000019,
          "velocity": 0.7480314960629921,
          "duration": 0.22058800000000645
        },
        {
          "name": "B3",
          "midi": 59,
          "time": 73.8969800000002,
          "velocity": 0.7480314960629921,
          "duration": 0.22058800000000645
        },
        {
          "name": "G3",
          "midi": 55,
          "time": 73.8969800000002,
          "velocity": 0.7480314960629921,
          "duration": 0.22058800000000645
        },
        {
          "name": "D3",
          "midi": 50,
          "time": 73.8969800000002,
          "velocity": 0.7480314960629921,
          "duration": 0.22058800000000645
        },
        {
          "name": "G2",
          "midi": 43,
          "time": 73.8969800000002,
          "velocity": 0.7480314960629921,
          "duration": 0.22058800000000645
        },
        {
          "name": "B3",
          "midi": 59,
          "time": 74.1175680000002,
          "velocity": 0.7480314960629921,
          "duration": 0.22058800000000645
        },
        {
          "name": "G3",
          "midi": 55,
          "time": 74.1175680000002,
          "velocity": 0.7480314960629921,
          "duration": 0.22058800000000645
        },
        {
          "name": "D3",
          "midi": 50,
          "time": 74.1175680000002,
          "velocity": 0.7480314960629921,
          "duration": 0.22058800000000645
        },
        {
          "name": "G2",
          "midi": 43,
          "time": 74.1175680000002,
          "velocity": 0.7480314960629921,
          "duration": 0.22058800000000645
        },
        {
          "name": "B3",
          "midi": 59,
          "time": 74.33815600000021,
          "velocity": 0.7480314960629921,
          "duration": 0.22058800000000645
        },
        {
          "name": "G3",
          "midi": 55,
          "time": 74.33815600000021,
          "velocity": 0.7480314960629921,
          "duration": 0.22058800000000645
        },
        {
          "name": "D3",
          "midi": 50,
          "time": 74.33815600000021,
          "velocity": 0.7480314960629921,
          "duration": 0.22058800000000645
        },
        {
          "name": "G2",
          "midi": 43,
          "time": 74.33815600000021,
          "velocity": 0.7480314960629921,
          "duration": 0.22058800000000645
        },
        {
          "name": "B3",
          "midi": 59,
          "time": 74.55874400000022,
          "velocity": 0.7480314960629921,
          "duration": 0.22058800000000645
        },
        {
          "name": "G3",
          "midi": 55,
          "time": 74.55874400000022,
          "velocity": 0.7480314960629921,
          "duration": 0.22058800000000645
        },
        {
          "name": "D3",
          "midi": 50,
          "time": 74.55874400000022,
          "velocity": 0.7480314960629921,
          "duration": 0.22058800000000645
        },
        {
          "name": "G2",
          "midi": 43,
          "time": 74.55874400000022,
          "velocity": 0.7480314960629921,
          "duration": 0.22058800000000645
        },
        {
          "name": "B3",
          "midi": 59,
          "time": 74.77933200000022,
          "velocity": 0.7480314960629921,
          "duration": 0.22058800000000645
        },
        {
          "name": "G3",
          "midi": 55,
          "time": 74.77933200000022,
          "velocity": 0.7480314960629921,
          "duration": 0.22058800000000645
        },
        {
          "name": "D3",
          "midi": 50,
          "time": 74.77933200000022,
          "velocity": 0.7480314960629921,
          "duration": 0.22058800000000645
        },
        {
          "name": "G2",
          "midi": 43,
          "time": 74.77933200000022,
          "velocity": 0.7480314960629921,
          "duration": 0.22058800000000645
        },
        {
          "name": "B3",
          "midi": 59,
          "time": 74.99992000000023,
          "velocity": 0.7480314960629921,
          "duration": 0.22058800000000645
        },
        {
          "name": "G3",
          "midi": 55,
          "time": 74.99992000000023,
          "velocity": 0.7480314960629921,
          "duration": 0.22058800000000645
        },
        {
          "name": "D3",
          "midi": 50,
          "time": 74.99992000000023,
          "velocity": 0.7480314960629921,
          "duration": 0.22058800000000645
        },
        {
          "name": "G2",
          "midi": 43,
          "time": 74.99992000000023,
          "velocity": 0.7480314960629921,
          "duration": 0.22058800000000645
        },
        {
          "name": "B3",
          "midi": 59,
          "time": 75.22050800000024,
          "velocity": 0.7480314960629921,
          "duration": 0.22058800000000645
        },
        {
          "name": "G3",
          "midi": 55,
          "time": 75.22050800000024,
          "velocity": 0.7480314960629921,
          "duration": 0.22058800000000645
        },
        {
          "name": "D3",
          "midi": 50,
          "time": 75.22050800000024,
          "velocity": 0.7480314960629921,
          "duration": 0.22058800000000645
        },
        {
          "name": "G2",
          "midi": 43,
          "time": 75.22050800000024,
          "velocity": 0.7480314960629921,
          "duration": 0.22058800000000645
        },
        {
          "name": "B3",
          "midi": 59,
          "time": 75.44109600000024,
          "velocity": 0.7480314960629921,
          "duration": 0.22058800000000645
        },
        {
          "name": "G3",
          "midi": 55,
          "time": 75.44109600000024,
          "velocity": 0.7480314960629921,
          "duration": 0.22058800000000645
        },
        {
          "name": "D3",
          "midi": 50,
          "time": 75.44109600000024,
          "velocity": 0.7480314960629921,
          "duration": 0.22058800000000645
        },
        {
          "name": "G2",
          "midi": 43,
          "time": 75.44109600000024,
          "velocity": 0.7480314960629921,
          "duration": 0.22058800000000645
        },
        {
          "name": "B3",
          "midi": 59,
          "time": 75.66168400000025,
          "velocity": 0.7480314960629921,
          "duration": 0.22058800000000645
        },
        {
          "name": "G3",
          "midi": 55,
          "time": 75.66168400000025,
          "velocity": 0.7480314960629921,
          "duration": 0.22058800000000645
        },
        {
          "name": "D3",
          "midi": 50,
          "time": 75.66168400000025,
          "velocity": 0.7480314960629921,
          "duration": 0.22058800000000645
        },
        {
          "name": "G2",
          "midi": 43,
          "time": 75.66168400000025,
          "velocity": 0.7480314960629921,
          "duration": 0.22058800000000645
        },
        {
          "name": "D4",
          "midi": 62,
          "time": 75.88227200000026,
          "velocity": 0.7480314960629921,
          "duration": 0.22058800000000645
        },
        {
          "name": "B3",
          "midi": 59,
          "time": 75.88227200000026,
          "velocity": 0.7480314960629921,
          "duration": 0.22058800000000645
        },
        {
          "name": "F#3",
          "midi": 54,
          "time": 75.88227200000026,
          "velocity": 0.7480314960629921,
          "duration": 0.22058800000000645
        },
        {
          "name": "B2",
          "midi": 47,
          "time": 75.88227200000026,
          "velocity": 0.7480314960629921,
          "duration": 0.22058800000000645
        },
        {
          "name": "D4",
          "midi": 62,
          "time": 76.10286000000026,
          "velocity": 0.7480314960629921,
          "duration": 0.22058800000000645
        },
        {
          "name": "B3",
          "midi": 59,
          "time": 76.10286000000026,
          "velocity": 0.7480314960629921,
          "duration": 0.22058800000000645
        },
        {
          "name": "F#3",
          "midi": 54,
          "time": 76.10286000000026,
          "velocity": 0.7480314960629921,
          "duration": 0.22058800000000645
        },
        {
          "name": "B2",
          "midi": 47,
          "time": 76.10286000000026,
          "velocity": 0.7480314960629921,
          "duration": 0.22058800000000645
        },
        {
          "name": "D4",
          "midi": 62,
          "time": 76.32344800000027,
          "velocity": 0.7480314960629921,
          "duration": 0.22058800000000645
        },
        {
          "name": "B3",
          "midi": 59,
          "time": 76.32344800000027,
          "velocity": 0.7480314960629921,
          "duration": 0.22058800000000645
        },
        {
          "name": "F#3",
          "midi": 54,
          "time": 76.32344800000027,
          "velocity": 0.7480314960629921,
          "duration": 0.22058800000000645
        },
        {
          "name": "B2",
          "midi": 47,
          "time": 76.32344800000027,
          "velocity": 0.7480314960629921,
          "duration": 0.22058800000000645
        },
        {
          "name": "D4",
          "midi": 62,
          "time": 76.54403600000028,
          "velocity": 0.7480314960629921,
          "duration": 0.22058800000000645
        },
        {
          "name": "B3",
          "midi": 59,
          "time": 76.54403600000028,
          "velocity": 0.7480314960629921,
          "duration": 0.22058800000000645
        },
        {
          "name": "F#3",
          "midi": 54,
          "time": 76.54403600000028,
          "velocity": 0.7480314960629921,
          "duration": 0.22058800000000645
        },
        {
          "name": "B2",
          "midi": 47,
          "time": 76.54403600000028,
          "velocity": 0.7480314960629921,
          "duration": 0.22058800000000645
        },
        {
          "name": "D4",
          "midi": 62,
          "time": 76.76462400000028,
          "velocity": 0.7480314960629921,
          "duration": 0.22058800000000645
        },
        {
          "name": "B3",
          "midi": 59,
          "time": 76.76462400000028,
          "velocity": 0.7480314960629921,
          "duration": 0.22058800000000645
        },
        {
          "name": "F#3",
          "midi": 54,
          "time": 76.76462400000028,
          "velocity": 0.7480314960629921,
          "duration": 0.22058800000000645
        },
        {
          "name": "B2",
          "midi": 47,
          "time": 76.76462400000028,
          "velocity": 0.7480314960629921,
          "duration": 0.22058800000000645
        },
        {
          "name": "D4",
          "midi": 62,
          "time": 76.98521200000029,
          "velocity": 0.7480314960629921,
          "duration": 0.22058800000000645
        },
        {
          "name": "B3",
          "midi": 59,
          "time": 76.98521200000029,
          "velocity": 0.7480314960629921,
          "duration": 0.22058800000000645
        },
        {
          "name": "F#3",
          "midi": 54,
          "time": 76.98521200000029,
          "velocity": 0.7480314960629921,
          "duration": 0.22058800000000645
        },
        {
          "name": "B2",
          "midi": 47,
          "time": 76.98521200000029,
          "velocity": 0.7480314960629921,
          "duration": 0.22058800000000645
        },
        {
          "name": "D4",
          "midi": 62,
          "time": 77.2058000000003,
          "velocity": 0.7480314960629921,
          "duration": 0.22058800000000645
        },
        {
          "name": "B3",
          "midi": 59,
          "time": 77.2058000000003,
          "velocity": 0.7480314960629921,
          "duration": 0.22058800000000645
        },
        {
          "name": "F#3",
          "midi": 54,
          "time": 77.2058000000003,
          "velocity": 0.7480314960629921,
          "duration": 0.22058800000000645
        },
        {
          "name": "B2",
          "midi": 47,
          "time": 77.2058000000003,
          "velocity": 0.7480314960629921,
          "duration": 0.22058800000000645
        },
        {
          "name": "D4",
          "midi": 62,
          "time": 77.4263880000003,
          "velocity": 0.7480314960629921,
          "duration": 0.22058800000000645
        },
        {
          "name": "B3",
          "midi": 59,
          "time": 77.4263880000003,
          "velocity": 0.7480314960629921,
          "duration": 0.22058800000000645
        },
        {
          "name": "F#3",
          "midi": 54,
          "time": 77.4263880000003,
          "velocity": 0.7480314960629921,
          "duration": 0.22058800000000645
        },
        {
          "name": "B2",
          "midi": 47,
          "time": 77.4263880000003,
          "velocity": 0.7480314960629921,
          "duration": 0.22058800000000645
        },
        {
          "name": "C#4",
          "midi": 61,
          "time": 77.64697600000031,
          "velocity": 0.7480314960629921,
          "duration": 0.22058800000000645
        },
        {
          "name": "A#3",
          "midi": 58,
          "time": 77.64697600000031,
          "velocity": 0.7480314960629921,
          "duration": 0.22058800000000645
        },
        {
          "name": "F#3",
          "midi": 54,
          "time": 77.64697600000031,
          "velocity": 0.7480314960629921,
          "duration": 0.22058800000000645
        },
        {
          "name": "C#3",
          "midi": 49,
          "time": 77.64697600000031,
          "velocity": 0.7480314960629921,
          "duration": 0.22058800000000645
        },
        {
          "name": "C#4",
          "midi": 61,
          "time": 77.86756400000031,
          "velocity": 0.7480314960629921,
          "duration": 0.22058800000000645
        },
        {
          "name": "A#3",
          "midi": 58,
          "time": 77.86756400000031,
          "velocity": 0.7480314960629921,
          "duration": 0.22058800000000645
        },
        {
          "name": "F#3",
          "midi": 54,
          "time": 77.86756400000031,
          "velocity": 0.7480314960629921,
          "duration": 0.22058800000000645
        },
        {
          "name": "C#3",
          "midi": 49,
          "time": 77.86756400000031,
          "velocity": 0.7480314960629921,
          "duration": 0.22058800000000645
        },
        {
          "name": "C#4",
          "midi": 61,
          "time": 78.08815200000032,
          "velocity": 0.7480314960629921,
          "duration": 0.22058800000000645
        },
        {
          "name": "A#3",
          "midi": 58,
          "time": 78.08815200000032,
          "velocity": 0.7480314960629921,
          "duration": 0.22058800000000645
        },
        {
          "name": "F#3",
          "midi": 54,
          "time": 78.08815200000032,
          "velocity": 0.7480314960629921,
          "duration": 0.22058800000000645
        },
        {
          "name": "C#3",
          "midi": 49,
          "time": 78.08815200000032,
          "velocity": 0.7480314960629921,
          "duration": 0.22058800000000645
        },
        {
          "name": "C#4",
          "midi": 61,
          "time": 78.30874000000033,
          "velocity": 0.7480314960629921,
          "duration": 0.22058800000000645
        },
        {
          "name": "A#3",
          "midi": 58,
          "time": 78.30874000000033,
          "velocity": 0.7480314960629921,
          "duration": 0.22058800000000645
        },
        {
          "name": "F#3",
          "midi": 54,
          "time": 78.30874000000033,
          "velocity": 0.7480314960629921,
          "duration": 0.22058800000000645
        },
        {
          "name": "C#3",
          "midi": 49,
          "time": 78.30874000000033,
          "velocity": 0.7480314960629921,
          "duration": 0.22058800000000645
        },
        {
          "name": "C#4",
          "midi": 61,
          "time": 78.52932800000033,
          "velocity": 0.7480314960629921,
          "duration": 0.22058800000000645
        },
        {
          "name": "A#3",
          "midi": 58,
          "time": 78.52932800000033,
          "velocity": 0.7480314960629921,
          "duration": 0.22058800000000645
        },
        {
          "name": "F#3",
          "midi": 54,
          "time": 78.52932800000033,
          "velocity": 0.7480314960629921,
          "duration": 0.22058800000000645
        },
        {
          "name": "C#3",
          "midi": 49,
          "time": 78.52932800000033,
          "velocity": 0.7480314960629921,
          "duration": 0.22058800000000645
        },
        {
          "name": "C#4",
          "midi": 61,
          "time": 78.74991600000034,
          "velocity": 0.7480314960629921,
          "duration": 0.22058800000000645
        },
        {
          "name": "A#3",
          "midi": 58,
          "time": 78.74991600000034,
          "velocity": 0.7480314960629921,
          "duration": 0.22058800000000645
        },
        {
          "name": "F#3",
          "midi": 54,
          "time": 78.74991600000034,
          "velocity": 0.7480314960629921,
          "duration": 0.22058800000000645
        },
        {
          "name": "C#3",
          "midi": 49,
          "time": 78.74991600000034,
          "velocity": 0.7480314960629921,
          "duration": 0.22058800000000645
        },
        {
          "name": "C#4",
          "midi": 61,
          "time": 78.97050400000035,
          "velocity": 0.7480314960629921,
          "duration": 0.22058800000000645
        },
        {
          "name": "A#3",
          "midi": 58,
          "time": 78.97050400000035,
          "velocity": 0.7480314960629921,
          "duration": 0.22058800000000645
        },
        {
          "name": "F#3",
          "midi": 54,
          "time": 78.97050400000035,
          "velocity": 0.7480314960629921,
          "duration": 0.22058800000000645
        },
        {
          "name": "C#3",
          "midi": 49,
          "time": 78.97050400000035,
          "velocity": 0.7480314960629921,
          "duration": 0.22058800000000645
        },
        {
          "name": "C#4",
          "midi": 61,
          "time": 79.19109200000035,
          "velocity": 0.7480314960629921,
          "duration": 0.22058800000000645
        },
        {
          "name": "A#3",
          "midi": 58,
          "time": 79.19109200000035,
          "velocity": 0.7480314960629921,
          "duration": 0.22058800000000645
        },
        {
          "name": "F#3",
          "midi": 54,
          "time": 79.19109200000035,
          "velocity": 0.7480314960629921,
          "duration": 0.22058800000000645
        },
        {
          "name": "C#3",
          "midi": 49,
          "time": 79.19109200000035,
          "velocity": 0.7480314960629921,
          "duration": 0.22058800000000645
        },
        {
          "name": "B3",
          "midi": 59,
          "time": 79.41168000000036,
          "velocity": 0.7480314960629921,
          "duration": 0.22058800000000645
        },
        {
          "name": "G3",
          "midi": 55,
          "time": 79.41168000000036,
          "velocity": 0.7480314960629921,
          "duration": 0.22058800000000645
        },
        {
          "name": "D3",
          "midi": 50,
          "time": 79.41168000000036,
          "velocity": 0.7480314960629921,
          "duration": 0.22058800000000645
        },
        {
          "name": "G2",
          "midi": 43,
          "time": 79.41168000000036,
          "velocity": 0.7480314960629921,
          "duration": 0.22058800000000645
        },
        {
          "name": "B3",
          "midi": 59,
          "time": 79.63226800000037,
          "velocity": 0.7480314960629921,
          "duration": 0.22058800000000645
        },
        {
          "name": "G3",
          "midi": 55,
          "time": 79.63226800000037,
          "velocity": 0.7480314960629921,
          "duration": 0.22058800000000645
        },
        {
          "name": "D3",
          "midi": 50,
          "time": 79.63226800000037,
          "velocity": 0.7480314960629921,
          "duration": 0.22058800000000645
        },
        {
          "name": "G2",
          "midi": 43,
          "time": 79.63226800000037,
          "velocity": 0.7480314960629921,
          "duration": 0.22058800000000645
        },
        {
          "name": "B3",
          "midi": 59,
          "time": 79.85285600000037,
          "velocity": 0.7480314960629921,
          "duration": 0.22058800000000645
        },
        {
          "name": "G3",
          "midi": 55,
          "time": 79.85285600000037,
          "velocity": 0.7480314960629921,
          "duration": 0.22058800000000645
        },
        {
          "name": "D3",
          "midi": 50,
          "time": 79.85285600000037,
          "velocity": 0.7480314960629921,
          "duration": 0.22058800000000645
        },
        {
          "name": "G2",
          "midi": 43,
          "time": 79.85285600000037,
          "velocity": 0.7480314960629921,
          "duration": 0.22058800000000645
        },
        {
          "name": "B3",
          "midi": 59,
          "time": 80.07344400000038,
          "velocity": 0.7480314960629921,
          "duration": 0.22058800000000645
        },
        {
          "name": "G3",
          "midi": 55,
          "time": 80.07344400000038,
          "velocity": 0.7480314960629921,
          "duration": 0.22058800000000645
        },
        {
          "name": "D3",
          "midi": 50,
          "time": 80.07344400000038,
          "velocity": 0.7480314960629921,
          "duration": 0.22058800000000645
        },
        {
          "name": "G2",
          "midi": 43,
          "time": 80.07344400000038,
          "velocity": 0.7480314960629921,
          "duration": 0.22058800000000645
        },
        {
          "name": "B3",
          "midi": 59,
          "time": 80.29403200000039,
          "velocity": 0.7480314960629921,
          "duration": 0.22058800000000645
        },
        {
          "name": "G3",
          "midi": 55,
          "time": 80.29403200000039,
          "velocity": 0.7480314960629921,
          "duration": 0.22058800000000645
        },
        {
          "name": "D3",
          "midi": 50,
          "time": 80.29403200000039,
          "velocity": 0.7480314960629921,
          "duration": 0.22058800000000645
        },
        {
          "name": "G2",
          "midi": 43,
          "time": 80.29403200000039,
          "velocity": 0.7480314960629921,
          "duration": 0.22058800000000645
        },
        {
          "name": "B3",
          "midi": 59,
          "time": 80.51462000000039,
          "velocity": 0.7480314960629921,
          "duration": 0.22058800000000645
        },
        {
          "name": "G3",
          "midi": 55,
          "time": 80.51462000000039,
          "velocity": 0.7480314960629921,
          "duration": 0.22058800000000645
        },
        {
          "name": "D3",
          "midi": 50,
          "time": 80.51462000000039,
          "velocity": 0.7480314960629921,
          "duration": 0.22058800000000645
        },
        {
          "name": "G2",
          "midi": 43,
          "time": 80.51462000000039,
          "velocity": 0.7480314960629921,
          "duration": 0.22058800000000645
        },
        {
          "name": "B3",
          "midi": 59,
          "time": 80.7352080000004,
          "velocity": 0.7480314960629921,
          "duration": 0.22058800000000645
        },
        {
          "name": "G3",
          "midi": 55,
          "time": 80.7352080000004,
          "velocity": 0.7480314960629921,
          "duration": 0.22058800000000645
        },
        {
          "name": "D3",
          "midi": 50,
          "time": 80.7352080000004,
          "velocity": 0.7480314960629921,
          "duration": 0.22058800000000645
        },
        {
          "name": "G2",
          "midi": 43,
          "time": 80.7352080000004,
          "velocity": 0.7480314960629921,
          "duration": 0.22058800000000645
        },
        {
          "name": "B3",
          "midi": 59,
          "time": 80.9557960000004,
          "velocity": 0.7480314960629921,
          "duration": 0.22058800000000645
        },
        {
          "name": "G3",
          "midi": 55,
          "time": 80.9557960000004,
          "velocity": 0.7480314960629921,
          "duration": 0.22058800000000645
        },
        {
          "name": "D3",
          "midi": 50,
          "time": 80.9557960000004,
          "velocity": 0.7480314960629921,
          "duration": 0.22058800000000645
        },
        {
          "name": "G2",
          "midi": 43,
          "time": 80.9557960000004,
          "velocity": 0.7480314960629921,
          "duration": 0.22058800000000645
        },
        {
          "name": "B3",
          "midi": 59,
          "time": 81.17638400000041,
          "velocity": 0.7480314960629921,
          "duration": 0.22058800000000645
        },
        {
          "name": "G3",
          "midi": 55,
          "time": 81.17638400000041,
          "velocity": 0.7480314960629921,
          "duration": 0.22058800000000645
        },
        {
          "name": "D3",
          "midi": 50,
          "time": 81.17638400000041,
          "velocity": 0.7480314960629921,
          "duration": 0.22058800000000645
        },
        {
          "name": "G2",
          "midi": 43,
          "time": 81.17638400000041,
          "velocity": 0.7480314960629921,
          "duration": 0.22058800000000645
        },
        {
          "name": "B3",
          "midi": 59,
          "time": 81.39697200000042,
          "velocity": 0.7480314960629921,
          "duration": 0.22058800000000645
        },
        {
          "name": "G3",
          "midi": 55,
          "time": 81.39697200000042,
          "velocity": 0.7480314960629921,
          "duration": 0.22058800000000645
        },
        {
          "name": "D3",
          "midi": 50,
          "time": 81.39697200000042,
          "velocity": 0.7480314960629921,
          "duration": 0.22058800000000645
        },
        {
          "name": "G2",
          "midi": 43,
          "time": 81.39697200000042,
          "velocity": 0.7480314960629921,
          "duration": 0.22058800000000645
        },
        {
          "name": "B3",
          "midi": 59,
          "time": 81.61756000000042,
          "velocity": 0.7480314960629921,
          "duration": 0.22058800000000645
        },
        {
          "name": "G3",
          "midi": 55,
          "time": 81.61756000000042,
          "velocity": 0.7480314960629921,
          "duration": 0.22058800000000645
        },
        {
          "name": "D3",
          "midi": 50,
          "time": 81.61756000000042,
          "velocity": 0.7480314960629921,
          "duration": 0.22058800000000645
        },
        {
          "name": "G2",
          "midi": 43,
          "time": 81.61756000000042,
          "velocity": 0.7480314960629921,
          "duration": 0.22058800000000645
        },
        {
          "name": "B3",
          "midi": 59,
          "time": 81.83814800000043,
          "velocity": 0.7480314960629921,
          "duration": 0.22058800000000645
        },
        {
          "name": "G3",
          "midi": 55,
          "time": 81.83814800000043,
          "velocity": 0.7480314960629921,
          "duration": 0.22058800000000645
        },
        {
          "name": "D3",
          "midi": 50,
          "time": 81.83814800000043,
          "velocity": 0.7480314960629921,
          "duration": 0.22058800000000645
        },
        {
          "name": "G2",
          "midi": 43,
          "time": 81.83814800000043,
          "velocity": 0.7480314960629921,
          "duration": 0.22058800000000645
        },
        {
          "name": "B3",
          "midi": 59,
          "time": 82.05873600000044,
          "velocity": 0.7480314960629921,
          "duration": 0.22058800000000645
        },
        {
          "name": "G3",
          "midi": 55,
          "time": 82.05873600000044,
          "velocity": 0.7480314960629921,
          "duration": 0.22058800000000645
        },
        {
          "name": "D3",
          "midi": 50,
          "time": 82.05873600000044,
          "velocity": 0.7480314960629921,
          "duration": 0.22058800000000645
        },
        {
          "name": "G2",
          "midi": 43,
          "time": 82.05873600000044,
          "velocity": 0.7480314960629921,
          "duration": 0.22058800000000645
        },
        {
          "name": "A3",
          "midi": 57,
          "time": 82.27932400000044,
          "velocity": 0.7480314960629921,
          "duration": 0.22058800000000645
        },
        {
          "name": "E3",
          "midi": 52,
          "time": 82.27932400000044,
          "velocity": 0.7480314960629921,
          "duration": 0.22058800000000645
        },
        {
          "name": "A2",
          "midi": 45,
          "time": 82.27932400000044,
          "velocity": 0.7480314960629921,
          "duration": 0.22058800000000645
        },
        {
          "name": "A3",
          "midi": 57,
          "time": 82.49991200000045,
          "velocity": 0.7480314960629921,
          "duration": 0.22058800000000645
        },
        {
          "name": "E3",
          "midi": 52,
          "time": 82.49991200000045,
          "velocity": 0.7480314960629921,
          "duration": 0.22058800000000645
        },
        {
          "name": "A2",
          "midi": 45,
          "time": 82.49991200000045,
          "velocity": 0.7480314960629921,
          "duration": 0.22058800000000645
        },
        {
          "name": "A3",
          "midi": 57,
          "time": 82.72050000000046,
          "velocity": 0.7480314960629921,
          "duration": 0.22058800000000645
        },
        {
          "name": "E3",
          "midi": 52,
          "time": 82.72050000000046,
          "velocity": 0.7480314960629921,
          "duration": 0.22058800000000645
        },
        {
          "name": "A2",
          "midi": 45,
          "time": 82.72050000000046,
          "velocity": 0.7480314960629921,
          "duration": 0.22058800000000645
        },
        {
          "name": "F#4",
          "midi": 66,
          "time": 82.94108800000046,
          "velocity": 0.7480314960629921,
          "duration": 0.22058800000000645
        },
        {
          "name": "D4",
          "midi": 62,
          "time": 82.94108800000046,
          "velocity": 0.7480314960629921,
          "duration": 0.22058800000000645
        },
        {
          "name": "A3",
          "midi": 57,
          "time": 82.94108800000046,
          "velocity": 0.7480314960629921,
          "duration": 0.22058800000000645
        },
        {
          "name": "D3",
          "midi": 50,
          "time": 82.94108800000046,
          "velocity": 0.7480314960629921,
          "duration": 0.22058800000000645
        },
        {
          "name": "A2",
          "midi": 45,
          "time": 82.94108800000046,
          "velocity": 0.7480314960629921,
          "duration": 0.22058800000000645
        },
        {
          "name": "F#4",
          "midi": 66,
          "time": 83.16167600000047,
          "velocity": 0.7480314960629921,
          "duration": 0.22058800000000645
        },
        {
          "name": "D4",
          "midi": 62,
          "time": 83.16167600000047,
          "velocity": 0.7480314960629921,
          "duration": 0.22058800000000645
        },
        {
          "name": "A3",
          "midi": 57,
          "time": 83.16167600000047,
          "velocity": 0.7480314960629921,
          "duration": 0.22058800000000645
        },
        {
          "name": "D3",
          "midi": 50,
          "time": 83.16167600000047,
          "velocity": 0.7480314960629921,
          "duration": 0.22058800000000645
        },
        {
          "name": "A2",
          "midi": 45,
          "time": 83.16167600000047,
          "velocity": 0.7480314960629921,
          "duration": 0.22058800000000645
        },
        {
          "name": "F#4",
          "midi": 66,
          "time": 83.38226400000048,
          "velocity": 0.7480314960629921,
          "duration": 0.22058800000000645
        },
        {
          "name": "D4",
          "midi": 62,
          "time": 83.38226400000048,
          "velocity": 0.7480314960629921,
          "duration": 0.22058800000000645
        },
        {
          "name": "A3",
          "midi": 57,
          "time": 83.38226400000048,
          "velocity": 0.7480314960629921,
          "duration": 0.22058800000000645
        },
        {
          "name": "D3",
          "midi": 50,
          "time": 83.38226400000048,
          "velocity": 0.7480314960629921,
          "duration": 0.22058800000000645
        },
        {
          "name": "A2",
          "midi": 45,
          "time": 83.38226400000048,
          "velocity": 0.7480314960629921,
          "duration": 0.22058800000000645
        },
        {
          "name": "F#4",
          "midi": 66,
          "time": 83.60285200000048,
          "velocity": 0.7480314960629921,
          "duration": 0.22058800000000645
        },
        {
          "name": "D4",
          "midi": 62,
          "time": 83.60285200000048,
          "velocity": 0.7480314960629921,
          "duration": 0.22058800000000645
        },
        {
          "name": "A3",
          "midi": 57,
          "time": 83.60285200000048,
          "velocity": 0.7480314960629921,
          "duration": 0.22058800000000645
        },
        {
          "name": "D3",
          "midi": 50,
          "time": 83.60285200000048,
          "velocity": 0.7480314960629921,
          "duration": 0.22058800000000645
        },
        {
          "name": "A2",
          "midi": 45,
          "time": 83.60285200000048,
          "velocity": 0.7480314960629921,
          "duration": 0.22058800000000645
        },
        {
          "name": "F#4",
          "midi": 66,
          "time": 83.82344000000049,
          "velocity": 0.7480314960629921,
          "duration": 0.22058800000000645
        },
        {
          "name": "D4",
          "midi": 62,
          "time": 83.82344000000049,
          "velocity": 0.7480314960629921,
          "duration": 0.22058800000000645
        },
        {
          "name": "A3",
          "midi": 57,
          "time": 83.82344000000049,
          "velocity": 0.7480314960629921,
          "duration": 0.22058800000000645
        },
        {
          "name": "D3",
          "midi": 50,
          "time": 83.82344000000049,
          "velocity": 0.7480314960629921,
          "duration": 0.22058800000000645
        },
        {
          "name": "A2",
          "midi": 45,
          "time": 83.82344000000049,
          "velocity": 0.7480314960629921,
          "duration": 0.22058800000000645
        },
        {
          "name": "F#4",
          "midi": 66,
          "time": 84.0440280000005,
          "velocity": 0.7480314960629921,
          "duration": 0.22058800000000645
        },
        {
          "name": "D4",
          "midi": 62,
          "time": 84.0440280000005,
          "velocity": 0.7480314960629921,
          "duration": 0.22058800000000645
        },
        {
          "name": "A3",
          "midi": 57,
          "time": 84.0440280000005,
          "velocity": 0.7480314960629921,
          "duration": 0.22058800000000645
        },
        {
          "name": "D3",
          "midi": 50,
          "time": 84.0440280000005,
          "velocity": 0.7480314960629921,
          "duration": 0.22058800000000645
        },
        {
          "name": "A2",
          "midi": 45,
          "time": 84.0440280000005,
          "velocity": 0.7480314960629921,
          "duration": 0.22058800000000645
        },
        {
          "name": "F#4",
          "midi": 66,
          "time": 84.2646160000005,
          "velocity": 0.7480314960629921,
          "duration": 0.22058800000000645
        },
        {
          "name": "D4",
          "midi": 62,
          "time": 84.2646160000005,
          "velocity": 0.7480314960629921,
          "duration": 0.22058800000000645
        },
        {
          "name": "A3",
          "midi": 57,
          "time": 84.2646160000005,
          "velocity": 0.7480314960629921,
          "duration": 0.22058800000000645
        },
        {
          "name": "D3",
          "midi": 50,
          "time": 84.2646160000005,
          "velocity": 0.7480314960629921,
          "duration": 0.22058800000000645
        },
        {
          "name": "A2",
          "midi": 45,
          "time": 84.2646160000005,
          "velocity": 0.7480314960629921,
          "duration": 0.22058800000000645
        },
        {
          "name": "F#4",
          "midi": 66,
          "time": 84.48520400000051,
          "velocity": 0.7480314960629921,
          "duration": 0.22058800000000645
        },
        {
          "name": "D4",
          "midi": 62,
          "time": 84.48520400000051,
          "velocity": 0.7480314960629921,
          "duration": 0.22058800000000645
        },
        {
          "name": "A3",
          "midi": 57,
          "time": 84.48520400000051,
          "velocity": 0.7480314960629921,
          "duration": 0.22058800000000645
        },
        {
          "name": "D3",
          "midi": 50,
          "time": 84.48520400000051,
          "velocity": 0.7480314960629921,
          "duration": 0.22058800000000645
        },
        {
          "name": "A2",
          "midi": 45,
          "time": 84.48520400000051,
          "velocity": 0.7480314960629921,
          "duration": 0.22058800000000645
        },
        {
          "name": "F#4",
          "midi": 66,
          "time": 84.70579200000051,
          "velocity": 0.7480314960629921,
          "duration": 0.22058800000000645
        },
        {
          "name": "D4",
          "midi": 62,
          "time": 84.70579200000051,
          "velocity": 0.7480314960629921,
          "duration": 0.22058800000000645
        },
        {
          "name": "A3",
          "midi": 57,
          "time": 84.70579200000051,
          "velocity": 0.7480314960629921,
          "duration": 0.22058800000000645
        },
        {
          "name": "D3",
          "midi": 50,
          "time": 84.70579200000051,
          "velocity": 0.7480314960629921,
          "duration": 0.22058800000000645
        },
        {
          "name": "A2",
          "midi": 45,
          "time": 84.70579200000051,
          "velocity": 0.7480314960629921,
          "duration": 0.22058800000000645
        },
        {
          "name": "F#4",
          "midi": 66,
          "time": 84.92638000000052,
          "velocity": 0.7480314960629921,
          "duration": 0.22058800000000645
        },
        {
          "name": "D4",
          "midi": 62,
          "time": 84.92638000000052,
          "velocity": 0.7480314960629921,
          "duration": 0.22058800000000645
        },
        {
          "name": "A3",
          "midi": 57,
          "time": 84.92638000000052,
          "velocity": 0.7480314960629921,
          "duration": 0.22058800000000645
        },
        {
          "name": "D3",
          "midi": 50,
          "time": 84.92638000000052,
          "velocity": 0.7480314960629921,
          "duration": 0.22058800000000645
        },
        {
          "name": "A2",
          "midi": 45,
          "time": 84.92638000000052,
          "velocity": 0.7480314960629921,
          "duration": 0.22058800000000645
        },
        {
          "name": "F#4",
          "midi": 66,
          "time": 85.14696800000053,
          "velocity": 0.7480314960629921,
          "duration": 0.22058800000000645
        },
        {
          "name": "D4",
          "midi": 62,
          "time": 85.14696800000053,
          "velocity": 0.7480314960629921,
          "duration": 0.22058800000000645
        },
        {
          "name": "A3",
          "midi": 57,
          "time": 85.14696800000053,
          "velocity": 0.7480314960629921,
          "duration": 0.22058800000000645
        },
        {
          "name": "D3",
          "midi": 50,
          "time": 85.14696800000053,
          "velocity": 0.7480314960629921,
          "duration": 0.22058800000000645
        },
        {
          "name": "A2",
          "midi": 45,
          "time": 85.14696800000053,
          "velocity": 0.7480314960629921,
          "duration": 0.22058800000000645
        },
        {
          "name": "F#4",
          "midi": 66,
          "time": 85.36755600000053,
          "velocity": 0.7480314960629921,
          "duration": 0.22058800000000645
        },
        {
          "name": "D4",
          "midi": 62,
          "time": 85.36755600000053,
          "velocity": 0.7480314960629921,
          "duration": 0.22058800000000645
        },
        {
          "name": "A3",
          "midi": 57,
          "time": 85.36755600000053,
          "velocity": 0.7480314960629921,
          "duration": 0.22058800000000645
        },
        {
          "name": "D3",
          "midi": 50,
          "time": 85.36755600000053,
          "velocity": 0.7480314960629921,
          "duration": 0.22058800000000645
        },
        {
          "name": "A2",
          "midi": 45,
          "time": 85.36755600000053,
          "velocity": 0.7480314960629921,
          "duration": 0.22058800000000645
        },
        {
          "name": "F#4",
          "midi": 66,
          "time": 85.58814400000054,
          "velocity": 0.7480314960629921,
          "duration": 0.22058800000000645
        },
        {
          "name": "D4",
          "midi": 62,
          "time": 85.58814400000054,
          "velocity": 0.7480314960629921,
          "duration": 0.22058800000000645
        },
        {
          "name": "A3",
          "midi": 57,
          "time": 85.58814400000054,
          "velocity": 0.7480314960629921,
          "duration": 0.22058800000000645
        },
        {
          "name": "D3",
          "midi": 50,
          "time": 85.58814400000054,
          "velocity": 0.7480314960629921,
          "duration": 0.22058800000000645
        },
        {
          "name": "A2",
          "midi": 45,
          "time": 85.58814400000054,
          "velocity": 0.7480314960629921,
          "duration": 0.22058800000000645
        },
        {
          "name": "F#4",
          "midi": 66,
          "time": 85.80873200000055,
          "velocity": 0.7480314960629921,
          "duration": 0.22058800000000645
        },
        {
          "name": "D4",
          "midi": 62,
          "time": 85.80873200000055,
          "velocity": 0.7480314960629921,
          "duration": 0.22058800000000645
        },
        {
          "name": "A3",
          "midi": 57,
          "time": 85.80873200000055,
          "velocity": 0.7480314960629921,
          "duration": 0.22058800000000645
        },
        {
          "name": "D3",
          "midi": 50,
          "time": 85.80873200000055,
          "velocity": 0.7480314960629921,
          "duration": 0.22058800000000645
        },
        {
          "name": "A2",
          "midi": 45,
          "time": 85.80873200000055,
          "velocity": 0.7480314960629921,
          "duration": 0.22058800000000645
        },
        {
          "name": "F#4",
          "midi": 66,
          "time": 86.02932000000055,
          "velocity": 0.7480314960629921,
          "duration": 0.22058800000000645
        },
        {
          "name": "D4",
          "midi": 62,
          "time": 86.02932000000055,
          "velocity": 0.7480314960629921,
          "duration": 0.22058800000000645
        },
        {
          "name": "A3",
          "midi": 57,
          "time": 86.02932000000055,
          "velocity": 0.7480314960629921,
          "duration": 0.22058800000000645
        },
        {
          "name": "D3",
          "midi": 50,
          "time": 86.02932000000055,
          "velocity": 0.7480314960629921,
          "duration": 0.22058800000000645
        },
        {
          "name": "A2",
          "midi": 45,
          "time": 86.02932000000055,
          "velocity": 0.7480314960629921,
          "duration": 0.22058800000000645
        },
        {
          "name": "F#4",
          "midi": 66,
          "time": 86.24990800000056,
          "velocity": 0.7480314960629921,
          "duration": 0.22058800000000645
        },
        {
          "name": "D4",
          "midi": 62,
          "time": 86.24990800000056,
          "velocity": 0.7480314960629921,
          "duration": 0.22058800000000645
        },
        {
          "name": "A3",
          "midi": 57,
          "time": 86.24990800000056,
          "velocity": 0.7480314960629921,
          "duration": 0.22058800000000645
        },
        {
          "name": "D3",
          "midi": 50,
          "time": 86.24990800000056,
          "velocity": 0.7480314960629921,
          "duration": 0.22058800000000645
        },
        {
          "name": "A2",
          "midi": 45,
          "time": 86.24990800000056,
          "velocity": 0.7480314960629921,
          "duration": 0.22058800000000645
        },
        {
          "name": "A#3",
          "midi": 58,
          "time": 86.47049600000057,
          "velocity": 0.7480314960629921,
          "duration": 0.22058800000000645
        },
        {
          "name": "B3",
          "midi": 59,
          "time": 86.69108400000057,
          "velocity": 0.7480314960629921,
          "duration": 0.22058800000000645
        },
        {
          "name": "C#4",
          "midi": 61,
          "time": 86.91167200000058,
          "velocity": 0.7480314960629921,
          "duration": 0.22058800000000645
        },
        {
          "name": "A#3",
          "midi": 58,
          "time": 87.13226000000058,
          "velocity": 0.7480314960629921,
          "duration": 0.22058800000000645
        },
        {
          "name": "B3",
          "midi": 59,
          "time": 87.35284800000059,
          "velocity": 0.7480314960629921,
          "duration": 0.22058800000000645
        },
        {
          "name": "C#4",
          "midi": 61,
          "time": 87.5734360000006,
          "velocity": 0.7480314960629921,
          "duration": 0.22058800000000645
        },
        {
          "name": "D4",
          "midi": 62,
          "time": 87.7940240000006,
          "velocity": 0.7480314960629921,
          "duration": 0.22058800000000645
        },
        {
          "name": "B3",
          "midi": 59,
          "time": 88.01461200000061,
          "velocity": 0.7480314960629921,
          "duration": 0.22058800000000645
        },
        {
          "name": "C#4",
          "midi": 61,
          "time": 88.23520000000062,
          "velocity": 0.7480314960629921,
          "duration": 0.22058800000000645
        },
        {
          "name": "D4",
          "midi": 62,
          "time": 88.45578800000062,
          "velocity": 0.7480314960629921,
          "duration": 0.22058800000000645
        },
        {
          "name": "E4",
          "midi": 64,
          "time": 88.67637600000063,
          "velocity": 0.7480314960629921,
          "duration": 0.22058800000000645
        },
        {
          "name": "F#4",
          "midi": 66,
          "time": 88.89696400000064,
          "velocity": 0.7480314960629921,
          "duration": 0.11029399999999612
        },
        {
          "name": "G4",
          "midi": 67,
          "time": 89.00725800000063,
          "velocity": 0.5984251968503937,
          "duration": 0.11029399999999612
        },
        {
          "name": "F#4",
          "midi": 66,
          "time": 89.11755200000063,
          "velocity": 0.5984251968503937,
          "duration": 0.22058800000000645
        },
        {
          "name": "E4",
          "midi": 64,
          "time": 89.33814000000064,
          "velocity": 0.7480314960629921,
          "duration": 0.22058800000000645
        },
        {
          "name": "D4",
          "midi": 62,
          "time": 89.55872800000064,
          "velocity": 0.7480314960629921,
          "duration": 0.22058800000000645
        },
        {
          "name": "C#4",
          "midi": 61,
          "time": 89.77931600000065,
          "velocity": 0.7480314960629921,
          "duration": 0.22058800000000645
        },
        {
          "name": "B3",
          "midi": 59,
          "time": 89.99990400000065,
          "velocity": 0.7480314960629921,
          "duration": 0.22058800000000645
        },
        {
          "name": "C#4",
          "midi": 61,
          "time": 90.22049200000066,
          "velocity": 0.7480314960629921,
          "duration": 0.22058800000000645
        },
        {
          "name": "D4",
          "midi": 62,
          "time": 90.44108000000067,
          "velocity": 0.7480314960629921,
          "duration": 0.22058800000000645
        },
        {
          "name": "B3",
          "midi": 59,
          "time": 90.66166800000067,
          "velocity": 0.7480314960629921,
          "duration": 0.22058800000000645
        },
        {
          "name": "C#4",
          "midi": 61,
          "time": 90.88225600000068,
          "velocity": 0.7480314960629921,
          "duration": 0.22058800000000645
        },
        {
          "name": "D4",
          "midi": 62,
          "time": 91.10284400000069,
          "velocity": 0.7480314960629921,
          "duration": 0.22058800000000645
        },
        {
          "name": "E4",
          "midi": 64,
          "time": 91.3234320000007,
          "velocity": 0.7480314960629921,
          "duration": 0.22058800000000645
        },
        {
          "name": "C#4",
          "midi": 61,
          "time": 91.5440200000007,
          "velocity": 0.7480314960629921,
          "duration": 0.22058800000000645
        },
        {
          "name": "D4",
          "midi": 62,
          "time": 91.7646080000007,
          "velocity": 0.7480314960629921,
          "duration": 0.22058800000000645
        },
        {
          "name": "E4",
          "midi": 64,
          "time": 91.98519600000071,
          "velocity": 0.7480314960629921,
          "duration": 0.22058800000000645
        },
        {
          "name": "F#4",
          "midi": 66,
          "time": 92.20578400000072,
          "velocity": 0.7480314960629921,
          "duration": 0.22058800000000645
        },
        {
          "name": "F#4",
          "midi": 66,
          "time": 92.42637200000073,
          "velocity": 0.7480314960629921,
          "duration": 0.11029399999999612
        },
        {
          "name": "G4",
          "midi": 67,
          "time": 92.53666600000072,
          "velocity": 0.5984251968503937,
          "duration": 0.11029399999999612
        },
        {
          "name": "F#4",
          "midi": 66,
          "time": 92.64696000000072,
          "velocity": 0.5984251968503937,
          "duration": 0.22058800000000645
        },
        {
          "name": "F4",
          "midi": 65,
          "time": 92.86754800000072,
          "velocity": 0.7480314960629921,
          "duration": 0.22058800000000645
        },
        {
          "name": "F#4",
          "midi": 66,
          "time": 93.08813600000073,
          "velocity": 0.7480314960629921,
          "duration": 0.22058800000000645
        },
        {
          "name": "F4",
          "midi": 65,
          "time": 93.30872400000074,
          "velocity": 0.7480314960629921,
          "duration": 0.22058800000000645
        },
        {
          "name": "F#4",
          "midi": 66,
          "time": 93.52931200000074,
          "velocity": 0.7480314960629921,
          "duration": 1.1029400000000322
        },
        {
          "name": "D4",
          "midi": 62,
          "time": 93.74990000000075,
          "velocity": 0.7480314960629921,
          "duration": 0.8823520000000258
        },
        {
          "name": "A3",
          "midi": 57,
          "time": 93.97048800000076,
          "velocity": 0.7480314960629921,
          "duration": 0.22058800000000645
        },
        {
          "name": "F#3",
          "midi": 54,
          "time": 94.19107600000076,
          "velocity": 0.7480314960629921,
          "duration": 0.6617640000000193
        },
        {
          "name": "A3",
          "midi": 57,
          "time": 94.41166400000077,
          "velocity": 0.7480314960629921,
          "duration": 0.4411760000000129
        },
        {
          "name": "D4",
          "midi": 62,
          "time": 94.63225200000078,
          "velocity": 0.7480314960629921,
          "duration": 0.22058800000000645
        },
        {
          "name": "F#4",
          "midi": 66,
          "time": 94.85284000000078,
          "velocity": 0.7480314960629921,
          "duration": 0.22058800000000645
        },
        {
          "name": "G#4",
          "midi": 68,
          "time": 95.07342800000079,
          "velocity": 0.7480314960629921,
          "duration": 0.22058800000000645
        },
        {
          "name": "G#4",
          "midi": 68,
          "time": 95.2940160000008,
          "velocity": 0.7480314960629921,
          "duration": 0.4411760000000413
        },
        {
          "name": "F#4",
          "midi": 66,
          "time": 95.73519200000084,
          "velocity": 0.7480314960629921,
          "duration": 0.22058800000000645
        },
        {
          "name": "F4",
          "midi": 65,
          "time": 95.95578000000084,
          "velocity": 0.7480314960629921,
          "duration": 0.22058800000000645
        },
        {
          "name": "F#4",
          "midi": 66,
          "time": 96.17636800000085,
          "velocity": 0.7480314960629921,
          "duration": 0.22058800000000645
        },
        {
          "name": "D4",
          "midi": 62,
          "time": 96.39695600000086,
          "velocity": 0.7480314960629921,
          "duration": 0.22058800000000645
        },
        {
          "name": "C#4",
          "midi": 61,
          "time": 96.61754400000086,
          "velocity": 0.7480314960629921,
          "duration": 0.22058800000000645
        },
        {
          "name": "D4",
          "midi": 62,
          "time": 96.83813200000087,
          "velocity": 0.7480314960629921,
          "duration": 0.22058800000000645
        },
        {
          "name": "A#3",
          "midi": 58,
          "time": 97.05872000000087,
          "velocity": 0.7480314960629921,
          "duration": 0.22058800000000645
        },
        {
          "name": "B3",
          "midi": 59,
          "time": 97.27930800000088,
          "velocity": 0.7480314960629921,
          "duration": 0.22058800000000645
        },
        {
          "name": "C#4",
          "midi": 61,
          "time": 97.49989600000089,
          "velocity": 0.7480314960629921,
          "duration": 0.22058800000000645
        },
        {
          "name": "A#3",
          "midi": 58,
          "time": 97.7204840000009,
          "velocity": 0.7480314960629921,
          "duration": 0.22058800000000645
        },
        {
          "name": "B3",
          "midi": 59,
          "time": 97.9410720000009,
          "velocity": 0.7480314960629921,
          "duration": 0.22058800000000645
        },
        {
          "name": "C#4",
          "midi": 61,
          "time": 98.16166000000091,
          "velocity": 0.7480314960629921,
          "duration": 0.22058800000000645
        },
        {
          "name": "D4",
          "midi": 62,
          "time": 98.38224800000091,
          "velocity": 0.7480314960629921,
          "duration": 0.22058800000000645
        },
        {
          "name": "B3",
          "midi": 59,
          "time": 98.60283600000092,
          "velocity": 0.7480314960629921,
          "duration": 0.22058800000000645
        },
        {
          "name": "C#4",
          "midi": 61,
          "time": 98.82342400000093,
          "velocity": 0.7480314960629921,
          "duration": 0.22058800000000645
        },
        {
          "name": "D4",
          "midi": 62,
          "time": 99.04401200000093,
          "velocity": 0.7480314960629921,
          "duration": 0.22058800000000645
        },
        {
          "name": "E4",
          "midi": 64,
          "time": 99.26460000000094,
          "velocity": 0.7480314960629921,
          "duration": 0.22058800000000645
        },
        {
          "name": "F#4",
          "midi": 66,
          "time": 99.48518800000095,
          "velocity": 0.7480314960629921,
          "duration": 0.11029399999999612
        },
        {
          "name": "G4",
          "midi": 67,
          "time": 99.59548200000094,
          "velocity": 0.5984251968503937,
          "duration": 0.11029399999999612
        },
        {
          "name": "F#4",
          "midi": 66,
          "time": 99.70577600000094,
          "velocity": 0.5984251968503937,
          "duration": 0.22058800000000645
        },
        {
          "name": "E4",
          "midi": 64,
          "time": 99.92636400000094,
          "velocity": 0.7480314960629921,
          "duration": 0.22058800000000645
        },
        {
          "name": "D4",
          "midi": 62,
          "time": 100.14695200000095,
          "velocity": 0.7480314960629921,
          "duration": 0.22058800000000645
        },
        {
          "name": "C#4",
          "midi": 61,
          "time": 100.36754000000096,
          "velocity": 0.7480314960629921,
          "duration": 0.22058800000000645
        },
        {
          "name": "B3",
          "midi": 59,
          "time": 100.58812800000096,
          "velocity": 0.7480314960629921,
          "duration": 3.5294079999998758
        },
        {
          "name": "E4",
          "midi": 64,
          "time": 128.82339200000084,
          "velocity": 0.7480314960629921,
          "duration": 0.018382333333335055
        },
        {
          "name": "B3",
          "midi": 59,
          "time": 128.82339200000084,
          "velocity": 0.7480314960629921,
          "duration": 0.018382333333335055
        },
        {
          "name": "G3",
          "midi": 55,
          "time": 128.82339200000084,
          "velocity": 0.7480314960629921,
          "duration": 0.018382333333335055
        },
        {
          "name": "D3",
          "midi": 50,
          "time": 128.82339200000084,
          "velocity": 0.7480314960629921,
          "duration": 0.018382333333335055
        },
        {
          "name": "A2",
          "midi": 45,
          "time": 128.82339200000084,
          "velocity": 0.7480314960629921,
          "duration": 0.018382333333335055
        },
        {
          "name": "F#2",
          "midi": 42,
          "time": 128.82339200000084,
          "velocity": 0.7480314960629921,
          "duration": 0.22058799999999223
        },
        {
          "name": "E4",
          "midi": 64,
          "time": 129.04398000000083,
          "velocity": 0.7480314960629921,
          "duration": 0.018382333333335055
        },
        {
          "name": "B3",
          "midi": 59,
          "time": 129.04398000000083,
          "velocity": 0.7480314960629921,
          "duration": 0.018382333333335055
        },
        {
          "name": "G3",
          "midi": 55,
          "time": 129.04398000000083,
          "velocity": 0.7480314960629921,
          "duration": 0.018382333333335055
        },
        {
          "name": "D3",
          "midi": 50,
          "time": 129.04398000000083,
          "velocity": 0.7480314960629921,
          "duration": 0.018382333333335055
        },
        {
          "name": "A2",
          "midi": 45,
          "time": 129.04398000000083,
          "velocity": 0.7480314960629921,
          "duration": 0.018382333333335055
        },
        {
          "name": "F#2",
          "midi": 42,
          "time": 129.04398000000083,
          "velocity": 0.7480314960629921,
          "duration": 0.22058799999999223
        },
        {
          "name": "E4",
          "midi": 64,
          "time": 129.26456800000082,
          "velocity": 0.7480314960629921,
          "duration": 0.018382333333335055
        },
        {
          "name": "B3",
          "midi": 59,
          "time": 129.26456800000082,
          "velocity": 0.7480314960629921,
          "duration": 0.018382333333335055
        },
        {
          "name": "G3",
          "midi": 55,
          "time": 129.26456800000082,
          "velocity": 0.7480314960629921,
          "duration": 0.018382333333335055
        },
        {
          "name": "D3",
          "midi": 50,
          "time": 129.26456800000082,
          "velocity": 0.7480314960629921,
          "duration": 0.018382333333335055
        },
        {
          "name": "A2",
          "midi": 45,
          "time": 129.26456800000082,
          "velocity": 0.7480314960629921,
          "duration": 0.018382333333335055
        },
        {
          "name": "F#2",
          "midi": 42,
          "time": 129.26456800000082,
          "velocity": 0.7480314960629921,
          "duration": 0.22058799999999223
        },
        {
          "name": "E4",
          "midi": 64,
          "time": 129.4851560000008,
          "velocity": 0.7480314960629921,
          "duration": 0.018382333333335055
        },
        {
          "name": "B3",
          "midi": 59,
          "time": 129.4851560000008,
          "velocity": 0.7480314960629921,
          "duration": 0.018382333333335055
        },
        {
          "name": "G3",
          "midi": 55,
          "time": 129.4851560000008,
          "velocity": 0.7480314960629921,
          "duration": 0.018382333333335055
        },
        {
          "name": "D3",
          "midi": 50,
          "time": 129.4851560000008,
          "velocity": 0.7480314960629921,
          "duration": 0.018382333333335055
        },
        {
          "name": "A2",
          "midi": 45,
          "time": 129.4851560000008,
          "velocity": 0.7480314960629921,
          "duration": 0.018382333333335055
        },
        {
          "name": "F#2",
          "midi": 42,
          "time": 129.4851560000008,
          "velocity": 0.7480314960629921,
          "duration": 0.22058799999999223
        },
        {
          "name": "E4",
          "midi": 64,
          "time": 129.7057440000008,
          "velocity": 0.7480314960629921,
          "duration": 0.018382333333335055
        },
        {
          "name": "B3",
          "midi": 59,
          "time": 129.7057440000008,
          "velocity": 0.7480314960629921,
          "duration": 0.018382333333335055
        },
        {
          "name": "G3",
          "midi": 55,
          "time": 129.7057440000008,
          "velocity": 0.7480314960629921,
          "duration": 0.018382333333335055
        },
        {
          "name": "D3",
          "midi": 50,
          "time": 129.7057440000008,
          "velocity": 0.7480314960629921,
          "duration": 0.018382333333335055
        },
        {
          "name": "C#3",
          "midi": 49,
          "time": 129.7057440000008,
          "velocity": 0.7480314960629921,
          "duration": 0.22058799999999223
        },
        {
          "name": "F#2",
          "midi": 42,
          "time": 129.7057440000008,
          "velocity": 0.7480314960629921,
          "duration": 0.22058799999999223
        },
        {
          "name": "E4",
          "midi": 64,
          "time": 129.9263320000008,
          "velocity": 0.7480314960629921,
          "duration": 0.018382333333335055
        },
        {
          "name": "B3",
          "midi": 59,
          "time": 129.9263320000008,
          "velocity": 0.7480314960629921,
          "duration": 0.018382333333335055
        },
        {
          "name": "G3",
          "midi": 55,
          "time": 129.9263320000008,
          "velocity": 0.7480314960629921,
          "duration": 0.018382333333335055
        },
        {
          "name": "D3",
          "midi": 50,
          "time": 129.9263320000008,
          "velocity": 0.7480314960629921,
          "duration": 0.018382333333335055
        },
        {
          "name": "C#3",
          "midi": 49,
          "time": 129.9263320000008,
          "velocity": 0.7480314960629921,
          "duration": 0.22058799999999223
        },
        {
          "name": "F#2",
          "midi": 42,
          "time": 129.9263320000008,
          "velocity": 0.7480314960629921,
          "duration": 0.22058799999999223
        },
        {
          "name": "E4",
          "midi": 64,
          "time": 130.1469200000008,
          "velocity": 0.7480314960629921,
          "duration": 0.018382333333335055
        },
        {
          "name": "B3",
          "midi": 59,
          "time": 130.1469200000008,
          "velocity": 0.7480314960629921,
          "duration": 0.018382333333335055
        },
        {
          "name": "G3",
          "midi": 55,
          "time": 130.1469200000008,
          "velocity": 0.7480314960629921,
          "duration": 0.018382333333335055
        },
        {
          "name": "D3",
          "midi": 50,
          "time": 130.1469200000008,
          "velocity": 0.7480314960629921,
          "duration": 0.018382333333335055
        },
        {
          "name": "C#3",
          "midi": 49,
          "time": 130.1469200000008,
          "velocity": 0.7480314960629921,
          "duration": 0.22058799999999223
        },
        {
          "name": "F#2",
          "midi": 42,
          "time": 130.1469200000008,
          "velocity": 0.7480314960629921,
          "duration": 0.22058799999999223
        },
        {
          "name": "E4",
          "midi": 64,
          "time": 130.36750800000078,
          "velocity": 0.7480314960629921,
          "duration": 0.018382333333335055
        },
        {
          "name": "B3",
          "midi": 59,
          "time": 130.36750800000078,
          "velocity": 0.7480314960629921,
          "duration": 0.018382333333335055
        },
        {
          "name": "G3",
          "midi": 55,
          "time": 130.36750800000078,
          "velocity": 0.7480314960629921,
          "duration": 0.018382333333335055
        },
        {
          "name": "D3",
          "midi": 50,
          "time": 130.36750800000078,
          "velocity": 0.7480314960629921,
          "duration": 0.018382333333335055
        },
        {
          "name": "C#3",
          "midi": 49,
          "time": 130.36750800000078,
          "velocity": 0.7480314960629921,
          "duration": 0.22058799999999223
        },
        {
          "name": "F#2",
          "midi": 42,
          "time": 130.36750800000078,
          "velocity": 0.7480314960629921,
          "duration": 0.22058799999999223
        },
        {
          "name": "E4",
          "midi": 64,
          "time": 130.58809600000077,
          "velocity": 0.7480314960629921,
          "duration": 0.018382333333335055
        },
        {
          "name": "B3",
          "midi": 59,
          "time": 130.58809600000077,
          "velocity": 0.7480314960629921,
          "duration": 0.018382333333335055
        },
        {
          "name": "G3",
          "midi": 55,
          "time": 130.58809600000077,
          "velocity": 0.7480314960629921,
          "duration": 0.018382333333335055
        },
        {
          "name": "F#3",
          "midi": 54,
          "time": 130.58809600000077,
          "velocity": 0.7480314960629921,
          "duration": 0.22058799999999223
        },
        {
          "name": "C#3",
          "midi": 49,
          "time": 130.58809600000077,
          "velocity": 0.7480314960629921,
          "duration": 0.22058799999999223
        },
        {
          "name": "F#2",
          "midi": 42,
          "time": 130.58809600000077,
          "velocity": 0.7480314960629921,
          "duration": 0.22058799999999223
        },
        {
          "name": "E4",
          "midi": 64,
          "time": 130.80868400000077,
          "velocity": 0.7480314960629921,
          "duration": 0.018382333333335055
        },
        {
          "name": "B3",
          "midi": 59,
          "time": 130.80868400000077,
          "velocity": 0.7480314960629921,
          "duration": 0.018382333333335055
        },
        {
          "name": "G3",
          "midi": 55,
          "time": 130.80868400000077,
          "velocity": 0.7480314960629921,
          "duration": 0.018382333333335055
        },
        {
          "name": "F#3",
          "midi": 54,
          "time": 130.80868400000077,
          "velocity": 0.7480314960629921,
          "duration": 0.22058799999999223
        },
        {
          "name": "C#3",
          "midi": 49,
          "time": 130.80868400000077,
          "velocity": 0.7480314960629921,
          "duration": 0.22058799999999223
        },
        {
          "name": "F#2",
          "midi": 42,
          "time": 130.80868400000077,
          "velocity": 0.7480314960629921,
          "duration": 0.22058799999999223
        },
        {
          "name": "E4",
          "midi": 64,
          "time": 131.02927200000076,
          "velocity": 0.7480314960629921,
          "duration": 0.018382333333335055
        },
        {
          "name": "B3",
          "midi": 59,
          "time": 131.02927200000076,
          "velocity": 0.7480314960629921,
          "duration": 0.018382333333335055
        },
        {
          "name": "G3",
          "midi": 55,
          "time": 131.02927200000076,
          "velocity": 0.7480314960629921,
          "duration": 0.018382333333335055
        },
        {
          "name": "F#3",
          "midi": 54,
          "time": 131.02927200000076,
          "velocity": 0.7480314960629921,
          "duration": 0.22058799999999223
        },
        {
          "name": "C#3",
          "midi": 49,
          "time": 131.02927200000076,
          "velocity": 0.7480314960629921,
          "duration": 0.22058799999999223
        },
        {
          "name": "F#2",
          "midi": 42,
          "time": 131.02927200000076,
          "velocity": 0.7480314960629921,
          "duration": 0.22058799999999223
        },
        {
          "name": "E4",
          "midi": 64,
          "time": 131.24986000000075,
          "velocity": 0.7480314960629921,
          "duration": 0.018382333333335055
        },
        {
          "name": "B3",
          "midi": 59,
          "time": 131.24986000000075,
          "velocity": 0.7480314960629921,
          "duration": 0.018382333333335055
        },
        {
          "name": "G3",
          "midi": 55,
          "time": 131.24986000000075,
          "velocity": 0.7480314960629921,
          "duration": 0.018382333333335055
        },
        {
          "name": "F#3",
          "midi": 54,
          "time": 131.24986000000075,
          "velocity": 0.7480314960629921,
          "duration": 0.22058799999999223
        },
        {
          "name": "C#3",
          "midi": 49,
          "time": 131.24986000000075,
          "velocity": 0.7480314960629921,
          "duration": 0.22058799999999223
        },
        {
          "name": "F#2",
          "midi": 42,
          "time": 131.24986000000075,
          "velocity": 0.7480314960629921,
          "duration": 0.22058799999999223
        },
        {
          "name": "E4",
          "midi": 64,
          "time": 131.47044800000074,
          "velocity": 0.7480314960629921,
          "duration": 0.018382333333335055
        },
        {
          "name": "C#4",
          "midi": 61,
          "time": 131.47044800000074,
          "velocity": 0.7480314960629921,
          "duration": 0.22058799999999223
        },
        {
          "name": "A#3",
          "midi": 58,
          "time": 131.47044800000074,
          "velocity": 0.7480314960629921,
          "duration": 0.22058799999999223
        },
        {
          "name": "F#3",
          "midi": 54,
          "time": 131.47044800000074,
          "velocity": 0.7480314960629921,
          "duration": 0.22058799999999223
        },
        {
          "name": "C#3",
          "midi": 49,
          "time": 131.47044800000074,
          "velocity": 0.7480314960629921,
          "duration": 0.22058799999999223
        },
        {
          "name": "F#2",
          "midi": 42,
          "time": 131.47044800000074,
          "velocity": 0.7480314960629921,
          "duration": 0.22058799999999223
        },
        {
          "name": "E4",
          "midi": 64,
          "time": 131.69103600000074,
          "velocity": 0.7480314960629921,
          "duration": 0.018382333333335055
        },
        {
          "name": "C#4",
          "midi": 61,
          "time": 131.69103600000074,
          "velocity": 0.7480314960629921,
          "duration": 0.22058799999999223
        },
        {
          "name": "A#3",
          "midi": 58,
          "time": 131.69103600000074,
          "velocity": 0.7480314960629921,
          "duration": 0.22058799999999223
        },
        {
          "name": "F#3",
          "midi": 54,
          "time": 131.69103600000074,
          "velocity": 0.7480314960629921,
          "duration": 0.22058799999999223
        },
        {
          "name": "C#3",
          "midi": 49,
          "time": 131.69103600000074,
          "velocity": 0.7480314960629921,
          "duration": 0.22058799999999223
        },
        {
          "name": "F#2",
          "midi": 42,
          "time": 131.69103600000074,
          "velocity": 0.7480314960629921,
          "duration": 0.22058799999999223
        },
        {
          "name": "C#4",
          "midi": 61,
          "time": 131.91162400000073,
          "velocity": 0.7480314960629921,
          "duration": 0.22058799999999223
        },
        {
          "name": "A#3",
          "midi": 58,
          "time": 131.91162400000073,
          "velocity": 0.7480314960629921,
          "duration": 0.22058799999999223
        },
        {
          "name": "F#3",
          "midi": 54,
          "time": 131.91162400000073,
          "velocity": 0.7480314960629921,
          "duration": 0.22058799999999223
        },
        {
          "name": "C#3",
          "midi": 49,
          "time": 131.91162400000073,
          "velocity": 0.7480314960629921,
          "duration": 0.22058799999999223
        },
        {
          "name": "F#2",
          "midi": 42,
          "time": 131.91162400000073,
          "velocity": 0.7480314960629921,
          "duration": 0.22058799999999223
        },
        {
          "name": "G3",
          "midi": 55,
          "time": 132.13221200000072,
          "velocity": 0.7480314960629921,
          "duration": 0.22058799999999223
        },
        {
          "name": "D3",
          "midi": 50,
          "time": 132.13221200000072,
          "velocity": 0.7480314960629921,
          "duration": 0.22058799999999223
        },
        {
          "name": "A2",
          "midi": 45,
          "time": 132.13221200000072,
          "velocity": 0.7480314960629921,
          "duration": 0.22058799999999223
        },
        {
          "name": "E2",
          "midi": 40,
          "time": 132.13221200000072,
          "velocity": 0.7480314960629921,
          "duration": 0.22058799999999223
        },
        {
          "name": "B3",
          "midi": 59,
          "time": 132.3528000000007,
          "velocity": 0.7480314960629921,
          "duration": 0.22058799999999223
        },
        {
          "name": "G3",
          "midi": 55,
          "time": 132.3528000000007,
          "velocity": 0.7480314960629921,
          "duration": 0.22058799999999223
        },
        {
          "name": "D3",
          "midi": 50,
          "time": 132.3528000000007,
          "velocity": 0.7480314960629921,
          "duration": 0.22058799999999223
        },
        {
          "name": "G2",
          "midi": 43,
          "time": 132.3528000000007,
          "velocity": 0.7480314960629921,
          "duration": 0.22058799999999223
        },
        {
          "name": "B3",
          "midi": 59,
          "time": 132.5733880000007,
          "velocity": 0.7480314960629921,
          "duration": 0.22058799999999223
        },
        {
          "name": "G3",
          "midi": 55,
          "time": 132.5733880000007,
          "velocity": 0.7480314960629921,
          "duration": 0.22058799999999223
        },
        {
          "name": "D3",
          "midi": 50,
          "time": 132.5733880000007,
          "velocity": 0.7480314960629921,
          "duration": 0.22058799999999223
        },
        {
          "name": "G2",
          "midi": 43,
          "time": 132.5733880000007,
          "velocity": 0.7480314960629921,
          "duration": 0.22058799999999223
        },
        {
          "name": "B3",
          "midi": 59,
          "time": 132.7939760000007,
          "velocity": 0.7480314960629921,
          "duration": 0.22058799999999223
        },
        {
          "name": "G3",
          "midi": 55,
          "time": 132.7939760000007,
          "velocity": 0.7480314960629921,
          "duration": 0.22058799999999223
        },
        {
          "name": "D3",
          "midi": 50,
          "time": 132.7939760000007,
          "velocity": 0.7480314960629921,
          "duration": 0.22058799999999223
        },
        {
          "name": "G2",
          "midi": 43,
          "time": 132.7939760000007,
          "velocity": 0.7480314960629921,
          "duration": 0.22058799999999223
        },
        {
          "name": "B3",
          "midi": 59,
          "time": 133.0145640000007,
          "velocity": 0.7480314960629921,
          "duration": 0.22058799999999223
        },
        {
          "name": "G3",
          "midi": 55,
          "time": 133.0145640000007,
          "velocity": 0.7480314960629921,
          "duration": 0.22058799999999223
        },
        {
          "name": "D3",
          "midi": 50,
          "time": 133.0145640000007,
          "velocity": 0.7480314960629921,
          "duration": 0.22058799999999223
        },
        {
          "name": "G2",
          "midi": 43,
          "time": 133.0145640000007,
          "velocity": 0.7480314960629921,
          "duration": 0.22058799999999223
        },
        {
          "name": "B3",
          "midi": 59,
          "time": 133.23515200000068,
          "velocity": 0.7480314960629921,
          "duration": 0.22058799999999223
        },
        {
          "name": "G3",
          "midi": 55,
          "time": 133.23515200000068,
          "velocity": 0.7480314960629921,
          "duration": 0.22058799999999223
        },
        {
          "name": "D3",
          "midi": 50,
          "time": 133.23515200000068,
          "velocity": 0.7480314960629921,
          "duration": 0.22058799999999223
        },
        {
          "name": "G2",
          "midi": 43,
          "time": 133.23515200000068,
          "velocity": 0.7480314960629921,
          "duration": 0.22058799999999223
        },
        {
          "name": "B3",
          "midi": 59,
          "time": 133.45574000000067,
          "velocity": 0.7480314960629921,
          "duration": 0.22058799999999223
        },
        {
          "name": "G3",
          "midi": 55,
          "time": 133.45574000000067,
          "velocity": 0.7480314960629921,
          "duration": 0.22058799999999223
        },
        {
          "name": "D3",
          "midi": 50,
          "time": 133.45574000000067,
          "velocity": 0.7480314960629921,
          "duration": 0.22058799999999223
        },
        {
          "name": "G2",
          "midi": 43,
          "time": 133.45574000000067,
          "velocity": 0.7480314960629921,
          "duration": 0.22058799999999223
        },
        {
          "name": "B3",
          "midi": 59,
          "time": 133.67632800000067,
          "velocity": 0.7480314960629921,
          "duration": 0.22058799999999223
        },
        {
          "name": "G3",
          "midi": 55,
          "time": 133.67632800000067,
          "velocity": 0.7480314960629921,
          "duration": 0.22058799999999223
        },
        {
          "name": "D3",
          "midi": 50,
          "time": 133.67632800000067,
          "velocity": 0.7480314960629921,
          "duration": 0.22058799999999223
        },
        {
          "name": "G2",
          "midi": 43,
          "time": 133.67632800000067,
          "velocity": 0.7480314960629921,
          "duration": 0.22058799999999223
        },
        {
          "name": "B3",
          "midi": 59,
          "time": 133.89691600000066,
          "velocity": 0.7480314960629921,
          "duration": 0.22058799999999223
        },
        {
          "name": "G3",
          "midi": 55,
          "time": 133.89691600000066,
          "velocity": 0.7480314960629921,
          "duration": 0.22058799999999223
        },
        {
          "name": "D3",
          "midi": 50,
          "time": 133.89691600000066,
          "velocity": 0.7480314960629921,
          "duration": 0.22058799999999223
        },
        {
          "name": "G2",
          "midi": 43,
          "time": 133.89691600000066,
          "velocity": 0.7480314960629921,
          "duration": 0.22058799999999223
        },
        {
          "name": "B3",
          "midi": 59,
          "time": 134.11750400000065,
          "velocity": 0.7480314960629921,
          "duration": 0.22058799999999223
        },
        {
          "name": "G3",
          "midi": 55,
          "time": 134.11750400000065,
          "velocity": 0.7480314960629921,
          "duration": 0.22058799999999223
        },
        {
          "name": "D3",
          "midi": 50,
          "time": 134.11750400000065,
          "velocity": 0.7480314960629921,
          "duration": 0.22058799999999223
        },
        {
          "name": "G2",
          "midi": 43,
          "time": 134.11750400000065,
          "velocity": 0.7480314960629921,
          "duration": 0.22058799999999223
        },
        {
          "name": "B3",
          "midi": 59,
          "time": 134.33809200000064,
          "velocity": 0.7480314960629921,
          "duration": 0.22058799999999223
        },
        {
          "name": "G3",
          "midi": 55,
          "time": 134.33809200000064,
          "velocity": 0.7480314960629921,
          "duration": 0.22058799999999223
        },
        {
          "name": "D3",
          "midi": 50,
          "time": 134.33809200000064,
          "velocity": 0.7480314960629921,
          "duration": 0.22058799999999223
        },
        {
          "name": "G2",
          "midi": 43,
          "time": 134.33809200000064,
          "velocity": 0.7480314960629921,
          "duration": 0.22058799999999223
        },
        {
          "name": "B3",
          "midi": 59,
          "time": 134.55868000000063,
          "velocity": 0.7480314960629921,
          "duration": 0.22058799999999223
        },
        {
          "name": "G3",
          "midi": 55,
          "time": 134.55868000000063,
          "velocity": 0.7480314960629921,
          "duration": 0.22058799999999223
        },
        {
          "name": "D3",
          "midi": 50,
          "time": 134.55868000000063,
          "velocity": 0.7480314960629921,
          "duration": 0.22058799999999223
        },
        {
          "name": "G2",
          "midi": 43,
          "time": 134.55868000000063,
          "velocity": 0.7480314960629921,
          "duration": 0.22058799999999223
        },
        {
          "name": "B3",
          "midi": 59,
          "time": 134.77926800000063,
          "velocity": 0.7480314960629921,
          "duration": 0.22058799999999223
        },
        {
          "name": "G3",
          "midi": 55,
          "time": 134.77926800000063,
          "velocity": 0.7480314960629921,
          "duration": 0.22058799999999223
        },
        {
          "name": "D3",
          "midi": 50,
          "time": 134.77926800000063,
          "velocity": 0.7480314960629921,
          "duration": 0.22058799999999223
        },
        {
          "name": "G2",
          "midi": 43,
          "time": 134.77926800000063,
          "velocity": 0.7480314960629921,
          "duration": 0.22058799999999223
        },
        {
          "name": "B3",
          "midi": 59,
          "time": 134.99985600000062,
          "velocity": 0.7480314960629921,
          "duration": 0.22058799999999223
        },
        {
          "name": "G3",
          "midi": 55,
          "time": 134.99985600000062,
          "velocity": 0.7480314960629921,
          "duration": 0.22058799999999223
        },
        {
          "name": "D3",
          "midi": 50,
          "time": 134.99985600000062,
          "velocity": 0.7480314960629921,
          "duration": 0.22058799999999223
        },
        {
          "name": "G2",
          "midi": 43,
          "time": 134.99985600000062,
          "velocity": 0.7480314960629921,
          "duration": 0.22058799999999223
        },
        {
          "name": "B3",
          "midi": 59,
          "time": 135.2204440000006,
          "velocity": 0.7480314960629921,
          "duration": 0.22058799999999223
        },
        {
          "name": "G3",
          "midi": 55,
          "time": 135.2204440000006,
          "velocity": 0.7480314960629921,
          "duration": 0.22058799999999223
        },
        {
          "name": "D3",
          "midi": 50,
          "time": 135.2204440000006,
          "velocity": 0.7480314960629921,
          "duration": 0.22058799999999223
        },
        {
          "name": "G2",
          "midi": 43,
          "time": 135.2204440000006,
          "velocity": 0.7480314960629921,
          "duration": 0.22058799999999223
        },
        {
          "name": "B3",
          "midi": 59,
          "time": 135.4410320000006,
          "velocity": 0.7480314960629921,
          "duration": 0.22058799999999223
        },
        {
          "name": "G3",
          "midi": 55,
          "time": 135.4410320000006,
          "velocity": 0.7480314960629921,
          "duration": 0.22058799999999223
        },
        {
          "name": "D3",
          "midi": 50,
          "time": 135.4410320000006,
          "velocity": 0.7480314960629921,
          "duration": 0.22058799999999223
        },
        {
          "name": "G2",
          "midi": 43,
          "time": 135.4410320000006,
          "velocity": 0.7480314960629921,
          "duration": 0.22058799999999223
        },
        {
          "name": "B3",
          "midi": 59,
          "time": 135.6616200000006,
          "velocity": 0.7480314960629921,
          "duration": 0.22058799999999223
        },
        {
          "name": "G3",
          "midi": 55,
          "time": 135.6616200000006,
          "velocity": 0.7480314960629921,
          "duration": 0.22058799999999223
        },
        {
          "name": "D3",
          "midi": 50,
          "time": 135.6616200000006,
          "velocity": 0.7480314960629921,
          "duration": 0.22058799999999223
        },
        {
          "name": "G2",
          "midi": 43,
          "time": 135.6616200000006,
          "velocity": 0.7480314960629921,
          "duration": 0.22058799999999223
        },
        {
          "name": "D4",
          "midi": 62,
          "time": 135.8822080000006,
          "velocity": 0.7480314960629921,
          "duration": 0.22058799999999223
        },
        {
          "name": "B3",
          "midi": 59,
          "time": 135.8822080000006,
          "velocity": 0.7480314960629921,
          "duration": 0.22058799999999223
        },
        {
          "name": "F#3",
          "midi": 54,
          "time": 135.8822080000006,
          "velocity": 0.7480314960629921,
          "duration": 0.22058799999999223
        },
        {
          "name": "B2",
          "midi": 47,
          "time": 135.8822080000006,
          "velocity": 0.7480314960629921,
          "duration": 0.22058799999999223
        },
        {
          "name": "D4",
          "midi": 62,
          "time": 136.10279600000058,
          "velocity": 0.7480314960629921,
          "duration": 0.22058799999999223
        },
        {
          "name": "B3",
          "midi": 59,
          "time": 136.10279600000058,
          "velocity": 0.7480314960629921,
          "duration": 0.22058799999999223
        },
        {
          "name": "F#3",
          "midi": 54,
          "time": 136.10279600000058,
          "velocity": 0.7480314960629921,
          "duration": 0.22058799999999223
        },
        {
          "name": "B2",
          "midi": 47,
          "time": 136.10279600000058,
          "velocity": 0.7480314960629921,
          "duration": 0.22058799999999223
        },
        {
          "name": "D4",
          "midi": 62,
          "time": 136.32338400000057,
          "velocity": 0.7480314960629921,
          "duration": 0.22058799999999223
        },
        {
          "name": "B3",
          "midi": 59,
          "time": 136.32338400000057,
          "velocity": 0.7480314960629921,
          "duration": 0.22058799999999223
        },
        {
          "name": "F#3",
          "midi": 54,
          "time": 136.32338400000057,
          "velocity": 0.7480314960629921,
          "duration": 0.22058799999999223
        },
        {
          "name": "B2",
          "midi": 47,
          "time": 136.32338400000057,
          "velocity": 0.7480314960629921,
          "duration": 0.22058799999999223
        },
        {
          "name": "D4",
          "midi": 62,
          "time": 136.54397200000057,
          "velocity": 0.7480314960629921,
          "duration": 0.22058799999999223
        },
        {
          "name": "B3",
          "midi": 59,
          "time": 136.54397200000057,
          "velocity": 0.7480314960629921,
          "duration": 0.22058799999999223
        },
        {
          "name": "F#3",
          "midi": 54,
          "time": 136.54397200000057,
          "velocity": 0.7480314960629921,
          "duration": 0.22058799999999223
        },
        {
          "name": "B2",
          "midi": 47,
          "time": 136.54397200000057,
          "velocity": 0.7480314960629921,
          "duration": 0.22058799999999223
        },
        {
          "name": "D4",
          "midi": 62,
          "time": 136.76456000000056,
          "velocity": 0.7480314960629921,
          "duration": 0.22058799999999223
        },
        {
          "name": "B3",
          "midi": 59,
          "time": 136.76456000000056,
          "velocity": 0.7480314960629921,
          "duration": 0.22058799999999223
        },
        {
          "name": "F#3",
          "midi": 54,
          "time": 136.76456000000056,
          "velocity": 0.7480314960629921,
          "duration": 0.22058799999999223
        },
        {
          "name": "B2",
          "midi": 47,
          "time": 136.76456000000056,
          "velocity": 0.7480314960629921,
          "duration": 0.22058799999999223
        },
        {
          "name": "D4",
          "midi": 62,
          "time": 136.98514800000055,
          "velocity": 0.7480314960629921,
          "duration": 0.22058799999999223
        },
        {
          "name": "B3",
          "midi": 59,
          "time": 136.98514800000055,
          "velocity": 0.7480314960629921,
          "duration": 0.22058799999999223
        },
        {
          "name": "F#3",
          "midi": 54,
          "time": 136.98514800000055,
          "velocity": 0.7480314960629921,
          "duration": 0.22058799999999223
        },
        {
          "name": "B2",
          "midi": 47,
          "time": 136.98514800000055,
          "velocity": 0.7480314960629921,
          "duration": 0.22058799999999223
        },
        {
          "name": "D4",
          "midi": 62,
          "time": 137.20573600000054,
          "velocity": 0.7480314960629921,
          "duration": 0.22058799999999223
        },
        {
          "name": "B3",
          "midi": 59,
          "time": 137.20573600000054,
          "velocity": 0.7480314960629921,
          "duration": 0.22058799999999223
        },
        {
          "name": "F#3",
          "midi": 54,
          "time": 137.20573600000054,
          "velocity": 0.7480314960629921,
          "duration": 0.22058799999999223
        },
        {
          "name": "B2",
          "midi": 47,
          "time": 137.20573600000054,
          "velocity": 0.7480314960629921,
          "duration": 0.22058799999999223
        },
        {
          "name": "D4",
          "midi": 62,
          "time": 137.42632400000053,
          "velocity": 0.7480314960629921,
          "duration": 0.22058799999999223
        },
        {
          "name": "B3",
          "midi": 59,
          "time": 137.42632400000053,
          "velocity": 0.7480314960629921,
          "duration": 0.22058799999999223
        },
        {
          "name": "F#3",
          "midi": 54,
          "time": 137.42632400000053,
          "velocity": 0.7480314960629921,
          "duration": 0.22058799999999223
        },
        {
          "name": "B2",
          "midi": 47,
          "time": 137.42632400000053,
          "velocity": 0.7480314960629921,
          "duration": 0.22058799999999223
        },
        {
          "name": "C#4",
          "midi": 61,
          "time": 137.64691200000053,
          "velocity": 0.7480314960629921,
          "duration": 0.22058799999999223
        },
        {
          "name": "A#3",
          "midi": 58,
          "time": 137.64691200000053,
          "velocity": 0.7480314960629921,
          "duration": 0.22058799999999223
        },
        {
          "name": "F#3",
          "midi": 54,
          "time": 137.64691200000053,
          "velocity": 0.7480314960629921,
          "duration": 0.22058799999999223
        },
        {
          "name": "C#3",
          "midi": 49,
          "time": 137.64691200000053,
          "velocity": 0.7480314960629921,
          "duration": 0.22058799999999223
        },
        {
          "name": "C#4",
          "midi": 61,
          "time": 137.86750000000052,
          "velocity": 0.7480314960629921,
          "duration": 0.22058799999999223
        },
        {
          "name": "A#3",
          "midi": 58,
          "time": 137.86750000000052,
          "velocity": 0.7480314960629921,
          "duration": 0.22058799999999223
        },
        {
          "name": "F#3",
          "midi": 54,
          "time": 137.86750000000052,
          "velocity": 0.7480314960629921,
          "duration": 0.22058799999999223
        },
        {
          "name": "C#3",
          "midi": 49,
          "time": 137.86750000000052,
          "velocity": 0.7480314960629921,
          "duration": 0.22058799999999223
        },
        {
          "name": "C#4",
          "midi": 61,
          "time": 138.0880880000005,
          "velocity": 0.7480314960629921,
          "duration": 0.22058799999999223
        },
        {
          "name": "A#3",
          "midi": 58,
          "time": 138.0880880000005,
          "velocity": 0.7480314960629921,
          "duration": 0.22058799999999223
        },
        {
          "name": "F#3",
          "midi": 54,
          "time": 138.0880880000005,
          "velocity": 0.7480314960629921,
          "duration": 0.22058799999999223
        },
        {
          "name": "C#3",
          "midi": 49,
          "time": 138.0880880000005,
          "velocity": 0.7480314960629921,
          "duration": 0.22058799999999223
        },
        {
          "name": "C#4",
          "midi": 61,
          "time": 138.3086760000005,
          "velocity": 0.7480314960629921,
          "duration": 0.22058799999999223
        },
        {
          "name": "A#3",
          "midi": 58,
          "time": 138.3086760000005,
          "velocity": 0.7480314960629921,
          "duration": 0.22058799999999223
        },
        {
          "name": "F#3",
          "midi": 54,
          "time": 138.3086760000005,
          "velocity": 0.7480314960629921,
          "duration": 0.22058799999999223
        },
        {
          "name": "C#3",
          "midi": 49,
          "time": 138.3086760000005,
          "velocity": 0.7480314960629921,
          "duration": 0.22058799999999223
        },
        {
          "name": "C#4",
          "midi": 61,
          "time": 138.5292640000005,
          "velocity": 0.7480314960629921,
          "duration": 0.22058799999999223
        },
        {
          "name": "A#3",
          "midi": 58,
          "time": 138.5292640000005,
          "velocity": 0.7480314960629921,
          "duration": 0.22058799999999223
        },
        {
          "name": "F#3",
          "midi": 54,
          "time": 138.5292640000005,
          "velocity": 0.7480314960629921,
          "duration": 0.22058799999999223
        },
        {
          "name": "C#3",
          "midi": 49,
          "time": 138.5292640000005,
          "velocity": 0.7480314960629921,
          "duration": 0.22058799999999223
        },
        {
          "name": "C#4",
          "midi": 61,
          "time": 138.7498520000005,
          "velocity": 0.7480314960629921,
          "duration": 0.22058799999999223
        },
        {
          "name": "A#3",
          "midi": 58,
          "time": 138.7498520000005,
          "velocity": 0.7480314960629921,
          "duration": 0.22058799999999223
        },
        {
          "name": "F#3",
          "midi": 54,
          "time": 138.7498520000005,
          "velocity": 0.7480314960629921,
          "duration": 0.22058799999999223
        },
        {
          "name": "C#3",
          "midi": 49,
          "time": 138.7498520000005,
          "velocity": 0.7480314960629921,
          "duration": 0.22058799999999223
        },
        {
          "name": "C#4",
          "midi": 61,
          "time": 138.97044000000048,
          "velocity": 0.7480314960629921,
          "duration": 0.22058799999999223
        },
        {
          "name": "A#3",
          "midi": 58,
          "time": 138.97044000000048,
          "velocity": 0.7480314960629921,
          "duration": 0.22058799999999223
        },
        {
          "name": "F#3",
          "midi": 54,
          "time": 138.97044000000048,
          "velocity": 0.7480314960629921,
          "duration": 0.22058799999999223
        },
        {
          "name": "C#3",
          "midi": 49,
          "time": 138.97044000000048,
          "velocity": 0.7480314960629921,
          "duration": 0.22058799999999223
        },
        {
          "name": "C#4",
          "midi": 61,
          "time": 139.19102800000047,
          "velocity": 0.7480314960629921,
          "duration": 0.22058799999999223
        },
        {
          "name": "A#3",
          "midi": 58,
          "time": 139.19102800000047,
          "velocity": 0.7480314960629921,
          "duration": 0.22058799999999223
        },
        {
          "name": "F#3",
          "midi": 54,
          "time": 139.19102800000047,
          "velocity": 0.7480314960629921,
          "duration": 0.22058799999999223
        },
        {
          "name": "C#3",
          "midi": 49,
          "time": 139.19102800000047,
          "velocity": 0.7480314960629921,
          "duration": 0.22058799999999223
        },
        {
          "name": "B3",
          "midi": 59,
          "time": 139.41161600000046,
          "velocity": 0.7480314960629921,
          "duration": 0.22058799999999223
        },
        {
          "name": "G3",
          "midi": 55,
          "time": 139.41161600000046,
          "velocity": 0.7480314960629921,
          "duration": 0.22058799999999223
        },
        {
          "name": "D3",
          "midi": 50,
          "time": 139.41161600000046,
          "velocity": 0.7480314960629921,
          "duration": 0.22058799999999223
        },
        {
          "name": "G2",
          "midi": 43,
          "time": 139.41161600000046,
          "velocity": 0.7480314960629921,
          "duration": 0.22058799999999223
        },
        {
          "name": "B3",
          "midi": 59,
          "time": 139.63220400000046,
          "velocity": 0.7480314960629921,
          "duration": 0.22058799999999223
        },
        {
          "name": "G3",
          "midi": 55,
          "time": 139.63220400000046,
          "velocity": 0.7480314960629921,
          "duration": 0.22058799999999223
        },
        {
          "name": "D3",
          "midi": 50,
          "time": 139.63220400000046,
          "velocity": 0.7480314960629921,
          "duration": 0.22058799999999223
        },
        {
          "name": "G2",
          "midi": 43,
          "time": 139.63220400000046,
          "velocity": 0.7480314960629921,
          "duration": 0.22058799999999223
        },
        {
          "name": "B3",
          "midi": 59,
          "time": 139.85279200000045,
          "velocity": 0.7480314960629921,
          "duration": 0.22058799999999223
        },
        {
          "name": "G3",
          "midi": 55,
          "time": 139.85279200000045,
          "velocity": 0.7480314960629921,
          "duration": 0.22058799999999223
        },
        {
          "name": "D3",
          "midi": 50,
          "time": 139.85279200000045,
          "velocity": 0.7480314960629921,
          "duration": 0.22058799999999223
        },
        {
          "name": "G2",
          "midi": 43,
          "time": 139.85279200000045,
          "velocity": 0.7480314960629921,
          "duration": 0.22058799999999223
        },
        {
          "name": "B3",
          "midi": 59,
          "time": 140.07338000000044,
          "velocity": 0.7480314960629921,
          "duration": 0.22058799999999223
        },
        {
          "name": "G3",
          "midi": 55,
          "time": 140.07338000000044,
          "velocity": 0.7480314960629921,
          "duration": 0.22058799999999223
        },
        {
          "name": "D3",
          "midi": 50,
          "time": 140.07338000000044,
          "velocity": 0.7480314960629921,
          "duration": 0.22058799999999223
        },
        {
          "name": "G2",
          "midi": 43,
          "time": 140.07338000000044,
          "velocity": 0.7480314960629921,
          "duration": 0.22058799999999223
        },
        {
          "name": "B3",
          "midi": 59,
          "time": 140.29396800000043,
          "velocity": 0.7480314960629921,
          "duration": 0.22058799999999223
        },
        {
          "name": "G3",
          "midi": 55,
          "time": 140.29396800000043,
          "velocity": 0.7480314960629921,
          "duration": 0.22058799999999223
        },
        {
          "name": "D3",
          "midi": 50,
          "time": 140.29396800000043,
          "velocity": 0.7480314960629921,
          "duration": 0.22058799999999223
        },
        {
          "name": "G2",
          "midi": 43,
          "time": 140.29396800000043,
          "velocity": 0.7480314960629921,
          "duration": 0.22058799999999223
        },
        {
          "name": "B3",
          "midi": 59,
          "time": 140.51455600000043,
          "velocity": 0.7480314960629921,
          "duration": 0.22058799999999223
        },
        {
          "name": "G3",
          "midi": 55,
          "time": 140.51455600000043,
          "velocity": 0.7480314960629921,
          "duration": 0.22058799999999223
        },
        {
          "name": "D3",
          "midi": 50,
          "time": 140.51455600000043,
          "velocity": 0.7480314960629921,
          "duration": 0.22058799999999223
        },
        {
          "name": "G2",
          "midi": 43,
          "time": 140.51455600000043,
          "velocity": 0.7480314960629921,
          "duration": 0.22058799999999223
        },
        {
          "name": "B3",
          "midi": 59,
          "time": 140.73514400000042,
          "velocity": 0.7480314960629921,
          "duration": 0.22058799999999223
        },
        {
          "name": "G3",
          "midi": 55,
          "time": 140.73514400000042,
          "velocity": 0.7480314960629921,
          "duration": 0.22058799999999223
        },
        {
          "name": "D3",
          "midi": 50,
          "time": 140.73514400000042,
          "velocity": 0.7480314960629921,
          "duration": 0.22058799999999223
        },
        {
          "name": "G2",
          "midi": 43,
          "time": 140.73514400000042,
          "velocity": 0.7480314960629921,
          "duration": 0.22058799999999223
        },
        {
          "name": "B3",
          "midi": 59,
          "time": 140.9557320000004,
          "velocity": 0.7480314960629921,
          "duration": 0.22058799999999223
        },
        {
          "name": "G3",
          "midi": 55,
          "time": 140.9557320000004,
          "velocity": 0.7480314960629921,
          "duration": 0.22058799999999223
        },
        {
          "name": "D3",
          "midi": 50,
          "time": 140.9557320000004,
          "velocity": 0.7480314960629921,
          "duration": 0.22058799999999223
        },
        {
          "name": "G2",
          "midi": 43,
          "time": 140.9557320000004,
          "velocity": 0.7480314960629921,
          "duration": 0.22058799999999223
        },
        {
          "name": "B3",
          "midi": 59,
          "time": 141.1763200000004,
          "velocity": 0.7480314960629921,
          "duration": 0.22058799999999223
        },
        {
          "name": "G3",
          "midi": 55,
          "time": 141.1763200000004,
          "velocity": 0.7480314960629921,
          "duration": 0.22058799999999223
        },
        {
          "name": "D3",
          "midi": 50,
          "time": 141.1763200000004,
          "velocity": 0.7480314960629921,
          "duration": 0.22058799999999223
        },
        {
          "name": "G2",
          "midi": 43,
          "time": 141.1763200000004,
          "velocity": 0.7480314960629921,
          "duration": 0.22058799999999223
        },
        {
          "name": "B3",
          "midi": 59,
          "time": 141.3969080000004,
          "velocity": 0.7480314960629921,
          "duration": 0.22058799999999223
        },
        {
          "name": "G3",
          "midi": 55,
          "time": 141.3969080000004,
          "velocity": 0.7480314960629921,
          "duration": 0.22058799999999223
        },
        {
          "name": "D3",
          "midi": 50,
          "time": 141.3969080000004,
          "velocity": 0.7480314960629921,
          "duration": 0.22058799999999223
        },
        {
          "name": "G2",
          "midi": 43,
          "time": 141.3969080000004,
          "velocity": 0.7480314960629921,
          "duration": 0.22058799999999223
        },
        {
          "name": "B3",
          "midi": 59,
          "time": 141.6174960000004,
          "velocity": 0.7480314960629921,
          "duration": 0.22058799999999223
        },
        {
          "name": "G3",
          "midi": 55,
          "time": 141.6174960000004,
          "velocity": 0.7480314960629921,
          "duration": 0.22058799999999223
        },
        {
          "name": "D3",
          "midi": 50,
          "time": 141.6174960000004,
          "velocity": 0.7480314960629921,
          "duration": 0.22058799999999223
        },
        {
          "name": "G2",
          "midi": 43,
          "time": 141.6174960000004,
          "velocity": 0.7480314960629921,
          "duration": 0.22058799999999223
        },
        {
          "name": "B3",
          "midi": 59,
          "time": 141.83808400000038,
          "velocity": 0.7480314960629921,
          "duration": 0.22058799999999223
        },
        {
          "name": "G3",
          "midi": 55,
          "time": 141.83808400000038,
          "velocity": 0.7480314960629921,
          "duration": 0.22058799999999223
        },
        {
          "name": "D3",
          "midi": 50,
          "time": 141.83808400000038,
          "velocity": 0.7480314960629921,
          "duration": 0.22058799999999223
        },
        {
          "name": "G2",
          "midi": 43,
          "time": 141.83808400000038,
          "velocity": 0.7480314960629921,
          "duration": 0.22058799999999223
        },
        {
          "name": "B3",
          "midi": 59,
          "time": 142.05867200000037,
          "velocity": 0.7480314960629921,
          "duration": 0.22058799999999223
        },
        {
          "name": "G3",
          "midi": 55,
          "time": 142.05867200000037,
          "velocity": 0.7480314960629921,
          "duration": 0.22058799999999223
        },
        {
          "name": "D3",
          "midi": 50,
          "time": 142.05867200000037,
          "velocity": 0.7480314960629921,
          "duration": 0.22058799999999223
        },
        {
          "name": "G2",
          "midi": 43,
          "time": 142.05867200000037,
          "velocity": 0.7480314960629921,
          "duration": 0.22058799999999223
        },
        {
          "name": "B3",
          "midi": 59,
          "time": 142.27926000000036,
          "velocity": 0.7480314960629921,
          "duration": 0.22058799999999223
        },
        {
          "name": "G3",
          "midi": 55,
          "time": 142.27926000000036,
          "velocity": 0.7480314960629921,
          "duration": 0.22058799999999223
        },
        {
          "name": "D3",
          "midi": 50,
          "time": 142.27926000000036,
          "velocity": 0.7480314960629921,
          "duration": 0.22058799999999223
        },
        {
          "name": "G2",
          "midi": 43,
          "time": 142.27926000000036,
          "velocity": 0.7480314960629921,
          "duration": 0.22058799999999223
        },
        {
          "name": "B3",
          "midi": 59,
          "time": 142.49984800000036,
          "velocity": 0.7480314960629921,
          "duration": 0.22058799999999223
        },
        {
          "name": "G3",
          "midi": 55,
          "time": 142.49984800000036,
          "velocity": 0.7480314960629921,
          "duration": 0.22058799999999223
        },
        {
          "name": "D3",
          "midi": 50,
          "time": 142.49984800000036,
          "velocity": 0.7480314960629921,
          "duration": 0.22058799999999223
        },
        {
          "name": "G2",
          "midi": 43,
          "time": 142.49984800000036,
          "velocity": 0.7480314960629921,
          "duration": 0.22058799999999223
        },
        {
          "name": "B3",
          "midi": 59,
          "time": 142.72043600000035,
          "velocity": 0.7480314960629921,
          "duration": 0.22058799999999223
        },
        {
          "name": "G3",
          "midi": 55,
          "time": 142.72043600000035,
          "velocity": 0.7480314960629921,
          "duration": 0.22058799999999223
        },
        {
          "name": "D3",
          "midi": 50,
          "time": 142.72043600000035,
          "velocity": 0.7480314960629921,
          "duration": 0.22058799999999223
        },
        {
          "name": "G2",
          "midi": 43,
          "time": 142.72043600000035,
          "velocity": 0.7480314960629921,
          "duration": 0.22058799999999223
        },
        {
          "name": "D4",
          "midi": 62,
          "time": 142.94102400000034,
          "velocity": 0.7480314960629921,
          "duration": 0.22058799999999223
        },
        {
          "name": "B3",
          "midi": 59,
          "time": 142.94102400000034,
          "velocity": 0.7480314960629921,
          "duration": 0.22058799999999223
        },
        {
          "name": "F#3",
          "midi": 54,
          "time": 142.94102400000034,
          "velocity": 0.7480314960629921,
          "duration": 0.22058799999999223
        },
        {
          "name": "B2",
          "midi": 47,
          "time": 142.94102400000034,
          "velocity": 0.7480314960629921,
          "duration": 0.22058799999999223
        },
        {
          "name": "D4",
          "midi": 62,
          "time": 143.16161200000033,
          "velocity": 0.7480314960629921,
          "duration": 0.22058799999999223
        },
        {
          "name": "B3",
          "midi": 59,
          "time": 143.16161200000033,
          "velocity": 0.7480314960629921,
          "duration": 0.22058799999999223
        },
        {
          "name": "F#3",
          "midi": 54,
          "time": 143.16161200000033,
          "velocity": 0.7480314960629921,
          "duration": 0.22058799999999223
        },
        {
          "name": "B2",
          "midi": 47,
          "time": 143.16161200000033,
          "velocity": 0.7480314960629921,
          "duration": 0.22058799999999223
        },
        {
          "name": "D4",
          "midi": 62,
          "time": 143.38220000000032,
          "velocity": 0.7480314960629921,
          "duration": 0.22058799999999223
        },
        {
          "name": "B3",
          "midi": 59,
          "time": 143.38220000000032,
          "velocity": 0.7480314960629921,
          "duration": 0.22058799999999223
        },
        {
          "name": "F#3",
          "midi": 54,
          "time": 143.38220000000032,
          "velocity": 0.7480314960629921,
          "duration": 0.22058799999999223
        },
        {
          "name": "B2",
          "midi": 47,
          "time": 143.38220000000032,
          "velocity": 0.7480314960629921,
          "duration": 0.22058799999999223
        },
        {
          "name": "D4",
          "midi": 62,
          "time": 143.60278800000032,
          "velocity": 0.7480314960629921,
          "duration": 0.22058799999999223
        },
        {
          "name": "B3",
          "midi": 59,
          "time": 143.60278800000032,
          "velocity": 0.7480314960629921,
          "duration": 0.22058799999999223
        },
        {
          "name": "F#3",
          "midi": 54,
          "time": 143.60278800000032,
          "velocity": 0.7480314960629921,
          "duration": 0.22058799999999223
        },
        {
          "name": "B2",
          "midi": 47,
          "time": 143.60278800000032,
          "velocity": 0.7480314960629921,
          "duration": 0.22058799999999223
        },
        {
          "name": "D4",
          "midi": 62,
          "time": 143.8233760000003,
          "velocity": 0.7480314960629921,
          "duration": 0.22058799999999223
        },
        {
          "name": "B3",
          "midi": 59,
          "time": 143.8233760000003,
          "velocity": 0.7480314960629921,
          "duration": 0.22058799999999223
        },
        {
          "name": "F#3",
          "midi": 54,
          "time": 143.8233760000003,
          "velocity": 0.7480314960629921,
          "duration": 0.22058799999999223
        },
        {
          "name": "B2",
          "midi": 47,
          "time": 143.8233760000003,
          "velocity": 0.7480314960629921,
          "duration": 0.22058799999999223
        },
        {
          "name": "D4",
          "midi": 62,
          "time": 144.0439640000003,
          "velocity": 0.7480314960629921,
          "duration": 0.22058799999999223
        },
        {
          "name": "B3",
          "midi": 59,
          "time": 144.0439640000003,
          "velocity": 0.7480314960629921,
          "duration": 0.22058799999999223
        },
        {
          "name": "F#3",
          "midi": 54,
          "time": 144.0439640000003,
          "velocity": 0.7480314960629921,
          "duration": 0.22058799999999223
        },
        {
          "name": "B2",
          "midi": 47,
          "time": 144.0439640000003,
          "velocity": 0.7480314960629921,
          "duration": 0.22058799999999223
        },
        {
          "name": "D4",
          "midi": 62,
          "time": 144.2645520000003,
          "velocity": 0.7480314960629921,
          "duration": 0.22058799999999223
        },
        {
          "name": "B3",
          "midi": 59,
          "time": 144.2645520000003,
          "velocity": 0.7480314960629921,
          "duration": 0.22058799999999223
        },
        {
          "name": "F#3",
          "midi": 54,
          "time": 144.2645520000003,
          "velocity": 0.7480314960629921,
          "duration": 0.22058799999999223
        },
        {
          "name": "B2",
          "midi": 47,
          "time": 144.2645520000003,
          "velocity": 0.7480314960629921,
          "duration": 0.22058799999999223
        },
        {
          "name": "D4",
          "midi": 62,
          "time": 144.48514000000029,
          "velocity": 0.7480314960629921,
          "duration": 0.22058799999999223
        },
        {
          "name": "B3",
          "midi": 59,
          "time": 144.48514000000029,
          "velocity": 0.7480314960629921,
          "duration": 0.22058799999999223
        },
        {
          "name": "F#3",
          "midi": 54,
          "time": 144.48514000000029,
          "velocity": 0.7480314960629921,
          "duration": 0.22058799999999223
        },
        {
          "name": "B2",
          "midi": 47,
          "time": 144.48514000000029,
          "velocity": 0.7480314960629921,
          "duration": 0.22058799999999223
        },
        {
          "name": "D4",
          "midi": 62,
          "time": 144.70572800000028,
          "velocity": 0.7480314960629921,
          "duration": 0.22058799999999223
        },
        {
          "name": "A#3",
          "midi": 58,
          "time": 144.70572800000028,
          "velocity": 0.7480314960629921,
          "duration": 0.22058799999999223
        },
        {
          "name": "F#3",
          "midi": 54,
          "time": 144.70572800000028,
          "velocity": 0.7480314960629921,
          "duration": 0.22058799999999223
        },
        {
          "name": "C#3",
          "midi": 49,
          "time": 144.70572800000028,
          "velocity": 0.7480314960629921,
          "duration": 0.22058799999999223
        },
        {
          "name": "D4",
          "midi": 62,
          "time": 144.92631600000027,
          "velocity": 0.7480314960629921,
          "duration": 0.22058799999999223
        },
        {
          "name": "A#3",
          "midi": 58,
          "time": 144.92631600000027,
          "velocity": 0.7480314960629921,
          "duration": 0.22058799999999223
        },
        {
          "name": "F#3",
          "midi": 54,
          "time": 144.92631600000027,
          "velocity": 0.7480314960629921,
          "duration": 0.22058799999999223
        },
        {
          "name": "C#3",
          "midi": 49,
          "time": 144.92631600000027,
          "velocity": 0.7480314960629921,
          "duration": 0.22058799999999223
        },
        {
          "name": "D4",
          "midi": 62,
          "time": 145.14690400000026,
          "velocity": 0.7480314960629921,
          "duration": 0.22058799999999223
        },
        {
          "name": "A#3",
          "midi": 58,
          "time": 145.14690400000026,
          "velocity": 0.7480314960629921,
          "duration": 0.22058799999999223
        },
        {
          "name": "F#3",
          "midi": 54,
          "time": 145.14690400000026,
          "velocity": 0.7480314960629921,
          "duration": 0.22058799999999223
        },
        {
          "name": "C#3",
          "midi": 49,
          "time": 145.14690400000026,
          "velocity": 0.7480314960629921,
          "duration": 0.22058799999999223
        },
        {
          "name": "D4",
          "midi": 62,
          "time": 145.36749200000025,
          "velocity": 0.7480314960629921,
          "duration": 0.22058799999999223
        },
        {
          "name": "A#3",
          "midi": 58,
          "time": 145.36749200000025,
          "velocity": 0.7480314960629921,
          "duration": 0.22058799999999223
        },
        {
          "name": "F#3",
          "midi": 54,
          "time": 145.36749200000025,
          "velocity": 0.7480314960629921,
          "duration": 0.22058799999999223
        },
        {
          "name": "C#3",
          "midi": 49,
          "time": 145.36749200000025,
          "velocity": 0.7480314960629921,
          "duration": 0.22058799999999223
        },
        {
          "name": "C#4",
          "midi": 61,
          "time": 145.58808000000025,
          "velocity": 0.7480314960629921,
          "duration": 0.22058799999999223
        },
        {
          "name": "A#3",
          "midi": 58,
          "time": 145.58808000000025,
          "velocity": 0.7480314960629921,
          "duration": 0.22058799999999223
        },
        {
          "name": "F#3",
          "midi": 54,
          "time": 145.58808000000025,
          "velocity": 0.7480314960629921,
          "duration": 0.22058799999999223
        },
        {
          "name": "C#3",
          "midi": 49,
          "time": 145.58808000000025,
          "velocity": 0.7480314960629921,
          "duration": 0.22058799999999223
        },
        {
          "name": "C#4",
          "midi": 61,
          "time": 145.80866800000024,
          "velocity": 0.7480314960629921,
          "duration": 0.22058799999999223
        },
        {
          "name": "A#3",
          "midi": 58,
          "time": 145.80866800000024,
          "velocity": 0.7480314960629921,
          "duration": 0.22058799999999223
        },
        {
          "name": "F#3",
          "midi": 54,
          "time": 145.80866800000024,
          "velocity": 0.7480314960629921,
          "duration": 0.22058799999999223
        },
        {
          "name": "C#3",
          "midi": 49,
          "time": 145.80866800000024,
          "velocity": 0.7480314960629921,
          "duration": 0.22058799999999223
        },
        {
          "name": "C#4",
          "midi": 61,
          "time": 146.02925600000023,
          "velocity": 0.7480314960629921,
          "duration": 0.22058799999999223
        },
        {
          "name": "A#3",
          "midi": 58,
          "time": 146.02925600000023,
          "velocity": 0.7480314960629921,
          "duration": 0.22058799999999223
        },
        {
          "name": "F#3",
          "midi": 54,
          "time": 146.02925600000023,
          "velocity": 0.7480314960629921,
          "duration": 0.22058799999999223
        },
        {
          "name": "C#3",
          "midi": 49,
          "time": 146.02925600000023,
          "velocity": 0.7480314960629921,
          "duration": 0.22058799999999223
        },
        {
          "name": "C#4",
          "midi": 61,
          "time": 146.24984400000022,
          "velocity": 0.7480314960629921,
          "duration": 0.22058799999999223
        },
        {
          "name": "A#3",
          "midi": 58,
          "time": 146.24984400000022,
          "velocity": 0.7480314960629921,
          "duration": 0.22058799999999223
        },
        {
          "name": "F#3",
          "midi": 54,
          "time": 146.24984400000022,
          "velocity": 0.7480314960629921,
          "duration": 0.22058799999999223
        },
        {
          "name": "C#3",
          "midi": 49,
          "time": 146.24984400000022,
          "velocity": 0.7480314960629921,
          "duration": 0.22058799999999223
        },
        {
          "name": "B3",
          "midi": 59,
          "time": 146.47043200000022,
          "velocity": 0.7480314960629921,
          "duration": 0.22058799999999223
        },
        {
          "name": "G3",
          "midi": 55,
          "time": 146.47043200000022,
          "velocity": 0.7480314960629921,
          "duration": 0.22058799999999223
        },
        {
          "name": "D3",
          "midi": 50,
          "time": 146.47043200000022,
          "velocity": 0.7480314960629921,
          "duration": 0.22058799999999223
        },
        {
          "name": "G2",
          "midi": 43,
          "time": 146.47043200000022,
          "velocity": 0.7480314960629921,
          "duration": 0.22058799999999223
        },
        {
          "name": "B3",
          "midi": 59,
          "time": 146.6910200000002,
          "velocity": 0.7480314960629921,
          "duration": 0.22058799999999223
        },
        {
          "name": "G3",
          "midi": 55,
          "time": 146.6910200000002,
          "velocity": 0.7480314960629921,
          "duration": 0.22058799999999223
        },
        {
          "name": "D3",
          "midi": 50,
          "time": 146.6910200000002,
          "velocity": 0.7480314960629921,
          "duration": 0.22058799999999223
        },
        {
          "name": "G2",
          "midi": 43,
          "time": 146.6910200000002,
          "velocity": 0.7480314960629921,
          "duration": 0.22058799999999223
        },
        {
          "name": "B3",
          "midi": 59,
          "time": 146.9116080000002,
          "velocity": 0.7480314960629921,
          "duration": 0.22058799999999223
        },
        {
          "name": "G3",
          "midi": 55,
          "time": 146.9116080000002,
          "velocity": 0.7480314960629921,
          "duration": 0.22058799999999223
        },
        {
          "name": "D3",
          "midi": 50,
          "time": 146.9116080000002,
          "velocity": 0.7480314960629921,
          "duration": 0.22058799999999223
        },
        {
          "name": "G2",
          "midi": 43,
          "time": 146.9116080000002,
          "velocity": 0.7480314960629921,
          "duration": 0.22058799999999223
        },
        {
          "name": "B3",
          "midi": 59,
          "time": 147.1321960000002,
          "velocity": 0.7480314960629921,
          "duration": 0.22058799999999223
        },
        {
          "name": "G3",
          "midi": 55,
          "time": 147.1321960000002,
          "velocity": 0.7480314960629921,
          "duration": 0.22058799999999223
        },
        {
          "name": "D3",
          "midi": 50,
          "time": 147.1321960000002,
          "velocity": 0.7480314960629921,
          "duration": 0.22058799999999223
        },
        {
          "name": "G2",
          "midi": 43,
          "time": 147.1321960000002,
          "velocity": 0.7480314960629921,
          "duration": 0.22058799999999223
        },
        {
          "name": "B3",
          "midi": 59,
          "time": 147.35278400000018,
          "velocity": 0.7480314960629921,
          "duration": 0.22058799999999223
        },
        {
          "name": "G3",
          "midi": 55,
          "time": 147.35278400000018,
          "velocity": 0.7480314960629921,
          "duration": 0.22058799999999223
        },
        {
          "name": "D3",
          "midi": 50,
          "time": 147.35278400000018,
          "velocity": 0.7480314960629921,
          "duration": 0.22058799999999223
        },
        {
          "name": "G2",
          "midi": 43,
          "time": 147.35278400000018,
          "velocity": 0.7480314960629921,
          "duration": 0.22058799999999223
        },
        {
          "name": "B3",
          "midi": 59,
          "time": 147.57337200000018,
          "velocity": 0.7480314960629921,
          "duration": 0.22058799999999223
        },
        {
          "name": "G3",
          "midi": 55,
          "time": 147.57337200000018,
          "velocity": 0.7480314960629921,
          "duration": 0.22058799999999223
        },
        {
          "name": "D3",
          "midi": 50,
          "time": 147.57337200000018,
          "velocity": 0.7480314960629921,
          "duration": 0.22058799999999223
        },
        {
          "name": "G2",
          "midi": 43,
          "time": 147.57337200000018,
          "velocity": 0.7480314960629921,
          "duration": 0.22058799999999223
        },
        {
          "name": "B3",
          "midi": 59,
          "time": 147.79396000000017,
          "velocity": 0.7480314960629921,
          "duration": 0.22058799999999223
        },
        {
          "name": "G3",
          "midi": 55,
          "time": 147.79396000000017,
          "velocity": 0.7480314960629921,
          "duration": 0.22058799999999223
        },
        {
          "name": "D3",
          "midi": 50,
          "time": 147.79396000000017,
          "velocity": 0.7480314960629921,
          "duration": 0.22058799999999223
        },
        {
          "name": "G2",
          "midi": 43,
          "time": 147.79396000000017,
          "velocity": 0.7480314960629921,
          "duration": 0.22058799999999223
        },
        {
          "name": "B3",
          "midi": 59,
          "time": 148.01454800000016,
          "velocity": 0.7480314960629921,
          "duration": 0.22058799999999223
        },
        {
          "name": "G3",
          "midi": 55,
          "time": 148.01454800000016,
          "velocity": 0.7480314960629921,
          "duration": 0.22058799999999223
        },
        {
          "name": "D3",
          "midi": 50,
          "time": 148.01454800000016,
          "velocity": 0.7480314960629921,
          "duration": 0.22058799999999223
        },
        {
          "name": "G2",
          "midi": 43,
          "time": 148.01454800000016,
          "velocity": 0.7480314960629921,
          "duration": 0.22058799999999223
        },
        {
          "name": "B3",
          "midi": 59,
          "time": 148.23513600000015,
          "velocity": 0.7480314960629921,
          "duration": 0.22058799999999223
        },
        {
          "name": "G3",
          "midi": 55,
          "time": 148.23513600000015,
          "velocity": 0.7480314960629921,
          "duration": 0.22058799999999223
        },
        {
          "name": "D3",
          "midi": 50,
          "time": 148.23513600000015,
          "velocity": 0.7480314960629921,
          "duration": 0.22058799999999223
        },
        {
          "name": "G2",
          "midi": 43,
          "time": 148.23513600000015,
          "velocity": 0.7480314960629921,
          "duration": 0.22058799999999223
        },
        {
          "name": "B3",
          "midi": 59,
          "time": 148.45572400000015,
          "velocity": 0.7480314960629921,
          "duration": 0.22058799999999223
        },
        {
          "name": "G3",
          "midi": 55,
          "time": 148.45572400000015,
          "velocity": 0.7480314960629921,
          "duration": 0.22058799999999223
        },
        {
          "name": "D3",
          "midi": 50,
          "time": 148.45572400000015,
          "velocity": 0.7480314960629921,
          "duration": 0.22058799999999223
        },
        {
          "name": "G2",
          "midi": 43,
          "time": 148.45572400000015,
          "velocity": 0.7480314960629921,
          "duration": 0.22058799999999223
        },
        {
          "name": "B3",
          "midi": 59,
          "time": 148.67631200000014,
          "velocity": 0.7480314960629921,
          "duration": 0.22058799999999223
        },
        {
          "name": "G3",
          "midi": 55,
          "time": 148.67631200000014,
          "velocity": 0.7480314960629921,
          "duration": 0.22058799999999223
        },
        {
          "name": "D3",
          "midi": 50,
          "time": 148.67631200000014,
          "velocity": 0.7480314960629921,
          "duration": 0.22058799999999223
        },
        {
          "name": "G2",
          "midi": 43,
          "time": 148.67631200000014,
          "velocity": 0.7480314960629921,
          "duration": 0.22058799999999223
        },
        {
          "name": "B3",
          "midi": 59,
          "time": 148.89690000000013,
          "velocity": 0.7480314960629921,
          "duration": 0.22058799999999223
        },
        {
          "name": "G3",
          "midi": 55,
          "time": 148.89690000000013,
          "velocity": 0.7480314960629921,
          "duration": 0.22058799999999223
        },
        {
          "name": "D3",
          "midi": 50,
          "time": 148.89690000000013,
          "velocity": 0.7480314960629921,
          "duration": 0.22058799999999223
        },
        {
          "name": "G2",
          "midi": 43,
          "time": 148.89690000000013,
          "velocity": 0.7480314960629921,
          "duration": 0.22058799999999223
        },
        {
          "name": "B3",
          "midi": 59,
          "time": 149.11748800000012,
          "velocity": 0.7480314960629921,
          "duration": 0.22058799999999223
        },
        {
          "name": "G3",
          "midi": 55,
          "time": 149.11748800000012,
          "velocity": 0.7480314960629921,
          "duration": 0.22058799999999223
        },
        {
          "name": "D3",
          "midi": 50,
          "time": 149.11748800000012,
          "velocity": 0.7480314960629921,
          "duration": 0.22058799999999223
        },
        {
          "name": "G2",
          "midi": 43,
          "time": 149.11748800000012,
          "velocity": 0.7480314960629921,
          "duration": 0.22058799999999223
        },
        {
          "name": "B3",
          "midi": 59,
          "time": 149.33807600000011,
          "velocity": 0.7480314960629921,
          "duration": 0.22058799999999223
        },
        {
          "name": "G3",
          "midi": 55,
          "time": 149.33807600000011,
          "velocity": 0.7480314960629921,
          "duration": 0.22058799999999223
        },
        {
          "name": "D3",
          "midi": 50,
          "time": 149.33807600000011,
          "velocity": 0.7480314960629921,
          "duration": 0.22058799999999223
        },
        {
          "name": "G2",
          "midi": 43,
          "time": 149.33807600000011,
          "velocity": 0.7480314960629921,
          "duration": 0.22058799999999223
        },
        {
          "name": "B3",
          "midi": 59,
          "time": 149.5586640000001,
          "velocity": 0.7480314960629921,
          "duration": 0.22058799999999223
        },
        {
          "name": "G3",
          "midi": 55,
          "time": 149.5586640000001,
          "velocity": 0.7480314960629921,
          "duration": 0.22058799999999223
        },
        {
          "name": "D3",
          "midi": 50,
          "time": 149.5586640000001,
          "velocity": 0.7480314960629921,
          "duration": 0.22058799999999223
        },
        {
          "name": "G2",
          "midi": 43,
          "time": 149.5586640000001,
          "velocity": 0.7480314960629921,
          "duration": 0.22058799999999223
        },
        {
          "name": "B3",
          "midi": 59,
          "time": 149.7792520000001,
          "velocity": 0.7480314960629921,
          "duration": 0.22058799999999223
        },
        {
          "name": "G3",
          "midi": 55,
          "time": 149.7792520000001,
          "velocity": 0.7480314960629921,
          "duration": 0.22058799999999223
        },
        {
          "name": "D3",
          "midi": 50,
          "time": 149.7792520000001,
          "velocity": 0.7480314960629921,
          "duration": 0.22058799999999223
        },
        {
          "name": "G2",
          "midi": 43,
          "time": 149.7792520000001,
          "velocity": 0.7480314960629921,
          "duration": 0.22058799999999223
        },
        {
          "name": "D4",
          "midi": 62,
          "time": 149.9998400000001,
          "velocity": 0.7480314960629921,
          "duration": 0.22058799999999223
        },
        {
          "name": "B3",
          "midi": 59,
          "time": 149.9998400000001,
          "velocity": 0.7480314960629921,
          "duration": 0.22058799999999223
        },
        {
          "name": "F#3",
          "midi": 54,
          "time": 149.9998400000001,
          "velocity": 0.7480314960629921,
          "duration": 0.22058799999999223
        },
        {
          "name": "B2",
          "midi": 47,
          "time": 149.9998400000001,
          "velocity": 0.7480314960629921,
          "duration": 0.22058799999999223
        },
        {
          "name": "D4",
          "midi": 62,
          "time": 150.22042800000008,
          "velocity": 0.7480314960629921,
          "duration": 0.22058799999999223
        },
        {
          "name": "B3",
          "midi": 59,
          "time": 150.22042800000008,
          "velocity": 0.7480314960629921,
          "duration": 0.22058799999999223
        },
        {
          "name": "F#3",
          "midi": 54,
          "time": 150.22042800000008,
          "velocity": 0.7480314960629921,
          "duration": 0.22058799999999223
        },
        {
          "name": "B2",
          "midi": 47,
          "time": 150.22042800000008,
          "velocity": 0.7480314960629921,
          "duration": 0.22058799999999223
        },
        {
          "name": "D4",
          "midi": 62,
          "time": 150.44101600000008,
          "velocity": 0.7480314960629921,
          "duration": 0.22058799999999223
        },
        {
          "name": "B3",
          "midi": 59,
          "time": 150.44101600000008,
          "velocity": 0.7480314960629921,
          "duration": 0.22058799999999223
        },
        {
          "name": "F#3",
          "midi": 54,
          "time": 150.44101600000008,
          "velocity": 0.7480314960629921,
          "duration": 0.22058799999999223
        },
        {
          "name": "B2",
          "midi": 47,
          "time": 150.44101600000008,
          "velocity": 0.7480314960629921,
          "duration": 0.22058799999999223
        },
        {
          "name": "D4",
          "midi": 62,
          "time": 150.66160400000007,
          "velocity": 0.7480314960629921,
          "duration": 0.22058799999999223
        },
        {
          "name": "B3",
          "midi": 59,
          "time": 150.66160400000007,
          "velocity": 0.7480314960629921,
          "duration": 0.22058799999999223
        },
        {
          "name": "F#3",
          "midi": 54,
          "time": 150.66160400000007,
          "velocity": 0.7480314960629921,
          "duration": 0.22058799999999223
        },
        {
          "name": "B2",
          "midi": 47,
          "time": 150.66160400000007,
          "velocity": 0.7480314960629921,
          "duration": 0.22058799999999223
        },
        {
          "name": "D4",
          "midi": 62,
          "time": 150.88219200000006,
          "velocity": 0.7480314960629921,
          "duration": 0.22058799999999223
        },
        {
          "name": "B3",
          "midi": 59,
          "time": 150.88219200000006,
          "velocity": 0.7480314960629921,
          "duration": 0.22058799999999223
        },
        {
          "name": "F#3",
          "midi": 54,
          "time": 150.88219200000006,
          "velocity": 0.7480314960629921,
          "duration": 0.22058799999999223
        },
        {
          "name": "B2",
          "midi": 47,
          "time": 150.88219200000006,
          "velocity": 0.7480314960629921,
          "duration": 0.22058799999999223
        },
        {
          "name": "D4",
          "midi": 62,
          "time": 151.10278000000005,
          "velocity": 0.7480314960629921,
          "duration": 0.22058799999999223
        },
        {
          "name": "B3",
          "midi": 59,
          "time": 151.10278000000005,
          "velocity": 0.7480314960629921,
          "duration": 0.22058799999999223
        },
        {
          "name": "F#3",
          "midi": 54,
          "time": 151.10278000000005,
          "velocity": 0.7480314960629921,
          "duration": 0.22058799999999223
        },
        {
          "name": "B2",
          "midi": 47,
          "time": 151.10278000000005,
          "velocity": 0.7480314960629921,
          "duration": 0.22058799999999223
        },
        {
          "name": "D4",
          "midi": 62,
          "time": 151.32336800000004,
          "velocity": 0.7480314960629921,
          "duration": 0.22058799999999223
        },
        {
          "name": "B3",
          "midi": 59,
          "time": 151.32336800000004,
          "velocity": 0.7480314960629921,
          "duration": 0.22058799999999223
        },
        {
          "name": "F#3",
          "midi": 54,
          "time": 151.32336800000004,
          "velocity": 0.7480314960629921,
          "duration": 0.22058799999999223
        },
        {
          "name": "B2",
          "midi": 47,
          "time": 151.32336800000004,
          "velocity": 0.7480314960629921,
          "duration": 0.22058799999999223
        },
        {
          "name": "D4",
          "midi": 62,
          "time": 151.54395600000004,
          "velocity": 0.7480314960629921,
          "duration": 0.22058799999999223
        },
        {
          "name": "B3",
          "midi": 59,
          "time": 151.54395600000004,
          "velocity": 0.7480314960629921,
          "duration": 0.22058799999999223
        },
        {
          "name": "F#3",
          "midi": 54,
          "time": 151.54395600000004,
          "velocity": 0.7480314960629921,
          "duration": 0.22058799999999223
        },
        {
          "name": "B2",
          "midi": 47,
          "time": 151.54395600000004,
          "velocity": 0.7480314960629921,
          "duration": 0.22058799999999223
        },
        {
          "name": "C#4",
          "midi": 61,
          "time": 151.76454400000003,
          "velocity": 0.7480314960629921,
          "duration": 0.22058799999999223
        },
        {
          "name": "A#3",
          "midi": 58,
          "time": 151.76454400000003,
          "velocity": 0.7480314960629921,
          "duration": 0.22058799999999223
        },
        {
          "name": "F#3",
          "midi": 54,
          "time": 151.76454400000003,
          "velocity": 0.7480314960629921,
          "duration": 0.22058799999999223
        },
        {
          "name": "C#3",
          "midi": 49,
          "time": 151.76454400000003,
          "velocity": 0.7480314960629921,
          "duration": 0.22058799999999223
        },
        {
          "name": "C#4",
          "midi": 61,
          "time": 151.98513200000002,
          "velocity": 0.7480314960629921,
          "duration": 0.22058799999999223
        },
        {
          "name": "A#3",
          "midi": 58,
          "time": 151.98513200000002,
          "velocity": 0.7480314960629921,
          "duration": 0.22058799999999223
        },
        {
          "name": "F#3",
          "midi": 54,
          "time": 151.98513200000002,
          "velocity": 0.7480314960629921,
          "duration": 0.22058799999999223
        },
        {
          "name": "C#3",
          "midi": 49,
          "time": 151.98513200000002,
          "velocity": 0.7480314960629921,
          "duration": 0.22058799999999223
        },
        {
          "name": "C#4",
          "midi": 61,
          "time": 152.20572,
          "velocity": 0.7480314960629921,
          "duration": 0.22058799999999223
        },
        {
          "name": "A#3",
          "midi": 58,
          "time": 152.20572,
          "velocity": 0.7480314960629921,
          "duration": 0.22058799999999223
        },
        {
          "name": "F#3",
          "midi": 54,
          "time": 152.20572,
          "velocity": 0.7480314960629921,
          "duration": 0.22058799999999223
        },
        {
          "name": "C#3",
          "midi": 49,
          "time": 152.20572,
          "velocity": 0.7480314960629921,
          "duration": 0.22058799999999223
        },
        {
          "name": "C#4",
          "midi": 61,
          "time": 152.426308,
          "velocity": 0.7480314960629921,
          "duration": 0.22058799999999223
        },
        {
          "name": "A#3",
          "midi": 58,
          "time": 152.426308,
          "velocity": 0.7480314960629921,
          "duration": 0.22058799999999223
        },
        {
          "name": "F#3",
          "midi": 54,
          "time": 152.426308,
          "velocity": 0.7480314960629921,
          "duration": 0.22058799999999223
        },
        {
          "name": "C#3",
          "midi": 49,
          "time": 152.426308,
          "velocity": 0.7480314960629921,
          "duration": 0.22058799999999223
        },
        {
          "name": "C#4",
          "midi": 61,
          "time": 152.646896,
          "velocity": 0.7480314960629921,
          "duration": 0.22058799999999223
        },
        {
          "name": "A#3",
          "midi": 58,
          "time": 152.646896,
          "velocity": 0.7480314960629921,
          "duration": 0.22058799999999223
        },
        {
          "name": "F#3",
          "midi": 54,
          "time": 152.646896,
          "velocity": 0.7480314960629921,
          "duration": 0.22058799999999223
        },
        {
          "name": "C#3",
          "midi": 49,
          "time": 152.646896,
          "velocity": 0.7480314960629921,
          "duration": 0.22058799999999223
        },
        {
          "name": "C#4",
          "midi": 61,
          "time": 152.867484,
          "velocity": 0.7480314960629921,
          "duration": 0.22058799999999223
        },
        {
          "name": "A#3",
          "midi": 58,
          "time": 152.867484,
          "velocity": 0.7480314960629921,
          "duration": 0.22058799999999223
        },
        {
          "name": "F#3",
          "midi": 54,
          "time": 152.867484,
          "velocity": 0.7480314960629921,
          "duration": 0.22058799999999223
        },
        {
          "name": "C#3",
          "midi": 49,
          "time": 152.867484,
          "velocity": 0.7480314960629921,
          "duration": 0.22058799999999223
        },
        {
          "name": "C#4",
          "midi": 61,
          "time": 153.08807199999998,
          "velocity": 0.7480314960629921,
          "duration": 0.22058799999999223
        },
        {
          "name": "A#3",
          "midi": 58,
          "time": 153.08807199999998,
          "velocity": 0.7480314960629921,
          "duration": 0.22058799999999223
        },
        {
          "name": "F#3",
          "midi": 54,
          "time": 153.08807199999998,
          "velocity": 0.7480314960629921,
          "duration": 0.22058799999999223
        },
        {
          "name": "C#3",
          "midi": 49,
          "time": 153.08807199999998,
          "velocity": 0.7480314960629921,
          "duration": 0.22058799999999223
        },
        {
          "name": "C#4",
          "midi": 61,
          "time": 153.30865999999997,
          "velocity": 0.7480314960629921,
          "duration": 0.22058799999999223
        },
        {
          "name": "A#3",
          "midi": 58,
          "time": 153.30865999999997,
          "velocity": 0.7480314960629921,
          "duration": 0.22058799999999223
        },
        {
          "name": "F#3",
          "midi": 54,
          "time": 153.30865999999997,
          "velocity": 0.7480314960629921,
          "duration": 0.22058799999999223
        },
        {
          "name": "C#3",
          "midi": 49,
          "time": 153.30865999999997,
          "velocity": 0.7480314960629921,
          "duration": 0.22058799999999223
        },
        {
          "name": "B3",
          "midi": 59,
          "time": 153.52924799999997,
          "velocity": 0.7480314960629921,
          "duration": 0.22058799999999223
        },
        {
          "name": "G3",
          "midi": 55,
          "time": 153.52924799999997,
          "velocity": 0.7480314960629921,
          "duration": 0.22058799999999223
        },
        {
          "name": "D3",
          "midi": 50,
          "time": 153.52924799999997,
          "velocity": 0.7480314960629921,
          "duration": 0.22058799999999223
        },
        {
          "name": "G2",
          "midi": 43,
          "time": 153.52924799999997,
          "velocity": 0.7480314960629921,
          "duration": 0.22058799999999223
        },
        {
          "name": "B3",
          "midi": 59,
          "time": 153.74983599999996,
          "velocity": 0.7480314960629921,
          "duration": 0.22058799999999223
        },
        {
          "name": "G3",
          "midi": 55,
          "time": 153.74983599999996,
          "velocity": 0.7480314960629921,
          "duration": 0.22058799999999223
        },
        {
          "name": "D3",
          "midi": 50,
          "time": 153.74983599999996,
          "velocity": 0.7480314960629921,
          "duration": 0.22058799999999223
        },
        {
          "name": "G2",
          "midi": 43,
          "time": 153.74983599999996,
          "velocity": 0.7480314960629921,
          "duration": 0.22058799999999223
        },
        {
          "name": "B3",
          "midi": 59,
          "time": 153.97042399999995,
          "velocity": 0.7480314960629921,
          "duration": 0.22058799999999223
        },
        {
          "name": "G3",
          "midi": 55,
          "time": 153.97042399999995,
          "velocity": 0.7480314960629921,
          "duration": 0.22058799999999223
        },
        {
          "name": "D3",
          "midi": 50,
          "time": 153.97042399999995,
          "velocity": 0.7480314960629921,
          "duration": 0.22058799999999223
        },
        {
          "name": "G2",
          "midi": 43,
          "time": 153.97042399999995,
          "velocity": 0.7480314960629921,
          "duration": 0.22058799999999223
        },
        {
          "name": "B3",
          "midi": 59,
          "time": 154.19101199999994,
          "velocity": 0.7480314960629921,
          "duration": 0.22058799999999223
        },
        {
          "name": "G3",
          "midi": 55,
          "time": 154.19101199999994,
          "velocity": 0.7480314960629921,
          "duration": 0.22058799999999223
        },
        {
          "name": "D3",
          "midi": 50,
          "time": 154.19101199999994,
          "velocity": 0.7480314960629921,
          "duration": 0.22058799999999223
        },
        {
          "name": "G2",
          "midi": 43,
          "time": 154.19101199999994,
          "velocity": 0.7480314960629921,
          "duration": 0.22058799999999223
        },
        {
          "name": "B3",
          "midi": 59,
          "time": 154.41159999999994,
          "velocity": 0.7480314960629921,
          "duration": 0.22058799999999223
        },
        {
          "name": "G3",
          "midi": 55,
          "time": 154.41159999999994,
          "velocity": 0.7480314960629921,
          "duration": 0.22058799999999223
        },
        {
          "name": "D3",
          "midi": 50,
          "time": 154.41159999999994,
          "velocity": 0.7480314960629921,
          "duration": 0.22058799999999223
        },
        {
          "name": "G2",
          "midi": 43,
          "time": 154.41159999999994,
          "velocity": 0.7480314960629921,
          "duration": 0.22058799999999223
        },
        {
          "name": "B3",
          "midi": 59,
          "time": 154.63218799999993,
          "velocity": 0.7480314960629921,
          "duration": 0.22058799999999223
        },
        {
          "name": "G3",
          "midi": 55,
          "time": 154.63218799999993,
          "velocity": 0.7480314960629921,
          "duration": 0.22058799999999223
        },
        {
          "name": "D3",
          "midi": 50,
          "time": 154.63218799999993,
          "velocity": 0.7480314960629921,
          "duration": 0.22058799999999223
        },
        {
          "name": "G2",
          "midi": 43,
          "time": 154.63218799999993,
          "velocity": 0.7480314960629921,
          "duration": 0.22058799999999223
        },
        {
          "name": "B3",
          "midi": 59,
          "time": 154.85277599999992,
          "velocity": 0.7480314960629921,
          "duration": 0.22058799999999223
        },
        {
          "name": "G3",
          "midi": 55,
          "time": 154.85277599999992,
          "velocity": 0.7480314960629921,
          "duration": 0.22058799999999223
        },
        {
          "name": "D3",
          "midi": 50,
          "time": 154.85277599999992,
          "velocity": 0.7480314960629921,
          "duration": 0.22058799999999223
        },
        {
          "name": "G2",
          "midi": 43,
          "time": 154.85277599999992,
          "velocity": 0.7480314960629921,
          "duration": 0.22058799999999223
        },
        {
          "name": "B3",
          "midi": 59,
          "time": 155.0733639999999,
          "velocity": 0.7480314960629921,
          "duration": 0.22058799999999223
        },
        {
          "name": "G3",
          "midi": 55,
          "time": 155.0733639999999,
          "velocity": 0.7480314960629921,
          "duration": 0.22058799999999223
        },
        {
          "name": "D3",
          "midi": 50,
          "time": 155.0733639999999,
          "velocity": 0.7480314960629921,
          "duration": 0.22058799999999223
        },
        {
          "name": "G2",
          "midi": 43,
          "time": 155.0733639999999,
          "velocity": 0.7480314960629921,
          "duration": 0.22058799999999223
        },
        {
          "name": "B3",
          "midi": 59,
          "time": 155.2939519999999,
          "velocity": 0.7480314960629921,
          "duration": 0.22058799999999223
        },
        {
          "name": "G3",
          "midi": 55,
          "time": 155.2939519999999,
          "velocity": 0.7480314960629921,
          "duration": 0.22058799999999223
        },
        {
          "name": "D3",
          "midi": 50,
          "time": 155.2939519999999,
          "velocity": 0.7480314960629921,
          "duration": 0.22058799999999223
        },
        {
          "name": "G2",
          "midi": 43,
          "time": 155.2939519999999,
          "velocity": 0.7480314960629921,
          "duration": 0.22058799999999223
        },
        {
          "name": "B3",
          "midi": 59,
          "time": 155.5145399999999,
          "velocity": 0.7480314960629921,
          "duration": 0.22058799999999223
        },
        {
          "name": "G3",
          "midi": 55,
          "time": 155.5145399999999,
          "velocity": 0.7480314960629921,
          "duration": 0.22058799999999223
        },
        {
          "name": "D3",
          "midi": 50,
          "time": 155.5145399999999,
          "velocity": 0.7480314960629921,
          "duration": 0.22058799999999223
        },
        {
          "name": "G2",
          "midi": 43,
          "time": 155.5145399999999,
          "velocity": 0.7480314960629921,
          "duration": 0.22058799999999223
        },
        {
          "name": "B3",
          "midi": 59,
          "time": 155.7351279999999,
          "velocity": 0.7480314960629921,
          "duration": 0.22058799999999223
        },
        {
          "name": "G3",
          "midi": 55,
          "time": 155.7351279999999,
          "velocity": 0.7480314960629921,
          "duration": 0.22058799999999223
        },
        {
          "name": "D3",
          "midi": 50,
          "time": 155.7351279999999,
          "velocity": 0.7480314960629921,
          "duration": 0.22058799999999223
        },
        {
          "name": "G2",
          "midi": 43,
          "time": 155.7351279999999,
          "velocity": 0.7480314960629921,
          "duration": 0.22058799999999223
        },
        {
          "name": "B3",
          "midi": 59,
          "time": 155.95571599999988,
          "velocity": 0.7480314960629921,
          "duration": 0.22058799999999223
        },
        {
          "name": "G3",
          "midi": 55,
          "time": 155.95571599999988,
          "velocity": 0.7480314960629921,
          "duration": 0.22058799999999223
        },
        {
          "name": "D3",
          "midi": 50,
          "time": 155.95571599999988,
          "velocity": 0.7480314960629921,
          "duration": 0.22058799999999223
        },
        {
          "name": "G2",
          "midi": 43,
          "time": 155.95571599999988,
          "velocity": 0.7480314960629921,
          "duration": 0.22058799999999223
        },
        {
          "name": "B3",
          "midi": 59,
          "time": 156.17630399999987,
          "velocity": 0.7480314960629921,
          "duration": 0.22058799999999223
        },
        {
          "name": "G3",
          "midi": 55,
          "time": 156.17630399999987,
          "velocity": 0.7480314960629921,
          "duration": 0.22058799999999223
        },
        {
          "name": "D3",
          "midi": 50,
          "time": 156.17630399999987,
          "velocity": 0.7480314960629921,
          "duration": 0.22058799999999223
        },
        {
          "name": "G2",
          "midi": 43,
          "time": 156.17630399999987,
          "velocity": 0.7480314960629921,
          "duration": 0.22058799999999223
        },
        {
          "name": "A3",
          "midi": 57,
          "time": 156.39689199999987,
          "velocity": 0.7480314960629921,
          "duration": 0.22058799999999223
        },
        {
          "name": "E3",
          "midi": 52,
          "time": 156.39689199999987,
          "velocity": 0.7480314960629921,
          "duration": 0.22058799999999223
        },
        {
          "name": "A2",
          "midi": 45,
          "time": 156.39689199999987,
          "velocity": 0.7480314960629921,
          "duration": 0.22058799999999223
        },
        {
          "name": "A3",
          "midi": 57,
          "time": 156.61747999999986,
          "velocity": 0.7480314960629921,
          "duration": 0.22058799999999223
        },
        {
          "name": "E3",
          "midi": 52,
          "time": 156.61747999999986,
          "velocity": 0.7480314960629921,
          "duration": 0.22058799999999223
        },
        {
          "name": "A2",
          "midi": 45,
          "time": 156.61747999999986,
          "velocity": 0.7480314960629921,
          "duration": 0.22058799999999223
        },
        {
          "name": "A3",
          "midi": 57,
          "time": 156.83806799999985,
          "velocity": 0.7480314960629921,
          "duration": 0.22058799999999223
        },
        {
          "name": "E3",
          "midi": 52,
          "time": 156.83806799999985,
          "velocity": 0.7480314960629921,
          "duration": 0.22058799999999223
        },
        {
          "name": "A2",
          "midi": 45,
          "time": 156.83806799999985,
          "velocity": 0.7480314960629921,
          "duration": 0.22058799999999223
        },
        {
          "name": "F#4",
          "midi": 66,
          "time": 157.05865599999984,
          "velocity": 0.7480314960629921,
          "duration": 0.22058799999999223
        },
        {
          "name": "D4",
          "midi": 62,
          "time": 157.05865599999984,
          "velocity": 0.7480314960629921,
          "duration": 0.22058799999999223
        },
        {
          "name": "A3",
          "midi": 57,
          "time": 157.05865599999984,
          "velocity": 0.7480314960629921,
          "duration": 0.22058799999999223
        },
        {
          "name": "D3",
          "midi": 50,
          "time": 157.05865599999984,
          "velocity": 0.7480314960629921,
          "duration": 0.22058799999999223
        },
        {
          "name": "A2",
          "midi": 45,
          "time": 157.05865599999984,
          "velocity": 0.7480314960629921,
          "duration": 0.22058799999999223
        },
        {
          "name": "F#4",
          "midi": 66,
          "time": 157.27924399999984,
          "velocity": 0.7480314960629921,
          "duration": 0.22058799999999223
        },
        {
          "name": "D4",
          "midi": 62,
          "time": 157.27924399999984,
          "velocity": 0.7480314960629921,
          "duration": 0.22058799999999223
        },
        {
          "name": "A3",
          "midi": 57,
          "time": 157.27924399999984,
          "velocity": 0.7480314960629921,
          "duration": 0.22058799999999223
        },
        {
          "name": "D3",
          "midi": 50,
          "time": 157.27924399999984,
          "velocity": 0.7480314960629921,
          "duration": 0.22058799999999223
        },
        {
          "name": "A2",
          "midi": 45,
          "time": 157.27924399999984,
          "velocity": 0.7480314960629921,
          "duration": 0.22058799999999223
        },
        {
          "name": "F#4",
          "midi": 66,
          "time": 157.49983199999983,
          "velocity": 0.7480314960629921,
          "duration": 0.22058799999999223
        },
        {
          "name": "D4",
          "midi": 62,
          "time": 157.49983199999983,
          "velocity": 0.7480314960629921,
          "duration": 0.22058799999999223
        },
        {
          "name": "A3",
          "midi": 57,
          "time": 157.49983199999983,
          "velocity": 0.7480314960629921,
          "duration": 0.22058799999999223
        },
        {
          "name": "D3",
          "midi": 50,
          "time": 157.49983199999983,
          "velocity": 0.7480314960629921,
          "duration": 0.22058799999999223
        },
        {
          "name": "A2",
          "midi": 45,
          "time": 157.49983199999983,
          "velocity": 0.7480314960629921,
          "duration": 0.22058799999999223
        },
        {
          "name": "F#4",
          "midi": 66,
          "time": 157.72041999999982,
          "velocity": 0.7480314960629921,
          "duration": 0.22058799999999223
        },
        {
          "name": "D4",
          "midi": 62,
          "time": 157.72041999999982,
          "velocity": 0.7480314960629921,
          "duration": 0.22058799999999223
        },
        {
          "name": "A3",
          "midi": 57,
          "time": 157.72041999999982,
          "velocity": 0.7480314960629921,
          "duration": 0.22058799999999223
        },
        {
          "name": "D3",
          "midi": 50,
          "time": 157.72041999999982,
          "velocity": 0.7480314960629921,
          "duration": 0.22058799999999223
        },
        {
          "name": "A2",
          "midi": 45,
          "time": 157.72041999999982,
          "velocity": 0.7480314960629921,
          "duration": 0.22058799999999223
        },
        {
          "name": "F#4",
          "midi": 66,
          "time": 157.9410079999998,
          "velocity": 0.7480314960629921,
          "duration": 0.22058799999999223
        },
        {
          "name": "D4",
          "midi": 62,
          "time": 157.9410079999998,
          "velocity": 0.7480314960629921,
          "duration": 0.22058799999999223
        },
        {
          "name": "A3",
          "midi": 57,
          "time": 157.9410079999998,
          "velocity": 0.7480314960629921,
          "duration": 0.22058799999999223
        },
        {
          "name": "D3",
          "midi": 50,
          "time": 157.9410079999998,
          "velocity": 0.7480314960629921,
          "duration": 0.22058799999999223
        },
        {
          "name": "A2",
          "midi": 45,
          "time": 157.9410079999998,
          "velocity": 0.7480314960629921,
          "duration": 0.22058799999999223
        },
        {
          "name": "F#4",
          "midi": 66,
          "time": 158.1615959999998,
          "velocity": 0.7480314960629921,
          "duration": 0.22058799999999223
        },
        {
          "name": "D4",
          "midi": 62,
          "time": 158.1615959999998,
          "velocity": 0.7480314960629921,
          "duration": 0.22058799999999223
        },
        {
          "name": "A3",
          "midi": 57,
          "time": 158.1615959999998,
          "velocity": 0.7480314960629921,
          "duration": 0.22058799999999223
        },
        {
          "name": "D3",
          "midi": 50,
          "time": 158.1615959999998,
          "velocity": 0.7480314960629921,
          "duration": 0.22058799999999223
        },
        {
          "name": "A2",
          "midi": 45,
          "time": 158.1615959999998,
          "velocity": 0.7480314960629921,
          "duration": 0.22058799999999223
        },
        {
          "name": "F#4",
          "midi": 66,
          "time": 158.3821839999998,
          "velocity": 0.7480314960629921,
          "duration": 0.22058799999999223
        },
        {
          "name": "D4",
          "midi": 62,
          "time": 158.3821839999998,
          "velocity": 0.7480314960629921,
          "duration": 0.22058799999999223
        },
        {
          "name": "A3",
          "midi": 57,
          "time": 158.3821839999998,
          "velocity": 0.7480314960629921,
          "duration": 0.22058799999999223
        },
        {
          "name": "D3",
          "midi": 50,
          "time": 158.3821839999998,
          "velocity": 0.7480314960629921,
          "duration": 0.22058799999999223
        },
        {
          "name": "A2",
          "midi": 45,
          "time": 158.3821839999998,
          "velocity": 0.7480314960629921,
          "duration": 0.22058799999999223
        },
        {
          "name": "F#4",
          "midi": 66,
          "time": 158.6027719999998,
          "velocity": 0.7480314960629921,
          "duration": 0.22058799999999223
        },
        {
          "name": "D4",
          "midi": 62,
          "time": 158.6027719999998,
          "velocity": 0.7480314960629921,
          "duration": 0.22058799999999223
        },
        {
          "name": "A3",
          "midi": 57,
          "time": 158.6027719999998,
          "velocity": 0.7480314960629921,
          "duration": 0.22058799999999223
        },
        {
          "name": "D3",
          "midi": 50,
          "time": 158.6027719999998,
          "velocity": 0.7480314960629921,
          "duration": 0.22058799999999223
        },
        {
          "name": "A2",
          "midi": 45,
          "time": 158.6027719999998,
          "velocity": 0.7480314960629921,
          "duration": 0.22058799999999223
        },
        {
          "name": "F#4",
          "midi": 66,
          "time": 158.82335999999978,
          "velocity": 0.7480314960629921,
          "duration": 0.22058799999999223
        },
        {
          "name": "D4",
          "midi": 62,
          "time": 158.82335999999978,
          "velocity": 0.7480314960629921,
          "duration": 0.22058799999999223
        },
        {
          "name": "A3",
          "midi": 57,
          "time": 158.82335999999978,
          "velocity": 0.7480314960629921,
          "duration": 0.22058799999999223
        },
        {
          "name": "D3",
          "midi": 50,
          "time": 158.82335999999978,
          "velocity": 0.7480314960629921,
          "duration": 0.22058799999999223
        },
        {
          "name": "A2",
          "midi": 45,
          "time": 158.82335999999978,
          "velocity": 0.7480314960629921,
          "duration": 0.22058799999999223
        },
        {
          "name": "F#4",
          "midi": 66,
          "time": 159.04394799999977,
          "velocity": 0.7480314960629921,
          "duration": 0.22058799999999223
        },
        {
          "name": "D4",
          "midi": 62,
          "time": 159.04394799999977,
          "velocity": 0.7480314960629921,
          "duration": 0.22058799999999223
        },
        {
          "name": "A3",
          "midi": 57,
          "time": 159.04394799999977,
          "velocity": 0.7480314960629921,
          "duration": 0.22058799999999223
        },
        {
          "name": "D3",
          "midi": 50,
          "time": 159.04394799999977,
          "velocity": 0.7480314960629921,
          "duration": 0.22058799999999223
        },
        {
          "name": "A2",
          "midi": 45,
          "time": 159.04394799999977,
          "velocity": 0.7480314960629921,
          "duration": 0.22058799999999223
        },
        {
          "name": "F#4",
          "midi": 66,
          "time": 159.26453599999977,
          "velocity": 0.7480314960629921,
          "duration": 0.22058799999999223
        },
        {
          "name": "D4",
          "midi": 62,
          "time": 159.26453599999977,
          "velocity": 0.7480314960629921,
          "duration": 0.22058799999999223
        },
        {
          "name": "A3",
          "midi": 57,
          "time": 159.26453599999977,
          "velocity": 0.7480314960629921,
          "duration": 0.22058799999999223
        },
        {
          "name": "D3",
          "midi": 50,
          "time": 159.26453599999977,
          "velocity": 0.7480314960629921,
          "duration": 0.22058799999999223
        },
        {
          "name": "A2",
          "midi": 45,
          "time": 159.26453599999977,
          "velocity": 0.7480314960629921,
          "duration": 0.22058799999999223
        },
        {
          "name": "F#4",
          "midi": 66,
          "time": 159.48512399999976,
          "velocity": 0.7480314960629921,
          "duration": 0.22058799999999223
        },
        {
          "name": "D4",
          "midi": 62,
          "time": 159.48512399999976,
          "velocity": 0.7480314960629921,
          "duration": 0.22058799999999223
        },
        {
          "name": "A3",
          "midi": 57,
          "time": 159.48512399999976,
          "velocity": 0.7480314960629921,
          "duration": 0.22058799999999223
        },
        {
          "name": "D3",
          "midi": 50,
          "time": 159.48512399999976,
          "velocity": 0.7480314960629921,
          "duration": 0.22058799999999223
        },
        {
          "name": "A2",
          "midi": 45,
          "time": 159.48512399999976,
          "velocity": 0.7480314960629921,
          "duration": 0.22058799999999223
        },
        {
          "name": "F#4",
          "midi": 66,
          "time": 159.70571199999975,
          "velocity": 0.7480314960629921,
          "duration": 0.22058799999999223
        },
        {
          "name": "D4",
          "midi": 62,
          "time": 159.70571199999975,
          "velocity": 0.7480314960629921,
          "duration": 0.22058799999999223
        },
        {
          "name": "A3",
          "midi": 57,
          "time": 159.70571199999975,
          "velocity": 0.7480314960629921,
          "duration": 0.22058799999999223
        },
        {
          "name": "D3",
          "midi": 50,
          "time": 159.70571199999975,
          "velocity": 0.7480314960629921,
          "duration": 0.22058799999999223
        },
        {
          "name": "A2",
          "midi": 45,
          "time": 159.70571199999975,
          "velocity": 0.7480314960629921,
          "duration": 0.22058799999999223
        },
        {
          "name": "F#4",
          "midi": 66,
          "time": 159.92629999999974,
          "velocity": 0.7480314960629921,
          "duration": 0.22058799999999223
        },
        {
          "name": "D4",
          "midi": 62,
          "time": 159.92629999999974,
          "velocity": 0.7480314960629921,
          "duration": 0.22058799999999223
        },
        {
          "name": "A3",
          "midi": 57,
          "time": 159.92629999999974,
          "velocity": 0.7480314960629921,
          "duration": 0.22058799999999223
        },
        {
          "name": "D3",
          "midi": 50,
          "time": 159.92629999999974,
          "velocity": 0.7480314960629921,
          "duration": 0.22058799999999223
        },
        {
          "name": "A2",
          "midi": 45,
          "time": 159.92629999999974,
          "velocity": 0.7480314960629921,
          "duration": 0.22058799999999223
        },
        {
          "name": "F#4",
          "midi": 66,
          "time": 160.14688799999973,
          "velocity": 0.7480314960629921,
          "duration": 0.22058799999999223
        },
        {
          "name": "D4",
          "midi": 62,
          "time": 160.14688799999973,
          "velocity": 0.7480314960629921,
          "duration": 0.22058799999999223
        },
        {
          "name": "A3",
          "midi": 57,
          "time": 160.14688799999973,
          "velocity": 0.7480314960629921,
          "duration": 0.22058799999999223
        },
        {
          "name": "D3",
          "midi": 50,
          "time": 160.14688799999973,
          "velocity": 0.7480314960629921,
          "duration": 0.22058799999999223
        },
        {
          "name": "A2",
          "midi": 45,
          "time": 160.14688799999973,
          "velocity": 0.7480314960629921,
          "duration": 0.22058799999999223
        },
        {
          "name": "F#4",
          "midi": 66,
          "time": 160.36747599999973,
          "velocity": 0.7480314960629921,
          "duration": 0.22058799999999223
        },
        {
          "name": "D4",
          "midi": 62,
          "time": 160.36747599999973,
          "velocity": 0.7480314960629921,
          "duration": 0.22058799999999223
        },
        {
          "name": "A3",
          "midi": 57,
          "time": 160.36747599999973,
          "velocity": 0.7480314960629921,
          "duration": 0.22058799999999223
        },
        {
          "name": "D3",
          "midi": 50,
          "time": 160.36747599999973,
          "velocity": 0.7480314960629921,
          "duration": 0.22058799999999223
        },
        {
          "name": "A2",
          "midi": 45,
          "time": 160.36747599999973,
          "velocity": 0.7480314960629921,
          "duration": 0.22058799999999223
        },
        {
          "name": "A#3",
          "midi": 58,
          "time": 160.58806399999972,
          "velocity": 0.7480314960629921,
          "duration": 0.22058799999999223
        },
        {
          "name": "B3",
          "midi": 59,
          "time": 160.8086519999997,
          "velocity": 0.7480314960629921,
          "duration": 0.22058799999999223
        },
        {
          "name": "C#4",
          "midi": 61,
          "time": 161.0292399999997,
          "velocity": 0.7480314960629921,
          "duration": 0.22058799999999223
        },
        {
          "name": "A#3",
          "midi": 58,
          "time": 161.2498279999997,
          "velocity": 0.7480314960629921,
          "duration": 0.22058799999999223
        },
        {
          "name": "B3",
          "midi": 59,
          "time": 161.4704159999997,
          "velocity": 0.7480314960629921,
          "duration": 0.22058799999999223
        },
        {
          "name": "C#4",
          "midi": 61,
          "time": 161.69100399999968,
          "velocity": 0.7480314960629921,
          "duration": 0.22058799999999223
        },
        {
          "name": "D4",
          "midi": 62,
          "time": 161.91159199999967,
          "velocity": 0.7480314960629921,
          "duration": 0.22058799999999223
        },
        {
          "name": "B3",
          "midi": 59,
          "time": 162.13217999999966,
          "velocity": 0.7480314960629921,
          "duration": 0.22058799999999223
        },
        {
          "name": "C#4",
          "midi": 61,
          "time": 162.35276799999966,
          "velocity": 0.7480314960629921,
          "duration": 0.22058799999999223
        },
        {
          "name": "D4",
          "midi": 62,
          "time": 162.57335599999965,
          "velocity": 0.7480314960629921,
          "duration": 0.22058799999999223
        },
        {
          "name": "E4",
          "midi": 64,
          "time": 162.79394399999964,
          "velocity": 0.7480314960629921,
          "duration": 0.22058799999999223
        },
        {
          "name": "F#4",
          "midi": 66,
          "time": 163.01453199999963,
          "velocity": 0.7480314960629921,
          "duration": 0.11029400000001033
        },
        {
          "name": "G4",
          "midi": 67,
          "time": 163.12482599999964,
          "velocity": 0.5984251968503937,
          "duration": 0.11029400000001033
        },
        {
          "name": "F#4",
          "midi": 66,
          "time": 163.23511999999965,
          "velocity": 0.5984251968503937,
          "duration": 0.22058799999999223
        },
        {
          "name": "E4",
          "midi": 64,
          "time": 163.45570799999965,
          "velocity": 0.7480314960629921,
          "duration": 0.22058799999999223
        },
        {
          "name": "D4",
          "midi": 62,
          "time": 163.67629599999964,
          "velocity": 0.7480314960629921,
          "duration": 0.22058799999999223
        },
        {
          "name": "C#4",
          "midi": 61,
          "time": 163.89688399999963,
          "velocity": 0.7480314960629921,
          "duration": 0.22058799999999223
        },
        {
          "name": "B3",
          "midi": 59,
          "time": 164.11747199999962,
          "velocity": 0.7480314960629921,
          "duration": 0.22058799999999223
        },
        {
          "name": "C#4",
          "midi": 61,
          "time": 164.33805999999962,
          "velocity": 0.7480314960629921,
          "duration": 0.22058799999999223
        },
        {
          "name": "D4",
          "midi": 62,
          "time": 164.5586479999996,
          "velocity": 0.7480314960629921,
          "duration": 0.22058799999999223
        },
        {
          "name": "B3",
          "midi": 59,
          "time": 164.7792359999996,
          "velocity": 0.7480314960629921,
          "duration": 0.22058799999999223
        },
        {
          "name": "C#4",
          "midi": 61,
          "time": 164.9998239999996,
          "velocity": 0.7480314960629921,
          "duration": 0.22058799999999223
        },
        {
          "name": "D4",
          "midi": 62,
          "time": 165.22041199999958,
          "velocity": 0.7480314960629921,
          "duration": 0.22058799999999223
        },
        {
          "name": "E4",
          "midi": 64,
          "time": 165.44099999999958,
          "velocity": 0.7480314960629921,
          "duration": 0.22058799999999223
        },
        {
          "name": "C#4",
          "midi": 61,
          "time": 165.66158799999957,
          "velocity": 0.7480314960629921,
          "duration": 0.22058799999999223
        },
        {
          "name": "D4",
          "midi": 62,
          "time": 165.88217599999956,
          "velocity": 0.7480314960629921,
          "duration": 0.22058799999999223
        },
        {
          "name": "E4",
          "midi": 64,
          "time": 166.10276399999955,
          "velocity": 0.7480314960629921,
          "duration": 0.22058799999999223
        },
        {
          "name": "F#4",
          "midi": 66,
          "time": 166.32335199999955,
          "velocity": 0.7480314960629921,
          "duration": 0.22058799999999223
        },
        {
          "name": "F#4",
          "midi": 66,
          "time": 166.54393999999954,
          "velocity": 0.7480314960629921,
          "duration": 0.11029400000001033
        },
        {
          "name": "G4",
          "midi": 67,
          "time": 166.65423399999955,
          "velocity": 0.5984251968503937,
          "duration": 0.11029400000001033
        },
        {
          "name": "F#4",
          "midi": 66,
          "time": 166.76452799999956,
          "velocity": 0.5984251968503937,
          "duration": 0.22058799999999223
        },
        {
          "name": "F4",
          "midi": 65,
          "time": 166.98511599999955,
          "velocity": 0.7480314960629921,
          "duration": 0.22058799999999223
        },
        {
          "name": "F#4",
          "midi": 66,
          "time": 167.20570399999954,
          "velocity": 0.7480314960629921,
          "duration": 0.22058799999999223
        },
        {
          "name": "F4",
          "midi": 65,
          "time": 167.42629199999953,
          "velocity": 0.7480314960629921,
          "duration": 0.22058799999999223
        },
        {
          "name": "F#4",
          "midi": 66,
          "time": 167.64687999999953,
          "velocity": 0.7480314960629921,
          "duration": 1.1029399999999612
        },
        {
          "name": "D4",
          "midi": 62,
          "time": 167.86746799999952,
          "velocity": 0.7480314960629921,
          "duration": 0.8823519999999689
        },
        {
          "name": "A3",
          "midi": 57,
          "time": 168.0880559999995,
          "velocity": 0.7480314960629921,
          "duration": 0.22058799999999223
        },
        {
          "name": "F#3",
          "midi": 54,
          "time": 168.3086439999995,
          "velocity": 0.7480314960629921,
          "duration": 0.6617639999999767
        },
        {
          "name": "A3",
          "midi": 57,
          "time": 168.5292319999995,
          "velocity": 0.7480314960629921,
          "duration": 0.44117599999998447
        },
        {
          "name": "D4",
          "midi": 62,
          "time": 168.7498199999995,
          "velocity": 0.7480314960629921,
          "duration": 0.22058799999999223
        },
        {
          "name": "F#4",
          "midi": 66,
          "time": 168.97040799999948,
          "velocity": 0.7480314960629921,
          "duration": 0.22058799999999223
        },
        {
          "name": "G#4",
          "midi": 68,
          "time": 169.19099599999947,
          "velocity": 0.7480314960629921,
          "duration": 0.22058799999999223
        },
        {
          "name": "G#4",
          "midi": 68,
          "time": 169.41158399999946,
          "velocity": 0.7480314960629921,
          "duration": 0.44117600000009816
        },
        {
          "name": "F#4",
          "midi": 66,
          "time": 169.85275999999956,
          "velocity": 0.7480314960629921,
          "duration": 0.22058799999999223
        },
        {
          "name": "F4",
          "midi": 65,
          "time": 170.07334799999956,
          "velocity": 0.7480314960629921,
          "duration": 0.22058799999999223
        },
        {
          "name": "F#4",
          "midi": 66,
          "time": 170.29393599999955,
          "velocity": 0.7480314960629921,
          "duration": 0.22058799999999223
        },
        {
          "name": "D4",
          "midi": 62,
          "time": 170.51452399999954,
          "velocity": 0.7480314960629921,
          "duration": 0.22058799999999223
        },
        {
          "name": "C#4",
          "midi": 61,
          "time": 170.73511199999953,
          "velocity": 0.7480314960629921,
          "duration": 0.22058799999999223
        },
        {
          "name": "D4",
          "midi": 62,
          "time": 170.95569999999952,
          "velocity": 0.7480314960629921,
          "duration": 0.22058799999999223
        },
        {
          "name": "A#3",
          "midi": 58,
          "time": 171.17628799999952,
          "velocity": 0.7480314960629921,
          "duration": 0.22058799999999223
        },
        {
          "name": "B3",
          "midi": 59,
          "time": 171.3968759999995,
          "velocity": 0.7480314960629921,
          "duration": 0.22058799999999223
        },
        {
          "name": "C#4",
          "midi": 61,
          "time": 171.6174639999995,
          "velocity": 0.7480314960629921,
          "duration": 0.22058799999999223
        },
        {
          "name": "A#3",
          "midi": 58,
          "time": 171.8380519999995,
          "velocity": 0.7480314960629921,
          "duration": 0.22058799999999223
        },
        {
          "name": "B3",
          "midi": 59,
          "time": 172.05863999999949,
          "velocity": 0.7480314960629921,
          "duration": 0.22058799999999223
        },
        {
          "name": "C#4",
          "midi": 61,
          "time": 172.27922799999948,
          "velocity": 0.7480314960629921,
          "duration": 0.22058799999999223
        },
        {
          "name": "D4",
          "midi": 62,
          "time": 172.49981599999947,
          "velocity": 0.7480314960629921,
          "duration": 0.22058799999999223
        },
        {
          "name": "B3",
          "midi": 59,
          "time": 172.72040399999946,
          "velocity": 0.7480314960629921,
          "duration": 0.22058799999999223
        },
        {
          "name": "C#4",
          "midi": 61,
          "time": 172.94099199999945,
          "velocity": 0.7480314960629921,
          "duration": 0.22058799999999223
        },
        {
          "name": "D4",
          "midi": 62,
          "time": 173.16157999999945,
          "velocity": 0.7480314960629921,
          "duration": 0.22058799999999223
        },
        {
          "name": "E4",
          "midi": 64,
          "time": 173.38216799999944,
          "velocity": 0.7480314960629921,
          "duration": 0.22058799999999223
        },
        {
          "name": "F#4",
          "midi": 66,
          "time": 173.60275599999943,
          "velocity": 0.7480314960629921,
          "duration": 0.11029400000001033
        },
        {
          "name": "G4",
          "midi": 67,
          "time": 173.71304999999944,
          "velocity": 0.5984251968503937,
          "duration": 0.11029400000001033
        },
        {
          "name": "F#4",
          "midi": 66,
          "time": 173.82334399999945,
          "velocity": 0.5984251968503937,
          "duration": 0.22058799999999223
        },
        {
          "name": "E4",
          "midi": 64,
          "time": 174.04393199999944,
          "velocity": 0.7480314960629921,
          "duration": 0.22058799999999223
        },
        {
          "name": "D4",
          "midi": 62,
          "time": 174.26451999999944,
          "velocity": 0.7480314960629921,
          "duration": 0.22058799999999223
        },
        {
          "name": "C#4",
          "midi": 61,
          "time": 174.48510799999943,
          "velocity": 0.7480314960629921,
          "duration": 0.22058799999999223
        },
        {
          "name": "B3",
          "midi": 59,
          "time": 174.70569599999942,
          "velocity": 0.7480314960629921,
          "duration": 0.22058799999999223
        },
        {
          "name": "C#4",
          "midi": 61,
          "time": 174.9262839999994,
          "velocity": 0.7480314960629921,
          "duration": 0.22058799999999223
        },
        {
          "name": "D4",
          "midi": 62,
          "time": 175.1468719999994,
          "velocity": 0.7480314960629921,
          "duration": 0.22058799999999223
        },
        {
          "name": "B3",
          "midi": 59,
          "time": 175.3674599999994,
          "velocity": 0.7480314960629921,
          "duration": 0.22058799999999223
        },
        {
          "name": "C#4",
          "midi": 61,
          "time": 175.5880479999994,
          "velocity": 0.7480314960629921,
          "duration": 0.22058799999999223
        },
        {
          "name": "D4",
          "midi": 62,
          "time": 175.80863599999938,
          "velocity": 0.7480314960629921,
          "duration": 0.22058799999999223
        },
        {
          "name": "E4",
          "midi": 64,
          "time": 176.02922399999937,
          "velocity": 0.7480314960629921,
          "duration": 0.22058799999999223
        },
        {
          "name": "C#4",
          "midi": 61,
          "time": 176.24981199999937,
          "velocity": 0.7480314960629921,
          "duration": 0.22058799999999223
        },
        {
          "name": "D4",
          "midi": 62,
          "time": 176.47039999999936,
          "velocity": 0.7480314960629921,
          "duration": 0.22058799999999223
        },
        {
          "name": "E4",
          "midi": 64,
          "time": 176.69098799999935,
          "velocity": 0.7480314960629921,
          "duration": 0.22058799999999223
        },
        {
          "name": "F#4",
          "midi": 66,
          "time": 176.91157599999934,
          "velocity": 0.7480314960629921,
          "duration": 0.22058799999999223
        },
        {
          "name": "F#4",
          "midi": 66,
          "time": 177.13216399999934,
          "velocity": 0.7480314960629921,
          "duration": 0.11029400000001033
        },
        {
          "name": "G4",
          "midi": 67,
          "time": 177.24245799999935,
          "velocity": 0.5984251968503937,
          "duration": 0.11029400000001033
        },
        {
          "name": "F#4",
          "midi": 66,
          "time": 177.35275199999936,
          "velocity": 0.5984251968503937,
          "duration": 0.22058799999999223
        },
        {
          "name": "F4",
          "midi": 65,
          "time": 177.57333999999935,
          "velocity": 0.7480314960629921,
          "duration": 0.22058799999999223
        },
        {
          "name": "F#4",
          "midi": 66,
          "time": 177.79392799999934,
          "velocity": 0.7480314960629921,
          "duration": 0.22058799999999223
        },
        {
          "name": "F4",
          "midi": 65,
          "time": 178.01451599999933,
          "velocity": 0.7480314960629921,
          "duration": 0.22058799999999223
        },
        {
          "name": "F#4",
          "midi": 66,
          "time": 178.23510399999932,
          "velocity": 0.7480314960629921,
          "duration": 1.1029399999999612
        },
        {
          "name": "D4",
          "midi": 62,
          "time": 178.45569199999932,
          "velocity": 0.7480314960629921,
          "duration": 0.8823519999999689
        },
        {
          "name": "A3",
          "midi": 57,
          "time": 178.6762799999993,
          "velocity": 0.7480314960629921,
          "duration": 0.22058799999999223
        },
        {
          "name": "F#3",
          "midi": 54,
          "time": 178.8968679999993,
          "velocity": 0.7480314960629921,
          "duration": 0.6617639999999767
        },
        {
          "name": "A3",
          "midi": 57,
          "time": 179.1174559999993,
          "velocity": 0.7480314960629921,
          "duration": 0.44117599999998447
        },
        {
          "name": "D4",
          "midi": 62,
          "time": 179.3380439999993,
          "velocity": 0.7480314960629921,
          "duration": 0.22058799999999223
        },
        {
          "name": "F#4",
          "midi": 66,
          "time": 179.55863199999928,
          "velocity": 0.7480314960629921,
          "duration": 0.22058799999999223
        },
        {
          "name": "G#4",
          "midi": 68,
          "time": 179.77921999999927,
          "velocity": 0.7480314960629921,
          "duration": 0.22058799999999223
        },
        {
          "name": "G#4",
          "midi": 68,
          "time": 179.99980799999926,
          "velocity": 0.7480314960629921,
          "duration": 0.44117600000009816
        },
        {
          "name": "F#4",
          "midi": 66,
          "time": 180.44098399999936,
          "velocity": 0.7480314960629921,
          "duration": 0.22058799999999223
        },
        {
          "name": "F4",
          "midi": 65,
          "time": 180.66157199999935,
          "velocity": 0.7480314960629921,
          "duration": 0.22058799999999223
        },
        {
          "name": "F#4",
          "midi": 66,
          "time": 180.88215999999935,
          "velocity": 0.7480314960629921,
          "duration": 0.22058799999999223
        },
        {
          "name": "D4",
          "midi": 62,
          "time": 181.10274799999934,
          "velocity": 0.7480314960629921,
          "duration": 0.22058799999999223
        },
        {
          "name": "C#4",
          "midi": 61,
          "time": 181.32333599999933,
          "velocity": 0.7480314960629921,
          "duration": 0.22058799999999223
        },
        {
          "name": "D4",
          "midi": 62,
          "time": 181.54392399999932,
          "velocity": 0.7480314960629921,
          "duration": 0.22058799999999223
        },
        {
          "name": "A#3",
          "midi": 58,
          "time": 181.7645119999993,
          "velocity": 0.7480314960629921,
          "duration": 0.22058799999999223
        },
        {
          "name": "B3",
          "midi": 59,
          "time": 181.9850999999993,
          "velocity": 0.7480314960629921,
          "duration": 0.22058799999999223
        },
        {
          "name": "C#4",
          "midi": 61,
          "time": 182.2056879999993,
          "velocity": 0.7480314960629921,
          "duration": 0.22058799999999223
        },
        {
          "name": "A#3",
          "midi": 58,
          "time": 182.4262759999993,
          "velocity": 0.7480314960629921,
          "duration": 0.22058799999999223
        },
        {
          "name": "B3",
          "midi": 59,
          "time": 182.64686399999928,
          "velocity": 0.7480314960629921,
          "duration": 0.22058799999999223
        },
        {
          "name": "C#4",
          "midi": 61,
          "time": 182.86745199999928,
          "velocity": 0.7480314960629921,
          "duration": 0.22058799999999223
        },
        {
          "name": "D4",
          "midi": 62,
          "time": 183.08803999999927,
          "velocity": 0.7480314960629921,
          "duration": 0.22058799999999223
        },
        {
          "name": "B3",
          "midi": 59,
          "time": 183.30862799999926,
          "velocity": 0.7480314960629921,
          "duration": 0.22058799999999223
        },
        {
          "name": "C#4",
          "midi": 61,
          "time": 183.52921599999925,
          "velocity": 0.7480314960629921,
          "duration": 0.22058799999999223
        },
        {
          "name": "D4",
          "midi": 62,
          "time": 183.74980399999924,
          "velocity": 0.7480314960629921,
          "duration": 0.22058799999999223
        },
        {
          "name": "E4",
          "midi": 64,
          "time": 183.97039199999924,
          "velocity": 0.7480314960629921,
          "duration": 0.22058799999999223
        },
        {
          "name": "F#4",
          "midi": 66,
          "time": 184.19097999999923,
          "velocity": 0.7480314960629921,
          "duration": 0.11029400000001033
        },
        {
          "name": "G4",
          "midi": 67,
          "time": 184.30127399999924,
          "velocity": 0.5984251968503937,
          "duration": 0.11029400000001033
        },
        {
          "name": "F#4",
          "midi": 66,
          "time": 184.41156799999925,
          "velocity": 0.5984251968503937,
          "duration": 0.22058799999999223
        },
        {
          "name": "E4",
          "midi": 64,
          "time": 184.63215599999924,
          "velocity": 0.7480314960629921,
          "duration": 0.22058799999999223
        },
        {
          "name": "D4",
          "midi": 62,
          "time": 184.85274399999923,
          "velocity": 0.7480314960629921,
          "duration": 0.22058799999999223
        },
        {
          "name": "C#4",
          "midi": 61,
          "time": 185.07333199999923,
          "velocity": 0.7480314960629921,
          "duration": 0.22058799999999223
        },
        {
          "name": "B3",
          "midi": 59,
          "time": 185.29391999999922,
          "velocity": 0.7480314960629921,
          "duration": 0.22058799999999223
        },
        {
          "name": "C#4",
          "midi": 61,
          "time": 185.5145079999992,
          "velocity": 0.7480314960629921,
          "duration": 0.22058799999999223
        },
        {
          "name": "D4",
          "midi": 62,
          "time": 185.7350959999992,
          "velocity": 0.7480314960629921,
          "duration": 0.22058799999999223
        },
        {
          "name": "B3",
          "midi": 59,
          "time": 185.9556839999992,
          "velocity": 0.7480314960629921,
          "duration": 0.22058799999999223
        },
        {
          "name": "C#4",
          "midi": 61,
          "time": 186.1762719999992,
          "velocity": 0.7480314960629921,
          "duration": 0.22058799999999223
        },
        {
          "name": "D4",
          "midi": 62,
          "time": 186.39685999999918,
          "velocity": 0.7480314960629921,
          "duration": 0.22058799999999223
        },
        {
          "name": "E4",
          "midi": 64,
          "time": 186.61744799999917,
          "velocity": 0.7480314960629921,
          "duration": 0.22058799999999223
        },
        {
          "name": "C#4",
          "midi": 61,
          "time": 186.83803599999916,
          "velocity": 0.7480314960629921,
          "duration": 0.22058799999999223
        },
        {
          "name": "D4",
          "midi": 62,
          "time": 187.05862399999916,
          "velocity": 0.7480314960629921,
          "duration": 0.22058799999999223
        },
        {
          "name": "E4",
          "midi": 64,
          "time": 187.27921199999915,
          "velocity": 0.7480314960629921,
          "duration": 0.22058799999999223
        },
        {
          "name": "F#4",
          "midi": 66,
          "time": 187.49979999999914,
          "velocity": 0.7480314960629921,
          "duration": 0.22058799999999223
        },
        {
          "name": "F#4",
          "midi": 66,
          "time": 187.72038799999913,
          "velocity": 0.7480314960629921,
          "duration": 0.11029400000001033
        },
        {
          "name": "G4",
          "midi": 67,
          "time": 187.83068199999914,
          "velocity": 0.5984251968503937,
          "duration": 0.11029400000001033
        },
        {
          "name": "F#4",
          "midi": 66,
          "time": 187.94097599999915,
          "velocity": 0.5984251968503937,
          "duration": 0.22058799999999223
        },
        {
          "name": "F4",
          "midi": 65,
          "time": 188.16156399999915,
          "velocity": 0.7480314960629921,
          "duration": 0.22058799999999223
        },
        {
          "name": "F#4",
          "midi": 66,
          "time": 188.38215199999914,
          "velocity": 0.7480314960629921,
          "duration": 0.22058799999999223
        },
        {
          "name": "F4",
          "midi": 65,
          "time": 188.60273999999913,
          "velocity": 0.7480314960629921,
          "duration": 0.22058799999999223
        },
        {
          "name": "F#4",
          "midi": 66,
          "time": 188.82332799999912,
          "velocity": 0.7480314960629921,
          "duration": 1.1029399999999612
        },
        {
          "name": "D4",
          "midi": 62,
          "time": 189.04391599999911,
          "velocity": 0.7480314960629921,
          "duration": 0.8823519999999689
        },
        {
          "name": "A3",
          "midi": 57,
          "time": 189.2645039999991,
          "velocity": 0.7480314960629921,
          "duration": 0.22058799999999223
        },
        {
          "name": "F#3",
          "midi": 54,
          "time": 189.4850919999991,
          "velocity": 0.7480314960629921,
          "duration": 0.6617639999999767
        },
        {
          "name": "A3",
          "midi": 57,
          "time": 189.7056799999991,
          "velocity": 0.7480314960629921,
          "duration": 0.44117599999998447
        },
        {
          "name": "D4",
          "midi": 62,
          "time": 189.92626799999908,
          "velocity": 0.7480314960629921,
          "duration": 0.22058799999999223
        },
        {
          "name": "F#4",
          "midi": 66,
          "time": 190.14685599999908,
          "velocity": 0.7480314960629921,
          "duration": 0.22058799999999223
        },
        {
          "name": "G#4",
          "midi": 68,
          "time": 190.36744399999907,
          "velocity": 0.7480314960629921,
          "duration": 0.22058799999999223
        },
        {
          "name": "G#4",
          "midi": 68,
          "time": 190.58803199999906,
          "velocity": 0.7480314960629921,
          "duration": 0.44117600000009816
        },
        {
          "name": "F#4",
          "midi": 66,
          "time": 191.02920799999916,
          "velocity": 0.7480314960629921,
          "duration": 0.22058799999999223
        },
        {
          "name": "F4",
          "midi": 65,
          "time": 191.24979599999915,
          "velocity": 0.7480314960629921,
          "duration": 0.22058799999999223
        },
        {
          "name": "F#4",
          "midi": 66,
          "time": 191.47038399999914,
          "velocity": 0.7480314960629921,
          "duration": 0.22058799999999223
        },
        {
          "name": "D4",
          "midi": 62,
          "time": 191.69097199999914,
          "velocity": 0.7480314960629921,
          "duration": 0.22058799999999223
        },
        {
          "name": "C#4",
          "midi": 61,
          "time": 191.91155999999913,
          "velocity": 0.7480314960629921,
          "duration": 0.22058799999999223
        },
        {
          "name": "D4",
          "midi": 62,
          "time": 192.13214799999912,
          "velocity": 0.7480314960629921,
          "duration": 0.22058799999999223
        },
        {
          "name": "A#3",
          "midi": 58,
          "time": 192.3527359999991,
          "velocity": 0.7480314960629921,
          "duration": 0.22058799999999223
        },
        {
          "name": "B3",
          "midi": 59,
          "time": 192.5733239999991,
          "velocity": 0.7480314960629921,
          "duration": 0.22058799999999223
        },
        {
          "name": "C#4",
          "midi": 61,
          "time": 192.7939119999991,
          "velocity": 0.7480314960629921,
          "duration": 0.22058799999999223
        },
        {
          "name": "A#3",
          "midi": 58,
          "time": 193.0144999999991,
          "velocity": 0.7480314960629921,
          "duration": 0.22058799999999223
        },
        {
          "name": "B3",
          "midi": 59,
          "time": 193.23508799999908,
          "velocity": 0.7480314960629921,
          "duration": 0.22058799999999223
        },
        {
          "name": "C#4",
          "midi": 61,
          "time": 193.45567599999907,
          "velocity": 0.7480314960629921,
          "duration": 0.22058799999999223
        },
        {
          "name": "D4",
          "midi": 62,
          "time": 193.67626399999907,
          "velocity": 0.7480314960629921,
          "duration": 0.22058799999999223
        },
        {
          "name": "B3",
          "midi": 59,
          "time": 193.89685199999906,
          "velocity": 0.7480314960629921,
          "duration": 0.22058799999999223
        },
        {
          "name": "C#4",
          "midi": 61,
          "time": 194.11743999999905,
          "velocity": 0.7480314960629921,
          "duration": 0.22058799999999223
        },
        {
          "name": "D4",
          "midi": 62,
          "time": 194.33802799999904,
          "velocity": 0.7480314960629921,
          "duration": 0.22058799999999223
        },
        {
          "name": "E4",
          "midi": 64,
          "time": 194.55861599999903,
          "velocity": 0.7480314960629921,
          "duration": 0.22058799999999223
        },
        {
          "name": "F#4",
          "midi": 66,
          "time": 194.77920399999903,
          "velocity": 0.7480314960629921,
          "duration": 0.11029400000001033
        },
        {
          "name": "G4",
          "midi": 67,
          "time": 194.88949799999904,
          "velocity": 0.5984251968503937,
          "duration": 0.11029400000001033
        },
        {
          "name": "F#4",
          "midi": 66,
          "time": 194.99979199999905,
          "velocity": 0.5984251968503937,
          "duration": 0.22058799999999223
        },
        {
          "name": "E4",
          "midi": 64,
          "time": 195.22037999999904,
          "velocity": 0.7480314960629921,
          "duration": 0.22058799999999223
        },
        {
          "name": "D4",
          "midi": 62,
          "time": 195.44096799999903,
          "velocity": 0.7480314960629921,
          "duration": 0.22058799999999223
        },
        {
          "name": "C#4",
          "midi": 61,
          "time": 195.66155599999902,
          "velocity": 0.7480314960629921,
          "duration": 0.22058799999999223
        },
        {
          "name": "B3",
          "midi": 59,
          "time": 195.88214399999902,
          "velocity": 0.7480314960629921,
          "duration": 3.5294079999999894
        }
      ],
      "controlChanges": {
        "6": [
          {
            "number": 6,
            "time": 0,
            "value": 0.09448818897637795
          },
          {
            "number": 6,
            "time": 0,
            "value": 0.5039370078740157
          },
          {
            "number": 6,
            "time": 0,
            "value": 0.09448818897637795
          },
          {
            "number": 6,
            "time": 0,
            "value": 0.5039370078740157
          },
          {
            "number": 6,
            "time": 0,
            "value": 0.5039370078740157
          },
          {
            "number": 6,
            "time": 0,
            "value": 0.5039370078740157
          }
        ],
        "7": [
          {
            "number": 7,
            "time": 0,
            "value": 0.8818897637795275
          },
          {
            "number": 7,
            "time": 0,
            "value": 0.8818897637795275
          },
          {
            "number": 7,
            "time": 0,
            "value": 0.07086614173228346
          },
          {
            "number": 7,
            "time": 0,
            "value": 0.07086614173228346
          },
          {
            "number": 7,
            "time": 0.110294,
            "value": 0.13385826771653545
          },
          {
            "number": 7,
            "time": 0.110294,
            "value": 0.13385826771653545
          },
          {
            "number": 7,
            "time": 0.220588,
            "value": 0.2047244094488189
          },
          {
            "number": 7,
            "time": 0.220588,
            "value": 0.2047244094488189
          },
          {
            "number": 7,
            "time": 0.330882,
            "value": 0.2677165354330709
          },
          {
            "number": 7,
            "time": 0.330882,
            "value": 0.2677165354330709
          },
          {
            "number": 7,
            "time": 0.441176,
            "value": 0.33858267716535434
          },
          {
            "number": 7,
            "time": 0.441176,
            "value": 0.33858267716535434
          },
          {
            "number": 7,
            "time": 0.55147,
            "value": 0.4094488188976378
          },
          {
            "number": 7,
            "time": 0.55147,
            "value": 0.4094488188976378
          },
          {
            "number": 7,
            "time": 0.661764,
            "value": 0.47244094488188976
          },
          {
            "number": 7,
            "time": 0.661764,
            "value": 0.47244094488188976
          },
          {
            "number": 7,
            "time": 0.772058,
            "value": 0.5433070866141733
          },
          {
            "number": 7,
            "time": 0.772058,
            "value": 0.5433070866141733
          },
          {
            "number": 7,
            "time": 0.882352,
            "value": 0.6141732283464567
          },
          {
            "number": 7,
            "time": 0.882352,
            "value": 0.6141732283464567
          },
          {
            "number": 7,
            "time": 0.992646,
            "value": 0.6771653543307087
          },
          {
            "number": 7,
            "time": 0.992646,
            "value": 0.6771653543307087
          },
          {
            "number": 7,
            "time": 1.10294,
            "value": 0.7480314960629921
          },
          {
            "number": 7,
            "time": 1.10294,
            "value": 0.7480314960629921
          },
          {
            "number": 7,
            "time": 1.213234,
            "value": 0.8110236220472441
          },
          {
            "number": 7,
            "time": 1.213234,
            "value": 0.8110236220472441
          },
          {
            "number": 7,
            "time": 1.323528,
            "value": 0.8818897637795275
          },
          {
            "number": 7,
            "time": 1.323528,
            "value": 0.8818897637795275
          },
          {
            "number": 7,
            "time": 26.47055999999995,
            "value": 0.8582677165354331
          },
          {
            "number": 7,
            "time": 26.47055999999995,
            "value": 0.8582677165354331
          },
          {
            "number": 7,
            "time": 26.58085399999995,
            "value": 0.8267716535433071
          },
          {
            "number": 7,
            "time": 26.58085399999995,
            "value": 0.8267716535433071
          },
          {
            "number": 7,
            "time": 26.69114799999995,
            "value": 0.8031496062992126
          },
          {
            "number": 7,
            "time": 26.69114799999995,
            "value": 0.8031496062992126
          },
          {
            "number": 7,
            "time": 26.80144199999995,
            "value": 0.7716535433070866
          },
          {
            "number": 7,
            "time": 26.80144199999995,
            "value": 0.7716535433070866
          },
          {
            "number": 7,
            "time": 26.911735999999948,
            "value": 0.7480314960629921
          },
          {
            "number": 7,
            "time": 26.911735999999948,
            "value": 0.7480314960629921
          },
          {
            "number": 7,
            "time": 27.022029999999948,
            "value": 0.7244094488188977
          },
          {
            "number": 7,
            "time": 27.022029999999948,
            "value": 0.7244094488188977
          },
          {
            "number": 7,
            "time": 27.132323999999947,
            "value": 0.6929133858267716
          },
          {
            "number": 7,
            "time": 27.132323999999947,
            "value": 0.6929133858267716
          },
          {
            "number": 7,
            "time": 27.242617999999947,
            "value": 0.6692913385826772
          },
          {
            "number": 7,
            "time": 27.242617999999947,
            "value": 0.6692913385826772
          },
          {
            "number": 7,
            "time": 27.352911999999947,
            "value": 0.6377952755905512
          },
          {
            "number": 7,
            "time": 27.352911999999947,
            "value": 0.6377952755905512
          },
          {
            "number": 7,
            "time": 27.463205999999946,
            "value": 0.6141732283464567
          },
          {
            "number": 7,
            "time": 27.463205999999946,
            "value": 0.6141732283464567
          },
          {
            "number": 7,
            "time": 27.573499999999946,
            "value": 0.5905511811023622
          },
          {
            "number": 7,
            "time": 27.573499999999946,
            "value": 0.5905511811023622
          },
          {
            "number": 7,
            "time": 27.683793999999946,
            "value": 0.5590551181102362
          },
          {
            "number": 7,
            "time": 27.683793999999946,
            "value": 0.5590551181102362
          },
          {
            "number": 7,
            "time": 27.794087999999945,
            "value": 0.5354330708661418
          },
          {
            "number": 7,
            "time": 27.794087999999945,
            "value": 0.5354330708661418
          },
          {
            "number": 7,
            "time": 27.904381999999945,
            "value": 0.5039370078740157
          },
          {
            "number": 7,
            "time": 27.904381999999945,
            "value": 0.5039370078740157
          },
          {
            "number": 7,
            "time": 28.014675999999945,
            "value": 0.48031496062992124
          },
          {
            "number": 7,
            "time": 28.014675999999945,
            "value": 0.48031496062992124
          },
          {
            "number": 7,
            "time": 28.124969999999944,
            "value": 0.4566929133858268
          },
          {
            "number": 7,
            "time": 28.124969999999944,
            "value": 0.4566929133858268
          },
          {
            "number": 7,
            "time": 28.235263999999944,
            "value": 0.4251968503937008
          },
          {
            "number": 7,
            "time": 28.235263999999944,
            "value": 0.4251968503937008
          },
          {
            "number": 7,
            "time": 28.345557999999944,
            "value": 0.4015748031496063
          },
          {
            "number": 7,
            "time": 28.345557999999944,
            "value": 0.4015748031496063
          },
          {
            "number": 7,
            "time": 28.455851999999943,
            "value": 0.3779527559055118
          },
          {
            "number": 7,
            "time": 28.455851999999943,
            "value": 0.3779527559055118
          },
          {
            "number": 7,
            "time": 28.566145999999943,
            "value": 0.3464566929133858
          },
          {
            "number": 7,
            "time": 28.566145999999943,
            "value": 0.3464566929133858
          },
          {
            "number": 7,
            "time": 28.676439999999943,
            "value": 0.3228346456692913
          },
          {
            "number": 7,
            "time": 28.676439999999943,
            "value": 0.3228346456692913
          },
          {
            "number": 7,
            "time": 28.786733999999942,
            "value": 0.29133858267716534
          },
          {
            "number": 7,
            "time": 28.786733999999942,
            "value": 0.29133858267716534
          },
          {
            "number": 7,
            "time": 28.897027999999942,
            "value": 0.2677165354330709
          },
          {
            "number": 7,
            "time": 28.897027999999942,
            "value": 0.2677165354330709
          },
          {
            "number": 7,
            "time": 29.00732199999994,
            "value": 0.2440944881889764
          },
          {
            "number": 7,
            "time": 29.00732199999994,
            "value": 0.2440944881889764
          },
          {
            "number": 7,
            "time": 29.11761599999994,
            "value": 0.2125984251968504
          },
          {
            "number": 7,
            "time": 29.11761599999994,
            "value": 0.2125984251968504
          },
          {
            "number": 7,
            "time": 29.22790999999994,
            "value": 0.1889763779527559
          },
          {
            "number": 7,
            "time": 29.22790999999994,
            "value": 0.1889763779527559
          },
          {
            "number": 7,
            "time": 29.33820399999994,
            "value": 0.15748031496062992
          },
          {
            "number": 7,
            "time": 29.33820399999994,
            "value": 0.15748031496062992
          },
          {
            "number": 7,
            "time": 29.44849799999994,
            "value": 0.13385826771653545
          },
          {
            "number": 7,
            "time": 29.44849799999994,
            "value": 0.13385826771653545
          },
          {
            "number": 7,
            "time": 29.55879199999994,
            "value": 0.11023622047244094
          },
          {
            "number": 7,
            "time": 29.55879199999994,
            "value": 0.11023622047244094
          },
          {
            "number": 7,
            "time": 29.66908599999994,
            "value": 0.07874015748031496
          },
          {
            "number": 7,
            "time": 29.66908599999994,
            "value": 0.07874015748031496
          },
          {
            "number": 7,
            "time": 29.77937999999994,
            "value": 0.05511811023622047
          },
          {
            "number": 7,
            "time": 29.77937999999994,
            "value": 0.05511811023622047
          },
          {
            "number": 7,
            "time": 29.88967399999994,
            "value": 0.023622047244094488
          },
          {
            "number": 7,
            "time": 29.88967399999994,
            "value": 0.023622047244094488
          },
          {
            "number": 7,
            "time": 29.99996799999994,
            "value": 0
          },
          {
            "number": 7,
            "time": 29.99996799999994,
            "value": 0
          },
          {
            "number": 7,
            "time": 29.99996799999994,
            "value": 0.8818897637795275
          },
          {
            "number": 7,
            "time": 29.99996799999994,
            "value": 0.8818897637795275
          },
          {
            "number": 7,
            "time": 100.58812800000096,
            "value": 0.8582677165354331
          },
          {
            "number": 7,
            "time": 100.58812800000096,
            "value": 0.8582677165354331
          },
          {
            "number": 7,
            "time": 100.69842200000096,
            "value": 0.8267716535433071
          },
          {
            "number": 7,
            "time": 100.69842200000096,
            "value": 0.8267716535433071
          },
          {
            "number": 7,
            "time": 100.80871600000096,
            "value": 0.8031496062992126
          },
          {
            "number": 7,
            "time": 100.80871600000096,
            "value": 0.8031496062992126
          },
          {
            "number": 7,
            "time": 100.91901000000095,
            "value": 0.7716535433070866
          },
          {
            "number": 7,
            "time": 100.91901000000095,
            "value": 0.7716535433070866
          },
          {
            "number": 7,
            "time": 101.02930400000095,
            "value": 0.7480314960629921
          },
          {
            "number": 7,
            "time": 101.02930400000095,
            "value": 0.7480314960629921
          },
          {
            "number": 7,
            "time": 101.13959800000094,
            "value": 0.7244094488188977
          },
          {
            "number": 7,
            "time": 101.13959800000094,
            "value": 0.7244094488188977
          },
          {
            "number": 7,
            "time": 101.24989200000094,
            "value": 0.6929133858267716
          },
          {
            "number": 7,
            "time": 101.24989200000094,
            "value": 0.6929133858267716
          },
          {
            "number": 7,
            "time": 101.36018600000094,
            "value": 0.6692913385826772
          },
          {
            "number": 7,
            "time": 101.36018600000094,
            "value": 0.6692913385826772
          },
          {
            "number": 7,
            "time": 101.47048000000093,
            "value": 0.6377952755905512
          },
          {
            "number": 7,
            "time": 101.47048000000093,
            "value": 0.6377952755905512
          },
          {
            "number": 7,
            "time": 101.58077400000093,
            "value": 0.6141732283464567
          },
          {
            "number": 7,
            "time": 101.58077400000093,
            "value": 0.6141732283464567
          },
          {
            "number": 7,
            "time": 101.69106800000093,
            "value": 0.5905511811023622
          },
          {
            "number": 7,
            "time": 101.69106800000093,
            "value": 0.5905511811023622
          },
          {
            "number": 7,
            "time": 101.80136200000092,
            "value": 0.5590551181102362
          },
          {
            "number": 7,
            "time": 101.80136200000092,
            "value": 0.5590551181102362
          },
          {
            "number": 7,
            "time": 101.91165600000092,
            "value": 0.5354330708661418
          },
          {
            "number": 7,
            "time": 101.91165600000092,
            "value": 0.5354330708661418
          },
          {
            "number": 7,
            "time": 102.02195000000091,
            "value": 0.5039370078740157
          },
          {
            "number": 7,
            "time": 102.02195000000091,
            "value": 0.5039370078740157
          },
          {
            "number": 7,
            "time": 102.13224400000091,
            "value": 0.48031496062992124
          },
          {
            "number": 7,
            "time": 102.13224400000091,
            "value": 0.48031496062992124
          },
          {
            "number": 7,
            "time": 102.2425380000009,
            "value": 0.4566929133858268
          },
          {
            "number": 7,
            "time": 102.2425380000009,
            "value": 0.4566929133858268
          },
          {
            "number": 7,
            "time": 102.3528320000009,
            "value": 0.4251968503937008
          },
          {
            "number": 7,
            "time": 102.3528320000009,
            "value": 0.4251968503937008
          },
          {
            "number": 7,
            "time": 102.4631260000009,
            "value": 0.4015748031496063
          },
          {
            "number": 7,
            "time": 102.4631260000009,
            "value": 0.4015748031496063
          },
          {
            "number": 7,
            "time": 102.5734200000009,
            "value": 0.3779527559055118
          },
          {
            "number": 7,
            "time": 102.5734200000009,
            "value": 0.3779527559055118
          },
          {
            "number": 7,
            "time": 102.68371400000089,
            "value": 0.3464566929133858
          },
          {
            "number": 7,
            "time": 102.68371400000089,
            "value": 0.3464566929133858
          },
          {
            "number": 7,
            "time": 102.79400800000089,
            "value": 0.3228346456692913
          },
          {
            "number": 7,
            "time": 102.79400800000089,
            "value": 0.3228346456692913
          },
          {
            "number": 7,
            "time": 102.90430200000088,
            "value": 0.29133858267716534
          },
          {
            "number": 7,
            "time": 102.90430200000088,
            "value": 0.29133858267716534
          },
          {
            "number": 7,
            "time": 103.01459600000088,
            "value": 0.2677165354330709
          },
          {
            "number": 7,
            "time": 103.01459600000088,
            "value": 0.2677165354330709
          },
          {
            "number": 7,
            "time": 103.12489000000087,
            "value": 0.2440944881889764
          },
          {
            "number": 7,
            "time": 103.12489000000087,
            "value": 0.2440944881889764
          },
          {
            "number": 7,
            "time": 103.23518400000087,
            "value": 0.2125984251968504
          },
          {
            "number": 7,
            "time": 103.23518400000087,
            "value": 0.2125984251968504
          },
          {
            "number": 7,
            "time": 103.34547800000087,
            "value": 0.1889763779527559
          },
          {
            "number": 7,
            "time": 103.34547800000087,
            "value": 0.1889763779527559
          },
          {
            "number": 7,
            "time": 103.45577200000086,
            "value": 0.15748031496062992
          },
          {
            "number": 7,
            "time": 103.45577200000086,
            "value": 0.15748031496062992
          },
          {
            "number": 7,
            "time": 103.56606600000086,
            "value": 0.13385826771653545
          },
          {
            "number": 7,
            "time": 103.56606600000086,
            "value": 0.13385826771653545
          },
          {
            "number": 7,
            "time": 103.67636000000086,
            "value": 0.11023622047244094
          },
          {
            "number": 7,
            "time": 103.67636000000086,
            "value": 0.11023622047244094
          },
          {
            "number": 7,
            "time": 103.78665400000085,
            "value": 0.07874015748031496
          },
          {
            "number": 7,
            "time": 103.78665400000085,
            "value": 0.07874015748031496
          },
          {
            "number": 7,
            "time": 103.89694800000085,
            "value": 0.05511811023622047
          },
          {
            "number": 7,
            "time": 103.89694800000085,
            "value": 0.05511811023622047
          },
          {
            "number": 7,
            "time": 104.00724200000084,
            "value": 0.023622047244094488
          },
          {
            "number": 7,
            "time": 104.00724200000084,
            "value": 0.023622047244094488
          },
          {
            "number": 7,
            "time": 104.11753600000084,
            "value": 0
          },
          {
            "number": 7,
            "time": 104.11753600000084,
            "value": 0
          },
          {
            "number": 7,
            "time": 104.11753600000084,
            "value": 0.8818897637795275
          },
          {
            "number": 7,
            "time": 104.11753600000084,
            "value": 0.8818897637795275
          }
        ],
        "10": [
          {
            "number": 10,
            "time": 0,
            "value": 0.6929133858267716
          },
          {
            "number": 10,
            "time": 0,
            "value": 0.6929133858267716
          }
        ],
        "38": [
          {
            "number": 38,
            "time": 0,
            "value": 0
          },
          {
            "number": 38,
            "time": 0,
            "value": 0
          }
        ],
        "91": [
          {
            "number": 91,
            "time": 0,
            "value": 0
          },
          {
            "number": 91,
            "time": 0,
            "value": 0
          }
        ],
        "92": [
          {
            "number": 92,
            "time": 0,
            "value": 0
          },
          {
            "number": 92,
            "time": 0,
            "value": 0
          }
        ],
        "93": [
          {
            "number": 93,
            "time": 0,
            "value": 0
          },
          {
            "number": 93,
            "time": 0,
            "value": 0
          }
        ],
        "95": [
          {
            "number": 95,
            "time": 0,
            "value": 0
          },
          {
            "number": 95,
            "time": 0,
            "value": 0
          }
        ],
        "100": [
          {
            "number": 100,
            "time": 0,
            "value": 0
          },
          {
            "number": 100,
            "time": 0,
            "value": 0.007874015748031496
          },
          {
            "number": 100,
            "time": 0,
            "value": 1
          },
          {
            "number": 100,
            "time": 0,
            "value": 0
          },
          {
            "number": 100,
            "time": 0,
            "value": 0.007874015748031496
          },
          {
            "number": 100,
            "time": 0,
            "value": 1
          },
          {
            "number": 100,
            "time": 0,
            "value": 0.015748031496062992
          },
          {
            "number": 100,
            "time": 0,
            "value": 1
          },
          {
            "number": 100,
            "time": 0,
            "value": 0.015748031496062992
          },
          {
            "number": 100,
            "time": 0,
            "value": 1
          }
        ],
        "101": [
          {
            "number": 101,
            "time": 0,
            "value": 0
          },
          {
            "number": 101,
            "time": 0,
            "value": 0
          },
          {
            "number": 101,
            "time": 0,
            "value": 1
          },
          {
            "number": 101,
            "time": 0,
            "value": 0
          },
          {
            "number": 101,
            "time": 0,
            "value": 0
          },
          {
            "number": 101,
            "time": 0,
            "value": 1
          },
          {
            "number": 101,
            "time": 0,
            "value": 0
          },
          {
            "number": 101,
            "time": 0,
            "value": 1
          },
          {
            "number": 101,
            "time": 0,
            "value": 0
          },
          {
            "number": 101,
            "time": 0,
            "value": 1
          }
        ]
      }
    },
    {
      "startTime": 54.705824,
      "duration": 181.7645119999988,
      "length": 1408,
      "id": 2,
      "name": "Guitar 2",
      "instrumentNumber": 29,
      "instrument": "overdriven guitar",
      "instrumentFamily": "guitar",
      "channelNumber": 2,
      "isPercussion": false,
      "notes": [
        {
          "name": "E4",
          "midi": 64,
          "time": 54.705824,
          "velocity": 0.7480314960629921,
          "duration": 0.018382333333335055
        },
        {
          "name": "B3",
          "midi": 59,
          "time": 54.705824,
          "velocity": 0.7480314960629921,
          "duration": 0.018382333333335055
        },
        {
          "name": "G3",
          "midi": 55,
          "time": 54.705824,
          "velocity": 0.7480314960629921,
          "duration": 0.018382333333335055
        },
        {
          "name": "D3",
          "midi": 50,
          "time": 54.705824,
          "velocity": 0.7480314960629921,
          "duration": 0.018382333333335055
        },
        {
          "name": "A2",
          "midi": 45,
          "time": 54.705824,
          "velocity": 0.7480314960629921,
          "duration": 0.018382333333335055
        },
        {
          "name": "F#2",
          "midi": 42,
          "time": 54.705824,
          "velocity": 0.7480314960629921,
          "duration": 0.22058799999999934
        },
        {
          "name": "E4",
          "midi": 64,
          "time": 54.926412,
          "velocity": 0.7480314960629921,
          "duration": 0.018382333333335055
        },
        {
          "name": "B3",
          "midi": 59,
          "time": 54.926412,
          "velocity": 0.7480314960629921,
          "duration": 0.018382333333335055
        },
        {
          "name": "G3",
          "midi": 55,
          "time": 54.926412,
          "velocity": 0.7480314960629921,
          "duration": 0.018382333333335055
        },
        {
          "name": "D3",
          "midi": 50,
          "time": 54.926412,
          "velocity": 0.7480314960629921,
          "duration": 0.018382333333335055
        },
        {
          "name": "A2",
          "midi": 45,
          "time": 54.926412,
          "velocity": 0.7480314960629921,
          "duration": 0.018382333333335055
        },
        {
          "name": "F#2",
          "midi": 42,
          "time": 54.926412,
          "velocity": 0.7480314960629921,
          "duration": 0.22058799999999934
        },
        {
          "name": "E4",
          "midi": 64,
          "time": 55.147,
          "velocity": 0.7480314960629921,
          "duration": 0.018382333333335055
        },
        {
          "name": "B3",
          "midi": 59,
          "time": 55.147,
          "velocity": 0.7480314960629921,
          "duration": 0.018382333333335055
        },
        {
          "name": "G3",
          "midi": 55,
          "time": 55.147,
          "velocity": 0.7480314960629921,
          "duration": 0.018382333333335055
        },
        {
          "name": "D3",
          "midi": 50,
          "time": 55.147,
          "velocity": 0.7480314960629921,
          "duration": 0.018382333333335055
        },
        {
          "name": "A2",
          "midi": 45,
          "time": 55.147,
          "velocity": 0.7480314960629921,
          "duration": 0.018382333333335055
        },
        {
          "name": "F#2",
          "midi": 42,
          "time": 55.147,
          "velocity": 0.7480314960629921,
          "duration": 0.22058799999999934
        },
        {
          "name": "E4",
          "midi": 64,
          "time": 55.367588,
          "velocity": 0.7480314960629921,
          "duration": 0.018382333333335055
        },
        {
          "name": "B3",
          "midi": 59,
          "time": 55.367588,
          "velocity": 0.7480314960629921,
          "duration": 0.018382333333335055
        },
        {
          "name": "G3",
          "midi": 55,
          "time": 55.367588,
          "velocity": 0.7480314960629921,
          "duration": 0.018382333333335055
        },
        {
          "name": "D3",
          "midi": 50,
          "time": 55.367588,
          "velocity": 0.7480314960629921,
          "duration": 0.018382333333335055
        },
        {
          "name": "A2",
          "midi": 45,
          "time": 55.367588,
          "velocity": 0.7480314960629921,
          "duration": 0.018382333333335055
        },
        {
          "name": "F#2",
          "midi": 42,
          "time": 55.367588,
          "velocity": 0.7480314960629921,
          "duration": 0.22058799999999934
        },
        {
          "name": "E4",
          "midi": 64,
          "time": 55.588176,
          "velocity": 0.7480314960629921,
          "duration": 0.018382333333335055
        },
        {
          "name": "B3",
          "midi": 59,
          "time": 55.588176,
          "velocity": 0.7480314960629921,
          "duration": 0.018382333333335055
        },
        {
          "name": "G3",
          "midi": 55,
          "time": 55.588176,
          "velocity": 0.7480314960629921,
          "duration": 0.018382333333335055
        },
        {
          "name": "D3",
          "midi": 50,
          "time": 55.588176,
          "velocity": 0.7480314960629921,
          "duration": 0.018382333333335055
        },
        {
          "name": "C#3",
          "midi": 49,
          "time": 55.588176,
          "velocity": 0.7480314960629921,
          "duration": 0.22058799999999934
        },
        {
          "name": "F#2",
          "midi": 42,
          "time": 55.588176,
          "velocity": 0.7480314960629921,
          "duration": 0.22058799999999934
        },
        {
          "name": "E4",
          "midi": 64,
          "time": 55.808764,
          "velocity": 0.7480314960629921,
          "duration": 0.018382333333335055
        },
        {
          "name": "B3",
          "midi": 59,
          "time": 55.808764,
          "velocity": 0.7480314960629921,
          "duration": 0.018382333333335055
        },
        {
          "name": "G3",
          "midi": 55,
          "time": 55.808764,
          "velocity": 0.7480314960629921,
          "duration": 0.018382333333335055
        },
        {
          "name": "D3",
          "midi": 50,
          "time": 55.808764,
          "velocity": 0.7480314960629921,
          "duration": 0.018382333333335055
        },
        {
          "name": "C#3",
          "midi": 49,
          "time": 55.808764,
          "velocity": 0.7480314960629921,
          "duration": 0.22058799999999934
        },
        {
          "name": "F#2",
          "midi": 42,
          "time": 55.808764,
          "velocity": 0.7480314960629921,
          "duration": 0.22058799999999934
        },
        {
          "name": "E4",
          "midi": 64,
          "time": 56.029351999999996,
          "velocity": 0.7480314960629921,
          "duration": 0.018382333333335055
        },
        {
          "name": "B3",
          "midi": 59,
          "time": 56.029351999999996,
          "velocity": 0.7480314960629921,
          "duration": 0.018382333333335055
        },
        {
          "name": "G3",
          "midi": 55,
          "time": 56.029351999999996,
          "velocity": 0.7480314960629921,
          "duration": 0.018382333333335055
        },
        {
          "name": "D3",
          "midi": 50,
          "time": 56.029351999999996,
          "velocity": 0.7480314960629921,
          "duration": 0.018382333333335055
        },
        {
          "name": "C#3",
          "midi": 49,
          "time": 56.029351999999996,
          "velocity": 0.7480314960629921,
          "duration": 0.22058799999999934
        },
        {
          "name": "F#2",
          "midi": 42,
          "time": 56.029351999999996,
          "velocity": 0.7480314960629921,
          "duration": 0.22058799999999934
        },
        {
          "name": "E4",
          "midi": 64,
          "time": 56.249939999999995,
          "velocity": 0.7480314960629921,
          "duration": 0.018382333333335055
        },
        {
          "name": "B3",
          "midi": 59,
          "time": 56.249939999999995,
          "velocity": 0.7480314960629921,
          "duration": 0.018382333333335055
        },
        {
          "name": "G3",
          "midi": 55,
          "time": 56.249939999999995,
          "velocity": 0.7480314960629921,
          "duration": 0.018382333333335055
        },
        {
          "name": "D3",
          "midi": 50,
          "time": 56.249939999999995,
          "velocity": 0.7480314960629921,
          "duration": 0.018382333333335055
        },
        {
          "name": "C#3",
          "midi": 49,
          "time": 56.249939999999995,
          "velocity": 0.7480314960629921,
          "duration": 0.22058799999999934
        },
        {
          "name": "F#2",
          "midi": 42,
          "time": 56.249939999999995,
          "velocity": 0.7480314960629921,
          "duration": 0.22058799999999934
        },
        {
          "name": "E4",
          "midi": 64,
          "time": 56.470527999999995,
          "velocity": 0.7480314960629921,
          "duration": 0.018382333333335055
        },
        {
          "name": "C#4",
          "midi": 61,
          "time": 56.470527999999995,
          "velocity": 0.7480314960629921,
          "duration": 0.22058799999999934
        },
        {
          "name": "A#3",
          "midi": 58,
          "time": 56.470527999999995,
          "velocity": 0.7480314960629921,
          "duration": 0.22058799999999934
        },
        {
          "name": "F#3",
          "midi": 54,
          "time": 56.470527999999995,
          "velocity": 0.7480314960629921,
          "duration": 0.22058799999999934
        },
        {
          "name": "C#3",
          "midi": 49,
          "time": 56.470527999999995,
          "velocity": 0.7480314960629921,
          "duration": 0.22058799999999934
        },
        {
          "name": "F#2",
          "midi": 42,
          "time": 56.470527999999995,
          "velocity": 0.7480314960629921,
          "duration": 0.22058799999999934
        },
        {
          "name": "E4",
          "midi": 64,
          "time": 56.691115999999994,
          "velocity": 0.7480314960629921,
          "duration": 0.018382333333335055
        },
        {
          "name": "C#4",
          "midi": 61,
          "time": 56.691115999999994,
          "velocity": 0.7480314960629921,
          "duration": 0.22058799999999934
        },
        {
          "name": "A#3",
          "midi": 58,
          "time": 56.691115999999994,
          "velocity": 0.7480314960629921,
          "duration": 0.22058799999999934
        },
        {
          "name": "F#3",
          "midi": 54,
          "time": 56.691115999999994,
          "velocity": 0.7480314960629921,
          "duration": 0.22058799999999934
        },
        {
          "name": "C#3",
          "midi": 49,
          "time": 56.691115999999994,
          "velocity": 0.7480314960629921,
          "duration": 0.22058799999999934
        },
        {
          "name": "F#2",
          "midi": 42,
          "time": 56.691115999999994,
          "velocity": 0.7480314960629921,
          "duration": 0.22058799999999934
        },
        {
          "name": "E4",
          "midi": 64,
          "time": 56.91170399999999,
          "velocity": 0.7480314960629921,
          "duration": 0.018382333333335055
        },
        {
          "name": "C#4",
          "midi": 61,
          "time": 56.91170399999999,
          "velocity": 0.7480314960629921,
          "duration": 0.22058799999999934
        },
        {
          "name": "A#3",
          "midi": 58,
          "time": 56.91170399999999,
          "velocity": 0.7480314960629921,
          "duration": 0.22058799999999934
        },
        {
          "name": "F#3",
          "midi": 54,
          "time": 56.91170399999999,
          "velocity": 0.7480314960629921,
          "duration": 0.22058799999999934
        },
        {
          "name": "C#3",
          "midi": 49,
          "time": 56.91170399999999,
          "velocity": 0.7480314960629921,
          "duration": 0.22058799999999934
        },
        {
          "name": "F#2",
          "midi": 42,
          "time": 56.91170399999999,
          "velocity": 0.7480314960629921,
          "duration": 0.22058799999999934
        },
        {
          "name": "E4",
          "midi": 64,
          "time": 57.13229199999999,
          "velocity": 0.7480314960629921,
          "duration": 0.018382333333335055
        },
        {
          "name": "C#4",
          "midi": 61,
          "time": 57.13229199999999,
          "velocity": 0.7480314960629921,
          "duration": 0.22058799999999934
        },
        {
          "name": "A#3",
          "midi": 58,
          "time": 57.13229199999999,
          "velocity": 0.7480314960629921,
          "duration": 0.22058799999999934
        },
        {
          "name": "F#3",
          "midi": 54,
          "time": 57.13229199999999,
          "velocity": 0.7480314960629921,
          "duration": 0.22058799999999934
        },
        {
          "name": "C#3",
          "midi": 49,
          "time": 57.13229199999999,
          "velocity": 0.7480314960629921,
          "duration": 0.22058799999999934
        },
        {
          "name": "F#2",
          "midi": 42,
          "time": 57.13229199999999,
          "velocity": 0.7480314960629921,
          "duration": 0.22058799999999934
        },
        {
          "name": "E4",
          "midi": 64,
          "time": 57.35287999999999,
          "velocity": 0.7480314960629921,
          "duration": 0.018382333333335055
        },
        {
          "name": "C#4",
          "midi": 61,
          "time": 57.35287999999999,
          "velocity": 0.7480314960629921,
          "duration": 0.22058799999999934
        },
        {
          "name": "A#3",
          "midi": 58,
          "time": 57.35287999999999,
          "velocity": 0.7480314960629921,
          "duration": 0.22058799999999934
        },
        {
          "name": "F#3",
          "midi": 54,
          "time": 57.35287999999999,
          "velocity": 0.7480314960629921,
          "duration": 0.22058799999999934
        },
        {
          "name": "C#3",
          "midi": 49,
          "time": 57.35287999999999,
          "velocity": 0.7480314960629921,
          "duration": 0.22058799999999934
        },
        {
          "name": "F#2",
          "midi": 42,
          "time": 57.35287999999999,
          "velocity": 0.7480314960629921,
          "duration": 0.22058799999999934
        },
        {
          "name": "E4",
          "midi": 64,
          "time": 57.57346799999999,
          "velocity": 0.7480314960629921,
          "duration": 0.018382333333335055
        },
        {
          "name": "C#4",
          "midi": 61,
          "time": 57.57346799999999,
          "velocity": 0.7480314960629921,
          "duration": 0.22058799999999934
        },
        {
          "name": "A#3",
          "midi": 58,
          "time": 57.57346799999999,
          "velocity": 0.7480314960629921,
          "duration": 0.22058799999999934
        },
        {
          "name": "F#3",
          "midi": 54,
          "time": 57.57346799999999,
          "velocity": 0.7480314960629921,
          "duration": 0.22058799999999934
        },
        {
          "name": "C#3",
          "midi": 49,
          "time": 57.57346799999999,
          "velocity": 0.7480314960629921,
          "duration": 0.22058799999999934
        },
        {
          "name": "F#2",
          "midi": 42,
          "time": 57.57346799999999,
          "velocity": 0.7480314960629921,
          "duration": 0.22058799999999934
        },
        {
          "name": "E4",
          "midi": 64,
          "time": 57.79405599999999,
          "velocity": 0.7480314960629921,
          "duration": 0.018382333333335055
        },
        {
          "name": "C#4",
          "midi": 61,
          "time": 57.79405599999999,
          "velocity": 0.7480314960629921,
          "duration": 0.22058799999999934
        },
        {
          "name": "A#3",
          "midi": 58,
          "time": 57.79405599999999,
          "velocity": 0.7480314960629921,
          "duration": 0.22058799999999934
        },
        {
          "name": "F#3",
          "midi": 54,
          "time": 57.79405599999999,
          "velocity": 0.7480314960629921,
          "duration": 0.22058799999999934
        },
        {
          "name": "C#3",
          "midi": 49,
          "time": 57.79405599999999,
          "velocity": 0.7480314960629921,
          "duration": 0.22058799999999934
        },
        {
          "name": "F#2",
          "midi": 42,
          "time": 57.79405599999999,
          "velocity": 0.7480314960629921,
          "duration": 0.22058799999999934
        },
        {
          "name": "G3",
          "midi": 55,
          "time": 58.01464399999999,
          "velocity": 0.7480314960629921,
          "duration": 0.22058799999999934
        },
        {
          "name": "D3",
          "midi": 50,
          "time": 58.01464399999999,
          "velocity": 0.7480314960629921,
          "duration": 0.22058799999999934
        },
        {
          "name": "A2",
          "midi": 45,
          "time": 58.01464399999999,
          "velocity": 0.7480314960629921,
          "duration": 0.22058799999999934
        },
        {
          "name": "E2",
          "midi": 40,
          "time": 58.01464399999999,
          "velocity": 0.7480314960629921,
          "duration": 0.22058799999999934
        },
        {
          "name": "B3",
          "midi": 59,
          "time": 58.23523199999999,
          "velocity": 0.7480314960629921,
          "duration": 0.22058799999999934
        },
        {
          "name": "B3",
          "midi": 59,
          "time": 58.23523199999999,
          "velocity": 0.7480314960629921,
          "duration": 0.22058799999999934
        },
        {
          "name": "F#3",
          "midi": 54,
          "time": 58.23523199999999,
          "velocity": 0.7480314960629921,
          "duration": 0.018382333333335055
        },
        {
          "name": "B2",
          "midi": 47,
          "time": 58.23523199999999,
          "velocity": 0.7480314960629921,
          "duration": 0.22058799999999934
        },
        {
          "name": "B3",
          "midi": 59,
          "time": 58.45581999999999,
          "velocity": 0.7480314960629921,
          "duration": 0.22058799999999934
        },
        {
          "name": "B3",
          "midi": 59,
          "time": 58.45581999999999,
          "velocity": 0.7480314960629921,
          "duration": 0.22058799999999934
        },
        {
          "name": "F#3",
          "midi": 54,
          "time": 58.45581999999999,
          "velocity": 0.7480314960629921,
          "duration": 0.018382333333335055
        },
        {
          "name": "B2",
          "midi": 47,
          "time": 58.45581999999999,
          "velocity": 0.7480314960629921,
          "duration": 0.22058799999999934
        },
        {
          "name": "B3",
          "midi": 59,
          "time": 58.67640799999999,
          "velocity": 0.7480314960629921,
          "duration": 0.22058799999999934
        },
        {
          "name": "B3",
          "midi": 59,
          "time": 58.67640799999999,
          "velocity": 0.7480314960629921,
          "duration": 0.22058799999999934
        },
        {
          "name": "F#3",
          "midi": 54,
          "time": 58.67640799999999,
          "velocity": 0.7480314960629921,
          "duration": 0.018382333333335055
        },
        {
          "name": "B2",
          "midi": 47,
          "time": 58.67640799999999,
          "velocity": 0.7480314960629921,
          "duration": 0.22058799999999934
        },
        {
          "name": "B3",
          "midi": 59,
          "time": 58.89699599999999,
          "velocity": 0.7480314960629921,
          "duration": 0.22058799999999934
        },
        {
          "name": "B3",
          "midi": 59,
          "time": 58.89699599999999,
          "velocity": 0.7480314960629921,
          "duration": 0.22058799999999934
        },
        {
          "name": "F#3",
          "midi": 54,
          "time": 58.89699599999999,
          "velocity": 0.7480314960629921,
          "duration": 0.018382333333335055
        },
        {
          "name": "B2",
          "midi": 47,
          "time": 58.89699599999999,
          "velocity": 0.7480314960629921,
          "duration": 0.22058799999999934
        },
        {
          "name": "B3",
          "midi": 59,
          "time": 59.11758399999999,
          "velocity": 0.7480314960629921,
          "duration": 0.22058799999999934
        },
        {
          "name": "B3",
          "midi": 59,
          "time": 59.11758399999999,
          "velocity": 0.7480314960629921,
          "duration": 0.22058799999999934
        },
        {
          "name": "F#3",
          "midi": 54,
          "time": 59.11758399999999,
          "velocity": 0.7480314960629921,
          "duration": 0.018382333333335055
        },
        {
          "name": "B2",
          "midi": 47,
          "time": 59.11758399999999,
          "velocity": 0.7480314960629921,
          "duration": 0.22058799999999934
        },
        {
          "name": "B3",
          "midi": 59,
          "time": 59.338171999999986,
          "velocity": 0.7480314960629921,
          "duration": 0.22058799999999934
        },
        {
          "name": "B3",
          "midi": 59,
          "time": 59.338171999999986,
          "velocity": 0.7480314960629921,
          "duration": 0.22058799999999934
        },
        {
          "name": "F#3",
          "midi": 54,
          "time": 59.338171999999986,
          "velocity": 0.7480314960629921,
          "duration": 0.018382333333335055
        },
        {
          "name": "B2",
          "midi": 47,
          "time": 59.338171999999986,
          "velocity": 0.7480314960629921,
          "duration": 0.22058799999999934
        },
        {
          "name": "B3",
          "midi": 59,
          "time": 59.558759999999985,
          "velocity": 0.7480314960629921,
          "duration": 0.22058799999999934
        },
        {
          "name": "B3",
          "midi": 59,
          "time": 59.558759999999985,
          "velocity": 0.7480314960629921,
          "duration": 0.22058799999999934
        },
        {
          "name": "F#3",
          "midi": 54,
          "time": 59.558759999999985,
          "velocity": 0.7480314960629921,
          "duration": 0.018382333333335055
        },
        {
          "name": "B2",
          "midi": 47,
          "time": 59.558759999999985,
          "velocity": 0.7480314960629921,
          "duration": 0.22058799999999934
        },
        {
          "name": "B3",
          "midi": 59,
          "time": 59.779347999999985,
          "velocity": 0.7480314960629921,
          "duration": 0.22058799999999934
        },
        {
          "name": "B3",
          "midi": 59,
          "time": 59.779347999999985,
          "velocity": 0.7480314960629921,
          "duration": 0.22058799999999934
        },
        {
          "name": "F#3",
          "midi": 54,
          "time": 59.779347999999985,
          "velocity": 0.7480314960629921,
          "duration": 0.018382333333335055
        },
        {
          "name": "B2",
          "midi": 47,
          "time": 59.779347999999985,
          "velocity": 0.7480314960629921,
          "duration": 0.22058799999999934
        },
        {
          "name": "B3",
          "midi": 59,
          "time": 59.999935999999984,
          "velocity": 0.7480314960629921,
          "duration": 0.22058799999999934
        },
        {
          "name": "B3",
          "midi": 59,
          "time": 59.999935999999984,
          "velocity": 0.7480314960629921,
          "duration": 0.22058799999999934
        },
        {
          "name": "F#3",
          "midi": 54,
          "time": 59.999935999999984,
          "velocity": 0.7480314960629921,
          "duration": 0.018382333333335055
        },
        {
          "name": "B2",
          "midi": 47,
          "time": 59.999935999999984,
          "velocity": 0.7480314960629921,
          "duration": 0.22058799999999934
        },
        {
          "name": "B3",
          "midi": 59,
          "time": 60.22052399999998,
          "velocity": 0.7480314960629921,
          "duration": 0.22058799999999934
        },
        {
          "name": "B3",
          "midi": 59,
          "time": 60.22052399999998,
          "velocity": 0.7480314960629921,
          "duration": 0.22058799999999934
        },
        {
          "name": "F#3",
          "midi": 54,
          "time": 60.22052399999998,
          "velocity": 0.7480314960629921,
          "duration": 0.018382333333335055
        },
        {
          "name": "B2",
          "midi": 47,
          "time": 60.22052399999998,
          "velocity": 0.7480314960629921,
          "duration": 0.22058799999999934
        },
        {
          "name": "B3",
          "midi": 59,
          "time": 60.44111199999998,
          "velocity": 0.7480314960629921,
          "duration": 0.22058799999999934
        },
        {
          "name": "B3",
          "midi": 59,
          "time": 60.44111199999998,
          "velocity": 0.7480314960629921,
          "duration": 0.22058799999999934
        },
        {
          "name": "F#3",
          "midi": 54,
          "time": 60.44111199999998,
          "velocity": 0.7480314960629921,
          "duration": 0.018382333333335055
        },
        {
          "name": "B2",
          "midi": 47,
          "time": 60.44111199999998,
          "velocity": 0.7480314960629921,
          "duration": 0.22058799999999934
        },
        {
          "name": "B3",
          "midi": 59,
          "time": 60.66169999999998,
          "velocity": 0.7480314960629921,
          "duration": 0.22058799999999934
        },
        {
          "name": "B3",
          "midi": 59,
          "time": 60.66169999999998,
          "velocity": 0.7480314960629921,
          "duration": 0.22058799999999934
        },
        {
          "name": "F#3",
          "midi": 54,
          "time": 60.66169999999998,
          "velocity": 0.7480314960629921,
          "duration": 0.018382333333335055
        },
        {
          "name": "B2",
          "midi": 47,
          "time": 60.66169999999998,
          "velocity": 0.7480314960629921,
          "duration": 0.22058799999999934
        },
        {
          "name": "B3",
          "midi": 59,
          "time": 60.88228799999998,
          "velocity": 0.7480314960629921,
          "duration": 0.22058799999999934
        },
        {
          "name": "B3",
          "midi": 59,
          "time": 60.88228799999998,
          "velocity": 0.7480314960629921,
          "duration": 0.22058799999999934
        },
        {
          "name": "F#3",
          "midi": 54,
          "time": 60.88228799999998,
          "velocity": 0.7480314960629921,
          "duration": 0.018382333333335055
        },
        {
          "name": "B2",
          "midi": 47,
          "time": 60.88228799999998,
          "velocity": 0.7480314960629921,
          "duration": 0.22058799999999934
        },
        {
          "name": "B3",
          "midi": 59,
          "time": 61.10287599999998,
          "velocity": 0.7480314960629921,
          "duration": 0.22058799999999934
        },
        {
          "name": "B3",
          "midi": 59,
          "time": 61.10287599999998,
          "velocity": 0.7480314960629921,
          "duration": 0.22058799999999934
        },
        {
          "name": "F#3",
          "midi": 54,
          "time": 61.10287599999998,
          "velocity": 0.7480314960629921,
          "duration": 0.018382333333335055
        },
        {
          "name": "B2",
          "midi": 47,
          "time": 61.10287599999998,
          "velocity": 0.7480314960629921,
          "duration": 0.22058799999999934
        },
        {
          "name": "B3",
          "midi": 59,
          "time": 61.32346399999998,
          "velocity": 0.7480314960629921,
          "duration": 0.22058799999999934
        },
        {
          "name": "B3",
          "midi": 59,
          "time": 61.32346399999998,
          "velocity": 0.7480314960629921,
          "duration": 0.22058799999999934
        },
        {
          "name": "F#3",
          "midi": 54,
          "time": 61.32346399999998,
          "velocity": 0.7480314960629921,
          "duration": 0.018382333333335055
        },
        {
          "name": "B2",
          "midi": 47,
          "time": 61.32346399999998,
          "velocity": 0.7480314960629921,
          "duration": 0.22058799999999934
        },
        {
          "name": "B3",
          "midi": 59,
          "time": 61.54405199999998,
          "velocity": 0.7480314960629921,
          "duration": 0.22058799999999934
        },
        {
          "name": "B3",
          "midi": 59,
          "time": 61.54405199999998,
          "velocity": 0.7480314960629921,
          "duration": 0.22058799999999934
        },
        {
          "name": "F#3",
          "midi": 54,
          "time": 61.54405199999998,
          "velocity": 0.7480314960629921,
          "duration": 0.018382333333335055
        },
        {
          "name": "B2",
          "midi": 47,
          "time": 61.54405199999998,
          "velocity": 0.7480314960629921,
          "duration": 0.22058799999999934
        },
        {
          "name": "B3",
          "midi": 59,
          "time": 61.76463999999998,
          "velocity": 0.7480314960629921,
          "duration": 0.22058799999999934
        },
        {
          "name": "B3",
          "midi": 59,
          "time": 61.76463999999998,
          "velocity": 0.7480314960629921,
          "duration": 0.22058799999999934
        },
        {
          "name": "F#3",
          "midi": 54,
          "time": 61.76463999999998,
          "velocity": 0.7480314960629921,
          "duration": 0.018382333333335055
        },
        {
          "name": "B2",
          "midi": 47,
          "time": 61.76463999999998,
          "velocity": 0.7480314960629921,
          "duration": 0.22058799999999934
        },
        {
          "name": "B3",
          "midi": 59,
          "time": 61.98522799999998,
          "velocity": 0.7480314960629921,
          "duration": 0.22058799999999934
        },
        {
          "name": "B3",
          "midi": 59,
          "time": 61.98522799999998,
          "velocity": 0.7480314960629921,
          "duration": 0.22058799999999934
        },
        {
          "name": "F#3",
          "midi": 54,
          "time": 61.98522799999998,
          "velocity": 0.7480314960629921,
          "duration": 0.018382333333335055
        },
        {
          "name": "B2",
          "midi": 47,
          "time": 61.98522799999998,
          "velocity": 0.7480314960629921,
          "duration": 0.22058799999999934
        },
        {
          "name": "B3",
          "midi": 59,
          "time": 62.20581599999998,
          "velocity": 0.7480314960629921,
          "duration": 0.22058799999999934
        },
        {
          "name": "B3",
          "midi": 59,
          "time": 62.20581599999998,
          "velocity": 0.7480314960629921,
          "duration": 0.22058799999999934
        },
        {
          "name": "F#3",
          "midi": 54,
          "time": 62.20581599999998,
          "velocity": 0.7480314960629921,
          "duration": 0.018382333333335055
        },
        {
          "name": "B2",
          "midi": 47,
          "time": 62.20581599999998,
          "velocity": 0.7480314960629921,
          "duration": 0.22058799999999934
        },
        {
          "name": "B3",
          "midi": 59,
          "time": 62.42640399999998,
          "velocity": 0.7480314960629921,
          "duration": 0.22058799999999934
        },
        {
          "name": "B3",
          "midi": 59,
          "time": 62.42640399999998,
          "velocity": 0.7480314960629921,
          "duration": 0.22058799999999934
        },
        {
          "name": "F#3",
          "midi": 54,
          "time": 62.42640399999998,
          "velocity": 0.7480314960629921,
          "duration": 0.018382333333335055
        },
        {
          "name": "B2",
          "midi": 47,
          "time": 62.42640399999998,
          "velocity": 0.7480314960629921,
          "duration": 0.22058799999999934
        },
        {
          "name": "B3",
          "midi": 59,
          "time": 62.646991999999976,
          "velocity": 0.7480314960629921,
          "duration": 0.22058799999999934
        },
        {
          "name": "B3",
          "midi": 59,
          "time": 62.646991999999976,
          "velocity": 0.7480314960629921,
          "duration": 0.22058799999999934
        },
        {
          "name": "F#3",
          "midi": 54,
          "time": 62.646991999999976,
          "velocity": 0.7480314960629921,
          "duration": 0.018382333333335055
        },
        {
          "name": "B2",
          "midi": 47,
          "time": 62.646991999999976,
          "velocity": 0.7480314960629921,
          "duration": 0.22058799999999934
        },
        {
          "name": "B3",
          "midi": 59,
          "time": 62.867579999999975,
          "velocity": 0.7480314960629921,
          "duration": 0.22058799999999934
        },
        {
          "name": "B3",
          "midi": 59,
          "time": 62.867579999999975,
          "velocity": 0.7480314960629921,
          "duration": 0.22058799999999934
        },
        {
          "name": "F#3",
          "midi": 54,
          "time": 62.867579999999975,
          "velocity": 0.7480314960629921,
          "duration": 0.018382333333335055
        },
        {
          "name": "B2",
          "midi": 47,
          "time": 62.867579999999975,
          "velocity": 0.7480314960629921,
          "duration": 0.22058799999999934
        },
        {
          "name": "B3",
          "midi": 59,
          "time": 63.088167999999975,
          "velocity": 0.7480314960629921,
          "duration": 0.22058799999999934
        },
        {
          "name": "B3",
          "midi": 59,
          "time": 63.088167999999975,
          "velocity": 0.7480314960629921,
          "duration": 0.22058799999999934
        },
        {
          "name": "F#3",
          "midi": 54,
          "time": 63.088167999999975,
          "velocity": 0.7480314960629921,
          "duration": 0.018382333333335055
        },
        {
          "name": "B2",
          "midi": 47,
          "time": 63.088167999999975,
          "velocity": 0.7480314960629921,
          "duration": 0.22058799999999934
        },
        {
          "name": "B3",
          "midi": 59,
          "time": 63.308755999999974,
          "velocity": 0.7480314960629921,
          "duration": 0.22058800000002066
        },
        {
          "name": "B3",
          "midi": 59,
          "time": 63.308755999999974,
          "velocity": 0.7480314960629921,
          "duration": 0.22058800000002066
        },
        {
          "name": "F#3",
          "midi": 54,
          "time": 63.308755999999974,
          "velocity": 0.7480314960629921,
          "duration": 0.018382333333335055
        },
        {
          "name": "B2",
          "midi": 47,
          "time": 63.308755999999974,
          "velocity": 0.7480314960629921,
          "duration": 0.22058800000002066
        },
        {
          "name": "F#4",
          "midi": 66,
          "time": 63.529343999999995,
          "velocity": 0.5984251968503937,
          "duration": 0.22058799999999934
        },
        {
          "name": "C#4",
          "midi": 61,
          "time": 63.529343999999995,
          "velocity": 0.7480314960629921,
          "duration": 0.22058799999999934
        },
        {
          "name": "F#4",
          "midi": 66,
          "time": 63.749931999999994,
          "velocity": 0.7480314960629921,
          "duration": 0.22058799999999934
        },
        {
          "name": "C#4",
          "midi": 61,
          "time": 63.749931999999994,
          "velocity": 0.7480314960629921,
          "duration": 0.22058799999999934
        },
        {
          "name": "F#4",
          "midi": 66,
          "time": 63.97051999999999,
          "velocity": 0.7480314960629921,
          "duration": 0.22058800000000645
        },
        {
          "name": "C#4",
          "midi": 61,
          "time": 63.97051999999999,
          "velocity": 0.7480314960629921,
          "duration": 0.22058800000000645
        },
        {
          "name": "F#4",
          "midi": 66,
          "time": 64.191108,
          "velocity": 0.7480314960629921,
          "duration": 0.22058800000000645
        },
        {
          "name": "C#4",
          "midi": 61,
          "time": 64.191108,
          "velocity": 0.7480314960629921,
          "duration": 0.22058800000000645
        },
        {
          "name": "F#4",
          "midi": 66,
          "time": 64.411696,
          "velocity": 0.7480314960629921,
          "duration": 0.22058800000000645
        },
        {
          "name": "C#4",
          "midi": 61,
          "time": 64.411696,
          "velocity": 0.7480314960629921,
          "duration": 0.22058800000000645
        },
        {
          "name": "F#4",
          "midi": 66,
          "time": 64.63228400000001,
          "velocity": 0.7480314960629921,
          "duration": 0.22058800000000645
        },
        {
          "name": "C#4",
          "midi": 61,
          "time": 64.63228400000001,
          "velocity": 0.7480314960629921,
          "duration": 0.22058800000000645
        },
        {
          "name": "F#4",
          "midi": 66,
          "time": 64.85287200000002,
          "velocity": 0.7480314960629921,
          "duration": 0.22058800000000645
        },
        {
          "name": "C#4",
          "midi": 61,
          "time": 64.85287200000002,
          "velocity": 0.7480314960629921,
          "duration": 0.22058800000000645
        },
        {
          "name": "F#4",
          "midi": 66,
          "time": 65.07346000000003,
          "velocity": 0.7480314960629921,
          "duration": 0.22058800000000645
        },
        {
          "name": "C#4",
          "midi": 61,
          "time": 65.07346000000003,
          "velocity": 0.7480314960629921,
          "duration": 0.22058800000000645
        },
        {
          "name": "G4",
          "midi": 67,
          "time": 65.29404800000003,
          "velocity": 0.7480314960629921,
          "duration": 0.22058800000000645
        },
        {
          "name": "D4",
          "midi": 62,
          "time": 65.29404800000003,
          "velocity": 0.7480314960629921,
          "duration": 0.22058800000000645
        },
        {
          "name": "B3",
          "midi": 59,
          "time": 65.29404800000003,
          "velocity": 0.7480314960629921,
          "duration": 0.22058800000000645
        },
        {
          "name": "G4",
          "midi": 67,
          "time": 65.51463600000004,
          "velocity": 0.7480314960629921,
          "duration": 0.22058800000000645
        },
        {
          "name": "D4",
          "midi": 62,
          "time": 65.51463600000004,
          "velocity": 0.7480314960629921,
          "duration": 0.22058800000000645
        },
        {
          "name": "B3",
          "midi": 59,
          "time": 65.51463600000004,
          "velocity": 0.7480314960629921,
          "duration": 0.22058800000000645
        },
        {
          "name": "G4",
          "midi": 67,
          "time": 65.73522400000004,
          "velocity": 0.7480314960629921,
          "duration": 0.22058800000000645
        },
        {
          "name": "D4",
          "midi": 62,
          "time": 65.73522400000004,
          "velocity": 0.7480314960629921,
          "duration": 0.22058800000000645
        },
        {
          "name": "B3",
          "midi": 59,
          "time": 65.73522400000004,
          "velocity": 0.7480314960629921,
          "duration": 0.22058800000000645
        },
        {
          "name": "G4",
          "midi": 67,
          "time": 65.95581200000005,
          "velocity": 0.7480314960629921,
          "duration": 0.22058800000000645
        },
        {
          "name": "D4",
          "midi": 62,
          "time": 65.95581200000005,
          "velocity": 0.7480314960629921,
          "duration": 0.22058800000000645
        },
        {
          "name": "B3",
          "midi": 59,
          "time": 65.95581200000005,
          "velocity": 0.7480314960629921,
          "duration": 0.22058800000000645
        },
        {
          "name": "G4",
          "midi": 67,
          "time": 66.17640000000006,
          "velocity": 0.7480314960629921,
          "duration": 0.22058800000000645
        },
        {
          "name": "D4",
          "midi": 62,
          "time": 66.17640000000006,
          "velocity": 0.7480314960629921,
          "duration": 0.22058800000000645
        },
        {
          "name": "B3",
          "midi": 59,
          "time": 66.17640000000006,
          "velocity": 0.7480314960629921,
          "duration": 0.22058800000000645
        },
        {
          "name": "G4",
          "midi": 67,
          "time": 66.39698800000006,
          "velocity": 0.7480314960629921,
          "duration": 0.22058800000000645
        },
        {
          "name": "D4",
          "midi": 62,
          "time": 66.39698800000006,
          "velocity": 0.7480314960629921,
          "duration": 0.22058800000000645
        },
        {
          "name": "B3",
          "midi": 59,
          "time": 66.39698800000006,
          "velocity": 0.7480314960629921,
          "duration": 0.22058800000000645
        },
        {
          "name": "G4",
          "midi": 67,
          "time": 66.61757600000007,
          "velocity": 0.7480314960629921,
          "duration": 0.22058800000000645
        },
        {
          "name": "D4",
          "midi": 62,
          "time": 66.61757600000007,
          "velocity": 0.7480314960629921,
          "duration": 0.22058800000000645
        },
        {
          "name": "B3",
          "midi": 59,
          "time": 66.61757600000007,
          "velocity": 0.7480314960629921,
          "duration": 0.22058800000000645
        },
        {
          "name": "G4",
          "midi": 67,
          "time": 66.83816400000008,
          "velocity": 0.7480314960629921,
          "duration": 0.22058800000000645
        },
        {
          "name": "D4",
          "midi": 62,
          "time": 66.83816400000008,
          "velocity": 0.7480314960629921,
          "duration": 0.22058800000000645
        },
        {
          "name": "B3",
          "midi": 59,
          "time": 66.83816400000008,
          "velocity": 0.7480314960629921,
          "duration": 0.22058800000000645
        },
        {
          "name": "G4",
          "midi": 67,
          "time": 67.05875200000008,
          "velocity": 0.7480314960629921,
          "duration": 0.22058800000000645
        },
        {
          "name": "D4",
          "midi": 62,
          "time": 67.05875200000008,
          "velocity": 0.7480314960629921,
          "duration": 0.22058800000000645
        },
        {
          "name": "B3",
          "midi": 59,
          "time": 67.05875200000008,
          "velocity": 0.7480314960629921,
          "duration": 0.22058800000000645
        },
        {
          "name": "G4",
          "midi": 67,
          "time": 67.27934000000009,
          "velocity": 0.7480314960629921,
          "duration": 0.22058800000000645
        },
        {
          "name": "D4",
          "midi": 62,
          "time": 67.27934000000009,
          "velocity": 0.7480314960629921,
          "duration": 0.22058800000000645
        },
        {
          "name": "B3",
          "midi": 59,
          "time": 67.27934000000009,
          "velocity": 0.7480314960629921,
          "duration": 0.22058800000000645
        },
        {
          "name": "G4",
          "midi": 67,
          "time": 67.4999280000001,
          "velocity": 0.7480314960629921,
          "duration": 0.22058800000000645
        },
        {
          "name": "D4",
          "midi": 62,
          "time": 67.4999280000001,
          "velocity": 0.7480314960629921,
          "duration": 0.22058800000000645
        },
        {
          "name": "B3",
          "midi": 59,
          "time": 67.4999280000001,
          "velocity": 0.7480314960629921,
          "duration": 0.22058800000000645
        },
        {
          "name": "G4",
          "midi": 67,
          "time": 67.7205160000001,
          "velocity": 0.7480314960629921,
          "duration": 0.22058800000000645
        },
        {
          "name": "D4",
          "midi": 62,
          "time": 67.7205160000001,
          "velocity": 0.7480314960629921,
          "duration": 0.22058800000000645
        },
        {
          "name": "B3",
          "midi": 59,
          "time": 67.7205160000001,
          "velocity": 0.7480314960629921,
          "duration": 0.22058800000000645
        },
        {
          "name": "G4",
          "midi": 67,
          "time": 67.94110400000011,
          "velocity": 0.7480314960629921,
          "duration": 0.22058800000000645
        },
        {
          "name": "D4",
          "midi": 62,
          "time": 67.94110400000011,
          "velocity": 0.7480314960629921,
          "duration": 0.22058800000000645
        },
        {
          "name": "B3",
          "midi": 59,
          "time": 67.94110400000011,
          "velocity": 0.7480314960629921,
          "duration": 0.22058800000000645
        },
        {
          "name": "G4",
          "midi": 67,
          "time": 68.16169200000012,
          "velocity": 0.7480314960629921,
          "duration": 0.22058800000000645
        },
        {
          "name": "D4",
          "midi": 62,
          "time": 68.16169200000012,
          "velocity": 0.7480314960629921,
          "duration": 0.22058800000000645
        },
        {
          "name": "B3",
          "midi": 59,
          "time": 68.16169200000012,
          "velocity": 0.7480314960629921,
          "duration": 0.22058800000000645
        },
        {
          "name": "G4",
          "midi": 67,
          "time": 68.38228000000012,
          "velocity": 0.7480314960629921,
          "duration": 0.22058800000000645
        },
        {
          "name": "D4",
          "midi": 62,
          "time": 68.38228000000012,
          "velocity": 0.7480314960629921,
          "duration": 0.22058800000000645
        },
        {
          "name": "B3",
          "midi": 59,
          "time": 68.38228000000012,
          "velocity": 0.7480314960629921,
          "duration": 0.22058800000000645
        },
        {
          "name": "G4",
          "midi": 67,
          "time": 68.60286800000013,
          "velocity": 0.7480314960629921,
          "duration": 0.22058800000000645
        },
        {
          "name": "D4",
          "midi": 62,
          "time": 68.60286800000013,
          "velocity": 0.7480314960629921,
          "duration": 0.22058800000000645
        },
        {
          "name": "B3",
          "midi": 59,
          "time": 68.60286800000013,
          "velocity": 0.7480314960629921,
          "duration": 0.22058800000000645
        },
        {
          "name": "F#4",
          "midi": 66,
          "time": 68.82345600000014,
          "velocity": 0.7480314960629921,
          "duration": 0.22058800000000645
        },
        {
          "name": "D4",
          "midi": 62,
          "time": 68.82345600000014,
          "velocity": 0.7480314960629921,
          "duration": 0.22058800000000645
        },
        {
          "name": "B3",
          "midi": 59,
          "time": 68.82345600000014,
          "velocity": 0.7480314960629921,
          "duration": 0.22058800000000645
        },
        {
          "name": "F#4",
          "midi": 66,
          "time": 69.04404400000014,
          "velocity": 0.7480314960629921,
          "duration": 0.22058800000000645
        },
        {
          "name": "D4",
          "midi": 62,
          "time": 69.04404400000014,
          "velocity": 0.7480314960629921,
          "duration": 0.22058800000000645
        },
        {
          "name": "B3",
          "midi": 59,
          "time": 69.04404400000014,
          "velocity": 0.7480314960629921,
          "duration": 0.22058800000000645
        },
        {
          "name": "F#4",
          "midi": 66,
          "time": 69.26463200000015,
          "velocity": 0.7480314960629921,
          "duration": 0.22058800000000645
        },
        {
          "name": "D4",
          "midi": 62,
          "time": 69.26463200000015,
          "velocity": 0.7480314960629921,
          "duration": 0.22058800000000645
        },
        {
          "name": "B3",
          "midi": 59,
          "time": 69.26463200000015,
          "velocity": 0.7480314960629921,
          "duration": 0.22058800000000645
        },
        {
          "name": "F#4",
          "midi": 66,
          "time": 69.48522000000015,
          "velocity": 0.7480314960629921,
          "duration": 0.22058800000000645
        },
        {
          "name": "D4",
          "midi": 62,
          "time": 69.48522000000015,
          "velocity": 0.7480314960629921,
          "duration": 0.22058800000000645
        },
        {
          "name": "B3",
          "midi": 59,
          "time": 69.48522000000015,
          "velocity": 0.7480314960629921,
          "duration": 0.22058800000000645
        },
        {
          "name": "F#4",
          "midi": 66,
          "time": 69.70580800000016,
          "velocity": 0.7480314960629921,
          "duration": 0.22058800000000645
        },
        {
          "name": "D4",
          "midi": 62,
          "time": 69.70580800000016,
          "velocity": 0.7480314960629921,
          "duration": 0.22058800000000645
        },
        {
          "name": "B3",
          "midi": 59,
          "time": 69.70580800000016,
          "velocity": 0.7480314960629921,
          "duration": 0.22058800000000645
        },
        {
          "name": "F#4",
          "midi": 66,
          "time": 69.92639600000017,
          "velocity": 0.7480314960629921,
          "duration": 0.22058800000000645
        },
        {
          "name": "D4",
          "midi": 62,
          "time": 69.92639600000017,
          "velocity": 0.7480314960629921,
          "duration": 0.22058800000000645
        },
        {
          "name": "B3",
          "midi": 59,
          "time": 69.92639600000017,
          "velocity": 0.7480314960629921,
          "duration": 0.22058800000000645
        },
        {
          "name": "F#4",
          "midi": 66,
          "time": 70.14698400000017,
          "velocity": 0.7480314960629921,
          "duration": 0.22058800000000645
        },
        {
          "name": "D4",
          "midi": 62,
          "time": 70.14698400000017,
          "velocity": 0.7480314960629921,
          "duration": 0.22058800000000645
        },
        {
          "name": "B3",
          "midi": 59,
          "time": 70.14698400000017,
          "velocity": 0.7480314960629921,
          "duration": 0.22058800000000645
        },
        {
          "name": "F#4",
          "midi": 66,
          "time": 70.36757200000018,
          "velocity": 0.7480314960629921,
          "duration": 0.22058800000000645
        },
        {
          "name": "D4",
          "midi": 62,
          "time": 70.36757200000018,
          "velocity": 0.7480314960629921,
          "duration": 0.22058800000000645
        },
        {
          "name": "B3",
          "midi": 59,
          "time": 70.36757200000018,
          "velocity": 0.7480314960629921,
          "duration": 0.22058800000000645
        },
        {
          "name": "F#4",
          "midi": 66,
          "time": 70.58816000000019,
          "velocity": 0.7480314960629921,
          "duration": 0.22058800000000645
        },
        {
          "name": "D4",
          "midi": 62,
          "time": 70.58816000000019,
          "velocity": 0.7480314960629921,
          "duration": 0.22058800000000645
        },
        {
          "name": "A#3",
          "midi": 58,
          "time": 70.58816000000019,
          "velocity": 0.7480314960629921,
          "duration": 0.22058800000000645
        },
        {
          "name": "F#4",
          "midi": 66,
          "time": 70.8087480000002,
          "velocity": 0.7480314960629921,
          "duration": 0.22058800000000645
        },
        {
          "name": "D4",
          "midi": 62,
          "time": 70.8087480000002,
          "velocity": 0.7480314960629921,
          "duration": 0.22058800000000645
        },
        {
          "name": "A#3",
          "midi": 58,
          "time": 70.8087480000002,
          "velocity": 0.7480314960629921,
          "duration": 0.22058800000000645
        },
        {
          "name": "F#4",
          "midi": 66,
          "time": 71.0293360000002,
          "velocity": 0.7480314960629921,
          "duration": 0.22058800000000645
        },
        {
          "name": "D4",
          "midi": 62,
          "time": 71.0293360000002,
          "velocity": 0.7480314960629921,
          "duration": 0.22058800000000645
        },
        {
          "name": "A#3",
          "midi": 58,
          "time": 71.0293360000002,
          "velocity": 0.7480314960629921,
          "duration": 0.22058800000000645
        },
        {
          "name": "F#4",
          "midi": 66,
          "time": 71.2499240000002,
          "velocity": 0.7480314960629921,
          "duration": 0.22058800000000645
        },
        {
          "name": "D4",
          "midi": 62,
          "time": 71.2499240000002,
          "velocity": 0.7480314960629921,
          "duration": 0.22058800000000645
        },
        {
          "name": "A#3",
          "midi": 58,
          "time": 71.2499240000002,
          "velocity": 0.7480314960629921,
          "duration": 0.22058800000000645
        },
        {
          "name": "F#4",
          "midi": 66,
          "time": 71.47051200000021,
          "velocity": 0.7480314960629921,
          "duration": 0.22058800000000645
        },
        {
          "name": "C#4",
          "midi": 61,
          "time": 71.47051200000021,
          "velocity": 0.7480314960629921,
          "duration": 0.22058800000000645
        },
        {
          "name": "A#3",
          "midi": 58,
          "time": 71.47051200000021,
          "velocity": 0.7480314960629921,
          "duration": 0.22058800000000645
        },
        {
          "name": "F#4",
          "midi": 66,
          "time": 71.69110000000022,
          "velocity": 0.7480314960629921,
          "duration": 0.22058800000000645
        },
        {
          "name": "C#4",
          "midi": 61,
          "time": 71.69110000000022,
          "velocity": 0.7480314960629921,
          "duration": 0.22058800000000645
        },
        {
          "name": "A#3",
          "midi": 58,
          "time": 71.69110000000022,
          "velocity": 0.7480314960629921,
          "duration": 0.22058800000000645
        },
        {
          "name": "F#4",
          "midi": 66,
          "time": 71.91168800000023,
          "velocity": 0.7480314960629921,
          "duration": 0.22058800000000645
        },
        {
          "name": "C#4",
          "midi": 61,
          "time": 71.91168800000023,
          "velocity": 0.7480314960629921,
          "duration": 0.22058800000000645
        },
        {
          "name": "A#3",
          "midi": 58,
          "time": 71.91168800000023,
          "velocity": 0.7480314960629921,
          "duration": 0.22058800000000645
        },
        {
          "name": "F#4",
          "midi": 66,
          "time": 72.13227600000023,
          "velocity": 0.7480314960629921,
          "duration": 0.22058800000000645
        },
        {
          "name": "C#4",
          "midi": 61,
          "time": 72.13227600000023,
          "velocity": 0.7480314960629921,
          "duration": 0.22058800000000645
        },
        {
          "name": "A#3",
          "midi": 58,
          "time": 72.13227600000023,
          "velocity": 0.7480314960629921,
          "duration": 0.22058800000000645
        },
        {
          "name": "B3",
          "midi": 59,
          "time": 72.35286400000024,
          "velocity": 0.7480314960629921,
          "duration": 0.22058800000000645
        },
        {
          "name": "B3",
          "midi": 59,
          "time": 72.35286400000024,
          "velocity": 0.7480314960629921,
          "duration": 0.22058800000000645
        },
        {
          "name": "F#3",
          "midi": 54,
          "time": 72.35286400000024,
          "velocity": 0.7480314960629921,
          "duration": 0.018382333333335055
        },
        {
          "name": "B2",
          "midi": 47,
          "time": 72.35286400000024,
          "velocity": 0.5984251968503937,
          "duration": 0.22058800000000645
        },
        {
          "name": "B3",
          "midi": 59,
          "time": 72.57345200000024,
          "velocity": 0.7480314960629921,
          "duration": 0.22058800000000645
        },
        {
          "name": "B3",
          "midi": 59,
          "time": 72.57345200000024,
          "velocity": 0.7480314960629921,
          "duration": 0.22058800000000645
        },
        {
          "name": "F#3",
          "midi": 54,
          "time": 72.57345200000024,
          "velocity": 0.7480314960629921,
          "duration": 0.018382333333335055
        },
        {
          "name": "B2",
          "midi": 47,
          "time": 72.57345200000024,
          "velocity": 0.7480314960629921,
          "duration": 0.22058800000000645
        },
        {
          "name": "B3",
          "midi": 59,
          "time": 72.79404000000025,
          "velocity": 0.7480314960629921,
          "duration": 0.22058800000000645
        },
        {
          "name": "B3",
          "midi": 59,
          "time": 72.79404000000025,
          "velocity": 0.7480314960629921,
          "duration": 0.22058800000000645
        },
        {
          "name": "F#3",
          "midi": 54,
          "time": 72.79404000000025,
          "velocity": 0.7480314960629921,
          "duration": 0.018382333333335055
        },
        {
          "name": "B2",
          "midi": 47,
          "time": 72.79404000000025,
          "velocity": 0.7480314960629921,
          "duration": 0.22058800000000645
        },
        {
          "name": "B3",
          "midi": 59,
          "time": 73.01462800000026,
          "velocity": 0.7480314960629921,
          "duration": 0.22058800000000645
        },
        {
          "name": "B3",
          "midi": 59,
          "time": 73.01462800000026,
          "velocity": 0.7480314960629921,
          "duration": 0.22058800000000645
        },
        {
          "name": "F#3",
          "midi": 54,
          "time": 73.01462800000026,
          "velocity": 0.7480314960629921,
          "duration": 0.018382333333335055
        },
        {
          "name": "B2",
          "midi": 47,
          "time": 73.01462800000026,
          "velocity": 0.7480314960629921,
          "duration": 0.22058800000000645
        },
        {
          "name": "B3",
          "midi": 59,
          "time": 73.23521600000026,
          "velocity": 0.7480314960629921,
          "duration": 0.22058800000000645
        },
        {
          "name": "B3",
          "midi": 59,
          "time": 73.23521600000026,
          "velocity": 0.7480314960629921,
          "duration": 0.22058800000000645
        },
        {
          "name": "F#3",
          "midi": 54,
          "time": 73.23521600000026,
          "velocity": 0.7480314960629921,
          "duration": 0.018382333333335055
        },
        {
          "name": "B2",
          "midi": 47,
          "time": 73.23521600000026,
          "velocity": 0.7480314960629921,
          "duration": 0.22058800000000645
        },
        {
          "name": "B3",
          "midi": 59,
          "time": 73.45580400000027,
          "velocity": 0.7480314960629921,
          "duration": 0.22058800000000645
        },
        {
          "name": "B3",
          "midi": 59,
          "time": 73.45580400000027,
          "velocity": 0.7480314960629921,
          "duration": 0.22058800000000645
        },
        {
          "name": "F#3",
          "midi": 54,
          "time": 73.45580400000027,
          "velocity": 0.7480314960629921,
          "duration": 0.018382333333335055
        },
        {
          "name": "B2",
          "midi": 47,
          "time": 73.45580400000027,
          "velocity": 0.7480314960629921,
          "duration": 0.22058800000000645
        },
        {
          "name": "B3",
          "midi": 59,
          "time": 73.67639200000028,
          "velocity": 0.7480314960629921,
          "duration": 0.22058800000000645
        },
        {
          "name": "B3",
          "midi": 59,
          "time": 73.67639200000028,
          "velocity": 0.7480314960629921,
          "duration": 0.22058800000000645
        },
        {
          "name": "F#3",
          "midi": 54,
          "time": 73.67639200000028,
          "velocity": 0.7480314960629921,
          "duration": 0.018382333333335055
        },
        {
          "name": "B2",
          "midi": 47,
          "time": 73.67639200000028,
          "velocity": 0.7480314960629921,
          "duration": 0.22058800000000645
        },
        {
          "name": "B3",
          "midi": 59,
          "time": 73.89698000000028,
          "velocity": 0.7480314960629921,
          "duration": 0.22058800000000645
        },
        {
          "name": "B3",
          "midi": 59,
          "time": 73.89698000000028,
          "velocity": 0.7480314960629921,
          "duration": 0.22058800000000645
        },
        {
          "name": "F#3",
          "midi": 54,
          "time": 73.89698000000028,
          "velocity": 0.7480314960629921,
          "duration": 0.018382333333335055
        },
        {
          "name": "B2",
          "midi": 47,
          "time": 73.89698000000028,
          "velocity": 0.7480314960629921,
          "duration": 0.22058800000000645
        },
        {
          "name": "B3",
          "midi": 59,
          "time": 74.11756800000029,
          "velocity": 0.7480314960629921,
          "duration": 0.22058800000000645
        },
        {
          "name": "B3",
          "midi": 59,
          "time": 74.11756800000029,
          "velocity": 0.7480314960629921,
          "duration": 0.22058800000000645
        },
        {
          "name": "F#3",
          "midi": 54,
          "time": 74.11756800000029,
          "velocity": 0.7480314960629921,
          "duration": 0.018382333333335055
        },
        {
          "name": "B2",
          "midi": 47,
          "time": 74.11756800000029,
          "velocity": 0.7480314960629921,
          "duration": 0.22058800000000645
        },
        {
          "name": "B3",
          "midi": 59,
          "time": 74.3381560000003,
          "velocity": 0.7480314960629921,
          "duration": 0.22058800000000645
        },
        {
          "name": "B3",
          "midi": 59,
          "time": 74.3381560000003,
          "velocity": 0.7480314960629921,
          "duration": 0.22058800000000645
        },
        {
          "name": "F#3",
          "midi": 54,
          "time": 74.3381560000003,
          "velocity": 0.7480314960629921,
          "duration": 0.018382333333335055
        },
        {
          "name": "B2",
          "midi": 47,
          "time": 74.3381560000003,
          "velocity": 0.7480314960629921,
          "duration": 0.22058800000000645
        },
        {
          "name": "B3",
          "midi": 59,
          "time": 74.5587440000003,
          "velocity": 0.7480314960629921,
          "duration": 0.22058800000000645
        },
        {
          "name": "B3",
          "midi": 59,
          "time": 74.5587440000003,
          "velocity": 0.7480314960629921,
          "duration": 0.22058800000000645
        },
        {
          "name": "F#3",
          "midi": 54,
          "time": 74.5587440000003,
          "velocity": 0.7480314960629921,
          "duration": 0.018382333333335055
        },
        {
          "name": "B2",
          "midi": 47,
          "time": 74.5587440000003,
          "velocity": 0.7480314960629921,
          "duration": 0.22058800000000645
        },
        {
          "name": "B3",
          "midi": 59,
          "time": 74.77933200000031,
          "velocity": 0.7480314960629921,
          "duration": 0.22058800000000645
        },
        {
          "name": "B3",
          "midi": 59,
          "time": 74.77933200000031,
          "velocity": 0.7480314960629921,
          "duration": 0.22058800000000645
        },
        {
          "name": "F#3",
          "midi": 54,
          "time": 74.77933200000031,
          "velocity": 0.7480314960629921,
          "duration": 0.018382333333335055
        },
        {
          "name": "B2",
          "midi": 47,
          "time": 74.77933200000031,
          "velocity": 0.7480314960629921,
          "duration": 0.22058800000000645
        },
        {
          "name": "B3",
          "midi": 59,
          "time": 74.99992000000032,
          "velocity": 0.7480314960629921,
          "duration": 0.22058800000000645
        },
        {
          "name": "B3",
          "midi": 59,
          "time": 74.99992000000032,
          "velocity": 0.7480314960629921,
          "duration": 0.22058800000000645
        },
        {
          "name": "F#3",
          "midi": 54,
          "time": 74.99992000000032,
          "velocity": 0.7480314960629921,
          "duration": 0.018382333333335055
        },
        {
          "name": "B2",
          "midi": 47,
          "time": 74.99992000000032,
          "velocity": 0.7480314960629921,
          "duration": 0.22058800000000645
        },
        {
          "name": "B3",
          "midi": 59,
          "time": 75.22050800000032,
          "velocity": 0.7480314960629921,
          "duration": 0.22058800000000645
        },
        {
          "name": "B3",
          "midi": 59,
          "time": 75.22050800000032,
          "velocity": 0.7480314960629921,
          "duration": 0.22058800000000645
        },
        {
          "name": "F#3",
          "midi": 54,
          "time": 75.22050800000032,
          "velocity": 0.7480314960629921,
          "duration": 0.018382333333335055
        },
        {
          "name": "B2",
          "midi": 47,
          "time": 75.22050800000032,
          "velocity": 0.7480314960629921,
          "duration": 0.22058800000000645
        },
        {
          "name": "B3",
          "midi": 59,
          "time": 75.44109600000033,
          "velocity": 0.7480314960629921,
          "duration": 0.22058800000000645
        },
        {
          "name": "B3",
          "midi": 59,
          "time": 75.44109600000033,
          "velocity": 0.7480314960629921,
          "duration": 0.22058800000000645
        },
        {
          "name": "F#3",
          "midi": 54,
          "time": 75.44109600000033,
          "velocity": 0.7480314960629921,
          "duration": 0.018382333333335055
        },
        {
          "name": "B2",
          "midi": 47,
          "time": 75.44109600000033,
          "velocity": 0.7480314960629921,
          "duration": 0.22058800000000645
        },
        {
          "name": "B3",
          "midi": 59,
          "time": 75.66168400000034,
          "velocity": 0.7480314960629921,
          "duration": 0.22058800000000645
        },
        {
          "name": "B3",
          "midi": 59,
          "time": 75.66168400000034,
          "velocity": 0.7480314960629921,
          "duration": 0.22058800000000645
        },
        {
          "name": "F#3",
          "midi": 54,
          "time": 75.66168400000034,
          "velocity": 0.7480314960629921,
          "duration": 0.018382333333335055
        },
        {
          "name": "B2",
          "midi": 47,
          "time": 75.66168400000034,
          "velocity": 0.7480314960629921,
          "duration": 0.22058800000000645
        },
        {
          "name": "B3",
          "midi": 59,
          "time": 75.88227200000034,
          "velocity": 0.7480314960629921,
          "duration": 0.22058800000000645
        },
        {
          "name": "B3",
          "midi": 59,
          "time": 75.88227200000034,
          "velocity": 0.7480314960629921,
          "duration": 0.22058800000000645
        },
        {
          "name": "F#3",
          "midi": 54,
          "time": 75.88227200000034,
          "velocity": 0.7480314960629921,
          "duration": 0.018382333333335055
        },
        {
          "name": "B2",
          "midi": 47,
          "time": 75.88227200000034,
          "velocity": 0.7480314960629921,
          "duration": 0.22058800000000645
        },
        {
          "name": "B3",
          "midi": 59,
          "time": 76.10286000000035,
          "velocity": 0.7480314960629921,
          "duration": 0.22058800000000645
        },
        {
          "name": "B3",
          "midi": 59,
          "time": 76.10286000000035,
          "velocity": 0.7480314960629921,
          "duration": 0.22058800000000645
        },
        {
          "name": "F#3",
          "midi": 54,
          "time": 76.10286000000035,
          "velocity": 0.7480314960629921,
          "duration": 0.018382333333335055
        },
        {
          "name": "B2",
          "midi": 47,
          "time": 76.10286000000035,
          "velocity": 0.7480314960629921,
          "duration": 0.22058800000000645
        },
        {
          "name": "B3",
          "midi": 59,
          "time": 76.32344800000035,
          "velocity": 0.7480314960629921,
          "duration": 0.22058800000000645
        },
        {
          "name": "B3",
          "midi": 59,
          "time": 76.32344800000035,
          "velocity": 0.7480314960629921,
          "duration": 0.22058800000000645
        },
        {
          "name": "F#3",
          "midi": 54,
          "time": 76.32344800000035,
          "velocity": 0.7480314960629921,
          "duration": 0.018382333333335055
        },
        {
          "name": "B2",
          "midi": 47,
          "time": 76.32344800000035,
          "velocity": 0.7480314960629921,
          "duration": 0.22058800000000645
        },
        {
          "name": "B3",
          "midi": 59,
          "time": 76.54403600000036,
          "velocity": 0.7480314960629921,
          "duration": 0.22058800000000645
        },
        {
          "name": "B3",
          "midi": 59,
          "time": 76.54403600000036,
          "velocity": 0.7480314960629921,
          "duration": 0.22058800000000645
        },
        {
          "name": "F#3",
          "midi": 54,
          "time": 76.54403600000036,
          "velocity": 0.7480314960629921,
          "duration": 0.018382333333335055
        },
        {
          "name": "B2",
          "midi": 47,
          "time": 76.54403600000036,
          "velocity": 0.7480314960629921,
          "duration": 0.22058800000000645
        },
        {
          "name": "B3",
          "midi": 59,
          "time": 76.76462400000037,
          "velocity": 0.7480314960629921,
          "duration": 0.22058800000000645
        },
        {
          "name": "B3",
          "midi": 59,
          "time": 76.76462400000037,
          "velocity": 0.7480314960629921,
          "duration": 0.22058800000000645
        },
        {
          "name": "F#3",
          "midi": 54,
          "time": 76.76462400000037,
          "velocity": 0.7480314960629921,
          "duration": 0.018382333333335055
        },
        {
          "name": "B2",
          "midi": 47,
          "time": 76.76462400000037,
          "velocity": 0.7480314960629921,
          "duration": 0.22058800000000645
        },
        {
          "name": "B3",
          "midi": 59,
          "time": 76.98521200000037,
          "velocity": 0.7480314960629921,
          "duration": 0.22058800000000645
        },
        {
          "name": "B3",
          "midi": 59,
          "time": 76.98521200000037,
          "velocity": 0.7480314960629921,
          "duration": 0.22058800000000645
        },
        {
          "name": "F#3",
          "midi": 54,
          "time": 76.98521200000037,
          "velocity": 0.7480314960629921,
          "duration": 0.018382333333335055
        },
        {
          "name": "B2",
          "midi": 47,
          "time": 76.98521200000037,
          "velocity": 0.7480314960629921,
          "duration": 0.22058800000000645
        },
        {
          "name": "B3",
          "midi": 59,
          "time": 77.20580000000038,
          "velocity": 0.7480314960629921,
          "duration": 0.22058800000000645
        },
        {
          "name": "B3",
          "midi": 59,
          "time": 77.20580000000038,
          "velocity": 0.7480314960629921,
          "duration": 0.22058800000000645
        },
        {
          "name": "F#3",
          "midi": 54,
          "time": 77.20580000000038,
          "velocity": 0.7480314960629921,
          "duration": 0.018382333333335055
        },
        {
          "name": "B2",
          "midi": 47,
          "time": 77.20580000000038,
          "velocity": 0.7480314960629921,
          "duration": 0.22058800000000645
        },
        {
          "name": "B3",
          "midi": 59,
          "time": 77.42638800000039,
          "velocity": 0.7480314960629921,
          "duration": 0.22058799999999223
        },
        {
          "name": "B3",
          "midi": 59,
          "time": 77.42638800000039,
          "velocity": 0.7480314960629921,
          "duration": 0.22058799999999223
        },
        {
          "name": "F#3",
          "midi": 54,
          "time": 77.42638800000039,
          "velocity": 0.7480314960629921,
          "duration": 0.018382333333335055
        },
        {
          "name": "B2",
          "midi": 47,
          "time": 77.42638800000039,
          "velocity": 0.7480314960629921,
          "duration": 0.22058799999999223
        },
        {
          "name": "F#4",
          "midi": 66,
          "time": 77.64697600000038,
          "velocity": 0.5984251968503937,
          "duration": 0.22058800000000645
        },
        {
          "name": "C#4",
          "midi": 61,
          "time": 77.64697600000038,
          "velocity": 0.7480314960629921,
          "duration": 0.22058800000000645
        },
        {
          "name": "F#4",
          "midi": 66,
          "time": 77.86756400000039,
          "velocity": 0.7480314960629921,
          "duration": 0.22058800000000645
        },
        {
          "name": "C#4",
          "midi": 61,
          "time": 77.86756400000039,
          "velocity": 0.7480314960629921,
          "duration": 0.22058800000000645
        },
        {
          "name": "F#4",
          "midi": 66,
          "time": 78.08815200000039,
          "velocity": 0.7480314960629921,
          "duration": 0.22058800000000645
        },
        {
          "name": "C#4",
          "midi": 61,
          "time": 78.08815200000039,
          "velocity": 0.7480314960629921,
          "duration": 0.22058800000000645
        },
        {
          "name": "F#4",
          "midi": 66,
          "time": 78.3087400000004,
          "velocity": 0.7480314960629921,
          "duration": 0.22058800000000645
        },
        {
          "name": "C#4",
          "midi": 61,
          "time": 78.3087400000004,
          "velocity": 0.7480314960629921,
          "duration": 0.22058800000000645
        },
        {
          "name": "F#4",
          "midi": 66,
          "time": 78.5293280000004,
          "velocity": 0.7480314960629921,
          "duration": 0.22058800000000645
        },
        {
          "name": "C#4",
          "midi": 61,
          "time": 78.5293280000004,
          "velocity": 0.7480314960629921,
          "duration": 0.22058800000000645
        },
        {
          "name": "F#4",
          "midi": 66,
          "time": 78.74991600000041,
          "velocity": 0.7480314960629921,
          "duration": 0.22058800000000645
        },
        {
          "name": "C#4",
          "midi": 61,
          "time": 78.74991600000041,
          "velocity": 0.7480314960629921,
          "duration": 0.22058800000000645
        },
        {
          "name": "F#4",
          "midi": 66,
          "time": 78.97050400000042,
          "velocity": 0.7480314960629921,
          "duration": 0.22058800000000645
        },
        {
          "name": "C#4",
          "midi": 61,
          "time": 78.97050400000042,
          "velocity": 0.7480314960629921,
          "duration": 0.22058800000000645
        },
        {
          "name": "F#4",
          "midi": 66,
          "time": 79.19109200000042,
          "velocity": 0.7480314960629921,
          "duration": 0.22058800000000645
        },
        {
          "name": "C#4",
          "midi": 61,
          "time": 79.19109200000042,
          "velocity": 0.7480314960629921,
          "duration": 0.22058800000000645
        },
        {
          "name": "G4",
          "midi": 67,
          "time": 79.41168000000043,
          "velocity": 0.7480314960629921,
          "duration": 0.22058800000000645
        },
        {
          "name": "D4",
          "midi": 62,
          "time": 79.41168000000043,
          "velocity": 0.7480314960629921,
          "duration": 0.22058800000000645
        },
        {
          "name": "B3",
          "midi": 59,
          "time": 79.41168000000043,
          "velocity": 0.7480314960629921,
          "duration": 0.22058800000000645
        },
        {
          "name": "G4",
          "midi": 67,
          "time": 79.63226800000044,
          "velocity": 0.7480314960629921,
          "duration": 0.22058800000000645
        },
        {
          "name": "D4",
          "midi": 62,
          "time": 79.63226800000044,
          "velocity": 0.7480314960629921,
          "duration": 0.22058800000000645
        },
        {
          "name": "B3",
          "midi": 59,
          "time": 79.63226800000044,
          "velocity": 0.7480314960629921,
          "duration": 0.22058800000000645
        },
        {
          "name": "G4",
          "midi": 67,
          "time": 79.85285600000044,
          "velocity": 0.7480314960629921,
          "duration": 0.22058800000000645
        },
        {
          "name": "D4",
          "midi": 62,
          "time": 79.85285600000044,
          "velocity": 0.7480314960629921,
          "duration": 0.22058800000000645
        },
        {
          "name": "B3",
          "midi": 59,
          "time": 79.85285600000044,
          "velocity": 0.7480314960629921,
          "duration": 0.22058800000000645
        },
        {
          "name": "G4",
          "midi": 67,
          "time": 80.07344400000045,
          "velocity": 0.7480314960629921,
          "duration": 0.22058800000000645
        },
        {
          "name": "D4",
          "midi": 62,
          "time": 80.07344400000045,
          "velocity": 0.7480314960629921,
          "duration": 0.22058800000000645
        },
        {
          "name": "B3",
          "midi": 59,
          "time": 80.07344400000045,
          "velocity": 0.7480314960629921,
          "duration": 0.22058800000000645
        },
        {
          "name": "G4",
          "midi": 67,
          "time": 80.29403200000046,
          "velocity": 0.7480314960629921,
          "duration": 0.22058800000000645
        },
        {
          "name": "D4",
          "midi": 62,
          "time": 80.29403200000046,
          "velocity": 0.7480314960629921,
          "duration": 0.22058800000000645
        },
        {
          "name": "B3",
          "midi": 59,
          "time": 80.29403200000046,
          "velocity": 0.7480314960629921,
          "duration": 0.22058800000000645
        },
        {
          "name": "G4",
          "midi": 67,
          "time": 80.51462000000046,
          "velocity": 0.7480314960629921,
          "duration": 0.22058800000000645
        },
        {
          "name": "D4",
          "midi": 62,
          "time": 80.51462000000046,
          "velocity": 0.7480314960629921,
          "duration": 0.22058800000000645
        },
        {
          "name": "B3",
          "midi": 59,
          "time": 80.51462000000046,
          "velocity": 0.7480314960629921,
          "duration": 0.22058800000000645
        },
        {
          "name": "G4",
          "midi": 67,
          "time": 80.73520800000047,
          "velocity": 0.7480314960629921,
          "duration": 0.22058800000000645
        },
        {
          "name": "D4",
          "midi": 62,
          "time": 80.73520800000047,
          "velocity": 0.7480314960629921,
          "duration": 0.22058800000000645
        },
        {
          "name": "B3",
          "midi": 59,
          "time": 80.73520800000047,
          "velocity": 0.7480314960629921,
          "duration": 0.22058800000000645
        },
        {
          "name": "G4",
          "midi": 67,
          "time": 80.95579600000048,
          "velocity": 0.7480314960629921,
          "duration": 0.22058800000000645
        },
        {
          "name": "D4",
          "midi": 62,
          "time": 80.95579600000048,
          "velocity": 0.7480314960629921,
          "duration": 0.22058800000000645
        },
        {
          "name": "B3",
          "midi": 59,
          "time": 80.95579600000048,
          "velocity": 0.7480314960629921,
          "duration": 0.22058800000000645
        },
        {
          "name": "G4",
          "midi": 67,
          "time": 81.17638400000048,
          "velocity": 0.7480314960629921,
          "duration": 0.22058800000000645
        },
        {
          "name": "D4",
          "midi": 62,
          "time": 81.17638400000048,
          "velocity": 0.7480314960629921,
          "duration": 0.22058800000000645
        },
        {
          "name": "B3",
          "midi": 59,
          "time": 81.17638400000048,
          "velocity": 0.7480314960629921,
          "duration": 0.22058800000000645
        },
        {
          "name": "G4",
          "midi": 67,
          "time": 81.39697200000049,
          "velocity": 0.7480314960629921,
          "duration": 0.22058800000000645
        },
        {
          "name": "D4",
          "midi": 62,
          "time": 81.39697200000049,
          "velocity": 0.7480314960629921,
          "duration": 0.22058800000000645
        },
        {
          "name": "B3",
          "midi": 59,
          "time": 81.39697200000049,
          "velocity": 0.7480314960629921,
          "duration": 0.22058800000000645
        },
        {
          "name": "G4",
          "midi": 67,
          "time": 81.6175600000005,
          "velocity": 0.7480314960629921,
          "duration": 0.22058800000000645
        },
        {
          "name": "D4",
          "midi": 62,
          "time": 81.6175600000005,
          "velocity": 0.7480314960629921,
          "duration": 0.22058800000000645
        },
        {
          "name": "B3",
          "midi": 59,
          "time": 81.6175600000005,
          "velocity": 0.7480314960629921,
          "duration": 0.22058800000000645
        },
        {
          "name": "G4",
          "midi": 67,
          "time": 81.8381480000005,
          "velocity": 0.7480314960629921,
          "duration": 0.22058800000000645
        },
        {
          "name": "D4",
          "midi": 62,
          "time": 81.8381480000005,
          "velocity": 0.7480314960629921,
          "duration": 0.22058800000000645
        },
        {
          "name": "B3",
          "midi": 59,
          "time": 81.8381480000005,
          "velocity": 0.7480314960629921,
          "duration": 0.22058800000000645
        },
        {
          "name": "G4",
          "midi": 67,
          "time": 82.05873600000051,
          "velocity": 0.7480314960629921,
          "duration": 0.22058800000000645
        },
        {
          "name": "D4",
          "midi": 62,
          "time": 82.05873600000051,
          "velocity": 0.7480314960629921,
          "duration": 0.22058800000000645
        },
        {
          "name": "B3",
          "midi": 59,
          "time": 82.05873600000051,
          "velocity": 0.7480314960629921,
          "duration": 0.22058800000000645
        },
        {
          "name": "E4",
          "midi": 64,
          "time": 82.27932400000051,
          "velocity": 0.7480314960629921,
          "duration": 0.22058800000000645
        },
        {
          "name": "C#4",
          "midi": 61,
          "time": 82.27932400000051,
          "velocity": 0.7480314960629921,
          "duration": 0.22058800000000645
        },
        {
          "name": "A3",
          "midi": 57,
          "time": 82.27932400000051,
          "velocity": 0.7480314960629921,
          "duration": 0.22058800000000645
        },
        {
          "name": "A4",
          "midi": 69,
          "time": 82.49991200000052,
          "velocity": 0.7480314960629921,
          "duration": 0.22058800000000645
        },
        {
          "name": "E4",
          "midi": 64,
          "time": 82.49991200000052,
          "velocity": 0.7480314960629921,
          "duration": 0.22058800000000645
        },
        {
          "name": "C#4",
          "midi": 61,
          "time": 82.49991200000052,
          "velocity": 0.7480314960629921,
          "duration": 0.22058800000000645
        },
        {
          "name": "A3",
          "midi": 57,
          "time": 82.49991200000052,
          "velocity": 0.7480314960629921,
          "duration": 0.22058800000000645
        },
        {
          "name": "A4",
          "midi": 69,
          "time": 82.72050000000053,
          "velocity": 0.7480314960629921,
          "duration": 0.22058800000000645
        },
        {
          "name": "E4",
          "midi": 64,
          "time": 82.72050000000053,
          "velocity": 0.7480314960629921,
          "duration": 0.22058800000000645
        },
        {
          "name": "C#4",
          "midi": 61,
          "time": 82.72050000000053,
          "velocity": 0.7480314960629921,
          "duration": 0.22058800000000645
        },
        {
          "name": "A3",
          "midi": 57,
          "time": 82.72050000000053,
          "velocity": 0.7480314960629921,
          "duration": 0.22058800000000645
        },
        {
          "name": "F#4",
          "midi": 66,
          "time": 82.94108800000053,
          "velocity": 0.7480314960629921,
          "duration": 0.22058800000000645
        },
        {
          "name": "D4",
          "midi": 62,
          "time": 82.94108800000053,
          "velocity": 0.7480314960629921,
          "duration": 0.22058800000000645
        },
        {
          "name": "A3",
          "midi": 57,
          "time": 82.94108800000053,
          "velocity": 0.7480314960629921,
          "duration": 0.22058800000000645
        },
        {
          "name": "D3",
          "midi": 50,
          "time": 82.94108800000053,
          "velocity": 0.5984251968503937,
          "duration": 0.22058800000000645
        },
        {
          "name": "A2",
          "midi": 45,
          "time": 82.94108800000053,
          "velocity": 0.7480314960629921,
          "duration": 0.22058800000000645
        },
        {
          "name": "F#4",
          "midi": 66,
          "time": 83.16167600000054,
          "velocity": 0.7480314960629921,
          "duration": 0.22058800000000645
        },
        {
          "name": "D4",
          "midi": 62,
          "time": 83.16167600000054,
          "velocity": 0.7480314960629921,
          "duration": 0.22058800000000645
        },
        {
          "name": "A3",
          "midi": 57,
          "time": 83.16167600000054,
          "velocity": 0.7480314960629921,
          "duration": 0.22058800000000645
        },
        {
          "name": "D3",
          "midi": 50,
          "time": 83.16167600000054,
          "velocity": 0.7480314960629921,
          "duration": 0.22058800000000645
        },
        {
          "name": "A2",
          "midi": 45,
          "time": 83.16167600000054,
          "velocity": 0.7480314960629921,
          "duration": 0.22058800000000645
        },
        {
          "name": "F#4",
          "midi": 66,
          "time": 83.38226400000055,
          "velocity": 0.7480314960629921,
          "duration": 0.22058800000000645
        },
        {
          "name": "D4",
          "midi": 62,
          "time": 83.38226400000055,
          "velocity": 0.7480314960629921,
          "duration": 0.22058800000000645
        },
        {
          "name": "A3",
          "midi": 57,
          "time": 83.38226400000055,
          "velocity": 0.7480314960629921,
          "duration": 0.22058800000000645
        },
        {
          "name": "D3",
          "midi": 50,
          "time": 83.38226400000055,
          "velocity": 0.7480314960629921,
          "duration": 0.22058800000000645
        },
        {
          "name": "A2",
          "midi": 45,
          "time": 83.38226400000055,
          "velocity": 0.7480314960629921,
          "duration": 0.22058800000000645
        },
        {
          "name": "F#4",
          "midi": 66,
          "time": 83.60285200000055,
          "velocity": 0.7480314960629921,
          "duration": 0.22058800000000645
        },
        {
          "name": "D4",
          "midi": 62,
          "time": 83.60285200000055,
          "velocity": 0.7480314960629921,
          "duration": 0.22058800000000645
        },
        {
          "name": "A3",
          "midi": 57,
          "time": 83.60285200000055,
          "velocity": 0.7480314960629921,
          "duration": 0.22058800000000645
        },
        {
          "name": "D3",
          "midi": 50,
          "time": 83.60285200000055,
          "velocity": 0.7480314960629921,
          "duration": 0.22058800000000645
        },
        {
          "name": "A2",
          "midi": 45,
          "time": 83.60285200000055,
          "velocity": 0.7480314960629921,
          "duration": 0.22058800000000645
        },
        {
          "name": "F#4",
          "midi": 66,
          "time": 83.82344000000056,
          "velocity": 0.7480314960629921,
          "duration": 0.22058800000000645
        },
        {
          "name": "D4",
          "midi": 62,
          "time": 83.82344000000056,
          "velocity": 0.7480314960629921,
          "duration": 0.22058800000000645
        },
        {
          "name": "A3",
          "midi": 57,
          "time": 83.82344000000056,
          "velocity": 0.7480314960629921,
          "duration": 0.22058800000000645
        },
        {
          "name": "D3",
          "midi": 50,
          "time": 83.82344000000056,
          "velocity": 0.7480314960629921,
          "duration": 0.22058800000000645
        },
        {
          "name": "A2",
          "midi": 45,
          "time": 83.82344000000056,
          "velocity": 0.7480314960629921,
          "duration": 0.22058800000000645
        },
        {
          "name": "F#4",
          "midi": 66,
          "time": 84.04402800000057,
          "velocity": 0.7480314960629921,
          "duration": 0.22058800000000645
        },
        {
          "name": "D4",
          "midi": 62,
          "time": 84.04402800000057,
          "velocity": 0.7480314960629921,
          "duration": 0.22058800000000645
        },
        {
          "name": "A3",
          "midi": 57,
          "time": 84.04402800000057,
          "velocity": 0.7480314960629921,
          "duration": 0.22058800000000645
        },
        {
          "name": "D3",
          "midi": 50,
          "time": 84.04402800000057,
          "velocity": 0.7480314960629921,
          "duration": 0.22058800000000645
        },
        {
          "name": "A2",
          "midi": 45,
          "time": 84.04402800000057,
          "velocity": 0.7480314960629921,
          "duration": 0.22058800000000645
        },
        {
          "name": "F#4",
          "midi": 66,
          "time": 84.26461600000057,
          "velocity": 0.7480314960629921,
          "duration": 0.22058800000000645
        },
        {
          "name": "D4",
          "midi": 62,
          "time": 84.26461600000057,
          "velocity": 0.7480314960629921,
          "duration": 0.22058800000000645
        },
        {
          "name": "A3",
          "midi": 57,
          "time": 84.26461600000057,
          "velocity": 0.7480314960629921,
          "duration": 0.22058800000000645
        },
        {
          "name": "D3",
          "midi": 50,
          "time": 84.26461600000057,
          "velocity": 0.7480314960629921,
          "duration": 0.22058800000000645
        },
        {
          "name": "A2",
          "midi": 45,
          "time": 84.26461600000057,
          "velocity": 0.7480314960629921,
          "duration": 0.22058800000000645
        },
        {
          "name": "F#4",
          "midi": 66,
          "time": 84.48520400000058,
          "velocity": 0.7480314960629921,
          "duration": 0.22058800000000645
        },
        {
          "name": "D4",
          "midi": 62,
          "time": 84.48520400000058,
          "velocity": 0.7480314960629921,
          "duration": 0.22058800000000645
        },
        {
          "name": "A3",
          "midi": 57,
          "time": 84.48520400000058,
          "velocity": 0.7480314960629921,
          "duration": 0.22058800000000645
        },
        {
          "name": "D3",
          "midi": 50,
          "time": 84.48520400000058,
          "velocity": 0.7480314960629921,
          "duration": 0.22058800000000645
        },
        {
          "name": "A2",
          "midi": 45,
          "time": 84.48520400000058,
          "velocity": 0.7480314960629921,
          "duration": 0.22058800000000645
        },
        {
          "name": "F#4",
          "midi": 66,
          "time": 84.70579200000059,
          "velocity": 0.7480314960629921,
          "duration": 0.22058800000000645
        },
        {
          "name": "D4",
          "midi": 62,
          "time": 84.70579200000059,
          "velocity": 0.7480314960629921,
          "duration": 0.22058800000000645
        },
        {
          "name": "A3",
          "midi": 57,
          "time": 84.70579200000059,
          "velocity": 0.7480314960629921,
          "duration": 0.22058800000000645
        },
        {
          "name": "D3",
          "midi": 50,
          "time": 84.70579200000059,
          "velocity": 0.7480314960629921,
          "duration": 0.22058800000000645
        },
        {
          "name": "A2",
          "midi": 45,
          "time": 84.70579200000059,
          "velocity": 0.7480314960629921,
          "duration": 0.22058800000000645
        },
        {
          "name": "F#4",
          "midi": 66,
          "time": 84.92638000000059,
          "velocity": 0.7480314960629921,
          "duration": 0.22058800000000645
        },
        {
          "name": "D4",
          "midi": 62,
          "time": 84.92638000000059,
          "velocity": 0.7480314960629921,
          "duration": 0.22058800000000645
        },
        {
          "name": "A3",
          "midi": 57,
          "time": 84.92638000000059,
          "velocity": 0.7480314960629921,
          "duration": 0.22058800000000645
        },
        {
          "name": "D3",
          "midi": 50,
          "time": 84.92638000000059,
          "velocity": 0.7480314960629921,
          "duration": 0.22058800000000645
        },
        {
          "name": "A2",
          "midi": 45,
          "time": 84.92638000000059,
          "velocity": 0.7480314960629921,
          "duration": 0.22058800000000645
        },
        {
          "name": "F#4",
          "midi": 66,
          "time": 85.1469680000006,
          "velocity": 0.7480314960629921,
          "duration": 0.22058800000000645
        },
        {
          "name": "D4",
          "midi": 62,
          "time": 85.1469680000006,
          "velocity": 0.7480314960629921,
          "duration": 0.22058800000000645
        },
        {
          "name": "A3",
          "midi": 57,
          "time": 85.1469680000006,
          "velocity": 0.7480314960629921,
          "duration": 0.22058800000000645
        },
        {
          "name": "D3",
          "midi": 50,
          "time": 85.1469680000006,
          "velocity": 0.7480314960629921,
          "duration": 0.22058800000000645
        },
        {
          "name": "A2",
          "midi": 45,
          "time": 85.1469680000006,
          "velocity": 0.7480314960629921,
          "duration": 0.22058800000000645
        },
        {
          "name": "F#4",
          "midi": 66,
          "time": 85.3675560000006,
          "velocity": 0.7480314960629921,
          "duration": 0.22058800000000645
        },
        {
          "name": "D4",
          "midi": 62,
          "time": 85.3675560000006,
          "velocity": 0.7480314960629921,
          "duration": 0.22058800000000645
        },
        {
          "name": "A3",
          "midi": 57,
          "time": 85.3675560000006,
          "velocity": 0.7480314960629921,
          "duration": 0.22058800000000645
        },
        {
          "name": "D3",
          "midi": 50,
          "time": 85.3675560000006,
          "velocity": 0.7480314960629921,
          "duration": 0.22058800000000645
        },
        {
          "name": "A2",
          "midi": 45,
          "time": 85.3675560000006,
          "velocity": 0.7480314960629921,
          "duration": 0.22058800000000645
        },
        {
          "name": "F#4",
          "midi": 66,
          "time": 85.58814400000061,
          "velocity": 0.7480314960629921,
          "duration": 0.22058800000000645
        },
        {
          "name": "D4",
          "midi": 62,
          "time": 85.58814400000061,
          "velocity": 0.7480314960629921,
          "duration": 0.22058800000000645
        },
        {
          "name": "A3",
          "midi": 57,
          "time": 85.58814400000061,
          "velocity": 0.7480314960629921,
          "duration": 0.22058800000000645
        },
        {
          "name": "D3",
          "midi": 50,
          "time": 85.58814400000061,
          "velocity": 0.7480314960629921,
          "duration": 0.22058800000000645
        },
        {
          "name": "A2",
          "midi": 45,
          "time": 85.58814400000061,
          "velocity": 0.7480314960629921,
          "duration": 0.22058800000000645
        },
        {
          "name": "F#4",
          "midi": 66,
          "time": 85.80873200000062,
          "velocity": 0.7480314960629921,
          "duration": 0.22058800000000645
        },
        {
          "name": "D4",
          "midi": 62,
          "time": 85.80873200000062,
          "velocity": 0.7480314960629921,
          "duration": 0.22058800000000645
        },
        {
          "name": "A3",
          "midi": 57,
          "time": 85.80873200000062,
          "velocity": 0.7480314960629921,
          "duration": 0.22058800000000645
        },
        {
          "name": "D3",
          "midi": 50,
          "time": 85.80873200000062,
          "velocity": 0.7480314960629921,
          "duration": 0.22058800000000645
        },
        {
          "name": "A2",
          "midi": 45,
          "time": 85.80873200000062,
          "velocity": 0.7480314960629921,
          "duration": 0.22058800000000645
        },
        {
          "name": "F#4",
          "midi": 66,
          "time": 86.02932000000062,
          "velocity": 0.7480314960629921,
          "duration": 0.22058800000000645
        },
        {
          "name": "D4",
          "midi": 62,
          "time": 86.02932000000062,
          "velocity": 0.7480314960629921,
          "duration": 0.22058800000000645
        },
        {
          "name": "A3",
          "midi": 57,
          "time": 86.02932000000062,
          "velocity": 0.7480314960629921,
          "duration": 0.22058800000000645
        },
        {
          "name": "D3",
          "midi": 50,
          "time": 86.02932000000062,
          "velocity": 0.7480314960629921,
          "duration": 0.22058800000000645
        },
        {
          "name": "A2",
          "midi": 45,
          "time": 86.02932000000062,
          "velocity": 0.7480314960629921,
          "duration": 0.22058800000000645
        },
        {
          "name": "F#4",
          "midi": 66,
          "time": 86.24990800000063,
          "velocity": 0.7480314960629921,
          "duration": 0.22058800000000645
        },
        {
          "name": "D4",
          "midi": 62,
          "time": 86.24990800000063,
          "velocity": 0.7480314960629921,
          "duration": 0.22058800000000645
        },
        {
          "name": "A3",
          "midi": 57,
          "time": 86.24990800000063,
          "velocity": 0.7480314960629921,
          "duration": 0.22058800000000645
        },
        {
          "name": "D3",
          "midi": 50,
          "time": 86.24990800000063,
          "velocity": 0.7480314960629921,
          "duration": 0.22058800000000645
        },
        {
          "name": "A2",
          "midi": 45,
          "time": 86.24990800000063,
          "velocity": 0.7480314960629921,
          "duration": 0.22058800000000645
        },
        {
          "name": "E4",
          "midi": 64,
          "time": 128.82339200000064,
          "velocity": 0.7480314960629921,
          "duration": 0.018382333333335055
        },
        {
          "name": "B3",
          "midi": 59,
          "time": 128.82339200000064,
          "velocity": 0.7480314960629921,
          "duration": 0.018382333333335055
        },
        {
          "name": "G3",
          "midi": 55,
          "time": 128.82339200000064,
          "velocity": 0.7480314960629921,
          "duration": 0.018382333333335055
        },
        {
          "name": "D3",
          "midi": 50,
          "time": 128.82339200000064,
          "velocity": 0.7480314960629921,
          "duration": 0.018382333333335055
        },
        {
          "name": "A2",
          "midi": 45,
          "time": 128.82339200000064,
          "velocity": 0.7480314960629921,
          "duration": 0.018382333333335055
        },
        {
          "name": "F#2",
          "midi": 42,
          "time": 128.82339200000064,
          "velocity": 0.7480314960629921,
          "duration": 0.22058799999999223
        },
        {
          "name": "E4",
          "midi": 64,
          "time": 129.04398000000063,
          "velocity": 0.7480314960629921,
          "duration": 0.018382333333335055
        },
        {
          "name": "B3",
          "midi": 59,
          "time": 129.04398000000063,
          "velocity": 0.7480314960629921,
          "duration": 0.018382333333335055
        },
        {
          "name": "G3",
          "midi": 55,
          "time": 129.04398000000063,
          "velocity": 0.7480314960629921,
          "duration": 0.018382333333335055
        },
        {
          "name": "D3",
          "midi": 50,
          "time": 129.04398000000063,
          "velocity": 0.7480314960629921,
          "duration": 0.018382333333335055
        },
        {
          "name": "A2",
          "midi": 45,
          "time": 129.04398000000063,
          "velocity": 0.7480314960629921,
          "duration": 0.018382333333335055
        },
        {
          "name": "F#2",
          "midi": 42,
          "time": 129.04398000000063,
          "velocity": 0.7480314960629921,
          "duration": 0.22058799999999223
        },
        {
          "name": "E4",
          "midi": 64,
          "time": 129.26456800000062,
          "velocity": 0.7480314960629921,
          "duration": 0.018382333333335055
        },
        {
          "name": "B3",
          "midi": 59,
          "time": 129.26456800000062,
          "velocity": 0.7480314960629921,
          "duration": 0.018382333333335055
        },
        {
          "name": "G3",
          "midi": 55,
          "time": 129.26456800000062,
          "velocity": 0.7480314960629921,
          "duration": 0.018382333333335055
        },
        {
          "name": "D3",
          "midi": 50,
          "time": 129.26456800000062,
          "velocity": 0.7480314960629921,
          "duration": 0.018382333333335055
        },
        {
          "name": "A2",
          "midi": 45,
          "time": 129.26456800000062,
          "velocity": 0.7480314960629921,
          "duration": 0.018382333333335055
        },
        {
          "name": "F#2",
          "midi": 42,
          "time": 129.26456800000062,
          "velocity": 0.7480314960629921,
          "duration": 0.22058799999999223
        },
        {
          "name": "E4",
          "midi": 64,
          "time": 129.48515600000061,
          "velocity": 0.7480314960629921,
          "duration": 0.018382333333335055
        },
        {
          "name": "B3",
          "midi": 59,
          "time": 129.48515600000061,
          "velocity": 0.7480314960629921,
          "duration": 0.018382333333335055
        },
        {
          "name": "G3",
          "midi": 55,
          "time": 129.48515600000061,
          "velocity": 0.7480314960629921,
          "duration": 0.018382333333335055
        },
        {
          "name": "D3",
          "midi": 50,
          "time": 129.48515600000061,
          "velocity": 0.7480314960629921,
          "duration": 0.018382333333335055
        },
        {
          "name": "A2",
          "midi": 45,
          "time": 129.48515600000061,
          "velocity": 0.7480314960629921,
          "duration": 0.018382333333335055
        },
        {
          "name": "F#2",
          "midi": 42,
          "time": 129.48515600000061,
          "velocity": 0.7480314960629921,
          "duration": 0.22058799999999223
        },
        {
          "name": "E4",
          "midi": 64,
          "time": 129.7057440000006,
          "velocity": 0.7480314960629921,
          "duration": 0.018382333333335055
        },
        {
          "name": "B3",
          "midi": 59,
          "time": 129.7057440000006,
          "velocity": 0.7480314960629921,
          "duration": 0.018382333333335055
        },
        {
          "name": "G3",
          "midi": 55,
          "time": 129.7057440000006,
          "velocity": 0.7480314960629921,
          "duration": 0.018382333333335055
        },
        {
          "name": "D3",
          "midi": 50,
          "time": 129.7057440000006,
          "velocity": 0.7480314960629921,
          "duration": 0.018382333333335055
        },
        {
          "name": "C#3",
          "midi": 49,
          "time": 129.7057440000006,
          "velocity": 0.7480314960629921,
          "duration": 0.22058799999999223
        },
        {
          "name": "F#2",
          "midi": 42,
          "time": 129.7057440000006,
          "velocity": 0.7480314960629921,
          "duration": 0.22058799999999223
        },
        {
          "name": "E4",
          "midi": 64,
          "time": 129.9263320000006,
          "velocity": 0.7480314960629921,
          "duration": 0.018382333333335055
        },
        {
          "name": "B3",
          "midi": 59,
          "time": 129.9263320000006,
          "velocity": 0.7480314960629921,
          "duration": 0.018382333333335055
        },
        {
          "name": "G3",
          "midi": 55,
          "time": 129.9263320000006,
          "velocity": 0.7480314960629921,
          "duration": 0.018382333333335055
        },
        {
          "name": "D3",
          "midi": 50,
          "time": 129.9263320000006,
          "velocity": 0.7480314960629921,
          "duration": 0.018382333333335055
        },
        {
          "name": "C#3",
          "midi": 49,
          "time": 129.9263320000006,
          "velocity": 0.7480314960629921,
          "duration": 0.22058799999999223
        },
        {
          "name": "F#2",
          "midi": 42,
          "time": 129.9263320000006,
          "velocity": 0.7480314960629921,
          "duration": 0.22058799999999223
        },
        {
          "name": "E4",
          "midi": 64,
          "time": 130.1469200000006,
          "velocity": 0.7480314960629921,
          "duration": 0.018382333333335055
        },
        {
          "name": "B3",
          "midi": 59,
          "time": 130.1469200000006,
          "velocity": 0.7480314960629921,
          "duration": 0.018382333333335055
        },
        {
          "name": "G3",
          "midi": 55,
          "time": 130.1469200000006,
          "velocity": 0.7480314960629921,
          "duration": 0.018382333333335055
        },
        {
          "name": "D3",
          "midi": 50,
          "time": 130.1469200000006,
          "velocity": 0.7480314960629921,
          "duration": 0.018382333333335055
        },
        {
          "name": "C#3",
          "midi": 49,
          "time": 130.1469200000006,
          "velocity": 0.7480314960629921,
          "duration": 0.22058799999999223
        },
        {
          "name": "F#2",
          "midi": 42,
          "time": 130.1469200000006,
          "velocity": 0.7480314960629921,
          "duration": 0.22058799999999223
        },
        {
          "name": "E4",
          "midi": 64,
          "time": 130.36750800000058,
          "velocity": 0.7480314960629921,
          "duration": 0.018382333333335055
        },
        {
          "name": "B3",
          "midi": 59,
          "time": 130.36750800000058,
          "velocity": 0.7480314960629921,
          "duration": 0.018382333333335055
        },
        {
          "name": "G3",
          "midi": 55,
          "time": 130.36750800000058,
          "velocity": 0.7480314960629921,
          "duration": 0.018382333333335055
        },
        {
          "name": "D3",
          "midi": 50,
          "time": 130.36750800000058,
          "velocity": 0.7480314960629921,
          "duration": 0.018382333333335055
        },
        {
          "name": "C#3",
          "midi": 49,
          "time": 130.36750800000058,
          "velocity": 0.7480314960629921,
          "duration": 0.22058799999999223
        },
        {
          "name": "F#2",
          "midi": 42,
          "time": 130.36750800000058,
          "velocity": 0.7480314960629921,
          "duration": 0.22058799999999223
        },
        {
          "name": "E4",
          "midi": 64,
          "time": 130.58809600000058,
          "velocity": 0.7480314960629921,
          "duration": 0.018382333333335055
        },
        {
          "name": "C#4",
          "midi": 61,
          "time": 130.58809600000058,
          "velocity": 0.7480314960629921,
          "duration": 0.22058799999999223
        },
        {
          "name": "A#3",
          "midi": 58,
          "time": 130.58809600000058,
          "velocity": 0.7480314960629921,
          "duration": 0.22058799999999223
        },
        {
          "name": "F#3",
          "midi": 54,
          "time": 130.58809600000058,
          "velocity": 0.7480314960629921,
          "duration": 0.22058799999999223
        },
        {
          "name": "C#3",
          "midi": 49,
          "time": 130.58809600000058,
          "velocity": 0.7480314960629921,
          "duration": 0.22058799999999223
        },
        {
          "name": "F#2",
          "midi": 42,
          "time": 130.58809600000058,
          "velocity": 0.7480314960629921,
          "duration": 0.22058799999999223
        },
        {
          "name": "E4",
          "midi": 64,
          "time": 130.80868400000057,
          "velocity": 0.7480314960629921,
          "duration": 0.018382333333335055
        },
        {
          "name": "C#4",
          "midi": 61,
          "time": 130.80868400000057,
          "velocity": 0.7480314960629921,
          "duration": 0.22058799999999223
        },
        {
          "name": "A#3",
          "midi": 58,
          "time": 130.80868400000057,
          "velocity": 0.7480314960629921,
          "duration": 0.22058799999999223
        },
        {
          "name": "F#3",
          "midi": 54,
          "time": 130.80868400000057,
          "velocity": 0.7480314960629921,
          "duration": 0.22058799999999223
        },
        {
          "name": "C#3",
          "midi": 49,
          "time": 130.80868400000057,
          "velocity": 0.7480314960629921,
          "duration": 0.22058799999999223
        },
        {
          "name": "F#2",
          "midi": 42,
          "time": 130.80868400000057,
          "velocity": 0.7480314960629921,
          "duration": 0.22058799999999223
        },
        {
          "name": "E4",
          "midi": 64,
          "time": 131.02927200000056,
          "velocity": 0.7480314960629921,
          "duration": 0.018382333333335055
        },
        {
          "name": "C#4",
          "midi": 61,
          "time": 131.02927200000056,
          "velocity": 0.7480314960629921,
          "duration": 0.22058799999999223
        },
        {
          "name": "A#3",
          "midi": 58,
          "time": 131.02927200000056,
          "velocity": 0.7480314960629921,
          "duration": 0.22058799999999223
        },
        {
          "name": "F#3",
          "midi": 54,
          "time": 131.02927200000056,
          "velocity": 0.7480314960629921,
          "duration": 0.22058799999999223
        },
        {
          "name": "C#3",
          "midi": 49,
          "time": 131.02927200000056,
          "velocity": 0.7480314960629921,
          "duration": 0.22058799999999223
        },
        {
          "name": "F#2",
          "midi": 42,
          "time": 131.02927200000056,
          "velocity": 0.7480314960629921,
          "duration": 0.22058799999999223
        },
        {
          "name": "E4",
          "midi": 64,
          "time": 131.24986000000055,
          "velocity": 0.7480314960629921,
          "duration": 0.018382333333335055
        },
        {
          "name": "C#4",
          "midi": 61,
          "time": 131.24986000000055,
          "velocity": 0.7480314960629921,
          "duration": 0.22058799999999223
        },
        {
          "name": "A#3",
          "midi": 58,
          "time": 131.24986000000055,
          "velocity": 0.7480314960629921,
          "duration": 0.22058799999999223
        },
        {
          "name": "F#3",
          "midi": 54,
          "time": 131.24986000000055,
          "velocity": 0.7480314960629921,
          "duration": 0.22058799999999223
        },
        {
          "name": "C#3",
          "midi": 49,
          "time": 131.24986000000055,
          "velocity": 0.7480314960629921,
          "duration": 0.22058799999999223
        },
        {
          "name": "F#2",
          "midi": 42,
          "time": 131.24986000000055,
          "velocity": 0.7480314960629921,
          "duration": 0.22058799999999223
        },
        {
          "name": "E4",
          "midi": 64,
          "time": 131.47044800000054,
          "velocity": 0.7480314960629921,
          "duration": 0.018382333333335055
        },
        {
          "name": "C#4",
          "midi": 61,
          "time": 131.47044800000054,
          "velocity": 0.7480314960629921,
          "duration": 0.22058799999999223
        },
        {
          "name": "A#3",
          "midi": 58,
          "time": 131.47044800000054,
          "velocity": 0.7480314960629921,
          "duration": 0.22058799999999223
        },
        {
          "name": "F#3",
          "midi": 54,
          "time": 131.47044800000054,
          "velocity": 0.7480314960629921,
          "duration": 0.22058799999999223
        },
        {
          "name": "C#3",
          "midi": 49,
          "time": 131.47044800000054,
          "velocity": 0.7480314960629921,
          "duration": 0.22058799999999223
        },
        {
          "name": "F#2",
          "midi": 42,
          "time": 131.47044800000054,
          "velocity": 0.7480314960629921,
          "duration": 0.22058799999999223
        },
        {
          "name": "E4",
          "midi": 64,
          "time": 131.69103600000054,
          "velocity": 0.7480314960629921,
          "duration": 0.018382333333335055
        },
        {
          "name": "C#4",
          "midi": 61,
          "time": 131.69103600000054,
          "velocity": 0.7480314960629921,
          "duration": 0.22058799999999223
        },
        {
          "name": "A#3",
          "midi": 58,
          "time": 131.69103600000054,
          "velocity": 0.7480314960629921,
          "duration": 0.22058799999999223
        },
        {
          "name": "F#3",
          "midi": 54,
          "time": 131.69103600000054,
          "velocity": 0.7480314960629921,
          "duration": 0.22058799999999223
        },
        {
          "name": "C#3",
          "midi": 49,
          "time": 131.69103600000054,
          "velocity": 0.7480314960629921,
          "duration": 0.22058799999999223
        },
        {
          "name": "F#2",
          "midi": 42,
          "time": 131.69103600000054,
          "velocity": 0.7480314960629921,
          "duration": 0.22058799999999223
        },
        {
          "name": "E4",
          "midi": 64,
          "time": 131.91162400000053,
          "velocity": 0.7480314960629921,
          "duration": 0.018382333333335055
        },
        {
          "name": "C#4",
          "midi": 61,
          "time": 131.91162400000053,
          "velocity": 0.7480314960629921,
          "duration": 0.22058799999999223
        },
        {
          "name": "A#3",
          "midi": 58,
          "time": 131.91162400000053,
          "velocity": 0.7480314960629921,
          "duration": 0.22058799999999223
        },
        {
          "name": "F#3",
          "midi": 54,
          "time": 131.91162400000053,
          "velocity": 0.7480314960629921,
          "duration": 0.22058799999999223
        },
        {
          "name": "C#3",
          "midi": 49,
          "time": 131.91162400000053,
          "velocity": 0.7480314960629921,
          "duration": 0.22058799999999223
        },
        {
          "name": "F#2",
          "midi": 42,
          "time": 131.91162400000053,
          "velocity": 0.7480314960629921,
          "duration": 0.22058799999999223
        },
        {
          "name": "G3",
          "midi": 55,
          "time": 132.13221200000052,
          "velocity": 0.7480314960629921,
          "duration": 0.22058799999999223
        },
        {
          "name": "D3",
          "midi": 50,
          "time": 132.13221200000052,
          "velocity": 0.7480314960629921,
          "duration": 0.22058799999999223
        },
        {
          "name": "A2",
          "midi": 45,
          "time": 132.13221200000052,
          "velocity": 0.7480314960629921,
          "duration": 0.22058799999999223
        },
        {
          "name": "E2",
          "midi": 40,
          "time": 132.13221200000052,
          "velocity": 0.7480314960629921,
          "duration": 0.22058799999999223
        },
        {
          "name": "B3",
          "midi": 59,
          "time": 132.3528000000005,
          "velocity": 0.7480314960629921,
          "duration": 0.22058799999999223
        },
        {
          "name": "B3",
          "midi": 59,
          "time": 132.3528000000005,
          "velocity": 0.7480314960629921,
          "duration": 0.22058799999999223
        },
        {
          "name": "F#3",
          "midi": 54,
          "time": 132.3528000000005,
          "velocity": 0.7480314960629921,
          "duration": 0.018382333333335055
        },
        {
          "name": "B2",
          "midi": 47,
          "time": 132.3528000000005,
          "velocity": 0.7480314960629921,
          "duration": 0.22058799999999223
        },
        {
          "name": "B3",
          "midi": 59,
          "time": 132.5733880000005,
          "velocity": 0.7480314960629921,
          "duration": 0.22058799999999223
        },
        {
          "name": "B3",
          "midi": 59,
          "time": 132.5733880000005,
          "velocity": 0.7480314960629921,
          "duration": 0.22058799999999223
        },
        {
          "name": "F#3",
          "midi": 54,
          "time": 132.5733880000005,
          "velocity": 0.7480314960629921,
          "duration": 0.018382333333335055
        },
        {
          "name": "B2",
          "midi": 47,
          "time": 132.5733880000005,
          "velocity": 0.7480314960629921,
          "duration": 0.22058799999999223
        },
        {
          "name": "B3",
          "midi": 59,
          "time": 132.7939760000005,
          "velocity": 0.7480314960629921,
          "duration": 0.22058799999999223
        },
        {
          "name": "B3",
          "midi": 59,
          "time": 132.7939760000005,
          "velocity": 0.7480314960629921,
          "duration": 0.22058799999999223
        },
        {
          "name": "F#3",
          "midi": 54,
          "time": 132.7939760000005,
          "velocity": 0.7480314960629921,
          "duration": 0.018382333333335055
        },
        {
          "name": "B2",
          "midi": 47,
          "time": 132.7939760000005,
          "velocity": 0.7480314960629921,
          "duration": 0.22058799999999223
        },
        {
          "name": "B3",
          "midi": 59,
          "time": 133.0145640000005,
          "velocity": 0.7480314960629921,
          "duration": 0.22058799999999223
        },
        {
          "name": "B3",
          "midi": 59,
          "time": 133.0145640000005,
          "velocity": 0.7480314960629921,
          "duration": 0.22058799999999223
        },
        {
          "name": "F#3",
          "midi": 54,
          "time": 133.0145640000005,
          "velocity": 0.7480314960629921,
          "duration": 0.018382333333335055
        },
        {
          "name": "B2",
          "midi": 47,
          "time": 133.0145640000005,
          "velocity": 0.7480314960629921,
          "duration": 0.22058799999999223
        },
        {
          "name": "B3",
          "midi": 59,
          "time": 133.23515200000048,
          "velocity": 0.7480314960629921,
          "duration": 0.22058799999999223
        },
        {
          "name": "B3",
          "midi": 59,
          "time": 133.23515200000048,
          "velocity": 0.7480314960629921,
          "duration": 0.22058799999999223
        },
        {
          "name": "F#3",
          "midi": 54,
          "time": 133.23515200000048,
          "velocity": 0.7480314960629921,
          "duration": 0.018382333333335055
        },
        {
          "name": "B2",
          "midi": 47,
          "time": 133.23515200000048,
          "velocity": 0.7480314960629921,
          "duration": 0.22058799999999223
        },
        {
          "name": "B3",
          "midi": 59,
          "time": 133.45574000000047,
          "velocity": 0.7480314960629921,
          "duration": 0.22058799999999223
        },
        {
          "name": "B3",
          "midi": 59,
          "time": 133.45574000000047,
          "velocity": 0.7480314960629921,
          "duration": 0.22058799999999223
        },
        {
          "name": "F#3",
          "midi": 54,
          "time": 133.45574000000047,
          "velocity": 0.7480314960629921,
          "duration": 0.018382333333335055
        },
        {
          "name": "B2",
          "midi": 47,
          "time": 133.45574000000047,
          "velocity": 0.7480314960629921,
          "duration": 0.22058799999999223
        },
        {
          "name": "B3",
          "midi": 59,
          "time": 133.67632800000047,
          "velocity": 0.7480314960629921,
          "duration": 0.22058799999999223
        },
        {
          "name": "B3",
          "midi": 59,
          "time": 133.67632800000047,
          "velocity": 0.7480314960629921,
          "duration": 0.22058799999999223
        },
        {
          "name": "F#3",
          "midi": 54,
          "time": 133.67632800000047,
          "velocity": 0.7480314960629921,
          "duration": 0.018382333333335055
        },
        {
          "name": "B2",
          "midi": 47,
          "time": 133.67632800000047,
          "velocity": 0.7480314960629921,
          "duration": 0.22058799999999223
        },
        {
          "name": "B3",
          "midi": 59,
          "time": 133.89691600000046,
          "velocity": 0.7480314960629921,
          "duration": 0.22058799999999223
        },
        {
          "name": "B3",
          "midi": 59,
          "time": 133.89691600000046,
          "velocity": 0.7480314960629921,
          "duration": 0.22058799999999223
        },
        {
          "name": "F#3",
          "midi": 54,
          "time": 133.89691600000046,
          "velocity": 0.7480314960629921,
          "duration": 0.018382333333335055
        },
        {
          "name": "B2",
          "midi": 47,
          "time": 133.89691600000046,
          "velocity": 0.7480314960629921,
          "duration": 0.22058799999999223
        },
        {
          "name": "B3",
          "midi": 59,
          "time": 134.11750400000045,
          "velocity": 0.7480314960629921,
          "duration": 0.22058799999999223
        },
        {
          "name": "B3",
          "midi": 59,
          "time": 134.11750400000045,
          "velocity": 0.7480314960629921,
          "duration": 0.22058799999999223
        },
        {
          "name": "F#3",
          "midi": 54,
          "time": 134.11750400000045,
          "velocity": 0.7480314960629921,
          "duration": 0.018382333333335055
        },
        {
          "name": "B2",
          "midi": 47,
          "time": 134.11750400000045,
          "velocity": 0.7480314960629921,
          "duration": 0.22058799999999223
        },
        {
          "name": "B3",
          "midi": 59,
          "time": 134.33809200000044,
          "velocity": 0.7480314960629921,
          "duration": 0.22058799999999223
        },
        {
          "name": "B3",
          "midi": 59,
          "time": 134.33809200000044,
          "velocity": 0.7480314960629921,
          "duration": 0.22058799999999223
        },
        {
          "name": "F#3",
          "midi": 54,
          "time": 134.33809200000044,
          "velocity": 0.7480314960629921,
          "duration": 0.018382333333335055
        },
        {
          "name": "B2",
          "midi": 47,
          "time": 134.33809200000044,
          "velocity": 0.7480314960629921,
          "duration": 0.22058799999999223
        },
        {
          "name": "B3",
          "midi": 59,
          "time": 134.55868000000044,
          "velocity": 0.7480314960629921,
          "duration": 0.22058799999999223
        },
        {
          "name": "B3",
          "midi": 59,
          "time": 134.55868000000044,
          "velocity": 0.7480314960629921,
          "duration": 0.22058799999999223
        },
        {
          "name": "F#3",
          "midi": 54,
          "time": 134.55868000000044,
          "velocity": 0.7480314960629921,
          "duration": 0.018382333333335055
        },
        {
          "name": "B2",
          "midi": 47,
          "time": 134.55868000000044,
          "velocity": 0.7480314960629921,
          "duration": 0.22058799999999223
        },
        {
          "name": "B3",
          "midi": 59,
          "time": 134.77926800000043,
          "velocity": 0.7480314960629921,
          "duration": 0.22058799999999223
        },
        {
          "name": "B3",
          "midi": 59,
          "time": 134.77926800000043,
          "velocity": 0.7480314960629921,
          "duration": 0.22058799999999223
        },
        {
          "name": "F#3",
          "midi": 54,
          "time": 134.77926800000043,
          "velocity": 0.7480314960629921,
          "duration": 0.018382333333335055
        },
        {
          "name": "B2",
          "midi": 47,
          "time": 134.77926800000043,
          "velocity": 0.7480314960629921,
          "duration": 0.22058799999999223
        },
        {
          "name": "B3",
          "midi": 59,
          "time": 134.99985600000042,
          "velocity": 0.7480314960629921,
          "duration": 0.22058799999999223
        },
        {
          "name": "B3",
          "midi": 59,
          "time": 134.99985600000042,
          "velocity": 0.7480314960629921,
          "duration": 0.22058799999999223
        },
        {
          "name": "F#3",
          "midi": 54,
          "time": 134.99985600000042,
          "velocity": 0.7480314960629921,
          "duration": 0.018382333333335055
        },
        {
          "name": "B2",
          "midi": 47,
          "time": 134.99985600000042,
          "velocity": 0.7480314960629921,
          "duration": 0.22058799999999223
        },
        {
          "name": "B3",
          "midi": 59,
          "time": 135.2204440000004,
          "velocity": 0.7480314960629921,
          "duration": 0.22058799999999223
        },
        {
          "name": "B3",
          "midi": 59,
          "time": 135.2204440000004,
          "velocity": 0.7480314960629921,
          "duration": 0.22058799999999223
        },
        {
          "name": "F#3",
          "midi": 54,
          "time": 135.2204440000004,
          "velocity": 0.7480314960629921,
          "duration": 0.018382333333335055
        },
        {
          "name": "B2",
          "midi": 47,
          "time": 135.2204440000004,
          "velocity": 0.7480314960629921,
          "duration": 0.22058799999999223
        },
        {
          "name": "B3",
          "midi": 59,
          "time": 135.4410320000004,
          "velocity": 0.7480314960629921,
          "duration": 0.22058799999999223
        },
        {
          "name": "B3",
          "midi": 59,
          "time": 135.4410320000004,
          "velocity": 0.7480314960629921,
          "duration": 0.22058799999999223
        },
        {
          "name": "F#3",
          "midi": 54,
          "time": 135.4410320000004,
          "velocity": 0.7480314960629921,
          "duration": 0.018382333333335055
        },
        {
          "name": "B2",
          "midi": 47,
          "time": 135.4410320000004,
          "velocity": 0.7480314960629921,
          "duration": 0.22058799999999223
        },
        {
          "name": "B3",
          "midi": 59,
          "time": 135.6616200000004,
          "velocity": 0.7480314960629921,
          "duration": 0.22058799999999223
        },
        {
          "name": "B3",
          "midi": 59,
          "time": 135.6616200000004,
          "velocity": 0.7480314960629921,
          "duration": 0.22058799999999223
        },
        {
          "name": "F#3",
          "midi": 54,
          "time": 135.6616200000004,
          "velocity": 0.7480314960629921,
          "duration": 0.018382333333335055
        },
        {
          "name": "B2",
          "midi": 47,
          "time": 135.6616200000004,
          "velocity": 0.7480314960629921,
          "duration": 0.22058799999999223
        },
        {
          "name": "B3",
          "midi": 59,
          "time": 135.8822080000004,
          "velocity": 0.7480314960629921,
          "duration": 0.22058799999999223
        },
        {
          "name": "B3",
          "midi": 59,
          "time": 135.8822080000004,
          "velocity": 0.7480314960629921,
          "duration": 0.22058799999999223
        },
        {
          "name": "F#3",
          "midi": 54,
          "time": 135.8822080000004,
          "velocity": 0.7480314960629921,
          "duration": 0.018382333333335055
        },
        {
          "name": "B2",
          "midi": 47,
          "time": 135.8822080000004,
          "velocity": 0.7480314960629921,
          "duration": 0.22058799999999223
        },
        {
          "name": "B3",
          "midi": 59,
          "time": 136.10279600000038,
          "velocity": 0.7480314960629921,
          "duration": 0.22058799999999223
        },
        {
          "name": "B3",
          "midi": 59,
          "time": 136.10279600000038,
          "velocity": 0.7480314960629921,
          "duration": 0.22058799999999223
        },
        {
          "name": "F#3",
          "midi": 54,
          "time": 136.10279600000038,
          "velocity": 0.7480314960629921,
          "duration": 0.018382333333335055
        },
        {
          "name": "B2",
          "midi": 47,
          "time": 136.10279600000038,
          "velocity": 0.7480314960629921,
          "duration": 0.22058799999999223
        },
        {
          "name": "B3",
          "midi": 59,
          "time": 136.32338400000037,
          "velocity": 0.7480314960629921,
          "duration": 0.22058799999999223
        },
        {
          "name": "B3",
          "midi": 59,
          "time": 136.32338400000037,
          "velocity": 0.7480314960629921,
          "duration": 0.22058799999999223
        },
        {
          "name": "F#3",
          "midi": 54,
          "time": 136.32338400000037,
          "velocity": 0.7480314960629921,
          "duration": 0.018382333333335055
        },
        {
          "name": "B2",
          "midi": 47,
          "time": 136.32338400000037,
          "velocity": 0.7480314960629921,
          "duration": 0.22058799999999223
        },
        {
          "name": "B3",
          "midi": 59,
          "time": 136.54397200000037,
          "velocity": 0.7480314960629921,
          "duration": 0.22058799999999223
        },
        {
          "name": "B3",
          "midi": 59,
          "time": 136.54397200000037,
          "velocity": 0.7480314960629921,
          "duration": 0.22058799999999223
        },
        {
          "name": "F#3",
          "midi": 54,
          "time": 136.54397200000037,
          "velocity": 0.7480314960629921,
          "duration": 0.018382333333335055
        },
        {
          "name": "B2",
          "midi": 47,
          "time": 136.54397200000037,
          "velocity": 0.7480314960629921,
          "duration": 0.22058799999999223
        },
        {
          "name": "B3",
          "midi": 59,
          "time": 136.76456000000036,
          "velocity": 0.7480314960629921,
          "duration": 0.22058799999999223
        },
        {
          "name": "B3",
          "midi": 59,
          "time": 136.76456000000036,
          "velocity": 0.7480314960629921,
          "duration": 0.22058799999999223
        },
        {
          "name": "F#3",
          "midi": 54,
          "time": 136.76456000000036,
          "velocity": 0.7480314960629921,
          "duration": 0.018382333333335055
        },
        {
          "name": "B2",
          "midi": 47,
          "time": 136.76456000000036,
          "velocity": 0.7480314960629921,
          "duration": 0.22058799999999223
        },
        {
          "name": "B3",
          "midi": 59,
          "time": 136.98514800000035,
          "velocity": 0.7480314960629921,
          "duration": 0.22058799999999223
        },
        {
          "name": "B3",
          "midi": 59,
          "time": 136.98514800000035,
          "velocity": 0.7480314960629921,
          "duration": 0.22058799999999223
        },
        {
          "name": "F#3",
          "midi": 54,
          "time": 136.98514800000035,
          "velocity": 0.7480314960629921,
          "duration": 0.018382333333335055
        },
        {
          "name": "B2",
          "midi": 47,
          "time": 136.98514800000035,
          "velocity": 0.7480314960629921,
          "duration": 0.22058799999999223
        },
        {
          "name": "B3",
          "midi": 59,
          "time": 137.20573600000034,
          "velocity": 0.7480314960629921,
          "duration": 0.22058799999999223
        },
        {
          "name": "B3",
          "midi": 59,
          "time": 137.20573600000034,
          "velocity": 0.7480314960629921,
          "duration": 0.22058799999999223
        },
        {
          "name": "F#3",
          "midi": 54,
          "time": 137.20573600000034,
          "velocity": 0.7480314960629921,
          "duration": 0.018382333333335055
        },
        {
          "name": "B2",
          "midi": 47,
          "time": 137.20573600000034,
          "velocity": 0.7480314960629921,
          "duration": 0.22058799999999223
        },
        {
          "name": "B3",
          "midi": 59,
          "time": 137.42632400000033,
          "velocity": 0.7480314960629921,
          "duration": 0.22058800000002066
        },
        {
          "name": "B3",
          "midi": 59,
          "time": 137.42632400000033,
          "velocity": 0.7480314960629921,
          "duration": 0.22058800000002066
        },
        {
          "name": "F#3",
          "midi": 54,
          "time": 137.42632400000033,
          "velocity": 0.7480314960629921,
          "duration": 0.018382333333335055
        },
        {
          "name": "B2",
          "midi": 47,
          "time": 137.42632400000033,
          "velocity": 0.7480314960629921,
          "duration": 0.22058800000002066
        },
        {
          "name": "F#4",
          "midi": 66,
          "time": 137.64691200000036,
          "velocity": 0.5984251968503937,
          "duration": 0.22058799999999223
        },
        {
          "name": "C#4",
          "midi": 61,
          "time": 137.64691200000036,
          "velocity": 0.7480314960629921,
          "duration": 0.22058799999999223
        },
        {
          "name": "F#4",
          "midi": 66,
          "time": 137.86750000000035,
          "velocity": 0.7480314960629921,
          "duration": 0.22058799999999223
        },
        {
          "name": "C#4",
          "midi": 61,
          "time": 137.86750000000035,
          "velocity": 0.7480314960629921,
          "duration": 0.22058799999999223
        },
        {
          "name": "F#4",
          "midi": 66,
          "time": 138.08808800000034,
          "velocity": 0.7480314960629921,
          "duration": 0.22058799999999223
        },
        {
          "name": "C#4",
          "midi": 61,
          "time": 138.08808800000034,
          "velocity": 0.7480314960629921,
          "duration": 0.22058799999999223
        },
        {
          "name": "F#4",
          "midi": 66,
          "time": 138.30867600000033,
          "velocity": 0.7480314960629921,
          "duration": 0.22058799999999223
        },
        {
          "name": "C#4",
          "midi": 61,
          "time": 138.30867600000033,
          "velocity": 0.7480314960629921,
          "duration": 0.22058799999999223
        },
        {
          "name": "F#4",
          "midi": 66,
          "time": 138.52926400000032,
          "velocity": 0.7480314960629921,
          "duration": 0.22058799999999223
        },
        {
          "name": "C#4",
          "midi": 61,
          "time": 138.52926400000032,
          "velocity": 0.7480314960629921,
          "duration": 0.22058799999999223
        },
        {
          "name": "F#4",
          "midi": 66,
          "time": 138.74985200000032,
          "velocity": 0.7480314960629921,
          "duration": 0.22058799999999223
        },
        {
          "name": "C#4",
          "midi": 61,
          "time": 138.74985200000032,
          "velocity": 0.7480314960629921,
          "duration": 0.22058799999999223
        },
        {
          "name": "F#4",
          "midi": 66,
          "time": 138.9704400000003,
          "velocity": 0.7480314960629921,
          "duration": 0.22058799999999223
        },
        {
          "name": "C#4",
          "midi": 61,
          "time": 138.9704400000003,
          "velocity": 0.7480314960629921,
          "duration": 0.22058799999999223
        },
        {
          "name": "F#4",
          "midi": 66,
          "time": 139.1910280000003,
          "velocity": 0.7480314960629921,
          "duration": 0.22058799999999223
        },
        {
          "name": "C#4",
          "midi": 61,
          "time": 139.1910280000003,
          "velocity": 0.7480314960629921,
          "duration": 0.22058799999999223
        },
        {
          "name": "G4",
          "midi": 67,
          "time": 139.4116160000003,
          "velocity": 0.7480314960629921,
          "duration": 0.22058799999999223
        },
        {
          "name": "D4",
          "midi": 62,
          "time": 139.4116160000003,
          "velocity": 0.7480314960629921,
          "duration": 0.22058799999999223
        },
        {
          "name": "B3",
          "midi": 59,
          "time": 139.4116160000003,
          "velocity": 0.7480314960629921,
          "duration": 0.22058799999999223
        },
        {
          "name": "G4",
          "midi": 67,
          "time": 139.63220400000029,
          "velocity": 0.7480314960629921,
          "duration": 0.22058799999999223
        },
        {
          "name": "D4",
          "midi": 62,
          "time": 139.63220400000029,
          "velocity": 0.7480314960629921,
          "duration": 0.22058799999999223
        },
        {
          "name": "B3",
          "midi": 59,
          "time": 139.63220400000029,
          "velocity": 0.7480314960629921,
          "duration": 0.22058799999999223
        },
        {
          "name": "G4",
          "midi": 67,
          "time": 139.85279200000028,
          "velocity": 0.7480314960629921,
          "duration": 0.22058799999999223
        },
        {
          "name": "D4",
          "midi": 62,
          "time": 139.85279200000028,
          "velocity": 0.7480314960629921,
          "duration": 0.22058799999999223
        },
        {
          "name": "B3",
          "midi": 59,
          "time": 139.85279200000028,
          "velocity": 0.7480314960629921,
          "duration": 0.22058799999999223
        },
        {
          "name": "G4",
          "midi": 67,
          "time": 140.07338000000027,
          "velocity": 0.7480314960629921,
          "duration": 0.22058799999999223
        },
        {
          "name": "D4",
          "midi": 62,
          "time": 140.07338000000027,
          "velocity": 0.7480314960629921,
          "duration": 0.22058799999999223
        },
        {
          "name": "B3",
          "midi": 59,
          "time": 140.07338000000027,
          "velocity": 0.7480314960629921,
          "duration": 0.22058799999999223
        },
        {
          "name": "G4",
          "midi": 67,
          "time": 140.29396800000026,
          "velocity": 0.7480314960629921,
          "duration": 0.22058799999999223
        },
        {
          "name": "D4",
          "midi": 62,
          "time": 140.29396800000026,
          "velocity": 0.7480314960629921,
          "duration": 0.22058799999999223
        },
        {
          "name": "B3",
          "midi": 59,
          "time": 140.29396800000026,
          "velocity": 0.7480314960629921,
          "duration": 0.22058799999999223
        },
        {
          "name": "G4",
          "midi": 67,
          "time": 140.51455600000025,
          "velocity": 0.7480314960629921,
          "duration": 0.22058799999999223
        },
        {
          "name": "D4",
          "midi": 62,
          "time": 140.51455600000025,
          "velocity": 0.7480314960629921,
          "duration": 0.22058799999999223
        },
        {
          "name": "B3",
          "midi": 59,
          "time": 140.51455600000025,
          "velocity": 0.7480314960629921,
          "duration": 0.22058799999999223
        },
        {
          "name": "G4",
          "midi": 67,
          "time": 140.73514400000025,
          "velocity": 0.7480314960629921,
          "duration": 0.22058799999999223
        },
        {
          "name": "D4",
          "midi": 62,
          "time": 140.73514400000025,
          "velocity": 0.7480314960629921,
          "duration": 0.22058799999999223
        },
        {
          "name": "B3",
          "midi": 59,
          "time": 140.73514400000025,
          "velocity": 0.7480314960629921,
          "duration": 0.22058799999999223
        },
        {
          "name": "G4",
          "midi": 67,
          "time": 140.95573200000024,
          "velocity": 0.7480314960629921,
          "duration": 0.22058799999999223
        },
        {
          "name": "D4",
          "midi": 62,
          "time": 140.95573200000024,
          "velocity": 0.7480314960629921,
          "duration": 0.22058799999999223
        },
        {
          "name": "B3",
          "midi": 59,
          "time": 140.95573200000024,
          "velocity": 0.7480314960629921,
          "duration": 0.22058799999999223
        },
        {
          "name": "G4",
          "midi": 67,
          "time": 141.17632000000023,
          "velocity": 0.7480314960629921,
          "duration": 0.22058799999999223
        },
        {
          "name": "D4",
          "midi": 62,
          "time": 141.17632000000023,
          "velocity": 0.7480314960629921,
          "duration": 0.22058799999999223
        },
        {
          "name": "B3",
          "midi": 59,
          "time": 141.17632000000023,
          "velocity": 0.7480314960629921,
          "duration": 0.22058799999999223
        },
        {
          "name": "G4",
          "midi": 67,
          "time": 141.39690800000022,
          "velocity": 0.7480314960629921,
          "duration": 0.22058799999999223
        },
        {
          "name": "D4",
          "midi": 62,
          "time": 141.39690800000022,
          "velocity": 0.7480314960629921,
          "duration": 0.22058799999999223
        },
        {
          "name": "B3",
          "midi": 59,
          "time": 141.39690800000022,
          "velocity": 0.7480314960629921,
          "duration": 0.22058799999999223
        },
        {
          "name": "G4",
          "midi": 67,
          "time": 141.61749600000022,
          "velocity": 0.7480314960629921,
          "duration": 0.22058799999999223
        },
        {
          "name": "D4",
          "midi": 62,
          "time": 141.61749600000022,
          "velocity": 0.7480314960629921,
          "duration": 0.22058799999999223
        },
        {
          "name": "B3",
          "midi": 59,
          "time": 141.61749600000022,
          "velocity": 0.7480314960629921,
          "duration": 0.22058799999999223
        },
        {
          "name": "G4",
          "midi": 67,
          "time": 141.8380840000002,
          "velocity": 0.7480314960629921,
          "duration": 0.22058799999999223
        },
        {
          "name": "D4",
          "midi": 62,
          "time": 141.8380840000002,
          "velocity": 0.7480314960629921,
          "duration": 0.22058799999999223
        },
        {
          "name": "B3",
          "midi": 59,
          "time": 141.8380840000002,
          "velocity": 0.7480314960629921,
          "duration": 0.22058799999999223
        },
        {
          "name": "G4",
          "midi": 67,
          "time": 142.0586720000002,
          "velocity": 0.7480314960629921,
          "duration": 0.22058799999999223
        },
        {
          "name": "D4",
          "midi": 62,
          "time": 142.0586720000002,
          "velocity": 0.7480314960629921,
          "duration": 0.22058799999999223
        },
        {
          "name": "B3",
          "midi": 59,
          "time": 142.0586720000002,
          "velocity": 0.7480314960629921,
          "duration": 0.22058799999999223
        },
        {
          "name": "G4",
          "midi": 67,
          "time": 142.2792600000002,
          "velocity": 0.7480314960629921,
          "duration": 0.22058799999999223
        },
        {
          "name": "D4",
          "midi": 62,
          "time": 142.2792600000002,
          "velocity": 0.7480314960629921,
          "duration": 0.22058799999999223
        },
        {
          "name": "B3",
          "midi": 59,
          "time": 142.2792600000002,
          "velocity": 0.7480314960629921,
          "duration": 0.22058799999999223
        },
        {
          "name": "G4",
          "midi": 67,
          "time": 142.49984800000018,
          "velocity": 0.7480314960629921,
          "duration": 0.22058799999999223
        },
        {
          "name": "D4",
          "midi": 62,
          "time": 142.49984800000018,
          "velocity": 0.7480314960629921,
          "duration": 0.22058799999999223
        },
        {
          "name": "B3",
          "midi": 59,
          "time": 142.49984800000018,
          "velocity": 0.7480314960629921,
          "duration": 0.22058799999999223
        },
        {
          "name": "G4",
          "midi": 67,
          "time": 142.72043600000018,
          "velocity": 0.7480314960629921,
          "duration": 0.22058799999999223
        },
        {
          "name": "D4",
          "midi": 62,
          "time": 142.72043600000018,
          "velocity": 0.7480314960629921,
          "duration": 0.22058799999999223
        },
        {
          "name": "B3",
          "midi": 59,
          "time": 142.72043600000018,
          "velocity": 0.7480314960629921,
          "duration": 0.22058799999999223
        },
        {
          "name": "F#4",
          "midi": 66,
          "time": 142.94102400000017,
          "velocity": 0.7480314960629921,
          "duration": 0.22058799999999223
        },
        {
          "name": "D4",
          "midi": 62,
          "time": 142.94102400000017,
          "velocity": 0.7480314960629921,
          "duration": 0.22058799999999223
        },
        {
          "name": "B3",
          "midi": 59,
          "time": 142.94102400000017,
          "velocity": 0.7480314960629921,
          "duration": 0.22058799999999223
        },
        {
          "name": "F#4",
          "midi": 66,
          "time": 143.16161200000016,
          "velocity": 0.7480314960629921,
          "duration": 0.22058799999999223
        },
        {
          "name": "D4",
          "midi": 62,
          "time": 143.16161200000016,
          "velocity": 0.7480314960629921,
          "duration": 0.22058799999999223
        },
        {
          "name": "B3",
          "midi": 59,
          "time": 143.16161200000016,
          "velocity": 0.7480314960629921,
          "duration": 0.22058799999999223
        },
        {
          "name": "F#4",
          "midi": 66,
          "time": 143.38220000000015,
          "velocity": 0.7480314960629921,
          "duration": 0.22058799999999223
        },
        {
          "name": "D4",
          "midi": 62,
          "time": 143.38220000000015,
          "velocity": 0.7480314960629921,
          "duration": 0.22058799999999223
        },
        {
          "name": "B3",
          "midi": 59,
          "time": 143.38220000000015,
          "velocity": 0.7480314960629921,
          "duration": 0.22058799999999223
        },
        {
          "name": "F#4",
          "midi": 66,
          "time": 143.60278800000015,
          "velocity": 0.7480314960629921,
          "duration": 0.22058799999999223
        },
        {
          "name": "D4",
          "midi": 62,
          "time": 143.60278800000015,
          "velocity": 0.7480314960629921,
          "duration": 0.22058799999999223
        },
        {
          "name": "B3",
          "midi": 59,
          "time": 143.60278800000015,
          "velocity": 0.7480314960629921,
          "duration": 0.22058799999999223
        },
        {
          "name": "F#4",
          "midi": 66,
          "time": 143.82337600000014,
          "velocity": 0.7480314960629921,
          "duration": 0.22058799999999223
        },
        {
          "name": "D4",
          "midi": 62,
          "time": 143.82337600000014,
          "velocity": 0.7480314960629921,
          "duration": 0.22058799999999223
        },
        {
          "name": "B3",
          "midi": 59,
          "time": 143.82337600000014,
          "velocity": 0.7480314960629921,
          "duration": 0.22058799999999223
        },
        {
          "name": "F#4",
          "midi": 66,
          "time": 144.04396400000013,
          "velocity": 0.7480314960629921,
          "duration": 0.22058799999999223
        },
        {
          "name": "D4",
          "midi": 62,
          "time": 144.04396400000013,
          "velocity": 0.7480314960629921,
          "duration": 0.22058799999999223
        },
        {
          "name": "B3",
          "midi": 59,
          "time": 144.04396400000013,
          "velocity": 0.7480314960629921,
          "duration": 0.22058799999999223
        },
        {
          "name": "F#4",
          "midi": 66,
          "time": 144.26455200000012,
          "velocity": 0.7480314960629921,
          "duration": 0.22058799999999223
        },
        {
          "name": "D4",
          "midi": 62,
          "time": 144.26455200000012,
          "velocity": 0.7480314960629921,
          "duration": 0.22058799999999223
        },
        {
          "name": "B3",
          "midi": 59,
          "time": 144.26455200000012,
          "velocity": 0.7480314960629921,
          "duration": 0.22058799999999223
        },
        {
          "name": "F#4",
          "midi": 66,
          "time": 144.48514000000011,
          "velocity": 0.7480314960629921,
          "duration": 0.22058799999999223
        },
        {
          "name": "D4",
          "midi": 62,
          "time": 144.48514000000011,
          "velocity": 0.7480314960629921,
          "duration": 0.22058799999999223
        },
        {
          "name": "B3",
          "midi": 59,
          "time": 144.48514000000011,
          "velocity": 0.7480314960629921,
          "duration": 0.22058799999999223
        },
        {
          "name": "F#4",
          "midi": 66,
          "time": 144.7057280000001,
          "velocity": 0.7480314960629921,
          "duration": 0.22058799999999223
        },
        {
          "name": "D4",
          "midi": 62,
          "time": 144.7057280000001,
          "velocity": 0.7480314960629921,
          "duration": 0.22058799999999223
        },
        {
          "name": "A#3",
          "midi": 58,
          "time": 144.7057280000001,
          "velocity": 0.7480314960629921,
          "duration": 0.22058799999999223
        },
        {
          "name": "F#4",
          "midi": 66,
          "time": 144.9263160000001,
          "velocity": 0.7480314960629921,
          "duration": 0.22058799999999223
        },
        {
          "name": "D4",
          "midi": 62,
          "time": 144.9263160000001,
          "velocity": 0.7480314960629921,
          "duration": 0.22058799999999223
        },
        {
          "name": "A#3",
          "midi": 58,
          "time": 144.9263160000001,
          "velocity": 0.7480314960629921,
          "duration": 0.22058799999999223
        },
        {
          "name": "F#4",
          "midi": 66,
          "time": 145.1469040000001,
          "velocity": 0.7480314960629921,
          "duration": 0.22058799999999223
        },
        {
          "name": "D4",
          "midi": 62,
          "time": 145.1469040000001,
          "velocity": 0.7480314960629921,
          "duration": 0.22058799999999223
        },
        {
          "name": "A#3",
          "midi": 58,
          "time": 145.1469040000001,
          "velocity": 0.7480314960629921,
          "duration": 0.22058799999999223
        },
        {
          "name": "F#4",
          "midi": 66,
          "time": 145.36749200000008,
          "velocity": 0.7480314960629921,
          "duration": 0.22058799999999223
        },
        {
          "name": "D4",
          "midi": 62,
          "time": 145.36749200000008,
          "velocity": 0.7480314960629921,
          "duration": 0.22058799999999223
        },
        {
          "name": "A#3",
          "midi": 58,
          "time": 145.36749200000008,
          "velocity": 0.7480314960629921,
          "duration": 0.22058799999999223
        },
        {
          "name": "F#4",
          "midi": 66,
          "time": 145.58808000000008,
          "velocity": 0.7480314960629921,
          "duration": 0.22058799999999223
        },
        {
          "name": "C#4",
          "midi": 61,
          "time": 145.58808000000008,
          "velocity": 0.7480314960629921,
          "duration": 0.22058799999999223
        },
        {
          "name": "A#3",
          "midi": 58,
          "time": 145.58808000000008,
          "velocity": 0.7480314960629921,
          "duration": 0.22058799999999223
        },
        {
          "name": "F#4",
          "midi": 66,
          "time": 145.80866800000007,
          "velocity": 0.7480314960629921,
          "duration": 0.22058799999999223
        },
        {
          "name": "C#4",
          "midi": 61,
          "time": 145.80866800000007,
          "velocity": 0.7480314960629921,
          "duration": 0.22058799999999223
        },
        {
          "name": "A#3",
          "midi": 58,
          "time": 145.80866800000007,
          "velocity": 0.7480314960629921,
          "duration": 0.22058799999999223
        },
        {
          "name": "F#4",
          "midi": 66,
          "time": 146.02925600000006,
          "velocity": 0.7480314960629921,
          "duration": 0.22058799999999223
        },
        {
          "name": "C#4",
          "midi": 61,
          "time": 146.02925600000006,
          "velocity": 0.7480314960629921,
          "duration": 0.22058799999999223
        },
        {
          "name": "A#3",
          "midi": 58,
          "time": 146.02925600000006,
          "velocity": 0.7480314960629921,
          "duration": 0.22058799999999223
        },
        {
          "name": "F#4",
          "midi": 66,
          "time": 146.24984400000005,
          "velocity": 0.7480314960629921,
          "duration": 0.22058799999999223
        },
        {
          "name": "C#4",
          "midi": 61,
          "time": 146.24984400000005,
          "velocity": 0.7480314960629921,
          "duration": 0.22058799999999223
        },
        {
          "name": "A#3",
          "midi": 58,
          "time": 146.24984400000005,
          "velocity": 0.7480314960629921,
          "duration": 0.22058799999999223
        },
        {
          "name": "B3",
          "midi": 59,
          "time": 146.47043200000005,
          "velocity": 0.7480314960629921,
          "duration": 0.22058799999999223
        },
        {
          "name": "B3",
          "midi": 59,
          "time": 146.47043200000005,
          "velocity": 0.7480314960629921,
          "duration": 0.22058799999999223
        },
        {
          "name": "F#3",
          "midi": 54,
          "time": 146.47043200000005,
          "velocity": 0.7480314960629921,
          "duration": 0.018382333333335055
        },
        {
          "name": "B2",
          "midi": 47,
          "time": 146.47043200000005,
          "velocity": 0.5984251968503937,
          "duration": 0.22058799999999223
        },
        {
          "name": "B3",
          "midi": 59,
          "time": 146.69102000000004,
          "velocity": 0.7480314960629921,
          "duration": 0.22058799999999223
        },
        {
          "name": "B3",
          "midi": 59,
          "time": 146.69102000000004,
          "velocity": 0.7480314960629921,
          "duration": 0.22058799999999223
        },
        {
          "name": "F#3",
          "midi": 54,
          "time": 146.69102000000004,
          "velocity": 0.7480314960629921,
          "duration": 0.018382333333335055
        },
        {
          "name": "B2",
          "midi": 47,
          "time": 146.69102000000004,
          "velocity": 0.7480314960629921,
          "duration": 0.22058799999999223
        },
        {
          "name": "B3",
          "midi": 59,
          "time": 146.91160800000003,
          "velocity": 0.7480314960629921,
          "duration": 0.22058799999999223
        },
        {
          "name": "B3",
          "midi": 59,
          "time": 146.91160800000003,
          "velocity": 0.7480314960629921,
          "duration": 0.22058799999999223
        },
        {
          "name": "F#3",
          "midi": 54,
          "time": 146.91160800000003,
          "velocity": 0.7480314960629921,
          "duration": 0.018382333333335055
        },
        {
          "name": "B2",
          "midi": 47,
          "time": 146.91160800000003,
          "velocity": 0.7480314960629921,
          "duration": 0.22058799999999223
        },
        {
          "name": "B3",
          "midi": 59,
          "time": 147.13219600000002,
          "velocity": 0.7480314960629921,
          "duration": 0.22058799999999223
        },
        {
          "name": "B3",
          "midi": 59,
          "time": 147.13219600000002,
          "velocity": 0.7480314960629921,
          "duration": 0.22058799999999223
        },
        {
          "name": "F#3",
          "midi": 54,
          "time": 147.13219600000002,
          "velocity": 0.7480314960629921,
          "duration": 0.018382333333335055
        },
        {
          "name": "B2",
          "midi": 47,
          "time": 147.13219600000002,
          "velocity": 0.7480314960629921,
          "duration": 0.22058799999999223
        },
        {
          "name": "B3",
          "midi": 59,
          "time": 147.352784,
          "velocity": 0.7480314960629921,
          "duration": 0.22058799999999223
        },
        {
          "name": "B3",
          "midi": 59,
          "time": 147.352784,
          "velocity": 0.7480314960629921,
          "duration": 0.22058799999999223
        },
        {
          "name": "F#3",
          "midi": 54,
          "time": 147.352784,
          "velocity": 0.7480314960629921,
          "duration": 0.018382333333335055
        },
        {
          "name": "B2",
          "midi": 47,
          "time": 147.352784,
          "velocity": 0.7480314960629921,
          "duration": 0.22058799999999223
        },
        {
          "name": "B3",
          "midi": 59,
          "time": 147.573372,
          "velocity": 0.7480314960629921,
          "duration": 0.22058799999999223
        },
        {
          "name": "B3",
          "midi": 59,
          "time": 147.573372,
          "velocity": 0.7480314960629921,
          "duration": 0.22058799999999223
        },
        {
          "name": "F#3",
          "midi": 54,
          "time": 147.573372,
          "velocity": 0.7480314960629921,
          "duration": 0.018382333333335055
        },
        {
          "name": "B2",
          "midi": 47,
          "time": 147.573372,
          "velocity": 0.7480314960629921,
          "duration": 0.22058799999999223
        },
        {
          "name": "B3",
          "midi": 59,
          "time": 147.79396,
          "velocity": 0.7480314960629921,
          "duration": 0.22058799999999223
        },
        {
          "name": "B3",
          "midi": 59,
          "time": 147.79396,
          "velocity": 0.7480314960629921,
          "duration": 0.22058799999999223
        },
        {
          "name": "F#3",
          "midi": 54,
          "time": 147.79396,
          "velocity": 0.7480314960629921,
          "duration": 0.018382333333335055
        },
        {
          "name": "B2",
          "midi": 47,
          "time": 147.79396,
          "velocity": 0.7480314960629921,
          "duration": 0.22058799999999223
        },
        {
          "name": "B3",
          "midi": 59,
          "time": 148.014548,
          "velocity": 0.7480314960629921,
          "duration": 0.22058799999999223
        },
        {
          "name": "B3",
          "midi": 59,
          "time": 148.014548,
          "velocity": 0.7480314960629921,
          "duration": 0.22058799999999223
        },
        {
          "name": "F#3",
          "midi": 54,
          "time": 148.014548,
          "velocity": 0.7480314960629921,
          "duration": 0.018382333333335055
        },
        {
          "name": "B2",
          "midi": 47,
          "time": 148.014548,
          "velocity": 0.7480314960629921,
          "duration": 0.22058799999999223
        },
        {
          "name": "B3",
          "midi": 59,
          "time": 148.23513599999998,
          "velocity": 0.7480314960629921,
          "duration": 0.22058799999999223
        },
        {
          "name": "B3",
          "midi": 59,
          "time": 148.23513599999998,
          "velocity": 0.7480314960629921,
          "duration": 0.22058799999999223
        },
        {
          "name": "F#3",
          "midi": 54,
          "time": 148.23513599999998,
          "velocity": 0.7480314960629921,
          "duration": 0.018382333333335055
        },
        {
          "name": "B2",
          "midi": 47,
          "time": 148.23513599999998,
          "velocity": 0.7480314960629921,
          "duration": 0.22058799999999223
        },
        {
          "name": "B3",
          "midi": 59,
          "time": 148.45572399999998,
          "velocity": 0.7480314960629921,
          "duration": 0.22058799999999223
        },
        {
          "name": "B3",
          "midi": 59,
          "time": 148.45572399999998,
          "velocity": 0.7480314960629921,
          "duration": 0.22058799999999223
        },
        {
          "name": "F#3",
          "midi": 54,
          "time": 148.45572399999998,
          "velocity": 0.7480314960629921,
          "duration": 0.018382333333335055
        },
        {
          "name": "B2",
          "midi": 47,
          "time": 148.45572399999998,
          "velocity": 0.7480314960629921,
          "duration": 0.22058799999999223
        },
        {
          "name": "B3",
          "midi": 59,
          "time": 148.67631199999997,
          "velocity": 0.7480314960629921,
          "duration": 0.22058799999999223
        },
        {
          "name": "B3",
          "midi": 59,
          "time": 148.67631199999997,
          "velocity": 0.7480314960629921,
          "duration": 0.22058799999999223
        },
        {
          "name": "F#3",
          "midi": 54,
          "time": 148.67631199999997,
          "velocity": 0.7480314960629921,
          "duration": 0.018382333333335055
        },
        {
          "name": "B2",
          "midi": 47,
          "time": 148.67631199999997,
          "velocity": 0.7480314960629921,
          "duration": 0.22058799999999223
        },
        {
          "name": "B3",
          "midi": 59,
          "time": 148.89689999999996,
          "velocity": 0.7480314960629921,
          "duration": 0.22058799999999223
        },
        {
          "name": "B3",
          "midi": 59,
          "time": 148.89689999999996,
          "velocity": 0.7480314960629921,
          "duration": 0.22058799999999223
        },
        {
          "name": "F#3",
          "midi": 54,
          "time": 148.89689999999996,
          "velocity": 0.7480314960629921,
          "duration": 0.018382333333335055
        },
        {
          "name": "B2",
          "midi": 47,
          "time": 148.89689999999996,
          "velocity": 0.7480314960629921,
          "duration": 0.22058799999999223
        },
        {
          "name": "B3",
          "midi": 59,
          "time": 149.11748799999995,
          "velocity": 0.7480314960629921,
          "duration": 0.22058799999999223
        },
        {
          "name": "B3",
          "midi": 59,
          "time": 149.11748799999995,
          "velocity": 0.7480314960629921,
          "duration": 0.22058799999999223
        },
        {
          "name": "F#3",
          "midi": 54,
          "time": 149.11748799999995,
          "velocity": 0.7480314960629921,
          "duration": 0.018382333333335055
        },
        {
          "name": "B2",
          "midi": 47,
          "time": 149.11748799999995,
          "velocity": 0.7480314960629921,
          "duration": 0.22058799999999223
        },
        {
          "name": "B3",
          "midi": 59,
          "time": 149.33807599999994,
          "velocity": 0.7480314960629921,
          "duration": 0.22058799999999223
        },
        {
          "name": "B3",
          "midi": 59,
          "time": 149.33807599999994,
          "velocity": 0.7480314960629921,
          "duration": 0.22058799999999223
        },
        {
          "name": "F#3",
          "midi": 54,
          "time": 149.33807599999994,
          "velocity": 0.7480314960629921,
          "duration": 0.018382333333335055
        },
        {
          "name": "B2",
          "midi": 47,
          "time": 149.33807599999994,
          "velocity": 0.7480314960629921,
          "duration": 0.22058799999999223
        },
        {
          "name": "B3",
          "midi": 59,
          "time": 149.55866399999994,
          "velocity": 0.7480314960629921,
          "duration": 0.22058799999999223
        },
        {
          "name": "B3",
          "midi": 59,
          "time": 149.55866399999994,
          "velocity": 0.7480314960629921,
          "duration": 0.22058799999999223
        },
        {
          "name": "F#3",
          "midi": 54,
          "time": 149.55866399999994,
          "velocity": 0.7480314960629921,
          "duration": 0.018382333333335055
        },
        {
          "name": "B2",
          "midi": 47,
          "time": 149.55866399999994,
          "velocity": 0.7480314960629921,
          "duration": 0.22058799999999223
        },
        {
          "name": "B3",
          "midi": 59,
          "time": 149.77925199999993,
          "velocity": 0.7480314960629921,
          "duration": 0.22058799999999223
        },
        {
          "name": "B3",
          "midi": 59,
          "time": 149.77925199999993,
          "velocity": 0.7480314960629921,
          "duration": 0.22058799999999223
        },
        {
          "name": "F#3",
          "midi": 54,
          "time": 149.77925199999993,
          "velocity": 0.7480314960629921,
          "duration": 0.018382333333335055
        },
        {
          "name": "B2",
          "midi": 47,
          "time": 149.77925199999993,
          "velocity": 0.7480314960629921,
          "duration": 0.22058799999999223
        },
        {
          "name": "B3",
          "midi": 59,
          "time": 149.99983999999992,
          "velocity": 0.7480314960629921,
          "duration": 0.22058799999999223
        },
        {
          "name": "B3",
          "midi": 59,
          "time": 149.99983999999992,
          "velocity": 0.7480314960629921,
          "duration": 0.22058799999999223
        },
        {
          "name": "F#3",
          "midi": 54,
          "time": 149.99983999999992,
          "velocity": 0.7480314960629921,
          "duration": 0.018382333333335055
        },
        {
          "name": "B2",
          "midi": 47,
          "time": 149.99983999999992,
          "velocity": 0.7480314960629921,
          "duration": 0.22058799999999223
        },
        {
          "name": "B3",
          "midi": 59,
          "time": 150.2204279999999,
          "velocity": 0.7480314960629921,
          "duration": 0.22058799999999223
        },
        {
          "name": "B3",
          "midi": 59,
          "time": 150.2204279999999,
          "velocity": 0.7480314960629921,
          "duration": 0.22058799999999223
        },
        {
          "name": "F#3",
          "midi": 54,
          "time": 150.2204279999999,
          "velocity": 0.7480314960629921,
          "duration": 0.018382333333335055
        },
        {
          "name": "B2",
          "midi": 47,
          "time": 150.2204279999999,
          "velocity": 0.7480314960629921,
          "duration": 0.22058799999999223
        },
        {
          "name": "B3",
          "midi": 59,
          "time": 150.4410159999999,
          "velocity": 0.7480314960629921,
          "duration": 0.22058799999999223
        },
        {
          "name": "B3",
          "midi": 59,
          "time": 150.4410159999999,
          "velocity": 0.7480314960629921,
          "duration": 0.22058799999999223
        },
        {
          "name": "F#3",
          "midi": 54,
          "time": 150.4410159999999,
          "velocity": 0.7480314960629921,
          "duration": 0.018382333333335055
        },
        {
          "name": "B2",
          "midi": 47,
          "time": 150.4410159999999,
          "velocity": 0.7480314960629921,
          "duration": 0.22058799999999223
        },
        {
          "name": "B3",
          "midi": 59,
          "time": 150.6616039999999,
          "velocity": 0.7480314960629921,
          "duration": 0.22058799999999223
        },
        {
          "name": "B3",
          "midi": 59,
          "time": 150.6616039999999,
          "velocity": 0.7480314960629921,
          "duration": 0.22058799999999223
        },
        {
          "name": "F#3",
          "midi": 54,
          "time": 150.6616039999999,
          "velocity": 0.7480314960629921,
          "duration": 0.018382333333335055
        },
        {
          "name": "B2",
          "midi": 47,
          "time": 150.6616039999999,
          "velocity": 0.7480314960629921,
          "duration": 0.22058799999999223
        },
        {
          "name": "B3",
          "midi": 59,
          "time": 150.8821919999999,
          "velocity": 0.7480314960629921,
          "duration": 0.22058799999999223
        },
        {
          "name": "B3",
          "midi": 59,
          "time": 150.8821919999999,
          "velocity": 0.7480314960629921,
          "duration": 0.22058799999999223
        },
        {
          "name": "F#3",
          "midi": 54,
          "time": 150.8821919999999,
          "velocity": 0.7480314960629921,
          "duration": 0.018382333333335055
        },
        {
          "name": "B2",
          "midi": 47,
          "time": 150.8821919999999,
          "velocity": 0.7480314960629921,
          "duration": 0.22058799999999223
        },
        {
          "name": "B3",
          "midi": 59,
          "time": 151.10277999999988,
          "velocity": 0.7480314960629921,
          "duration": 0.22058799999999223
        },
        {
          "name": "B3",
          "midi": 59,
          "time": 151.10277999999988,
          "velocity": 0.7480314960629921,
          "duration": 0.22058799999999223
        },
        {
          "name": "F#3",
          "midi": 54,
          "time": 151.10277999999988,
          "velocity": 0.7480314960629921,
          "duration": 0.018382333333335055
        },
        {
          "name": "B2",
          "midi": 47,
          "time": 151.10277999999988,
          "velocity": 0.7480314960629921,
          "duration": 0.22058799999999223
        },
        {
          "name": "B3",
          "midi": 59,
          "time": 151.32336799999987,
          "velocity": 0.7480314960629921,
          "duration": 0.22058799999999223
        },
        {
          "name": "B3",
          "midi": 59,
          "time": 151.32336799999987,
          "velocity": 0.7480314960629921,
          "duration": 0.22058799999999223
        },
        {
          "name": "F#3",
          "midi": 54,
          "time": 151.32336799999987,
          "velocity": 0.7480314960629921,
          "duration": 0.018382333333335055
        },
        {
          "name": "B2",
          "midi": 47,
          "time": 151.32336799999987,
          "velocity": 0.7480314960629921,
          "duration": 0.22058799999999223
        },
        {
          "name": "B3",
          "midi": 59,
          "time": 151.54395599999987,
          "velocity": 0.7480314960629921,
          "duration": 0.22058799999999223
        },
        {
          "name": "B3",
          "midi": 59,
          "time": 151.54395599999987,
          "velocity": 0.7480314960629921,
          "duration": 0.22058799999999223
        },
        {
          "name": "F#3",
          "midi": 54,
          "time": 151.54395599999987,
          "velocity": 0.7480314960629921,
          "duration": 0.018382333333335055
        },
        {
          "name": "B2",
          "midi": 47,
          "time": 151.54395599999987,
          "velocity": 0.7480314960629921,
          "duration": 0.22058799999999223
        },
        {
          "name": "F#4",
          "midi": 66,
          "time": 151.76454399999986,
          "velocity": 0.5984251968503937,
          "duration": 0.22058799999999223
        },
        {
          "name": "C#4",
          "midi": 61,
          "time": 151.76454399999986,
          "velocity": 0.7480314960629921,
          "duration": 0.22058799999999223
        },
        {
          "name": "F#4",
          "midi": 66,
          "time": 151.98513199999985,
          "velocity": 0.7480314960629921,
          "duration": 0.22058799999999223
        },
        {
          "name": "C#4",
          "midi": 61,
          "time": 151.98513199999985,
          "velocity": 0.7480314960629921,
          "duration": 0.22058799999999223
        },
        {
          "name": "F#4",
          "midi": 66,
          "time": 152.20571999999984,
          "velocity": 0.7480314960629921,
          "duration": 0.22058799999999223
        },
        {
          "name": "C#4",
          "midi": 61,
          "time": 152.20571999999984,
          "velocity": 0.7480314960629921,
          "duration": 0.22058799999999223
        },
        {
          "name": "F#4",
          "midi": 66,
          "time": 152.42630799999984,
          "velocity": 0.7480314960629921,
          "duration": 0.22058799999999223
        },
        {
          "name": "C#4",
          "midi": 61,
          "time": 152.42630799999984,
          "velocity": 0.7480314960629921,
          "duration": 0.22058799999999223
        },
        {
          "name": "F#4",
          "midi": 66,
          "time": 152.64689599999983,
          "velocity": 0.7480314960629921,
          "duration": 0.22058799999999223
        },
        {
          "name": "C#4",
          "midi": 61,
          "time": 152.64689599999983,
          "velocity": 0.7480314960629921,
          "duration": 0.22058799999999223
        },
        {
          "name": "F#4",
          "midi": 66,
          "time": 152.86748399999982,
          "velocity": 0.7480314960629921,
          "duration": 0.22058799999999223
        },
        {
          "name": "C#4",
          "midi": 61,
          "time": 152.86748399999982,
          "velocity": 0.7480314960629921,
          "duration": 0.22058799999999223
        },
        {
          "name": "F#4",
          "midi": 66,
          "time": 153.0880719999998,
          "velocity": 0.7480314960629921,
          "duration": 0.22058799999999223
        },
        {
          "name": "C#4",
          "midi": 61,
          "time": 153.0880719999998,
          "velocity": 0.7480314960629921,
          "duration": 0.22058799999999223
        },
        {
          "name": "F#4",
          "midi": 66,
          "time": 153.3086599999998,
          "velocity": 0.7480314960629921,
          "duration": 0.22058799999999223
        },
        {
          "name": "C#4",
          "midi": 61,
          "time": 153.3086599999998,
          "velocity": 0.7480314960629921,
          "duration": 0.22058799999999223
        },
        {
          "name": "G4",
          "midi": 67,
          "time": 153.5292479999998,
          "velocity": 0.7480314960629921,
          "duration": 0.22058799999999223
        },
        {
          "name": "D4",
          "midi": 62,
          "time": 153.5292479999998,
          "velocity": 0.7480314960629921,
          "duration": 0.22058799999999223
        },
        {
          "name": "B3",
          "midi": 59,
          "time": 153.5292479999998,
          "velocity": 0.7480314960629921,
          "duration": 0.22058799999999223
        },
        {
          "name": "G4",
          "midi": 67,
          "time": 153.7498359999998,
          "velocity": 0.7480314960629921,
          "duration": 0.22058799999999223
        },
        {
          "name": "D4",
          "midi": 62,
          "time": 153.7498359999998,
          "velocity": 0.7480314960629921,
          "duration": 0.22058799999999223
        },
        {
          "name": "B3",
          "midi": 59,
          "time": 153.7498359999998,
          "velocity": 0.7480314960629921,
          "duration": 0.22058799999999223
        },
        {
          "name": "G4",
          "midi": 67,
          "time": 153.97042399999978,
          "velocity": 0.7480314960629921,
          "duration": 0.22058799999999223
        },
        {
          "name": "D4",
          "midi": 62,
          "time": 153.97042399999978,
          "velocity": 0.7480314960629921,
          "duration": 0.22058799999999223
        },
        {
          "name": "B3",
          "midi": 59,
          "time": 153.97042399999978,
          "velocity": 0.7480314960629921,
          "duration": 0.22058799999999223
        },
        {
          "name": "G4",
          "midi": 67,
          "time": 154.19101199999977,
          "velocity": 0.7480314960629921,
          "duration": 0.22058799999999223
        },
        {
          "name": "D4",
          "midi": 62,
          "time": 154.19101199999977,
          "velocity": 0.7480314960629921,
          "duration": 0.22058799999999223
        },
        {
          "name": "B3",
          "midi": 59,
          "time": 154.19101199999977,
          "velocity": 0.7480314960629921,
          "duration": 0.22058799999999223
        },
        {
          "name": "G4",
          "midi": 67,
          "time": 154.41159999999977,
          "velocity": 0.7480314960629921,
          "duration": 0.22058799999999223
        },
        {
          "name": "D4",
          "midi": 62,
          "time": 154.41159999999977,
          "velocity": 0.7480314960629921,
          "duration": 0.22058799999999223
        },
        {
          "name": "B3",
          "midi": 59,
          "time": 154.41159999999977,
          "velocity": 0.7480314960629921,
          "duration": 0.22058799999999223
        },
        {
          "name": "G4",
          "midi": 67,
          "time": 154.63218799999976,
          "velocity": 0.7480314960629921,
          "duration": 0.22058799999999223
        },
        {
          "name": "D4",
          "midi": 62,
          "time": 154.63218799999976,
          "velocity": 0.7480314960629921,
          "duration": 0.22058799999999223
        },
        {
          "name": "B3",
          "midi": 59,
          "time": 154.63218799999976,
          "velocity": 0.7480314960629921,
          "duration": 0.22058799999999223
        },
        {
          "name": "G4",
          "midi": 67,
          "time": 154.85277599999975,
          "velocity": 0.7480314960629921,
          "duration": 0.22058799999999223
        },
        {
          "name": "D4",
          "midi": 62,
          "time": 154.85277599999975,
          "velocity": 0.7480314960629921,
          "duration": 0.22058799999999223
        },
        {
          "name": "B3",
          "midi": 59,
          "time": 154.85277599999975,
          "velocity": 0.7480314960629921,
          "duration": 0.22058799999999223
        },
        {
          "name": "G4",
          "midi": 67,
          "time": 155.07336399999974,
          "velocity": 0.7480314960629921,
          "duration": 0.22058799999999223
        },
        {
          "name": "D4",
          "midi": 62,
          "time": 155.07336399999974,
          "velocity": 0.7480314960629921,
          "duration": 0.22058799999999223
        },
        {
          "name": "B3",
          "midi": 59,
          "time": 155.07336399999974,
          "velocity": 0.7480314960629921,
          "duration": 0.22058799999999223
        },
        {
          "name": "G4",
          "midi": 67,
          "time": 155.29395199999973,
          "velocity": 0.7480314960629921,
          "duration": 0.22058799999999223
        },
        {
          "name": "D4",
          "midi": 62,
          "time": 155.29395199999973,
          "velocity": 0.7480314960629921,
          "duration": 0.22058799999999223
        },
        {
          "name": "B3",
          "midi": 59,
          "time": 155.29395199999973,
          "velocity": 0.7480314960629921,
          "duration": 0.22058799999999223
        },
        {
          "name": "G4",
          "midi": 67,
          "time": 155.51453999999973,
          "velocity": 0.7480314960629921,
          "duration": 0.22058799999999223
        },
        {
          "name": "D4",
          "midi": 62,
          "time": 155.51453999999973,
          "velocity": 0.7480314960629921,
          "duration": 0.22058799999999223
        },
        {
          "name": "B3",
          "midi": 59,
          "time": 155.51453999999973,
          "velocity": 0.7480314960629921,
          "duration": 0.22058799999999223
        },
        {
          "name": "G4",
          "midi": 67,
          "time": 155.73512799999972,
          "velocity": 0.7480314960629921,
          "duration": 0.22058799999999223
        },
        {
          "name": "D4",
          "midi": 62,
          "time": 155.73512799999972,
          "velocity": 0.7480314960629921,
          "duration": 0.22058799999999223
        },
        {
          "name": "B3",
          "midi": 59,
          "time": 155.73512799999972,
          "velocity": 0.7480314960629921,
          "duration": 0.22058799999999223
        },
        {
          "name": "G4",
          "midi": 67,
          "time": 155.9557159999997,
          "velocity": 0.7480314960629921,
          "duration": 0.22058799999999223
        },
        {
          "name": "D4",
          "midi": 62,
          "time": 155.9557159999997,
          "velocity": 0.7480314960629921,
          "duration": 0.22058799999999223
        },
        {
          "name": "B3",
          "midi": 59,
          "time": 155.9557159999997,
          "velocity": 0.7480314960629921,
          "duration": 0.22058799999999223
        },
        {
          "name": "G4",
          "midi": 67,
          "time": 156.1763039999997,
          "velocity": 0.7480314960629921,
          "duration": 0.22058799999999223
        },
        {
          "name": "D4",
          "midi": 62,
          "time": 156.1763039999997,
          "velocity": 0.7480314960629921,
          "duration": 0.22058799999999223
        },
        {
          "name": "B3",
          "midi": 59,
          "time": 156.1763039999997,
          "velocity": 0.7480314960629921,
          "duration": 0.22058799999999223
        },
        {
          "name": "E4",
          "midi": 64,
          "time": 156.3968919999997,
          "velocity": 0.7480314960629921,
          "duration": 0.22058799999999223
        },
        {
          "name": "C#4",
          "midi": 61,
          "time": 156.3968919999997,
          "velocity": 0.7480314960629921,
          "duration": 0.22058799999999223
        },
        {
          "name": "A3",
          "midi": 57,
          "time": 156.3968919999997,
          "velocity": 0.7480314960629921,
          "duration": 0.22058799999999223
        },
        {
          "name": "A4",
          "midi": 69,
          "time": 156.6174799999997,
          "velocity": 0.7480314960629921,
          "duration": 0.22058799999999223
        },
        {
          "name": "E4",
          "midi": 64,
          "time": 156.6174799999997,
          "velocity": 0.7480314960629921,
          "duration": 0.22058799999999223
        },
        {
          "name": "C#4",
          "midi": 61,
          "time": 156.6174799999997,
          "velocity": 0.7480314960629921,
          "duration": 0.22058799999999223
        },
        {
          "name": "A3",
          "midi": 57,
          "time": 156.6174799999997,
          "velocity": 0.7480314960629921,
          "duration": 0.22058799999999223
        },
        {
          "name": "A4",
          "midi": 69,
          "time": 156.83806799999968,
          "velocity": 0.7480314960629921,
          "duration": 0.22058799999999223
        },
        {
          "name": "E4",
          "midi": 64,
          "time": 156.83806799999968,
          "velocity": 0.7480314960629921,
          "duration": 0.22058799999999223
        },
        {
          "name": "C#4",
          "midi": 61,
          "time": 156.83806799999968,
          "velocity": 0.7480314960629921,
          "duration": 0.22058799999999223
        },
        {
          "name": "A3",
          "midi": 57,
          "time": 156.83806799999968,
          "velocity": 0.7480314960629921,
          "duration": 0.22058799999999223
        },
        {
          "name": "F#4",
          "midi": 66,
          "time": 157.05865599999967,
          "velocity": 0.7480314960629921,
          "duration": 0.22058799999999223
        },
        {
          "name": "D4",
          "midi": 62,
          "time": 157.05865599999967,
          "velocity": 0.7480314960629921,
          "duration": 0.22058799999999223
        },
        {
          "name": "A3",
          "midi": 57,
          "time": 157.05865599999967,
          "velocity": 0.7480314960629921,
          "duration": 0.22058799999999223
        },
        {
          "name": "D3",
          "midi": 50,
          "time": 157.05865599999967,
          "velocity": 0.5984251968503937,
          "duration": 0.22058799999999223
        },
        {
          "name": "A2",
          "midi": 45,
          "time": 157.05865599999967,
          "velocity": 0.7480314960629921,
          "duration": 0.22058799999999223
        },
        {
          "name": "F#4",
          "midi": 66,
          "time": 157.27924399999966,
          "velocity": 0.7480314960629921,
          "duration": 0.22058799999999223
        },
        {
          "name": "D4",
          "midi": 62,
          "time": 157.27924399999966,
          "velocity": 0.7480314960629921,
          "duration": 0.22058799999999223
        },
        {
          "name": "A3",
          "midi": 57,
          "time": 157.27924399999966,
          "velocity": 0.7480314960629921,
          "duration": 0.22058799999999223
        },
        {
          "name": "D3",
          "midi": 50,
          "time": 157.27924399999966,
          "velocity": 0.7480314960629921,
          "duration": 0.22058799999999223
        },
        {
          "name": "A2",
          "midi": 45,
          "time": 157.27924399999966,
          "velocity": 0.7480314960629921,
          "duration": 0.22058799999999223
        },
        {
          "name": "F#4",
          "midi": 66,
          "time": 157.49983199999966,
          "velocity": 0.7480314960629921,
          "duration": 0.22058799999999223
        },
        {
          "name": "D4",
          "midi": 62,
          "time": 157.49983199999966,
          "velocity": 0.7480314960629921,
          "duration": 0.22058799999999223
        },
        {
          "name": "A3",
          "midi": 57,
          "time": 157.49983199999966,
          "velocity": 0.7480314960629921,
          "duration": 0.22058799999999223
        },
        {
          "name": "D3",
          "midi": 50,
          "time": 157.49983199999966,
          "velocity": 0.7480314960629921,
          "duration": 0.22058799999999223
        },
        {
          "name": "A2",
          "midi": 45,
          "time": 157.49983199999966,
          "velocity": 0.7480314960629921,
          "duration": 0.22058799999999223
        },
        {
          "name": "F#4",
          "midi": 66,
          "time": 157.72041999999965,
          "velocity": 0.7480314960629921,
          "duration": 0.22058799999999223
        },
        {
          "name": "D4",
          "midi": 62,
          "time": 157.72041999999965,
          "velocity": 0.7480314960629921,
          "duration": 0.22058799999999223
        },
        {
          "name": "A3",
          "midi": 57,
          "time": 157.72041999999965,
          "velocity": 0.7480314960629921,
          "duration": 0.22058799999999223
        },
        {
          "name": "D3",
          "midi": 50,
          "time": 157.72041999999965,
          "velocity": 0.7480314960629921,
          "duration": 0.22058799999999223
        },
        {
          "name": "A2",
          "midi": 45,
          "time": 157.72041999999965,
          "velocity": 0.7480314960629921,
          "duration": 0.22058799999999223
        },
        {
          "name": "F#4",
          "midi": 66,
          "time": 157.94100799999964,
          "velocity": 0.7480314960629921,
          "duration": 0.22058799999999223
        },
        {
          "name": "D4",
          "midi": 62,
          "time": 157.94100799999964,
          "velocity": 0.7480314960629921,
          "duration": 0.22058799999999223
        },
        {
          "name": "A3",
          "midi": 57,
          "time": 157.94100799999964,
          "velocity": 0.7480314960629921,
          "duration": 0.22058799999999223
        },
        {
          "name": "D3",
          "midi": 50,
          "time": 157.94100799999964,
          "velocity": 0.7480314960629921,
          "duration": 0.22058799999999223
        },
        {
          "name": "A2",
          "midi": 45,
          "time": 157.94100799999964,
          "velocity": 0.7480314960629921,
          "duration": 0.22058799999999223
        },
        {
          "name": "F#4",
          "midi": 66,
          "time": 158.16159599999963,
          "velocity": 0.7480314960629921,
          "duration": 0.22058799999999223
        },
        {
          "name": "D4",
          "midi": 62,
          "time": 158.16159599999963,
          "velocity": 0.7480314960629921,
          "duration": 0.22058799999999223
        },
        {
          "name": "A3",
          "midi": 57,
          "time": 158.16159599999963,
          "velocity": 0.7480314960629921,
          "duration": 0.22058799999999223
        },
        {
          "name": "D3",
          "midi": 50,
          "time": 158.16159599999963,
          "velocity": 0.7480314960629921,
          "duration": 0.22058799999999223
        },
        {
          "name": "A2",
          "midi": 45,
          "time": 158.16159599999963,
          "velocity": 0.7480314960629921,
          "duration": 0.22058799999999223
        },
        {
          "name": "F#4",
          "midi": 66,
          "time": 158.38218399999963,
          "velocity": 0.7480314960629921,
          "duration": 0.22058799999999223
        },
        {
          "name": "D4",
          "midi": 62,
          "time": 158.38218399999963,
          "velocity": 0.7480314960629921,
          "duration": 0.22058799999999223
        },
        {
          "name": "A3",
          "midi": 57,
          "time": 158.38218399999963,
          "velocity": 0.7480314960629921,
          "duration": 0.22058799999999223
        },
        {
          "name": "D3",
          "midi": 50,
          "time": 158.38218399999963,
          "velocity": 0.7480314960629921,
          "duration": 0.22058799999999223
        },
        {
          "name": "A2",
          "midi": 45,
          "time": 158.38218399999963,
          "velocity": 0.7480314960629921,
          "duration": 0.22058799999999223
        },
        {
          "name": "F#4",
          "midi": 66,
          "time": 158.60277199999962,
          "velocity": 0.7480314960629921,
          "duration": 0.22058799999999223
        },
        {
          "name": "D4",
          "midi": 62,
          "time": 158.60277199999962,
          "velocity": 0.7480314960629921,
          "duration": 0.22058799999999223
        },
        {
          "name": "A3",
          "midi": 57,
          "time": 158.60277199999962,
          "velocity": 0.7480314960629921,
          "duration": 0.22058799999999223
        },
        {
          "name": "D3",
          "midi": 50,
          "time": 158.60277199999962,
          "velocity": 0.7480314960629921,
          "duration": 0.22058799999999223
        },
        {
          "name": "A2",
          "midi": 45,
          "time": 158.60277199999962,
          "velocity": 0.7480314960629921,
          "duration": 0.22058799999999223
        },
        {
          "name": "F#4",
          "midi": 66,
          "time": 158.8233599999996,
          "velocity": 0.7480314960629921,
          "duration": 0.22058799999999223
        },
        {
          "name": "D4",
          "midi": 62,
          "time": 158.8233599999996,
          "velocity": 0.7480314960629921,
          "duration": 0.22058799999999223
        },
        {
          "name": "A3",
          "midi": 57,
          "time": 158.8233599999996,
          "velocity": 0.7480314960629921,
          "duration": 0.22058799999999223
        },
        {
          "name": "D3",
          "midi": 50,
          "time": 158.8233599999996,
          "velocity": 0.7480314960629921,
          "duration": 0.22058799999999223
        },
        {
          "name": "A2",
          "midi": 45,
          "time": 158.8233599999996,
          "velocity": 0.7480314960629921,
          "duration": 0.22058799999999223
        },
        {
          "name": "F#4",
          "midi": 66,
          "time": 159.0439479999996,
          "velocity": 0.7480314960629921,
          "duration": 0.22058799999999223
        },
        {
          "name": "D4",
          "midi": 62,
          "time": 159.0439479999996,
          "velocity": 0.7480314960629921,
          "duration": 0.22058799999999223
        },
        {
          "name": "A3",
          "midi": 57,
          "time": 159.0439479999996,
          "velocity": 0.7480314960629921,
          "duration": 0.22058799999999223
        },
        {
          "name": "D3",
          "midi": 50,
          "time": 159.0439479999996,
          "velocity": 0.7480314960629921,
          "duration": 0.22058799999999223
        },
        {
          "name": "A2",
          "midi": 45,
          "time": 159.0439479999996,
          "velocity": 0.7480314960629921,
          "duration": 0.22058799999999223
        },
        {
          "name": "F#4",
          "midi": 66,
          "time": 159.2645359999996,
          "velocity": 0.7480314960629921,
          "duration": 0.22058799999999223
        },
        {
          "name": "D4",
          "midi": 62,
          "time": 159.2645359999996,
          "velocity": 0.7480314960629921,
          "duration": 0.22058799999999223
        },
        {
          "name": "A3",
          "midi": 57,
          "time": 159.2645359999996,
          "velocity": 0.7480314960629921,
          "duration": 0.22058799999999223
        },
        {
          "name": "D3",
          "midi": 50,
          "time": 159.2645359999996,
          "velocity": 0.7480314960629921,
          "duration": 0.22058799999999223
        },
        {
          "name": "A2",
          "midi": 45,
          "time": 159.2645359999996,
          "velocity": 0.7480314960629921,
          "duration": 0.22058799999999223
        },
        {
          "name": "F#4",
          "midi": 66,
          "time": 159.4851239999996,
          "velocity": 0.7480314960629921,
          "duration": 0.22058799999999223
        },
        {
          "name": "D4",
          "midi": 62,
          "time": 159.4851239999996,
          "velocity": 0.7480314960629921,
          "duration": 0.22058799999999223
        },
        {
          "name": "A3",
          "midi": 57,
          "time": 159.4851239999996,
          "velocity": 0.7480314960629921,
          "duration": 0.22058799999999223
        },
        {
          "name": "D3",
          "midi": 50,
          "time": 159.4851239999996,
          "velocity": 0.7480314960629921,
          "duration": 0.22058799999999223
        },
        {
          "name": "A2",
          "midi": 45,
          "time": 159.4851239999996,
          "velocity": 0.7480314960629921,
          "duration": 0.22058799999999223
        },
        {
          "name": "F#4",
          "midi": 66,
          "time": 159.70571199999958,
          "velocity": 0.7480314960629921,
          "duration": 0.22058799999999223
        },
        {
          "name": "D4",
          "midi": 62,
          "time": 159.70571199999958,
          "velocity": 0.7480314960629921,
          "duration": 0.22058799999999223
        },
        {
          "name": "A3",
          "midi": 57,
          "time": 159.70571199999958,
          "velocity": 0.7480314960629921,
          "duration": 0.22058799999999223
        },
        {
          "name": "D3",
          "midi": 50,
          "time": 159.70571199999958,
          "velocity": 0.7480314960629921,
          "duration": 0.22058799999999223
        },
        {
          "name": "A2",
          "midi": 45,
          "time": 159.70571199999958,
          "velocity": 0.7480314960629921,
          "duration": 0.22058799999999223
        },
        {
          "name": "F#4",
          "midi": 66,
          "time": 159.92629999999957,
          "velocity": 0.7480314960629921,
          "duration": 0.22058799999999223
        },
        {
          "name": "D4",
          "midi": 62,
          "time": 159.92629999999957,
          "velocity": 0.7480314960629921,
          "duration": 0.22058799999999223
        },
        {
          "name": "A3",
          "midi": 57,
          "time": 159.92629999999957,
          "velocity": 0.7480314960629921,
          "duration": 0.22058799999999223
        },
        {
          "name": "D3",
          "midi": 50,
          "time": 159.92629999999957,
          "velocity": 0.7480314960629921,
          "duration": 0.22058799999999223
        },
        {
          "name": "A2",
          "midi": 45,
          "time": 159.92629999999957,
          "velocity": 0.7480314960629921,
          "duration": 0.22058799999999223
        },
        {
          "name": "F#4",
          "midi": 66,
          "time": 160.14688799999956,
          "velocity": 0.7480314960629921,
          "duration": 0.22058799999999223
        },
        {
          "name": "D4",
          "midi": 62,
          "time": 160.14688799999956,
          "velocity": 0.7480314960629921,
          "duration": 0.22058799999999223
        },
        {
          "name": "A3",
          "midi": 57,
          "time": 160.14688799999956,
          "velocity": 0.7480314960629921,
          "duration": 0.22058799999999223
        },
        {
          "name": "D3",
          "midi": 50,
          "time": 160.14688799999956,
          "velocity": 0.7480314960629921,
          "duration": 0.22058799999999223
        },
        {
          "name": "A2",
          "midi": 45,
          "time": 160.14688799999956,
          "velocity": 0.7480314960629921,
          "duration": 0.22058799999999223
        },
        {
          "name": "F#4",
          "midi": 66,
          "time": 160.36747599999956,
          "velocity": 0.7480314960629921,
          "duration": 0.22058799999999223
        },
        {
          "name": "D4",
          "midi": 62,
          "time": 160.36747599999956,
          "velocity": 0.7480314960629921,
          "duration": 0.22058799999999223
        },
        {
          "name": "A3",
          "midi": 57,
          "time": 160.36747599999956,
          "velocity": 0.7480314960629921,
          "duration": 0.22058799999999223
        },
        {
          "name": "D3",
          "midi": 50,
          "time": 160.36747599999956,
          "velocity": 0.7480314960629921,
          "duration": 0.22058799999999223
        },
        {
          "name": "A2",
          "midi": 45,
          "time": 160.36747599999956,
          "velocity": 0.7480314960629921,
          "duration": 0.22058799999999223
        },
        {
          "name": "F#4",
          "midi": 66,
          "time": 160.58806399999955,
          "velocity": 0.7480314960629921,
          "duration": 0.22058799999999223
        },
        {
          "name": "C#4",
          "midi": 61,
          "time": 160.58806399999955,
          "velocity": 0.7480314960629921,
          "duration": 0.22058799999999223
        },
        {
          "name": "F#3",
          "midi": 54,
          "time": 160.58806399999955,
          "velocity": 0.7480314960629921,
          "duration": 0.22058799999999223
        },
        {
          "name": "F#4",
          "midi": 66,
          "time": 160.80865199999954,
          "velocity": 0.7480314960629921,
          "duration": 0.22058799999999223
        },
        {
          "name": "C#4",
          "midi": 61,
          "time": 160.80865199999954,
          "velocity": 0.7480314960629921,
          "duration": 0.22058799999999223
        },
        {
          "name": "F#3",
          "midi": 54,
          "time": 160.80865199999954,
          "velocity": 0.7480314960629921,
          "duration": 0.22058799999999223
        },
        {
          "name": "F#4",
          "midi": 66,
          "time": 161.02923999999953,
          "velocity": 0.7480314960629921,
          "duration": 0.22058799999999223
        },
        {
          "name": "C#4",
          "midi": 61,
          "time": 161.02923999999953,
          "velocity": 0.7480314960629921,
          "duration": 0.22058799999999223
        },
        {
          "name": "F#3",
          "midi": 54,
          "time": 161.02923999999953,
          "velocity": 0.7480314960629921,
          "duration": 0.22058799999999223
        },
        {
          "name": "F#4",
          "midi": 66,
          "time": 161.24982799999952,
          "velocity": 0.7480314960629921,
          "duration": 0.22058799999999223
        },
        {
          "name": "C#4",
          "midi": 61,
          "time": 161.24982799999952,
          "velocity": 0.7480314960629921,
          "duration": 0.22058799999999223
        },
        {
          "name": "F#3",
          "midi": 54,
          "time": 161.24982799999952,
          "velocity": 0.7480314960629921,
          "duration": 0.22058799999999223
        },
        {
          "name": "F#4",
          "midi": 66,
          "time": 161.47041599999952,
          "velocity": 0.7480314960629921,
          "duration": 0.22058799999999223
        },
        {
          "name": "C#4",
          "midi": 61,
          "time": 161.47041599999952,
          "velocity": 0.7480314960629921,
          "duration": 0.22058799999999223
        },
        {
          "name": "F#3",
          "midi": 54,
          "time": 161.47041599999952,
          "velocity": 0.7480314960629921,
          "duration": 0.22058799999999223
        },
        {
          "name": "F#4",
          "midi": 66,
          "time": 161.6910039999995,
          "velocity": 0.7480314960629921,
          "duration": 0.22058799999999223
        },
        {
          "name": "C#4",
          "midi": 61,
          "time": 161.6910039999995,
          "velocity": 0.7480314960629921,
          "duration": 0.22058799999999223
        },
        {
          "name": "F#3",
          "midi": 54,
          "time": 161.6910039999995,
          "velocity": 0.7480314960629921,
          "duration": 0.22058799999999223
        },
        {
          "name": "F#4",
          "midi": 66,
          "time": 161.9115919999995,
          "velocity": 0.7480314960629921,
          "duration": 0.22058799999999223
        },
        {
          "name": "C#4",
          "midi": 61,
          "time": 161.9115919999995,
          "velocity": 0.7480314960629921,
          "duration": 0.22058799999999223
        },
        {
          "name": "F#3",
          "midi": 54,
          "time": 161.9115919999995,
          "velocity": 0.7480314960629921,
          "duration": 0.22058799999999223
        },
        {
          "name": "F#4",
          "midi": 66,
          "time": 162.1321799999995,
          "velocity": 0.7480314960629921,
          "duration": 0.22058799999999223
        },
        {
          "name": "C#4",
          "midi": 61,
          "time": 162.1321799999995,
          "velocity": 0.7480314960629921,
          "duration": 0.22058799999999223
        },
        {
          "name": "F#3",
          "midi": 54,
          "time": 162.1321799999995,
          "velocity": 0.7480314960629921,
          "duration": 0.22058799999999223
        },
        {
          "name": "F#4",
          "midi": 66,
          "time": 162.3527679999995,
          "velocity": 0.7480314960629921,
          "duration": 0.22058799999999223
        },
        {
          "name": "C#4",
          "midi": 61,
          "time": 162.3527679999995,
          "velocity": 0.7480314960629921,
          "duration": 0.22058799999999223
        },
        {
          "name": "F#3",
          "midi": 54,
          "time": 162.3527679999995,
          "velocity": 0.7480314960629921,
          "duration": 0.22058799999999223
        },
        {
          "name": "F#4",
          "midi": 66,
          "time": 162.57335599999948,
          "velocity": 0.7480314960629921,
          "duration": 0.22058799999999223
        },
        {
          "name": "C#4",
          "midi": 61,
          "time": 162.57335599999948,
          "velocity": 0.7480314960629921,
          "duration": 0.22058799999999223
        },
        {
          "name": "F#3",
          "midi": 54,
          "time": 162.57335599999948,
          "velocity": 0.7480314960629921,
          "duration": 0.22058799999999223
        },
        {
          "name": "F#4",
          "midi": 66,
          "time": 162.79394399999947,
          "velocity": 0.7480314960629921,
          "duration": 0.22058799999999223
        },
        {
          "name": "C#4",
          "midi": 61,
          "time": 162.79394399999947,
          "velocity": 0.7480314960629921,
          "duration": 0.22058799999999223
        },
        {
          "name": "F#3",
          "midi": 54,
          "time": 162.79394399999947,
          "velocity": 0.7480314960629921,
          "duration": 0.22058799999999223
        },
        {
          "name": "F#4",
          "midi": 66,
          "time": 163.01453199999946,
          "velocity": 0.7480314960629921,
          "duration": 0.22058799999999223
        },
        {
          "name": "C#4",
          "midi": 61,
          "time": 163.01453199999946,
          "velocity": 0.7480314960629921,
          "duration": 0.22058799999999223
        },
        {
          "name": "F#3",
          "midi": 54,
          "time": 163.01453199999946,
          "velocity": 0.7480314960629921,
          "duration": 0.22058799999999223
        },
        {
          "name": "F#4",
          "midi": 66,
          "time": 163.23511999999945,
          "velocity": 0.7480314960629921,
          "duration": 0.22058799999999223
        },
        {
          "name": "C#4",
          "midi": 61,
          "time": 163.23511999999945,
          "velocity": 0.7480314960629921,
          "duration": 0.22058799999999223
        },
        {
          "name": "F#3",
          "midi": 54,
          "time": 163.23511999999945,
          "velocity": 0.7480314960629921,
          "duration": 0.22058799999999223
        },
        {
          "name": "F#4",
          "midi": 66,
          "time": 163.45570799999945,
          "velocity": 0.7480314960629921,
          "duration": 0.22058799999999223
        },
        {
          "name": "C#4",
          "midi": 61,
          "time": 163.45570799999945,
          "velocity": 0.7480314960629921,
          "duration": 0.22058799999999223
        },
        {
          "name": "F#3",
          "midi": 54,
          "time": 163.45570799999945,
          "velocity": 0.7480314960629921,
          "duration": 0.22058799999999223
        },
        {
          "name": "F#4",
          "midi": 66,
          "time": 163.67629599999944,
          "velocity": 0.7480314960629921,
          "duration": 0.22058799999999223
        },
        {
          "name": "C#4",
          "midi": 61,
          "time": 163.67629599999944,
          "velocity": 0.7480314960629921,
          "duration": 0.22058799999999223
        },
        {
          "name": "F#3",
          "midi": 54,
          "time": 163.67629599999944,
          "velocity": 0.7480314960629921,
          "duration": 0.22058799999999223
        },
        {
          "name": "F#4",
          "midi": 66,
          "time": 163.89688399999943,
          "velocity": 0.7480314960629921,
          "duration": 0.22058799999999223
        },
        {
          "name": "C#4",
          "midi": 61,
          "time": 163.89688399999943,
          "velocity": 0.7480314960629921,
          "duration": 0.22058799999999223
        },
        {
          "name": "F#3",
          "midi": 54,
          "time": 163.89688399999943,
          "velocity": 0.7480314960629921,
          "duration": 0.22058799999999223
        },
        {
          "name": "G4",
          "midi": 67,
          "time": 164.11747199999942,
          "velocity": 0.7480314960629921,
          "duration": 0.22058799999999223
        },
        {
          "name": "D4",
          "midi": 62,
          "time": 164.11747199999942,
          "velocity": 0.7480314960629921,
          "duration": 0.22058799999999223
        },
        {
          "name": "G3",
          "midi": 55,
          "time": 164.11747199999942,
          "velocity": 0.7480314960629921,
          "duration": 0.22058799999999223
        },
        {
          "name": "G4",
          "midi": 67,
          "time": 164.33805999999942,
          "velocity": 0.7480314960629921,
          "duration": 0.22058799999999223
        },
        {
          "name": "D4",
          "midi": 62,
          "time": 164.33805999999942,
          "velocity": 0.7480314960629921,
          "duration": 0.22058799999999223
        },
        {
          "name": "G3",
          "midi": 55,
          "time": 164.33805999999942,
          "velocity": 0.7480314960629921,
          "duration": 0.22058799999999223
        },
        {
          "name": "G4",
          "midi": 67,
          "time": 164.5586479999994,
          "velocity": 0.7480314960629921,
          "duration": 0.22058799999999223
        },
        {
          "name": "D4",
          "midi": 62,
          "time": 164.5586479999994,
          "velocity": 0.7480314960629921,
          "duration": 0.22058799999999223
        },
        {
          "name": "G3",
          "midi": 55,
          "time": 164.5586479999994,
          "velocity": 0.7480314960629921,
          "duration": 0.22058799999999223
        },
        {
          "name": "G4",
          "midi": 67,
          "time": 164.7792359999994,
          "velocity": 0.7480314960629921,
          "duration": 0.22058799999999223
        },
        {
          "name": "D4",
          "midi": 62,
          "time": 164.7792359999994,
          "velocity": 0.7480314960629921,
          "duration": 0.22058799999999223
        },
        {
          "name": "G3",
          "midi": 55,
          "time": 164.7792359999994,
          "velocity": 0.7480314960629921,
          "duration": 0.22058799999999223
        },
        {
          "name": "G4",
          "midi": 67,
          "time": 164.9998239999994,
          "velocity": 0.7480314960629921,
          "duration": 0.22058799999999223
        },
        {
          "name": "D4",
          "midi": 62,
          "time": 164.9998239999994,
          "velocity": 0.7480314960629921,
          "duration": 0.22058799999999223
        },
        {
          "name": "G3",
          "midi": 55,
          "time": 164.9998239999994,
          "velocity": 0.7480314960629921,
          "duration": 0.22058799999999223
        },
        {
          "name": "G4",
          "midi": 67,
          "time": 165.22041199999938,
          "velocity": 0.7480314960629921,
          "duration": 0.22058799999999223
        },
        {
          "name": "D4",
          "midi": 62,
          "time": 165.22041199999938,
          "velocity": 0.7480314960629921,
          "duration": 0.22058799999999223
        },
        {
          "name": "G3",
          "midi": 55,
          "time": 165.22041199999938,
          "velocity": 0.7480314960629921,
          "duration": 0.22058799999999223
        },
        {
          "name": "G4",
          "midi": 67,
          "time": 165.44099999999938,
          "velocity": 0.7480314960629921,
          "duration": 0.22058799999999223
        },
        {
          "name": "D4",
          "midi": 62,
          "time": 165.44099999999938,
          "velocity": 0.7480314960629921,
          "duration": 0.22058799999999223
        },
        {
          "name": "G3",
          "midi": 55,
          "time": 165.44099999999938,
          "velocity": 0.7480314960629921,
          "duration": 0.22058799999999223
        },
        {
          "name": "G4",
          "midi": 67,
          "time": 165.66158799999937,
          "velocity": 0.7480314960629921,
          "duration": 0.22058799999999223
        },
        {
          "name": "D4",
          "midi": 62,
          "time": 165.66158799999937,
          "velocity": 0.7480314960629921,
          "duration": 0.22058799999999223
        },
        {
          "name": "G3",
          "midi": 55,
          "time": 165.66158799999937,
          "velocity": 0.7480314960629921,
          "duration": 0.22058799999999223
        },
        {
          "name": "G4",
          "midi": 67,
          "time": 165.88217599999936,
          "velocity": 0.7480314960629921,
          "duration": 0.22058799999999223
        },
        {
          "name": "D4",
          "midi": 62,
          "time": 165.88217599999936,
          "velocity": 0.7480314960629921,
          "duration": 0.22058799999999223
        },
        {
          "name": "G3",
          "midi": 55,
          "time": 165.88217599999936,
          "velocity": 0.7480314960629921,
          "duration": 0.22058799999999223
        },
        {
          "name": "G4",
          "midi": 67,
          "time": 166.10276399999935,
          "velocity": 0.7480314960629921,
          "duration": 0.22058799999999223
        },
        {
          "name": "D4",
          "midi": 62,
          "time": 166.10276399999935,
          "velocity": 0.7480314960629921,
          "duration": 0.22058799999999223
        },
        {
          "name": "G3",
          "midi": 55,
          "time": 166.10276399999935,
          "velocity": 0.7480314960629921,
          "duration": 0.22058799999999223
        },
        {
          "name": "G4",
          "midi": 67,
          "time": 166.32335199999935,
          "velocity": 0.7480314960629921,
          "duration": 0.22058799999999223
        },
        {
          "name": "D4",
          "midi": 62,
          "time": 166.32335199999935,
          "velocity": 0.7480314960629921,
          "duration": 0.22058799999999223
        },
        {
          "name": "G3",
          "midi": 55,
          "time": 166.32335199999935,
          "velocity": 0.7480314960629921,
          "duration": 0.22058799999999223
        },
        {
          "name": "G4",
          "midi": 67,
          "time": 166.54393999999934,
          "velocity": 0.7480314960629921,
          "duration": 0.22058799999999223
        },
        {
          "name": "D4",
          "midi": 62,
          "time": 166.54393999999934,
          "velocity": 0.7480314960629921,
          "duration": 0.22058799999999223
        },
        {
          "name": "G3",
          "midi": 55,
          "time": 166.54393999999934,
          "velocity": 0.7480314960629921,
          "duration": 0.22058799999999223
        },
        {
          "name": "G4",
          "midi": 67,
          "time": 166.76452799999933,
          "velocity": 0.7480314960629921,
          "duration": 0.22058799999999223
        },
        {
          "name": "D4",
          "midi": 62,
          "time": 166.76452799999933,
          "velocity": 0.7480314960629921,
          "duration": 0.22058799999999223
        },
        {
          "name": "G3",
          "midi": 55,
          "time": 166.76452799999933,
          "velocity": 0.7480314960629921,
          "duration": 0.22058799999999223
        },
        {
          "name": "G4",
          "midi": 67,
          "time": 166.98511599999932,
          "velocity": 0.7480314960629921,
          "duration": 0.22058799999999223
        },
        {
          "name": "D4",
          "midi": 62,
          "time": 166.98511599999932,
          "velocity": 0.7480314960629921,
          "duration": 0.22058799999999223
        },
        {
          "name": "G3",
          "midi": 55,
          "time": 166.98511599999932,
          "velocity": 0.7480314960629921,
          "duration": 0.22058799999999223
        },
        {
          "name": "G4",
          "midi": 67,
          "time": 167.20570399999932,
          "velocity": 0.7480314960629921,
          "duration": 0.22058799999999223
        },
        {
          "name": "D4",
          "midi": 62,
          "time": 167.20570399999932,
          "velocity": 0.7480314960629921,
          "duration": 0.22058799999999223
        },
        {
          "name": "G3",
          "midi": 55,
          "time": 167.20570399999932,
          "velocity": 0.7480314960629921,
          "duration": 0.22058799999999223
        },
        {
          "name": "G4",
          "midi": 67,
          "time": 167.4262919999993,
          "velocity": 0.7480314960629921,
          "duration": 0.22058799999999223
        },
        {
          "name": "D4",
          "midi": 62,
          "time": 167.4262919999993,
          "velocity": 0.7480314960629921,
          "duration": 0.22058799999999223
        },
        {
          "name": "G3",
          "midi": 55,
          "time": 167.4262919999993,
          "velocity": 0.7480314960629921,
          "duration": 0.22058799999999223
        },
        {
          "name": "F#4",
          "midi": 66,
          "time": 167.6468799999993,
          "velocity": 0.7480314960629921,
          "duration": 0.22058799999999223
        },
        {
          "name": "D4",
          "midi": 62,
          "time": 167.6468799999993,
          "velocity": 0.7480314960629921,
          "duration": 0.22058799999999223
        },
        {
          "name": "A3",
          "midi": 57,
          "time": 167.6468799999993,
          "velocity": 0.7480314960629921,
          "duration": 0.22058799999999223
        },
        {
          "name": "D3",
          "midi": 50,
          "time": 167.6468799999993,
          "velocity": 0.7480314960629921,
          "duration": 0.22058799999999223
        },
        {
          "name": "F#4",
          "midi": 66,
          "time": 167.8674679999993,
          "velocity": 0.7480314960629921,
          "duration": 0.22058799999999223
        },
        {
          "name": "D4",
          "midi": 62,
          "time": 167.8674679999993,
          "velocity": 0.7480314960629921,
          "duration": 0.22058799999999223
        },
        {
          "name": "A3",
          "midi": 57,
          "time": 167.8674679999993,
          "velocity": 0.7480314960629921,
          "duration": 0.22058799999999223
        },
        {
          "name": "D3",
          "midi": 50,
          "time": 167.8674679999993,
          "velocity": 0.7480314960629921,
          "duration": 0.22058799999999223
        },
        {
          "name": "F#4",
          "midi": 66,
          "time": 168.08805599999928,
          "velocity": 0.7480314960629921,
          "duration": 0.22058799999999223
        },
        {
          "name": "D4",
          "midi": 62,
          "time": 168.08805599999928,
          "velocity": 0.7480314960629921,
          "duration": 0.22058799999999223
        },
        {
          "name": "A3",
          "midi": 57,
          "time": 168.08805599999928,
          "velocity": 0.7480314960629921,
          "duration": 0.22058799999999223
        },
        {
          "name": "D3",
          "midi": 50,
          "time": 168.08805599999928,
          "velocity": 0.7480314960629921,
          "duration": 0.22058799999999223
        },
        {
          "name": "F#4",
          "midi": 66,
          "time": 168.30864399999928,
          "velocity": 0.7480314960629921,
          "duration": 0.22058799999999223
        },
        {
          "name": "D4",
          "midi": 62,
          "time": 168.30864399999928,
          "velocity": 0.7480314960629921,
          "duration": 0.22058799999999223
        },
        {
          "name": "A3",
          "midi": 57,
          "time": 168.30864399999928,
          "velocity": 0.7480314960629921,
          "duration": 0.22058799999999223
        },
        {
          "name": "D3",
          "midi": 50,
          "time": 168.30864399999928,
          "velocity": 0.7480314960629921,
          "duration": 0.22058799999999223
        },
        {
          "name": "F#4",
          "midi": 66,
          "time": 168.52923199999927,
          "velocity": 0.7480314960629921,
          "duration": 0.22058799999999223
        },
        {
          "name": "D4",
          "midi": 62,
          "time": 168.52923199999927,
          "velocity": 0.7480314960629921,
          "duration": 0.22058799999999223
        },
        {
          "name": "A3",
          "midi": 57,
          "time": 168.52923199999927,
          "velocity": 0.7480314960629921,
          "duration": 0.22058799999999223
        },
        {
          "name": "D3",
          "midi": 50,
          "time": 168.52923199999927,
          "velocity": 0.7480314960629921,
          "duration": 0.22058799999999223
        },
        {
          "name": "F#4",
          "midi": 66,
          "time": 168.74981999999926,
          "velocity": 0.7480314960629921,
          "duration": 0.22058799999999223
        },
        {
          "name": "D4",
          "midi": 62,
          "time": 168.74981999999926,
          "velocity": 0.7480314960629921,
          "duration": 0.22058799999999223
        },
        {
          "name": "A3",
          "midi": 57,
          "time": 168.74981999999926,
          "velocity": 0.7480314960629921,
          "duration": 0.22058799999999223
        },
        {
          "name": "D3",
          "midi": 50,
          "time": 168.74981999999926,
          "velocity": 0.7480314960629921,
          "duration": 0.22058799999999223
        },
        {
          "name": "F#4",
          "midi": 66,
          "time": 168.97040799999925,
          "velocity": 0.7480314960629921,
          "duration": 0.22058799999999223
        },
        {
          "name": "D4",
          "midi": 62,
          "time": 168.97040799999925,
          "velocity": 0.7480314960629921,
          "duration": 0.22058799999999223
        },
        {
          "name": "A3",
          "midi": 57,
          "time": 168.97040799999925,
          "velocity": 0.7480314960629921,
          "duration": 0.22058799999999223
        },
        {
          "name": "D3",
          "midi": 50,
          "time": 168.97040799999925,
          "velocity": 0.7480314960629921,
          "duration": 0.22058799999999223
        },
        {
          "name": "F#4",
          "midi": 66,
          "time": 169.19099599999925,
          "velocity": 0.7480314960629921,
          "duration": 0.22058799999999223
        },
        {
          "name": "D4",
          "midi": 62,
          "time": 169.19099599999925,
          "velocity": 0.7480314960629921,
          "duration": 0.22058799999999223
        },
        {
          "name": "A3",
          "midi": 57,
          "time": 169.19099599999925,
          "velocity": 0.7480314960629921,
          "duration": 0.22058799999999223
        },
        {
          "name": "D3",
          "midi": 50,
          "time": 169.19099599999925,
          "velocity": 0.7480314960629921,
          "duration": 0.22058799999999223
        },
        {
          "name": "F#4",
          "midi": 66,
          "time": 169.41158399999924,
          "velocity": 0.7480314960629921,
          "duration": 0.22058799999999223
        },
        {
          "name": "D4",
          "midi": 62,
          "time": 169.41158399999924,
          "velocity": 0.7480314960629921,
          "duration": 0.22058799999999223
        },
        {
          "name": "A3",
          "midi": 57,
          "time": 169.41158399999924,
          "velocity": 0.7480314960629921,
          "duration": 0.22058799999999223
        },
        {
          "name": "D3",
          "midi": 50,
          "time": 169.41158399999924,
          "velocity": 0.7480314960629921,
          "duration": 0.22058799999999223
        },
        {
          "name": "F#4",
          "midi": 66,
          "time": 169.63217199999923,
          "velocity": 0.7480314960629921,
          "duration": 0.22058799999999223
        },
        {
          "name": "D4",
          "midi": 62,
          "time": 169.63217199999923,
          "velocity": 0.7480314960629921,
          "duration": 0.22058799999999223
        },
        {
          "name": "A3",
          "midi": 57,
          "time": 169.63217199999923,
          "velocity": 0.7480314960629921,
          "duration": 0.22058799999999223
        },
        {
          "name": "D3",
          "midi": 50,
          "time": 169.63217199999923,
          "velocity": 0.7480314960629921,
          "duration": 0.22058799999999223
        },
        {
          "name": "F#4",
          "midi": 66,
          "time": 169.85275999999922,
          "velocity": 0.7480314960629921,
          "duration": 0.22058799999999223
        },
        {
          "name": "D4",
          "midi": 62,
          "time": 169.85275999999922,
          "velocity": 0.7480314960629921,
          "duration": 0.22058799999999223
        },
        {
          "name": "A3",
          "midi": 57,
          "time": 169.85275999999922,
          "velocity": 0.7480314960629921,
          "duration": 0.22058799999999223
        },
        {
          "name": "D3",
          "midi": 50,
          "time": 169.85275999999922,
          "velocity": 0.7480314960629921,
          "duration": 0.22058799999999223
        },
        {
          "name": "F#4",
          "midi": 66,
          "time": 170.0733479999992,
          "velocity": 0.7480314960629921,
          "duration": 0.22058799999999223
        },
        {
          "name": "D4",
          "midi": 62,
          "time": 170.0733479999992,
          "velocity": 0.7480314960629921,
          "duration": 0.22058799999999223
        },
        {
          "name": "A3",
          "midi": 57,
          "time": 170.0733479999992,
          "velocity": 0.7480314960629921,
          "duration": 0.22058799999999223
        },
        {
          "name": "D3",
          "midi": 50,
          "time": 170.0733479999992,
          "velocity": 0.7480314960629921,
          "duration": 0.22058799999999223
        },
        {
          "name": "F#4",
          "midi": 66,
          "time": 170.2939359999992,
          "velocity": 0.7480314960629921,
          "duration": 0.22058799999999223
        },
        {
          "name": "D4",
          "midi": 62,
          "time": 170.2939359999992,
          "velocity": 0.7480314960629921,
          "duration": 0.22058799999999223
        },
        {
          "name": "A3",
          "midi": 57,
          "time": 170.2939359999992,
          "velocity": 0.7480314960629921,
          "duration": 0.22058799999999223
        },
        {
          "name": "D3",
          "midi": 50,
          "time": 170.2939359999992,
          "velocity": 0.7480314960629921,
          "duration": 0.22058799999999223
        },
        {
          "name": "F#4",
          "midi": 66,
          "time": 170.5145239999992,
          "velocity": 0.7480314960629921,
          "duration": 0.22058799999999223
        },
        {
          "name": "D4",
          "midi": 62,
          "time": 170.5145239999992,
          "velocity": 0.7480314960629921,
          "duration": 0.22058799999999223
        },
        {
          "name": "A3",
          "midi": 57,
          "time": 170.5145239999992,
          "velocity": 0.7480314960629921,
          "duration": 0.22058799999999223
        },
        {
          "name": "D3",
          "midi": 50,
          "time": 170.5145239999992,
          "velocity": 0.7480314960629921,
          "duration": 0.22058799999999223
        },
        {
          "name": "F#4",
          "midi": 66,
          "time": 170.7351119999992,
          "velocity": 0.7480314960629921,
          "duration": 0.22058799999999223
        },
        {
          "name": "D4",
          "midi": 62,
          "time": 170.7351119999992,
          "velocity": 0.7480314960629921,
          "duration": 0.22058799999999223
        },
        {
          "name": "A3",
          "midi": 57,
          "time": 170.7351119999992,
          "velocity": 0.7480314960629921,
          "duration": 0.22058799999999223
        },
        {
          "name": "D3",
          "midi": 50,
          "time": 170.7351119999992,
          "velocity": 0.7480314960629921,
          "duration": 0.22058799999999223
        },
        {
          "name": "F#4",
          "midi": 66,
          "time": 170.95569999999918,
          "velocity": 0.7480314960629921,
          "duration": 0.22058799999999223
        },
        {
          "name": "D4",
          "midi": 62,
          "time": 170.95569999999918,
          "velocity": 0.7480314960629921,
          "duration": 0.22058799999999223
        },
        {
          "name": "A3",
          "midi": 57,
          "time": 170.95569999999918,
          "velocity": 0.7480314960629921,
          "duration": 0.22058799999999223
        },
        {
          "name": "D3",
          "midi": 50,
          "time": 170.95569999999918,
          "velocity": 0.7480314960629921,
          "duration": 0.22058799999999223
        },
        {
          "name": "F#4",
          "midi": 66,
          "time": 171.17628799999918,
          "velocity": 0.7480314960629921,
          "duration": 0.22058799999999223
        },
        {
          "name": "C#4",
          "midi": 61,
          "time": 171.17628799999918,
          "velocity": 0.7480314960629921,
          "duration": 0.22058799999999223
        },
        {
          "name": "F#3",
          "midi": 54,
          "time": 171.17628799999918,
          "velocity": 0.7480314960629921,
          "duration": 0.22058799999999223
        },
        {
          "name": "F#4",
          "midi": 66,
          "time": 171.39687599999917,
          "velocity": 0.7480314960629921,
          "duration": 0.22058799999999223
        },
        {
          "name": "C#4",
          "midi": 61,
          "time": 171.39687599999917,
          "velocity": 0.7480314960629921,
          "duration": 0.22058799999999223
        },
        {
          "name": "F#3",
          "midi": 54,
          "time": 171.39687599999917,
          "velocity": 0.7480314960629921,
          "duration": 0.22058799999999223
        },
        {
          "name": "F#4",
          "midi": 66,
          "time": 171.61746399999916,
          "velocity": 0.7480314960629921,
          "duration": 0.22058799999999223
        },
        {
          "name": "C#4",
          "midi": 61,
          "time": 171.61746399999916,
          "velocity": 0.7480314960629921,
          "duration": 0.22058799999999223
        },
        {
          "name": "F#3",
          "midi": 54,
          "time": 171.61746399999916,
          "velocity": 0.7480314960629921,
          "duration": 0.22058799999999223
        },
        {
          "name": "F#4",
          "midi": 66,
          "time": 171.83805199999915,
          "velocity": 0.7480314960629921,
          "duration": 0.22058799999999223
        },
        {
          "name": "C#4",
          "midi": 61,
          "time": 171.83805199999915,
          "velocity": 0.7480314960629921,
          "duration": 0.22058799999999223
        },
        {
          "name": "F#3",
          "midi": 54,
          "time": 171.83805199999915,
          "velocity": 0.7480314960629921,
          "duration": 0.22058799999999223
        },
        {
          "name": "F#4",
          "midi": 66,
          "time": 172.05863999999914,
          "velocity": 0.7480314960629921,
          "duration": 0.22058799999999223
        },
        {
          "name": "C#4",
          "midi": 61,
          "time": 172.05863999999914,
          "velocity": 0.7480314960629921,
          "duration": 0.22058799999999223
        },
        {
          "name": "F#3",
          "midi": 54,
          "time": 172.05863999999914,
          "velocity": 0.7480314960629921,
          "duration": 0.22058799999999223
        },
        {
          "name": "F#4",
          "midi": 66,
          "time": 172.27922799999914,
          "velocity": 0.7480314960629921,
          "duration": 0.22058799999999223
        },
        {
          "name": "C#4",
          "midi": 61,
          "time": 172.27922799999914,
          "velocity": 0.7480314960629921,
          "duration": 0.22058799999999223
        },
        {
          "name": "F#3",
          "midi": 54,
          "time": 172.27922799999914,
          "velocity": 0.7480314960629921,
          "duration": 0.22058799999999223
        },
        {
          "name": "F#4",
          "midi": 66,
          "time": 172.49981599999913,
          "velocity": 0.7480314960629921,
          "duration": 0.22058799999999223
        },
        {
          "name": "C#4",
          "midi": 61,
          "time": 172.49981599999913,
          "velocity": 0.7480314960629921,
          "duration": 0.22058799999999223
        },
        {
          "name": "F#3",
          "midi": 54,
          "time": 172.49981599999913,
          "velocity": 0.7480314960629921,
          "duration": 0.22058799999999223
        },
        {
          "name": "F#4",
          "midi": 66,
          "time": 172.72040399999912,
          "velocity": 0.7480314960629921,
          "duration": 0.22058799999999223
        },
        {
          "name": "C#4",
          "midi": 61,
          "time": 172.72040399999912,
          "velocity": 0.7480314960629921,
          "duration": 0.22058799999999223
        },
        {
          "name": "F#3",
          "midi": 54,
          "time": 172.72040399999912,
          "velocity": 0.7480314960629921,
          "duration": 0.22058799999999223
        },
        {
          "name": "F#4",
          "midi": 66,
          "time": 172.9409919999991,
          "velocity": 0.7480314960629921,
          "duration": 0.22058799999999223
        },
        {
          "name": "C#4",
          "midi": 61,
          "time": 172.9409919999991,
          "velocity": 0.7480314960629921,
          "duration": 0.22058799999999223
        },
        {
          "name": "F#3",
          "midi": 54,
          "time": 172.9409919999991,
          "velocity": 0.7480314960629921,
          "duration": 0.22058799999999223
        },
        {
          "name": "F#4",
          "midi": 66,
          "time": 173.1615799999991,
          "velocity": 0.7480314960629921,
          "duration": 0.22058799999999223
        },
        {
          "name": "C#4",
          "midi": 61,
          "time": 173.1615799999991,
          "velocity": 0.7480314960629921,
          "duration": 0.22058799999999223
        },
        {
          "name": "F#3",
          "midi": 54,
          "time": 173.1615799999991,
          "velocity": 0.7480314960629921,
          "duration": 0.22058799999999223
        },
        {
          "name": "F#4",
          "midi": 66,
          "time": 173.3821679999991,
          "velocity": 0.7480314960629921,
          "duration": 0.22058799999999223
        },
        {
          "name": "C#4",
          "midi": 61,
          "time": 173.3821679999991,
          "velocity": 0.7480314960629921,
          "duration": 0.22058799999999223
        },
        {
          "name": "F#3",
          "midi": 54,
          "time": 173.3821679999991,
          "velocity": 0.7480314960629921,
          "duration": 0.22058799999999223
        },
        {
          "name": "F#4",
          "midi": 66,
          "time": 173.6027559999991,
          "velocity": 0.7480314960629921,
          "duration": 0.22058799999999223
        },
        {
          "name": "C#4",
          "midi": 61,
          "time": 173.6027559999991,
          "velocity": 0.7480314960629921,
          "duration": 0.22058799999999223
        },
        {
          "name": "F#3",
          "midi": 54,
          "time": 173.6027559999991,
          "velocity": 0.7480314960629921,
          "duration": 0.22058799999999223
        },
        {
          "name": "F#4",
          "midi": 66,
          "time": 173.82334399999908,
          "velocity": 0.7480314960629921,
          "duration": 0.22058799999999223
        },
        {
          "name": "C#4",
          "midi": 61,
          "time": 173.82334399999908,
          "velocity": 0.7480314960629921,
          "duration": 0.22058799999999223
        },
        {
          "name": "F#3",
          "midi": 54,
          "time": 173.82334399999908,
          "velocity": 0.7480314960629921,
          "duration": 0.22058799999999223
        },
        {
          "name": "F#4",
          "midi": 66,
          "time": 174.04393199999907,
          "velocity": 0.7480314960629921,
          "duration": 0.22058799999999223
        },
        {
          "name": "C#4",
          "midi": 61,
          "time": 174.04393199999907,
          "velocity": 0.7480314960629921,
          "duration": 0.22058799999999223
        },
        {
          "name": "F#3",
          "midi": 54,
          "time": 174.04393199999907,
          "velocity": 0.7480314960629921,
          "duration": 0.22058799999999223
        },
        {
          "name": "F#4",
          "midi": 66,
          "time": 174.26451999999907,
          "velocity": 0.7480314960629921,
          "duration": 0.22058799999999223
        },
        {
          "name": "C#4",
          "midi": 61,
          "time": 174.26451999999907,
          "velocity": 0.7480314960629921,
          "duration": 0.22058799999999223
        },
        {
          "name": "F#3",
          "midi": 54,
          "time": 174.26451999999907,
          "velocity": 0.7480314960629921,
          "duration": 0.22058799999999223
        },
        {
          "name": "F#4",
          "midi": 66,
          "time": 174.48510799999906,
          "velocity": 0.7480314960629921,
          "duration": 0.22058799999999223
        },
        {
          "name": "C#4",
          "midi": 61,
          "time": 174.48510799999906,
          "velocity": 0.7480314960629921,
          "duration": 0.22058799999999223
        },
        {
          "name": "F#3",
          "midi": 54,
          "time": 174.48510799999906,
          "velocity": 0.7480314960629921,
          "duration": 0.22058799999999223
        },
        {
          "name": "G4",
          "midi": 67,
          "time": 174.70569599999905,
          "velocity": 0.7480314960629921,
          "duration": 0.22058799999999223
        },
        {
          "name": "D4",
          "midi": 62,
          "time": 174.70569599999905,
          "velocity": 0.7480314960629921,
          "duration": 0.22058799999999223
        },
        {
          "name": "G3",
          "midi": 55,
          "time": 174.70569599999905,
          "velocity": 0.7480314960629921,
          "duration": 0.22058799999999223
        },
        {
          "name": "G4",
          "midi": 67,
          "time": 174.92628399999904,
          "velocity": 0.7480314960629921,
          "duration": 0.22058799999999223
        },
        {
          "name": "D4",
          "midi": 62,
          "time": 174.92628399999904,
          "velocity": 0.7480314960629921,
          "duration": 0.22058799999999223
        },
        {
          "name": "G3",
          "midi": 55,
          "time": 174.92628399999904,
          "velocity": 0.7480314960629921,
          "duration": 0.22058799999999223
        },
        {
          "name": "G4",
          "midi": 67,
          "time": 175.14687199999904,
          "velocity": 0.7480314960629921,
          "duration": 0.22058799999999223
        },
        {
          "name": "D4",
          "midi": 62,
          "time": 175.14687199999904,
          "velocity": 0.7480314960629921,
          "duration": 0.22058799999999223
        },
        {
          "name": "G3",
          "midi": 55,
          "time": 175.14687199999904,
          "velocity": 0.7480314960629921,
          "duration": 0.22058799999999223
        },
        {
          "name": "G4",
          "midi": 67,
          "time": 175.36745999999903,
          "velocity": 0.7480314960629921,
          "duration": 0.22058799999999223
        },
        {
          "name": "D4",
          "midi": 62,
          "time": 175.36745999999903,
          "velocity": 0.7480314960629921,
          "duration": 0.22058799999999223
        },
        {
          "name": "G3",
          "midi": 55,
          "time": 175.36745999999903,
          "velocity": 0.7480314960629921,
          "duration": 0.22058799999999223
        },
        {
          "name": "G4",
          "midi": 67,
          "time": 175.58804799999902,
          "velocity": 0.7480314960629921,
          "duration": 0.22058799999999223
        },
        {
          "name": "D4",
          "midi": 62,
          "time": 175.58804799999902,
          "velocity": 0.7480314960629921,
          "duration": 0.22058799999999223
        },
        {
          "name": "G3",
          "midi": 55,
          "time": 175.58804799999902,
          "velocity": 0.7480314960629921,
          "duration": 0.22058799999999223
        },
        {
          "name": "G4",
          "midi": 67,
          "time": 175.808635999999,
          "velocity": 0.7480314960629921,
          "duration": 0.22058799999999223
        },
        {
          "name": "D4",
          "midi": 62,
          "time": 175.808635999999,
          "velocity": 0.7480314960629921,
          "duration": 0.22058799999999223
        },
        {
          "name": "G3",
          "midi": 55,
          "time": 175.808635999999,
          "velocity": 0.7480314960629921,
          "duration": 0.22058799999999223
        },
        {
          "name": "G4",
          "midi": 67,
          "time": 176.029223999999,
          "velocity": 0.7480314960629921,
          "duration": 0.22058799999999223
        },
        {
          "name": "D4",
          "midi": 62,
          "time": 176.029223999999,
          "velocity": 0.7480314960629921,
          "duration": 0.22058799999999223
        },
        {
          "name": "G3",
          "midi": 55,
          "time": 176.029223999999,
          "velocity": 0.7480314960629921,
          "duration": 0.22058799999999223
        },
        {
          "name": "G4",
          "midi": 67,
          "time": 176.249811999999,
          "velocity": 0.7480314960629921,
          "duration": 0.22058799999999223
        },
        {
          "name": "D4",
          "midi": 62,
          "time": 176.249811999999,
          "velocity": 0.7480314960629921,
          "duration": 0.22058799999999223
        },
        {
          "name": "G3",
          "midi": 55,
          "time": 176.249811999999,
          "velocity": 0.7480314960629921,
          "duration": 0.22058799999999223
        },
        {
          "name": "G4",
          "midi": 67,
          "time": 176.470399999999,
          "velocity": 0.7480314960629921,
          "duration": 0.22058799999999223
        },
        {
          "name": "D4",
          "midi": 62,
          "time": 176.470399999999,
          "velocity": 0.7480314960629921,
          "duration": 0.22058799999999223
        },
        {
          "name": "G3",
          "midi": 55,
          "time": 176.470399999999,
          "velocity": 0.7480314960629921,
          "duration": 0.22058799999999223
        },
        {
          "name": "G4",
          "midi": 67,
          "time": 176.69098799999898,
          "velocity": 0.7480314960629921,
          "duration": 0.22058799999999223
        },
        {
          "name": "D4",
          "midi": 62,
          "time": 176.69098799999898,
          "velocity": 0.7480314960629921,
          "duration": 0.22058799999999223
        },
        {
          "name": "G3",
          "midi": 55,
          "time": 176.69098799999898,
          "velocity": 0.7480314960629921,
          "duration": 0.22058799999999223
        },
        {
          "name": "G4",
          "midi": 67,
          "time": 176.91157599999897,
          "velocity": 0.7480314960629921,
          "duration": 0.22058799999999223
        },
        {
          "name": "D4",
          "midi": 62,
          "time": 176.91157599999897,
          "velocity": 0.7480314960629921,
          "duration": 0.22058799999999223
        },
        {
          "name": "G3",
          "midi": 55,
          "time": 176.91157599999897,
          "velocity": 0.7480314960629921,
          "duration": 0.22058799999999223
        },
        {
          "name": "G4",
          "midi": 67,
          "time": 177.13216399999897,
          "velocity": 0.7480314960629921,
          "duration": 0.22058799999999223
        },
        {
          "name": "D4",
          "midi": 62,
          "time": 177.13216399999897,
          "velocity": 0.7480314960629921,
          "duration": 0.22058799999999223
        },
        {
          "name": "G3",
          "midi": 55,
          "time": 177.13216399999897,
          "velocity": 0.7480314960629921,
          "duration": 0.22058799999999223
        },
        {
          "name": "G4",
          "midi": 67,
          "time": 177.35275199999896,
          "velocity": 0.7480314960629921,
          "duration": 0.22058799999999223
        },
        {
          "name": "D4",
          "midi": 62,
          "time": 177.35275199999896,
          "velocity": 0.7480314960629921,
          "duration": 0.22058799999999223
        },
        {
          "name": "G3",
          "midi": 55,
          "time": 177.35275199999896,
          "velocity": 0.7480314960629921,
          "duration": 0.22058799999999223
        },
        {
          "name": "G4",
          "midi": 67,
          "time": 177.57333999999895,
          "velocity": 0.7480314960629921,
          "duration": 0.22058799999999223
        },
        {
          "name": "D4",
          "midi": 62,
          "time": 177.57333999999895,
          "velocity": 0.7480314960629921,
          "duration": 0.22058799999999223
        },
        {
          "name": "G3",
          "midi": 55,
          "time": 177.57333999999895,
          "velocity": 0.7480314960629921,
          "duration": 0.22058799999999223
        },
        {
          "name": "G4",
          "midi": 67,
          "time": 177.79392799999894,
          "velocity": 0.7480314960629921,
          "duration": 0.22058799999999223
        },
        {
          "name": "D4",
          "midi": 62,
          "time": 177.79392799999894,
          "velocity": 0.7480314960629921,
          "duration": 0.22058799999999223
        },
        {
          "name": "G3",
          "midi": 55,
          "time": 177.79392799999894,
          "velocity": 0.7480314960629921,
          "duration": 0.22058799999999223
        },
        {
          "name": "G4",
          "midi": 67,
          "time": 178.01451599999893,
          "velocity": 0.7480314960629921,
          "duration": 0.22058799999999223
        },
        {
          "name": "D4",
          "midi": 62,
          "time": 178.01451599999893,
          "velocity": 0.7480314960629921,
          "duration": 0.22058799999999223
        },
        {
          "name": "G3",
          "midi": 55,
          "time": 178.01451599999893,
          "velocity": 0.7480314960629921,
          "duration": 0.22058799999999223
        },
        {
          "name": "F#4",
          "midi": 66,
          "time": 178.23510399999893,
          "velocity": 0.7480314960629921,
          "duration": 0.22058799999999223
        },
        {
          "name": "D4",
          "midi": 62,
          "time": 178.23510399999893,
          "velocity": 0.7480314960629921,
          "duration": 0.22058799999999223
        },
        {
          "name": "A3",
          "midi": 57,
          "time": 178.23510399999893,
          "velocity": 0.7480314960629921,
          "duration": 0.22058799999999223
        },
        {
          "name": "D3",
          "midi": 50,
          "time": 178.23510399999893,
          "velocity": 0.7480314960629921,
          "duration": 0.22058799999999223
        },
        {
          "name": "F#4",
          "midi": 66,
          "time": 178.45569199999892,
          "velocity": 0.7480314960629921,
          "duration": 0.22058799999999223
        },
        {
          "name": "D4",
          "midi": 62,
          "time": 178.45569199999892,
          "velocity": 0.7480314960629921,
          "duration": 0.22058799999999223
        },
        {
          "name": "A3",
          "midi": 57,
          "time": 178.45569199999892,
          "velocity": 0.7480314960629921,
          "duration": 0.22058799999999223
        },
        {
          "name": "D3",
          "midi": 50,
          "time": 178.45569199999892,
          "velocity": 0.7480314960629921,
          "duration": 0.22058799999999223
        },
        {
          "name": "F#4",
          "midi": 66,
          "time": 178.6762799999989,
          "velocity": 0.7480314960629921,
          "duration": 0.22058799999999223
        },
        {
          "name": "D4",
          "midi": 62,
          "time": 178.6762799999989,
          "velocity": 0.7480314960629921,
          "duration": 0.22058799999999223
        },
        {
          "name": "A3",
          "midi": 57,
          "time": 178.6762799999989,
          "velocity": 0.7480314960629921,
          "duration": 0.22058799999999223
        },
        {
          "name": "D3",
          "midi": 50,
          "time": 178.6762799999989,
          "velocity": 0.7480314960629921,
          "duration": 0.22058799999999223
        },
        {
          "name": "F#4",
          "midi": 66,
          "time": 178.8968679999989,
          "velocity": 0.7480314960629921,
          "duration": 0.22058799999999223
        },
        {
          "name": "D4",
          "midi": 62,
          "time": 178.8968679999989,
          "velocity": 0.7480314960629921,
          "duration": 0.22058799999999223
        },
        {
          "name": "A3",
          "midi": 57,
          "time": 178.8968679999989,
          "velocity": 0.7480314960629921,
          "duration": 0.22058799999999223
        },
        {
          "name": "D3",
          "midi": 50,
          "time": 178.8968679999989,
          "velocity": 0.7480314960629921,
          "duration": 0.22058799999999223
        },
        {
          "name": "F#4",
          "midi": 66,
          "time": 179.1174559999989,
          "velocity": 0.7480314960629921,
          "duration": 0.22058799999999223
        },
        {
          "name": "D4",
          "midi": 62,
          "time": 179.1174559999989,
          "velocity": 0.7480314960629921,
          "duration": 0.22058799999999223
        },
        {
          "name": "A3",
          "midi": 57,
          "time": 179.1174559999989,
          "velocity": 0.7480314960629921,
          "duration": 0.22058799999999223
        },
        {
          "name": "D3",
          "midi": 50,
          "time": 179.1174559999989,
          "velocity": 0.7480314960629921,
          "duration": 0.22058799999999223
        },
        {
          "name": "F#4",
          "midi": 66,
          "time": 179.3380439999989,
          "velocity": 0.7480314960629921,
          "duration": 0.22058799999999223
        },
        {
          "name": "D4",
          "midi": 62,
          "time": 179.3380439999989,
          "velocity": 0.7480314960629921,
          "duration": 0.22058799999999223
        },
        {
          "name": "A3",
          "midi": 57,
          "time": 179.3380439999989,
          "velocity": 0.7480314960629921,
          "duration": 0.22058799999999223
        },
        {
          "name": "D3",
          "midi": 50,
          "time": 179.3380439999989,
          "velocity": 0.7480314960629921,
          "duration": 0.22058799999999223
        },
        {
          "name": "F#4",
          "midi": 66,
          "time": 179.55863199999888,
          "velocity": 0.7480314960629921,
          "duration": 0.22058799999999223
        },
        {
          "name": "D4",
          "midi": 62,
          "time": 179.55863199999888,
          "velocity": 0.7480314960629921,
          "duration": 0.22058799999999223
        },
        {
          "name": "A3",
          "midi": 57,
          "time": 179.55863199999888,
          "velocity": 0.7480314960629921,
          "duration": 0.22058799999999223
        },
        {
          "name": "D3",
          "midi": 50,
          "time": 179.55863199999888,
          "velocity": 0.7480314960629921,
          "duration": 0.22058799999999223
        },
        {
          "name": "F#4",
          "midi": 66,
          "time": 179.77921999999887,
          "velocity": 0.7480314960629921,
          "duration": 0.22058799999999223
        },
        {
          "name": "D4",
          "midi": 62,
          "time": 179.77921999999887,
          "velocity": 0.7480314960629921,
          "duration": 0.22058799999999223
        },
        {
          "name": "A3",
          "midi": 57,
          "time": 179.77921999999887,
          "velocity": 0.7480314960629921,
          "duration": 0.22058799999999223
        },
        {
          "name": "D3",
          "midi": 50,
          "time": 179.77921999999887,
          "velocity": 0.7480314960629921,
          "duration": 0.22058799999999223
        },
        {
          "name": "F#4",
          "midi": 66,
          "time": 179.99980799999886,
          "velocity": 0.7480314960629921,
          "duration": 0.22058799999999223
        },
        {
          "name": "D4",
          "midi": 62,
          "time": 179.99980799999886,
          "velocity": 0.7480314960629921,
          "duration": 0.22058799999999223
        },
        {
          "name": "A3",
          "midi": 57,
          "time": 179.99980799999886,
          "velocity": 0.7480314960629921,
          "duration": 0.22058799999999223
        },
        {
          "name": "D3",
          "midi": 50,
          "time": 179.99980799999886,
          "velocity": 0.7480314960629921,
          "duration": 0.22058799999999223
        },
        {
          "name": "F#4",
          "midi": 66,
          "time": 180.22039599999886,
          "velocity": 0.7480314960629921,
          "duration": 0.22058799999999223
        },
        {
          "name": "D4",
          "midi": 62,
          "time": 180.22039599999886,
          "velocity": 0.7480314960629921,
          "duration": 0.22058799999999223
        },
        {
          "name": "A3",
          "midi": 57,
          "time": 180.22039599999886,
          "velocity": 0.7480314960629921,
          "duration": 0.22058799999999223
        },
        {
          "name": "D3",
          "midi": 50,
          "time": 180.22039599999886,
          "velocity": 0.7480314960629921,
          "duration": 0.22058799999999223
        },
        {
          "name": "F#4",
          "midi": 66,
          "time": 180.44098399999885,
          "velocity": 0.7480314960629921,
          "duration": 0.22058799999999223
        },
        {
          "name": "D4",
          "midi": 62,
          "time": 180.44098399999885,
          "velocity": 0.7480314960629921,
          "duration": 0.22058799999999223
        },
        {
          "name": "A3",
          "midi": 57,
          "time": 180.44098399999885,
          "velocity": 0.7480314960629921,
          "duration": 0.22058799999999223
        },
        {
          "name": "D3",
          "midi": 50,
          "time": 180.44098399999885,
          "velocity": 0.7480314960629921,
          "duration": 0.22058799999999223
        },
        {
          "name": "F#4",
          "midi": 66,
          "time": 180.66157199999884,
          "velocity": 0.7480314960629921,
          "duration": 0.22058799999999223
        },
        {
          "name": "D4",
          "midi": 62,
          "time": 180.66157199999884,
          "velocity": 0.7480314960629921,
          "duration": 0.22058799999999223
        },
        {
          "name": "A3",
          "midi": 57,
          "time": 180.66157199999884,
          "velocity": 0.7480314960629921,
          "duration": 0.22058799999999223
        },
        {
          "name": "D3",
          "midi": 50,
          "time": 180.66157199999884,
          "velocity": 0.7480314960629921,
          "duration": 0.22058799999999223
        },
        {
          "name": "F#4",
          "midi": 66,
          "time": 180.88215999999883,
          "velocity": 0.7480314960629921,
          "duration": 0.22058799999999223
        },
        {
          "name": "D4",
          "midi": 62,
          "time": 180.88215999999883,
          "velocity": 0.7480314960629921,
          "duration": 0.22058799999999223
        },
        {
          "name": "A3",
          "midi": 57,
          "time": 180.88215999999883,
          "velocity": 0.7480314960629921,
          "duration": 0.22058799999999223
        },
        {
          "name": "D3",
          "midi": 50,
          "time": 180.88215999999883,
          "velocity": 0.7480314960629921,
          "duration": 0.22058799999999223
        },
        {
          "name": "F#4",
          "midi": 66,
          "time": 181.10274799999883,
          "velocity": 0.7480314960629921,
          "duration": 0.22058799999999223
        },
        {
          "name": "D4",
          "midi": 62,
          "time": 181.10274799999883,
          "velocity": 0.7480314960629921,
          "duration": 0.22058799999999223
        },
        {
          "name": "A3",
          "midi": 57,
          "time": 181.10274799999883,
          "velocity": 0.7480314960629921,
          "duration": 0.22058799999999223
        },
        {
          "name": "D3",
          "midi": 50,
          "time": 181.10274799999883,
          "velocity": 0.7480314960629921,
          "duration": 0.22058799999999223
        },
        {
          "name": "F#4",
          "midi": 66,
          "time": 181.32333599999882,
          "velocity": 0.7480314960629921,
          "duration": 0.22058799999999223
        },
        {
          "name": "D4",
          "midi": 62,
          "time": 181.32333599999882,
          "velocity": 0.7480314960629921,
          "duration": 0.22058799999999223
        },
        {
          "name": "A3",
          "midi": 57,
          "time": 181.32333599999882,
          "velocity": 0.7480314960629921,
          "duration": 0.22058799999999223
        },
        {
          "name": "D3",
          "midi": 50,
          "time": 181.32333599999882,
          "velocity": 0.7480314960629921,
          "duration": 0.22058799999999223
        },
        {
          "name": "F#4",
          "midi": 66,
          "time": 181.5439239999988,
          "velocity": 0.7480314960629921,
          "duration": 0.22058799999999223
        },
        {
          "name": "D4",
          "midi": 62,
          "time": 181.5439239999988,
          "velocity": 0.7480314960629921,
          "duration": 0.22058799999999223
        },
        {
          "name": "A3",
          "midi": 57,
          "time": 181.5439239999988,
          "velocity": 0.7480314960629921,
          "duration": 0.22058799999999223
        },
        {
          "name": "D3",
          "midi": 50,
          "time": 181.5439239999988,
          "velocity": 0.7480314960629921,
          "duration": 0.22058799999999223
        }
      ],
      "controlChanges": {
        "6": [
          {
            "number": 6,
            "time": 0,
            "value": 0.09448818897637795
          },
          {
            "number": 6,
            "time": 0,
            "value": 0.5039370078740157
          },
          {
            "number": 6,
            "time": 0,
            "value": 0.09448818897637795
          },
          {
            "number": 6,
            "time": 0,
            "value": 0.5039370078740157
          },
          {
            "number": 6,
            "time": 0,
            "value": 0.5039370078740157
          },
          {
            "number": 6,
            "time": 0,
            "value": 0.5039370078740157
          }
        ],
        "7": [
          {
            "number": 7,
            "time": 0,
            "value": 0.7559055118110236
          },
          {
            "number": 7,
            "time": 0,
            "value": 0.7559055118110236
          },
          {
            "number": 7,
            "time": 160.58806399999955,
            "value": 0.8818897637795275
          },
          {
            "number": 7,
            "time": 160.58806399999955,
            "value": 0.8818897637795275
          }
        ],
        "10": [
          {
            "number": 10,
            "time": 0,
            "value": 0.31496062992125984
          },
          {
            "number": 10,
            "time": 0,
            "value": 0.31496062992125984
          }
        ],
        "38": [
          {
            "number": 38,
            "time": 0,
            "value": 0
          },
          {
            "number": 38,
            "time": 0,
            "value": 0
          }
        ],
        "91": [
          {
            "number": 91,
            "time": 0,
            "value": 0
          },
          {
            "number": 91,
            "time": 0,
            "value": 0
          }
        ],
        "92": [
          {
            "number": 92,
            "time": 0,
            "value": 0
          },
          {
            "number": 92,
            "time": 0,
            "value": 0
          }
        ],
        "93": [
          {
            "number": 93,
            "time": 0,
            "value": 0
          },
          {
            "number": 93,
            "time": 0,
            "value": 0
          }
        ],
        "95": [
          {
            "number": 95,
            "time": 0,
            "value": 0
          },
          {
            "number": 95,
            "time": 0,
            "value": 0
          }
        ],
        "100": [
          {
            "number": 100,
            "time": 0,
            "value": 0
          },
          {
            "number": 100,
            "time": 0,
            "value": 0.007874015748031496
          },
          {
            "number": 100,
            "time": 0,
            "value": 1
          },
          {
            "number": 100,
            "time": 0,
            "value": 0
          },
          {
            "number": 100,
            "time": 0,
            "value": 0.007874015748031496
          },
          {
            "number": 100,
            "time": 0,
            "value": 1
          },
          {
            "number": 100,
            "time": 0,
            "value": 0.015748031496062992
          },
          {
            "number": 100,
            "time": 0,
            "value": 1
          },
          {
            "number": 100,
            "time": 0,
            "value": 0.015748031496062992
          },
          {
            "number": 100,
            "time": 0,
            "value": 1
          }
        ],
        "101": [
          {
            "number": 101,
            "time": 0,
            "value": 0
          },
          {
            "number": 101,
            "time": 0,
            "value": 0
          },
          {
            "number": 101,
            "time": 0,
            "value": 1
          },
          {
            "number": 101,
            "time": 0,
            "value": 0
          },
          {
            "number": 101,
            "time": 0,
            "value": 0
          },
          {
            "number": 101,
            "time": 0,
            "value": 1
          },
          {
            "number": 101,
            "time": 0,
            "value": 0
          },
          {
            "number": 101,
            "time": 0,
            "value": 1
          },
          {
            "number": 101,
            "time": 0,
            "value": 0
          },
          {
            "number": 101,
            "time": 0,
            "value": 1
          }
        ]
      }
    },
    {
      "startTime": 8.82352,
      "duration": 199.4115519999991,
      "length": 759,
      "id": 3,
      "name": "Distorted Bass Drop D",
      "instrumentNumber": 30,
      "instrument": "distortion guitar",
      "instrumentFamily": "guitar",
      "channelNumber": 4,
      "isPercussion": false,
      "notes": [
        {
          "name": "D2",
          "midi": 38,
          "time": 8.82352,
          "velocity": 0.7480314960629921,
          "duration": 0.44117600000000046
        },
        {
          "name": "D3",
          "midi": 50,
          "time": 9.264696,
          "velocity": 0.7480314960629921,
          "duration": 0.3308820000000008
        },
        {
          "name": "D3",
          "midi": 50,
          "time": 9.595578000000001,
          "velocity": 0.7480314960629921,
          "duration": 0.11029399999999967
        },
        {
          "name": "D2",
          "midi": 38,
          "time": 9.705872000000001,
          "velocity": 0.7480314960629921,
          "duration": 0.11029399999999967
        },
        {
          "name": "D2",
          "midi": 38,
          "time": 9.92646,
          "velocity": 0.7480314960629921,
          "duration": 0.22058799999999934
        },
        {
          "name": "A2",
          "midi": 45,
          "time": 10.147048,
          "velocity": 0.7480314960629921,
          "duration": 0.22058799999999934
        },
        {
          "name": "D3",
          "midi": 50,
          "time": 10.367636,
          "velocity": 0.7480314960629921,
          "duration": 0.22058799999999934
        },
        {
          "name": "D2",
          "midi": 38,
          "time": 10.588223999999999,
          "velocity": 0.7480314960629921,
          "duration": 0.44117600000000046
        },
        {
          "name": "D3",
          "midi": 50,
          "time": 11.029399999999999,
          "velocity": 0.7480314960629921,
          "duration": 0.3308820000000008
        },
        {
          "name": "D3",
          "midi": 50,
          "time": 11.360282,
          "velocity": 0.7480314960629921,
          "duration": 0.11029399999999967
        },
        {
          "name": "D2",
          "midi": 38,
          "time": 11.470576,
          "velocity": 0.7480314960629921,
          "duration": 0.11029399999999967
        },
        {
          "name": "D2",
          "midi": 38,
          "time": 11.691163999999999,
          "velocity": 0.7480314960629921,
          "duration": 0.22058799999999934
        },
        {
          "name": "A2",
          "midi": 45,
          "time": 11.911751999999998,
          "velocity": 0.7480314960629921,
          "duration": 0.22058799999999934
        },
        {
          "name": "D3",
          "midi": 50,
          "time": 12.132339999999997,
          "velocity": 0.7480314960629921,
          "duration": 0.22058799999999934
        },
        {
          "name": "F#2",
          "midi": 42,
          "time": 12.352927999999997,
          "velocity": 0.7480314960629921,
          "duration": 0.44117600000000046
        },
        {
          "name": "F#3",
          "midi": 54,
          "time": 12.794103999999997,
          "velocity": 0.7480314960629921,
          "duration": 0.3308820000000008
        },
        {
          "name": "F#3",
          "midi": 54,
          "time": 13.124985999999998,
          "velocity": 0.7480314960629921,
          "duration": 0.11029399999999967
        },
        {
          "name": "F#2",
          "midi": 42,
          "time": 13.235279999999998,
          "velocity": 0.7480314960629921,
          "duration": 0.11029399999999967
        },
        {
          "name": "F#2",
          "midi": 42,
          "time": 13.455867999999997,
          "velocity": 0.7480314960629921,
          "duration": 0.22058799999999934
        },
        {
          "name": "C#3",
          "midi": 49,
          "time": 13.676455999999996,
          "velocity": 0.7480314960629921,
          "duration": 0.22058799999999934
        },
        {
          "name": "F#3",
          "midi": 54,
          "time": 13.897043999999996,
          "velocity": 0.7480314960629921,
          "duration": 0.22058799999999934
        },
        {
          "name": "F#2",
          "midi": 42,
          "time": 14.117631999999995,
          "velocity": 0.7480314960629921,
          "duration": 0.44117600000000046
        },
        {
          "name": "F#3",
          "midi": 54,
          "time": 14.558807999999996,
          "velocity": 0.7480314960629921,
          "duration": 0.3308820000000008
        },
        {
          "name": "F#3",
          "midi": 54,
          "time": 14.889689999999996,
          "velocity": 0.7480314960629921,
          "duration": 0.11029399999999967
        },
        {
          "name": "F#2",
          "midi": 42,
          "time": 14.999983999999996,
          "velocity": 0.7480314960629921,
          "duration": 0.11029399999999967
        },
        {
          "name": "F#2",
          "midi": 42,
          "time": 15.220571999999995,
          "velocity": 0.7480314960629921,
          "duration": 0.22058799999999934
        },
        {
          "name": "C#3",
          "midi": 49,
          "time": 15.441159999999995,
          "velocity": 0.7480314960629921,
          "duration": 0.22058799999999934
        },
        {
          "name": "F#3",
          "midi": 54,
          "time": 15.661747999999994,
          "velocity": 0.7480314960629921,
          "duration": 0.22058799999999934
        },
        {
          "name": "G2",
          "midi": 43,
          "time": 15.882335999999993,
          "velocity": 0.7480314960629921,
          "duration": 0.44117600000000046
        },
        {
          "name": "G3",
          "midi": 55,
          "time": 16.323511999999994,
          "velocity": 0.7480314960629921,
          "duration": 0.330881999999999
        },
        {
          "name": "G3",
          "midi": 55,
          "time": 16.654393999999993,
          "velocity": 0.7480314960629921,
          "duration": 0.11029399999999967
        },
        {
          "name": "G2",
          "midi": 43,
          "time": 16.764687999999992,
          "velocity": 0.7480314960629921,
          "duration": 0.11029399999999967
        },
        {
          "name": "G2",
          "midi": 43,
          "time": 16.985275999999992,
          "velocity": 0.7480314960629921,
          "duration": 0.22058799999999934
        },
        {
          "name": "D3",
          "midi": 50,
          "time": 17.20586399999999,
          "velocity": 0.7480314960629921,
          "duration": 0.22058799999999934
        },
        {
          "name": "G3",
          "midi": 55,
          "time": 17.42645199999999,
          "velocity": 0.7480314960629921,
          "duration": 0.22058799999999934
        },
        {
          "name": "G2",
          "midi": 43,
          "time": 17.64703999999999,
          "velocity": 0.7480314960629921,
          "duration": 0.4411759999999987
        },
        {
          "name": "G3",
          "midi": 55,
          "time": 18.08821599999999,
          "velocity": 0.7480314960629921,
          "duration": 0.330881999999999
        },
        {
          "name": "G3",
          "midi": 55,
          "time": 18.419097999999988,
          "velocity": 0.7480314960629921,
          "duration": 0.11029399999999967
        },
        {
          "name": "G2",
          "midi": 43,
          "time": 18.529391999999987,
          "velocity": 0.7480314960629921,
          "duration": 0.11029399999999967
        },
        {
          "name": "G2",
          "midi": 43,
          "time": 18.749979999999987,
          "velocity": 0.7480314960629921,
          "duration": 0.22058799999999934
        },
        {
          "name": "D3",
          "midi": 50,
          "time": 18.970567999999986,
          "velocity": 0.7480314960629921,
          "duration": 0.22058799999999934
        },
        {
          "name": "G3",
          "midi": 55,
          "time": 19.191155999999985,
          "velocity": 0.7480314960629921,
          "duration": 0.22058799999999934
        },
        {
          "name": "D2",
          "midi": 38,
          "time": 19.411743999999985,
          "velocity": 0.7480314960629921,
          "duration": 0.4411759999999987
        },
        {
          "name": "D3",
          "midi": 50,
          "time": 19.852919999999983,
          "velocity": 0.7480314960629921,
          "duration": 0.330881999999999
        },
        {
          "name": "D3",
          "midi": 50,
          "time": 20.183801999999982,
          "velocity": 0.7480314960629921,
          "duration": 0.11029399999999967
        },
        {
          "name": "D2",
          "midi": 38,
          "time": 20.294095999999982,
          "velocity": 0.7480314960629921,
          "duration": 0.11029399999999967
        },
        {
          "name": "D2",
          "midi": 38,
          "time": 20.51468399999998,
          "velocity": 0.7480314960629921,
          "duration": 0.22058799999999934
        },
        {
          "name": "A2",
          "midi": 45,
          "time": 20.73527199999998,
          "velocity": 0.7480314960629921,
          "duration": 0.22058799999999934
        },
        {
          "name": "D3",
          "midi": 50,
          "time": 20.95585999999998,
          "velocity": 0.7480314960629921,
          "duration": 0.22058799999999934
        },
        {
          "name": "D2",
          "midi": 38,
          "time": 21.17644799999998,
          "velocity": 0.7480314960629921,
          "duration": 0.4411759999999987
        },
        {
          "name": "D3",
          "midi": 50,
          "time": 21.617623999999978,
          "velocity": 0.7480314960629921,
          "duration": 0.330881999999999
        },
        {
          "name": "D3",
          "midi": 50,
          "time": 21.948505999999977,
          "velocity": 0.7480314960629921,
          "duration": 0.11029399999999967
        },
        {
          "name": "D2",
          "midi": 38,
          "time": 22.058799999999977,
          "velocity": 0.7480314960629921,
          "duration": 0.11029399999999967
        },
        {
          "name": "D2",
          "midi": 38,
          "time": 22.279387999999976,
          "velocity": 0.7480314960629921,
          "duration": 0.22058799999999934
        },
        {
          "name": "A2",
          "midi": 45,
          "time": 22.499975999999975,
          "velocity": 0.7480314960629921,
          "duration": 0.22058799999999934
        },
        {
          "name": "D3",
          "midi": 50,
          "time": 22.720563999999975,
          "velocity": 0.7480314960629921,
          "duration": 0.22058799999999934
        },
        {
          "name": "F#2",
          "midi": 42,
          "time": 22.941151999999974,
          "velocity": 0.7480314960629921,
          "duration": 0.4411759999999987
        },
        {
          "name": "F#3",
          "midi": 54,
          "time": 23.382327999999973,
          "velocity": 0.7480314960629921,
          "duration": 0.330881999999999
        },
        {
          "name": "F#3",
          "midi": 54,
          "time": 23.71320999999997,
          "velocity": 0.7480314960629921,
          "duration": 0.11029399999999967
        },
        {
          "name": "F#2",
          "midi": 42,
          "time": 23.82350399999997,
          "velocity": 0.7480314960629921,
          "duration": 0.11029399999999967
        },
        {
          "name": "F#2",
          "midi": 42,
          "time": 24.04409199999997,
          "velocity": 0.7480314960629921,
          "duration": 0.22058799999999934
        },
        {
          "name": "C#3",
          "midi": 49,
          "time": 24.26467999999997,
          "velocity": 0.7480314960629921,
          "duration": 0.22058799999999934
        },
        {
          "name": "F#3",
          "midi": 54,
          "time": 24.48526799999997,
          "velocity": 0.7480314960629921,
          "duration": 0.22058799999999934
        },
        {
          "name": "F#2",
          "midi": 42,
          "time": 24.70585599999997,
          "velocity": 0.7480314960629921,
          "duration": 0.4411759999999987
        },
        {
          "name": "F#3",
          "midi": 54,
          "time": 25.147031999999967,
          "velocity": 0.7480314960629921,
          "duration": 0.330881999999999
        },
        {
          "name": "F#3",
          "midi": 54,
          "time": 25.477913999999966,
          "velocity": 0.7480314960629921,
          "duration": 0.11029399999999967
        },
        {
          "name": "F#2",
          "midi": 42,
          "time": 25.588207999999966,
          "velocity": 0.7480314960629921,
          "duration": 0.11029399999999967
        },
        {
          "name": "F#2",
          "midi": 42,
          "time": 25.808795999999965,
          "velocity": 0.7480314960629921,
          "duration": 0.22058799999999934
        },
        {
          "name": "C#3",
          "midi": 49,
          "time": 26.029383999999965,
          "velocity": 0.7480314960629921,
          "duration": 0.22058799999999934
        },
        {
          "name": "F#3",
          "midi": 54,
          "time": 26.249971999999964,
          "velocity": 0.7480314960629921,
          "duration": 0.22058799999999934
        },
        {
          "name": "G2",
          "midi": 43,
          "time": 26.470559999999963,
          "velocity": 0.7480314960629921,
          "duration": 0.4411759999999987
        },
        {
          "name": "G3",
          "midi": 55,
          "time": 26.911735999999962,
          "velocity": 0.7480314960629921,
          "duration": 0.4411759999999987
        },
        {
          "name": "G2",
          "midi": 43,
          "time": 27.35291199999996,
          "velocity": 0.7480314960629921,
          "duration": 0.11029399999999967
        },
        {
          "name": "G2",
          "midi": 43,
          "time": 27.57349999999996,
          "velocity": 0.7480314960629921,
          "duration": 0.22058799999999934
        },
        {
          "name": "D3",
          "midi": 50,
          "time": 27.79408799999996,
          "velocity": 0.7480314960629921,
          "duration": 0.22058799999999934
        },
        {
          "name": "G3",
          "midi": 55,
          "time": 28.01467599999996,
          "velocity": 0.7480314960629921,
          "duration": 0.22058799999999934
        },
        {
          "name": "G2",
          "midi": 43,
          "time": 28.235263999999958,
          "velocity": 0.7480314960629921,
          "duration": 0.4411759999999987
        },
        {
          "name": "G3",
          "midi": 55,
          "time": 28.676439999999957,
          "velocity": 0.7480314960629921,
          "duration": 0.4411759999999987
        },
        {
          "name": "G2",
          "midi": 43,
          "time": 29.117615999999956,
          "velocity": 0.7480314960629921,
          "duration": 0.11029399999999967
        },
        {
          "name": "G2",
          "midi": 43,
          "time": 29.338203999999955,
          "velocity": 0.7480314960629921,
          "duration": 0.22058799999999934
        },
        {
          "name": "D3",
          "midi": 50,
          "time": 29.558791999999954,
          "velocity": 0.7480314960629921,
          "duration": 0.22058799999999934
        },
        {
          "name": "G3",
          "midi": 55,
          "time": 29.779379999999954,
          "velocity": 0.7480314960629921,
          "duration": 0.22058799999999934
        },
        {
          "name": "D2",
          "midi": 38,
          "time": 29.999967999999953,
          "velocity": 0.7480314960629921,
          "duration": 0.4411759999999987
        },
        {
          "name": "D3",
          "midi": 50,
          "time": 30.44114399999995,
          "velocity": 0.7480314960629921,
          "duration": 0.4411759999999987
        },
        {
          "name": "D2",
          "midi": 38,
          "time": 30.88231999999995,
          "velocity": 0.7480314960629921,
          "duration": 0.11029399999999967
        },
        {
          "name": "D2",
          "midi": 38,
          "time": 31.10290799999995,
          "velocity": 0.7480314960629921,
          "duration": 0.22058799999999934
        },
        {
          "name": "A2",
          "midi": 45,
          "time": 31.32349599999995,
          "velocity": 0.7480314960629921,
          "duration": 0.22058799999999934
        },
        {
          "name": "D3",
          "midi": 50,
          "time": 31.54408399999995,
          "velocity": 0.7480314960629921,
          "duration": 0.22058799999999934
        },
        {
          "name": "D2",
          "midi": 38,
          "time": 31.764671999999948,
          "velocity": 0.7480314960629921,
          "duration": 0.4411759999999987
        },
        {
          "name": "D3",
          "midi": 50,
          "time": 32.205847999999946,
          "velocity": 0.7480314960629921,
          "duration": 0.4411759999999987
        },
        {
          "name": "D2",
          "midi": 38,
          "time": 32.647023999999945,
          "velocity": 0.7480314960629921,
          "duration": 0.11029400000000322
        },
        {
          "name": "D2",
          "midi": 38,
          "time": 32.86761199999995,
          "velocity": 0.7480314960629921,
          "duration": 0.22058799999999934
        },
        {
          "name": "A2",
          "midi": 45,
          "time": 33.08819999999995,
          "velocity": 0.7480314960629921,
          "duration": 0.22058799999999934
        },
        {
          "name": "D3",
          "midi": 50,
          "time": 33.30878799999995,
          "velocity": 0.7480314960629921,
          "duration": 0.22058799999999934
        },
        {
          "name": "F#2",
          "midi": 42,
          "time": 33.52937599999995,
          "velocity": 0.7480314960629921,
          "duration": 0.4411759999999987
        },
        {
          "name": "F#3",
          "midi": 54,
          "time": 33.97055199999995,
          "velocity": 0.7480314960629921,
          "duration": 0.4411759999999987
        },
        {
          "name": "F#2",
          "midi": 42,
          "time": 34.41172799999995,
          "velocity": 0.7480314960629921,
          "duration": 0.11029400000000322
        },
        {
          "name": "F#2",
          "midi": 42,
          "time": 34.63231599999995,
          "velocity": 0.7480314960629921,
          "duration": 0.22058799999999934
        },
        {
          "name": "C#3",
          "midi": 49,
          "time": 34.85290399999995,
          "velocity": 0.7480314960629921,
          "duration": 0.22058799999999934
        },
        {
          "name": "F#3",
          "midi": 54,
          "time": 35.07349199999995,
          "velocity": 0.7480314960629921,
          "duration": 0.22058799999999934
        },
        {
          "name": "F#2",
          "midi": 42,
          "time": 35.29407999999995,
          "velocity": 0.7480314960629921,
          "duration": 0.4411759999999987
        },
        {
          "name": "F#3",
          "midi": 54,
          "time": 35.73525599999995,
          "velocity": 0.7480314960629921,
          "duration": 0.4411759999999987
        },
        {
          "name": "F#2",
          "midi": 42,
          "time": 36.17643199999995,
          "velocity": 0.7480314960629921,
          "duration": 0.11029400000000322
        },
        {
          "name": "F#2",
          "midi": 42,
          "time": 36.397019999999955,
          "velocity": 0.7480314960629921,
          "duration": 0.22058799999999934
        },
        {
          "name": "C#3",
          "midi": 49,
          "time": 36.617607999999954,
          "velocity": 0.7480314960629921,
          "duration": 0.22058799999999934
        },
        {
          "name": "F#3",
          "midi": 54,
          "time": 36.838195999999954,
          "velocity": 0.7480314960629921,
          "duration": 0.22058799999999934
        },
        {
          "name": "G2",
          "midi": 43,
          "time": 37.05878399999995,
          "velocity": 0.7480314960629921,
          "duration": 0.4411759999999987
        },
        {
          "name": "G3",
          "midi": 55,
          "time": 37.49995999999995,
          "velocity": 0.7480314960629921,
          "duration": 0.4411759999999987
        },
        {
          "name": "G2",
          "midi": 43,
          "time": 37.94113599999995,
          "velocity": 0.7480314960629921,
          "duration": 0.11029400000000322
        },
        {
          "name": "G2",
          "midi": 43,
          "time": 38.16172399999996,
          "velocity": 0.7480314960629921,
          "duration": 0.22058799999999934
        },
        {
          "name": "D3",
          "midi": 50,
          "time": 38.382311999999956,
          "velocity": 0.7480314960629921,
          "duration": 0.22058799999999934
        },
        {
          "name": "G3",
          "midi": 55,
          "time": 38.602899999999956,
          "velocity": 0.7480314960629921,
          "duration": 0.22058799999999934
        },
        {
          "name": "G2",
          "midi": 43,
          "time": 38.823487999999955,
          "velocity": 0.7480314960629921,
          "duration": 0.4411759999999987
        },
        {
          "name": "G3",
          "midi": 55,
          "time": 39.264663999999954,
          "velocity": 0.7480314960629921,
          "duration": 0.4411759999999987
        },
        {
          "name": "G2",
          "midi": 43,
          "time": 39.70583999999995,
          "velocity": 0.7480314960629921,
          "duration": 0.11029400000000322
        },
        {
          "name": "G2",
          "midi": 43,
          "time": 39.92642799999996,
          "velocity": 0.7480314960629921,
          "duration": 0.22058799999999934
        },
        {
          "name": "D3",
          "midi": 50,
          "time": 40.14701599999996,
          "velocity": 0.7480314960629921,
          "duration": 0.22058799999999934
        },
        {
          "name": "G3",
          "midi": 55,
          "time": 40.36760399999996,
          "velocity": 0.7480314960629921,
          "duration": 0.22058799999999934
        },
        {
          "name": "D2",
          "midi": 38,
          "time": 40.58819199999996,
          "velocity": 0.7480314960629921,
          "duration": 0.4411759999999987
        },
        {
          "name": "D3",
          "midi": 50,
          "time": 41.029367999999955,
          "velocity": 0.7480314960629921,
          "duration": 0.4411759999999987
        },
        {
          "name": "D2",
          "midi": 38,
          "time": 41.470543999999954,
          "velocity": 0.7480314960629921,
          "duration": 0.11029400000000322
        },
        {
          "name": "D2",
          "midi": 38,
          "time": 41.69113199999996,
          "velocity": 0.7480314960629921,
          "duration": 0.22058799999999934
        },
        {
          "name": "A2",
          "midi": 45,
          "time": 41.91171999999996,
          "velocity": 0.7480314960629921,
          "duration": 0.22058799999999934
        },
        {
          "name": "D3",
          "midi": 50,
          "time": 42.13230799999996,
          "velocity": 0.7480314960629921,
          "duration": 0.22058799999999934
        },
        {
          "name": "D2",
          "midi": 38,
          "time": 42.35289599999996,
          "velocity": 0.7480314960629921,
          "duration": 0.4411759999999987
        },
        {
          "name": "D3",
          "midi": 50,
          "time": 42.79407199999996,
          "velocity": 0.7480314960629921,
          "duration": 0.4411759999999987
        },
        {
          "name": "D2",
          "midi": 38,
          "time": 43.235247999999956,
          "velocity": 0.7480314960629921,
          "duration": 0.11029400000000322
        },
        {
          "name": "D2",
          "midi": 38,
          "time": 43.45583599999996,
          "velocity": 0.7480314960629921,
          "duration": 0.22058799999999934
        },
        {
          "name": "A2",
          "midi": 45,
          "time": 43.67642399999996,
          "velocity": 0.7480314960629921,
          "duration": 0.22058799999999934
        },
        {
          "name": "D3",
          "midi": 50,
          "time": 43.89701199999996,
          "velocity": 0.7480314960629921,
          "duration": 0.22058799999999934
        },
        {
          "name": "F#2",
          "midi": 42,
          "time": 44.11759999999996,
          "velocity": 0.7480314960629921,
          "duration": 0.4411759999999987
        },
        {
          "name": "F#3",
          "midi": 54,
          "time": 44.55877599999996,
          "velocity": 0.7480314960629921,
          "duration": 0.4411759999999987
        },
        {
          "name": "F#2",
          "midi": 42,
          "time": 44.99995199999996,
          "velocity": 0.7480314960629921,
          "duration": 0.11029400000000322
        },
        {
          "name": "F#2",
          "midi": 42,
          "time": 45.220539999999964,
          "velocity": 0.7480314960629921,
          "duration": 0.22058799999999934
        },
        {
          "name": "C#3",
          "midi": 49,
          "time": 45.44112799999996,
          "velocity": 0.7480314960629921,
          "duration": 0.22058799999999934
        },
        {
          "name": "F#3",
          "midi": 54,
          "time": 45.66171599999996,
          "velocity": 0.7480314960629921,
          "duration": 0.22058799999999934
        },
        {
          "name": "F#2",
          "midi": 42,
          "time": 45.88230399999996,
          "velocity": 0.7480314960629921,
          "duration": 0.4411759999999987
        },
        {
          "name": "F#3",
          "midi": 54,
          "time": 46.32347999999996,
          "velocity": 0.7480314960629921,
          "duration": 0.4411759999999987
        },
        {
          "name": "F#2",
          "midi": 42,
          "time": 46.76465599999996,
          "velocity": 0.7480314960629921,
          "duration": 0.11029400000000322
        },
        {
          "name": "F#2",
          "midi": 42,
          "time": 46.985243999999966,
          "velocity": 0.7480314960629921,
          "duration": 0.22058799999999934
        },
        {
          "name": "C#3",
          "midi": 49,
          "time": 47.205831999999965,
          "velocity": 0.7480314960629921,
          "duration": 0.22058799999999934
        },
        {
          "name": "F#3",
          "midi": 54,
          "time": 47.426419999999965,
          "velocity": 0.7480314960629921,
          "duration": 0.22058799999999934
        },
        {
          "name": "G2",
          "midi": 43,
          "time": 47.647007999999964,
          "velocity": 0.7480314960629921,
          "duration": 0.4411759999999987
        },
        {
          "name": "G3",
          "midi": 55,
          "time": 48.08818399999996,
          "velocity": 0.7480314960629921,
          "duration": 0.4411759999999987
        },
        {
          "name": "G2",
          "midi": 43,
          "time": 48.52935999999996,
          "velocity": 0.7480314960629921,
          "duration": 0.11029400000000322
        },
        {
          "name": "G2",
          "midi": 43,
          "time": 48.74994799999997,
          "velocity": 0.7480314960629921,
          "duration": 0.22058799999999934
        },
        {
          "name": "D3",
          "midi": 50,
          "time": 48.97053599999997,
          "velocity": 0.7480314960629921,
          "duration": 0.22058799999999934
        },
        {
          "name": "G3",
          "midi": 55,
          "time": 49.19112399999997,
          "velocity": 0.7480314960629921,
          "duration": 0.22058799999999934
        },
        {
          "name": "G2",
          "midi": 43,
          "time": 49.411711999999966,
          "velocity": 0.7480314960629921,
          "duration": 0.4411759999999987
        },
        {
          "name": "G3",
          "midi": 55,
          "time": 49.852887999999965,
          "velocity": 0.7480314960629921,
          "duration": 0.4411759999999987
        },
        {
          "name": "G2",
          "midi": 43,
          "time": 50.29406399999996,
          "velocity": 0.7480314960629921,
          "duration": 0.11029400000000322
        },
        {
          "name": "G2",
          "midi": 43,
          "time": 50.51465199999997,
          "velocity": 0.7480314960629921,
          "duration": 0.22058799999999934
        },
        {
          "name": "D3",
          "midi": 50,
          "time": 50.73523999999997,
          "velocity": 0.7480314960629921,
          "duration": 0.22058799999999934
        },
        {
          "name": "G3",
          "midi": 55,
          "time": 50.95582799999997,
          "velocity": 0.7480314960629921,
          "duration": 0.22058799999999934
        },
        {
          "name": "D2",
          "midi": 38,
          "time": 51.17641599999997,
          "velocity": 0.7480314960629921,
          "duration": 0.4411759999999987
        },
        {
          "name": "D3",
          "midi": 50,
          "time": 51.617591999999966,
          "velocity": 0.7480314960629921,
          "duration": 0.4411759999999987
        },
        {
          "name": "D2",
          "midi": 38,
          "time": 52.058767999999965,
          "velocity": 0.7480314960629921,
          "duration": 0.11029400000000322
        },
        {
          "name": "D2",
          "midi": 38,
          "time": 52.27935599999997,
          "velocity": 0.7480314960629921,
          "duration": 0.22058799999999934
        },
        {
          "name": "A2",
          "midi": 45,
          "time": 52.49994399999997,
          "velocity": 0.7480314960629921,
          "duration": 0.22058799999999934
        },
        {
          "name": "D3",
          "midi": 50,
          "time": 52.72053199999997,
          "velocity": 0.7480314960629921,
          "duration": 0.22058799999999934
        },
        {
          "name": "D2",
          "midi": 38,
          "time": 52.94111999999997,
          "velocity": 0.7480314960629921,
          "duration": 0.4411759999999987
        },
        {
          "name": "D3",
          "midi": 50,
          "time": 53.38229599999997,
          "velocity": 0.7480314960629921,
          "duration": 0.4411759999999987
        },
        {
          "name": "D2",
          "midi": 38,
          "time": 53.82347199999997,
          "velocity": 0.7480314960629921,
          "duration": 0.11029400000000322
        },
        {
          "name": "D2",
          "midi": 38,
          "time": 54.04405999999997,
          "velocity": 0.7480314960629921,
          "duration": 0.22058799999999934
        },
        {
          "name": "A2",
          "midi": 45,
          "time": 54.26464799999997,
          "velocity": 0.7480314960629921,
          "duration": 0.22058799999999934
        },
        {
          "name": "D3",
          "midi": 50,
          "time": 54.48523599999997,
          "velocity": 0.7480314960629921,
          "duration": 0.22058799999999934
        },
        {
          "name": "F#1",
          "midi": 30,
          "time": 54.70582399999997,
          "velocity": 0.2440944881889764,
          "duration": 0.22058799999999934
        },
        {
          "name": "F#1",
          "midi": 30,
          "time": 54.92641199999997,
          "velocity": 0.2440944881889764,
          "duration": 0.22058799999999934
        },
        {
          "name": "F#1",
          "midi": 30,
          "time": 55.14699999999997,
          "velocity": 0.3700787401574803,
          "duration": 0.22058799999999934
        },
        {
          "name": "F#1",
          "midi": 30,
          "time": 55.36758799999997,
          "velocity": 0.3700787401574803,
          "duration": 0.22058799999999934
        },
        {
          "name": "F#1",
          "midi": 30,
          "time": 55.58817599999997,
          "velocity": 0.49606299212598426,
          "duration": 0.22058799999999934
        },
        {
          "name": "F#1",
          "midi": 30,
          "time": 55.80876399999997,
          "velocity": 0.49606299212598426,
          "duration": 0.22058799999999934
        },
        {
          "name": "F#1",
          "midi": 30,
          "time": 56.02935199999997,
          "velocity": 0.6220472440944882,
          "duration": 0.22058799999999934
        },
        {
          "name": "F#1",
          "midi": 30,
          "time": 56.24993999999997,
          "velocity": 0.6220472440944882,
          "duration": 0.22058799999999934
        },
        {
          "name": "F#1",
          "midi": 30,
          "time": 56.470527999999966,
          "velocity": 0.7480314960629921,
          "duration": 0.22058799999999934
        },
        {
          "name": "F#1",
          "midi": 30,
          "time": 56.691115999999965,
          "velocity": 0.7480314960629921,
          "duration": 0.22058799999999934
        },
        {
          "name": "F#1",
          "midi": 30,
          "time": 56.911703999999965,
          "velocity": 0.7480314960629921,
          "duration": 0.22058799999999934
        },
        {
          "name": "F#1",
          "midi": 30,
          "time": 57.132291999999964,
          "velocity": 0.7480314960629921,
          "duration": 0.22058799999999934
        },
        {
          "name": "F#1",
          "midi": 30,
          "time": 57.35287999999996,
          "velocity": 0.7480314960629921,
          "duration": 0.22058799999999934
        },
        {
          "name": "F#1",
          "midi": 30,
          "time": 57.57346799999996,
          "velocity": 0.7480314960629921,
          "duration": 0.22058799999999934
        },
        {
          "name": "F#1",
          "midi": 30,
          "time": 57.79405599999996,
          "velocity": 0.7480314960629921,
          "duration": 0.22058799999999934
        },
        {
          "name": "F#1",
          "midi": 30,
          "time": 58.01464399999996,
          "velocity": 0.7480314960629921,
          "duration": 0.22058799999999934
        },
        {
          "name": "G2",
          "midi": 43,
          "time": 58.23523199999996,
          "velocity": 0.7480314960629921,
          "duration": 0.22058799999999934
        },
        {
          "name": "G2",
          "midi": 43,
          "time": 58.45581999999996,
          "velocity": 0.7480314960629921,
          "duration": 0.22058799999999934
        },
        {
          "name": "G2",
          "midi": 43,
          "time": 58.67640799999996,
          "velocity": 0.7480314960629921,
          "duration": 0.22058799999999934
        },
        {
          "name": "G2",
          "midi": 43,
          "time": 58.89699599999996,
          "velocity": 0.7480314960629921,
          "duration": 0.22058799999999934
        },
        {
          "name": "G2",
          "midi": 43,
          "time": 59.11758399999996,
          "velocity": 0.7480314960629921,
          "duration": 0.22058799999999934
        },
        {
          "name": "G2",
          "midi": 43,
          "time": 59.33817199999996,
          "velocity": 0.7480314960629921,
          "duration": 0.22058799999999934
        },
        {
          "name": "G2",
          "midi": 43,
          "time": 59.55875999999996,
          "velocity": 0.7480314960629921,
          "duration": 0.22058799999999934
        },
        {
          "name": "G2",
          "midi": 43,
          "time": 59.779347999999956,
          "velocity": 0.7480314960629921,
          "duration": 0.22058799999999934
        },
        {
          "name": "G2",
          "midi": 43,
          "time": 59.999935999999956,
          "velocity": 0.7480314960629921,
          "duration": 0.22058799999999934
        },
        {
          "name": "G2",
          "midi": 43,
          "time": 60.220523999999955,
          "velocity": 0.7480314960629921,
          "duration": 0.22058799999999934
        },
        {
          "name": "G2",
          "midi": 43,
          "time": 60.441111999999954,
          "velocity": 0.7480314960629921,
          "duration": 0.22058799999999934
        },
        {
          "name": "G2",
          "midi": 43,
          "time": 60.66169999999995,
          "velocity": 0.7480314960629921,
          "duration": 0.22058799999999934
        },
        {
          "name": "C#3",
          "midi": 49,
          "time": 60.88228799999995,
          "velocity": 0.7480314960629921,
          "duration": 0.22058799999999934
        },
        {
          "name": "D3",
          "midi": 50,
          "time": 61.10287599999995,
          "velocity": 0.7480314960629921,
          "duration": 0.22058799999999934
        },
        {
          "name": "C#3",
          "midi": 49,
          "time": 61.32346399999995,
          "velocity": 0.7480314960629921,
          "duration": 0.22058799999999934
        },
        {
          "name": "G2",
          "midi": 43,
          "time": 61.54405199999995,
          "velocity": 0.7480314960629921,
          "duration": 0.22058799999999934
        },
        {
          "name": "B2",
          "midi": 47,
          "time": 61.76463999999995,
          "velocity": 0.7480314960629921,
          "duration": 0.22058799999999934
        },
        {
          "name": "B2",
          "midi": 47,
          "time": 61.98522799999995,
          "velocity": 0.7480314960629921,
          "duration": 0.22058799999999934
        },
        {
          "name": "B2",
          "midi": 47,
          "time": 62.20581599999995,
          "velocity": 0.7480314960629921,
          "duration": 0.22058799999999934
        },
        {
          "name": "B2",
          "midi": 47,
          "time": 62.42640399999995,
          "velocity": 0.7480314960629921,
          "duration": 0.22058799999999934
        },
        {
          "name": "B2",
          "midi": 47,
          "time": 62.64699199999995,
          "velocity": 0.7480314960629921,
          "duration": 0.22058799999999934
        },
        {
          "name": "B2",
          "midi": 47,
          "time": 62.86757999999995,
          "velocity": 0.7480314960629921,
          "duration": 0.22058799999999934
        },
        {
          "name": "B2",
          "midi": 47,
          "time": 63.088167999999946,
          "velocity": 0.7480314960629921,
          "duration": 0.22058799999999934
        },
        {
          "name": "B2",
          "midi": 47,
          "time": 63.308755999999946,
          "velocity": 0.7480314960629921,
          "duration": 0.22058799999999934
        },
        {
          "name": "F#2",
          "midi": 42,
          "time": 63.529343999999945,
          "velocity": 0.7480314960629921,
          "duration": 0.22058799999999934
        },
        {
          "name": "F#2",
          "midi": 42,
          "time": 63.749931999999944,
          "velocity": 0.7480314960629921,
          "duration": 0.22058799999999934
        },
        {
          "name": "F#2",
          "midi": 42,
          "time": 63.970519999999944,
          "velocity": 0.7480314960629921,
          "duration": 0.22058799999999934
        },
        {
          "name": "F#2",
          "midi": 42,
          "time": 64.19110799999994,
          "velocity": 0.7480314960629921,
          "duration": 0.22058800000000645
        },
        {
          "name": "F#2",
          "midi": 42,
          "time": 64.41169599999995,
          "velocity": 0.7480314960629921,
          "duration": 0.22058800000000645
        },
        {
          "name": "A2",
          "midi": 45,
          "time": 64.63228399999996,
          "velocity": 0.7480314960629921,
          "duration": 0.22058800000000645
        },
        {
          "name": "A2",
          "midi": 45,
          "time": 64.85287199999996,
          "velocity": 0.7480314960629921,
          "duration": 0.22058800000000645
        },
        {
          "name": "F#2",
          "midi": 42,
          "time": 65.07345999999997,
          "velocity": 0.7480314960629921,
          "duration": 0.22058800000000645
        },
        {
          "name": "G2",
          "midi": 43,
          "time": 65.29404799999998,
          "velocity": 0.7480314960629921,
          "duration": 0.22058800000000645
        },
        {
          "name": "G2",
          "midi": 43,
          "time": 65.51463599999998,
          "velocity": 0.7480314960629921,
          "duration": 0.22058800000000645
        },
        {
          "name": "G2",
          "midi": 43,
          "time": 65.73522399999999,
          "velocity": 0.7480314960629921,
          "duration": 0.22058800000000645
        },
        {
          "name": "G2",
          "midi": 43,
          "time": 65.955812,
          "velocity": 0.7480314960629921,
          "duration": 0.22058800000000645
        },
        {
          "name": "G2",
          "midi": 43,
          "time": 66.1764,
          "velocity": 0.7480314960629921,
          "duration": 0.22058800000000645
        },
        {
          "name": "G2",
          "midi": 43,
          "time": 66.39698800000001,
          "velocity": 0.7480314960629921,
          "duration": 0.22058800000000645
        },
        {
          "name": "G2",
          "midi": 43,
          "time": 66.61757600000001,
          "velocity": 0.7480314960629921,
          "duration": 0.22058800000000645
        },
        {
          "name": "G2",
          "midi": 43,
          "time": 66.83816400000002,
          "velocity": 0.7480314960629921,
          "duration": 0.22058800000000645
        },
        {
          "name": "G2",
          "midi": 43,
          "time": 67.05875200000003,
          "velocity": 0.7480314960629921,
          "duration": 0.22058800000000645
        },
        {
          "name": "G2",
          "midi": 43,
          "time": 67.27934000000003,
          "velocity": 0.7480314960629921,
          "duration": 0.22058800000000645
        },
        {
          "name": "G2",
          "midi": 43,
          "time": 67.49992800000004,
          "velocity": 0.7480314960629921,
          "duration": 0.22058800000000645
        },
        {
          "name": "G2",
          "midi": 43,
          "time": 67.72051600000005,
          "velocity": 0.7480314960629921,
          "duration": 0.22058800000000645
        },
        {
          "name": "C#3",
          "midi": 49,
          "time": 67.94110400000005,
          "velocity": 0.7480314960629921,
          "duration": 0.22058800000000645
        },
        {
          "name": "D3",
          "midi": 50,
          "time": 68.16169200000006,
          "velocity": 0.7480314960629921,
          "duration": 0.22058800000000645
        },
        {
          "name": "C#3",
          "midi": 49,
          "time": 68.38228000000007,
          "velocity": 0.7480314960629921,
          "duration": 0.22058800000000645
        },
        {
          "name": "G2",
          "midi": 43,
          "time": 68.60286800000007,
          "velocity": 0.7480314960629921,
          "duration": 0.22058800000000645
        },
        {
          "name": "B2",
          "midi": 47,
          "time": 68.82345600000008,
          "velocity": 0.7480314960629921,
          "duration": 0.22058800000000645
        },
        {
          "name": "B2",
          "midi": 47,
          "time": 69.04404400000008,
          "velocity": 0.7480314960629921,
          "duration": 0.22058800000000645
        },
        {
          "name": "B2",
          "midi": 47,
          "time": 69.26463200000009,
          "velocity": 0.7480314960629921,
          "duration": 0.22058800000000645
        },
        {
          "name": "B2",
          "midi": 47,
          "time": 69.4852200000001,
          "velocity": 0.7480314960629921,
          "duration": 0.22058800000000645
        },
        {
          "name": "B2",
          "midi": 47,
          "time": 69.7058080000001,
          "velocity": 0.7480314960629921,
          "duration": 0.22058800000000645
        },
        {
          "name": "B2",
          "midi": 47,
          "time": 69.92639600000011,
          "velocity": 0.7480314960629921,
          "duration": 0.22058800000000645
        },
        {
          "name": "B2",
          "midi": 47,
          "time": 70.14698400000012,
          "velocity": 0.7480314960629921,
          "duration": 0.22058800000000645
        },
        {
          "name": "B2",
          "midi": 47,
          "time": 70.36757200000012,
          "velocity": 0.7480314960629921,
          "duration": 0.22058800000000645
        },
        {
          "name": "F#2",
          "midi": 42,
          "time": 70.58816000000013,
          "velocity": 0.7480314960629921,
          "duration": 0.22058800000000645
        },
        {
          "name": "F#2",
          "midi": 42,
          "time": 70.80874800000014,
          "velocity": 0.7480314960629921,
          "duration": 0.22058800000000645
        },
        {
          "name": "F#2",
          "midi": 42,
          "time": 71.02933600000014,
          "velocity": 0.7480314960629921,
          "duration": 0.22058800000000645
        },
        {
          "name": "F#2",
          "midi": 42,
          "time": 71.24992400000015,
          "velocity": 0.7480314960629921,
          "duration": 0.22058800000000645
        },
        {
          "name": "F#2",
          "midi": 42,
          "time": 71.47051200000016,
          "velocity": 0.7480314960629921,
          "duration": 0.22058800000000645
        },
        {
          "name": "F#2",
          "midi": 42,
          "time": 71.69110000000016,
          "velocity": 0.7480314960629921,
          "duration": 0.22058800000000645
        },
        {
          "name": "F#2",
          "midi": 42,
          "time": 71.91168800000017,
          "velocity": 0.7480314960629921,
          "duration": 0.22058800000000645
        },
        {
          "name": "F#2",
          "midi": 42,
          "time": 72.13227600000018,
          "velocity": 0.7480314960629921,
          "duration": 0.22058800000000645
        },
        {
          "name": "G2",
          "midi": 43,
          "time": 72.35286400000018,
          "velocity": 0.7480314960629921,
          "duration": 0.22058800000000645
        },
        {
          "name": "G2",
          "midi": 43,
          "time": 72.57345200000019,
          "velocity": 0.7480314960629921,
          "duration": 0.22058800000000645
        },
        {
          "name": "G2",
          "midi": 43,
          "time": 72.7940400000002,
          "velocity": 0.7480314960629921,
          "duration": 0.22058800000000645
        },
        {
          "name": "G2",
          "midi": 43,
          "time": 73.0146280000002,
          "velocity": 0.7480314960629921,
          "duration": 0.22058800000000645
        },
        {
          "name": "G2",
          "midi": 43,
          "time": 73.23521600000021,
          "velocity": 0.7480314960629921,
          "duration": 0.22058800000000645
        },
        {
          "name": "G2",
          "midi": 43,
          "time": 73.45580400000021,
          "velocity": 0.7480314960629921,
          "duration": 0.22058800000000645
        },
        {
          "name": "G2",
          "midi": 43,
          "time": 73.67639200000022,
          "velocity": 0.7480314960629921,
          "duration": 0.22058800000000645
        },
        {
          "name": "G2",
          "midi": 43,
          "time": 73.89698000000023,
          "velocity": 0.7480314960629921,
          "duration": 0.22058800000000645
        },
        {
          "name": "G2",
          "midi": 43,
          "time": 74.11756800000023,
          "velocity": 0.7480314960629921,
          "duration": 0.22058800000000645
        },
        {
          "name": "G2",
          "midi": 43,
          "time": 74.33815600000024,
          "velocity": 0.7480314960629921,
          "duration": 0.22058800000000645
        },
        {
          "name": "G2",
          "midi": 43,
          "time": 74.55874400000025,
          "velocity": 0.7480314960629921,
          "duration": 0.22058800000000645
        },
        {
          "name": "G2",
          "midi": 43,
          "time": 74.77933200000025,
          "velocity": 0.7480314960629921,
          "duration": 0.22058800000000645
        },
        {
          "name": "C#3",
          "midi": 49,
          "time": 74.99992000000026,
          "velocity": 0.7480314960629921,
          "duration": 0.22058800000000645
        },
        {
          "name": "D3",
          "midi": 50,
          "time": 75.22050800000027,
          "velocity": 0.7480314960629921,
          "duration": 0.22058800000000645
        },
        {
          "name": "C#3",
          "midi": 49,
          "time": 75.44109600000027,
          "velocity": 0.7480314960629921,
          "duration": 0.22058800000000645
        },
        {
          "name": "G2",
          "midi": 43,
          "time": 75.66168400000028,
          "velocity": 0.7480314960629921,
          "duration": 0.22058800000000645
        },
        {
          "name": "B2",
          "midi": 47,
          "time": 75.88227200000028,
          "velocity": 0.7480314960629921,
          "duration": 0.22058800000000645
        },
        {
          "name": "B2",
          "midi": 47,
          "time": 76.10286000000029,
          "velocity": 0.7480314960629921,
          "duration": 0.22058800000000645
        },
        {
          "name": "B2",
          "midi": 47,
          "time": 76.3234480000003,
          "velocity": 0.7480314960629921,
          "duration": 0.22058800000000645
        },
        {
          "name": "B2",
          "midi": 47,
          "time": 76.5440360000003,
          "velocity": 0.7480314960629921,
          "duration": 0.22058800000000645
        },
        {
          "name": "B2",
          "midi": 47,
          "time": 76.76462400000031,
          "velocity": 0.7480314960629921,
          "duration": 0.22058800000000645
        },
        {
          "name": "B2",
          "midi": 47,
          "time": 76.98521200000032,
          "velocity": 0.7480314960629921,
          "duration": 0.22058800000000645
        },
        {
          "name": "B2",
          "midi": 47,
          "time": 77.20580000000032,
          "velocity": 0.7480314960629921,
          "duration": 0.22058800000000645
        },
        {
          "name": "B2",
          "midi": 47,
          "time": 77.42638800000033,
          "velocity": 0.7480314960629921,
          "duration": 0.22058800000000645
        },
        {
          "name": "F#2",
          "midi": 42,
          "time": 77.64697600000034,
          "velocity": 0.7480314960629921,
          "duration": 0.22058800000000645
        },
        {
          "name": "F#2",
          "midi": 42,
          "time": 77.86756400000034,
          "velocity": 0.7480314960629921,
          "duration": 0.22058800000000645
        },
        {
          "name": "F#2",
          "midi": 42,
          "time": 78.08815200000035,
          "velocity": 0.7480314960629921,
          "duration": 0.22058800000000645
        },
        {
          "name": "F#2",
          "midi": 42,
          "time": 78.30874000000036,
          "velocity": 0.7480314960629921,
          "duration": 0.22058800000000645
        },
        {
          "name": "F#2",
          "midi": 42,
          "time": 78.52932800000036,
          "velocity": 0.7480314960629921,
          "duration": 0.22058800000000645
        },
        {
          "name": "A2",
          "midi": 45,
          "time": 78.74991600000037,
          "velocity": 0.7480314960629921,
          "duration": 0.22058800000000645
        },
        {
          "name": "A2",
          "midi": 45,
          "time": 78.97050400000037,
          "velocity": 0.7480314960629921,
          "duration": 0.22058800000000645
        },
        {
          "name": "F#2",
          "midi": 42,
          "time": 79.19109200000038,
          "velocity": 0.7480314960629921,
          "duration": 0.22058800000000645
        },
        {
          "name": "G2",
          "midi": 43,
          "time": 79.41168000000039,
          "velocity": 0.7480314960629921,
          "duration": 0.22058800000000645
        },
        {
          "name": "G2",
          "midi": 43,
          "time": 79.6322680000004,
          "velocity": 0.7480314960629921,
          "duration": 0.22058800000000645
        },
        {
          "name": "G2",
          "midi": 43,
          "time": 79.8528560000004,
          "velocity": 0.7480314960629921,
          "duration": 0.22058800000000645
        },
        {
          "name": "G2",
          "midi": 43,
          "time": 80.0734440000004,
          "velocity": 0.7480314960629921,
          "duration": 0.22058800000000645
        },
        {
          "name": "G2",
          "midi": 43,
          "time": 80.29403200000041,
          "velocity": 0.7480314960629921,
          "duration": 0.22058800000000645
        },
        {
          "name": "G2",
          "midi": 43,
          "time": 80.51462000000042,
          "velocity": 0.7480314960629921,
          "duration": 0.22058800000000645
        },
        {
          "name": "G2",
          "midi": 43,
          "time": 80.73520800000043,
          "velocity": 0.7480314960629921,
          "duration": 0.22058800000000645
        },
        {
          "name": "G2",
          "midi": 43,
          "time": 80.95579600000043,
          "velocity": 0.7480314960629921,
          "duration": 0.22058800000000645
        },
        {
          "name": "G2",
          "midi": 43,
          "time": 81.17638400000044,
          "velocity": 0.7480314960629921,
          "duration": 0.22058800000000645
        },
        {
          "name": "G2",
          "midi": 43,
          "time": 81.39697200000045,
          "velocity": 0.7480314960629921,
          "duration": 0.22058800000000645
        },
        {
          "name": "G2",
          "midi": 43,
          "time": 81.61756000000045,
          "velocity": 0.7480314960629921,
          "duration": 0.22058800000000645
        },
        {
          "name": "G2",
          "midi": 43,
          "time": 81.83814800000046,
          "velocity": 0.7480314960629921,
          "duration": 0.22058800000000645
        },
        {
          "name": "G2",
          "midi": 43,
          "time": 82.05873600000047,
          "velocity": 0.7480314960629921,
          "duration": 0.22058800000000645
        },
        {
          "name": "A2",
          "midi": 45,
          "time": 82.27932400000047,
          "velocity": 0.7480314960629921,
          "duration": 0.22058800000000645
        },
        {
          "name": "A2",
          "midi": 45,
          "time": 82.49991200000048,
          "velocity": 0.7480314960629921,
          "duration": 0.22058800000000645
        },
        {
          "name": "A2",
          "midi": 45,
          "time": 82.72050000000048,
          "velocity": 0.7480314960629921,
          "duration": 0.22058800000000645
        },
        {
          "name": "D3",
          "midi": 50,
          "time": 82.94108800000049,
          "velocity": 0.7480314960629921,
          "duration": 0.22058800000000645
        },
        {
          "name": "D2",
          "midi": 38,
          "time": 83.1616760000005,
          "velocity": 0.7480314960629921,
          "duration": 0.22058800000000645
        },
        {
          "name": "D3",
          "midi": 50,
          "time": 83.3822640000005,
          "velocity": 0.7480314960629921,
          "duration": 0.22058800000000645
        },
        {
          "name": "D2",
          "midi": 38,
          "time": 83.60285200000051,
          "velocity": 0.7480314960629921,
          "duration": 0.22058800000000645
        },
        {
          "name": "D3",
          "midi": 50,
          "time": 83.82344000000052,
          "velocity": 0.7480314960629921,
          "duration": 0.22058800000000645
        },
        {
          "name": "D2",
          "midi": 38,
          "time": 84.04402800000052,
          "velocity": 0.7480314960629921,
          "duration": 0.22058800000000645
        },
        {
          "name": "D3",
          "midi": 50,
          "time": 84.26461600000053,
          "velocity": 0.7480314960629921,
          "duration": 0.22058800000000645
        },
        {
          "name": "D2",
          "midi": 38,
          "time": 84.48520400000054,
          "velocity": 0.7480314960629921,
          "duration": 0.22058800000000645
        },
        {
          "name": "D3",
          "midi": 50,
          "time": 84.70579200000054,
          "velocity": 0.7480314960629921,
          "duration": 0.22058800000000645
        },
        {
          "name": "D2",
          "midi": 38,
          "time": 84.92638000000055,
          "velocity": 0.7480314960629921,
          "duration": 0.22058800000000645
        },
        {
          "name": "D3",
          "midi": 50,
          "time": 85.14696800000056,
          "velocity": 0.7480314960629921,
          "duration": 0.22058800000000645
        },
        {
          "name": "D2",
          "midi": 38,
          "time": 85.36755600000056,
          "velocity": 0.7480314960629921,
          "duration": 0.22058800000000645
        },
        {
          "name": "D3",
          "midi": 50,
          "time": 85.58814400000057,
          "velocity": 0.7480314960629921,
          "duration": 0.22058800000000645
        },
        {
          "name": "D2",
          "midi": 38,
          "time": 85.80873200000057,
          "velocity": 0.7480314960629921,
          "duration": 0.22058800000000645
        },
        {
          "name": "D3",
          "midi": 50,
          "time": 86.02932000000058,
          "velocity": 0.7480314960629921,
          "duration": 0.22058800000000645
        },
        {
          "name": "D2",
          "midi": 38,
          "time": 86.24990800000059,
          "velocity": 0.7480314960629921,
          "duration": 0.22058800000000645
        },
        {
          "name": "F#2",
          "midi": 42,
          "time": 86.4704960000006,
          "velocity": 0.7480314960629921,
          "duration": 0.4411759999999987
        },
        {
          "name": "F#3",
          "midi": 54,
          "time": 86.91167200000059,
          "velocity": 0.7480314960629921,
          "duration": 0.33088200000000256
        },
        {
          "name": "F#3",
          "midi": 54,
          "time": 87.2425540000006,
          "velocity": 0.7480314960629921,
          "duration": 0.11029399999999612
        },
        {
          "name": "F#2",
          "midi": 42,
          "time": 87.35284800000059,
          "velocity": 0.7480314960629921,
          "duration": 0.11029399999999612
        },
        {
          "name": "F#2",
          "midi": 42,
          "time": 87.57343600000058,
          "velocity": 0.7480314960629921,
          "duration": 0.22058800000000645
        },
        {
          "name": "C#3",
          "midi": 49,
          "time": 87.79402400000059,
          "velocity": 0.7480314960629921,
          "duration": 0.22058800000000645
        },
        {
          "name": "F#3",
          "midi": 54,
          "time": 88.0146120000006,
          "velocity": 0.7480314960629921,
          "duration": 0.22058800000000645
        },
        {
          "name": "F#2",
          "midi": 42,
          "time": 88.2352000000006,
          "velocity": 0.7480314960629921,
          "duration": 0.4411759999999987
        },
        {
          "name": "F#3",
          "midi": 54,
          "time": 88.6763760000006,
          "velocity": 0.7480314960629921,
          "duration": 0.33088200000000256
        },
        {
          "name": "F#3",
          "midi": 54,
          "time": 89.0072580000006,
          "velocity": 0.7480314960629921,
          "duration": 0.11029399999999612
        },
        {
          "name": "F#2",
          "midi": 42,
          "time": 89.1175520000006,
          "velocity": 0.7480314960629921,
          "duration": 0.11029399999999612
        },
        {
          "name": "F#2",
          "midi": 42,
          "time": 89.33814000000059,
          "velocity": 0.7480314960629921,
          "duration": 0.22058800000000645
        },
        {
          "name": "C#3",
          "midi": 49,
          "time": 89.5587280000006,
          "velocity": 0.7480314960629921,
          "duration": 0.22058800000000645
        },
        {
          "name": "F#3",
          "midi": 54,
          "time": 89.7793160000006,
          "velocity": 0.7480314960629921,
          "duration": 0.22058800000000645
        },
        {
          "name": "G2",
          "midi": 43,
          "time": 89.99990400000061,
          "velocity": 0.7480314960629921,
          "duration": 0.4411759999999987
        },
        {
          "name": "G3",
          "midi": 55,
          "time": 90.44108000000061,
          "velocity": 0.7480314960629921,
          "duration": 0.33088200000000256
        },
        {
          "name": "G3",
          "midi": 55,
          "time": 90.77196200000061,
          "velocity": 0.7480314960629921,
          "duration": 0.11029399999999612
        },
        {
          "name": "G2",
          "midi": 43,
          "time": 90.88225600000061,
          "velocity": 0.7480314960629921,
          "duration": 0.11029399999999612
        },
        {
          "name": "G2",
          "midi": 43,
          "time": 91.1028440000006,
          "velocity": 0.7480314960629921,
          "duration": 0.22058800000000645
        },
        {
          "name": "D3",
          "midi": 50,
          "time": 91.32343200000061,
          "velocity": 0.7480314960629921,
          "duration": 0.22058800000000645
        },
        {
          "name": "G3",
          "midi": 55,
          "time": 91.54402000000061,
          "velocity": 0.7480314960629921,
          "duration": 0.22058800000000645
        },
        {
          "name": "G2",
          "midi": 43,
          "time": 91.76460800000062,
          "velocity": 0.7480314960629921,
          "duration": 0.4411759999999987
        },
        {
          "name": "G3",
          "midi": 55,
          "time": 92.20578400000062,
          "velocity": 0.7480314960629921,
          "duration": 0.33088200000000256
        },
        {
          "name": "G3",
          "midi": 55,
          "time": 92.53666600000062,
          "velocity": 0.7480314960629921,
          "duration": 0.11029399999999612
        },
        {
          "name": "G2",
          "midi": 43,
          "time": 92.64696000000062,
          "velocity": 0.7480314960629921,
          "duration": 0.11029399999999612
        },
        {
          "name": "G2",
          "midi": 43,
          "time": 92.86754800000061,
          "velocity": 0.7480314960629921,
          "duration": 0.22058800000000645
        },
        {
          "name": "D3",
          "midi": 50,
          "time": 93.08813600000062,
          "velocity": 0.7480314960629921,
          "duration": 0.22058800000000645
        },
        {
          "name": "G3",
          "midi": 55,
          "time": 93.30872400000062,
          "velocity": 0.7480314960629921,
          "duration": 0.22058800000000645
        },
        {
          "name": "D2",
          "midi": 38,
          "time": 93.52931200000063,
          "velocity": 0.7480314960629921,
          "duration": 0.4411759999999987
        },
        {
          "name": "D3",
          "midi": 50,
          "time": 93.97048800000063,
          "velocity": 0.7480314960629921,
          "duration": 0.33088200000000256
        },
        {
          "name": "D3",
          "midi": 50,
          "time": 94.30137000000063,
          "velocity": 0.7480314960629921,
          "duration": 0.11029399999999612
        },
        {
          "name": "D2",
          "midi": 38,
          "time": 94.41166400000063,
          "velocity": 0.7480314960629921,
          "duration": 0.11029399999999612
        },
        {
          "name": "D2",
          "midi": 38,
          "time": 94.63225200000062,
          "velocity": 0.7480314960629921,
          "duration": 0.22058800000000645
        },
        {
          "name": "A2",
          "midi": 45,
          "time": 94.85284000000063,
          "velocity": 0.7480314960629921,
          "duration": 0.22058800000000645
        },
        {
          "name": "D3",
          "midi": 50,
          "time": 95.07342800000063,
          "velocity": 0.7480314960629921,
          "duration": 0.22058800000000645
        },
        {
          "name": "D2",
          "midi": 38,
          "time": 95.29401600000064,
          "velocity": 0.7480314960629921,
          "duration": 0.4411759999999987
        },
        {
          "name": "D3",
          "midi": 50,
          "time": 95.73519200000064,
          "velocity": 0.7480314960629921,
          "duration": 0.33088200000000256
        },
        {
          "name": "D3",
          "midi": 50,
          "time": 96.06607400000064,
          "velocity": 0.7480314960629921,
          "duration": 0.11029399999999612
        },
        {
          "name": "D2",
          "midi": 38,
          "time": 96.17636800000064,
          "velocity": 0.7480314960629921,
          "duration": 0.11029399999999612
        },
        {
          "name": "D2",
          "midi": 38,
          "time": 96.39695600000063,
          "velocity": 0.7480314960629921,
          "duration": 0.22058800000000645
        },
        {
          "name": "A2",
          "midi": 45,
          "time": 96.61754400000063,
          "velocity": 0.7480314960629921,
          "duration": 0.22058800000000645
        },
        {
          "name": "D3",
          "midi": 50,
          "time": 96.83813200000064,
          "velocity": 0.7480314960629921,
          "duration": 0.22058800000000645
        },
        {
          "name": "F#2",
          "midi": 42,
          "time": 97.05872000000065,
          "velocity": 0.7480314960629921,
          "duration": 0.4411759999999987
        },
        {
          "name": "F#3",
          "midi": 54,
          "time": 97.49989600000065,
          "velocity": 0.7480314960629921,
          "duration": 0.33088200000000256
        },
        {
          "name": "F#3",
          "midi": 54,
          "time": 97.83077800000065,
          "velocity": 0.7480314960629921,
          "duration": 0.11029399999999612
        },
        {
          "name": "F#2",
          "midi": 42,
          "time": 97.94107200000064,
          "velocity": 0.7480314960629921,
          "duration": 0.11029399999999612
        },
        {
          "name": "F#2",
          "midi": 42,
          "time": 98.16166000000064,
          "velocity": 0.7480314960629921,
          "duration": 0.22058800000000645
        },
        {
          "name": "C#3",
          "midi": 49,
          "time": 98.38224800000064,
          "velocity": 0.7480314960629921,
          "duration": 0.22058800000000645
        },
        {
          "name": "F#3",
          "midi": 54,
          "time": 98.60283600000065,
          "velocity": 0.7480314960629921,
          "duration": 0.22058800000000645
        },
        {
          "name": "F#2",
          "midi": 42,
          "time": 98.82342400000066,
          "velocity": 0.7480314960629921,
          "duration": 0.4411759999999987
        },
        {
          "name": "F#3",
          "midi": 54,
          "time": 99.26460000000066,
          "velocity": 0.7480314960629921,
          "duration": 0.33088200000000256
        },
        {
          "name": "F#3",
          "midi": 54,
          "time": 99.59548200000066,
          "velocity": 0.7480314960629921,
          "duration": 0.11029399999999612
        },
        {
          "name": "F#2",
          "midi": 42,
          "time": 99.70577600000065,
          "velocity": 0.7480314960629921,
          "duration": 0.11029399999999612
        },
        {
          "name": "F#2",
          "midi": 42,
          "time": 99.92636400000065,
          "velocity": 0.7480314960629921,
          "duration": 0.22058800000000645
        },
        {
          "name": "C#3",
          "midi": 49,
          "time": 100.14695200000065,
          "velocity": 0.7480314960629921,
          "duration": 0.22058800000000645
        },
        {
          "name": "F#3",
          "midi": 54,
          "time": 100.36754000000066,
          "velocity": 0.7480314960629921,
          "duration": 0.22058800000000645
        },
        {
          "name": "G2",
          "midi": 43,
          "time": 100.58812800000067,
          "velocity": 0.7480314960629921,
          "duration": 0.4411759999999987
        },
        {
          "name": "G3",
          "midi": 55,
          "time": 101.02930400000066,
          "velocity": 0.7480314960629921,
          "duration": 0.4411759999999987
        },
        {
          "name": "G2",
          "midi": 43,
          "time": 101.47048000000066,
          "velocity": 0.7480314960629921,
          "duration": 0.11029399999999612
        },
        {
          "name": "G2",
          "midi": 43,
          "time": 101.69106800000066,
          "velocity": 0.7480314960629921,
          "duration": 0.22058800000000645
        },
        {
          "name": "D3",
          "midi": 50,
          "time": 101.91165600000066,
          "velocity": 0.7480314960629921,
          "duration": 0.22058800000000645
        },
        {
          "name": "G3",
          "midi": 55,
          "time": 102.13224400000067,
          "velocity": 0.7480314960629921,
          "duration": 0.22058800000000645
        },
        {
          "name": "G2",
          "midi": 43,
          "time": 102.35283200000067,
          "velocity": 0.7480314960629921,
          "duration": 0.4411759999999987
        },
        {
          "name": "G3",
          "midi": 55,
          "time": 102.79400800000067,
          "velocity": 0.7480314960629921,
          "duration": 0.4411759999999987
        },
        {
          "name": "G2",
          "midi": 43,
          "time": 103.23518400000067,
          "velocity": 0.7480314960629921,
          "duration": 0.11029399999999612
        },
        {
          "name": "G2",
          "midi": 43,
          "time": 103.45577200000066,
          "velocity": 0.7480314960629921,
          "duration": 0.22058800000000645
        },
        {
          "name": "D3",
          "midi": 50,
          "time": 103.67636000000067,
          "velocity": 0.7480314960629921,
          "duration": 0.22058800000000645
        },
        {
          "name": "G3",
          "midi": 55,
          "time": 103.89694800000068,
          "velocity": 0.7480314960629921,
          "duration": 0.22058800000000645
        },
        {
          "name": "D2",
          "midi": 38,
          "time": 104.11753600000068,
          "velocity": 0.7480314960629921,
          "duration": 0.4411759999999987
        },
        {
          "name": "D3",
          "midi": 50,
          "time": 104.55871200000068,
          "velocity": 0.7480314960629921,
          "duration": 0.4411759999999987
        },
        {
          "name": "D2",
          "midi": 38,
          "time": 104.99988800000068,
          "velocity": 0.7480314960629921,
          "duration": 0.11029399999999612
        },
        {
          "name": "D2",
          "midi": 38,
          "time": 105.22047600000067,
          "velocity": 0.7480314960629921,
          "duration": 0.22058800000000645
        },
        {
          "name": "A2",
          "midi": 45,
          "time": 105.44106400000068,
          "velocity": 0.7480314960629921,
          "duration": 0.22058800000000645
        },
        {
          "name": "D3",
          "midi": 50,
          "time": 105.66165200000069,
          "velocity": 0.7480314960629921,
          "duration": 0.22058800000000645
        },
        {
          "name": "D2",
          "midi": 38,
          "time": 105.88224000000069,
          "velocity": 0.7480314960629921,
          "duration": 0.4411759999999987
        },
        {
          "name": "D3",
          "midi": 50,
          "time": 106.32341600000069,
          "velocity": 0.7480314960629921,
          "duration": 0.4411759999999987
        },
        {
          "name": "D2",
          "midi": 38,
          "time": 106.76459200000069,
          "velocity": 0.7480314960629921,
          "duration": 0.11029399999999612
        },
        {
          "name": "D2",
          "midi": 38,
          "time": 106.98518000000068,
          "velocity": 0.7480314960629921,
          "duration": 0.22058800000000645
        },
        {
          "name": "A2",
          "midi": 45,
          "time": 107.20576800000069,
          "velocity": 0.7480314960629921,
          "duration": 0.22058800000000645
        },
        {
          "name": "D3",
          "midi": 50,
          "time": 107.4263560000007,
          "velocity": 0.7480314960629921,
          "duration": 0.22058800000000645
        },
        {
          "name": "F#2",
          "midi": 42,
          "time": 107.6469440000007,
          "velocity": 0.7480314960629921,
          "duration": 0.4411759999999987
        },
        {
          "name": "F#3",
          "midi": 54,
          "time": 108.0881200000007,
          "velocity": 0.7480314960629921,
          "duration": 0.4411759999999987
        },
        {
          "name": "F#2",
          "midi": 42,
          "time": 108.5292960000007,
          "velocity": 0.7480314960629921,
          "duration": 0.11029399999999612
        },
        {
          "name": "F#2",
          "midi": 42,
          "time": 108.74988400000069,
          "velocity": 0.7480314960629921,
          "duration": 0.22058800000000645
        },
        {
          "name": "C#3",
          "midi": 49,
          "time": 108.9704720000007,
          "velocity": 0.7480314960629921,
          "duration": 0.22058800000000645
        },
        {
          "name": "F#3",
          "midi": 54,
          "time": 109.1910600000007,
          "velocity": 0.7480314960629921,
          "duration": 0.22058800000000645
        },
        {
          "name": "F#2",
          "midi": 42,
          "time": 109.41164800000071,
          "velocity": 0.7480314960629921,
          "duration": 0.4411759999999987
        },
        {
          "name": "F#3",
          "midi": 54,
          "time": 109.85282400000071,
          "velocity": 0.7480314960629921,
          "duration": 0.4411759999999987
        },
        {
          "name": "F#2",
          "midi": 42,
          "time": 110.29400000000071,
          "velocity": 0.7480314960629921,
          "duration": 0.11029399999999612
        },
        {
          "name": "F#2",
          "midi": 42,
          "time": 110.5145880000007,
          "velocity": 0.7480314960629921,
          "duration": 0.22058800000000645
        },
        {
          "name": "C#3",
          "midi": 49,
          "time": 110.7351760000007,
          "velocity": 0.7480314960629921,
          "duration": 0.22058800000000645
        },
        {
          "name": "F#3",
          "midi": 54,
          "time": 110.95576400000071,
          "velocity": 0.7480314960629921,
          "duration": 0.22058800000000645
        },
        {
          "name": "G2",
          "midi": 43,
          "time": 111.17635200000072,
          "velocity": 0.7480314960629921,
          "duration": 0.4411759999999987
        },
        {
          "name": "G3",
          "midi": 55,
          "time": 111.61752800000072,
          "velocity": 0.7480314960629921,
          "duration": 0.4411759999999987
        },
        {
          "name": "G2",
          "midi": 43,
          "time": 112.05870400000072,
          "velocity": 0.7480314960629921,
          "duration": 0.11029399999999612
        },
        {
          "name": "G2",
          "midi": 43,
          "time": 112.27929200000071,
          "velocity": 0.7480314960629921,
          "duration": 0.22058800000000645
        },
        {
          "name": "D3",
          "midi": 50,
          "time": 112.49988000000072,
          "velocity": 0.7480314960629921,
          "duration": 0.22058800000000645
        },
        {
          "name": "G3",
          "midi": 55,
          "time": 112.72046800000072,
          "velocity": 0.7480314960629921,
          "duration": 0.22058800000000645
        },
        {
          "name": "G2",
          "midi": 43,
          "time": 112.94105600000073,
          "velocity": 0.7480314960629921,
          "duration": 0.4411759999999987
        },
        {
          "name": "G3",
          "midi": 55,
          "time": 113.38223200000073,
          "velocity": 0.7480314960629921,
          "duration": 0.4411759999999987
        },
        {
          "name": "G2",
          "midi": 43,
          "time": 113.82340800000073,
          "velocity": 0.7480314960629921,
          "duration": 0.11029399999999612
        },
        {
          "name": "G2",
          "midi": 43,
          "time": 114.04399600000072,
          "velocity": 0.7480314960629921,
          "duration": 0.22058800000000645
        },
        {
          "name": "D3",
          "midi": 50,
          "time": 114.26458400000072,
          "velocity": 0.7480314960629921,
          "duration": 0.22058800000000645
        },
        {
          "name": "G3",
          "midi": 55,
          "time": 114.48517200000073,
          "velocity": 0.7480314960629921,
          "duration": 0.22058800000000645
        },
        {
          "name": "D2",
          "midi": 38,
          "time": 114.70576000000074,
          "velocity": 0.7480314960629921,
          "duration": 0.4411759999999987
        },
        {
          "name": "D3",
          "midi": 50,
          "time": 115.14693600000074,
          "velocity": 0.7480314960629921,
          "duration": 0.4411759999999987
        },
        {
          "name": "D2",
          "midi": 38,
          "time": 115.58811200000073,
          "velocity": 0.7480314960629921,
          "duration": 0.11029399999999612
        },
        {
          "name": "D2",
          "midi": 38,
          "time": 115.80870000000073,
          "velocity": 0.7480314960629921,
          "duration": 0.22058800000000645
        },
        {
          "name": "A2",
          "midi": 45,
          "time": 116.02928800000073,
          "velocity": 0.7480314960629921,
          "duration": 0.22058800000000645
        },
        {
          "name": "D3",
          "midi": 50,
          "time": 116.24987600000074,
          "velocity": 0.7480314960629921,
          "duration": 0.22058800000000645
        },
        {
          "name": "D2",
          "midi": 38,
          "time": 116.47046400000075,
          "velocity": 0.7480314960629921,
          "duration": 0.4411759999999987
        },
        {
          "name": "D3",
          "midi": 50,
          "time": 116.91164000000074,
          "velocity": 0.7480314960629921,
          "duration": 0.4411759999999987
        },
        {
          "name": "D2",
          "midi": 38,
          "time": 117.35281600000074,
          "velocity": 0.7480314960629921,
          "duration": 0.11029399999999612
        },
        {
          "name": "D2",
          "midi": 38,
          "time": 117.57340400000074,
          "velocity": 0.7480314960629921,
          "duration": 0.22058800000000645
        },
        {
          "name": "A2",
          "midi": 45,
          "time": 117.79399200000074,
          "velocity": 0.7480314960629921,
          "duration": 0.22058800000000645
        },
        {
          "name": "D3",
          "midi": 50,
          "time": 118.01458000000075,
          "velocity": 0.7480314960629921,
          "duration": 0.22058800000000645
        },
        {
          "name": "F#2",
          "midi": 42,
          "time": 118.23516800000075,
          "velocity": 0.7480314960629921,
          "duration": 0.4411759999999987
        },
        {
          "name": "F#3",
          "midi": 54,
          "time": 118.67634400000075,
          "velocity": 0.7480314960629921,
          "duration": 0.4411759999999987
        },
        {
          "name": "F#2",
          "midi": 42,
          "time": 119.11752000000075,
          "velocity": 0.7480314960629921,
          "duration": 0.11029399999999612
        },
        {
          "name": "F#2",
          "midi": 42,
          "time": 119.33810800000074,
          "velocity": 0.7480314960629921,
          "duration": 0.22058800000000645
        },
        {
          "name": "C#3",
          "midi": 49,
          "time": 119.55869600000075,
          "velocity": 0.7480314960629921,
          "duration": 0.22058800000000645
        },
        {
          "name": "F#3",
          "midi": 54,
          "time": 119.77928400000076,
          "velocity": 0.7480314960629921,
          "duration": 0.22058800000000645
        },
        {
          "name": "F#2",
          "midi": 42,
          "time": 119.99987200000076,
          "velocity": 0.7480314960629921,
          "duration": 0.4411759999999987
        },
        {
          "name": "F#3",
          "midi": 54,
          "time": 120.44104800000076,
          "velocity": 0.7480314960629921,
          "duration": 0.4411759999999987
        },
        {
          "name": "F#2",
          "midi": 42,
          "time": 120.88222400000076,
          "velocity": 0.7480314960629921,
          "duration": 0.11029399999999612
        },
        {
          "name": "F#2",
          "midi": 42,
          "time": 121.10281200000075,
          "velocity": 0.7480314960629921,
          "duration": 0.22058800000000645
        },
        {
          "name": "C#3",
          "midi": 49,
          "time": 121.32340000000076,
          "velocity": 0.7480314960629921,
          "duration": 0.22058800000000645
        },
        {
          "name": "F#3",
          "midi": 54,
          "time": 121.54398800000077,
          "velocity": 0.7480314960629921,
          "duration": 0.22058800000000645
        },
        {
          "name": "G2",
          "midi": 43,
          "time": 121.76457600000077,
          "velocity": 0.7480314960629921,
          "duration": 0.4411759999999987
        },
        {
          "name": "G3",
          "midi": 55,
          "time": 122.20575200000077,
          "velocity": 0.7480314960629921,
          "duration": 0.4411759999999987
        },
        {
          "name": "G2",
          "midi": 43,
          "time": 122.64692800000077,
          "velocity": 0.7480314960629921,
          "duration": 0.11029399999999612
        },
        {
          "name": "G2",
          "midi": 43,
          "time": 122.86751600000076,
          "velocity": 0.7480314960629921,
          "duration": 0.22058800000000645
        },
        {
          "name": "D3",
          "midi": 50,
          "time": 123.08810400000077,
          "velocity": 0.7480314960629921,
          "duration": 0.22058800000000645
        },
        {
          "name": "G3",
          "midi": 55,
          "time": 123.30869200000078,
          "velocity": 0.7480314960629921,
          "duration": 0.22058800000000645
        },
        {
          "name": "G2",
          "midi": 43,
          "time": 123.52928000000078,
          "velocity": 0.7480314960629921,
          "duration": 0.4411759999999987
        },
        {
          "name": "G3",
          "midi": 55,
          "time": 123.97045600000078,
          "velocity": 0.7480314960629921,
          "duration": 0.4411759999999987
        },
        {
          "name": "G2",
          "midi": 43,
          "time": 124.41163200000078,
          "velocity": 0.7480314960629921,
          "duration": 0.11029399999999612
        },
        {
          "name": "G2",
          "midi": 43,
          "time": 124.63222000000077,
          "velocity": 0.7480314960629921,
          "duration": 0.22058800000000645
        },
        {
          "name": "D3",
          "midi": 50,
          "time": 124.85280800000078,
          "velocity": 0.7480314960629921,
          "duration": 0.22058800000000645
        },
        {
          "name": "G3",
          "midi": 55,
          "time": 125.07339600000078,
          "velocity": 0.7480314960629921,
          "duration": 0.22058800000000645
        },
        {
          "name": "D2",
          "midi": 38,
          "time": 125.29398400000079,
          "velocity": 0.7480314960629921,
          "duration": 0.4411759999999987
        },
        {
          "name": "D3",
          "midi": 50,
          "time": 125.73516000000079,
          "velocity": 0.7480314960629921,
          "duration": 0.4411759999999987
        },
        {
          "name": "D2",
          "midi": 38,
          "time": 126.17633600000079,
          "velocity": 0.7480314960629921,
          "duration": 0.11029399999999612
        },
        {
          "name": "D2",
          "midi": 38,
          "time": 126.39692400000078,
          "velocity": 0.7480314960629921,
          "duration": 0.22058800000000645
        },
        {
          "name": "A2",
          "midi": 45,
          "time": 126.61751200000079,
          "velocity": 0.7480314960629921,
          "duration": 0.22058800000000645
        },
        {
          "name": "D3",
          "midi": 50,
          "time": 126.8381000000008,
          "velocity": 0.7480314960629921,
          "duration": 0.22058800000000645
        },
        {
          "name": "D2",
          "midi": 38,
          "time": 127.0586880000008,
          "velocity": 0.7480314960629921,
          "duration": 0.4411759999999987
        },
        {
          "name": "D3",
          "midi": 50,
          "time": 127.4998640000008,
          "velocity": 0.7480314960629921,
          "duration": 0.4411759999999987
        },
        {
          "name": "D2",
          "midi": 38,
          "time": 127.9410400000008,
          "velocity": 0.7480314960629921,
          "duration": 0.11029399999999612
        },
        {
          "name": "D2",
          "midi": 38,
          "time": 128.1616280000008,
          "velocity": 0.7480314960629921,
          "duration": 0.22058799999999223
        },
        {
          "name": "A2",
          "midi": 45,
          "time": 128.3822160000008,
          "velocity": 0.7480314960629921,
          "duration": 0.22058799999999223
        },
        {
          "name": "D3",
          "midi": 50,
          "time": 128.6028040000008,
          "velocity": 0.7480314960629921,
          "duration": 0.22058799999999223
        },
        {
          "name": "F#1",
          "midi": 30,
          "time": 128.82339200000078,
          "velocity": 0.2440944881889764,
          "duration": 0.22058799999999223
        },
        {
          "name": "F#1",
          "midi": 30,
          "time": 129.04398000000077,
          "velocity": 0.2440944881889764,
          "duration": 0.22058799999999223
        },
        {
          "name": "F#1",
          "midi": 30,
          "time": 129.26456800000076,
          "velocity": 0.3700787401574803,
          "duration": 0.22058799999999223
        },
        {
          "name": "F#1",
          "midi": 30,
          "time": 129.48515600000076,
          "velocity": 0.3700787401574803,
          "duration": 0.22058799999999223
        },
        {
          "name": "F#1",
          "midi": 30,
          "time": 129.70574400000075,
          "velocity": 0.49606299212598426,
          "duration": 0.22058799999999223
        },
        {
          "name": "F#1",
          "midi": 30,
          "time": 129.92633200000074,
          "velocity": 0.49606299212598426,
          "duration": 0.22058799999999223
        },
        {
          "name": "F#1",
          "midi": 30,
          "time": 130.14692000000073,
          "velocity": 0.6220472440944882,
          "duration": 0.22058799999999223
        },
        {
          "name": "F#1",
          "midi": 30,
          "time": 130.36750800000073,
          "velocity": 0.6220472440944882,
          "duration": 0.22058799999999223
        },
        {
          "name": "F#1",
          "midi": 30,
          "time": 130.58809600000072,
          "velocity": 0.7480314960629921,
          "duration": 0.22058799999999223
        },
        {
          "name": "F#1",
          "midi": 30,
          "time": 130.8086840000007,
          "velocity": 0.7480314960629921,
          "duration": 0.22058799999999223
        },
        {
          "name": "F#1",
          "midi": 30,
          "time": 131.0292720000007,
          "velocity": 0.7480314960629921,
          "duration": 0.22058799999999223
        },
        {
          "name": "F#1",
          "midi": 30,
          "time": 131.2498600000007,
          "velocity": 0.7480314960629921,
          "duration": 0.22058799999999223
        },
        {
          "name": "F#1",
          "midi": 30,
          "time": 131.4704480000007,
          "velocity": 0.7480314960629921,
          "duration": 0.22058799999999223
        },
        {
          "name": "F#1",
          "midi": 30,
          "time": 131.69103600000068,
          "velocity": 0.7480314960629921,
          "duration": 0.22058799999999223
        },
        {
          "name": "F#1",
          "midi": 30,
          "time": 131.91162400000067,
          "velocity": 0.7480314960629921,
          "duration": 0.22058799999999223
        },
        {
          "name": "F#1",
          "midi": 30,
          "time": 132.13221200000066,
          "velocity": 0.7480314960629921,
          "duration": 0.22058799999999223
        },
        {
          "name": "G2",
          "midi": 43,
          "time": 132.35280000000066,
          "velocity": 0.7480314960629921,
          "duration": 0.22058799999999223
        },
        {
          "name": "G2",
          "midi": 43,
          "time": 132.57338800000065,
          "velocity": 0.7480314960629921,
          "duration": 0.22058799999999223
        },
        {
          "name": "G2",
          "midi": 43,
          "time": 132.79397600000064,
          "velocity": 0.7480314960629921,
          "duration": 0.22058799999999223
        },
        {
          "name": "G2",
          "midi": 43,
          "time": 133.01456400000063,
          "velocity": 0.7480314960629921,
          "duration": 0.22058799999999223
        },
        {
          "name": "G2",
          "midi": 43,
          "time": 133.23515200000062,
          "velocity": 0.7480314960629921,
          "duration": 0.22058799999999223
        },
        {
          "name": "G2",
          "midi": 43,
          "time": 133.45574000000062,
          "velocity": 0.7480314960629921,
          "duration": 0.22058799999999223
        },
        {
          "name": "G2",
          "midi": 43,
          "time": 133.6763280000006,
          "velocity": 0.7480314960629921,
          "duration": 0.22058799999999223
        },
        {
          "name": "G2",
          "midi": 43,
          "time": 133.8969160000006,
          "velocity": 0.7480314960629921,
          "duration": 0.22058799999999223
        },
        {
          "name": "G2",
          "midi": 43,
          "time": 134.1175040000006,
          "velocity": 0.7480314960629921,
          "duration": 0.22058799999999223
        },
        {
          "name": "G2",
          "midi": 43,
          "time": 134.3380920000006,
          "velocity": 0.7480314960629921,
          "duration": 0.22058799999999223
        },
        {
          "name": "G2",
          "midi": 43,
          "time": 134.55868000000058,
          "velocity": 0.7480314960629921,
          "duration": 0.22058799999999223
        },
        {
          "name": "G2",
          "midi": 43,
          "time": 134.77926800000057,
          "velocity": 0.7480314960629921,
          "duration": 0.22058799999999223
        },
        {
          "name": "C#3",
          "midi": 49,
          "time": 134.99985600000056,
          "velocity": 0.7480314960629921,
          "duration": 0.22058799999999223
        },
        {
          "name": "D3",
          "midi": 50,
          "time": 135.22044400000055,
          "velocity": 0.7480314960629921,
          "duration": 0.22058799999999223
        },
        {
          "name": "C#3",
          "midi": 49,
          "time": 135.44103200000055,
          "velocity": 0.7480314960629921,
          "duration": 0.22058799999999223
        },
        {
          "name": "G2",
          "midi": 43,
          "time": 135.66162000000054,
          "velocity": 0.7480314960629921,
          "duration": 0.22058799999999223
        },
        {
          "name": "B2",
          "midi": 47,
          "time": 135.88220800000053,
          "velocity": 0.7480314960629921,
          "duration": 0.22058799999999223
        },
        {
          "name": "B2",
          "midi": 47,
          "time": 136.10279600000052,
          "velocity": 0.7480314960629921,
          "duration": 0.22058799999999223
        },
        {
          "name": "B2",
          "midi": 47,
          "time": 136.32338400000052,
          "velocity": 0.7480314960629921,
          "duration": 0.22058799999999223
        },
        {
          "name": "B2",
          "midi": 47,
          "time": 136.5439720000005,
          "velocity": 0.7480314960629921,
          "duration": 0.22058799999999223
        },
        {
          "name": "B2",
          "midi": 47,
          "time": 136.7645600000005,
          "velocity": 0.7480314960629921,
          "duration": 0.22058799999999223
        },
        {
          "name": "B2",
          "midi": 47,
          "time": 136.9851480000005,
          "velocity": 0.7480314960629921,
          "duration": 0.22058799999999223
        },
        {
          "name": "B2",
          "midi": 47,
          "time": 137.20573600000048,
          "velocity": 0.7480314960629921,
          "duration": 0.22058799999999223
        },
        {
          "name": "B2",
          "midi": 47,
          "time": 137.42632400000048,
          "velocity": 0.7480314960629921,
          "duration": 0.22058799999999223
        },
        {
          "name": "F#2",
          "midi": 42,
          "time": 137.64691200000047,
          "velocity": 0.7480314960629921,
          "duration": 0.22058799999999223
        },
        {
          "name": "F#2",
          "midi": 42,
          "time": 137.86750000000046,
          "velocity": 0.7480314960629921,
          "duration": 0.22058799999999223
        },
        {
          "name": "F#2",
          "midi": 42,
          "time": 138.08808800000045,
          "velocity": 0.7480314960629921,
          "duration": 0.22058799999999223
        },
        {
          "name": "F#2",
          "midi": 42,
          "time": 138.30867600000045,
          "velocity": 0.7480314960629921,
          "duration": 0.22058799999999223
        },
        {
          "name": "F#2",
          "midi": 42,
          "time": 138.52926400000044,
          "velocity": 0.7480314960629921,
          "duration": 0.22058799999999223
        },
        {
          "name": "A2",
          "midi": 45,
          "time": 138.74985200000043,
          "velocity": 0.7480314960629921,
          "duration": 0.22058799999999223
        },
        {
          "name": "A2",
          "midi": 45,
          "time": 138.97044000000042,
          "velocity": 0.7480314960629921,
          "duration": 0.22058799999999223
        },
        {
          "name": "F#2",
          "midi": 42,
          "time": 139.19102800000041,
          "velocity": 0.7480314960629921,
          "duration": 0.22058799999999223
        },
        {
          "name": "G2",
          "midi": 43,
          "time": 139.4116160000004,
          "velocity": 0.7480314960629921,
          "duration": 0.22058799999999223
        },
        {
          "name": "G2",
          "midi": 43,
          "time": 139.6322040000004,
          "velocity": 0.7480314960629921,
          "duration": 0.22058799999999223
        },
        {
          "name": "G2",
          "midi": 43,
          "time": 139.8527920000004,
          "velocity": 0.7480314960629921,
          "duration": 0.22058799999999223
        },
        {
          "name": "G2",
          "midi": 43,
          "time": 140.07338000000038,
          "velocity": 0.7480314960629921,
          "duration": 0.22058799999999223
        },
        {
          "name": "G2",
          "midi": 43,
          "time": 140.29396800000038,
          "velocity": 0.7480314960629921,
          "duration": 0.22058799999999223
        },
        {
          "name": "G2",
          "midi": 43,
          "time": 140.51455600000037,
          "velocity": 0.7480314960629921,
          "duration": 0.22058799999999223
        },
        {
          "name": "G2",
          "midi": 43,
          "time": 140.73514400000036,
          "velocity": 0.7480314960629921,
          "duration": 0.22058799999999223
        },
        {
          "name": "G2",
          "midi": 43,
          "time": 140.95573200000035,
          "velocity": 0.7480314960629921,
          "duration": 0.22058799999999223
        },
        {
          "name": "G2",
          "midi": 43,
          "time": 141.17632000000035,
          "velocity": 0.7480314960629921,
          "duration": 0.22058799999999223
        },
        {
          "name": "G2",
          "midi": 43,
          "time": 141.39690800000034,
          "velocity": 0.7480314960629921,
          "duration": 0.22058799999999223
        },
        {
          "name": "G2",
          "midi": 43,
          "time": 141.61749600000033,
          "velocity": 0.7480314960629921,
          "duration": 0.22058799999999223
        },
        {
          "name": "G2",
          "midi": 43,
          "time": 141.83808400000032,
          "velocity": 0.7480314960629921,
          "duration": 0.22058799999999223
        },
        {
          "name": "C#3",
          "midi": 49,
          "time": 142.0586720000003,
          "velocity": 0.7480314960629921,
          "duration": 0.22058799999999223
        },
        {
          "name": "D3",
          "midi": 50,
          "time": 142.2792600000003,
          "velocity": 0.7480314960629921,
          "duration": 0.22058799999999223
        },
        {
          "name": "C#3",
          "midi": 49,
          "time": 142.4998480000003,
          "velocity": 0.7480314960629921,
          "duration": 0.22058799999999223
        },
        {
          "name": "G2",
          "midi": 43,
          "time": 142.7204360000003,
          "velocity": 0.7480314960629921,
          "duration": 0.22058799999999223
        },
        {
          "name": "B2",
          "midi": 47,
          "time": 142.94102400000028,
          "velocity": 0.7480314960629921,
          "duration": 0.22058799999999223
        },
        {
          "name": "B2",
          "midi": 47,
          "time": 143.16161200000028,
          "velocity": 0.7480314960629921,
          "duration": 0.22058799999999223
        },
        {
          "name": "B2",
          "midi": 47,
          "time": 143.38220000000027,
          "velocity": 0.7480314960629921,
          "duration": 0.22058799999999223
        },
        {
          "name": "B2",
          "midi": 47,
          "time": 143.60278800000026,
          "velocity": 0.7480314960629921,
          "duration": 0.22058799999999223
        },
        {
          "name": "B2",
          "midi": 47,
          "time": 143.82337600000025,
          "velocity": 0.7480314960629921,
          "duration": 0.22058799999999223
        },
        {
          "name": "B2",
          "midi": 47,
          "time": 144.04396400000024,
          "velocity": 0.7480314960629921,
          "duration": 0.22058799999999223
        },
        {
          "name": "B2",
          "midi": 47,
          "time": 144.26455200000024,
          "velocity": 0.7480314960629921,
          "duration": 0.22058799999999223
        },
        {
          "name": "B2",
          "midi": 47,
          "time": 144.48514000000023,
          "velocity": 0.7480314960629921,
          "duration": 0.22058799999999223
        },
        {
          "name": "F#2",
          "midi": 42,
          "time": 144.70572800000022,
          "velocity": 0.7480314960629921,
          "duration": 0.22058799999999223
        },
        {
          "name": "F#2",
          "midi": 42,
          "time": 144.9263160000002,
          "velocity": 0.7480314960629921,
          "duration": 0.22058799999999223
        },
        {
          "name": "F#2",
          "midi": 42,
          "time": 145.1469040000002,
          "velocity": 0.7480314960629921,
          "duration": 0.22058799999999223
        },
        {
          "name": "F#2",
          "midi": 42,
          "time": 145.3674920000002,
          "velocity": 0.7480314960629921,
          "duration": 0.22058799999999223
        },
        {
          "name": "F#2",
          "midi": 42,
          "time": 145.5880800000002,
          "velocity": 0.7480314960629921,
          "duration": 0.22058799999999223
        },
        {
          "name": "F#2",
          "midi": 42,
          "time": 145.80866800000018,
          "velocity": 0.7480314960629921,
          "duration": 0.22058799999999223
        },
        {
          "name": "F#2",
          "midi": 42,
          "time": 146.02925600000017,
          "velocity": 0.7480314960629921,
          "duration": 0.22058799999999223
        },
        {
          "name": "F#2",
          "midi": 42,
          "time": 146.24984400000017,
          "velocity": 0.7480314960629921,
          "duration": 0.22058799999999223
        },
        {
          "name": "G2",
          "midi": 43,
          "time": 146.47043200000016,
          "velocity": 0.7480314960629921,
          "duration": 0.22058799999999223
        },
        {
          "name": "G2",
          "midi": 43,
          "time": 146.69102000000015,
          "velocity": 0.7480314960629921,
          "duration": 0.22058799999999223
        },
        {
          "name": "G2",
          "midi": 43,
          "time": 146.91160800000014,
          "velocity": 0.7480314960629921,
          "duration": 0.22058799999999223
        },
        {
          "name": "G2",
          "midi": 43,
          "time": 147.13219600000014,
          "velocity": 0.7480314960629921,
          "duration": 0.22058799999999223
        },
        {
          "name": "G2",
          "midi": 43,
          "time": 147.35278400000013,
          "velocity": 0.7480314960629921,
          "duration": 0.22058799999999223
        },
        {
          "name": "G2",
          "midi": 43,
          "time": 147.57337200000012,
          "velocity": 0.7480314960629921,
          "duration": 0.22058799999999223
        },
        {
          "name": "G2",
          "midi": 43,
          "time": 147.7939600000001,
          "velocity": 0.7480314960629921,
          "duration": 0.22058799999999223
        },
        {
          "name": "G2",
          "midi": 43,
          "time": 148.0145480000001,
          "velocity": 0.7480314960629921,
          "duration": 0.22058799999999223
        },
        {
          "name": "G2",
          "midi": 43,
          "time": 148.2351360000001,
          "velocity": 0.7480314960629921,
          "duration": 0.22058799999999223
        },
        {
          "name": "G2",
          "midi": 43,
          "time": 148.4557240000001,
          "velocity": 0.7480314960629921,
          "duration": 0.22058799999999223
        },
        {
          "name": "G2",
          "midi": 43,
          "time": 148.67631200000008,
          "velocity": 0.7480314960629921,
          "duration": 0.22058799999999223
        },
        {
          "name": "G2",
          "midi": 43,
          "time": 148.89690000000007,
          "velocity": 0.7480314960629921,
          "duration": 0.22058799999999223
        },
        {
          "name": "C#3",
          "midi": 49,
          "time": 149.11748800000007,
          "velocity": 0.7480314960629921,
          "duration": 0.22058799999999223
        },
        {
          "name": "D3",
          "midi": 50,
          "time": 149.33807600000006,
          "velocity": 0.7480314960629921,
          "duration": 0.22058799999999223
        },
        {
          "name": "C#3",
          "midi": 49,
          "time": 149.55866400000005,
          "velocity": 0.7480314960629921,
          "duration": 0.22058799999999223
        },
        {
          "name": "G2",
          "midi": 43,
          "time": 149.77925200000004,
          "velocity": 0.7480314960629921,
          "duration": 0.22058799999999223
        },
        {
          "name": "B2",
          "midi": 47,
          "time": 149.99984000000003,
          "velocity": 0.7480314960629921,
          "duration": 0.22058799999999223
        },
        {
          "name": "B2",
          "midi": 47,
          "time": 150.22042800000003,
          "velocity": 0.7480314960629921,
          "duration": 0.22058799999999223
        },
        {
          "name": "B2",
          "midi": 47,
          "time": 150.44101600000002,
          "velocity": 0.7480314960629921,
          "duration": 0.22058799999999223
        },
        {
          "name": "B2",
          "midi": 47,
          "time": 150.661604,
          "velocity": 0.7480314960629921,
          "duration": 0.22058799999999223
        },
        {
          "name": "B2",
          "midi": 47,
          "time": 150.882192,
          "velocity": 0.7480314960629921,
          "duration": 0.22058799999999223
        },
        {
          "name": "B2",
          "midi": 47,
          "time": 151.10278,
          "velocity": 0.7480314960629921,
          "duration": 0.22058799999999223
        },
        {
          "name": "B2",
          "midi": 47,
          "time": 151.323368,
          "velocity": 0.7480314960629921,
          "duration": 0.22058799999999223
        },
        {
          "name": "B2",
          "midi": 47,
          "time": 151.54395599999998,
          "velocity": 0.7480314960629921,
          "duration": 0.22058799999999223
        },
        {
          "name": "F#2",
          "midi": 42,
          "time": 151.76454399999997,
          "velocity": 0.7480314960629921,
          "duration": 0.22058799999999223
        },
        {
          "name": "F#2",
          "midi": 42,
          "time": 151.98513199999996,
          "velocity": 0.7480314960629921,
          "duration": 0.22058799999999223
        },
        {
          "name": "F#2",
          "midi": 42,
          "time": 152.20571999999996,
          "velocity": 0.7480314960629921,
          "duration": 0.22058799999999223
        },
        {
          "name": "F#2",
          "midi": 42,
          "time": 152.42630799999995,
          "velocity": 0.7480314960629921,
          "duration": 0.22058799999999223
        },
        {
          "name": "F#2",
          "midi": 42,
          "time": 152.64689599999994,
          "velocity": 0.7480314960629921,
          "duration": 0.22058799999999223
        },
        {
          "name": "A2",
          "midi": 45,
          "time": 152.86748399999993,
          "velocity": 0.7480314960629921,
          "duration": 0.22058799999999223
        },
        {
          "name": "A2",
          "midi": 45,
          "time": 153.08807199999993,
          "velocity": 0.7480314960629921,
          "duration": 0.22058799999999223
        },
        {
          "name": "F#2",
          "midi": 42,
          "time": 153.30865999999992,
          "velocity": 0.7480314960629921,
          "duration": 0.22058799999999223
        },
        {
          "name": "G2",
          "midi": 43,
          "time": 153.5292479999999,
          "velocity": 0.7480314960629921,
          "duration": 0.22058799999999223
        },
        {
          "name": "G2",
          "midi": 43,
          "time": 153.7498359999999,
          "velocity": 0.7480314960629921,
          "duration": 0.22058799999999223
        },
        {
          "name": "G2",
          "midi": 43,
          "time": 153.9704239999999,
          "velocity": 0.7480314960629921,
          "duration": 0.22058799999999223
        },
        {
          "name": "G2",
          "midi": 43,
          "time": 154.1910119999999,
          "velocity": 0.7480314960629921,
          "duration": 0.22058799999999223
        },
        {
          "name": "G2",
          "midi": 43,
          "time": 154.41159999999988,
          "velocity": 0.7480314960629921,
          "duration": 0.22058799999999223
        },
        {
          "name": "G2",
          "midi": 43,
          "time": 154.63218799999987,
          "velocity": 0.7480314960629921,
          "duration": 0.22058799999999223
        },
        {
          "name": "G2",
          "midi": 43,
          "time": 154.85277599999986,
          "velocity": 0.7480314960629921,
          "duration": 0.22058799999999223
        },
        {
          "name": "G2",
          "midi": 43,
          "time": 155.07336399999986,
          "velocity": 0.7480314960629921,
          "duration": 0.22058799999999223
        },
        {
          "name": "G2",
          "midi": 43,
          "time": 155.29395199999985,
          "velocity": 0.7480314960629921,
          "duration": 0.22058799999999223
        },
        {
          "name": "G2",
          "midi": 43,
          "time": 155.51453999999984,
          "velocity": 0.7480314960629921,
          "duration": 0.22058799999999223
        },
        {
          "name": "G2",
          "midi": 43,
          "time": 155.73512799999983,
          "velocity": 0.7480314960629921,
          "duration": 0.22058799999999223
        },
        {
          "name": "G2",
          "midi": 43,
          "time": 155.95571599999982,
          "velocity": 0.7480314960629921,
          "duration": 0.22058799999999223
        },
        {
          "name": "G2",
          "midi": 43,
          "time": 156.17630399999982,
          "velocity": 0.7480314960629921,
          "duration": 0.22058799999999223
        },
        {
          "name": "A2",
          "midi": 45,
          "time": 156.3968919999998,
          "velocity": 0.7480314960629921,
          "duration": 0.22058799999999223
        },
        {
          "name": "A2",
          "midi": 45,
          "time": 156.6174799999998,
          "velocity": 0.7480314960629921,
          "duration": 0.22058799999999223
        },
        {
          "name": "A2",
          "midi": 45,
          "time": 156.8380679999998,
          "velocity": 0.7480314960629921,
          "duration": 0.22058799999999223
        },
        {
          "name": "D3",
          "midi": 50,
          "time": 157.0586559999998,
          "velocity": 0.7480314960629921,
          "duration": 0.22058799999999223
        },
        {
          "name": "D2",
          "midi": 38,
          "time": 157.27924399999978,
          "velocity": 0.7480314960629921,
          "duration": 0.22058799999999223
        },
        {
          "name": "D3",
          "midi": 50,
          "time": 157.49983199999977,
          "velocity": 0.7480314960629921,
          "duration": 0.22058799999999223
        },
        {
          "name": "D2",
          "midi": 38,
          "time": 157.72041999999976,
          "velocity": 0.7480314960629921,
          "duration": 0.22058799999999223
        },
        {
          "name": "D3",
          "midi": 50,
          "time": 157.94100799999975,
          "velocity": 0.7480314960629921,
          "duration": 0.22058799999999223
        },
        {
          "name": "D2",
          "midi": 38,
          "time": 158.16159599999975,
          "velocity": 0.7480314960629921,
          "duration": 0.22058799999999223
        },
        {
          "name": "D3",
          "midi": 50,
          "time": 158.38218399999974,
          "velocity": 0.7480314960629921,
          "duration": 0.22058799999999223
        },
        {
          "name": "D2",
          "midi": 38,
          "time": 158.60277199999973,
          "velocity": 0.7480314960629921,
          "duration": 0.22058799999999223
        },
        {
          "name": "D3",
          "midi": 50,
          "time": 158.82335999999972,
          "velocity": 0.7480314960629921,
          "duration": 0.22058799999999223
        },
        {
          "name": "D2",
          "midi": 38,
          "time": 159.04394799999972,
          "velocity": 0.7480314960629921,
          "duration": 0.22058799999999223
        },
        {
          "name": "D3",
          "midi": 50,
          "time": 159.2645359999997,
          "velocity": 0.7480314960629921,
          "duration": 0.22058799999999223
        },
        {
          "name": "D2",
          "midi": 38,
          "time": 159.4851239999997,
          "velocity": 0.7480314960629921,
          "duration": 0.22058799999999223
        },
        {
          "name": "D3",
          "midi": 50,
          "time": 159.7057119999997,
          "velocity": 0.7480314960629921,
          "duration": 0.22058799999999223
        },
        {
          "name": "D2",
          "midi": 38,
          "time": 159.92629999999969,
          "velocity": 0.7480314960629921,
          "duration": 0.22058799999999223
        },
        {
          "name": "D3",
          "midi": 50,
          "time": 160.14688799999968,
          "velocity": 0.7480314960629921,
          "duration": 0.22058799999999223
        },
        {
          "name": "D2",
          "midi": 38,
          "time": 160.36747599999967,
          "velocity": 0.7480314960629921,
          "duration": 0.22058799999999223
        },
        {
          "name": "F#1",
          "midi": 30,
          "time": 160.58806399999966,
          "velocity": 0.7480314960629921,
          "duration": 0.22058799999999223
        },
        {
          "name": "F#1",
          "midi": 30,
          "time": 160.80865199999965,
          "velocity": 0.7480314960629921,
          "duration": 0.22058799999999223
        },
        {
          "name": "F#2",
          "midi": 42,
          "time": 161.02923999999965,
          "velocity": 0.7480314960629921,
          "duration": 0.22058799999999223
        },
        {
          "name": "F#1",
          "midi": 30,
          "time": 161.24982799999964,
          "velocity": 0.7480314960629921,
          "duration": 0.22058799999999223
        },
        {
          "name": "F#1",
          "midi": 30,
          "time": 161.47041599999963,
          "velocity": 0.7480314960629921,
          "duration": 0.22058799999999223
        },
        {
          "name": "F#1",
          "midi": 30,
          "time": 161.69100399999962,
          "velocity": 0.7480314960629921,
          "duration": 0.22058799999999223
        },
        {
          "name": "F#2",
          "midi": 42,
          "time": 161.91159199999962,
          "velocity": 0.7480314960629921,
          "duration": 0.22058799999999223
        },
        {
          "name": "F#1",
          "midi": 30,
          "time": 162.1321799999996,
          "velocity": 0.7480314960629921,
          "duration": 0.22058799999999223
        },
        {
          "name": "F#2",
          "midi": 42,
          "time": 162.3527679999996,
          "velocity": 0.7480314960629921,
          "duration": 0.22058799999999223
        },
        {
          "name": "F#1",
          "midi": 30,
          "time": 162.5733559999996,
          "velocity": 0.7480314960629921,
          "duration": 0.22058799999999223
        },
        {
          "name": "F#2",
          "midi": 42,
          "time": 162.79394399999958,
          "velocity": 0.7480314960629921,
          "duration": 0.22058799999999223
        },
        {
          "name": "F#1",
          "midi": 30,
          "time": 163.01453199999958,
          "velocity": 0.7480314960629921,
          "duration": 0.22058799999999223
        },
        {
          "name": "F#2",
          "midi": 42,
          "time": 163.23511999999957,
          "velocity": 0.7480314960629921,
          "duration": 0.22058799999999223
        },
        {
          "name": "F#1",
          "midi": 30,
          "time": 163.45570799999956,
          "velocity": 0.7480314960629921,
          "duration": 0.22058799999999223
        },
        {
          "name": "F#2",
          "midi": 42,
          "time": 163.67629599999955,
          "velocity": 0.7480314960629921,
          "duration": 0.22058799999999223
        },
        {
          "name": "F#1",
          "midi": 30,
          "time": 163.89688399999955,
          "velocity": 0.7480314960629921,
          "duration": 0.22058799999999223
        },
        {
          "name": "G1",
          "midi": 31,
          "time": 164.11747199999954,
          "velocity": 0.7480314960629921,
          "duration": 0.22058799999999223
        },
        {
          "name": "G1",
          "midi": 31,
          "time": 164.33805999999953,
          "velocity": 0.7480314960629921,
          "duration": 0.22058799999999223
        },
        {
          "name": "G2",
          "midi": 43,
          "time": 164.55864799999952,
          "velocity": 0.7480314960629921,
          "duration": 0.22058799999999223
        },
        {
          "name": "G1",
          "midi": 31,
          "time": 164.7792359999995,
          "velocity": 0.7480314960629921,
          "duration": 0.22058799999999223
        },
        {
          "name": "G1",
          "midi": 31,
          "time": 164.9998239999995,
          "velocity": 0.7480314960629921,
          "duration": 0.22058799999999223
        },
        {
          "name": "G1",
          "midi": 31,
          "time": 165.2204119999995,
          "velocity": 0.7480314960629921,
          "duration": 0.22058799999999223
        },
        {
          "name": "G2",
          "midi": 43,
          "time": 165.4409999999995,
          "velocity": 0.7480314960629921,
          "duration": 0.22058799999999223
        },
        {
          "name": "G1",
          "midi": 31,
          "time": 165.66158799999948,
          "velocity": 0.7480314960629921,
          "duration": 0.22058799999999223
        },
        {
          "name": "G2",
          "midi": 43,
          "time": 165.88217599999948,
          "velocity": 0.7480314960629921,
          "duration": 0.22058799999999223
        },
        {
          "name": "G1",
          "midi": 31,
          "time": 166.10276399999947,
          "velocity": 0.7480314960629921,
          "duration": 0.22058799999999223
        },
        {
          "name": "G2",
          "midi": 43,
          "time": 166.32335199999946,
          "velocity": 0.7480314960629921,
          "duration": 0.22058799999999223
        },
        {
          "name": "G1",
          "midi": 31,
          "time": 166.54393999999945,
          "velocity": 0.7480314960629921,
          "duration": 0.22058799999999223
        },
        {
          "name": "G2",
          "midi": 43,
          "time": 166.76452799999944,
          "velocity": 0.7480314960629921,
          "duration": 0.22058799999999223
        },
        {
          "name": "G1",
          "midi": 31,
          "time": 166.98511599999944,
          "velocity": 0.7480314960629921,
          "duration": 0.22058799999999223
        },
        {
          "name": "G2",
          "midi": 43,
          "time": 167.20570399999943,
          "velocity": 0.7480314960629921,
          "duration": 0.22058799999999223
        },
        {
          "name": "G1",
          "midi": 31,
          "time": 167.42629199999942,
          "velocity": 0.7480314960629921,
          "duration": 0.22058799999999223
        },
        {
          "name": "D1",
          "midi": 26,
          "time": 167.6468799999994,
          "velocity": 0.7480314960629921,
          "duration": 0.22058799999999223
        },
        {
          "name": "D1",
          "midi": 26,
          "time": 167.8674679999994,
          "velocity": 0.7480314960629921,
          "duration": 0.22058799999999223
        },
        {
          "name": "D2",
          "midi": 38,
          "time": 168.0880559999994,
          "velocity": 0.7480314960629921,
          "duration": 0.22058799999999223
        },
        {
          "name": "D1",
          "midi": 26,
          "time": 168.3086439999994,
          "velocity": 0.7480314960629921,
          "duration": 0.22058799999999223
        },
        {
          "name": "D1",
          "midi": 26,
          "time": 168.52923199999938,
          "velocity": 0.7480314960629921,
          "duration": 0.22058799999999223
        },
        {
          "name": "D1",
          "midi": 26,
          "time": 168.74981999999937,
          "velocity": 0.7480314960629921,
          "duration": 0.22058799999999223
        },
        {
          "name": "D2",
          "midi": 38,
          "time": 168.97040799999937,
          "velocity": 0.7480314960629921,
          "duration": 0.22058799999999223
        },
        {
          "name": "D1",
          "midi": 26,
          "time": 169.19099599999936,
          "velocity": 0.7480314960629921,
          "duration": 0.22058799999999223
        },
        {
          "name": "D1",
          "midi": 26,
          "time": 169.41158399999935,
          "velocity": 0.7480314960629921,
          "duration": 0.22058799999999223
        },
        {
          "name": "D1",
          "midi": 26,
          "time": 169.63217199999934,
          "velocity": 0.7480314960629921,
          "duration": 0.22058799999999223
        },
        {
          "name": "D2",
          "midi": 38,
          "time": 169.85275999999934,
          "velocity": 0.7480314960629921,
          "duration": 0.22058799999999223
        },
        {
          "name": "D1",
          "midi": 26,
          "time": 170.07334799999933,
          "velocity": 0.7480314960629921,
          "duration": 0.22058799999999223
        },
        {
          "name": "D1",
          "midi": 26,
          "time": 170.29393599999932,
          "velocity": 0.7480314960629921,
          "duration": 0.22058799999999223
        },
        {
          "name": "D1",
          "midi": 26,
          "time": 170.5145239999993,
          "velocity": 0.7480314960629921,
          "duration": 0.22058799999999223
        },
        {
          "name": "D2",
          "midi": 38,
          "time": 170.7351119999993,
          "velocity": 0.7480314960629921,
          "duration": 0.22058799999999223
        },
        {
          "name": "D1",
          "midi": 26,
          "time": 170.9556999999993,
          "velocity": 0.7480314960629921,
          "duration": 0.22058799999999223
        },
        {
          "name": "F#1",
          "midi": 30,
          "time": 171.1762879999993,
          "velocity": 0.7480314960629921,
          "duration": 0.22058799999999223
        },
        {
          "name": "F#1",
          "midi": 30,
          "time": 171.39687599999928,
          "velocity": 0.7480314960629921,
          "duration": 0.22058799999999223
        },
        {
          "name": "F#2",
          "midi": 42,
          "time": 171.61746399999927,
          "velocity": 0.7480314960629921,
          "duration": 0.22058799999999223
        },
        {
          "name": "F#1",
          "midi": 30,
          "time": 171.83805199999927,
          "velocity": 0.7480314960629921,
          "duration": 0.22058799999999223
        },
        {
          "name": "F#1",
          "midi": 30,
          "time": 172.05863999999926,
          "velocity": 0.7480314960629921,
          "duration": 0.22058799999999223
        },
        {
          "name": "F#1",
          "midi": 30,
          "time": 172.27922799999925,
          "velocity": 0.7480314960629921,
          "duration": 0.22058799999999223
        },
        {
          "name": "F#2",
          "midi": 42,
          "time": 172.49981599999924,
          "velocity": 0.7480314960629921,
          "duration": 0.22058799999999223
        },
        {
          "name": "F#1",
          "midi": 30,
          "time": 172.72040399999923,
          "velocity": 0.7480314960629921,
          "duration": 0.22058799999999223
        },
        {
          "name": "F#1",
          "midi": 30,
          "time": 172.94099199999923,
          "velocity": 0.7480314960629921,
          "duration": 0.22058799999999223
        },
        {
          "name": "F#1",
          "midi": 30,
          "time": 173.16157999999922,
          "velocity": 0.7480314960629921,
          "duration": 0.22058799999999223
        },
        {
          "name": "F#2",
          "midi": 42,
          "time": 173.3821679999992,
          "velocity": 0.7480314960629921,
          "duration": 0.22058799999999223
        },
        {
          "name": "F#1",
          "midi": 30,
          "time": 173.6027559999992,
          "velocity": 0.7480314960629921,
          "duration": 0.22058799999999223
        },
        {
          "name": "F#1",
          "midi": 30,
          "time": 173.8233439999992,
          "velocity": 0.7480314960629921,
          "duration": 0.22058799999999223
        },
        {
          "name": "F#1",
          "midi": 30,
          "time": 174.0439319999992,
          "velocity": 0.7480314960629921,
          "duration": 0.22058799999999223
        },
        {
          "name": "F#2",
          "midi": 42,
          "time": 174.26451999999918,
          "velocity": 0.7480314960629921,
          "duration": 0.22058799999999223
        },
        {
          "name": "F#1",
          "midi": 30,
          "time": 174.48510799999917,
          "velocity": 0.7480314960629921,
          "duration": 0.22058799999999223
        },
        {
          "name": "G1",
          "midi": 31,
          "time": 174.70569599999916,
          "velocity": 0.7480314960629921,
          "duration": 0.22058799999999223
        },
        {
          "name": "G1",
          "midi": 31,
          "time": 174.92628399999916,
          "velocity": 0.7480314960629921,
          "duration": 0.22058799999999223
        },
        {
          "name": "G2",
          "midi": 43,
          "time": 175.14687199999915,
          "velocity": 0.7480314960629921,
          "duration": 0.22058799999999223
        },
        {
          "name": "G1",
          "midi": 31,
          "time": 175.36745999999914,
          "velocity": 0.7480314960629921,
          "duration": 0.22058799999999223
        },
        {
          "name": "G1",
          "midi": 31,
          "time": 175.58804799999913,
          "velocity": 0.7480314960629921,
          "duration": 0.22058799999999223
        },
        {
          "name": "G1",
          "midi": 31,
          "time": 175.80863599999913,
          "velocity": 0.7480314960629921,
          "duration": 0.22058799999999223
        },
        {
          "name": "G2",
          "midi": 43,
          "time": 176.02922399999912,
          "velocity": 0.7480314960629921,
          "duration": 0.22058799999999223
        },
        {
          "name": "G1",
          "midi": 31,
          "time": 176.2498119999991,
          "velocity": 0.7480314960629921,
          "duration": 0.22058799999999223
        },
        {
          "name": "G1",
          "midi": 31,
          "time": 176.4703999999991,
          "velocity": 0.7480314960629921,
          "duration": 0.22058799999999223
        },
        {
          "name": "G1",
          "midi": 31,
          "time": 176.6909879999991,
          "velocity": 0.7480314960629921,
          "duration": 0.22058799999999223
        },
        {
          "name": "G2",
          "midi": 43,
          "time": 176.9115759999991,
          "velocity": 0.7480314960629921,
          "duration": 0.22058799999999223
        },
        {
          "name": "G1",
          "midi": 31,
          "time": 177.13216399999908,
          "velocity": 0.7480314960629921,
          "duration": 0.22058799999999223
        },
        {
          "name": "G1",
          "midi": 31,
          "time": 177.35275199999907,
          "velocity": 0.7480314960629921,
          "duration": 0.22058799999999223
        },
        {
          "name": "G1",
          "midi": 31,
          "time": 177.57333999999906,
          "velocity": 0.7480314960629921,
          "duration": 0.22058799999999223
        },
        {
          "name": "G2",
          "midi": 43,
          "time": 177.79392799999906,
          "velocity": 0.7480314960629921,
          "duration": 0.22058799999999223
        },
        {
          "name": "G1",
          "midi": 31,
          "time": 178.01451599999905,
          "velocity": 0.7480314960629921,
          "duration": 0.22058799999999223
        },
        {
          "name": "D2",
          "midi": 38,
          "time": 178.23510399999904,
          "velocity": 0.7480314960629921,
          "duration": 0.22058799999999223
        },
        {
          "name": "D1",
          "midi": 26,
          "time": 178.45569199999903,
          "velocity": 0.7480314960629921,
          "duration": 0.22058799999999223
        },
        {
          "name": "D2",
          "midi": 38,
          "time": 178.67627999999902,
          "velocity": 0.7480314960629921,
          "duration": 0.22058799999999223
        },
        {
          "name": "D1",
          "midi": 26,
          "time": 178.89686799999902,
          "velocity": 0.7480314960629921,
          "duration": 0.22058799999999223
        },
        {
          "name": "D2",
          "midi": 38,
          "time": 179.117455999999,
          "velocity": 0.7480314960629921,
          "duration": 0.22058799999999223
        },
        {
          "name": "D1",
          "midi": 26,
          "time": 179.338043999999,
          "velocity": 0.7480314960629921,
          "duration": 0.22058799999999223
        },
        {
          "name": "D2",
          "midi": 38,
          "time": 179.558631999999,
          "velocity": 0.7480314960629921,
          "duration": 0.22058799999999223
        },
        {
          "name": "D1",
          "midi": 26,
          "time": 179.779219999999,
          "velocity": 0.7480314960629921,
          "duration": 0.22058799999999223
        },
        {
          "name": "D2",
          "midi": 38,
          "time": 179.99980799999898,
          "velocity": 0.7480314960629921,
          "duration": 0.22058799999999223
        },
        {
          "name": "D1",
          "midi": 26,
          "time": 180.22039599999897,
          "velocity": 0.7480314960629921,
          "duration": 0.22058799999999223
        },
        {
          "name": "D2",
          "midi": 38,
          "time": 180.44098399999896,
          "velocity": 0.7480314960629921,
          "duration": 0.22058799999999223
        },
        {
          "name": "D1",
          "midi": 26,
          "time": 180.66157199999896,
          "velocity": 0.7480314960629921,
          "duration": 0.22058799999999223
        },
        {
          "name": "D2",
          "midi": 38,
          "time": 180.88215999999895,
          "velocity": 0.7480314960629921,
          "duration": 0.22058799999999223
        },
        {
          "name": "D1",
          "midi": 26,
          "time": 181.10274799999894,
          "velocity": 0.7480314960629921,
          "duration": 0.22058799999999223
        },
        {
          "name": "D2",
          "midi": 38,
          "time": 181.32333599999893,
          "velocity": 0.7480314960629921,
          "duration": 0.22058799999999223
        },
        {
          "name": "D1",
          "midi": 26,
          "time": 181.54392399999892,
          "velocity": 0.7480314960629921,
          "duration": 0.22058799999999223
        },
        {
          "name": "F#2",
          "midi": 42,
          "time": 181.76451199999892,
          "velocity": 0.7480314960629921,
          "duration": 0.4411760000000129
        },
        {
          "name": "F#3",
          "midi": 54,
          "time": 182.20568799999893,
          "velocity": 0.7480314960629921,
          "duration": 0.33088200000000256
        },
        {
          "name": "F#3",
          "midi": 54,
          "time": 182.53656999999893,
          "velocity": 0.7480314960629921,
          "duration": 0.11029400000001033
        },
        {
          "name": "F#2",
          "midi": 42,
          "time": 182.64686399999894,
          "velocity": 0.7480314960629921,
          "duration": 0.11029400000001033
        },
        {
          "name": "F#2",
          "midi": 42,
          "time": 182.86745199999896,
          "velocity": 0.7480314960629921,
          "duration": 0.22058799999999223
        },
        {
          "name": "C#3",
          "midi": 49,
          "time": 183.08803999999895,
          "velocity": 0.7480314960629921,
          "duration": 0.22058799999999223
        },
        {
          "name": "F#3",
          "midi": 54,
          "time": 183.30862799999895,
          "velocity": 0.7480314960629921,
          "duration": 0.22058799999999223
        },
        {
          "name": "F#2",
          "midi": 42,
          "time": 183.52921599999894,
          "velocity": 0.7480314960629921,
          "duration": 0.4411760000000129
        },
        {
          "name": "F#3",
          "midi": 54,
          "time": 183.97039199999895,
          "velocity": 0.7480314960629921,
          "duration": 0.33088200000000256
        },
        {
          "name": "F#3",
          "midi": 54,
          "time": 184.30127399999895,
          "velocity": 0.7480314960629921,
          "duration": 0.11029400000001033
        },
        {
          "name": "F#2",
          "midi": 42,
          "time": 184.41156799999897,
          "velocity": 0.7480314960629921,
          "duration": 0.11029400000001033
        },
        {
          "name": "F#2",
          "midi": 42,
          "time": 184.632155999999,
          "velocity": 0.7480314960629921,
          "duration": 0.22058799999999223
        },
        {
          "name": "C#3",
          "midi": 49,
          "time": 184.85274399999898,
          "velocity": 0.7480314960629921,
          "duration": 0.22058799999999223
        },
        {
          "name": "F#3",
          "midi": 54,
          "time": 185.07333199999897,
          "velocity": 0.7480314960629921,
          "duration": 0.22058799999999223
        },
        {
          "name": "G2",
          "midi": 43,
          "time": 185.29391999999896,
          "velocity": 0.7480314960629921,
          "duration": 0.4411760000000129
        },
        {
          "name": "G3",
          "midi": 55,
          "time": 185.73509599999898,
          "velocity": 0.7480314960629921,
          "duration": 0.33088200000000256
        },
        {
          "name": "G3",
          "midi": 55,
          "time": 186.06597799999898,
          "velocity": 0.7480314960629921,
          "duration": 0.11029400000001033
        },
        {
          "name": "G2",
          "midi": 43,
          "time": 186.176271999999,
          "velocity": 0.7480314960629921,
          "duration": 0.11029400000001033
        },
        {
          "name": "G2",
          "midi": 43,
          "time": 186.396859999999,
          "velocity": 0.7480314960629921,
          "duration": 0.22058799999999223
        },
        {
          "name": "D3",
          "midi": 50,
          "time": 186.617447999999,
          "velocity": 0.7480314960629921,
          "duration": 0.22058799999999223
        },
        {
          "name": "G3",
          "midi": 55,
          "time": 186.838035999999,
          "velocity": 0.7480314960629921,
          "duration": 0.22058799999999223
        },
        {
          "name": "G2",
          "midi": 43,
          "time": 187.05862399999899,
          "velocity": 0.7480314960629921,
          "duration": 0.4411760000000129
        },
        {
          "name": "G3",
          "midi": 55,
          "time": 187.499799999999,
          "velocity": 0.7480314960629921,
          "duration": 0.33088200000000256
        },
        {
          "name": "G3",
          "midi": 55,
          "time": 187.830681999999,
          "velocity": 0.7480314960629921,
          "duration": 0.11029400000001033
        },
        {
          "name": "G2",
          "midi": 43,
          "time": 187.940975999999,
          "velocity": 0.7480314960629921,
          "duration": 0.11029400000001033
        },
        {
          "name": "G2",
          "midi": 43,
          "time": 188.16156399999903,
          "velocity": 0.7480314960629921,
          "duration": 0.22058799999999223
        },
        {
          "name": "D3",
          "midi": 50,
          "time": 188.38215199999902,
          "velocity": 0.7480314960629921,
          "duration": 0.22058799999999223
        },
        {
          "name": "G3",
          "midi": 55,
          "time": 188.60273999999902,
          "velocity": 0.7480314960629921,
          "duration": 0.22058799999999223
        },
        {
          "name": "D2",
          "midi": 38,
          "time": 188.823327999999,
          "velocity": 0.7480314960629921,
          "duration": 0.4411760000000129
        },
        {
          "name": "D3",
          "midi": 50,
          "time": 189.26450399999902,
          "velocity": 0.7480314960629921,
          "duration": 0.33088200000000256
        },
        {
          "name": "D3",
          "midi": 50,
          "time": 189.59538599999902,
          "velocity": 0.7480314960629921,
          "duration": 0.11029400000001033
        },
        {
          "name": "D2",
          "midi": 38,
          "time": 189.70567999999903,
          "velocity": 0.7480314960629921,
          "duration": 0.11029400000001033
        },
        {
          "name": "D2",
          "midi": 38,
          "time": 189.92626799999906,
          "velocity": 0.7480314960629921,
          "duration": 0.22058799999999223
        },
        {
          "name": "A2",
          "midi": 45,
          "time": 190.14685599999905,
          "velocity": 0.7480314960629921,
          "duration": 0.22058799999999223
        },
        {
          "name": "D3",
          "midi": 50,
          "time": 190.36744399999904,
          "velocity": 0.7480314960629921,
          "duration": 0.22058799999999223
        },
        {
          "name": "D2",
          "midi": 38,
          "time": 190.58803199999903,
          "velocity": 0.7480314960629921,
          "duration": 0.4411760000000129
        },
        {
          "name": "D3",
          "midi": 50,
          "time": 191.02920799999904,
          "velocity": 0.7480314960629921,
          "duration": 0.33088200000000256
        },
        {
          "name": "D3",
          "midi": 50,
          "time": 191.36008999999905,
          "velocity": 0.7480314960629921,
          "duration": 0.11029400000001033
        },
        {
          "name": "D2",
          "midi": 38,
          "time": 191.47038399999906,
          "velocity": 0.7480314960629921,
          "duration": 0.11029400000001033
        },
        {
          "name": "D2",
          "midi": 38,
          "time": 191.69097199999908,
          "velocity": 0.7480314960629921,
          "duration": 0.22058799999999223
        },
        {
          "name": "A2",
          "midi": 45,
          "time": 191.91155999999907,
          "velocity": 0.7480314960629921,
          "duration": 0.22058799999999223
        },
        {
          "name": "D3",
          "midi": 50,
          "time": 192.13214799999906,
          "velocity": 0.7480314960629921,
          "duration": 0.22058799999999223
        },
        {
          "name": "F#2",
          "midi": 42,
          "time": 192.35273599999906,
          "velocity": 0.7480314960629921,
          "duration": 0.4411760000000129
        },
        {
          "name": "F#3",
          "midi": 54,
          "time": 192.79391199999907,
          "velocity": 0.7480314960629921,
          "duration": 0.33088200000000256
        },
        {
          "name": "F#3",
          "midi": 54,
          "time": 193.12479399999907,
          "velocity": 0.7480314960629921,
          "duration": 0.11029400000001033
        },
        {
          "name": "F#2",
          "midi": 42,
          "time": 193.23508799999908,
          "velocity": 0.7480314960629921,
          "duration": 0.11029400000001033
        },
        {
          "name": "F#2",
          "midi": 42,
          "time": 193.4556759999991,
          "velocity": 0.7480314960629921,
          "duration": 0.22058799999999223
        },
        {
          "name": "C#3",
          "midi": 49,
          "time": 193.6762639999991,
          "velocity": 0.7480314960629921,
          "duration": 0.22058799999999223
        },
        {
          "name": "F#3",
          "midi": 54,
          "time": 193.8968519999991,
          "velocity": 0.7480314960629921,
          "duration": 0.22058799999999223
        },
        {
          "name": "F#2",
          "midi": 42,
          "time": 194.11743999999908,
          "velocity": 0.7480314960629921,
          "duration": 0.4411760000000129
        },
        {
          "name": "F#3",
          "midi": 54,
          "time": 194.5586159999991,
          "velocity": 0.7480314960629921,
          "duration": 0.33088200000000256
        },
        {
          "name": "F#3",
          "midi": 54,
          "time": 194.8894979999991,
          "velocity": 0.7480314960629921,
          "duration": 0.11029400000001033
        },
        {
          "name": "F#2",
          "midi": 42,
          "time": 194.9997919999991,
          "velocity": 0.7480314960629921,
          "duration": 0.11029400000001033
        },
        {
          "name": "F#2",
          "midi": 42,
          "time": 195.22037999999912,
          "velocity": 0.7480314960629921,
          "duration": 0.22058799999999223
        },
        {
          "name": "C#3",
          "midi": 49,
          "time": 195.44096799999912,
          "velocity": 0.7480314960629921,
          "duration": 0.22058799999999223
        },
        {
          "name": "F#3",
          "midi": 54,
          "time": 195.6615559999991,
          "velocity": 0.7480314960629921,
          "duration": 0.22058799999999223
        },
        {
          "name": "G2",
          "midi": 43,
          "time": 195.8821439999991,
          "velocity": 0.7480314960629921,
          "duration": 3.5294079999999894
        }
      ],
      "controlChanges": {
        "6": [
          {
            "number": 6,
            "time": 0,
            "value": 0.09448818897637795
          },
          {
            "number": 6,
            "time": 0,
            "value": 0.5039370078740157
          },
          {
            "number": 6,
            "time": 0,
            "value": 0.09448818897637795
          },
          {
            "number": 6,
            "time": 0,
            "value": 0.5039370078740157
          },
          {
            "number": 6,
            "time": 0,
            "value": 0.5039370078740157
          },
          {
            "number": 6,
            "time": 0,
            "value": 0.5039370078740157
          }
        ],
        "7": [
          {
            "number": 7,
            "time": 0,
            "value": 0.8188976377952756
          },
          {
            "number": 7,
            "time": 0,
            "value": 0.8188976377952756
          }
        ],
        "10": [
          {
            "number": 10,
            "time": 0,
            "value": 0.4409448818897638
          },
          {
            "number": 10,
            "time": 0,
            "value": 0.4409448818897638
          }
        ],
        "38": [
          {
            "number": 38,
            "time": 0,
            "value": 0
          },
          {
            "number": 38,
            "time": 0,
            "value": 0
          }
        ],
        "91": [
          {
            "number": 91,
            "time": 0,
            "value": 0
          },
          {
            "number": 91,
            "time": 0,
            "value": 0
          }
        ],
        "92": [
          {
            "number": 92,
            "time": 0,
            "value": 0
          },
          {
            "number": 92,
            "time": 0,
            "value": 0
          }
        ],
        "93": [
          {
            "number": 93,
            "time": 0,
            "value": 0
          },
          {
            "number": 93,
            "time": 0,
            "value": 0
          }
        ],
        "95": [
          {
            "number": 95,
            "time": 0,
            "value": 0
          },
          {
            "number": 95,
            "time": 0,
            "value": 0
          }
        ],
        "100": [
          {
            "number": 100,
            "time": 0,
            "value": 0
          },
          {
            "number": 100,
            "time": 0,
            "value": 0.007874015748031496
          },
          {
            "number": 100,
            "time": 0,
            "value": 1
          },
          {
            "number": 100,
            "time": 0,
            "value": 0
          },
          {
            "number": 100,
            "time": 0,
            "value": 0.007874015748031496
          },
          {
            "number": 100,
            "time": 0,
            "value": 1
          },
          {
            "number": 100,
            "time": 0,
            "value": 0.015748031496062992
          },
          {
            "number": 100,
            "time": 0,
            "value": 1
          },
          {
            "number": 100,
            "time": 0,
            "value": 0.015748031496062992
          },
          {
            "number": 100,
            "time": 0,
            "value": 1
          }
        ],
        "101": [
          {
            "number": 101,
            "time": 0,
            "value": 0
          },
          {
            "number": 101,
            "time": 0,
            "value": 0
          },
          {
            "number": 101,
            "time": 0,
            "value": 1
          },
          {
            "number": 101,
            "time": 0,
            "value": 0
          },
          {
            "number": 101,
            "time": 0,
            "value": 0
          },
          {
            "number": 101,
            "time": 0,
            "value": 1
          },
          {
            "number": 101,
            "time": 0,
            "value": 0
          },
          {
            "number": 101,
            "time": 0,
            "value": 1
          },
          {
            "number": 101,
            "time": 0,
            "value": 0
          },
          {
            "number": 101,
            "time": 0,
            "value": 1
          }
        ]
      }
    },
    {
      "startTime": 8.82352,
      "duration": 199.4115519999991,
      "length": 759,
      "id": 4,
      "name": "(bass)",
      "instrumentNumber": 34,
      "instrument": "electric bass (pick)",
      "instrumentFamily": "bass",
      "channelNumber": 6,
      "isPercussion": false,
      "notes": [
        {
          "name": "D2",
          "midi": 38,
          "time": 8.82352,
          "velocity": 0.7480314960629921,
          "duration": 0.44117600000000046
        },
        {
          "name": "D3",
          "midi": 50,
          "time": 9.264696,
          "velocity": 0.7480314960629921,
          "duration": 0.3308820000000008
        },
        {
          "name": "D3",
          "midi": 50,
          "time": 9.595578000000001,
          "velocity": 0.7480314960629921,
          "duration": 0.11029399999999967
        },
        {
          "name": "D2",
          "midi": 38,
          "time": 9.705872000000001,
          "velocity": 0.7480314960629921,
          "duration": 0.11029399999999967
        },
        {
          "name": "D2",
          "midi": 38,
          "time": 9.92646,
          "velocity": 0.7480314960629921,
          "duration": 0.22058799999999934
        },
        {
          "name": "A2",
          "midi": 45,
          "time": 10.147048,
          "velocity": 0.7480314960629921,
          "duration": 0.22058799999999934
        },
        {
          "name": "D3",
          "midi": 50,
          "time": 10.367636,
          "velocity": 0.7480314960629921,
          "duration": 0.22058799999999934
        },
        {
          "name": "D2",
          "midi": 38,
          "time": 10.588223999999999,
          "velocity": 0.7480314960629921,
          "duration": 0.44117600000000046
        },
        {
          "name": "D3",
          "midi": 50,
          "time": 11.029399999999999,
          "velocity": 0.7480314960629921,
          "duration": 0.3308820000000008
        },
        {
          "name": "D3",
          "midi": 50,
          "time": 11.360282,
          "velocity": 0.7480314960629921,
          "duration": 0.11029399999999967
        },
        {
          "name": "D2",
          "midi": 38,
          "time": 11.470576,
          "velocity": 0.7480314960629921,
          "duration": 0.11029399999999967
        },
        {
          "name": "D2",
          "midi": 38,
          "time": 11.691163999999999,
          "velocity": 0.7480314960629921,
          "duration": 0.22058799999999934
        },
        {
          "name": "A2",
          "midi": 45,
          "time": 11.911751999999998,
          "velocity": 0.7480314960629921,
          "duration": 0.22058799999999934
        },
        {
          "name": "D3",
          "midi": 50,
          "time": 12.132339999999997,
          "velocity": 0.7480314960629921,
          "duration": 0.22058799999999934
        },
        {
          "name": "F#2",
          "midi": 42,
          "time": 12.352927999999997,
          "velocity": 0.7480314960629921,
          "duration": 0.44117600000000046
        },
        {
          "name": "F#3",
          "midi": 54,
          "time": 12.794103999999997,
          "velocity": 0.7480314960629921,
          "duration": 0.3308820000000008
        },
        {
          "name": "F#3",
          "midi": 54,
          "time": 13.124985999999998,
          "velocity": 0.7480314960629921,
          "duration": 0.11029399999999967
        },
        {
          "name": "F#2",
          "midi": 42,
          "time": 13.235279999999998,
          "velocity": 0.7480314960629921,
          "duration": 0.11029399999999967
        },
        {
          "name": "F#2",
          "midi": 42,
          "time": 13.455867999999997,
          "velocity": 0.7480314960629921,
          "duration": 0.22058799999999934
        },
        {
          "name": "C#3",
          "midi": 49,
          "time": 13.676455999999996,
          "velocity": 0.7480314960629921,
          "duration": 0.22058799999999934
        },
        {
          "name": "F#3",
          "midi": 54,
          "time": 13.897043999999996,
          "velocity": 0.7480314960629921,
          "duration": 0.22058799999999934
        },
        {
          "name": "F#2",
          "midi": 42,
          "time": 14.117631999999995,
          "velocity": 0.7480314960629921,
          "duration": 0.44117600000000046
        },
        {
          "name": "F#3",
          "midi": 54,
          "time": 14.558807999999996,
          "velocity": 0.7480314960629921,
          "duration": 0.3308820000000008
        },
        {
          "name": "F#3",
          "midi": 54,
          "time": 14.889689999999996,
          "velocity": 0.7480314960629921,
          "duration": 0.11029399999999967
        },
        {
          "name": "F#2",
          "midi": 42,
          "time": 14.999983999999996,
          "velocity": 0.7480314960629921,
          "duration": 0.11029399999999967
        },
        {
          "name": "F#2",
          "midi": 42,
          "time": 15.220571999999995,
          "velocity": 0.7480314960629921,
          "duration": 0.22058799999999934
        },
        {
          "name": "C#3",
          "midi": 49,
          "time": 15.441159999999995,
          "velocity": 0.7480314960629921,
          "duration": 0.22058799999999934
        },
        {
          "name": "F#3",
          "midi": 54,
          "time": 15.661747999999994,
          "velocity": 0.7480314960629921,
          "duration": 0.22058799999999934
        },
        {
          "name": "G2",
          "midi": 43,
          "time": 15.882335999999993,
          "velocity": 0.7480314960629921,
          "duration": 0.44117600000000046
        },
        {
          "name": "G3",
          "midi": 55,
          "time": 16.323511999999994,
          "velocity": 0.7480314960629921,
          "duration": 0.330881999999999
        },
        {
          "name": "G3",
          "midi": 55,
          "time": 16.654393999999993,
          "velocity": 0.7480314960629921,
          "duration": 0.11029399999999967
        },
        {
          "name": "G2",
          "midi": 43,
          "time": 16.764687999999992,
          "velocity": 0.7480314960629921,
          "duration": 0.11029399999999967
        },
        {
          "name": "G2",
          "midi": 43,
          "time": 16.985275999999992,
          "velocity": 0.7480314960629921,
          "duration": 0.22058799999999934
        },
        {
          "name": "D3",
          "midi": 50,
          "time": 17.20586399999999,
          "velocity": 0.7480314960629921,
          "duration": 0.22058799999999934
        },
        {
          "name": "G3",
          "midi": 55,
          "time": 17.42645199999999,
          "velocity": 0.7480314960629921,
          "duration": 0.22058799999999934
        },
        {
          "name": "G2",
          "midi": 43,
          "time": 17.64703999999999,
          "velocity": 0.7480314960629921,
          "duration": 0.4411759999999987
        },
        {
          "name": "G3",
          "midi": 55,
          "time": 18.08821599999999,
          "velocity": 0.7480314960629921,
          "duration": 0.330881999999999
        },
        {
          "name": "G3",
          "midi": 55,
          "time": 18.419097999999988,
          "velocity": 0.7480314960629921,
          "duration": 0.11029399999999967
        },
        {
          "name": "G2",
          "midi": 43,
          "time": 18.529391999999987,
          "velocity": 0.7480314960629921,
          "duration": 0.11029399999999967
        },
        {
          "name": "G2",
          "midi": 43,
          "time": 18.749979999999987,
          "velocity": 0.7480314960629921,
          "duration": 0.22058799999999934
        },
        {
          "name": "D3",
          "midi": 50,
          "time": 18.970567999999986,
          "velocity": 0.7480314960629921,
          "duration": 0.22058799999999934
        },
        {
          "name": "G3",
          "midi": 55,
          "time": 19.191155999999985,
          "velocity": 0.7480314960629921,
          "duration": 0.22058799999999934
        },
        {
          "name": "D2",
          "midi": 38,
          "time": 19.411743999999985,
          "velocity": 0.7480314960629921,
          "duration": 0.4411759999999987
        },
        {
          "name": "D3",
          "midi": 50,
          "time": 19.852919999999983,
          "velocity": 0.7480314960629921,
          "duration": 0.330881999999999
        },
        {
          "name": "D3",
          "midi": 50,
          "time": 20.183801999999982,
          "velocity": 0.7480314960629921,
          "duration": 0.11029399999999967
        },
        {
          "name": "D2",
          "midi": 38,
          "time": 20.294095999999982,
          "velocity": 0.7480314960629921,
          "duration": 0.11029399999999967
        },
        {
          "name": "D2",
          "midi": 38,
          "time": 20.51468399999998,
          "velocity": 0.7480314960629921,
          "duration": 0.22058799999999934
        },
        {
          "name": "A2",
          "midi": 45,
          "time": 20.73527199999998,
          "velocity": 0.7480314960629921,
          "duration": 0.22058799999999934
        },
        {
          "name": "D3",
          "midi": 50,
          "time": 20.95585999999998,
          "velocity": 0.7480314960629921,
          "duration": 0.22058799999999934
        },
        {
          "name": "D2",
          "midi": 38,
          "time": 21.17644799999998,
          "velocity": 0.7480314960629921,
          "duration": 0.4411759999999987
        },
        {
          "name": "D3",
          "midi": 50,
          "time": 21.617623999999978,
          "velocity": 0.7480314960629921,
          "duration": 0.330881999999999
        },
        {
          "name": "D3",
          "midi": 50,
          "time": 21.948505999999977,
          "velocity": 0.7480314960629921,
          "duration": 0.11029399999999967
        },
        {
          "name": "D2",
          "midi": 38,
          "time": 22.058799999999977,
          "velocity": 0.7480314960629921,
          "duration": 0.11029399999999967
        },
        {
          "name": "D2",
          "midi": 38,
          "time": 22.279387999999976,
          "velocity": 0.7480314960629921,
          "duration": 0.22058799999999934
        },
        {
          "name": "A2",
          "midi": 45,
          "time": 22.499975999999975,
          "velocity": 0.7480314960629921,
          "duration": 0.22058799999999934
        },
        {
          "name": "D3",
          "midi": 50,
          "time": 22.720563999999975,
          "velocity": 0.7480314960629921,
          "duration": 0.22058799999999934
        },
        {
          "name": "F#2",
          "midi": 42,
          "time": 22.941151999999974,
          "velocity": 0.7480314960629921,
          "duration": 0.4411759999999987
        },
        {
          "name": "F#3",
          "midi": 54,
          "time": 23.382327999999973,
          "velocity": 0.7480314960629921,
          "duration": 0.330881999999999
        },
        {
          "name": "F#3",
          "midi": 54,
          "time": 23.71320999999997,
          "velocity": 0.7480314960629921,
          "duration": 0.11029399999999967
        },
        {
          "name": "F#2",
          "midi": 42,
          "time": 23.82350399999997,
          "velocity": 0.7480314960629921,
          "duration": 0.11029399999999967
        },
        {
          "name": "F#2",
          "midi": 42,
          "time": 24.04409199999997,
          "velocity": 0.7480314960629921,
          "duration": 0.22058799999999934
        },
        {
          "name": "C#3",
          "midi": 49,
          "time": 24.26467999999997,
          "velocity": 0.7480314960629921,
          "duration": 0.22058799999999934
        },
        {
          "name": "F#3",
          "midi": 54,
          "time": 24.48526799999997,
          "velocity": 0.7480314960629921,
          "duration": 0.22058799999999934
        },
        {
          "name": "F#2",
          "midi": 42,
          "time": 24.70585599999997,
          "velocity": 0.7480314960629921,
          "duration": 0.4411759999999987
        },
        {
          "name": "F#3",
          "midi": 54,
          "time": 25.147031999999967,
          "velocity": 0.7480314960629921,
          "duration": 0.330881999999999
        },
        {
          "name": "F#3",
          "midi": 54,
          "time": 25.477913999999966,
          "velocity": 0.7480314960629921,
          "duration": 0.11029399999999967
        },
        {
          "name": "F#2",
          "midi": 42,
          "time": 25.588207999999966,
          "velocity": 0.7480314960629921,
          "duration": 0.11029399999999967
        },
        {
          "name": "F#2",
          "midi": 42,
          "time": 25.808795999999965,
          "velocity": 0.7480314960629921,
          "duration": 0.22058799999999934
        },
        {
          "name": "C#3",
          "midi": 49,
          "time": 26.029383999999965,
          "velocity": 0.7480314960629921,
          "duration": 0.22058799999999934
        },
        {
          "name": "F#3",
          "midi": 54,
          "time": 26.249971999999964,
          "velocity": 0.7480314960629921,
          "duration": 0.22058799999999934
        },
        {
          "name": "G2",
          "midi": 43,
          "time": 26.470559999999963,
          "velocity": 0.7480314960629921,
          "duration": 0.4411759999999987
        },
        {
          "name": "G3",
          "midi": 55,
          "time": 26.911735999999962,
          "velocity": 0.7480314960629921,
          "duration": 0.4411759999999987
        },
        {
          "name": "G2",
          "midi": 43,
          "time": 27.35291199999996,
          "velocity": 0.7480314960629921,
          "duration": 0.11029399999999967
        },
        {
          "name": "G2",
          "midi": 43,
          "time": 27.57349999999996,
          "velocity": 0.7480314960629921,
          "duration": 0.22058799999999934
        },
        {
          "name": "D3",
          "midi": 50,
          "time": 27.79408799999996,
          "velocity": 0.7480314960629921,
          "duration": 0.22058799999999934
        },
        {
          "name": "G3",
          "midi": 55,
          "time": 28.01467599999996,
          "velocity": 0.7480314960629921,
          "duration": 0.22058799999999934
        },
        {
          "name": "G2",
          "midi": 43,
          "time": 28.235263999999958,
          "velocity": 0.7480314960629921,
          "duration": 0.4411759999999987
        },
        {
          "name": "G3",
          "midi": 55,
          "time": 28.676439999999957,
          "velocity": 0.7480314960629921,
          "duration": 0.4411759999999987
        },
        {
          "name": "G2",
          "midi": 43,
          "time": 29.117615999999956,
          "velocity": 0.7480314960629921,
          "duration": 0.11029399999999967
        },
        {
          "name": "G2",
          "midi": 43,
          "time": 29.338203999999955,
          "velocity": 0.7480314960629921,
          "duration": 0.22058799999999934
        },
        {
          "name": "D3",
          "midi": 50,
          "time": 29.558791999999954,
          "velocity": 0.7480314960629921,
          "duration": 0.22058799999999934
        },
        {
          "name": "G3",
          "midi": 55,
          "time": 29.779379999999954,
          "velocity": 0.7480314960629921,
          "duration": 0.22058799999999934
        },
        {
          "name": "D2",
          "midi": 38,
          "time": 29.999967999999953,
          "velocity": 0.7480314960629921,
          "duration": 0.4411759999999987
        },
        {
          "name": "D3",
          "midi": 50,
          "time": 30.44114399999995,
          "velocity": 0.7480314960629921,
          "duration": 0.4411759999999987
        },
        {
          "name": "D2",
          "midi": 38,
          "time": 30.88231999999995,
          "velocity": 0.7480314960629921,
          "duration": 0.11029399999999967
        },
        {
          "name": "D2",
          "midi": 38,
          "time": 31.10290799999995,
          "velocity": 0.7480314960629921,
          "duration": 0.22058799999999934
        },
        {
          "name": "A2",
          "midi": 45,
          "time": 31.32349599999995,
          "velocity": 0.7480314960629921,
          "duration": 0.22058799999999934
        },
        {
          "name": "D3",
          "midi": 50,
          "time": 31.54408399999995,
          "velocity": 0.7480314960629921,
          "duration": 0.22058799999999934
        },
        {
          "name": "D2",
          "midi": 38,
          "time": 31.764671999999948,
          "velocity": 0.7480314960629921,
          "duration": 0.4411759999999987
        },
        {
          "name": "D3",
          "midi": 50,
          "time": 32.205847999999946,
          "velocity": 0.7480314960629921,
          "duration": 0.4411759999999987
        },
        {
          "name": "D2",
          "midi": 38,
          "time": 32.647023999999945,
          "velocity": 0.7480314960629921,
          "duration": 0.11029400000000322
        },
        {
          "name": "D2",
          "midi": 38,
          "time": 32.86761199999995,
          "velocity": 0.7480314960629921,
          "duration": 0.22058799999999934
        },
        {
          "name": "A2",
          "midi": 45,
          "time": 33.08819999999995,
          "velocity": 0.7480314960629921,
          "duration": 0.22058799999999934
        },
        {
          "name": "D3",
          "midi": 50,
          "time": 33.30878799999995,
          "velocity": 0.7480314960629921,
          "duration": 0.22058799999999934
        },
        {
          "name": "F#2",
          "midi": 42,
          "time": 33.52937599999995,
          "velocity": 0.7480314960629921,
          "duration": 0.4411759999999987
        },
        {
          "name": "F#3",
          "midi": 54,
          "time": 33.97055199999995,
          "velocity": 0.7480314960629921,
          "duration": 0.4411759999999987
        },
        {
          "name": "F#2",
          "midi": 42,
          "time": 34.41172799999995,
          "velocity": 0.7480314960629921,
          "duration": 0.11029400000000322
        },
        {
          "name": "F#2",
          "midi": 42,
          "time": 34.63231599999995,
          "velocity": 0.7480314960629921,
          "duration": 0.22058799999999934
        },
        {
          "name": "C#3",
          "midi": 49,
          "time": 34.85290399999995,
          "velocity": 0.7480314960629921,
          "duration": 0.22058799999999934
        },
        {
          "name": "F#3",
          "midi": 54,
          "time": 35.07349199999995,
          "velocity": 0.7480314960629921,
          "duration": 0.22058799999999934
        },
        {
          "name": "F#2",
          "midi": 42,
          "time": 35.29407999999995,
          "velocity": 0.7480314960629921,
          "duration": 0.4411759999999987
        },
        {
          "name": "F#3",
          "midi": 54,
          "time": 35.73525599999995,
          "velocity": 0.7480314960629921,
          "duration": 0.4411759999999987
        },
        {
          "name": "F#2",
          "midi": 42,
          "time": 36.17643199999995,
          "velocity": 0.7480314960629921,
          "duration": 0.11029400000000322
        },
        {
          "name": "F#2",
          "midi": 42,
          "time": 36.397019999999955,
          "velocity": 0.7480314960629921,
          "duration": 0.22058799999999934
        },
        {
          "name": "C#3",
          "midi": 49,
          "time": 36.617607999999954,
          "velocity": 0.7480314960629921,
          "duration": 0.22058799999999934
        },
        {
          "name": "F#3",
          "midi": 54,
          "time": 36.838195999999954,
          "velocity": 0.7480314960629921,
          "duration": 0.22058799999999934
        },
        {
          "name": "G2",
          "midi": 43,
          "time": 37.05878399999995,
          "velocity": 0.7480314960629921,
          "duration": 0.4411759999999987
        },
        {
          "name": "G3",
          "midi": 55,
          "time": 37.49995999999995,
          "velocity": 0.7480314960629921,
          "duration": 0.4411759999999987
        },
        {
          "name": "G2",
          "midi": 43,
          "time": 37.94113599999995,
          "velocity": 0.7480314960629921,
          "duration": 0.11029400000000322
        },
        {
          "name": "G2",
          "midi": 43,
          "time": 38.16172399999996,
          "velocity": 0.7480314960629921,
          "duration": 0.22058799999999934
        },
        {
          "name": "D3",
          "midi": 50,
          "time": 38.382311999999956,
          "velocity": 0.7480314960629921,
          "duration": 0.22058799999999934
        },
        {
          "name": "G3",
          "midi": 55,
          "time": 38.602899999999956,
          "velocity": 0.7480314960629921,
          "duration": 0.22058799999999934
        },
        {
          "name": "G2",
          "midi": 43,
          "time": 38.823487999999955,
          "velocity": 0.7480314960629921,
          "duration": 0.4411759999999987
        },
        {
          "name": "G3",
          "midi": 55,
          "time": 39.264663999999954,
          "velocity": 0.7480314960629921,
          "duration": 0.4411759999999987
        },
        {
          "name": "G2",
          "midi": 43,
          "time": 39.70583999999995,
          "velocity": 0.7480314960629921,
          "duration": 0.11029400000000322
        },
        {
          "name": "G2",
          "midi": 43,
          "time": 39.92642799999996,
          "velocity": 0.7480314960629921,
          "duration": 0.22058799999999934
        },
        {
          "name": "D3",
          "midi": 50,
          "time": 40.14701599999996,
          "velocity": 0.7480314960629921,
          "duration": 0.22058799999999934
        },
        {
          "name": "G3",
          "midi": 55,
          "time": 40.36760399999996,
          "velocity": 0.7480314960629921,
          "duration": 0.22058799999999934
        },
        {
          "name": "D2",
          "midi": 38,
          "time": 40.58819199999996,
          "velocity": 0.7480314960629921,
          "duration": 0.4411759999999987
        },
        {
          "name": "D3",
          "midi": 50,
          "time": 41.029367999999955,
          "velocity": 0.7480314960629921,
          "duration": 0.4411759999999987
        },
        {
          "name": "D2",
          "midi": 38,
          "time": 41.470543999999954,
          "velocity": 0.7480314960629921,
          "duration": 0.11029400000000322
        },
        {
          "name": "D2",
          "midi": 38,
          "time": 41.69113199999996,
          "velocity": 0.7480314960629921,
          "duration": 0.22058799999999934
        },
        {
          "name": "A2",
          "midi": 45,
          "time": 41.91171999999996,
          "velocity": 0.7480314960629921,
          "duration": 0.22058799999999934
        },
        {
          "name": "D3",
          "midi": 50,
          "time": 42.13230799999996,
          "velocity": 0.7480314960629921,
          "duration": 0.22058799999999934
        },
        {
          "name": "D2",
          "midi": 38,
          "time": 42.35289599999996,
          "velocity": 0.7480314960629921,
          "duration": 0.4411759999999987
        },
        {
          "name": "D3",
          "midi": 50,
          "time": 42.79407199999996,
          "velocity": 0.7480314960629921,
          "duration": 0.4411759999999987
        },
        {
          "name": "D2",
          "midi": 38,
          "time": 43.235247999999956,
          "velocity": 0.7480314960629921,
          "duration": 0.11029400000000322
        },
        {
          "name": "D2",
          "midi": 38,
          "time": 43.45583599999996,
          "velocity": 0.7480314960629921,
          "duration": 0.22058799999999934
        },
        {
          "name": "A2",
          "midi": 45,
          "time": 43.67642399999996,
          "velocity": 0.7480314960629921,
          "duration": 0.22058799999999934
        },
        {
          "name": "D3",
          "midi": 50,
          "time": 43.89701199999996,
          "velocity": 0.7480314960629921,
          "duration": 0.22058799999999934
        },
        {
          "name": "F#2",
          "midi": 42,
          "time": 44.11759999999996,
          "velocity": 0.7480314960629921,
          "duration": 0.4411759999999987
        },
        {
          "name": "F#3",
          "midi": 54,
          "time": 44.55877599999996,
          "velocity": 0.7480314960629921,
          "duration": 0.4411759999999987
        },
        {
          "name": "F#2",
          "midi": 42,
          "time": 44.99995199999996,
          "velocity": 0.7480314960629921,
          "duration": 0.11029400000000322
        },
        {
          "name": "F#2",
          "midi": 42,
          "time": 45.220539999999964,
          "velocity": 0.7480314960629921,
          "duration": 0.22058799999999934
        },
        {
          "name": "C#3",
          "midi": 49,
          "time": 45.44112799999996,
          "velocity": 0.7480314960629921,
          "duration": 0.22058799999999934
        },
        {
          "name": "F#3",
          "midi": 54,
          "time": 45.66171599999996,
          "velocity": 0.7480314960629921,
          "duration": 0.22058799999999934
        },
        {
          "name": "F#2",
          "midi": 42,
          "time": 45.88230399999996,
          "velocity": 0.7480314960629921,
          "duration": 0.4411759999999987
        },
        {
          "name": "F#3",
          "midi": 54,
          "time": 46.32347999999996,
          "velocity": 0.7480314960629921,
          "duration": 0.4411759999999987
        },
        {
          "name": "F#2",
          "midi": 42,
          "time": 46.76465599999996,
          "velocity": 0.7480314960629921,
          "duration": 0.11029400000000322
        },
        {
          "name": "F#2",
          "midi": 42,
          "time": 46.985243999999966,
          "velocity": 0.7480314960629921,
          "duration": 0.22058799999999934
        },
        {
          "name": "C#3",
          "midi": 49,
          "time": 47.205831999999965,
          "velocity": 0.7480314960629921,
          "duration": 0.22058799999999934
        },
        {
          "name": "F#3",
          "midi": 54,
          "time": 47.426419999999965,
          "velocity": 0.7480314960629921,
          "duration": 0.22058799999999934
        },
        {
          "name": "G2",
          "midi": 43,
          "time": 47.647007999999964,
          "velocity": 0.7480314960629921,
          "duration": 0.4411759999999987
        },
        {
          "name": "G3",
          "midi": 55,
          "time": 48.08818399999996,
          "velocity": 0.7480314960629921,
          "duration": 0.4411759999999987
        },
        {
          "name": "G2",
          "midi": 43,
          "time": 48.52935999999996,
          "velocity": 0.7480314960629921,
          "duration": 0.11029400000000322
        },
        {
          "name": "G2",
          "midi": 43,
          "time": 48.74994799999997,
          "velocity": 0.7480314960629921,
          "duration": 0.22058799999999934
        },
        {
          "name": "D3",
          "midi": 50,
          "time": 48.97053599999997,
          "velocity": 0.7480314960629921,
          "duration": 0.22058799999999934
        },
        {
          "name": "G3",
          "midi": 55,
          "time": 49.19112399999997,
          "velocity": 0.7480314960629921,
          "duration": 0.22058799999999934
        },
        {
          "name": "G2",
          "midi": 43,
          "time": 49.411711999999966,
          "velocity": 0.7480314960629921,
          "duration": 0.4411759999999987
        },
        {
          "name": "G3",
          "midi": 55,
          "time": 49.852887999999965,
          "velocity": 0.7480314960629921,
          "duration": 0.4411759999999987
        },
        {
          "name": "G2",
          "midi": 43,
          "time": 50.29406399999996,
          "velocity": 0.7480314960629921,
          "duration": 0.11029400000000322
        },
        {
          "name": "G2",
          "midi": 43,
          "time": 50.51465199999997,
          "velocity": 0.7480314960629921,
          "duration": 0.22058799999999934
        },
        {
          "name": "D3",
          "midi": 50,
          "time": 50.73523999999997,
          "velocity": 0.7480314960629921,
          "duration": 0.22058799999999934
        },
        {
          "name": "G3",
          "midi": 55,
          "time": 50.95582799999997,
          "velocity": 0.7480314960629921,
          "duration": 0.22058799999999934
        },
        {
          "name": "D2",
          "midi": 38,
          "time": 51.17641599999997,
          "velocity": 0.7480314960629921,
          "duration": 0.4411759999999987
        },
        {
          "name": "D3",
          "midi": 50,
          "time": 51.617591999999966,
          "velocity": 0.7480314960629921,
          "duration": 0.4411759999999987
        },
        {
          "name": "D2",
          "midi": 38,
          "time": 52.058767999999965,
          "velocity": 0.7480314960629921,
          "duration": 0.11029400000000322
        },
        {
          "name": "D2",
          "midi": 38,
          "time": 52.27935599999997,
          "velocity": 0.7480314960629921,
          "duration": 0.22058799999999934
        },
        {
          "name": "A2",
          "midi": 45,
          "time": 52.49994399999997,
          "velocity": 0.7480314960629921,
          "duration": 0.22058799999999934
        },
        {
          "name": "D3",
          "midi": 50,
          "time": 52.72053199999997,
          "velocity": 0.7480314960629921,
          "duration": 0.22058799999999934
        },
        {
          "name": "D2",
          "midi": 38,
          "time": 52.94111999999997,
          "velocity": 0.7480314960629921,
          "duration": 0.4411759999999987
        },
        {
          "name": "D3",
          "midi": 50,
          "time": 53.38229599999997,
          "velocity": 0.7480314960629921,
          "duration": 0.4411759999999987
        },
        {
          "name": "D2",
          "midi": 38,
          "time": 53.82347199999997,
          "velocity": 0.7480314960629921,
          "duration": 0.11029400000000322
        },
        {
          "name": "D2",
          "midi": 38,
          "time": 54.04405999999997,
          "velocity": 0.7480314960629921,
          "duration": 0.22058799999999934
        },
        {
          "name": "A2",
          "midi": 45,
          "time": 54.26464799999997,
          "velocity": 0.7480314960629921,
          "duration": 0.22058799999999934
        },
        {
          "name": "D3",
          "midi": 50,
          "time": 54.48523599999997,
          "velocity": 0.7480314960629921,
          "duration": 0.22058799999999934
        },
        {
          "name": "F#1",
          "midi": 30,
          "time": 54.70582399999997,
          "velocity": 0.2440944881889764,
          "duration": 0.22058799999999934
        },
        {
          "name": "F#1",
          "midi": 30,
          "time": 54.92641199999997,
          "velocity": 0.2440944881889764,
          "duration": 0.22058799999999934
        },
        {
          "name": "F#1",
          "midi": 30,
          "time": 55.14699999999997,
          "velocity": 0.3700787401574803,
          "duration": 0.22058799999999934
        },
        {
          "name": "F#1",
          "midi": 30,
          "time": 55.36758799999997,
          "velocity": 0.3700787401574803,
          "duration": 0.22058799999999934
        },
        {
          "name": "F#1",
          "midi": 30,
          "time": 55.58817599999997,
          "velocity": 0.49606299212598426,
          "duration": 0.22058799999999934
        },
        {
          "name": "F#1",
          "midi": 30,
          "time": 55.80876399999997,
          "velocity": 0.49606299212598426,
          "duration": 0.22058799999999934
        },
        {
          "name": "F#1",
          "midi": 30,
          "time": 56.02935199999997,
          "velocity": 0.6220472440944882,
          "duration": 0.22058799999999934
        },
        {
          "name": "F#1",
          "midi": 30,
          "time": 56.24993999999997,
          "velocity": 0.6220472440944882,
          "duration": 0.22058799999999934
        },
        {
          "name": "F#1",
          "midi": 30,
          "time": 56.470527999999966,
          "velocity": 0.7480314960629921,
          "duration": 0.22058799999999934
        },
        {
          "name": "F#1",
          "midi": 30,
          "time": 56.691115999999965,
          "velocity": 0.7480314960629921,
          "duration": 0.22058799999999934
        },
        {
          "name": "F#1",
          "midi": 30,
          "time": 56.911703999999965,
          "velocity": 0.7480314960629921,
          "duration": 0.22058799999999934
        },
        {
          "name": "F#1",
          "midi": 30,
          "time": 57.132291999999964,
          "velocity": 0.7480314960629921,
          "duration": 0.22058799999999934
        },
        {
          "name": "F#1",
          "midi": 30,
          "time": 57.35287999999996,
          "velocity": 0.7480314960629921,
          "duration": 0.22058799999999934
        },
        {
          "name": "F#1",
          "midi": 30,
          "time": 57.57346799999996,
          "velocity": 0.7480314960629921,
          "duration": 0.22058799999999934
        },
        {
          "name": "F#1",
          "midi": 30,
          "time": 57.79405599999996,
          "velocity": 0.7480314960629921,
          "duration": 0.22058799999999934
        },
        {
          "name": "F#1",
          "midi": 30,
          "time": 58.01464399999996,
          "velocity": 0.7480314960629921,
          "duration": 0.22058799999999934
        },
        {
          "name": "G2",
          "midi": 43,
          "time": 58.23523199999996,
          "velocity": 0.7480314960629921,
          "duration": 0.22058799999999934
        },
        {
          "name": "G2",
          "midi": 43,
          "time": 58.45581999999996,
          "velocity": 0.7480314960629921,
          "duration": 0.22058799999999934
        },
        {
          "name": "G2",
          "midi": 43,
          "time": 58.67640799999996,
          "velocity": 0.7480314960629921,
          "duration": 0.22058799999999934
        },
        {
          "name": "G2",
          "midi": 43,
          "time": 58.89699599999996,
          "velocity": 0.7480314960629921,
          "duration": 0.22058799999999934
        },
        {
          "name": "G2",
          "midi": 43,
          "time": 59.11758399999996,
          "velocity": 0.7480314960629921,
          "duration": 0.22058799999999934
        },
        {
          "name": "G2",
          "midi": 43,
          "time": 59.33817199999996,
          "velocity": 0.7480314960629921,
          "duration": 0.22058799999999934
        },
        {
          "name": "G2",
          "midi": 43,
          "time": 59.55875999999996,
          "velocity": 0.7480314960629921,
          "duration": 0.22058799999999934
        },
        {
          "name": "G2",
          "midi": 43,
          "time": 59.779347999999956,
          "velocity": 0.7480314960629921,
          "duration": 0.22058799999999934
        },
        {
          "name": "G2",
          "midi": 43,
          "time": 59.999935999999956,
          "velocity": 0.7480314960629921,
          "duration": 0.22058799999999934
        },
        {
          "name": "G2",
          "midi": 43,
          "time": 60.220523999999955,
          "velocity": 0.7480314960629921,
          "duration": 0.22058799999999934
        },
        {
          "name": "G2",
          "midi": 43,
          "time": 60.441111999999954,
          "velocity": 0.7480314960629921,
          "duration": 0.22058799999999934
        },
        {
          "name": "G2",
          "midi": 43,
          "time": 60.66169999999995,
          "velocity": 0.7480314960629921,
          "duration": 0.22058799999999934
        },
        {
          "name": "C#3",
          "midi": 49,
          "time": 60.88228799999995,
          "velocity": 0.7480314960629921,
          "duration": 0.22058799999999934
        },
        {
          "name": "D3",
          "midi": 50,
          "time": 61.10287599999995,
          "velocity": 0.7480314960629921,
          "duration": 0.22058799999999934
        },
        {
          "name": "C#3",
          "midi": 49,
          "time": 61.32346399999995,
          "velocity": 0.7480314960629921,
          "duration": 0.22058799999999934
        },
        {
          "name": "G2",
          "midi": 43,
          "time": 61.54405199999995,
          "velocity": 0.7480314960629921,
          "duration": 0.22058799999999934
        },
        {
          "name": "B2",
          "midi": 47,
          "time": 61.76463999999995,
          "velocity": 0.7480314960629921,
          "duration": 0.22058799999999934
        },
        {
          "name": "B2",
          "midi": 47,
          "time": 61.98522799999995,
          "velocity": 0.7480314960629921,
          "duration": 0.22058799999999934
        },
        {
          "name": "B2",
          "midi": 47,
          "time": 62.20581599999995,
          "velocity": 0.7480314960629921,
          "duration": 0.22058799999999934
        },
        {
          "name": "B2",
          "midi": 47,
          "time": 62.42640399999995,
          "velocity": 0.7480314960629921,
          "duration": 0.22058799999999934
        },
        {
          "name": "B2",
          "midi": 47,
          "time": 62.64699199999995,
          "velocity": 0.7480314960629921,
          "duration": 0.22058799999999934
        },
        {
          "name": "B2",
          "midi": 47,
          "time": 62.86757999999995,
          "velocity": 0.7480314960629921,
          "duration": 0.22058799999999934
        },
        {
          "name": "B2",
          "midi": 47,
          "time": 63.088167999999946,
          "velocity": 0.7480314960629921,
          "duration": 0.22058799999999934
        },
        {
          "name": "B2",
          "midi": 47,
          "time": 63.308755999999946,
          "velocity": 0.7480314960629921,
          "duration": 0.22058799999999934
        },
        {
          "name": "F#2",
          "midi": 42,
          "time": 63.529343999999945,
          "velocity": 0.7480314960629921,
          "duration": 0.22058799999999934
        },
        {
          "name": "F#2",
          "midi": 42,
          "time": 63.749931999999944,
          "velocity": 0.7480314960629921,
          "duration": 0.22058799999999934
        },
        {
          "name": "F#2",
          "midi": 42,
          "time": 63.970519999999944,
          "velocity": 0.7480314960629921,
          "duration": 0.22058799999999934
        },
        {
          "name": "F#2",
          "midi": 42,
          "time": 64.19110799999994,
          "velocity": 0.7480314960629921,
          "duration": 0.22058800000000645
        },
        {
          "name": "F#2",
          "midi": 42,
          "time": 64.41169599999995,
          "velocity": 0.7480314960629921,
          "duration": 0.22058800000000645
        },
        {
          "name": "A2",
          "midi": 45,
          "time": 64.63228399999996,
          "velocity": 0.7480314960629921,
          "duration": 0.22058800000000645
        },
        {
          "name": "A2",
          "midi": 45,
          "time": 64.85287199999996,
          "velocity": 0.7480314960629921,
          "duration": 0.22058800000000645
        },
        {
          "name": "F#2",
          "midi": 42,
          "time": 65.07345999999997,
          "velocity": 0.7480314960629921,
          "duration": 0.22058800000000645
        },
        {
          "name": "G2",
          "midi": 43,
          "time": 65.29404799999998,
          "velocity": 0.7480314960629921,
          "duration": 0.22058800000000645
        },
        {
          "name": "G2",
          "midi": 43,
          "time": 65.51463599999998,
          "velocity": 0.7480314960629921,
          "duration": 0.22058800000000645
        },
        {
          "name": "G2",
          "midi": 43,
          "time": 65.73522399999999,
          "velocity": 0.7480314960629921,
          "duration": 0.22058800000000645
        },
        {
          "name": "G2",
          "midi": 43,
          "time": 65.955812,
          "velocity": 0.7480314960629921,
          "duration": 0.22058800000000645
        },
        {
          "name": "G2",
          "midi": 43,
          "time": 66.1764,
          "velocity": 0.7480314960629921,
          "duration": 0.22058800000000645
        },
        {
          "name": "G2",
          "midi": 43,
          "time": 66.39698800000001,
          "velocity": 0.7480314960629921,
          "duration": 0.22058800000000645
        },
        {
          "name": "G2",
          "midi": 43,
          "time": 66.61757600000001,
          "velocity": 0.7480314960629921,
          "duration": 0.22058800000000645
        },
        {
          "name": "G2",
          "midi": 43,
          "time": 66.83816400000002,
          "velocity": 0.7480314960629921,
          "duration": 0.22058800000000645
        },
        {
          "name": "G2",
          "midi": 43,
          "time": 67.05875200000003,
          "velocity": 0.7480314960629921,
          "duration": 0.22058800000000645
        },
        {
          "name": "G2",
          "midi": 43,
          "time": 67.27934000000003,
          "velocity": 0.7480314960629921,
          "duration": 0.22058800000000645
        },
        {
          "name": "G2",
          "midi": 43,
          "time": 67.49992800000004,
          "velocity": 0.7480314960629921,
          "duration": 0.22058800000000645
        },
        {
          "name": "G2",
          "midi": 43,
          "time": 67.72051600000005,
          "velocity": 0.7480314960629921,
          "duration": 0.22058800000000645
        },
        {
          "name": "C#3",
          "midi": 49,
          "time": 67.94110400000005,
          "velocity": 0.7480314960629921,
          "duration": 0.22058800000000645
        },
        {
          "name": "D3",
          "midi": 50,
          "time": 68.16169200000006,
          "velocity": 0.7480314960629921,
          "duration": 0.22058800000000645
        },
        {
          "name": "C#3",
          "midi": 49,
          "time": 68.38228000000007,
          "velocity": 0.7480314960629921,
          "duration": 0.22058800000000645
        },
        {
          "name": "G2",
          "midi": 43,
          "time": 68.60286800000007,
          "velocity": 0.7480314960629921,
          "duration": 0.22058800000000645
        },
        {
          "name": "B2",
          "midi": 47,
          "time": 68.82345600000008,
          "velocity": 0.7480314960629921,
          "duration": 0.22058800000000645
        },
        {
          "name": "B2",
          "midi": 47,
          "time": 69.04404400000008,
          "velocity": 0.7480314960629921,
          "duration": 0.22058800000000645
        },
        {
          "name": "B2",
          "midi": 47,
          "time": 69.26463200000009,
          "velocity": 0.7480314960629921,
          "duration": 0.22058800000000645
        },
        {
          "name": "B2",
          "midi": 47,
          "time": 69.4852200000001,
          "velocity": 0.7480314960629921,
          "duration": 0.22058800000000645
        },
        {
          "name": "B2",
          "midi": 47,
          "time": 69.7058080000001,
          "velocity": 0.7480314960629921,
          "duration": 0.22058800000000645
        },
        {
          "name": "B2",
          "midi": 47,
          "time": 69.92639600000011,
          "velocity": 0.7480314960629921,
          "duration": 0.22058800000000645
        },
        {
          "name": "B2",
          "midi": 47,
          "time": 70.14698400000012,
          "velocity": 0.7480314960629921,
          "duration": 0.22058800000000645
        },
        {
          "name": "B2",
          "midi": 47,
          "time": 70.36757200000012,
          "velocity": 0.7480314960629921,
          "duration": 0.22058800000000645
        },
        {
          "name": "F#2",
          "midi": 42,
          "time": 70.58816000000013,
          "velocity": 0.7480314960629921,
          "duration": 0.22058800000000645
        },
        {
          "name": "F#2",
          "midi": 42,
          "time": 70.80874800000014,
          "velocity": 0.7480314960629921,
          "duration": 0.22058800000000645
        },
        {
          "name": "F#2",
          "midi": 42,
          "time": 71.02933600000014,
          "velocity": 0.7480314960629921,
          "duration": 0.22058800000000645
        },
        {
          "name": "F#2",
          "midi": 42,
          "time": 71.24992400000015,
          "velocity": 0.7480314960629921,
          "duration": 0.22058800000000645
        },
        {
          "name": "F#2",
          "midi": 42,
          "time": 71.47051200000016,
          "velocity": 0.7480314960629921,
          "duration": 0.22058800000000645
        },
        {
          "name": "F#2",
          "midi": 42,
          "time": 71.69110000000016,
          "velocity": 0.7480314960629921,
          "duration": 0.22058800000000645
        },
        {
          "name": "F#2",
          "midi": 42,
          "time": 71.91168800000017,
          "velocity": 0.7480314960629921,
          "duration": 0.22058800000000645
        },
        {
          "name": "F#2",
          "midi": 42,
          "time": 72.13227600000018,
          "velocity": 0.7480314960629921,
          "duration": 0.22058800000000645
        },
        {
          "name": "G2",
          "midi": 43,
          "time": 72.35286400000018,
          "velocity": 0.7480314960629921,
          "duration": 0.22058800000000645
        },
        {
          "name": "G2",
          "midi": 43,
          "time": 72.57345200000019,
          "velocity": 0.7480314960629921,
          "duration": 0.22058800000000645
        },
        {
          "name": "G2",
          "midi": 43,
          "time": 72.7940400000002,
          "velocity": 0.7480314960629921,
          "duration": 0.22058800000000645
        },
        {
          "name": "G2",
          "midi": 43,
          "time": 73.0146280000002,
          "velocity": 0.7480314960629921,
          "duration": 0.22058800000000645
        },
        {
          "name": "G2",
          "midi": 43,
          "time": 73.23521600000021,
          "velocity": 0.7480314960629921,
          "duration": 0.22058800000000645
        },
        {
          "name": "G2",
          "midi": 43,
          "time": 73.45580400000021,
          "velocity": 0.7480314960629921,
          "duration": 0.22058800000000645
        },
        {
          "name": "G2",
          "midi": 43,
          "time": 73.67639200000022,
          "velocity": 0.7480314960629921,
          "duration": 0.22058800000000645
        },
        {
          "name": "G2",
          "midi": 43,
          "time": 73.89698000000023,
          "velocity": 0.7480314960629921,
          "duration": 0.22058800000000645
        },
        {
          "name": "G2",
          "midi": 43,
          "time": 74.11756800000023,
          "velocity": 0.7480314960629921,
          "duration": 0.22058800000000645
        },
        {
          "name": "G2",
          "midi": 43,
          "time": 74.33815600000024,
          "velocity": 0.7480314960629921,
          "duration": 0.22058800000000645
        },
        {
          "name": "G2",
          "midi": 43,
          "time": 74.55874400000025,
          "velocity": 0.7480314960629921,
          "duration": 0.22058800000000645
        },
        {
          "name": "G2",
          "midi": 43,
          "time": 74.77933200000025,
          "velocity": 0.7480314960629921,
          "duration": 0.22058800000000645
        },
        {
          "name": "C#3",
          "midi": 49,
          "time": 74.99992000000026,
          "velocity": 0.7480314960629921,
          "duration": 0.22058800000000645
        },
        {
          "name": "D3",
          "midi": 50,
          "time": 75.22050800000027,
          "velocity": 0.7480314960629921,
          "duration": 0.22058800000000645
        },
        {
          "name": "C#3",
          "midi": 49,
          "time": 75.44109600000027,
          "velocity": 0.7480314960629921,
          "duration": 0.22058800000000645
        },
        {
          "name": "G2",
          "midi": 43,
          "time": 75.66168400000028,
          "velocity": 0.7480314960629921,
          "duration": 0.22058800000000645
        },
        {
          "name": "B2",
          "midi": 47,
          "time": 75.88227200000028,
          "velocity": 0.7480314960629921,
          "duration": 0.22058800000000645
        },
        {
          "name": "B2",
          "midi": 47,
          "time": 76.10286000000029,
          "velocity": 0.7480314960629921,
          "duration": 0.22058800000000645
        },
        {
          "name": "B2",
          "midi": 47,
          "time": 76.3234480000003,
          "velocity": 0.7480314960629921,
          "duration": 0.22058800000000645
        },
        {
          "name": "B2",
          "midi": 47,
          "time": 76.5440360000003,
          "velocity": 0.7480314960629921,
          "duration": 0.22058800000000645
        },
        {
          "name": "B2",
          "midi": 47,
          "time": 76.76462400000031,
          "velocity": 0.7480314960629921,
          "duration": 0.22058800000000645
        },
        {
          "name": "B2",
          "midi": 47,
          "time": 76.98521200000032,
          "velocity": 0.7480314960629921,
          "duration": 0.22058800000000645
        },
        {
          "name": "B2",
          "midi": 47,
          "time": 77.20580000000032,
          "velocity": 0.7480314960629921,
          "duration": 0.22058800000000645
        },
        {
          "name": "B2",
          "midi": 47,
          "time": 77.42638800000033,
          "velocity": 0.7480314960629921,
          "duration": 0.22058800000000645
        },
        {
          "name": "F#2",
          "midi": 42,
          "time": 77.64697600000034,
          "velocity": 0.7480314960629921,
          "duration": 0.22058800000000645
        },
        {
          "name": "F#2",
          "midi": 42,
          "time": 77.86756400000034,
          "velocity": 0.7480314960629921,
          "duration": 0.22058800000000645
        },
        {
          "name": "F#2",
          "midi": 42,
          "time": 78.08815200000035,
          "velocity": 0.7480314960629921,
          "duration": 0.22058800000000645
        },
        {
          "name": "F#2",
          "midi": 42,
          "time": 78.30874000000036,
          "velocity": 0.7480314960629921,
          "duration": 0.22058800000000645
        },
        {
          "name": "F#2",
          "midi": 42,
          "time": 78.52932800000036,
          "velocity": 0.7480314960629921,
          "duration": 0.22058800000000645
        },
        {
          "name": "A2",
          "midi": 45,
          "time": 78.74991600000037,
          "velocity": 0.7480314960629921,
          "duration": 0.22058800000000645
        },
        {
          "name": "A2",
          "midi": 45,
          "time": 78.97050400000037,
          "velocity": 0.7480314960629921,
          "duration": 0.22058800000000645
        },
        {
          "name": "F#2",
          "midi": 42,
          "time": 79.19109200000038,
          "velocity": 0.7480314960629921,
          "duration": 0.22058800000000645
        },
        {
          "name": "G2",
          "midi": 43,
          "time": 79.41168000000039,
          "velocity": 0.7480314960629921,
          "duration": 0.22058800000000645
        },
        {
          "name": "G2",
          "midi": 43,
          "time": 79.6322680000004,
          "velocity": 0.7480314960629921,
          "duration": 0.22058800000000645
        },
        {
          "name": "G2",
          "midi": 43,
          "time": 79.8528560000004,
          "velocity": 0.7480314960629921,
          "duration": 0.22058800000000645
        },
        {
          "name": "G2",
          "midi": 43,
          "time": 80.0734440000004,
          "velocity": 0.7480314960629921,
          "duration": 0.22058800000000645
        },
        {
          "name": "G2",
          "midi": 43,
          "time": 80.29403200000041,
          "velocity": 0.7480314960629921,
          "duration": 0.22058800000000645
        },
        {
          "name": "G2",
          "midi": 43,
          "time": 80.51462000000042,
          "velocity": 0.7480314960629921,
          "duration": 0.22058800000000645
        },
        {
          "name": "G2",
          "midi": 43,
          "time": 80.73520800000043,
          "velocity": 0.7480314960629921,
          "duration": 0.22058800000000645
        },
        {
          "name": "G2",
          "midi": 43,
          "time": 80.95579600000043,
          "velocity": 0.7480314960629921,
          "duration": 0.22058800000000645
        },
        {
          "name": "G2",
          "midi": 43,
          "time": 81.17638400000044,
          "velocity": 0.7480314960629921,
          "duration": 0.22058800000000645
        },
        {
          "name": "G2",
          "midi": 43,
          "time": 81.39697200000045,
          "velocity": 0.7480314960629921,
          "duration": 0.22058800000000645
        },
        {
          "name": "G2",
          "midi": 43,
          "time": 81.61756000000045,
          "velocity": 0.7480314960629921,
          "duration": 0.22058800000000645
        },
        {
          "name": "G2",
          "midi": 43,
          "time": 81.83814800000046,
          "velocity": 0.7480314960629921,
          "duration": 0.22058800000000645
        },
        {
          "name": "G2",
          "midi": 43,
          "time": 82.05873600000047,
          "velocity": 0.7480314960629921,
          "duration": 0.22058800000000645
        },
        {
          "name": "A2",
          "midi": 45,
          "time": 82.27932400000047,
          "velocity": 0.7480314960629921,
          "duration": 0.22058800000000645
        },
        {
          "name": "A2",
          "midi": 45,
          "time": 82.49991200000048,
          "velocity": 0.7480314960629921,
          "duration": 0.22058800000000645
        },
        {
          "name": "A2",
          "midi": 45,
          "time": 82.72050000000048,
          "velocity": 0.7480314960629921,
          "duration": 0.22058800000000645
        },
        {
          "name": "D3",
          "midi": 50,
          "time": 82.94108800000049,
          "velocity": 0.7480314960629921,
          "duration": 0.22058800000000645
        },
        {
          "name": "D2",
          "midi": 38,
          "time": 83.1616760000005,
          "velocity": 0.7480314960629921,
          "duration": 0.22058800000000645
        },
        {
          "name": "D3",
          "midi": 50,
          "time": 83.3822640000005,
          "velocity": 0.7480314960629921,
          "duration": 0.22058800000000645
        },
        {
          "name": "D2",
          "midi": 38,
          "time": 83.60285200000051,
          "velocity": 0.7480314960629921,
          "duration": 0.22058800000000645
        },
        {
          "name": "D3",
          "midi": 50,
          "time": 83.82344000000052,
          "velocity": 0.7480314960629921,
          "duration": 0.22058800000000645
        },
        {
          "name": "D2",
          "midi": 38,
          "time": 84.04402800000052,
          "velocity": 0.7480314960629921,
          "duration": 0.22058800000000645
        },
        {
          "name": "D3",
          "midi": 50,
          "time": 84.26461600000053,
          "velocity": 0.7480314960629921,
          "duration": 0.22058800000000645
        },
        {
          "name": "D2",
          "midi": 38,
          "time": 84.48520400000054,
          "velocity": 0.7480314960629921,
          "duration": 0.22058800000000645
        },
        {
          "name": "D3",
          "midi": 50,
          "time": 84.70579200000054,
          "velocity": 0.7480314960629921,
          "duration": 0.22058800000000645
        },
        {
          "name": "D2",
          "midi": 38,
          "time": 84.92638000000055,
          "velocity": 0.7480314960629921,
          "duration": 0.22058800000000645
        },
        {
          "name": "D3",
          "midi": 50,
          "time": 85.14696800000056,
          "velocity": 0.7480314960629921,
          "duration": 0.22058800000000645
        },
        {
          "name": "D2",
          "midi": 38,
          "time": 85.36755600000056,
          "velocity": 0.7480314960629921,
          "duration": 0.22058800000000645
        },
        {
          "name": "D3",
          "midi": 50,
          "time": 85.58814400000057,
          "velocity": 0.7480314960629921,
          "duration": 0.22058800000000645
        },
        {
          "name": "D2",
          "midi": 38,
          "time": 85.80873200000057,
          "velocity": 0.7480314960629921,
          "duration": 0.22058800000000645
        },
        {
          "name": "D3",
          "midi": 50,
          "time": 86.02932000000058,
          "velocity": 0.7480314960629921,
          "duration": 0.22058800000000645
        },
        {
          "name": "D2",
          "midi": 38,
          "time": 86.24990800000059,
          "velocity": 0.7480314960629921,
          "duration": 0.22058800000000645
        },
        {
          "name": "F#2",
          "midi": 42,
          "time": 86.4704960000006,
          "velocity": 0.7480314960629921,
          "duration": 0.4411759999999987
        },
        {
          "name": "F#3",
          "midi": 54,
          "time": 86.91167200000059,
          "velocity": 0.7480314960629921,
          "duration": 0.33088200000000256
        },
        {
          "name": "F#3",
          "midi": 54,
          "time": 87.2425540000006,
          "velocity": 0.7480314960629921,
          "duration": 0.11029399999999612
        },
        {
          "name": "F#2",
          "midi": 42,
          "time": 87.35284800000059,
          "velocity": 0.7480314960629921,
          "duration": 0.11029399999999612
        },
        {
          "name": "F#2",
          "midi": 42,
          "time": 87.57343600000058,
          "velocity": 0.7480314960629921,
          "duration": 0.22058800000000645
        },
        {
          "name": "C#3",
          "midi": 49,
          "time": 87.79402400000059,
          "velocity": 0.7480314960629921,
          "duration": 0.22058800000000645
        },
        {
          "name": "F#3",
          "midi": 54,
          "time": 88.0146120000006,
          "velocity": 0.7480314960629921,
          "duration": 0.22058800000000645
        },
        {
          "name": "F#2",
          "midi": 42,
          "time": 88.2352000000006,
          "velocity": 0.7480314960629921,
          "duration": 0.4411759999999987
        },
        {
          "name": "F#3",
          "midi": 54,
          "time": 88.6763760000006,
          "velocity": 0.7480314960629921,
          "duration": 0.33088200000000256
        },
        {
          "name": "F#3",
          "midi": 54,
          "time": 89.0072580000006,
          "velocity": 0.7480314960629921,
          "duration": 0.11029399999999612
        },
        {
          "name": "F#2",
          "midi": 42,
          "time": 89.1175520000006,
          "velocity": 0.7480314960629921,
          "duration": 0.11029399999999612
        },
        {
          "name": "F#2",
          "midi": 42,
          "time": 89.33814000000059,
          "velocity": 0.7480314960629921,
          "duration": 0.22058800000000645
        },
        {
          "name": "C#3",
          "midi": 49,
          "time": 89.5587280000006,
          "velocity": 0.7480314960629921,
          "duration": 0.22058800000000645
        },
        {
          "name": "F#3",
          "midi": 54,
          "time": 89.7793160000006,
          "velocity": 0.7480314960629921,
          "duration": 0.22058800000000645
        },
        {
          "name": "G2",
          "midi": 43,
          "time": 89.99990400000061,
          "velocity": 0.7480314960629921,
          "duration": 0.4411759999999987
        },
        {
          "name": "G3",
          "midi": 55,
          "time": 90.44108000000061,
          "velocity": 0.7480314960629921,
          "duration": 0.33088200000000256
        },
        {
          "name": "G3",
          "midi": 55,
          "time": 90.77196200000061,
          "velocity": 0.7480314960629921,
          "duration": 0.11029399999999612
        },
        {
          "name": "G2",
          "midi": 43,
          "time": 90.88225600000061,
          "velocity": 0.7480314960629921,
          "duration": 0.11029399999999612
        },
        {
          "name": "G2",
          "midi": 43,
          "time": 91.1028440000006,
          "velocity": 0.7480314960629921,
          "duration": 0.22058800000000645
        },
        {
          "name": "D3",
          "midi": 50,
          "time": 91.32343200000061,
          "velocity": 0.7480314960629921,
          "duration": 0.22058800000000645
        },
        {
          "name": "G3",
          "midi": 55,
          "time": 91.54402000000061,
          "velocity": 0.7480314960629921,
          "duration": 0.22058800000000645
        },
        {
          "name": "G2",
          "midi": 43,
          "time": 91.76460800000062,
          "velocity": 0.7480314960629921,
          "duration": 0.4411759999999987
        },
        {
          "name": "G3",
          "midi": 55,
          "time": 92.20578400000062,
          "velocity": 0.7480314960629921,
          "duration": 0.33088200000000256
        },
        {
          "name": "G3",
          "midi": 55,
          "time": 92.53666600000062,
          "velocity": 0.7480314960629921,
          "duration": 0.11029399999999612
        },
        {
          "name": "G2",
          "midi": 43,
          "time": 92.64696000000062,
          "velocity": 0.7480314960629921,
          "duration": 0.11029399999999612
        },
        {
          "name": "G2",
          "midi": 43,
          "time": 92.86754800000061,
          "velocity": 0.7480314960629921,
          "duration": 0.22058800000000645
        },
        {
          "name": "D3",
          "midi": 50,
          "time": 93.08813600000062,
          "velocity": 0.7480314960629921,
          "duration": 0.22058800000000645
        },
        {
          "name": "G3",
          "midi": 55,
          "time": 93.30872400000062,
          "velocity": 0.7480314960629921,
          "duration": 0.22058800000000645
        },
        {
          "name": "D2",
          "midi": 38,
          "time": 93.52931200000063,
          "velocity": 0.7480314960629921,
          "duration": 0.4411759999999987
        },
        {
          "name": "D3",
          "midi": 50,
          "time": 93.97048800000063,
          "velocity": 0.7480314960629921,
          "duration": 0.33088200000000256
        },
        {
          "name": "D3",
          "midi": 50,
          "time": 94.30137000000063,
          "velocity": 0.7480314960629921,
          "duration": 0.11029399999999612
        },
        {
          "name": "D2",
          "midi": 38,
          "time": 94.41166400000063,
          "velocity": 0.7480314960629921,
          "duration": 0.11029399999999612
        },
        {
          "name": "D2",
          "midi": 38,
          "time": 94.63225200000062,
          "velocity": 0.7480314960629921,
          "duration": 0.22058800000000645
        },
        {
          "name": "A2",
          "midi": 45,
          "time": 94.85284000000063,
          "velocity": 0.7480314960629921,
          "duration": 0.22058800000000645
        },
        {
          "name": "D3",
          "midi": 50,
          "time": 95.07342800000063,
          "velocity": 0.7480314960629921,
          "duration": 0.22058800000000645
        },
        {
          "name": "D2",
          "midi": 38,
          "time": 95.29401600000064,
          "velocity": 0.7480314960629921,
          "duration": 0.4411759999999987
        },
        {
          "name": "D3",
          "midi": 50,
          "time": 95.73519200000064,
          "velocity": 0.7480314960629921,
          "duration": 0.33088200000000256
        },
        {
          "name": "D3",
          "midi": 50,
          "time": 96.06607400000064,
          "velocity": 0.7480314960629921,
          "duration": 0.11029399999999612
        },
        {
          "name": "D2",
          "midi": 38,
          "time": 96.17636800000064,
          "velocity": 0.7480314960629921,
          "duration": 0.11029399999999612
        },
        {
          "name": "D2",
          "midi": 38,
          "time": 96.39695600000063,
          "velocity": 0.7480314960629921,
          "duration": 0.22058800000000645
        },
        {
          "name": "A2",
          "midi": 45,
          "time": 96.61754400000063,
          "velocity": 0.7480314960629921,
          "duration": 0.22058800000000645
        },
        {
          "name": "D3",
          "midi": 50,
          "time": 96.83813200000064,
          "velocity": 0.7480314960629921,
          "duration": 0.22058800000000645
        },
        {
          "name": "F#2",
          "midi": 42,
          "time": 97.05872000000065,
          "velocity": 0.7480314960629921,
          "duration": 0.4411759999999987
        },
        {
          "name": "F#3",
          "midi": 54,
          "time": 97.49989600000065,
          "velocity": 0.7480314960629921,
          "duration": 0.33088200000000256
        },
        {
          "name": "F#3",
          "midi": 54,
          "time": 97.83077800000065,
          "velocity": 0.7480314960629921,
          "duration": 0.11029399999999612
        },
        {
          "name": "F#2",
          "midi": 42,
          "time": 97.94107200000064,
          "velocity": 0.7480314960629921,
          "duration": 0.11029399999999612
        },
        {
          "name": "F#2",
          "midi": 42,
          "time": 98.16166000000064,
          "velocity": 0.7480314960629921,
          "duration": 0.22058800000000645
        },
        {
          "name": "C#3",
          "midi": 49,
          "time": 98.38224800000064,
          "velocity": 0.7480314960629921,
          "duration": 0.22058800000000645
        },
        {
          "name": "F#3",
          "midi": 54,
          "time": 98.60283600000065,
          "velocity": 0.7480314960629921,
          "duration": 0.22058800000000645
        },
        {
          "name": "F#2",
          "midi": 42,
          "time": 98.82342400000066,
          "velocity": 0.7480314960629921,
          "duration": 0.4411759999999987
        },
        {
          "name": "F#3",
          "midi": 54,
          "time": 99.26460000000066,
          "velocity": 0.7480314960629921,
          "duration": 0.33088200000000256
        },
        {
          "name": "F#3",
          "midi": 54,
          "time": 99.59548200000066,
          "velocity": 0.7480314960629921,
          "duration": 0.11029399999999612
        },
        {
          "name": "F#2",
          "midi": 42,
          "time": 99.70577600000065,
          "velocity": 0.7480314960629921,
          "duration": 0.11029399999999612
        },
        {
          "name": "F#2",
          "midi": 42,
          "time": 99.92636400000065,
          "velocity": 0.7480314960629921,
          "duration": 0.22058800000000645
        },
        {
          "name": "C#3",
          "midi": 49,
          "time": 100.14695200000065,
          "velocity": 0.7480314960629921,
          "duration": 0.22058800000000645
        },
        {
          "name": "F#3",
          "midi": 54,
          "time": 100.36754000000066,
          "velocity": 0.7480314960629921,
          "duration": 0.22058800000000645
        },
        {
          "name": "G2",
          "midi": 43,
          "time": 100.58812800000067,
          "velocity": 0.7480314960629921,
          "duration": 0.4411759999999987
        },
        {
          "name": "G3",
          "midi": 55,
          "time": 101.02930400000066,
          "velocity": 0.7480314960629921,
          "duration": 0.4411759999999987
        },
        {
          "name": "G2",
          "midi": 43,
          "time": 101.47048000000066,
          "velocity": 0.7480314960629921,
          "duration": 0.11029399999999612
        },
        {
          "name": "G2",
          "midi": 43,
          "time": 101.69106800000066,
          "velocity": 0.7480314960629921,
          "duration": 0.22058800000000645
        },
        {
          "name": "D3",
          "midi": 50,
          "time": 101.91165600000066,
          "velocity": 0.7480314960629921,
          "duration": 0.22058800000000645
        },
        {
          "name": "G3",
          "midi": 55,
          "time": 102.13224400000067,
          "velocity": 0.7480314960629921,
          "duration": 0.22058800000000645
        },
        {
          "name": "G2",
          "midi": 43,
          "time": 102.35283200000067,
          "velocity": 0.7480314960629921,
          "duration": 0.4411759999999987
        },
        {
          "name": "G3",
          "midi": 55,
          "time": 102.79400800000067,
          "velocity": 0.7480314960629921,
          "duration": 0.4411759999999987
        },
        {
          "name": "G2",
          "midi": 43,
          "time": 103.23518400000067,
          "velocity": 0.7480314960629921,
          "duration": 0.11029399999999612
        },
        {
          "name": "G2",
          "midi": 43,
          "time": 103.45577200000066,
          "velocity": 0.7480314960629921,
          "duration": 0.22058800000000645
        },
        {
          "name": "D3",
          "midi": 50,
          "time": 103.67636000000067,
          "velocity": 0.7480314960629921,
          "duration": 0.22058800000000645
        },
        {
          "name": "G3",
          "midi": 55,
          "time": 103.89694800000068,
          "velocity": 0.7480314960629921,
          "duration": 0.22058800000000645
        },
        {
          "name": "D2",
          "midi": 38,
          "time": 104.11753600000068,
          "velocity": 0.7480314960629921,
          "duration": 0.4411759999999987
        },
        {
          "name": "D3",
          "midi": 50,
          "time": 104.55871200000068,
          "velocity": 0.7480314960629921,
          "duration": 0.4411759999999987
        },
        {
          "name": "D2",
          "midi": 38,
          "time": 104.99988800000068,
          "velocity": 0.7480314960629921,
          "duration": 0.11029399999999612
        },
        {
          "name": "D2",
          "midi": 38,
          "time": 105.22047600000067,
          "velocity": 0.7480314960629921,
          "duration": 0.22058800000000645
        },
        {
          "name": "A2",
          "midi": 45,
          "time": 105.44106400000068,
          "velocity": 0.7480314960629921,
          "duration": 0.22058800000000645
        },
        {
          "name": "D3",
          "midi": 50,
          "time": 105.66165200000069,
          "velocity": 0.7480314960629921,
          "duration": 0.22058800000000645
        },
        {
          "name": "D2",
          "midi": 38,
          "time": 105.88224000000069,
          "velocity": 0.7480314960629921,
          "duration": 0.4411759999999987
        },
        {
          "name": "D3",
          "midi": 50,
          "time": 106.32341600000069,
          "velocity": 0.7480314960629921,
          "duration": 0.4411759999999987
        },
        {
          "name": "D2",
          "midi": 38,
          "time": 106.76459200000069,
          "velocity": 0.7480314960629921,
          "duration": 0.11029399999999612
        },
        {
          "name": "D2",
          "midi": 38,
          "time": 106.98518000000068,
          "velocity": 0.7480314960629921,
          "duration": 0.22058800000000645
        },
        {
          "name": "A2",
          "midi": 45,
          "time": 107.20576800000069,
          "velocity": 0.7480314960629921,
          "duration": 0.22058800000000645
        },
        {
          "name": "D3",
          "midi": 50,
          "time": 107.4263560000007,
          "velocity": 0.7480314960629921,
          "duration": 0.22058800000000645
        },
        {
          "name": "F#2",
          "midi": 42,
          "time": 107.6469440000007,
          "velocity": 0.7480314960629921,
          "duration": 0.4411759999999987
        },
        {
          "name": "F#3",
          "midi": 54,
          "time": 108.0881200000007,
          "velocity": 0.7480314960629921,
          "duration": 0.4411759999999987
        },
        {
          "name": "F#2",
          "midi": 42,
          "time": 108.5292960000007,
          "velocity": 0.7480314960629921,
          "duration": 0.11029399999999612
        },
        {
          "name": "F#2",
          "midi": 42,
          "time": 108.74988400000069,
          "velocity": 0.7480314960629921,
          "duration": 0.22058800000000645
        },
        {
          "name": "C#3",
          "midi": 49,
          "time": 108.9704720000007,
          "velocity": 0.7480314960629921,
          "duration": 0.22058800000000645
        },
        {
          "name": "F#3",
          "midi": 54,
          "time": 109.1910600000007,
          "velocity": 0.7480314960629921,
          "duration": 0.22058800000000645
        },
        {
          "name": "F#2",
          "midi": 42,
          "time": 109.41164800000071,
          "velocity": 0.7480314960629921,
          "duration": 0.4411759999999987
        },
        {
          "name": "F#3",
          "midi": 54,
          "time": 109.85282400000071,
          "velocity": 0.7480314960629921,
          "duration": 0.4411759999999987
        },
        {
          "name": "F#2",
          "midi": 42,
          "time": 110.29400000000071,
          "velocity": 0.7480314960629921,
          "duration": 0.11029399999999612
        },
        {
          "name": "F#2",
          "midi": 42,
          "time": 110.5145880000007,
          "velocity": 0.7480314960629921,
          "duration": 0.22058800000000645
        },
        {
          "name": "C#3",
          "midi": 49,
          "time": 110.7351760000007,
          "velocity": 0.7480314960629921,
          "duration": 0.22058800000000645
        },
        {
          "name": "F#3",
          "midi": 54,
          "time": 110.95576400000071,
          "velocity": 0.7480314960629921,
          "duration": 0.22058800000000645
        },
        {
          "name": "G2",
          "midi": 43,
          "time": 111.17635200000072,
          "velocity": 0.7480314960629921,
          "duration": 0.4411759999999987
        },
        {
          "name": "G3",
          "midi": 55,
          "time": 111.61752800000072,
          "velocity": 0.7480314960629921,
          "duration": 0.4411759999999987
        },
        {
          "name": "G2",
          "midi": 43,
          "time": 112.05870400000072,
          "velocity": 0.7480314960629921,
          "duration": 0.11029399999999612
        },
        {
          "name": "G2",
          "midi": 43,
          "time": 112.27929200000071,
          "velocity": 0.7480314960629921,
          "duration": 0.22058800000000645
        },
        {
          "name": "D3",
          "midi": 50,
          "time": 112.49988000000072,
          "velocity": 0.7480314960629921,
          "duration": 0.22058800000000645
        },
        {
          "name": "G3",
          "midi": 55,
          "time": 112.72046800000072,
          "velocity": 0.7480314960629921,
          "duration": 0.22058800000000645
        },
        {
          "name": "G2",
          "midi": 43,
          "time": 112.94105600000073,
          "velocity": 0.7480314960629921,
          "duration": 0.4411759999999987
        },
        {
          "name": "G3",
          "midi": 55,
          "time": 113.38223200000073,
          "velocity": 0.7480314960629921,
          "duration": 0.4411759999999987
        },
        {
          "name": "G2",
          "midi": 43,
          "time": 113.82340800000073,
          "velocity": 0.7480314960629921,
          "duration": 0.11029399999999612
        },
        {
          "name": "G2",
          "midi": 43,
          "time": 114.04399600000072,
          "velocity": 0.7480314960629921,
          "duration": 0.22058800000000645
        },
        {
          "name": "D3",
          "midi": 50,
          "time": 114.26458400000072,
          "velocity": 0.7480314960629921,
          "duration": 0.22058800000000645
        },
        {
          "name": "G3",
          "midi": 55,
          "time": 114.48517200000073,
          "velocity": 0.7480314960629921,
          "duration": 0.22058800000000645
        },
        {
          "name": "D2",
          "midi": 38,
          "time": 114.70576000000074,
          "velocity": 0.7480314960629921,
          "duration": 0.4411759999999987
        },
        {
          "name": "D3",
          "midi": 50,
          "time": 115.14693600000074,
          "velocity": 0.7480314960629921,
          "duration": 0.4411759999999987
        },
        {
          "name": "D2",
          "midi": 38,
          "time": 115.58811200000073,
          "velocity": 0.7480314960629921,
          "duration": 0.11029399999999612
        },
        {
          "name": "D2",
          "midi": 38,
          "time": 115.80870000000073,
          "velocity": 0.7480314960629921,
          "duration": 0.22058800000000645
        },
        {
          "name": "A2",
          "midi": 45,
          "time": 116.02928800000073,
          "velocity": 0.7480314960629921,
          "duration": 0.22058800000000645
        },
        {
          "name": "D3",
          "midi": 50,
          "time": 116.24987600000074,
          "velocity": 0.7480314960629921,
          "duration": 0.22058800000000645
        },
        {
          "name": "D2",
          "midi": 38,
          "time": 116.47046400000075,
          "velocity": 0.7480314960629921,
          "duration": 0.4411759999999987
        },
        {
          "name": "D3",
          "midi": 50,
          "time": 116.91164000000074,
          "velocity": 0.7480314960629921,
          "duration": 0.4411759999999987
        },
        {
          "name": "D2",
          "midi": 38,
          "time": 117.35281600000074,
          "velocity": 0.7480314960629921,
          "duration": 0.11029399999999612
        },
        {
          "name": "D2",
          "midi": 38,
          "time": 117.57340400000074,
          "velocity": 0.7480314960629921,
          "duration": 0.22058800000000645
        },
        {
          "name": "A2",
          "midi": 45,
          "time": 117.79399200000074,
          "velocity": 0.7480314960629921,
          "duration": 0.22058800000000645
        },
        {
          "name": "D3",
          "midi": 50,
          "time": 118.01458000000075,
          "velocity": 0.7480314960629921,
          "duration": 0.22058800000000645
        },
        {
          "name": "F#2",
          "midi": 42,
          "time": 118.23516800000075,
          "velocity": 0.7480314960629921,
          "duration": 0.4411759999999987
        },
        {
          "name": "F#3",
          "midi": 54,
          "time": 118.67634400000075,
          "velocity": 0.7480314960629921,
          "duration": 0.4411759999999987
        },
        {
          "name": "F#2",
          "midi": 42,
          "time": 119.11752000000075,
          "velocity": 0.7480314960629921,
          "duration": 0.11029399999999612
        },
        {
          "name": "F#2",
          "midi": 42,
          "time": 119.33810800000074,
          "velocity": 0.7480314960629921,
          "duration": 0.22058800000000645
        },
        {
          "name": "C#3",
          "midi": 49,
          "time": 119.55869600000075,
          "velocity": 0.7480314960629921,
          "duration": 0.22058800000000645
        },
        {
          "name": "F#3",
          "midi": 54,
          "time": 119.77928400000076,
          "velocity": 0.7480314960629921,
          "duration": 0.22058800000000645
        },
        {
          "name": "F#2",
          "midi": 42,
          "time": 119.99987200000076,
          "velocity": 0.7480314960629921,
          "duration": 0.4411759999999987
        },
        {
          "name": "F#3",
          "midi": 54,
          "time": 120.44104800000076,
          "velocity": 0.7480314960629921,
          "duration": 0.4411759999999987
        },
        {
          "name": "F#2",
          "midi": 42,
          "time": 120.88222400000076,
          "velocity": 0.7480314960629921,
          "duration": 0.11029399999999612
        },
        {
          "name": "F#2",
          "midi": 42,
          "time": 121.10281200000075,
          "velocity": 0.7480314960629921,
          "duration": 0.22058800000000645
        },
        {
          "name": "C#3",
          "midi": 49,
          "time": 121.32340000000076,
          "velocity": 0.7480314960629921,
          "duration": 0.22058800000000645
        },
        {
          "name": "F#3",
          "midi": 54,
          "time": 121.54398800000077,
          "velocity": 0.7480314960629921,
          "duration": 0.22058800000000645
        },
        {
          "name": "G2",
          "midi": 43,
          "time": 121.76457600000077,
          "velocity": 0.7480314960629921,
          "duration": 0.4411759999999987
        },
        {
          "name": "G3",
          "midi": 55,
          "time": 122.20575200000077,
          "velocity": 0.7480314960629921,
          "duration": 0.4411759999999987
        },
        {
          "name": "G2",
          "midi": 43,
          "time": 122.64692800000077,
          "velocity": 0.7480314960629921,
          "duration": 0.11029399999999612
        },
        {
          "name": "G2",
          "midi": 43,
          "time": 122.86751600000076,
          "velocity": 0.7480314960629921,
          "duration": 0.22058800000000645
        },
        {
          "name": "D3",
          "midi": 50,
          "time": 123.08810400000077,
          "velocity": 0.7480314960629921,
          "duration": 0.22058800000000645
        },
        {
          "name": "G3",
          "midi": 55,
          "time": 123.30869200000078,
          "velocity": 0.7480314960629921,
          "duration": 0.22058800000000645
        },
        {
          "name": "G2",
          "midi": 43,
          "time": 123.52928000000078,
          "velocity": 0.7480314960629921,
          "duration": 0.4411759999999987
        },
        {
          "name": "G3",
          "midi": 55,
          "time": 123.97045600000078,
          "velocity": 0.7480314960629921,
          "duration": 0.4411759999999987
        },
        {
          "name": "G2",
          "midi": 43,
          "time": 124.41163200000078,
          "velocity": 0.7480314960629921,
          "duration": 0.11029399999999612
        },
        {
          "name": "G2",
          "midi": 43,
          "time": 124.63222000000077,
          "velocity": 0.7480314960629921,
          "duration": 0.22058800000000645
        },
        {
          "name": "D3",
          "midi": 50,
          "time": 124.85280800000078,
          "velocity": 0.7480314960629921,
          "duration": 0.22058800000000645
        },
        {
          "name": "G3",
          "midi": 55,
          "time": 125.07339600000078,
          "velocity": 0.7480314960629921,
          "duration": 0.22058800000000645
        },
        {
          "name": "D2",
          "midi": 38,
          "time": 125.29398400000079,
          "velocity": 0.7480314960629921,
          "duration": 0.4411759999999987
        },
        {
          "name": "D3",
          "midi": 50,
          "time": 125.73516000000079,
          "velocity": 0.7480314960629921,
          "duration": 0.4411759999999987
        },
        {
          "name": "D2",
          "midi": 38,
          "time": 126.17633600000079,
          "velocity": 0.7480314960629921,
          "duration": 0.11029399999999612
        },
        {
          "name": "D2",
          "midi": 38,
          "time": 126.39692400000078,
          "velocity": 0.7480314960629921,
          "duration": 0.22058800000000645
        },
        {
          "name": "A2",
          "midi": 45,
          "time": 126.61751200000079,
          "velocity": 0.7480314960629921,
          "duration": 0.22058800000000645
        },
        {
          "name": "D3",
          "midi": 50,
          "time": 126.8381000000008,
          "velocity": 0.7480314960629921,
          "duration": 0.22058800000000645
        },
        {
          "name": "D2",
          "midi": 38,
          "time": 127.0586880000008,
          "velocity": 0.7480314960629921,
          "duration": 0.4411759999999987
        },
        {
          "name": "D3",
          "midi": 50,
          "time": 127.4998640000008,
          "velocity": 0.7480314960629921,
          "duration": 0.4411759999999987
        },
        {
          "name": "D2",
          "midi": 38,
          "time": 127.9410400000008,
          "velocity": 0.7480314960629921,
          "duration": 0.11029399999999612
        },
        {
          "name": "D2",
          "midi": 38,
          "time": 128.1616280000008,
          "velocity": 0.7480314960629921,
          "duration": 0.22058799999999223
        },
        {
          "name": "A2",
          "midi": 45,
          "time": 128.3822160000008,
          "velocity": 0.7480314960629921,
          "duration": 0.22058799999999223
        },
        {
          "name": "D3",
          "midi": 50,
          "time": 128.6028040000008,
          "velocity": 0.7480314960629921,
          "duration": 0.22058799999999223
        },
        {
          "name": "F#1",
          "midi": 30,
          "time": 128.82339200000078,
          "velocity": 0.2440944881889764,
          "duration": 0.22058799999999223
        },
        {
          "name": "F#1",
          "midi": 30,
          "time": 129.04398000000077,
          "velocity": 0.2440944881889764,
          "duration": 0.22058799999999223
        },
        {
          "name": "F#1",
          "midi": 30,
          "time": 129.26456800000076,
          "velocity": 0.3700787401574803,
          "duration": 0.22058799999999223
        },
        {
          "name": "F#1",
          "midi": 30,
          "time": 129.48515600000076,
          "velocity": 0.3700787401574803,
          "duration": 0.22058799999999223
        },
        {
          "name": "F#1",
          "midi": 30,
          "time": 129.70574400000075,
          "velocity": 0.49606299212598426,
          "duration": 0.22058799999999223
        },
        {
          "name": "F#1",
          "midi": 30,
          "time": 129.92633200000074,
          "velocity": 0.49606299212598426,
          "duration": 0.22058799999999223
        },
        {
          "name": "F#1",
          "midi": 30,
          "time": 130.14692000000073,
          "velocity": 0.6220472440944882,
          "duration": 0.22058799999999223
        },
        {
          "name": "F#1",
          "midi": 30,
          "time": 130.36750800000073,
          "velocity": 0.6220472440944882,
          "duration": 0.22058799999999223
        },
        {
          "name": "F#1",
          "midi": 30,
          "time": 130.58809600000072,
          "velocity": 0.7480314960629921,
          "duration": 0.22058799999999223
        },
        {
          "name": "F#1",
          "midi": 30,
          "time": 130.8086840000007,
          "velocity": 0.7480314960629921,
          "duration": 0.22058799999999223
        },
        {
          "name": "F#1",
          "midi": 30,
          "time": 131.0292720000007,
          "velocity": 0.7480314960629921,
          "duration": 0.22058799999999223
        },
        {
          "name": "F#1",
          "midi": 30,
          "time": 131.2498600000007,
          "velocity": 0.7480314960629921,
          "duration": 0.22058799999999223
        },
        {
          "name": "F#1",
          "midi": 30,
          "time": 131.4704480000007,
          "velocity": 0.7480314960629921,
          "duration": 0.22058799999999223
        },
        {
          "name": "F#1",
          "midi": 30,
          "time": 131.69103600000068,
          "velocity": 0.7480314960629921,
          "duration": 0.22058799999999223
        },
        {
          "name": "F#1",
          "midi": 30,
          "time": 131.91162400000067,
          "velocity": 0.7480314960629921,
          "duration": 0.22058799999999223
        },
        {
          "name": "F#1",
          "midi": 30,
          "time": 132.13221200000066,
          "velocity": 0.7480314960629921,
          "duration": 0.22058799999999223
        },
        {
          "name": "G2",
          "midi": 43,
          "time": 132.35280000000066,
          "velocity": 0.7480314960629921,
          "duration": 0.22058799999999223
        },
        {
          "name": "G2",
          "midi": 43,
          "time": 132.57338800000065,
          "velocity": 0.7480314960629921,
          "duration": 0.22058799999999223
        },
        {
          "name": "G2",
          "midi": 43,
          "time": 132.79397600000064,
          "velocity": 0.7480314960629921,
          "duration": 0.22058799999999223
        },
        {
          "name": "G2",
          "midi": 43,
          "time": 133.01456400000063,
          "velocity": 0.7480314960629921,
          "duration": 0.22058799999999223
        },
        {
          "name": "G2",
          "midi": 43,
          "time": 133.23515200000062,
          "velocity": 0.7480314960629921,
          "duration": 0.22058799999999223
        },
        {
          "name": "G2",
          "midi": 43,
          "time": 133.45574000000062,
          "velocity": 0.7480314960629921,
          "duration": 0.22058799999999223
        },
        {
          "name": "G2",
          "midi": 43,
          "time": 133.6763280000006,
          "velocity": 0.7480314960629921,
          "duration": 0.22058799999999223
        },
        {
          "name": "G2",
          "midi": 43,
          "time": 133.8969160000006,
          "velocity": 0.7480314960629921,
          "duration": 0.22058799999999223
        },
        {
          "name": "G2",
          "midi": 43,
          "time": 134.1175040000006,
          "velocity": 0.7480314960629921,
          "duration": 0.22058799999999223
        },
        {
          "name": "G2",
          "midi": 43,
          "time": 134.3380920000006,
          "velocity": 0.7480314960629921,
          "duration": 0.22058799999999223
        },
        {
          "name": "G2",
          "midi": 43,
          "time": 134.55868000000058,
          "velocity": 0.7480314960629921,
          "duration": 0.22058799999999223
        },
        {
          "name": "G2",
          "midi": 43,
          "time": 134.77926800000057,
          "velocity": 0.7480314960629921,
          "duration": 0.22058799999999223
        },
        {
          "name": "C#3",
          "midi": 49,
          "time": 134.99985600000056,
          "velocity": 0.7480314960629921,
          "duration": 0.22058799999999223
        },
        {
          "name": "D3",
          "midi": 50,
          "time": 135.22044400000055,
          "velocity": 0.7480314960629921,
          "duration": 0.22058799999999223
        },
        {
          "name": "C#3",
          "midi": 49,
          "time": 135.44103200000055,
          "velocity": 0.7480314960629921,
          "duration": 0.22058799999999223
        },
        {
          "name": "G2",
          "midi": 43,
          "time": 135.66162000000054,
          "velocity": 0.7480314960629921,
          "duration": 0.22058799999999223
        },
        {
          "name": "B2",
          "midi": 47,
          "time": 135.88220800000053,
          "velocity": 0.7480314960629921,
          "duration": 0.22058799999999223
        },
        {
          "name": "B2",
          "midi": 47,
          "time": 136.10279600000052,
          "velocity": 0.7480314960629921,
          "duration": 0.22058799999999223
        },
        {
          "name": "B2",
          "midi": 47,
          "time": 136.32338400000052,
          "velocity": 0.7480314960629921,
          "duration": 0.22058799999999223
        },
        {
          "name": "B2",
          "midi": 47,
          "time": 136.5439720000005,
          "velocity": 0.7480314960629921,
          "duration": 0.22058799999999223
        },
        {
          "name": "B2",
          "midi": 47,
          "time": 136.7645600000005,
          "velocity": 0.7480314960629921,
          "duration": 0.22058799999999223
        },
        {
          "name": "B2",
          "midi": 47,
          "time": 136.9851480000005,
          "velocity": 0.7480314960629921,
          "duration": 0.22058799999999223
        },
        {
          "name": "B2",
          "midi": 47,
          "time": 137.20573600000048,
          "velocity": 0.7480314960629921,
          "duration": 0.22058799999999223
        },
        {
          "name": "B2",
          "midi": 47,
          "time": 137.42632400000048,
          "velocity": 0.7480314960629921,
          "duration": 0.22058799999999223
        },
        {
          "name": "F#2",
          "midi": 42,
          "time": 137.64691200000047,
          "velocity": 0.7480314960629921,
          "duration": 0.22058799999999223
        },
        {
          "name": "F#2",
          "midi": 42,
          "time": 137.86750000000046,
          "velocity": 0.7480314960629921,
          "duration": 0.22058799999999223
        },
        {
          "name": "F#2",
          "midi": 42,
          "time": 138.08808800000045,
          "velocity": 0.7480314960629921,
          "duration": 0.22058799999999223
        },
        {
          "name": "F#2",
          "midi": 42,
          "time": 138.30867600000045,
          "velocity": 0.7480314960629921,
          "duration": 0.22058799999999223
        },
        {
          "name": "F#2",
          "midi": 42,
          "time": 138.52926400000044,
          "velocity": 0.7480314960629921,
          "duration": 0.22058799999999223
        },
        {
          "name": "A2",
          "midi": 45,
          "time": 138.74985200000043,
          "velocity": 0.7480314960629921,
          "duration": 0.22058799999999223
        },
        {
          "name": "A2",
          "midi": 45,
          "time": 138.97044000000042,
          "velocity": 0.7480314960629921,
          "duration": 0.22058799999999223
        },
        {
          "name": "F#2",
          "midi": 42,
          "time": 139.19102800000041,
          "velocity": 0.7480314960629921,
          "duration": 0.22058799999999223
        },
        {
          "name": "G2",
          "midi": 43,
          "time": 139.4116160000004,
          "velocity": 0.7480314960629921,
          "duration": 0.22058799999999223
        },
        {
          "name": "G2",
          "midi": 43,
          "time": 139.6322040000004,
          "velocity": 0.7480314960629921,
          "duration": 0.22058799999999223
        },
        {
          "name": "G2",
          "midi": 43,
          "time": 139.8527920000004,
          "velocity": 0.7480314960629921,
          "duration": 0.22058799999999223
        },
        {
          "name": "G2",
          "midi": 43,
          "time": 140.07338000000038,
          "velocity": 0.7480314960629921,
          "duration": 0.22058799999999223
        },
        {
          "name": "G2",
          "midi": 43,
          "time": 140.29396800000038,
          "velocity": 0.7480314960629921,
          "duration": 0.22058799999999223
        },
        {
          "name": "G2",
          "midi": 43,
          "time": 140.51455600000037,
          "velocity": 0.7480314960629921,
          "duration": 0.22058799999999223
        },
        {
          "name": "G2",
          "midi": 43,
          "time": 140.73514400000036,
          "velocity": 0.7480314960629921,
          "duration": 0.22058799999999223
        },
        {
          "name": "G2",
          "midi": 43,
          "time": 140.95573200000035,
          "velocity": 0.7480314960629921,
          "duration": 0.22058799999999223
        },
        {
          "name": "G2",
          "midi": 43,
          "time": 141.17632000000035,
          "velocity": 0.7480314960629921,
          "duration": 0.22058799999999223
        },
        {
          "name": "G2",
          "midi": 43,
          "time": 141.39690800000034,
          "velocity": 0.7480314960629921,
          "duration": 0.22058799999999223
        },
        {
          "name": "G2",
          "midi": 43,
          "time": 141.61749600000033,
          "velocity": 0.7480314960629921,
          "duration": 0.22058799999999223
        },
        {
          "name": "G2",
          "midi": 43,
          "time": 141.83808400000032,
          "velocity": 0.7480314960629921,
          "duration": 0.22058799999999223
        },
        {
          "name": "C#3",
          "midi": 49,
          "time": 142.0586720000003,
          "velocity": 0.7480314960629921,
          "duration": 0.22058799999999223
        },
        {
          "name": "D3",
          "midi": 50,
          "time": 142.2792600000003,
          "velocity": 0.7480314960629921,
          "duration": 0.22058799999999223
        },
        {
          "name": "C#3",
          "midi": 49,
          "time": 142.4998480000003,
          "velocity": 0.7480314960629921,
          "duration": 0.22058799999999223
        },
        {
          "name": "G2",
          "midi": 43,
          "time": 142.7204360000003,
          "velocity": 0.7480314960629921,
          "duration": 0.22058799999999223
        },
        {
          "name": "B2",
          "midi": 47,
          "time": 142.94102400000028,
          "velocity": 0.7480314960629921,
          "duration": 0.22058799999999223
        },
        {
          "name": "B2",
          "midi": 47,
          "time": 143.16161200000028,
          "velocity": 0.7480314960629921,
          "duration": 0.22058799999999223
        },
        {
          "name": "B2",
          "midi": 47,
          "time": 143.38220000000027,
          "velocity": 0.7480314960629921,
          "duration": 0.22058799999999223
        },
        {
          "name": "B2",
          "midi": 47,
          "time": 143.60278800000026,
          "velocity": 0.7480314960629921,
          "duration": 0.22058799999999223
        },
        {
          "name": "B2",
          "midi": 47,
          "time": 143.82337600000025,
          "velocity": 0.7480314960629921,
          "duration": 0.22058799999999223
        },
        {
          "name": "B2",
          "midi": 47,
          "time": 144.04396400000024,
          "velocity": 0.7480314960629921,
          "duration": 0.22058799999999223
        },
        {
          "name": "B2",
          "midi": 47,
          "time": 144.26455200000024,
          "velocity": 0.7480314960629921,
          "duration": 0.22058799999999223
        },
        {
          "name": "B2",
          "midi": 47,
          "time": 144.48514000000023,
          "velocity": 0.7480314960629921,
          "duration": 0.22058799999999223
        },
        {
          "name": "F#2",
          "midi": 42,
          "time": 144.70572800000022,
          "velocity": 0.7480314960629921,
          "duration": 0.22058799999999223
        },
        {
          "name": "F#2",
          "midi": 42,
          "time": 144.9263160000002,
          "velocity": 0.7480314960629921,
          "duration": 0.22058799999999223
        },
        {
          "name": "F#2",
          "midi": 42,
          "time": 145.1469040000002,
          "velocity": 0.7480314960629921,
          "duration": 0.22058799999999223
        },
        {
          "name": "F#2",
          "midi": 42,
          "time": 145.3674920000002,
          "velocity": 0.7480314960629921,
          "duration": 0.22058799999999223
        },
        {
          "name": "F#2",
          "midi": 42,
          "time": 145.5880800000002,
          "velocity": 0.7480314960629921,
          "duration": 0.22058799999999223
        },
        {
          "name": "F#2",
          "midi": 42,
          "time": 145.80866800000018,
          "velocity": 0.7480314960629921,
          "duration": 0.22058799999999223
        },
        {
          "name": "F#2",
          "midi": 42,
          "time": 146.02925600000017,
          "velocity": 0.7480314960629921,
          "duration": 0.22058799999999223
        },
        {
          "name": "F#2",
          "midi": 42,
          "time": 146.24984400000017,
          "velocity": 0.7480314960629921,
          "duration": 0.22058799999999223
        },
        {
          "name": "G2",
          "midi": 43,
          "time": 146.47043200000016,
          "velocity": 0.7480314960629921,
          "duration": 0.22058799999999223
        },
        {
          "name": "G2",
          "midi": 43,
          "time": 146.69102000000015,
          "velocity": 0.7480314960629921,
          "duration": 0.22058799999999223
        },
        {
          "name": "G2",
          "midi": 43,
          "time": 146.91160800000014,
          "velocity": 0.7480314960629921,
          "duration": 0.22058799999999223
        },
        {
          "name": "G2",
          "midi": 43,
          "time": 147.13219600000014,
          "velocity": 0.7480314960629921,
          "duration": 0.22058799999999223
        },
        {
          "name": "G2",
          "midi": 43,
          "time": 147.35278400000013,
          "velocity": 0.7480314960629921,
          "duration": 0.22058799999999223
        },
        {
          "name": "G2",
          "midi": 43,
          "time": 147.57337200000012,
          "velocity": 0.7480314960629921,
          "duration": 0.22058799999999223
        },
        {
          "name": "G2",
          "midi": 43,
          "time": 147.7939600000001,
          "velocity": 0.7480314960629921,
          "duration": 0.22058799999999223
        },
        {
          "name": "G2",
          "midi": 43,
          "time": 148.0145480000001,
          "velocity": 0.7480314960629921,
          "duration": 0.22058799999999223
        },
        {
          "name": "G2",
          "midi": 43,
          "time": 148.2351360000001,
          "velocity": 0.7480314960629921,
          "duration": 0.22058799999999223
        },
        {
          "name": "G2",
          "midi": 43,
          "time": 148.4557240000001,
          "velocity": 0.7480314960629921,
          "duration": 0.22058799999999223
        },
        {
          "name": "G2",
          "midi": 43,
          "time": 148.67631200000008,
          "velocity": 0.7480314960629921,
          "duration": 0.22058799999999223
        },
        {
          "name": "G2",
          "midi": 43,
          "time": 148.89690000000007,
          "velocity": 0.7480314960629921,
          "duration": 0.22058799999999223
        },
        {
          "name": "C#3",
          "midi": 49,
          "time": 149.11748800000007,
          "velocity": 0.7480314960629921,
          "duration": 0.22058799999999223
        },
        {
          "name": "D3",
          "midi": 50,
          "time": 149.33807600000006,
          "velocity": 0.7480314960629921,
          "duration": 0.22058799999999223
        },
        {
          "name": "C#3",
          "midi": 49,
          "time": 149.55866400000005,
          "velocity": 0.7480314960629921,
          "duration": 0.22058799999999223
        },
        {
          "name": "G2",
          "midi": 43,
          "time": 149.77925200000004,
          "velocity": 0.7480314960629921,
          "duration": 0.22058799999999223
        },
        {
          "name": "B2",
          "midi": 47,
          "time": 149.99984000000003,
          "velocity": 0.7480314960629921,
          "duration": 0.22058799999999223
        },
        {
          "name": "B2",
          "midi": 47,
          "time": 150.22042800000003,
          "velocity": 0.7480314960629921,
          "duration": 0.22058799999999223
        },
        {
          "name": "B2",
          "midi": 47,
          "time": 150.44101600000002,
          "velocity": 0.7480314960629921,
          "duration": 0.22058799999999223
        },
        {
          "name": "B2",
          "midi": 47,
          "time": 150.661604,
          "velocity": 0.7480314960629921,
          "duration": 0.22058799999999223
        },
        {
          "name": "B2",
          "midi": 47,
          "time": 150.882192,
          "velocity": 0.7480314960629921,
          "duration": 0.22058799999999223
        },
        {
          "name": "B2",
          "midi": 47,
          "time": 151.10278,
          "velocity": 0.7480314960629921,
          "duration": 0.22058799999999223
        },
        {
          "name": "B2",
          "midi": 47,
          "time": 151.323368,
          "velocity": 0.7480314960629921,
          "duration": 0.22058799999999223
        },
        {
          "name": "B2",
          "midi": 47,
          "time": 151.54395599999998,
          "velocity": 0.7480314960629921,
          "duration": 0.22058799999999223
        },
        {
          "name": "F#2",
          "midi": 42,
          "time": 151.76454399999997,
          "velocity": 0.7480314960629921,
          "duration": 0.22058799999999223
        },
        {
          "name": "F#2",
          "midi": 42,
          "time": 151.98513199999996,
          "velocity": 0.7480314960629921,
          "duration": 0.22058799999999223
        },
        {
          "name": "F#2",
          "midi": 42,
          "time": 152.20571999999996,
          "velocity": 0.7480314960629921,
          "duration": 0.22058799999999223
        },
        {
          "name": "F#2",
          "midi": 42,
          "time": 152.42630799999995,
          "velocity": 0.7480314960629921,
          "duration": 0.22058799999999223
        },
        {
          "name": "F#2",
          "midi": 42,
          "time": 152.64689599999994,
          "velocity": 0.7480314960629921,
          "duration": 0.22058799999999223
        },
        {
          "name": "A2",
          "midi": 45,
          "time": 152.86748399999993,
          "velocity": 0.7480314960629921,
          "duration": 0.22058799999999223
        },
        {
          "name": "A2",
          "midi": 45,
          "time": 153.08807199999993,
          "velocity": 0.7480314960629921,
          "duration": 0.22058799999999223
        },
        {
          "name": "F#2",
          "midi": 42,
          "time": 153.30865999999992,
          "velocity": 0.7480314960629921,
          "duration": 0.22058799999999223
        },
        {
          "name": "G2",
          "midi": 43,
          "time": 153.5292479999999,
          "velocity": 0.7480314960629921,
          "duration": 0.22058799999999223
        },
        {
          "name": "G2",
          "midi": 43,
          "time": 153.7498359999999,
          "velocity": 0.7480314960629921,
          "duration": 0.22058799999999223
        },
        {
          "name": "G2",
          "midi": 43,
          "time": 153.9704239999999,
          "velocity": 0.7480314960629921,
          "duration": 0.22058799999999223
        },
        {
          "name": "G2",
          "midi": 43,
          "time": 154.1910119999999,
          "velocity": 0.7480314960629921,
          "duration": 0.22058799999999223
        },
        {
          "name": "G2",
          "midi": 43,
          "time": 154.41159999999988,
          "velocity": 0.7480314960629921,
          "duration": 0.22058799999999223
        },
        {
          "name": "G2",
          "midi": 43,
          "time": 154.63218799999987,
          "velocity": 0.7480314960629921,
          "duration": 0.22058799999999223
        },
        {
          "name": "G2",
          "midi": 43,
          "time": 154.85277599999986,
          "velocity": 0.7480314960629921,
          "duration": 0.22058799999999223
        },
        {
          "name": "G2",
          "midi": 43,
          "time": 155.07336399999986,
          "velocity": 0.7480314960629921,
          "duration": 0.22058799999999223
        },
        {
          "name": "G2",
          "midi": 43,
          "time": 155.29395199999985,
          "velocity": 0.7480314960629921,
          "duration": 0.22058799999999223
        },
        {
          "name": "G2",
          "midi": 43,
          "time": 155.51453999999984,
          "velocity": 0.7480314960629921,
          "duration": 0.22058799999999223
        },
        {
          "name": "G2",
          "midi": 43,
          "time": 155.73512799999983,
          "velocity": 0.7480314960629921,
          "duration": 0.22058799999999223
        },
        {
          "name": "G2",
          "midi": 43,
          "time": 155.95571599999982,
          "velocity": 0.7480314960629921,
          "duration": 0.22058799999999223
        },
        {
          "name": "G2",
          "midi": 43,
          "time": 156.17630399999982,
          "velocity": 0.7480314960629921,
          "duration": 0.22058799999999223
        },
        {
          "name": "A2",
          "midi": 45,
          "time": 156.3968919999998,
          "velocity": 0.7480314960629921,
          "duration": 0.22058799999999223
        },
        {
          "name": "A2",
          "midi": 45,
          "time": 156.6174799999998,
          "velocity": 0.7480314960629921,
          "duration": 0.22058799999999223
        },
        {
          "name": "A2",
          "midi": 45,
          "time": 156.8380679999998,
          "velocity": 0.7480314960629921,
          "duration": 0.22058799999999223
        },
        {
          "name": "D3",
          "midi": 50,
          "time": 157.0586559999998,
          "velocity": 0.7480314960629921,
          "duration": 0.22058799999999223
        },
        {
          "name": "D2",
          "midi": 38,
          "time": 157.27924399999978,
          "velocity": 0.7480314960629921,
          "duration": 0.22058799999999223
        },
        {
          "name": "D3",
          "midi": 50,
          "time": 157.49983199999977,
          "velocity": 0.7480314960629921,
          "duration": 0.22058799999999223
        },
        {
          "name": "D2",
          "midi": 38,
          "time": 157.72041999999976,
          "velocity": 0.7480314960629921,
          "duration": 0.22058799999999223
        },
        {
          "name": "D3",
          "midi": 50,
          "time": 157.94100799999975,
          "velocity": 0.7480314960629921,
          "duration": 0.22058799999999223
        },
        {
          "name": "D2",
          "midi": 38,
          "time": 158.16159599999975,
          "velocity": 0.7480314960629921,
          "duration": 0.22058799999999223
        },
        {
          "name": "D3",
          "midi": 50,
          "time": 158.38218399999974,
          "velocity": 0.7480314960629921,
          "duration": 0.22058799999999223
        },
        {
          "name": "D2",
          "midi": 38,
          "time": 158.60277199999973,
          "velocity": 0.7480314960629921,
          "duration": 0.22058799999999223
        },
        {
          "name": "D3",
          "midi": 50,
          "time": 158.82335999999972,
          "velocity": 0.7480314960629921,
          "duration": 0.22058799999999223
        },
        {
          "name": "D2",
          "midi": 38,
          "time": 159.04394799999972,
          "velocity": 0.7480314960629921,
          "duration": 0.22058799999999223
        },
        {
          "name": "D3",
          "midi": 50,
          "time": 159.2645359999997,
          "velocity": 0.7480314960629921,
          "duration": 0.22058799999999223
        },
        {
          "name": "D2",
          "midi": 38,
          "time": 159.4851239999997,
          "velocity": 0.7480314960629921,
          "duration": 0.22058799999999223
        },
        {
          "name": "D3",
          "midi": 50,
          "time": 159.7057119999997,
          "velocity": 0.7480314960629921,
          "duration": 0.22058799999999223
        },
        {
          "name": "D2",
          "midi": 38,
          "time": 159.92629999999969,
          "velocity": 0.7480314960629921,
          "duration": 0.22058799999999223
        },
        {
          "name": "D3",
          "midi": 50,
          "time": 160.14688799999968,
          "velocity": 0.7480314960629921,
          "duration": 0.22058799999999223
        },
        {
          "name": "D2",
          "midi": 38,
          "time": 160.36747599999967,
          "velocity": 0.7480314960629921,
          "duration": 0.22058799999999223
        },
        {
          "name": "F#1",
          "midi": 30,
          "time": 160.58806399999966,
          "velocity": 0.7480314960629921,
          "duration": 0.22058799999999223
        },
        {
          "name": "F#1",
          "midi": 30,
          "time": 160.80865199999965,
          "velocity": 0.7480314960629921,
          "duration": 0.22058799999999223
        },
        {
          "name": "F#2",
          "midi": 42,
          "time": 161.02923999999965,
          "velocity": 0.7480314960629921,
          "duration": 0.22058799999999223
        },
        {
          "name": "F#1",
          "midi": 30,
          "time": 161.24982799999964,
          "velocity": 0.7480314960629921,
          "duration": 0.22058799999999223
        },
        {
          "name": "F#1",
          "midi": 30,
          "time": 161.47041599999963,
          "velocity": 0.7480314960629921,
          "duration": 0.22058799999999223
        },
        {
          "name": "F#1",
          "midi": 30,
          "time": 161.69100399999962,
          "velocity": 0.7480314960629921,
          "duration": 0.22058799999999223
        },
        {
          "name": "F#2",
          "midi": 42,
          "time": 161.91159199999962,
          "velocity": 0.7480314960629921,
          "duration": 0.22058799999999223
        },
        {
          "name": "F#1",
          "midi": 30,
          "time": 162.1321799999996,
          "velocity": 0.7480314960629921,
          "duration": 0.22058799999999223
        },
        {
          "name": "F#2",
          "midi": 42,
          "time": 162.3527679999996,
          "velocity": 0.7480314960629921,
          "duration": 0.22058799999999223
        },
        {
          "name": "F#1",
          "midi": 30,
          "time": 162.5733559999996,
          "velocity": 0.7480314960629921,
          "duration": 0.22058799999999223
        },
        {
          "name": "F#2",
          "midi": 42,
          "time": 162.79394399999958,
          "velocity": 0.7480314960629921,
          "duration": 0.22058799999999223
        },
        {
          "name": "F#1",
          "midi": 30,
          "time": 163.01453199999958,
          "velocity": 0.7480314960629921,
          "duration": 0.22058799999999223
        },
        {
          "name": "F#2",
          "midi": 42,
          "time": 163.23511999999957,
          "velocity": 0.7480314960629921,
          "duration": 0.22058799999999223
        },
        {
          "name": "F#1",
          "midi": 30,
          "time": 163.45570799999956,
          "velocity": 0.7480314960629921,
          "duration": 0.22058799999999223
        },
        {
          "name": "F#2",
          "midi": 42,
          "time": 163.67629599999955,
          "velocity": 0.7480314960629921,
          "duration": 0.22058799999999223
        },
        {
          "name": "F#1",
          "midi": 30,
          "time": 163.89688399999955,
          "velocity": 0.7480314960629921,
          "duration": 0.22058799999999223
        },
        {
          "name": "G1",
          "midi": 31,
          "time": 164.11747199999954,
          "velocity": 0.7480314960629921,
          "duration": 0.22058799999999223
        },
        {
          "name": "G1",
          "midi": 31,
          "time": 164.33805999999953,
          "velocity": 0.7480314960629921,
          "duration": 0.22058799999999223
        },
        {
          "name": "G2",
          "midi": 43,
          "time": 164.55864799999952,
          "velocity": 0.7480314960629921,
          "duration": 0.22058799999999223
        },
        {
          "name": "G1",
          "midi": 31,
          "time": 164.7792359999995,
          "velocity": 0.7480314960629921,
          "duration": 0.22058799999999223
        },
        {
          "name": "G1",
          "midi": 31,
          "time": 164.9998239999995,
          "velocity": 0.7480314960629921,
          "duration": 0.22058799999999223
        },
        {
          "name": "G1",
          "midi": 31,
          "time": 165.2204119999995,
          "velocity": 0.7480314960629921,
          "duration": 0.22058799999999223
        },
        {
          "name": "G2",
          "midi": 43,
          "time": 165.4409999999995,
          "velocity": 0.7480314960629921,
          "duration": 0.22058799999999223
        },
        {
          "name": "G1",
          "midi": 31,
          "time": 165.66158799999948,
          "velocity": 0.7480314960629921,
          "duration": 0.22058799999999223
        },
        {
          "name": "G2",
          "midi": 43,
          "time": 165.88217599999948,
          "velocity": 0.7480314960629921,
          "duration": 0.22058799999999223
        },
        {
          "name": "G1",
          "midi": 31,
          "time": 166.10276399999947,
          "velocity": 0.7480314960629921,
          "duration": 0.22058799999999223
        },
        {
          "name": "G2",
          "midi": 43,
          "time": 166.32335199999946,
          "velocity": 0.7480314960629921,
          "duration": 0.22058799999999223
        },
        {
          "name": "G1",
          "midi": 31,
          "time": 166.54393999999945,
          "velocity": 0.7480314960629921,
          "duration": 0.22058799999999223
        },
        {
          "name": "G2",
          "midi": 43,
          "time": 166.76452799999944,
          "velocity": 0.7480314960629921,
          "duration": 0.22058799999999223
        },
        {
          "name": "G1",
          "midi": 31,
          "time": 166.98511599999944,
          "velocity": 0.7480314960629921,
          "duration": 0.22058799999999223
        },
        {
          "name": "G2",
          "midi": 43,
          "time": 167.20570399999943,
          "velocity": 0.7480314960629921,
          "duration": 0.22058799999999223
        },
        {
          "name": "G1",
          "midi": 31,
          "time": 167.42629199999942,
          "velocity": 0.7480314960629921,
          "duration": 0.22058799999999223
        },
        {
          "name": "D1",
          "midi": 26,
          "time": 167.6468799999994,
          "velocity": 0.7480314960629921,
          "duration": 0.22058799999999223
        },
        {
          "name": "D1",
          "midi": 26,
          "time": 167.8674679999994,
          "velocity": 0.7480314960629921,
          "duration": 0.22058799999999223
        },
        {
          "name": "D2",
          "midi": 38,
          "time": 168.0880559999994,
          "velocity": 0.7480314960629921,
          "duration": 0.22058799999999223
        },
        {
          "name": "D1",
          "midi": 26,
          "time": 168.3086439999994,
          "velocity": 0.7480314960629921,
          "duration": 0.22058799999999223
        },
        {
          "name": "D1",
          "midi": 26,
          "time": 168.52923199999938,
          "velocity": 0.7480314960629921,
          "duration": 0.22058799999999223
        },
        {
          "name": "D1",
          "midi": 26,
          "time": 168.74981999999937,
          "velocity": 0.7480314960629921,
          "duration": 0.22058799999999223
        },
        {
          "name": "D2",
          "midi": 38,
          "time": 168.97040799999937,
          "velocity": 0.7480314960629921,
          "duration": 0.22058799999999223
        },
        {
          "name": "D1",
          "midi": 26,
          "time": 169.19099599999936,
          "velocity": 0.7480314960629921,
          "duration": 0.22058799999999223
        },
        {
          "name": "D1",
          "midi": 26,
          "time": 169.41158399999935,
          "velocity": 0.7480314960629921,
          "duration": 0.22058799999999223
        },
        {
          "name": "D1",
          "midi": 26,
          "time": 169.63217199999934,
          "velocity": 0.7480314960629921,
          "duration": 0.22058799999999223
        },
        {
          "name": "D2",
          "midi": 38,
          "time": 169.85275999999934,
          "velocity": 0.7480314960629921,
          "duration": 0.22058799999999223
        },
        {
          "name": "D1",
          "midi": 26,
          "time": 170.07334799999933,
          "velocity": 0.7480314960629921,
          "duration": 0.22058799999999223
        },
        {
          "name": "D1",
          "midi": 26,
          "time": 170.29393599999932,
          "velocity": 0.7480314960629921,
          "duration": 0.22058799999999223
        },
        {
          "name": "D1",
          "midi": 26,
          "time": 170.5145239999993,
          "velocity": 0.7480314960629921,
          "duration": 0.22058799999999223
        },
        {
          "name": "D2",
          "midi": 38,
          "time": 170.7351119999993,
          "velocity": 0.7480314960629921,
          "duration": 0.22058799999999223
        },
        {
          "name": "D1",
          "midi": 26,
          "time": 170.9556999999993,
          "velocity": 0.7480314960629921,
          "duration": 0.22058799999999223
        },
        {
          "name": "F#1",
          "midi": 30,
          "time": 171.1762879999993,
          "velocity": 0.7480314960629921,
          "duration": 0.22058799999999223
        },
        {
          "name": "F#1",
          "midi": 30,
          "time": 171.39687599999928,
          "velocity": 0.7480314960629921,
          "duration": 0.22058799999999223
        },
        {
          "name": "F#2",
          "midi": 42,
          "time": 171.61746399999927,
          "velocity": 0.7480314960629921,
          "duration": 0.22058799999999223
        },
        {
          "name": "F#1",
          "midi": 30,
          "time": 171.83805199999927,
          "velocity": 0.7480314960629921,
          "duration": 0.22058799999999223
        },
        {
          "name": "F#1",
          "midi": 30,
          "time": 172.05863999999926,
          "velocity": 0.7480314960629921,
          "duration": 0.22058799999999223
        },
        {
          "name": "F#1",
          "midi": 30,
          "time": 172.27922799999925,
          "velocity": 0.7480314960629921,
          "duration": 0.22058799999999223
        },
        {
          "name": "F#2",
          "midi": 42,
          "time": 172.49981599999924,
          "velocity": 0.7480314960629921,
          "duration": 0.22058799999999223
        },
        {
          "name": "F#1",
          "midi": 30,
          "time": 172.72040399999923,
          "velocity": 0.7480314960629921,
          "duration": 0.22058799999999223
        },
        {
          "name": "F#1",
          "midi": 30,
          "time": 172.94099199999923,
          "velocity": 0.7480314960629921,
          "duration": 0.22058799999999223
        },
        {
          "name": "F#1",
          "midi": 30,
          "time": 173.16157999999922,
          "velocity": 0.7480314960629921,
          "duration": 0.22058799999999223
        },
        {
          "name": "F#2",
          "midi": 42,
          "time": 173.3821679999992,
          "velocity": 0.7480314960629921,
          "duration": 0.22058799999999223
        },
        {
          "name": "F#1",
          "midi": 30,
          "time": 173.6027559999992,
          "velocity": 0.7480314960629921,
          "duration": 0.22058799999999223
        },
        {
          "name": "F#1",
          "midi": 30,
          "time": 173.8233439999992,
          "velocity": 0.7480314960629921,
          "duration": 0.22058799999999223
        },
        {
          "name": "F#1",
          "midi": 30,
          "time": 174.0439319999992,
          "velocity": 0.7480314960629921,
          "duration": 0.22058799999999223
        },
        {
          "name": "F#2",
          "midi": 42,
          "time": 174.26451999999918,
          "velocity": 0.7480314960629921,
          "duration": 0.22058799999999223
        },
        {
          "name": "F#1",
          "midi": 30,
          "time": 174.48510799999917,
          "velocity": 0.7480314960629921,
          "duration": 0.22058799999999223
        },
        {
          "name": "G1",
          "midi": 31,
          "time": 174.70569599999916,
          "velocity": 0.7480314960629921,
          "duration": 0.22058799999999223
        },
        {
          "name": "G1",
          "midi": 31,
          "time": 174.92628399999916,
          "velocity": 0.7480314960629921,
          "duration": 0.22058799999999223
        },
        {
          "name": "G2",
          "midi": 43,
          "time": 175.14687199999915,
          "velocity": 0.7480314960629921,
          "duration": 0.22058799999999223
        },
        {
          "name": "G1",
          "midi": 31,
          "time": 175.36745999999914,
          "velocity": 0.7480314960629921,
          "duration": 0.22058799999999223
        },
        {
          "name": "G1",
          "midi": 31,
          "time": 175.58804799999913,
          "velocity": 0.7480314960629921,
          "duration": 0.22058799999999223
        },
        {
          "name": "G1",
          "midi": 31,
          "time": 175.80863599999913,
          "velocity": 0.7480314960629921,
          "duration": 0.22058799999999223
        },
        {
          "name": "G2",
          "midi": 43,
          "time": 176.02922399999912,
          "velocity": 0.7480314960629921,
          "duration": 0.22058799999999223
        },
        {
          "name": "G1",
          "midi": 31,
          "time": 176.2498119999991,
          "velocity": 0.7480314960629921,
          "duration": 0.22058799999999223
        },
        {
          "name": "G1",
          "midi": 31,
          "time": 176.4703999999991,
          "velocity": 0.7480314960629921,
          "duration": 0.22058799999999223
        },
        {
          "name": "G1",
          "midi": 31,
          "time": 176.6909879999991,
          "velocity": 0.7480314960629921,
          "duration": 0.22058799999999223
        },
        {
          "name": "G2",
          "midi": 43,
          "time": 176.9115759999991,
          "velocity": 0.7480314960629921,
          "duration": 0.22058799999999223
        },
        {
          "name": "G1",
          "midi": 31,
          "time": 177.13216399999908,
          "velocity": 0.7480314960629921,
          "duration": 0.22058799999999223
        },
        {
          "name": "G1",
          "midi": 31,
          "time": 177.35275199999907,
          "velocity": 0.7480314960629921,
          "duration": 0.22058799999999223
        },
        {
          "name": "G1",
          "midi": 31,
          "time": 177.57333999999906,
          "velocity": 0.7480314960629921,
          "duration": 0.22058799999999223
        },
        {
          "name": "G2",
          "midi": 43,
          "time": 177.79392799999906,
          "velocity": 0.7480314960629921,
          "duration": 0.22058799999999223
        },
        {
          "name": "G1",
          "midi": 31,
          "time": 178.01451599999905,
          "velocity": 0.7480314960629921,
          "duration": 0.22058799999999223
        },
        {
          "name": "D2",
          "midi": 38,
          "time": 178.23510399999904,
          "velocity": 0.7480314960629921,
          "duration": 0.22058799999999223
        },
        {
          "name": "D1",
          "midi": 26,
          "time": 178.45569199999903,
          "velocity": 0.7480314960629921,
          "duration": 0.22058799999999223
        },
        {
          "name": "D2",
          "midi": 38,
          "time": 178.67627999999902,
          "velocity": 0.7480314960629921,
          "duration": 0.22058799999999223
        },
        {
          "name": "D1",
          "midi": 26,
          "time": 178.89686799999902,
          "velocity": 0.7480314960629921,
          "duration": 0.22058799999999223
        },
        {
          "name": "D2",
          "midi": 38,
          "time": 179.117455999999,
          "velocity": 0.7480314960629921,
          "duration": 0.22058799999999223
        },
        {
          "name": "D1",
          "midi": 26,
          "time": 179.338043999999,
          "velocity": 0.7480314960629921,
          "duration": 0.22058799999999223
        },
        {
          "name": "D2",
          "midi": 38,
          "time": 179.558631999999,
          "velocity": 0.7480314960629921,
          "duration": 0.22058799999999223
        },
        {
          "name": "D1",
          "midi": 26,
          "time": 179.779219999999,
          "velocity": 0.7480314960629921,
          "duration": 0.22058799999999223
        },
        {
          "name": "D2",
          "midi": 38,
          "time": 179.99980799999898,
          "velocity": 0.7480314960629921,
          "duration": 0.22058799999999223
        },
        {
          "name": "D1",
          "midi": 26,
          "time": 180.22039599999897,
          "velocity": 0.7480314960629921,
          "duration": 0.22058799999999223
        },
        {
          "name": "D2",
          "midi": 38,
          "time": 180.44098399999896,
          "velocity": 0.7480314960629921,
          "duration": 0.22058799999999223
        },
        {
          "name": "D1",
          "midi": 26,
          "time": 180.66157199999896,
          "velocity": 0.7480314960629921,
          "duration": 0.22058799999999223
        },
        {
          "name": "D2",
          "midi": 38,
          "time": 180.88215999999895,
          "velocity": 0.7480314960629921,
          "duration": 0.22058799999999223
        },
        {
          "name": "D1",
          "midi": 26,
          "time": 181.10274799999894,
          "velocity": 0.7480314960629921,
          "duration": 0.22058799999999223
        },
        {
          "name": "D2",
          "midi": 38,
          "time": 181.32333599999893,
          "velocity": 0.7480314960629921,
          "duration": 0.22058799999999223
        },
        {
          "name": "D1",
          "midi": 26,
          "time": 181.54392399999892,
          "velocity": 0.7480314960629921,
          "duration": 0.22058799999999223
        },
        {
          "name": "F#2",
          "midi": 42,
          "time": 181.76451199999892,
          "velocity": 0.7480314960629921,
          "duration": 0.4411760000000129
        },
        {
          "name": "F#3",
          "midi": 54,
          "time": 182.20568799999893,
          "velocity": 0.7480314960629921,
          "duration": 0.33088200000000256
        },
        {
          "name": "F#3",
          "midi": 54,
          "time": 182.53656999999893,
          "velocity": 0.7480314960629921,
          "duration": 0.11029400000001033
        },
        {
          "name": "F#2",
          "midi": 42,
          "time": 182.64686399999894,
          "velocity": 0.7480314960629921,
          "duration": 0.11029400000001033
        },
        {
          "name": "F#2",
          "midi": 42,
          "time": 182.86745199999896,
          "velocity": 0.7480314960629921,
          "duration": 0.22058799999999223
        },
        {
          "name": "C#3",
          "midi": 49,
          "time": 183.08803999999895,
          "velocity": 0.7480314960629921,
          "duration": 0.22058799999999223
        },
        {
          "name": "F#3",
          "midi": 54,
          "time": 183.30862799999895,
          "velocity": 0.7480314960629921,
          "duration": 0.22058799999999223
        },
        {
          "name": "F#2",
          "midi": 42,
          "time": 183.52921599999894,
          "velocity": 0.7480314960629921,
          "duration": 0.4411760000000129
        },
        {
          "name": "F#3",
          "midi": 54,
          "time": 183.97039199999895,
          "velocity": 0.7480314960629921,
          "duration": 0.33088200000000256
        },
        {
          "name": "F#3",
          "midi": 54,
          "time": 184.30127399999895,
          "velocity": 0.7480314960629921,
          "duration": 0.11029400000001033
        },
        {
          "name": "F#2",
          "midi": 42,
          "time": 184.41156799999897,
          "velocity": 0.7480314960629921,
          "duration": 0.11029400000001033
        },
        {
          "name": "F#2",
          "midi": 42,
          "time": 184.632155999999,
          "velocity": 0.7480314960629921,
          "duration": 0.22058799999999223
        },
        {
          "name": "C#3",
          "midi": 49,
          "time": 184.85274399999898,
          "velocity": 0.7480314960629921,
          "duration": 0.22058799999999223
        },
        {
          "name": "F#3",
          "midi": 54,
          "time": 185.07333199999897,
          "velocity": 0.7480314960629921,
          "duration": 0.22058799999999223
        },
        {
          "name": "G2",
          "midi": 43,
          "time": 185.29391999999896,
          "velocity": 0.7480314960629921,
          "duration": 0.4411760000000129
        },
        {
          "name": "G3",
          "midi": 55,
          "time": 185.73509599999898,
          "velocity": 0.7480314960629921,
          "duration": 0.33088200000000256
        },
        {
          "name": "G3",
          "midi": 55,
          "time": 186.06597799999898,
          "velocity": 0.7480314960629921,
          "duration": 0.11029400000001033
        },
        {
          "name": "G2",
          "midi": 43,
          "time": 186.176271999999,
          "velocity": 0.7480314960629921,
          "duration": 0.11029400000001033
        },
        {
          "name": "G2",
          "midi": 43,
          "time": 186.396859999999,
          "velocity": 0.7480314960629921,
          "duration": 0.22058799999999223
        },
        {
          "name": "D3",
          "midi": 50,
          "time": 186.617447999999,
          "velocity": 0.7480314960629921,
          "duration": 0.22058799999999223
        },
        {
          "name": "G3",
          "midi": 55,
          "time": 186.838035999999,
          "velocity": 0.7480314960629921,
          "duration": 0.22058799999999223
        },
        {
          "name": "G2",
          "midi": 43,
          "time": 187.05862399999899,
          "velocity": 0.7480314960629921,
          "duration": 0.4411760000000129
        },
        {
          "name": "G3",
          "midi": 55,
          "time": 187.499799999999,
          "velocity": 0.7480314960629921,
          "duration": 0.33088200000000256
        },
        {
          "name": "G3",
          "midi": 55,
          "time": 187.830681999999,
          "velocity": 0.7480314960629921,
          "duration": 0.11029400000001033
        },
        {
          "name": "G2",
          "midi": 43,
          "time": 187.940975999999,
          "velocity": 0.7480314960629921,
          "duration": 0.11029400000001033
        },
        {
          "name": "G2",
          "midi": 43,
          "time": 188.16156399999903,
          "velocity": 0.7480314960629921,
          "duration": 0.22058799999999223
        },
        {
          "name": "D3",
          "midi": 50,
          "time": 188.38215199999902,
          "velocity": 0.7480314960629921,
          "duration": 0.22058799999999223
        },
        {
          "name": "G3",
          "midi": 55,
          "time": 188.60273999999902,
          "velocity": 0.7480314960629921,
          "duration": 0.22058799999999223
        },
        {
          "name": "D2",
          "midi": 38,
          "time": 188.823327999999,
          "velocity": 0.7480314960629921,
          "duration": 0.4411760000000129
        },
        {
          "name": "D3",
          "midi": 50,
          "time": 189.26450399999902,
          "velocity": 0.7480314960629921,
          "duration": 0.33088200000000256
        },
        {
          "name": "D3",
          "midi": 50,
          "time": 189.59538599999902,
          "velocity": 0.7480314960629921,
          "duration": 0.11029400000001033
        },
        {
          "name": "D2",
          "midi": 38,
          "time": 189.70567999999903,
          "velocity": 0.7480314960629921,
          "duration": 0.11029400000001033
        },
        {
          "name": "D2",
          "midi": 38,
          "time": 189.92626799999906,
          "velocity": 0.7480314960629921,
          "duration": 0.22058799999999223
        },
        {
          "name": "A2",
          "midi": 45,
          "time": 190.14685599999905,
          "velocity": 0.7480314960629921,
          "duration": 0.22058799999999223
        },
        {
          "name": "D3",
          "midi": 50,
          "time": 190.36744399999904,
          "velocity": 0.7480314960629921,
          "duration": 0.22058799999999223
        },
        {
          "name": "D2",
          "midi": 38,
          "time": 190.58803199999903,
          "velocity": 0.7480314960629921,
          "duration": 0.4411760000000129
        },
        {
          "name": "D3",
          "midi": 50,
          "time": 191.02920799999904,
          "velocity": 0.7480314960629921,
          "duration": 0.33088200000000256
        },
        {
          "name": "D3",
          "midi": 50,
          "time": 191.36008999999905,
          "velocity": 0.7480314960629921,
          "duration": 0.11029400000001033
        },
        {
          "name": "D2",
          "midi": 38,
          "time": 191.47038399999906,
          "velocity": 0.7480314960629921,
          "duration": 0.11029400000001033
        },
        {
          "name": "D2",
          "midi": 38,
          "time": 191.69097199999908,
          "velocity": 0.7480314960629921,
          "duration": 0.22058799999999223
        },
        {
          "name": "A2",
          "midi": 45,
          "time": 191.91155999999907,
          "velocity": 0.7480314960629921,
          "duration": 0.22058799999999223
        },
        {
          "name": "D3",
          "midi": 50,
          "time": 192.13214799999906,
          "velocity": 0.7480314960629921,
          "duration": 0.22058799999999223
        },
        {
          "name": "F#2",
          "midi": 42,
          "time": 192.35273599999906,
          "velocity": 0.7480314960629921,
          "duration": 0.4411760000000129
        },
        {
          "name": "F#3",
          "midi": 54,
          "time": 192.79391199999907,
          "velocity": 0.7480314960629921,
          "duration": 0.33088200000000256
        },
        {
          "name": "F#3",
          "midi": 54,
          "time": 193.12479399999907,
          "velocity": 0.7480314960629921,
          "duration": 0.11029400000001033
        },
        {
          "name": "F#2",
          "midi": 42,
          "time": 193.23508799999908,
          "velocity": 0.7480314960629921,
          "duration": 0.11029400000001033
        },
        {
          "name": "F#2",
          "midi": 42,
          "time": 193.4556759999991,
          "velocity": 0.7480314960629921,
          "duration": 0.22058799999999223
        },
        {
          "name": "C#3",
          "midi": 49,
          "time": 193.6762639999991,
          "velocity": 0.7480314960629921,
          "duration": 0.22058799999999223
        },
        {
          "name": "F#3",
          "midi": 54,
          "time": 193.8968519999991,
          "velocity": 0.7480314960629921,
          "duration": 0.22058799999999223
        },
        {
          "name": "F#2",
          "midi": 42,
          "time": 194.11743999999908,
          "velocity": 0.7480314960629921,
          "duration": 0.4411760000000129
        },
        {
          "name": "F#3",
          "midi": 54,
          "time": 194.5586159999991,
          "velocity": 0.7480314960629921,
          "duration": 0.33088200000000256
        },
        {
          "name": "F#3",
          "midi": 54,
          "time": 194.8894979999991,
          "velocity": 0.7480314960629921,
          "duration": 0.11029400000001033
        },
        {
          "name": "F#2",
          "midi": 42,
          "time": 194.9997919999991,
          "velocity": 0.7480314960629921,
          "duration": 0.11029400000001033
        },
        {
          "name": "F#2",
          "midi": 42,
          "time": 195.22037999999912,
          "velocity": 0.7480314960629921,
          "duration": 0.22058799999999223
        },
        {
          "name": "C#3",
          "midi": 49,
          "time": 195.44096799999912,
          "velocity": 0.7480314960629921,
          "duration": 0.22058799999999223
        },
        {
          "name": "F#3",
          "midi": 54,
          "time": 195.6615559999991,
          "velocity": 0.7480314960629921,
          "duration": 0.22058799999999223
        },
        {
          "name": "G2",
          "midi": 43,
          "time": 195.8821439999991,
          "velocity": 0.7480314960629921,
          "duration": 3.5294079999999894
        }
      ],
      "controlChanges": {
        "6": [
          {
            "number": 6,
            "time": 0,
            "value": 0.09448818897637795
          },
          {
            "number": 6,
            "time": 0,
            "value": 0.5039370078740157
          },
          {
            "number": 6,
            "time": 0,
            "value": 0.09448818897637795
          },
          {
            "number": 6,
            "time": 0,
            "value": 0.5039370078740157
          },
          {
            "number": 6,
            "time": 0,
            "value": 0.5039370078740157
          },
          {
            "number": 6,
            "time": 0,
            "value": 0.5039370078740157
          }
        ],
        "7": [
          {
            "number": 7,
            "time": 0,
            "value": 0.7559055118110236
          },
          {
            "number": 7,
            "time": 0,
            "value": 0.7559055118110236
          }
        ],
        "10": [
          {
            "number": 10,
            "time": 0,
            "value": 0.4409448818897638
          },
          {
            "number": 10,
            "time": 0,
            "value": 0.4409448818897638
          }
        ],
        "38": [
          {
            "number": 38,
            "time": 0,
            "value": 0
          },
          {
            "number": 38,
            "time": 0,
            "value": 0
          }
        ],
        "91": [
          {
            "number": 91,
            "time": 0,
            "value": 0
          },
          {
            "number": 91,
            "time": 0,
            "value": 0
          }
        ],
        "92": [
          {
            "number": 92,
            "time": 0,
            "value": 0
          },
          {
            "number": 92,
            "time": 0,
            "value": 0
          }
        ],
        "93": [
          {
            "number": 93,
            "time": 0,
            "value": 0
          },
          {
            "number": 93,
            "time": 0,
            "value": 0
          }
        ],
        "95": [
          {
            "number": 95,
            "time": 0,
            "value": 0
          },
          {
            "number": 95,
            "time": 0,
            "value": 0
          }
        ],
        "100": [
          {
            "number": 100,
            "time": 0,
            "value": 0
          },
          {
            "number": 100,
            "time": 0,
            "value": 0.007874015748031496
          },
          {
            "number": 100,
            "time": 0,
            "value": 1
          },
          {
            "number": 100,
            "time": 0,
            "value": 0
          },
          {
            "number": 100,
            "time": 0,
            "value": 0.007874015748031496
          },
          {
            "number": 100,
            "time": 0,
            "value": 1
          },
          {
            "number": 100,
            "time": 0,
            "value": 0.015748031496062992
          },
          {
            "number": 100,
            "time": 0,
            "value": 1
          },
          {
            "number": 100,
            "time": 0,
            "value": 0.015748031496062992
          },
          {
            "number": 100,
            "time": 0,
            "value": 1
          }
        ],
        "101": [
          {
            "number": 101,
            "time": 0,
            "value": 0
          },
          {
            "number": 101,
            "time": 0,
            "value": 0
          },
          {
            "number": 101,
            "time": 0,
            "value": 1
          },
          {
            "number": 101,
            "time": 0,
            "value": 0
          },
          {
            "number": 101,
            "time": 0,
            "value": 0
          },
          {
            "number": 101,
            "time": 0,
            "value": 1
          },
          {
            "number": 101,
            "time": 0,
            "value": 0
          },
          {
            "number": 101,
            "time": 0,
            "value": 1
          },
          {
            "number": 101,
            "time": 0,
            "value": 0
          },
          {
            "number": 101,
            "time": 0,
            "value": 1
          }
        ]
      }
    },
    {
      "startTime": 40.588192,
      "duration": 128.82339199999979,
      "length": 28,
      "id": 5,
      "name": "Synth arpeggios",
      "instrumentNumber": 90,
      "instrument": "pad 3 (polysynth)",
      "instrumentFamily": "synth pad",
      "channelNumber": 8,
      "isPercussion": false,
      "notes": [
        {
          "name": "A5",
          "midi": 81,
          "time": 40.588192,
          "velocity": 0.7480314960629921,
          "duration": 3.5294080000000037
        },
        {
          "name": "F#5",
          "midi": 78,
          "time": 40.80878,
          "velocity": 0.7480314960629921,
          "duration": 3.3088200000000043
        },
        {
          "name": "D5",
          "midi": 74,
          "time": 41.029368,
          "velocity": 0.7480314960629921,
          "duration": 3.088232000000005
        },
        {
          "name": "A#5",
          "midi": 82,
          "time": 44.1176,
          "velocity": 0.7480314960629921,
          "duration": 3.5294080000000037
        },
        {
          "name": "F#5",
          "midi": 78,
          "time": 44.338188,
          "velocity": 0.7480314960629921,
          "duration": 3.3088200000000043
        },
        {
          "name": "C#5",
          "midi": 73,
          "time": 44.558776,
          "velocity": 0.7480314960629921,
          "duration": 3.088232000000005
        },
        {
          "name": "B5",
          "midi": 83,
          "time": 47.64700800000001,
          "velocity": 0.7480314960629921,
          "duration": 3.5294080000000037
        },
        {
          "name": "G5",
          "midi": 79,
          "time": 47.867596000000006,
          "velocity": 0.7480314960629921,
          "duration": 3.3088200000000043
        },
        {
          "name": "D5",
          "midi": 74,
          "time": 48.088184000000005,
          "velocity": 0.7480314960629921,
          "duration": 3.088232000000005
        },
        {
          "name": "A5",
          "midi": 81,
          "time": 51.17641600000001,
          "velocity": 0.7480314960629921,
          "duration": 3.5294079999999965
        },
        {
          "name": "F#5",
          "midi": 78,
          "time": 51.39700400000001,
          "velocity": 0.7480314960629921,
          "duration": 3.308819999999997
        },
        {
          "name": "D5",
          "midi": 74,
          "time": 51.61759200000001,
          "velocity": 0.7480314960629921,
          "duration": 3.088231999999998
        },
        {
          "name": "B4",
          "midi": 71,
          "time": 100.58812800000001,
          "velocity": 0.7480314960629921,
          "duration": 3.5294080000000037
        },
        {
          "name": "A4",
          "midi": 69,
          "time": 104.11753600000002,
          "velocity": 0.7480314960629921,
          "duration": 3.5294079999998758
        },
        {
          "name": "A#4",
          "midi": 70,
          "time": 107.64694399999989,
          "velocity": 0.7480314960629921,
          "duration": 3.5294080000000037
        },
        {
          "name": "B4",
          "midi": 71,
          "time": 111.1763519999999,
          "velocity": 0.7480314960629921,
          "duration": 3.5294079999998758
        },
        {
          "name": "A5",
          "midi": 81,
          "time": 114.70575999999977,
          "velocity": 0.7480314960629921,
          "duration": 3.5294080000000037
        },
        {
          "name": "F#5",
          "midi": 78,
          "time": 114.92634799999978,
          "velocity": 0.7480314960629921,
          "duration": 3.308819999999997
        },
        {
          "name": "D5",
          "midi": 74,
          "time": 115.14693599999978,
          "velocity": 0.7480314960629921,
          "duration": 3.0882319999999908
        },
        {
          "name": "A#5",
          "midi": 82,
          "time": 118.23516799999977,
          "velocity": 0.7480314960629921,
          "duration": 3.5294080000000037
        },
        {
          "name": "F#5",
          "midi": 78,
          "time": 118.45575599999978,
          "velocity": 0.7480314960629921,
          "duration": 3.308819999999997
        },
        {
          "name": "C#5",
          "midi": 73,
          "time": 118.67634399999979,
          "velocity": 0.7480314960629921,
          "duration": 3.0882319999999908
        },
        {
          "name": "B5",
          "midi": 83,
          "time": 121.76457599999978,
          "velocity": 0.7480314960629921,
          "duration": 3.5294080000000037
        },
        {
          "name": "G5",
          "midi": 79,
          "time": 121.98516399999978,
          "velocity": 0.7480314960629921,
          "duration": 3.308819999999997
        },
        {
          "name": "D5",
          "midi": 74,
          "time": 122.20575199999979,
          "velocity": 0.7480314960629921,
          "duration": 3.0882319999999908
        },
        {
          "name": "A5",
          "midi": 81,
          "time": 125.29398399999978,
          "velocity": 0.7480314960629921,
          "duration": 3.5294080000000037
        },
        {
          "name": "F#5",
          "midi": 78,
          "time": 125.51457199999979,
          "velocity": 0.7480314960629921,
          "duration": 3.308819999999997
        },
        {
          "name": "D5",
          "midi": 74,
          "time": 125.7351599999998,
          "velocity": 0.7480314960629921,
          "duration": 3.0882319999999908
        }
      ],
      "controlChanges": {
        "6": [
          {
            "number": 6,
            "time": 0,
            "value": 0.09448818897637795
          },
          {
            "number": 6,
            "time": 0,
            "value": 0.5039370078740157
          },
          {
            "number": 6,
            "time": 0,
            "value": 0.09448818897637795
          },
          {
            "number": 6,
            "time": 0,
            "value": 0.5039370078740157
          },
          {
            "number": 6,
            "time": 0,
            "value": 0.5039370078740157
          },
          {
            "number": 6,
            "time": 0,
            "value": 0.5039370078740157
          }
        ],
        "7": [
          {
            "number": 7,
            "time": 0,
            "value": 0.6929133858267716
          },
          {
            "number": 7,
            "time": 0,
            "value": 0.6929133858267716
          },
          {
            "number": 7,
            "time": 40.588192,
            "value": 0.6929133858267716
          },
          {
            "number": 7,
            "time": 40.588192,
            "value": 0.6929133858267716
          },
          {
            "number": 7,
            "time": 40.80878,
            "value": 0.5669291338582677
          },
          {
            "number": 7,
            "time": 40.80878,
            "value": 0.5669291338582677
          },
          {
            "number": 7,
            "time": 41.029368,
            "value": 0.4409448818897638
          },
          {
            "number": 7,
            "time": 41.029368,
            "value": 0.4409448818897638
          },
          {
            "number": 7,
            "time": 42.352896,
            "value": 0.6929133858267716
          },
          {
            "number": 7,
            "time": 42.352896,
            "value": 0.6929133858267716
          },
          {
            "number": 7,
            "time": 44.1176,
            "value": 0.6929133858267716
          },
          {
            "number": 7,
            "time": 44.1176,
            "value": 0.6929133858267716
          },
          {
            "number": 7,
            "time": 44.338188,
            "value": 0.5669291338582677
          },
          {
            "number": 7,
            "time": 44.338188,
            "value": 0.5669291338582677
          },
          {
            "number": 7,
            "time": 44.558776,
            "value": 0.4409448818897638
          },
          {
            "number": 7,
            "time": 44.558776,
            "value": 0.4409448818897638
          },
          {
            "number": 7,
            "time": 45.882304000000005,
            "value": 0.6929133858267716
          },
          {
            "number": 7,
            "time": 45.882304000000005,
            "value": 0.6929133858267716
          },
          {
            "number": 7,
            "time": 47.64700800000001,
            "value": 0.6929133858267716
          },
          {
            "number": 7,
            "time": 47.64700800000001,
            "value": 0.6929133858267716
          },
          {
            "number": 7,
            "time": 47.867596000000006,
            "value": 0.5669291338582677
          },
          {
            "number": 7,
            "time": 47.867596000000006,
            "value": 0.5669291338582677
          },
          {
            "number": 7,
            "time": 48.088184000000005,
            "value": 0.4409448818897638
          },
          {
            "number": 7,
            "time": 48.088184000000005,
            "value": 0.4409448818897638
          },
          {
            "number": 7,
            "time": 49.41171200000001,
            "value": 0.6929133858267716
          },
          {
            "number": 7,
            "time": 49.41171200000001,
            "value": 0.6929133858267716
          },
          {
            "number": 7,
            "time": 51.17641600000001,
            "value": 0.6929133858267716
          },
          {
            "number": 7,
            "time": 51.17641600000001,
            "value": 0.6929133858267716
          },
          {
            "number": 7,
            "time": 51.39700400000001,
            "value": 0.5669291338582677
          },
          {
            "number": 7,
            "time": 51.39700400000001,
            "value": 0.5669291338582677
          },
          {
            "number": 7,
            "time": 51.61759200000001,
            "value": 0.4409448818897638
          },
          {
            "number": 7,
            "time": 51.61759200000001,
            "value": 0.4409448818897638
          },
          {
            "number": 7,
            "time": 100.58812800000001,
            "value": 0.6929133858267716
          },
          {
            "number": 7,
            "time": 100.58812800000001,
            "value": 0.6929133858267716
          },
          {
            "number": 7,
            "time": 104.11753600000002,
            "value": 0.6692913385826772
          },
          {
            "number": 7,
            "time": 104.11753600000002,
            "value": 0.6692913385826772
          },
          {
            "number": 7,
            "time": 104.22783000000001,
            "value": 0.6535433070866141
          },
          {
            "number": 7,
            "time": 104.22783000000001,
            "value": 0.6535433070866141
          },
          {
            "number": 7,
            "time": 104.33812400000001,
            "value": 0.6299212598425197
          },
          {
            "number": 7,
            "time": 104.33812400000001,
            "value": 0.6299212598425197
          },
          {
            "number": 7,
            "time": 104.448418,
            "value": 0.6062992125984252
          },
          {
            "number": 7,
            "time": 104.448418,
            "value": 0.6062992125984252
          },
          {
            "number": 7,
            "time": 104.558712,
            "value": 0.5905511811023622
          },
          {
            "number": 7,
            "time": 104.558712,
            "value": 0.5905511811023622
          },
          {
            "number": 7,
            "time": 104.669006,
            "value": 0.5669291338582677
          },
          {
            "number": 7,
            "time": 104.669006,
            "value": 0.5669291338582677
          },
          {
            "number": 7,
            "time": 104.77929999999999,
            "value": 0.5433070866141733
          },
          {
            "number": 7,
            "time": 104.77929999999999,
            "value": 0.5433070866141733
          },
          {
            "number": 7,
            "time": 104.88959399999999,
            "value": 0.5275590551181102
          },
          {
            "number": 7,
            "time": 104.88959399999999,
            "value": 0.5275590551181102
          },
          {
            "number": 7,
            "time": 104.99988799999998,
            "value": 0.5039370078740157
          },
          {
            "number": 7,
            "time": 104.99988799999998,
            "value": 0.5039370078740157
          },
          {
            "number": 7,
            "time": 105.11018199999998,
            "value": 0.48031496062992124
          },
          {
            "number": 7,
            "time": 105.11018199999998,
            "value": 0.48031496062992124
          },
          {
            "number": 7,
            "time": 105.22047599999998,
            "value": 0.4645669291338583
          },
          {
            "number": 7,
            "time": 105.22047599999998,
            "value": 0.4645669291338583
          },
          {
            "number": 7,
            "time": 105.33076999999997,
            "value": 0.4409448818897638
          },
          {
            "number": 7,
            "time": 105.33076999999997,
            "value": 0.4409448818897638
          },
          {
            "number": 7,
            "time": 105.44106399999997,
            "value": 0.41732283464566927
          },
          {
            "number": 7,
            "time": 105.44106399999997,
            "value": 0.41732283464566927
          },
          {
            "number": 7,
            "time": 105.55135799999996,
            "value": 0.4015748031496063
          },
          {
            "number": 7,
            "time": 105.55135799999996,
            "value": 0.4015748031496063
          },
          {
            "number": 7,
            "time": 105.66165199999996,
            "value": 0.3779527559055118
          },
          {
            "number": 7,
            "time": 105.66165199999996,
            "value": 0.3779527559055118
          },
          {
            "number": 7,
            "time": 105.77194599999996,
            "value": 0.3543307086614173
          },
          {
            "number": 7,
            "time": 105.77194599999996,
            "value": 0.3543307086614173
          },
          {
            "number": 7,
            "time": 105.88223999999995,
            "value": 0.33858267716535434
          },
          {
            "number": 7,
            "time": 105.88223999999995,
            "value": 0.33858267716535434
          },
          {
            "number": 7,
            "time": 105.99253399999995,
            "value": 0.31496062992125984
          },
          {
            "number": 7,
            "time": 105.99253399999995,
            "value": 0.31496062992125984
          },
          {
            "number": 7,
            "time": 106.10282799999995,
            "value": 0.29133858267716534
          },
          {
            "number": 7,
            "time": 106.10282799999995,
            "value": 0.29133858267716534
          },
          {
            "number": 7,
            "time": 106.21312199999994,
            "value": 0.2755905511811024
          },
          {
            "number": 7,
            "time": 106.21312199999994,
            "value": 0.2755905511811024
          },
          {
            "number": 7,
            "time": 106.32341599999994,
            "value": 0.25196850393700787
          },
          {
            "number": 7,
            "time": 106.32341599999994,
            "value": 0.25196850393700787
          },
          {
            "number": 7,
            "time": 106.43370999999993,
            "value": 0.2283464566929134
          },
          {
            "number": 7,
            "time": 106.43370999999993,
            "value": 0.2283464566929134
          },
          {
            "number": 7,
            "time": 106.54400399999993,
            "value": 0.2125984251968504
          },
          {
            "number": 7,
            "time": 106.54400399999993,
            "value": 0.2125984251968504
          },
          {
            "number": 7,
            "time": 106.65429799999993,
            "value": 0.1889763779527559
          },
          {
            "number": 7,
            "time": 106.65429799999993,
            "value": 0.1889763779527559
          },
          {
            "number": 7,
            "time": 106.76459199999992,
            "value": 0.16535433070866143
          },
          {
            "number": 7,
            "time": 106.76459199999992,
            "value": 0.16535433070866143
          },
          {
            "number": 7,
            "time": 106.87488599999992,
            "value": 0.14960629921259844
          },
          {
            "number": 7,
            "time": 106.87488599999992,
            "value": 0.14960629921259844
          },
          {
            "number": 7,
            "time": 106.98517999999991,
            "value": 0.12598425196850394
          },
          {
            "number": 7,
            "time": 106.98517999999991,
            "value": 0.12598425196850394
          },
          {
            "number": 7,
            "time": 107.09547399999991,
            "value": 0.10236220472440945
          },
          {
            "number": 7,
            "time": 107.09547399999991,
            "value": 0.10236220472440945
          },
          {
            "number": 7,
            "time": 107.2057679999999,
            "value": 0.08661417322834646
          },
          {
            "number": 7,
            "time": 107.2057679999999,
            "value": 0.08661417322834646
          },
          {
            "number": 7,
            "time": 107.3160619999999,
            "value": 0.06299212598425197
          },
          {
            "number": 7,
            "time": 107.3160619999999,
            "value": 0.06299212598425197
          },
          {
            "number": 7,
            "time": 107.4263559999999,
            "value": 0.03937007874015748
          },
          {
            "number": 7,
            "time": 107.4263559999999,
            "value": 0.03937007874015748
          },
          {
            "number": 7,
            "time": 107.5366499999999,
            "value": 0.023622047244094488
          },
          {
            "number": 7,
            "time": 107.5366499999999,
            "value": 0.023622047244094488
          },
          {
            "number": 7,
            "time": 107.64694399999989,
            "value": 0
          },
          {
            "number": 7,
            "time": 107.64694399999989,
            "value": 0
          },
          {
            "number": 7,
            "time": 107.64694399999989,
            "value": 0.6929133858267716
          },
          {
            "number": 7,
            "time": 107.64694399999989,
            "value": 0.6929133858267716
          },
          {
            "number": 7,
            "time": 111.1763519999999,
            "value": 0.6692913385826772
          },
          {
            "number": 7,
            "time": 111.1763519999999,
            "value": 0.6692913385826772
          },
          {
            "number": 7,
            "time": 111.28664599999989,
            "value": 0.6535433070866141
          },
          {
            "number": 7,
            "time": 111.28664599999989,
            "value": 0.6535433070866141
          },
          {
            "number": 7,
            "time": 111.39693999999989,
            "value": 0.6299212598425197
          },
          {
            "number": 7,
            "time": 111.39693999999989,
            "value": 0.6299212598425197
          },
          {
            "number": 7,
            "time": 111.50723399999988,
            "value": 0.6062992125984252
          },
          {
            "number": 7,
            "time": 111.50723399999988,
            "value": 0.6062992125984252
          },
          {
            "number": 7,
            "time": 111.61752799999988,
            "value": 0.5905511811023622
          },
          {
            "number": 7,
            "time": 111.61752799999988,
            "value": 0.5905511811023622
          },
          {
            "number": 7,
            "time": 111.72782199999988,
            "value": 0.5669291338582677
          },
          {
            "number": 7,
            "time": 111.72782199999988,
            "value": 0.5669291338582677
          },
          {
            "number": 7,
            "time": 111.83811599999987,
            "value": 0.5433070866141733
          },
          {
            "number": 7,
            "time": 111.83811599999987,
            "value": 0.5433070866141733
          },
          {
            "number": 7,
            "time": 111.94840999999987,
            "value": 0.5275590551181102
          },
          {
            "number": 7,
            "time": 111.94840999999987,
            "value": 0.5275590551181102
          },
          {
            "number": 7,
            "time": 112.05870399999986,
            "value": 0.5039370078740157
          },
          {
            "number": 7,
            "time": 112.05870399999986,
            "value": 0.5039370078740157
          },
          {
            "number": 7,
            "time": 112.16899799999986,
            "value": 0.48031496062992124
          },
          {
            "number": 7,
            "time": 112.16899799999986,
            "value": 0.48031496062992124
          },
          {
            "number": 7,
            "time": 112.27929199999986,
            "value": 0.4645669291338583
          },
          {
            "number": 7,
            "time": 112.27929199999986,
            "value": 0.4645669291338583
          },
          {
            "number": 7,
            "time": 112.38958599999985,
            "value": 0.4409448818897638
          },
          {
            "number": 7,
            "time": 112.38958599999985,
            "value": 0.4409448818897638
          },
          {
            "number": 7,
            "time": 112.49987999999985,
            "value": 0.41732283464566927
          },
          {
            "number": 7,
            "time": 112.49987999999985,
            "value": 0.41732283464566927
          },
          {
            "number": 7,
            "time": 112.61017399999984,
            "value": 0.4015748031496063
          },
          {
            "number": 7,
            "time": 112.61017399999984,
            "value": 0.4015748031496063
          },
          {
            "number": 7,
            "time": 112.72046799999984,
            "value": 0.3779527559055118
          },
          {
            "number": 7,
            "time": 112.72046799999984,
            "value": 0.3779527559055118
          },
          {
            "number": 7,
            "time": 112.83076199999984,
            "value": 0.3543307086614173
          },
          {
            "number": 7,
            "time": 112.83076199999984,
            "value": 0.3543307086614173
          },
          {
            "number": 7,
            "time": 112.94105599999983,
            "value": 0.33858267716535434
          },
          {
            "number": 7,
            "time": 112.94105599999983,
            "value": 0.33858267716535434
          },
          {
            "number": 7,
            "time": 113.05134999999983,
            "value": 0.31496062992125984
          },
          {
            "number": 7,
            "time": 113.05134999999983,
            "value": 0.31496062992125984
          },
          {
            "number": 7,
            "time": 113.16164399999982,
            "value": 0.29133858267716534
          },
          {
            "number": 7,
            "time": 113.16164399999982,
            "value": 0.29133858267716534
          },
          {
            "number": 7,
            "time": 113.27193799999982,
            "value": 0.2755905511811024
          },
          {
            "number": 7,
            "time": 113.27193799999982,
            "value": 0.2755905511811024
          },
          {
            "number": 7,
            "time": 113.38223199999982,
            "value": 0.25196850393700787
          },
          {
            "number": 7,
            "time": 113.38223199999982,
            "value": 0.25196850393700787
          },
          {
            "number": 7,
            "time": 113.49252599999981,
            "value": 0.2283464566929134
          },
          {
            "number": 7,
            "time": 113.49252599999981,
            "value": 0.2283464566929134
          },
          {
            "number": 7,
            "time": 113.60281999999981,
            "value": 0.2125984251968504
          },
          {
            "number": 7,
            "time": 113.60281999999981,
            "value": 0.2125984251968504
          },
          {
            "number": 7,
            "time": 113.7131139999998,
            "value": 0.1889763779527559
          },
          {
            "number": 7,
            "time": 113.7131139999998,
            "value": 0.1889763779527559
          },
          {
            "number": 7,
            "time": 113.8234079999998,
            "value": 0.16535433070866143
          },
          {
            "number": 7,
            "time": 113.8234079999998,
            "value": 0.16535433070866143
          },
          {
            "number": 7,
            "time": 113.9337019999998,
            "value": 0.14960629921259844
          },
          {
            "number": 7,
            "time": 113.9337019999998,
            "value": 0.14960629921259844
          },
          {
            "number": 7,
            "time": 114.0439959999998,
            "value": 0.12598425196850394
          },
          {
            "number": 7,
            "time": 114.0439959999998,
            "value": 0.12598425196850394
          },
          {
            "number": 7,
            "time": 114.15428999999979,
            "value": 0.10236220472440945
          },
          {
            "number": 7,
            "time": 114.15428999999979,
            "value": 0.10236220472440945
          },
          {
            "number": 7,
            "time": 114.26458399999979,
            "value": 0.08661417322834646
          },
          {
            "number": 7,
            "time": 114.26458399999979,
            "value": 0.08661417322834646
          },
          {
            "number": 7,
            "time": 114.37487799999978,
            "value": 0.06299212598425197
          },
          {
            "number": 7,
            "time": 114.37487799999978,
            "value": 0.06299212598425197
          },
          {
            "number": 7,
            "time": 114.48517199999978,
            "value": 0.03937007874015748
          },
          {
            "number": 7,
            "time": 114.48517199999978,
            "value": 0.03937007874015748
          },
          {
            "number": 7,
            "time": 114.59546599999977,
            "value": 0.023622047244094488
          },
          {
            "number": 7,
            "time": 114.59546599999977,
            "value": 0.023622047244094488
          },
          {
            "number": 7,
            "time": 114.70575999999977,
            "value": 0
          },
          {
            "number": 7,
            "time": 114.70575999999977,
            "value": 0
          },
          {
            "number": 7,
            "time": 114.70575999999977,
            "value": 0.6929133858267716
          },
          {
            "number": 7,
            "time": 114.70575999999977,
            "value": 0.6929133858267716
          },
          {
            "number": 7,
            "time": 114.92634799999978,
            "value": 0.5669291338582677
          },
          {
            "number": 7,
            "time": 114.92634799999978,
            "value": 0.5669291338582677
          },
          {
            "number": 7,
            "time": 115.14693599999978,
            "value": 0.4409448818897638
          },
          {
            "number": 7,
            "time": 115.14693599999978,
            "value": 0.4409448818897638
          },
          {
            "number": 7,
            "time": 116.47046399999978,
            "value": 0.6929133858267716
          },
          {
            "number": 7,
            "time": 116.47046399999978,
            "value": 0.6929133858267716
          },
          {
            "number": 7,
            "time": 118.23516799999977,
            "value": 0.6929133858267716
          },
          {
            "number": 7,
            "time": 118.23516799999977,
            "value": 0.6929133858267716
          },
          {
            "number": 7,
            "time": 118.45575599999978,
            "value": 0.5669291338582677
          },
          {
            "number": 7,
            "time": 118.45575599999978,
            "value": 0.5669291338582677
          },
          {
            "number": 7,
            "time": 118.67634399999979,
            "value": 0.4409448818897638
          },
          {
            "number": 7,
            "time": 118.67634399999979,
            "value": 0.4409448818897638
          },
          {
            "number": 7,
            "time": 119.99987199999978,
            "value": 0.6929133858267716
          },
          {
            "number": 7,
            "time": 119.99987199999978,
            "value": 0.6929133858267716
          },
          {
            "number": 7,
            "time": 121.76457599999978,
            "value": 0.6929133858267716
          },
          {
            "number": 7,
            "time": 121.76457599999978,
            "value": 0.6929133858267716
          },
          {
            "number": 7,
            "time": 121.98516399999978,
            "value": 0.5669291338582677
          },
          {
            "number": 7,
            "time": 121.98516399999978,
            "value": 0.5669291338582677
          },
          {
            "number": 7,
            "time": 122.20575199999979,
            "value": 0.4409448818897638
          },
          {
            "number": 7,
            "time": 122.20575199999979,
            "value": 0.4409448818897638
          },
          {
            "number": 7,
            "time": 123.52927999999979,
            "value": 0.6929133858267716
          },
          {
            "number": 7,
            "time": 123.52927999999979,
            "value": 0.6929133858267716
          },
          {
            "number": 7,
            "time": 125.29398399999978,
            "value": 0.6929133858267716
          },
          {
            "number": 7,
            "time": 125.29398399999978,
            "value": 0.6929133858267716
          },
          {
            "number": 7,
            "time": 125.51457199999979,
            "value": 0.5669291338582677
          },
          {
            "number": 7,
            "time": 125.51457199999979,
            "value": 0.5669291338582677
          },
          {
            "number": 7,
            "time": 125.7351599999998,
            "value": 0.4409448818897638
          },
          {
            "number": 7,
            "time": 125.7351599999998,
            "value": 0.4409448818897638
          }
        ],
        "10": [
          {
            "number": 10,
            "time": 0,
            "value": 0
          },
          {
            "number": 10,
            "time": 0,
            "value": 0
          }
        ],
        "38": [
          {
            "number": 38,
            "time": 0,
            "value": 0
          },
          {
            "number": 38,
            "time": 0,
            "value": 0
          }
        ],
        "91": [
          {
            "number": 91,
            "time": 0,
            "value": 0
          },
          {
            "number": 91,
            "time": 0,
            "value": 0
          }
        ],
        "92": [
          {
            "number": 92,
            "time": 0,
            "value": 0
          },
          {
            "number": 92,
            "time": 0,
            "value": 0
          }
        ],
        "93": [
          {
            "number": 93,
            "time": 0,
            "value": 0
          },
          {
            "number": 93,
            "time": 0,
            "value": 0
          }
        ],
        "95": [
          {
            "number": 95,
            "time": 0,
            "value": 0
          },
          {
            "number": 95,
            "time": 0,
            "value": 0
          }
        ],
        "100": [
          {
            "number": 100,
            "time": 0,
            "value": 0
          },
          {
            "number": 100,
            "time": 0,
            "value": 0.007874015748031496
          },
          {
            "number": 100,
            "time": 0,
            "value": 1
          },
          {
            "number": 100,
            "time": 0,
            "value": 0
          },
          {
            "number": 100,
            "time": 0,
            "value": 0.007874015748031496
          },
          {
            "number": 100,
            "time": 0,
            "value": 1
          },
          {
            "number": 100,
            "time": 0,
            "value": 0.015748031496062992
          },
          {
            "number": 100,
            "time": 0,
            "value": 1
          },
          {
            "number": 100,
            "time": 0,
            "value": 0.015748031496062992
          },
          {
            "number": 100,
            "time": 0,
            "value": 1
          }
        ],
        "101": [
          {
            "number": 101,
            "time": 0,
            "value": 0
          },
          {
            "number": 101,
            "time": 0,
            "value": 0
          },
          {
            "number": 101,
            "time": 0,
            "value": 1
          },
          {
            "number": 101,
            "time": 0,
            "value": 0
          },
          {
            "number": 101,
            "time": 0,
            "value": 0
          },
          {
            "number": 101,
            "time": 0,
            "value": 1
          },
          {
            "number": 101,
            "time": 0,
            "value": 0
          },
          {
            "number": 101,
            "time": 0,
            "value": 1
          },
          {
            "number": 101,
            "time": 0,
            "value": 0
          },
          {
            "number": 101,
            "time": 0,
            "value": 1
          }
        ]
      }
    },
    {
      "startTime": 40.588192,
      "duration": 128.82339199999979,
      "length": 28,
      "id": 6,
      "name": "(synth panning fx)",
      "instrumentNumber": 90,
      "instrument": "pad 3 (polysynth)",
      "instrumentFamily": "synth pad",
      "channelNumber": 11,
      "isPercussion": false,
      "notes": [
        {
          "name": "A5",
          "midi": 81,
          "time": 40.588192,
          "velocity": 0.7480314960629921,
          "duration": 3.5294080000000037
        },
        {
          "name": "F#5",
          "midi": 78,
          "time": 40.80878,
          "velocity": 0.7480314960629921,
          "duration": 3.3088200000000043
        },
        {
          "name": "D5",
          "midi": 74,
          "time": 41.029368,
          "velocity": 0.7480314960629921,
          "duration": 3.088232000000005
        },
        {
          "name": "A#5",
          "midi": 82,
          "time": 44.1176,
          "velocity": 0.7480314960629921,
          "duration": 3.5294080000000037
        },
        {
          "name": "F#5",
          "midi": 78,
          "time": 44.338188,
          "velocity": 0.7480314960629921,
          "duration": 3.3088200000000043
        },
        {
          "name": "C#5",
          "midi": 73,
          "time": 44.558776,
          "velocity": 0.7480314960629921,
          "duration": 3.088232000000005
        },
        {
          "name": "B5",
          "midi": 83,
          "time": 47.64700800000001,
          "velocity": 0.7480314960629921,
          "duration": 3.5294080000000037
        },
        {
          "name": "G5",
          "midi": 79,
          "time": 47.867596000000006,
          "velocity": 0.7480314960629921,
          "duration": 3.3088200000000043
        },
        {
          "name": "D5",
          "midi": 74,
          "time": 48.088184000000005,
          "velocity": 0.7480314960629921,
          "duration": 3.088232000000005
        },
        {
          "name": "A5",
          "midi": 81,
          "time": 51.17641600000001,
          "velocity": 0.7480314960629921,
          "duration": 3.5294079999999965
        },
        {
          "name": "F#5",
          "midi": 78,
          "time": 51.39700400000001,
          "velocity": 0.7480314960629921,
          "duration": 3.308819999999997
        },
        {
          "name": "D5",
          "midi": 74,
          "time": 51.61759200000001,
          "velocity": 0.7480314960629921,
          "duration": 3.088231999999998
        },
        {
          "name": "B4",
          "midi": 71,
          "time": 100.58812800000001,
          "velocity": 0.7480314960629921,
          "duration": 3.5294079999998758
        },
        {
          "name": "A4",
          "midi": 69,
          "time": 104.11753599999989,
          "velocity": 0.7480314960629921,
          "duration": 3.5294080000000037
        },
        {
          "name": "A#4",
          "midi": 70,
          "time": 107.64694399999989,
          "velocity": 0.7480314960629921,
          "duration": 3.5294079999998758
        },
        {
          "name": "B4",
          "midi": 71,
          "time": 111.17635199999977,
          "velocity": 0.7480314960629921,
          "duration": 3.5294080000000037
        },
        {
          "name": "A5",
          "midi": 81,
          "time": 114.70575999999977,
          "velocity": 0.7480314960629921,
          "duration": 3.5294080000000037
        },
        {
          "name": "F#5",
          "midi": 78,
          "time": 114.92634799999978,
          "velocity": 0.7480314960629921,
          "duration": 3.308819999999997
        },
        {
          "name": "D5",
          "midi": 74,
          "time": 115.14693599999978,
          "velocity": 0.7480314960629921,
          "duration": 3.0882319999999908
        },
        {
          "name": "A#5",
          "midi": 82,
          "time": 118.23516799999977,
          "velocity": 0.7480314960629921,
          "duration": 3.5294080000000037
        },
        {
          "name": "F#5",
          "midi": 78,
          "time": 118.45575599999978,
          "velocity": 0.7480314960629921,
          "duration": 3.308819999999997
        },
        {
          "name": "C#5",
          "midi": 73,
          "time": 118.67634399999979,
          "velocity": 0.7480314960629921,
          "duration": 3.0882319999999908
        },
        {
          "name": "B5",
          "midi": 83,
          "time": 121.76457599999978,
          "velocity": 0.7480314960629921,
          "duration": 3.5294080000000037
        },
        {
          "name": "G5",
          "midi": 79,
          "time": 121.98516399999978,
          "velocity": 0.7480314960629921,
          "duration": 3.308819999999997
        },
        {
          "name": "D5",
          "midi": 74,
          "time": 122.20575199999979,
          "velocity": 0.7480314960629921,
          "duration": 3.0882319999999908
        },
        {
          "name": "A5",
          "midi": 81,
          "time": 125.29398399999978,
          "velocity": 0.7480314960629921,
          "duration": 3.5294080000000037
        },
        {
          "name": "F#5",
          "midi": 78,
          "time": 125.51457199999979,
          "velocity": 0.7480314960629921,
          "duration": 3.308819999999997
        },
        {
          "name": "D5",
          "midi": 74,
          "time": 125.7351599999998,
          "velocity": 0.7480314960629921,
          "duration": 3.0882319999999908
        }
      ],
      "controlChanges": {
        "6": [
          {
            "number": 6,
            "time": 0,
            "value": 0.09448818897637795
          },
          {
            "number": 6,
            "time": 0,
            "value": 0.5039370078740157
          },
          {
            "number": 6,
            "time": 0,
            "value": 0.09448818897637795
          },
          {
            "number": 6,
            "time": 0,
            "value": 0.5039370078740157
          },
          {
            "number": 6,
            "time": 0,
            "value": 0.5039370078740157
          },
          {
            "number": 6,
            "time": 0,
            "value": 0.5039370078740157
          }
        ],
        "7": [
          {
            "number": 7,
            "time": 0,
            "value": 0.6929133858267716
          },
          {
            "number": 7,
            "time": 0,
            "value": 0.6929133858267716
          },
          {
            "number": 7,
            "time": 40.588192,
            "value": 0.4409448818897638
          },
          {
            "number": 7,
            "time": 40.588192,
            "value": 0.4409448818897638
          },
          {
            "number": 7,
            "time": 40.80878,
            "value": 0.5669291338582677
          },
          {
            "number": 7,
            "time": 40.80878,
            "value": 0.5669291338582677
          },
          {
            "number": 7,
            "time": 41.029368,
            "value": 0.6929133858267716
          },
          {
            "number": 7,
            "time": 41.029368,
            "value": 0.6929133858267716
          },
          {
            "number": 7,
            "time": 42.352896,
            "value": 0.6929133858267716
          },
          {
            "number": 7,
            "time": 42.352896,
            "value": 0.6929133858267716
          },
          {
            "number": 7,
            "time": 44.1176,
            "value": 0.4409448818897638
          },
          {
            "number": 7,
            "time": 44.1176,
            "value": 0.4409448818897638
          },
          {
            "number": 7,
            "time": 44.338188,
            "value": 0.5669291338582677
          },
          {
            "number": 7,
            "time": 44.338188,
            "value": 0.5669291338582677
          },
          {
            "number": 7,
            "time": 44.558776,
            "value": 0.6929133858267716
          },
          {
            "number": 7,
            "time": 44.558776,
            "value": 0.6929133858267716
          },
          {
            "number": 7,
            "time": 45.882304000000005,
            "value": 0.6929133858267716
          },
          {
            "number": 7,
            "time": 45.882304000000005,
            "value": 0.6929133858267716
          },
          {
            "number": 7,
            "time": 47.64700800000001,
            "value": 0.4409448818897638
          },
          {
            "number": 7,
            "time": 47.64700800000001,
            "value": 0.4409448818897638
          },
          {
            "number": 7,
            "time": 47.867596000000006,
            "value": 0.5669291338582677
          },
          {
            "number": 7,
            "time": 47.867596000000006,
            "value": 0.5669291338582677
          },
          {
            "number": 7,
            "time": 48.088184000000005,
            "value": 0.6929133858267716
          },
          {
            "number": 7,
            "time": 48.088184000000005,
            "value": 0.6929133858267716
          },
          {
            "number": 7,
            "time": 49.41171200000001,
            "value": 0.6929133858267716
          },
          {
            "number": 7,
            "time": 49.41171200000001,
            "value": 0.6929133858267716
          },
          {
            "number": 7,
            "time": 51.17641600000001,
            "value": 0.4409448818897638
          },
          {
            "number": 7,
            "time": 51.17641600000001,
            "value": 0.4409448818897638
          },
          {
            "number": 7,
            "time": 51.39700400000001,
            "value": 0.5669291338582677
          },
          {
            "number": 7,
            "time": 51.39700400000001,
            "value": 0.5669291338582677
          },
          {
            "number": 7,
            "time": 51.61759200000001,
            "value": 0.6929133858267716
          },
          {
            "number": 7,
            "time": 51.61759200000001,
            "value": 0.6929133858267716
          },
          {
            "number": 7,
            "time": 100.58812800000001,
            "value": 0.6692913385826772
          },
          {
            "number": 7,
            "time": 100.58812800000001,
            "value": 0.6692913385826772
          },
          {
            "number": 7,
            "time": 100.69842200000001,
            "value": 0.6535433070866141
          },
          {
            "number": 7,
            "time": 100.69842200000001,
            "value": 0.6535433070866141
          },
          {
            "number": 7,
            "time": 100.808716,
            "value": 0.6299212598425197
          },
          {
            "number": 7,
            "time": 100.808716,
            "value": 0.6299212598425197
          },
          {
            "number": 7,
            "time": 100.91901,
            "value": 0.6062992125984252
          },
          {
            "number": 7,
            "time": 100.91901,
            "value": 0.6062992125984252
          },
          {
            "number": 7,
            "time": 101.029304,
            "value": 0.5905511811023622
          },
          {
            "number": 7,
            "time": 101.029304,
            "value": 0.5905511811023622
          },
          {
            "number": 7,
            "time": 101.13959799999999,
            "value": 0.5669291338582677
          },
          {
            "number": 7,
            "time": 101.13959799999999,
            "value": 0.5669291338582677
          },
          {
            "number": 7,
            "time": 101.24989199999999,
            "value": 0.5433070866141733
          },
          {
            "number": 7,
            "time": 101.24989199999999,
            "value": 0.5433070866141733
          },
          {
            "number": 7,
            "time": 101.36018599999998,
            "value": 0.5275590551181102
          },
          {
            "number": 7,
            "time": 101.36018599999998,
            "value": 0.5275590551181102
          },
          {
            "number": 7,
            "time": 101.47047999999998,
            "value": 0.5039370078740157
          },
          {
            "number": 7,
            "time": 101.47047999999998,
            "value": 0.5039370078740157
          },
          {
            "number": 7,
            "time": 101.58077399999998,
            "value": 0.48031496062992124
          },
          {
            "number": 7,
            "time": 101.58077399999998,
            "value": 0.48031496062992124
          },
          {
            "number": 7,
            "time": 101.69106799999997,
            "value": 0.4645669291338583
          },
          {
            "number": 7,
            "time": 101.69106799999997,
            "value": 0.4645669291338583
          },
          {
            "number": 7,
            "time": 101.80136199999997,
            "value": 0.4409448818897638
          },
          {
            "number": 7,
            "time": 101.80136199999997,
            "value": 0.4409448818897638
          },
          {
            "number": 7,
            "time": 101.91165599999997,
            "value": 0.41732283464566927
          },
          {
            "number": 7,
            "time": 101.91165599999997,
            "value": 0.41732283464566927
          },
          {
            "number": 7,
            "time": 102.02194999999996,
            "value": 0.4015748031496063
          },
          {
            "number": 7,
            "time": 102.02194999999996,
            "value": 0.4015748031496063
          },
          {
            "number": 7,
            "time": 102.13224399999996,
            "value": 0.3779527559055118
          },
          {
            "number": 7,
            "time": 102.13224399999996,
            "value": 0.3779527559055118
          },
          {
            "number": 7,
            "time": 102.24253799999995,
            "value": 0.3543307086614173
          },
          {
            "number": 7,
            "time": 102.24253799999995,
            "value": 0.3543307086614173
          },
          {
            "number": 7,
            "time": 102.35283199999995,
            "value": 0.33858267716535434
          },
          {
            "number": 7,
            "time": 102.35283199999995,
            "value": 0.33858267716535434
          },
          {
            "number": 7,
            "time": 102.46312599999995,
            "value": 0.31496062992125984
          },
          {
            "number": 7,
            "time": 102.46312599999995,
            "value": 0.31496062992125984
          },
          {
            "number": 7,
            "time": 102.57341999999994,
            "value": 0.29133858267716534
          },
          {
            "number": 7,
            "time": 102.57341999999994,
            "value": 0.29133858267716534
          },
          {
            "number": 7,
            "time": 102.68371399999994,
            "value": 0.2755905511811024
          },
          {
            "number": 7,
            "time": 102.68371399999994,
            "value": 0.2755905511811024
          },
          {
            "number": 7,
            "time": 102.79400799999993,
            "value": 0.25196850393700787
          },
          {
            "number": 7,
            "time": 102.79400799999993,
            "value": 0.25196850393700787
          },
          {
            "number": 7,
            "time": 102.90430199999993,
            "value": 0.2283464566929134
          },
          {
            "number": 7,
            "time": 102.90430199999993,
            "value": 0.2283464566929134
          },
          {
            "number": 7,
            "time": 103.01459599999993,
            "value": 0.2125984251968504
          },
          {
            "number": 7,
            "time": 103.01459599999993,
            "value": 0.2125984251968504
          },
          {
            "number": 7,
            "time": 103.12488999999992,
            "value": 0.1889763779527559
          },
          {
            "number": 7,
            "time": 103.12488999999992,
            "value": 0.1889763779527559
          },
          {
            "number": 7,
            "time": 103.23518399999992,
            "value": 0.16535433070866143
          },
          {
            "number": 7,
            "time": 103.23518399999992,
            "value": 0.16535433070866143
          },
          {
            "number": 7,
            "time": 103.34547799999991,
            "value": 0.14960629921259844
          },
          {
            "number": 7,
            "time": 103.34547799999991,
            "value": 0.14960629921259844
          },
          {
            "number": 7,
            "time": 103.45577199999991,
            "value": 0.12598425196850394
          },
          {
            "number": 7,
            "time": 103.45577199999991,
            "value": 0.12598425196850394
          },
          {
            "number": 7,
            "time": 103.5660659999999,
            "value": 0.10236220472440945
          },
          {
            "number": 7,
            "time": 103.5660659999999,
            "value": 0.10236220472440945
          },
          {
            "number": 7,
            "time": 103.6763599999999,
            "value": 0.08661417322834646
          },
          {
            "number": 7,
            "time": 103.6763599999999,
            "value": 0.08661417322834646
          },
          {
            "number": 7,
            "time": 103.7866539999999,
            "value": 0.06299212598425197
          },
          {
            "number": 7,
            "time": 103.7866539999999,
            "value": 0.06299212598425197
          },
          {
            "number": 7,
            "time": 103.8969479999999,
            "value": 0.03937007874015748
          },
          {
            "number": 7,
            "time": 103.8969479999999,
            "value": 0.03937007874015748
          },
          {
            "number": 7,
            "time": 104.00724199999989,
            "value": 0.023622047244094488
          },
          {
            "number": 7,
            "time": 104.00724199999989,
            "value": 0.023622047244094488
          },
          {
            "number": 7,
            "time": 104.11753599999989,
            "value": 0
          },
          {
            "number": 7,
            "time": 104.11753599999989,
            "value": 0
          },
          {
            "number": 7,
            "time": 104.11753599999989,
            "value": 0.6929133858267716
          },
          {
            "number": 7,
            "time": 104.11753599999989,
            "value": 0.6929133858267716
          },
          {
            "number": 7,
            "time": 107.64694399999989,
            "value": 0.6692913385826772
          },
          {
            "number": 7,
            "time": 107.64694399999989,
            "value": 0.6692913385826772
          },
          {
            "number": 7,
            "time": 107.75723799999989,
            "value": 0.6535433070866141
          },
          {
            "number": 7,
            "time": 107.75723799999989,
            "value": 0.6535433070866141
          },
          {
            "number": 7,
            "time": 107.86753199999988,
            "value": 0.6299212598425197
          },
          {
            "number": 7,
            "time": 107.86753199999988,
            "value": 0.6299212598425197
          },
          {
            "number": 7,
            "time": 107.97782599999988,
            "value": 0.6062992125984252
          },
          {
            "number": 7,
            "time": 107.97782599999988,
            "value": 0.6062992125984252
          },
          {
            "number": 7,
            "time": 108.08811999999988,
            "value": 0.5905511811023622
          },
          {
            "number": 7,
            "time": 108.08811999999988,
            "value": 0.5905511811023622
          },
          {
            "number": 7,
            "time": 108.19841399999987,
            "value": 0.5669291338582677
          },
          {
            "number": 7,
            "time": 108.19841399999987,
            "value": 0.5669291338582677
          },
          {
            "number": 7,
            "time": 108.30870799999987,
            "value": 0.5433070866141733
          },
          {
            "number": 7,
            "time": 108.30870799999987,
            "value": 0.5433070866141733
          },
          {
            "number": 7,
            "time": 108.41900199999986,
            "value": 0.5275590551181102
          },
          {
            "number": 7,
            "time": 108.41900199999986,
            "value": 0.5275590551181102
          },
          {
            "number": 7,
            "time": 108.52929599999986,
            "value": 0.5039370078740157
          },
          {
            "number": 7,
            "time": 108.52929599999986,
            "value": 0.5039370078740157
          },
          {
            "number": 7,
            "time": 108.63958999999986,
            "value": 0.48031496062992124
          },
          {
            "number": 7,
            "time": 108.63958999999986,
            "value": 0.48031496062992124
          },
          {
            "number": 7,
            "time": 108.74988399999985,
            "value": 0.4645669291338583
          },
          {
            "number": 7,
            "time": 108.74988399999985,
            "value": 0.4645669291338583
          },
          {
            "number": 7,
            "time": 108.86017799999985,
            "value": 0.4409448818897638
          },
          {
            "number": 7,
            "time": 108.86017799999985,
            "value": 0.4409448818897638
          },
          {
            "number": 7,
            "time": 108.97047199999984,
            "value": 0.41732283464566927
          },
          {
            "number": 7,
            "time": 108.97047199999984,
            "value": 0.41732283464566927
          },
          {
            "number": 7,
            "time": 109.08076599999984,
            "value": 0.4015748031496063
          },
          {
            "number": 7,
            "time": 109.08076599999984,
            "value": 0.4015748031496063
          },
          {
            "number": 7,
            "time": 109.19105999999984,
            "value": 0.3779527559055118
          },
          {
            "number": 7,
            "time": 109.19105999999984,
            "value": 0.3779527559055118
          },
          {
            "number": 7,
            "time": 109.30135399999983,
            "value": 0.3543307086614173
          },
          {
            "number": 7,
            "time": 109.30135399999983,
            "value": 0.3543307086614173
          },
          {
            "number": 7,
            "time": 109.41164799999983,
            "value": 0.33858267716535434
          },
          {
            "number": 7,
            "time": 109.41164799999983,
            "value": 0.33858267716535434
          },
          {
            "number": 7,
            "time": 109.52194199999983,
            "value": 0.31496062992125984
          },
          {
            "number": 7,
            "time": 109.52194199999983,
            "value": 0.31496062992125984
          },
          {
            "number": 7,
            "time": 109.63223599999982,
            "value": 0.29133858267716534
          },
          {
            "number": 7,
            "time": 109.63223599999982,
            "value": 0.29133858267716534
          },
          {
            "number": 7,
            "time": 109.74252999999982,
            "value": 0.2755905511811024
          },
          {
            "number": 7,
            "time": 109.74252999999982,
            "value": 0.2755905511811024
          },
          {
            "number": 7,
            "time": 109.85282399999981,
            "value": 0.25196850393700787
          },
          {
            "number": 7,
            "time": 109.85282399999981,
            "value": 0.25196850393700787
          },
          {
            "number": 7,
            "time": 109.96311799999981,
            "value": 0.2283464566929134
          },
          {
            "number": 7,
            "time": 109.96311799999981,
            "value": 0.2283464566929134
          },
          {
            "number": 7,
            "time": 110.0734119999998,
            "value": 0.2125984251968504
          },
          {
            "number": 7,
            "time": 110.0734119999998,
            "value": 0.2125984251968504
          },
          {
            "number": 7,
            "time": 110.1837059999998,
            "value": 0.1889763779527559
          },
          {
            "number": 7,
            "time": 110.1837059999998,
            "value": 0.1889763779527559
          },
          {
            "number": 7,
            "time": 110.2939999999998,
            "value": 0.16535433070866143
          },
          {
            "number": 7,
            "time": 110.2939999999998,
            "value": 0.16535433070866143
          },
          {
            "number": 7,
            "time": 110.4042939999998,
            "value": 0.14960629921259844
          },
          {
            "number": 7,
            "time": 110.4042939999998,
            "value": 0.14960629921259844
          },
          {
            "number": 7,
            "time": 110.51458799999979,
            "value": 0.12598425196850394
          },
          {
            "number": 7,
            "time": 110.51458799999979,
            "value": 0.12598425196850394
          },
          {
            "number": 7,
            "time": 110.62488199999979,
            "value": 0.10236220472440945
          },
          {
            "number": 7,
            "time": 110.62488199999979,
            "value": 0.10236220472440945
          },
          {
            "number": 7,
            "time": 110.73517599999978,
            "value": 0.08661417322834646
          },
          {
            "number": 7,
            "time": 110.73517599999978,
            "value": 0.08661417322834646
          },
          {
            "number": 7,
            "time": 110.84546999999978,
            "value": 0.06299212598425197
          },
          {
            "number": 7,
            "time": 110.84546999999978,
            "value": 0.06299212598425197
          },
          {
            "number": 7,
            "time": 110.95576399999977,
            "value": 0.03937007874015748
          },
          {
            "number": 7,
            "time": 110.95576399999977,
            "value": 0.03937007874015748
          },
          {
            "number": 7,
            "time": 111.06605799999977,
            "value": 0.023622047244094488
          },
          {
            "number": 7,
            "time": 111.06605799999977,
            "value": 0.023622047244094488
          },
          {
            "number": 7,
            "time": 111.17635199999977,
            "value": 0
          },
          {
            "number": 7,
            "time": 111.17635199999977,
            "value": 0
          },
          {
            "number": 7,
            "time": 111.17635199999977,
            "value": 0.6929133858267716
          },
          {
            "number": 7,
            "time": 111.17635199999977,
            "value": 0.6929133858267716
          },
          {
            "number": 7,
            "time": 114.70575999999977,
            "value": 0.4409448818897638
          },
          {
            "number": 7,
            "time": 114.70575999999977,
            "value": 0.4409448818897638
          },
          {
            "number": 7,
            "time": 114.92634799999978,
            "value": 0.5669291338582677
          },
          {
            "number": 7,
            "time": 114.92634799999978,
            "value": 0.5669291338582677
          },
          {
            "number": 7,
            "time": 115.14693599999978,
            "value": 0.6929133858267716
          },
          {
            "number": 7,
            "time": 115.14693599999978,
            "value": 0.6929133858267716
          },
          {
            "number": 7,
            "time": 116.47046399999978,
            "value": 0.6929133858267716
          },
          {
            "number": 7,
            "time": 116.47046399999978,
            "value": 0.6929133858267716
          },
          {
            "number": 7,
            "time": 118.23516799999977,
            "value": 0.4409448818897638
          },
          {
            "number": 7,
            "time": 118.23516799999977,
            "value": 0.4409448818897638
          },
          {
            "number": 7,
            "time": 118.45575599999978,
            "value": 0.5669291338582677
          },
          {
            "number": 7,
            "time": 118.45575599999978,
            "value": 0.5669291338582677
          },
          {
            "number": 7,
            "time": 118.67634399999979,
            "value": 0.6929133858267716
          },
          {
            "number": 7,
            "time": 118.67634399999979,
            "value": 0.6929133858267716
          },
          {
            "number": 7,
            "time": 119.99987199999978,
            "value": 0.6929133858267716
          },
          {
            "number": 7,
            "time": 119.99987199999978,
            "value": 0.6929133858267716
          },
          {
            "number": 7,
            "time": 121.76457599999978,
            "value": 0.4409448818897638
          },
          {
            "number": 7,
            "time": 121.76457599999978,
            "value": 0.4409448818897638
          },
          {
            "number": 7,
            "time": 121.98516399999978,
            "value": 0.5669291338582677
          },
          {
            "number": 7,
            "time": 121.98516399999978,
            "value": 0.5669291338582677
          },
          {
            "number": 7,
            "time": 122.20575199999979,
            "value": 0.6929133858267716
          },
          {
            "number": 7,
            "time": 122.20575199999979,
            "value": 0.6929133858267716
          },
          {
            "number": 7,
            "time": 123.52927999999979,
            "value": 0.6929133858267716
          },
          {
            "number": 7,
            "time": 123.52927999999979,
            "value": 0.6929133858267716
          },
          {
            "number": 7,
            "time": 125.29398399999978,
            "value": 0.4409448818897638
          },
          {
            "number": 7,
            "time": 125.29398399999978,
            "value": 0.4409448818897638
          },
          {
            "number": 7,
            "time": 125.51457199999979,
            "value": 0.5669291338582677
          },
          {
            "number": 7,
            "time": 125.51457199999979,
            "value": 0.5669291338582677
          },
          {
            "number": 7,
            "time": 125.7351599999998,
            "value": 0.6929133858267716
          },
          {
            "number": 7,
            "time": 125.7351599999998,
            "value": 0.6929133858267716
          }
        ],
        "10": [
          {
            "number": 10,
            "time": 0,
            "value": 1
          },
          {
            "number": 10,
            "time": 0,
            "value": 1
          }
        ],
        "38": [
          {
            "number": 38,
            "time": 0,
            "value": 0
          },
          {
            "number": 38,
            "time": 0,
            "value": 0
          }
        ],
        "91": [
          {
            "number": 91,
            "time": 0,
            "value": 0
          },
          {
            "number": 91,
            "time": 0,
            "value": 0
          }
        ],
        "92": [
          {
            "number": 92,
            "time": 0,
            "value": 0
          },
          {
            "number": 92,
            "time": 0,
            "value": 0
          }
        ],
        "93": [
          {
            "number": 93,
            "time": 0,
            "value": 0
          },
          {
            "number": 93,
            "time": 0,
            "value": 0
          }
        ],
        "95": [
          {
            "number": 95,
            "time": 0,
            "value": 0
          },
          {
            "number": 95,
            "time": 0,
            "value": 0
          }
        ],
        "100": [
          {
            "number": 100,
            "time": 0,
            "value": 0
          },
          {
            "number": 100,
            "time": 0,
            "value": 0.007874015748031496
          },
          {
            "number": 100,
            "time": 0,
            "value": 1
          },
          {
            "number": 100,
            "time": 0,
            "value": 0
          },
          {
            "number": 100,
            "time": 0,
            "value": 0.007874015748031496
          },
          {
            "number": 100,
            "time": 0,
            "value": 1
          },
          {
            "number": 100,
            "time": 0,
            "value": 0.015748031496062992
          },
          {
            "number": 100,
            "time": 0,
            "value": 1
          },
          {
            "number": 100,
            "time": 0,
            "value": 0.015748031496062992
          },
          {
            "number": 100,
            "time": 0,
            "value": 1
          }
        ],
        "101": [
          {
            "number": 101,
            "time": 0,
            "value": 0
          },
          {
            "number": 101,
            "time": 0,
            "value": 0
          },
          {
            "number": 101,
            "time": 0,
            "value": 1
          },
          {
            "number": 101,
            "time": 0,
            "value": 0
          },
          {
            "number": 101,
            "time": 0,
            "value": 0
          },
          {
            "number": 101,
            "time": 0,
            "value": 1
          },
          {
            "number": 101,
            "time": 0,
            "value": 0
          },
          {
            "number": 101,
            "time": 0,
            "value": 1
          },
          {
            "number": 101,
            "time": 0,
            "value": 0
          },
          {
            "number": 101,
            "time": 0,
            "value": 1
          }
        ]
      }
    },
    {
      "startTime": 8.82352,
      "duration": 197.6468479999994,
      "length": 1157,
      "id": 7,
      "name": "Drums",
      "instrumentNumber": 0,
      "instrument": "standard kit",
      "instrumentFamily": "drums",
      "channelNumber": 9,
      "isPercussion": true,
      "notes": [
        {
          "name": "A3",
          "midi": 57,
          "time": 8.82352,
          "velocity": 0.7480314960629921,
          "duration": 0.22058799999999934
        },
        {
          "name": "C#3",
          "midi": 49,
          "time": 8.82352,
          "velocity": 0.6220472440944882,
          "duration": 0.4411759999999987
        },
        {
          "name": "C2",
          "midi": 36,
          "time": 8.82352,
          "velocity": 0.7480314960629921,
          "duration": 0.22058799999999934
        },
        {
          "name": "C#3",
          "midi": 49,
          "time": 9.264695999999999,
          "velocity": 0.6220472440944882,
          "duration": 0.330881999999999
        },
        {
          "name": "E2",
          "midi": 40,
          "time": 9.264695999999999,
          "velocity": 0.7480314960629921,
          "duration": 0.22058799999999934
        },
        {
          "name": "E2",
          "midi": 40,
          "time": 9.595577999999998,
          "velocity": 0.7480314960629921,
          "duration": 0.11029399999999967
        },
        {
          "name": "C#3",
          "midi": 49,
          "time": 9.705871999999998,
          "velocity": 0.6220472440944882,
          "duration": 0.4411759999999987
        },
        {
          "name": "C2",
          "midi": 36,
          "time": 9.705871999999998,
          "velocity": 0.7480314960629921,
          "duration": 0.22058799999999934
        },
        {
          "name": "C2",
          "midi": 36,
          "time": 9.926459999999997,
          "velocity": 0.7480314960629921,
          "duration": 0.22058799999999934
        },
        {
          "name": "C#3",
          "midi": 49,
          "time": 10.147047999999996,
          "velocity": 0.6220472440944882,
          "duration": 0.4411759999999987
        },
        {
          "name": "E2",
          "midi": 40,
          "time": 10.147047999999996,
          "velocity": 0.7480314960629921,
          "duration": 0.22058799999999934
        },
        {
          "name": "C#3",
          "midi": 49,
          "time": 10.588223999999995,
          "velocity": 0.6220472440944882,
          "duration": 0.4411759999999987
        },
        {
          "name": "C2",
          "midi": 36,
          "time": 10.588223999999995,
          "velocity": 0.7480314960629921,
          "duration": 0.22058799999999934
        },
        {
          "name": "C#3",
          "midi": 49,
          "time": 11.029399999999994,
          "velocity": 0.6220472440944882,
          "duration": 0.330881999999999
        },
        {
          "name": "E2",
          "midi": 40,
          "time": 11.029399999999994,
          "velocity": 0.7480314960629921,
          "duration": 0.22058799999999934
        },
        {
          "name": "E2",
          "midi": 40,
          "time": 11.360281999999993,
          "velocity": 0.7480314960629921,
          "duration": 0.11029399999999967
        },
        {
          "name": "C#3",
          "midi": 49,
          "time": 11.470575999999992,
          "velocity": 0.6220472440944882,
          "duration": 0.4411759999999987
        },
        {
          "name": "C2",
          "midi": 36,
          "time": 11.470575999999992,
          "velocity": 0.7480314960629921,
          "duration": 0.22058799999999934
        },
        {
          "name": "C2",
          "midi": 36,
          "time": 11.691163999999992,
          "velocity": 0.7480314960629921,
          "duration": 0.22058799999999934
        },
        {
          "name": "C#3",
          "midi": 49,
          "time": 11.911751999999991,
          "velocity": 0.6220472440944882,
          "duration": 0.4411759999999987
        },
        {
          "name": "E2",
          "midi": 40,
          "time": 11.911751999999991,
          "velocity": 0.7480314960629921,
          "duration": 0.22058799999999934
        },
        {
          "name": "A3",
          "midi": 57,
          "time": 12.35292799999999,
          "velocity": 0.7480314960629921,
          "duration": 0.4411759999999987
        },
        {
          "name": "C#3",
          "midi": 49,
          "time": 12.35292799999999,
          "velocity": 0.6220472440944882,
          "duration": 0.22058799999999934
        },
        {
          "name": "C2",
          "midi": 36,
          "time": 12.35292799999999,
          "velocity": 0.7480314960629921,
          "duration": 0.22058799999999934
        },
        {
          "name": "C#3",
          "midi": 49,
          "time": 12.794103999999988,
          "velocity": 0.6220472440944882,
          "duration": 0.330881999999999
        },
        {
          "name": "E2",
          "midi": 40,
          "time": 12.794103999999988,
          "velocity": 0.7480314960629921,
          "duration": 0.22058799999999934
        },
        {
          "name": "E2",
          "midi": 40,
          "time": 13.124985999999987,
          "velocity": 0.7480314960629921,
          "duration": 0.11029399999999967
        },
        {
          "name": "C#3",
          "midi": 49,
          "time": 13.235279999999987,
          "velocity": 0.6220472440944882,
          "duration": 0.4411759999999987
        },
        {
          "name": "C2",
          "midi": 36,
          "time": 13.235279999999987,
          "velocity": 0.7480314960629921,
          "duration": 0.22058799999999934
        },
        {
          "name": "C2",
          "midi": 36,
          "time": 13.455867999999986,
          "velocity": 0.7480314960629921,
          "duration": 0.22058799999999934
        },
        {
          "name": "C#3",
          "midi": 49,
          "time": 13.676455999999986,
          "velocity": 0.6220472440944882,
          "duration": 0.4411759999999987
        },
        {
          "name": "E2",
          "midi": 40,
          "time": 13.676455999999986,
          "velocity": 0.7480314960629921,
          "duration": 0.22058799999999934
        },
        {
          "name": "C#3",
          "midi": 49,
          "time": 14.117631999999984,
          "velocity": 0.6220472440944882,
          "duration": 0.4411759999999987
        },
        {
          "name": "C2",
          "midi": 36,
          "time": 14.117631999999984,
          "velocity": 0.7480314960629921,
          "duration": 0.22058799999999934
        },
        {
          "name": "C#3",
          "midi": 49,
          "time": 14.558807999999983,
          "velocity": 0.6220472440944882,
          "duration": 0.330881999999999
        },
        {
          "name": "E2",
          "midi": 40,
          "time": 14.558807999999983,
          "velocity": 0.7480314960629921,
          "duration": 0.22058799999999934
        },
        {
          "name": "E2",
          "midi": 40,
          "time": 14.889689999999982,
          "velocity": 0.7480314960629921,
          "duration": 0.11029399999999967
        },
        {
          "name": "C#3",
          "midi": 49,
          "time": 14.999983999999982,
          "velocity": 0.6220472440944882,
          "duration": 0.4411759999999987
        },
        {
          "name": "C2",
          "midi": 36,
          "time": 14.999983999999982,
          "velocity": 0.7480314960629921,
          "duration": 0.22058799999999934
        },
        {
          "name": "C2",
          "midi": 36,
          "time": 15.220571999999981,
          "velocity": 0.7480314960629921,
          "duration": 0.22058799999999934
        },
        {
          "name": "C#3",
          "midi": 49,
          "time": 15.44115999999998,
          "velocity": 0.6220472440944882,
          "duration": 0.4411759999999987
        },
        {
          "name": "E2",
          "midi": 40,
          "time": 15.44115999999998,
          "velocity": 0.7480314960629921,
          "duration": 0.22058799999999934
        },
        {
          "name": "A3",
          "midi": 57,
          "time": 15.88233599999998,
          "velocity": 0.7480314960629921,
          "duration": 0.22058800000000112
        },
        {
          "name": "C#3",
          "midi": 49,
          "time": 15.88233599999998,
          "velocity": 0.6220472440944882,
          "duration": 0.44117600000000046
        },
        {
          "name": "C2",
          "midi": 36,
          "time": 15.88233599999998,
          "velocity": 0.7480314960629921,
          "duration": 0.22058800000000112
        },
        {
          "name": "C#3",
          "midi": 49,
          "time": 16.32351199999998,
          "velocity": 0.6220472440944882,
          "duration": 0.330881999999999
        },
        {
          "name": "E2",
          "midi": 40,
          "time": 16.32351199999998,
          "velocity": 0.7480314960629921,
          "duration": 0.22058799999999934
        },
        {
          "name": "E2",
          "midi": 40,
          "time": 16.65439399999998,
          "velocity": 0.7480314960629921,
          "duration": 0.11029399999999967
        },
        {
          "name": "C#3",
          "midi": 49,
          "time": 16.76468799999998,
          "velocity": 0.6220472440944882,
          "duration": 0.4411759999999987
        },
        {
          "name": "C2",
          "midi": 36,
          "time": 16.76468799999998,
          "velocity": 0.7480314960629921,
          "duration": 0.22058799999999934
        },
        {
          "name": "C2",
          "midi": 36,
          "time": 16.985275999999978,
          "velocity": 0.7480314960629921,
          "duration": 0.22058799999999934
        },
        {
          "name": "C#3",
          "midi": 49,
          "time": 17.205863999999977,
          "velocity": 0.6220472440944882,
          "duration": 0.4411759999999987
        },
        {
          "name": "E2",
          "midi": 40,
          "time": 17.205863999999977,
          "velocity": 0.7480314960629921,
          "duration": 0.22058799999999934
        },
        {
          "name": "C#3",
          "midi": 49,
          "time": 17.647039999999976,
          "velocity": 0.6220472440944882,
          "duration": 0.4411759999999987
        },
        {
          "name": "C2",
          "midi": 36,
          "time": 17.647039999999976,
          "velocity": 0.7480314960629921,
          "duration": 0.22058799999999934
        },
        {
          "name": "C#3",
          "midi": 49,
          "time": 18.088215999999974,
          "velocity": 0.6220472440944882,
          "duration": 0.330881999999999
        },
        {
          "name": "E2",
          "midi": 40,
          "time": 18.088215999999974,
          "velocity": 0.7480314960629921,
          "duration": 0.22058799999999934
        },
        {
          "name": "E2",
          "midi": 40,
          "time": 18.419097999999973,
          "velocity": 0.7480314960629921,
          "duration": 0.11029399999999967
        },
        {
          "name": "C#3",
          "midi": 49,
          "time": 18.529391999999973,
          "velocity": 0.6220472440944882,
          "duration": 0.4411759999999987
        },
        {
          "name": "C2",
          "midi": 36,
          "time": 18.529391999999973,
          "velocity": 0.7480314960629921,
          "duration": 0.22058799999999934
        },
        {
          "name": "C2",
          "midi": 36,
          "time": 18.749979999999972,
          "velocity": 0.7480314960629921,
          "duration": 0.22058799999999934
        },
        {
          "name": "C#3",
          "midi": 49,
          "time": 18.97056799999997,
          "velocity": 0.6220472440944882,
          "duration": 0.4411759999999987
        },
        {
          "name": "E2",
          "midi": 40,
          "time": 18.97056799999997,
          "velocity": 0.7480314960629921,
          "duration": 0.22058799999999934
        },
        {
          "name": "A3",
          "midi": 57,
          "time": 19.41174399999997,
          "velocity": 0.7480314960629921,
          "duration": 0.4411759999999987
        },
        {
          "name": "C#3",
          "midi": 49,
          "time": 19.41174399999997,
          "velocity": 0.6220472440944882,
          "duration": 0.22058799999999934
        },
        {
          "name": "C2",
          "midi": 36,
          "time": 19.41174399999997,
          "velocity": 0.7480314960629921,
          "duration": 0.22058799999999934
        },
        {
          "name": "C#3",
          "midi": 49,
          "time": 19.85291999999997,
          "velocity": 0.6220472440944882,
          "duration": 0.330881999999999
        },
        {
          "name": "E2",
          "midi": 40,
          "time": 19.85291999999997,
          "velocity": 0.7480314960629921,
          "duration": 0.22058799999999934
        },
        {
          "name": "E2",
          "midi": 40,
          "time": 20.183801999999968,
          "velocity": 0.7480314960629921,
          "duration": 0.11029399999999967
        },
        {
          "name": "C#3",
          "midi": 49,
          "time": 20.294095999999968,
          "velocity": 0.6220472440944882,
          "duration": 0.4411759999999987
        },
        {
          "name": "C2",
          "midi": 36,
          "time": 20.294095999999968,
          "velocity": 0.7480314960629921,
          "duration": 0.22058799999999934
        },
        {
          "name": "C2",
          "midi": 36,
          "time": 20.514683999999967,
          "velocity": 0.7480314960629921,
          "duration": 0.22058799999999934
        },
        {
          "name": "C#3",
          "midi": 49,
          "time": 20.735271999999966,
          "velocity": 0.6220472440944882,
          "duration": 0.4411759999999987
        },
        {
          "name": "E2",
          "midi": 40,
          "time": 20.735271999999966,
          "velocity": 0.7480314960629921,
          "duration": 0.22058799999999934
        },
        {
          "name": "C#3",
          "midi": 49,
          "time": 21.176447999999965,
          "velocity": 0.6220472440944882,
          "duration": 0.4411759999999987
        },
        {
          "name": "C2",
          "midi": 36,
          "time": 21.176447999999965,
          "velocity": 0.7480314960629921,
          "duration": 0.22058799999999934
        },
        {
          "name": "C#3",
          "midi": 49,
          "time": 21.617623999999964,
          "velocity": 0.6220472440944882,
          "duration": 0.330881999999999
        },
        {
          "name": "E2",
          "midi": 40,
          "time": 21.617623999999964,
          "velocity": 0.7480314960629921,
          "duration": 0.22058799999999934
        },
        {
          "name": "E2",
          "midi": 40,
          "time": 21.948505999999963,
          "velocity": 0.7480314960629921,
          "duration": 0.11029399999999967
        },
        {
          "name": "C#3",
          "midi": 49,
          "time": 22.058799999999962,
          "velocity": 0.6220472440944882,
          "duration": 0.22058799999999934
        },
        {
          "name": "C2",
          "midi": 36,
          "time": 22.058799999999962,
          "velocity": 0.7480314960629921,
          "duration": 0.22058799999999934
        },
        {
          "name": "G3",
          "midi": 55,
          "time": 22.279387999999962,
          "velocity": 0.6220472440944882,
          "duration": 0.22058799999999934
        },
        {
          "name": "E2",
          "midi": 40,
          "time": 22.279387999999962,
          "velocity": 0.7480314960629921,
          "duration": 0.22058799999999934
        },
        {
          "name": "C2",
          "midi": 36,
          "time": 22.279387999999962,
          "velocity": 0.7480314960629921,
          "duration": 0.22058799999999934
        },
        {
          "name": "G3",
          "midi": 55,
          "time": 22.49997599999996,
          "velocity": 0.6220472440944882,
          "duration": 0.22058799999999934
        },
        {
          "name": "E2",
          "midi": 40,
          "time": 22.49997599999996,
          "velocity": 0.7480314960629921,
          "duration": 0.22058799999999934
        },
        {
          "name": "C2",
          "midi": 36,
          "time": 22.49997599999996,
          "velocity": 0.7480314960629921,
          "duration": 0.22058799999999934
        },
        {
          "name": "C#3",
          "midi": 49,
          "time": 22.72056399999996,
          "velocity": 0.49606299212598426,
          "duration": 0.22058799999999934
        },
        {
          "name": "C2",
          "midi": 36,
          "time": 22.72056399999996,
          "velocity": 0.7480314960629921,
          "duration": 0.22058799999999934
        },
        {
          "name": "A3",
          "midi": 57,
          "time": 22.94115199999996,
          "velocity": 0.7480314960629921,
          "duration": 0.22058799999999934
        },
        {
          "name": "C#3",
          "midi": 49,
          "time": 22.94115199999996,
          "velocity": 0.6220472440944882,
          "duration": 0.4411759999999987
        },
        {
          "name": "C2",
          "midi": 36,
          "time": 22.94115199999996,
          "velocity": 0.7480314960629921,
          "duration": 0.22058799999999934
        },
        {
          "name": "C#3",
          "midi": 49,
          "time": 23.38232799999996,
          "velocity": 0.6220472440944882,
          "duration": 0.330881999999999
        },
        {
          "name": "E2",
          "midi": 40,
          "time": 23.38232799999996,
          "velocity": 0.7480314960629921,
          "duration": 0.22058799999999934
        },
        {
          "name": "E2",
          "midi": 40,
          "time": 23.713209999999957,
          "velocity": 0.7480314960629921,
          "duration": 0.11029399999999967
        },
        {
          "name": "C#3",
          "midi": 49,
          "time": 23.823503999999957,
          "velocity": 0.6220472440944882,
          "duration": 0.4411759999999987
        },
        {
          "name": "C2",
          "midi": 36,
          "time": 23.823503999999957,
          "velocity": 0.7480314960629921,
          "duration": 0.22058799999999934
        },
        {
          "name": "C2",
          "midi": 36,
          "time": 24.044091999999956,
          "velocity": 0.7480314960629921,
          "duration": 0.22058799999999934
        },
        {
          "name": "C#3",
          "midi": 49,
          "time": 24.264679999999956,
          "velocity": 0.6220472440944882,
          "duration": 0.4411759999999987
        },
        {
          "name": "E2",
          "midi": 40,
          "time": 24.264679999999956,
          "velocity": 0.7480314960629921,
          "duration": 0.22058799999999934
        },
        {
          "name": "C#3",
          "midi": 49,
          "time": 24.705855999999955,
          "velocity": 0.6220472440944882,
          "duration": 0.4411759999999987
        },
        {
          "name": "C2",
          "midi": 36,
          "time": 24.705855999999955,
          "velocity": 0.7480314960629921,
          "duration": 0.22058799999999934
        },
        {
          "name": "C#3",
          "midi": 49,
          "time": 25.147031999999953,
          "velocity": 0.6220472440944882,
          "duration": 0.330881999999999
        },
        {
          "name": "E2",
          "midi": 40,
          "time": 25.147031999999953,
          "velocity": 0.7480314960629921,
          "duration": 0.22058799999999934
        },
        {
          "name": "E2",
          "midi": 40,
          "time": 25.477913999999952,
          "velocity": 0.7480314960629921,
          "duration": 0.11029399999999967
        },
        {
          "name": "C#3",
          "midi": 49,
          "time": 25.588207999999952,
          "velocity": 0.6220472440944882,
          "duration": 0.4411759999999987
        },
        {
          "name": "C2",
          "midi": 36,
          "time": 25.588207999999952,
          "velocity": 0.7480314960629921,
          "duration": 0.22058799999999934
        },
        {
          "name": "C2",
          "midi": 36,
          "time": 25.80879599999995,
          "velocity": 0.7480314960629921,
          "duration": 0.22058799999999934
        },
        {
          "name": "C#3",
          "midi": 49,
          "time": 26.02938399999995,
          "velocity": 0.6220472440944882,
          "duration": 0.4411759999999987
        },
        {
          "name": "E2",
          "midi": 40,
          "time": 26.02938399999995,
          "velocity": 0.7480314960629921,
          "duration": 0.22058799999999934
        },
        {
          "name": "E2",
          "midi": 40,
          "time": 26.24997199999995,
          "velocity": 0.7480314960629921,
          "duration": 0.22058799999999934
        },
        {
          "name": "A3",
          "midi": 57,
          "time": 26.47055999999995,
          "velocity": 0.7480314960629921,
          "duration": 0.22058799999999934
        },
        {
          "name": "C#3",
          "midi": 49,
          "time": 26.47055999999995,
          "velocity": 0.6220472440944882,
          "duration": 0.4411759999999987
        },
        {
          "name": "C2",
          "midi": 36,
          "time": 26.47055999999995,
          "velocity": 0.7480314960629921,
          "duration": 0.22058799999999934
        },
        {
          "name": "A#2",
          "midi": 46,
          "time": 26.911735999999948,
          "velocity": 0.6220472440944882,
          "duration": 0.330881999999999
        },
        {
          "name": "E2",
          "midi": 40,
          "time": 26.911735999999948,
          "velocity": 0.7480314960629921,
          "duration": 0.22058799999999934
        },
        {
          "name": "E2",
          "midi": 40,
          "time": 27.242617999999947,
          "velocity": 0.7480314960629921,
          "duration": 0.11029399999999967
        },
        {
          "name": "A#2",
          "midi": 46,
          "time": 27.352911999999947,
          "velocity": 0.6220472440944882,
          "duration": 0.4411759999999987
        },
        {
          "name": "C2",
          "midi": 36,
          "time": 27.352911999999947,
          "velocity": 0.7480314960629921,
          "duration": 0.22058799999999934
        },
        {
          "name": "C2",
          "midi": 36,
          "time": 27.573499999999946,
          "velocity": 0.7480314960629921,
          "duration": 0.22058799999999934
        },
        {
          "name": "A#2",
          "midi": 46,
          "time": 27.794087999999945,
          "velocity": 0.6220472440944882,
          "duration": 0.4411759999999987
        },
        {
          "name": "E2",
          "midi": 40,
          "time": 27.794087999999945,
          "velocity": 0.7480314960629921,
          "duration": 0.22058799999999934
        },
        {
          "name": "A#2",
          "midi": 46,
          "time": 28.235263999999944,
          "velocity": 0.6220472440944882,
          "duration": 0.4411759999999987
        },
        {
          "name": "C2",
          "midi": 36,
          "time": 28.235263999999944,
          "velocity": 0.7480314960629921,
          "duration": 0.22058799999999934
        },
        {
          "name": "A#2",
          "midi": 46,
          "time": 28.676439999999943,
          "velocity": 0.6220472440944882,
          "duration": 0.330881999999999
        },
        {
          "name": "E2",
          "midi": 40,
          "time": 28.676439999999943,
          "velocity": 0.7480314960629921,
          "duration": 0.22058799999999934
        },
        {
          "name": "E2",
          "midi": 40,
          "time": 29.00732199999994,
          "velocity": 0.7480314960629921,
          "duration": 0.11029399999999967
        },
        {
          "name": "A#2",
          "midi": 46,
          "time": 29.11761599999994,
          "velocity": 0.6220472440944882,
          "duration": 0.4411759999999987
        },
        {
          "name": "C2",
          "midi": 36,
          "time": 29.11761599999994,
          "velocity": 0.7480314960629921,
          "duration": 0.22058799999999934
        },
        {
          "name": "C2",
          "midi": 36,
          "time": 29.33820399999994,
          "velocity": 0.7480314960629921,
          "duration": 0.22058799999999934
        },
        {
          "name": "A#2",
          "midi": 46,
          "time": 29.55879199999994,
          "velocity": 0.6220472440944882,
          "duration": 0.4411759999999987
        },
        {
          "name": "E2",
          "midi": 40,
          "time": 29.55879199999994,
          "velocity": 0.7480314960629921,
          "duration": 0.22058799999999934
        },
        {
          "name": "A#2",
          "midi": 46,
          "time": 29.99996799999994,
          "velocity": 0.6220472440944882,
          "duration": 0.4411759999999987
        },
        {
          "name": "C2",
          "midi": 36,
          "time": 29.99996799999994,
          "velocity": 0.7480314960629921,
          "duration": 0.22058799999999934
        },
        {
          "name": "A#2",
          "midi": 46,
          "time": 30.441143999999937,
          "velocity": 0.6220472440944882,
          "duration": 0.330881999999999
        },
        {
          "name": "E2",
          "midi": 40,
          "time": 30.441143999999937,
          "velocity": 0.7480314960629921,
          "duration": 0.22058799999999934
        },
        {
          "name": "E2",
          "midi": 40,
          "time": 30.772025999999936,
          "velocity": 0.7480314960629921,
          "duration": 0.11029399999999967
        },
        {
          "name": "A#2",
          "midi": 46,
          "time": 30.882319999999936,
          "velocity": 0.6220472440944882,
          "duration": 0.4411759999999987
        },
        {
          "name": "C2",
          "midi": 36,
          "time": 30.882319999999936,
          "velocity": 0.7480314960629921,
          "duration": 0.22058799999999934
        },
        {
          "name": "C2",
          "midi": 36,
          "time": 31.102907999999935,
          "velocity": 0.7480314960629921,
          "duration": 0.22058799999999934
        },
        {
          "name": "A#2",
          "midi": 46,
          "time": 31.323495999999935,
          "velocity": 0.6220472440944882,
          "duration": 0.4411759999999987
        },
        {
          "name": "E2",
          "midi": 40,
          "time": 31.323495999999935,
          "velocity": 0.7480314960629921,
          "duration": 0.22058799999999934
        },
        {
          "name": "A#2",
          "midi": 46,
          "time": 31.764671999999933,
          "velocity": 0.6220472440944882,
          "duration": 0.4411759999999987
        },
        {
          "name": "C2",
          "midi": 36,
          "time": 31.764671999999933,
          "velocity": 0.7480314960629921,
          "duration": 0.22058799999999934
        },
        {
          "name": "A#2",
          "midi": 46,
          "time": 32.20584799999993,
          "velocity": 0.6220472440944882,
          "duration": 0.33088200000000256
        },
        {
          "name": "E2",
          "midi": 40,
          "time": 32.20584799999993,
          "velocity": 0.7480314960629921,
          "duration": 0.22058799999999934
        },
        {
          "name": "E2",
          "midi": 40,
          "time": 32.536729999999935,
          "velocity": 0.7480314960629921,
          "duration": 0.11029400000000322
        },
        {
          "name": "A#2",
          "midi": 46,
          "time": 32.64702399999994,
          "velocity": 0.6220472440944882,
          "duration": 0.4411759999999987
        },
        {
          "name": "C2",
          "midi": 36,
          "time": 32.64702399999994,
          "velocity": 0.7480314960629921,
          "duration": 0.22058799999999934
        },
        {
          "name": "C2",
          "midi": 36,
          "time": 32.86761199999994,
          "velocity": 0.7480314960629921,
          "duration": 0.22058799999999934
        },
        {
          "name": "A#2",
          "midi": 46,
          "time": 33.08819999999994,
          "velocity": 0.6220472440944882,
          "duration": 0.4411759999999987
        },
        {
          "name": "E2",
          "midi": 40,
          "time": 33.08819999999994,
          "velocity": 0.7480314960629921,
          "duration": 0.22058799999999934
        },
        {
          "name": "A#2",
          "midi": 46,
          "time": 33.529375999999935,
          "velocity": 0.6220472440944882,
          "duration": 0.4411759999999987
        },
        {
          "name": "C2",
          "midi": 36,
          "time": 33.529375999999935,
          "velocity": 0.7480314960629921,
          "duration": 0.22058799999999934
        },
        {
          "name": "A#2",
          "midi": 46,
          "time": 33.970551999999934,
          "velocity": 0.6220472440944882,
          "duration": 0.33088200000000256
        },
        {
          "name": "E2",
          "midi": 40,
          "time": 33.970551999999934,
          "velocity": 0.7480314960629921,
          "duration": 0.22058799999999934
        },
        {
          "name": "E2",
          "midi": 40,
          "time": 34.30143399999994,
          "velocity": 0.7480314960629921,
          "duration": 0.11029400000000322
        },
        {
          "name": "A#2",
          "midi": 46,
          "time": 34.41172799999994,
          "velocity": 0.6220472440944882,
          "duration": 0.4411759999999987
        },
        {
          "name": "C2",
          "midi": 36,
          "time": 34.41172799999994,
          "velocity": 0.7480314960629921,
          "duration": 0.22058799999999934
        },
        {
          "name": "C2",
          "midi": 36,
          "time": 34.63231599999994,
          "velocity": 0.7480314960629921,
          "duration": 0.22058799999999934
        },
        {
          "name": "A#2",
          "midi": 46,
          "time": 34.85290399999994,
          "velocity": 0.6220472440944882,
          "duration": 0.4411759999999987
        },
        {
          "name": "E2",
          "midi": 40,
          "time": 34.85290399999994,
          "velocity": 0.7480314960629921,
          "duration": 0.22058799999999934
        },
        {
          "name": "A#2",
          "midi": 46,
          "time": 35.29407999999994,
          "velocity": 0.6220472440944882,
          "duration": 0.4411759999999987
        },
        {
          "name": "C2",
          "midi": 36,
          "time": 35.29407999999994,
          "velocity": 0.7480314960629921,
          "duration": 0.22058799999999934
        },
        {
          "name": "A#2",
          "midi": 46,
          "time": 35.735255999999936,
          "velocity": 0.6220472440944882,
          "duration": 0.33088200000000256
        },
        {
          "name": "E2",
          "midi": 40,
          "time": 35.735255999999936,
          "velocity": 0.7480314960629921,
          "duration": 0.22058799999999934
        },
        {
          "name": "E2",
          "midi": 40,
          "time": 36.06613799999994,
          "velocity": 0.7480314960629921,
          "duration": 0.11029400000000322
        },
        {
          "name": "A#2",
          "midi": 46,
          "time": 36.17643199999994,
          "velocity": 0.6220472440944882,
          "duration": 0.4411759999999987
        },
        {
          "name": "C2",
          "midi": 36,
          "time": 36.17643199999994,
          "velocity": 0.7480314960629921,
          "duration": 0.22058799999999934
        },
        {
          "name": "C2",
          "midi": 36,
          "time": 36.39701999999994,
          "velocity": 0.7480314960629921,
          "duration": 0.22058799999999934
        },
        {
          "name": "A#2",
          "midi": 46,
          "time": 36.61760799999994,
          "velocity": 0.6220472440944882,
          "duration": 0.4411759999999987
        },
        {
          "name": "E2",
          "midi": 40,
          "time": 36.61760799999994,
          "velocity": 0.7480314960629921,
          "duration": 0.22058799999999934
        },
        {
          "name": "A#2",
          "midi": 46,
          "time": 37.05878399999994,
          "velocity": 0.6220472440944882,
          "duration": 0.4411759999999987
        },
        {
          "name": "C2",
          "midi": 36,
          "time": 37.05878399999994,
          "velocity": 0.7480314960629921,
          "duration": 0.22058799999999934
        },
        {
          "name": "A#2",
          "midi": 46,
          "time": 37.49995999999994,
          "velocity": 0.6220472440944882,
          "duration": 0.33088200000000256
        },
        {
          "name": "E2",
          "midi": 40,
          "time": 37.49995999999994,
          "velocity": 0.7480314960629921,
          "duration": 0.22058799999999934
        },
        {
          "name": "E2",
          "midi": 40,
          "time": 37.83084199999994,
          "velocity": 0.7480314960629921,
          "duration": 0.11029400000000322
        },
        {
          "name": "A#2",
          "midi": 46,
          "time": 37.94113599999994,
          "velocity": 0.6220472440944882,
          "duration": 0.4411759999999987
        },
        {
          "name": "C2",
          "midi": 36,
          "time": 37.94113599999994,
          "velocity": 0.7480314960629921,
          "duration": 0.22058799999999934
        },
        {
          "name": "C2",
          "midi": 36,
          "time": 38.16172399999994,
          "velocity": 0.7480314960629921,
          "duration": 0.22058799999999934
        },
        {
          "name": "A#2",
          "midi": 46,
          "time": 38.38231199999994,
          "velocity": 0.6220472440944882,
          "duration": 0.4411759999999987
        },
        {
          "name": "E2",
          "midi": 40,
          "time": 38.38231199999994,
          "velocity": 0.7480314960629921,
          "duration": 0.22058799999999934
        },
        {
          "name": "A#2",
          "midi": 46,
          "time": 38.82348799999994,
          "velocity": 0.6220472440944882,
          "duration": 0.4411759999999987
        },
        {
          "name": "C2",
          "midi": 36,
          "time": 38.82348799999994,
          "velocity": 0.7480314960629921,
          "duration": 0.22058799999999934
        },
        {
          "name": "A#2",
          "midi": 46,
          "time": 39.26466399999994,
          "velocity": 0.6220472440944882,
          "duration": 0.33088200000000256
        },
        {
          "name": "E2",
          "midi": 40,
          "time": 39.26466399999994,
          "velocity": 0.7480314960629921,
          "duration": 0.22058799999999934
        },
        {
          "name": "E2",
          "midi": 40,
          "time": 39.59554599999994,
          "velocity": 0.7480314960629921,
          "duration": 0.11029400000000322
        },
        {
          "name": "A#2",
          "midi": 46,
          "time": 39.705839999999945,
          "velocity": 0.6220472440944882,
          "duration": 0.4411759999999987
        },
        {
          "name": "C2",
          "midi": 36,
          "time": 39.705839999999945,
          "velocity": 0.7480314960629921,
          "duration": 0.22058799999999934
        },
        {
          "name": "C2",
          "midi": 36,
          "time": 39.926427999999945,
          "velocity": 0.7480314960629921,
          "duration": 0.22058799999999934
        },
        {
          "name": "A#2",
          "midi": 46,
          "time": 40.147015999999944,
          "velocity": 0.6220472440944882,
          "duration": 0.4411759999999987
        },
        {
          "name": "E2",
          "midi": 40,
          "time": 40.147015999999944,
          "velocity": 0.7480314960629921,
          "duration": 0.22058799999999934
        },
        {
          "name": "A#2",
          "midi": 46,
          "time": 40.58819199999994,
          "velocity": 0.6220472440944882,
          "duration": 0.4411759999999987
        },
        {
          "name": "C2",
          "midi": 36,
          "time": 40.58819199999994,
          "velocity": 0.7480314960629921,
          "duration": 0.22058799999999934
        },
        {
          "name": "A#2",
          "midi": 46,
          "time": 41.02936799999994,
          "velocity": 0.6220472440944882,
          "duration": 0.33088200000000256
        },
        {
          "name": "E2",
          "midi": 40,
          "time": 41.02936799999994,
          "velocity": 0.7480314960629921,
          "duration": 0.22058799999999934
        },
        {
          "name": "E2",
          "midi": 40,
          "time": 41.360249999999944,
          "velocity": 0.7480314960629921,
          "duration": 0.11029400000000322
        },
        {
          "name": "A#2",
          "midi": 46,
          "time": 41.47054399999995,
          "velocity": 0.6220472440944882,
          "duration": 0.4411759999999987
        },
        {
          "name": "C2",
          "midi": 36,
          "time": 41.47054399999995,
          "velocity": 0.7480314960629921,
          "duration": 0.22058799999999934
        },
        {
          "name": "C2",
          "midi": 36,
          "time": 41.691131999999946,
          "velocity": 0.7480314960629921,
          "duration": 0.22058799999999934
        },
        {
          "name": "A#2",
          "midi": 46,
          "time": 41.911719999999946,
          "velocity": 0.6220472440944882,
          "duration": 0.4411759999999987
        },
        {
          "name": "E2",
          "midi": 40,
          "time": 41.911719999999946,
          "velocity": 0.7480314960629921,
          "duration": 0.22058799999999934
        },
        {
          "name": "A#2",
          "midi": 46,
          "time": 42.352895999999944,
          "velocity": 0.6220472440944882,
          "duration": 0.4411759999999987
        },
        {
          "name": "C2",
          "midi": 36,
          "time": 42.352895999999944,
          "velocity": 0.7480314960629921,
          "duration": 0.22058799999999934
        },
        {
          "name": "A#2",
          "midi": 46,
          "time": 42.79407199999994,
          "velocity": 0.6220472440944882,
          "duration": 0.33088200000000256
        },
        {
          "name": "E2",
          "midi": 40,
          "time": 42.79407199999994,
          "velocity": 0.7480314960629921,
          "duration": 0.22058799999999934
        },
        {
          "name": "E2",
          "midi": 40,
          "time": 43.124953999999946,
          "velocity": 0.7480314960629921,
          "duration": 0.11029400000000322
        },
        {
          "name": "A#2",
          "midi": 46,
          "time": 43.23524799999995,
          "velocity": 0.6220472440944882,
          "duration": 0.33088200000000256
        },
        {
          "name": "C2",
          "midi": 36,
          "time": 43.23524799999995,
          "velocity": 0.7480314960629921,
          "duration": 0.33088200000000256
        },
        {
          "name": "C2",
          "midi": 36,
          "time": 43.56612999999995,
          "velocity": 0.7480314960629921,
          "duration": 0.11029400000000322
        },
        {
          "name": "A#2",
          "midi": 46,
          "time": 43.676423999999955,
          "velocity": 0.6220472440944882,
          "duration": 0.22058799999999934
        },
        {
          "name": "E2",
          "midi": 40,
          "time": 43.676423999999955,
          "velocity": 0.7480314960629921,
          "duration": 0.22058799999999934
        },
        {
          "name": "G3",
          "midi": 55,
          "time": 43.897011999999954,
          "velocity": 0.7480314960629921,
          "duration": 0.22058799999999934
        },
        {
          "name": "A#2",
          "midi": 46,
          "time": 44.11759999999995,
          "velocity": 0.6220472440944882,
          "duration": 0.4411759999999987
        },
        {
          "name": "C2",
          "midi": 36,
          "time": 44.11759999999995,
          "velocity": 0.7480314960629921,
          "duration": 0.22058799999999934
        },
        {
          "name": "A#2",
          "midi": 46,
          "time": 44.55877599999995,
          "velocity": 0.6220472440944882,
          "duration": 0.33088200000000256
        },
        {
          "name": "E2",
          "midi": 40,
          "time": 44.55877599999995,
          "velocity": 0.7480314960629921,
          "duration": 0.22058799999999934
        },
        {
          "name": "E2",
          "midi": 40,
          "time": 44.889657999999955,
          "velocity": 0.7480314960629921,
          "duration": 0.11029400000000322
        },
        {
          "name": "A#2",
          "midi": 46,
          "time": 44.99995199999996,
          "velocity": 0.6220472440944882,
          "duration": 0.4411759999999987
        },
        {
          "name": "C2",
          "midi": 36,
          "time": 44.99995199999996,
          "velocity": 0.7480314960629921,
          "duration": 0.22058799999999934
        },
        {
          "name": "C2",
          "midi": 36,
          "time": 45.22053999999996,
          "velocity": 0.7480314960629921,
          "duration": 0.22058799999999934
        },
        {
          "name": "A#2",
          "midi": 46,
          "time": 45.441127999999956,
          "velocity": 0.6220472440944882,
          "duration": 0.4411759999999987
        },
        {
          "name": "E2",
          "midi": 40,
          "time": 45.441127999999956,
          "velocity": 0.7480314960629921,
          "duration": 0.22058799999999934
        },
        {
          "name": "A#2",
          "midi": 46,
          "time": 45.882303999999955,
          "velocity": 0.6220472440944882,
          "duration": 0.4411759999999987
        },
        {
          "name": "C2",
          "midi": 36,
          "time": 45.882303999999955,
          "velocity": 0.7480314960629921,
          "duration": 0.22058799999999934
        },
        {
          "name": "A#2",
          "midi": 46,
          "time": 46.323479999999954,
          "velocity": 0.6220472440944882,
          "duration": 0.33088200000000256
        },
        {
          "name": "E2",
          "midi": 40,
          "time": 46.323479999999954,
          "velocity": 0.7480314960629921,
          "duration": 0.22058799999999934
        },
        {
          "name": "E2",
          "midi": 40,
          "time": 46.654361999999956,
          "velocity": 0.7480314960629921,
          "duration": 0.11029400000000322
        },
        {
          "name": "A#2",
          "midi": 46,
          "time": 46.76465599999996,
          "velocity": 0.6220472440944882,
          "duration": 0.4411759999999987
        },
        {
          "name": "C2",
          "midi": 36,
          "time": 46.76465599999996,
          "velocity": 0.7480314960629921,
          "duration": 0.22058799999999934
        },
        {
          "name": "C2",
          "midi": 36,
          "time": 46.98524399999996,
          "velocity": 0.7480314960629921,
          "duration": 0.22058799999999934
        },
        {
          "name": "A#2",
          "midi": 46,
          "time": 47.20583199999996,
          "velocity": 0.6220472440944882,
          "duration": 0.4411759999999987
        },
        {
          "name": "E2",
          "midi": 40,
          "time": 47.20583199999996,
          "velocity": 0.7480314960629921,
          "duration": 0.22058799999999934
        },
        {
          "name": "A#2",
          "midi": 46,
          "time": 47.64700799999996,
          "velocity": 0.6220472440944882,
          "duration": 0.4411759999999987
        },
        {
          "name": "C2",
          "midi": 36,
          "time": 47.64700799999996,
          "velocity": 0.7480314960629921,
          "duration": 0.22058799999999934
        },
        {
          "name": "A#2",
          "midi": 46,
          "time": 48.088183999999956,
          "velocity": 0.6220472440944882,
          "duration": 0.33088200000000256
        },
        {
          "name": "E2",
          "midi": 40,
          "time": 48.088183999999956,
          "velocity": 0.7480314960629921,
          "duration": 0.22058799999999934
        },
        {
          "name": "E2",
          "midi": 40,
          "time": 48.41906599999996,
          "velocity": 0.7480314960629921,
          "duration": 0.11029400000000322
        },
        {
          "name": "A#2",
          "midi": 46,
          "time": 48.52935999999996,
          "velocity": 0.6220472440944882,
          "duration": 0.4411759999999987
        },
        {
          "name": "C2",
          "midi": 36,
          "time": 48.52935999999996,
          "velocity": 0.7480314960629921,
          "duration": 0.22058799999999934
        },
        {
          "name": "C2",
          "midi": 36,
          "time": 48.74994799999996,
          "velocity": 0.7480314960629921,
          "duration": 0.22058799999999934
        },
        {
          "name": "A#2",
          "midi": 46,
          "time": 48.97053599999996,
          "velocity": 0.6220472440944882,
          "duration": 0.4411759999999987
        },
        {
          "name": "E2",
          "midi": 40,
          "time": 48.97053599999996,
          "velocity": 0.7480314960629921,
          "duration": 0.22058799999999934
        },
        {
          "name": "A#2",
          "midi": 46,
          "time": 49.41171199999996,
          "velocity": 0.6220472440944882,
          "duration": 0.4411759999999987
        },
        {
          "name": "C2",
          "midi": 36,
          "time": 49.41171199999996,
          "velocity": 0.7480314960629921,
          "duration": 0.22058799999999934
        },
        {
          "name": "A#2",
          "midi": 46,
          "time": 49.85288799999996,
          "velocity": 0.6220472440944882,
          "duration": 0.33088200000000256
        },
        {
          "name": "E2",
          "midi": 40,
          "time": 49.85288799999996,
          "velocity": 0.7480314960629921,
          "duration": 0.22058799999999934
        },
        {
          "name": "E2",
          "midi": 40,
          "time": 50.18376999999996,
          "velocity": 0.7480314960629921,
          "duration": 0.11029400000000322
        },
        {
          "name": "A#2",
          "midi": 46,
          "time": 50.29406399999996,
          "velocity": 0.6220472440944882,
          "duration": 0.4411759999999987
        },
        {
          "name": "C2",
          "midi": 36,
          "time": 50.29406399999996,
          "velocity": 0.7480314960629921,
          "duration": 0.22058799999999934
        },
        {
          "name": "C2",
          "midi": 36,
          "time": 50.51465199999996,
          "velocity": 0.7480314960629921,
          "duration": 0.22058799999999934
        },
        {
          "name": "A#2",
          "midi": 46,
          "time": 50.73523999999996,
          "velocity": 0.6220472440944882,
          "duration": 0.4411759999999987
        },
        {
          "name": "E2",
          "midi": 40,
          "time": 50.73523999999996,
          "velocity": 0.7480314960629921,
          "duration": 0.22058799999999934
        },
        {
          "name": "A#2",
          "midi": 46,
          "time": 51.17641599999996,
          "velocity": 0.6220472440944882,
          "duration": 0.4411759999999987
        },
        {
          "name": "C2",
          "midi": 36,
          "time": 51.17641599999996,
          "velocity": 0.7480314960629921,
          "duration": 0.22058799999999934
        },
        {
          "name": "A#2",
          "midi": 46,
          "time": 51.61759199999996,
          "velocity": 0.6220472440944882,
          "duration": 0.33088200000000256
        },
        {
          "name": "E2",
          "midi": 40,
          "time": 51.61759199999996,
          "velocity": 0.7480314960629921,
          "duration": 0.22058799999999934
        },
        {
          "name": "E2",
          "midi": 40,
          "time": 51.94847399999996,
          "velocity": 0.7480314960629921,
          "duration": 0.11029400000000322
        },
        {
          "name": "A#2",
          "midi": 46,
          "time": 52.058767999999965,
          "velocity": 0.6220472440944882,
          "duration": 0.4411759999999987
        },
        {
          "name": "C2",
          "midi": 36,
          "time": 52.058767999999965,
          "velocity": 0.7480314960629921,
          "duration": 0.22058799999999934
        },
        {
          "name": "C2",
          "midi": 36,
          "time": 52.279355999999964,
          "velocity": 0.7480314960629921,
          "duration": 0.22058799999999934
        },
        {
          "name": "A#2",
          "midi": 46,
          "time": 52.499943999999964,
          "velocity": 0.6220472440944882,
          "duration": 0.4411759999999987
        },
        {
          "name": "E2",
          "midi": 40,
          "time": 52.499943999999964,
          "velocity": 0.7480314960629921,
          "duration": 0.22058799999999934
        },
        {
          "name": "A#2",
          "midi": 46,
          "time": 52.94111999999996,
          "velocity": 0.6220472440944882,
          "duration": 0.4411759999999987
        },
        {
          "name": "C2",
          "midi": 36,
          "time": 52.94111999999996,
          "velocity": 0.7480314960629921,
          "duration": 0.22058799999999934
        },
        {
          "name": "A#2",
          "midi": 46,
          "time": 53.38229599999996,
          "velocity": 0.6220472440944882,
          "duration": 0.33088200000000256
        },
        {
          "name": "E2",
          "midi": 40,
          "time": 53.38229599999996,
          "velocity": 0.7480314960629921,
          "duration": 0.22058799999999934
        },
        {
          "name": "E2",
          "midi": 40,
          "time": 53.713177999999964,
          "velocity": 0.7480314960629921,
          "duration": 0.11029400000000322
        },
        {
          "name": "A#2",
          "midi": 46,
          "time": 53.82347199999997,
          "velocity": 0.6220472440944882,
          "duration": 0.4411759999999987
        },
        {
          "name": "C2",
          "midi": 36,
          "time": 53.82347199999997,
          "velocity": 0.7480314960629921,
          "duration": 0.22058799999999934
        },
        {
          "name": "C2",
          "midi": 36,
          "time": 54.044059999999966,
          "velocity": 0.7480314960629921,
          "duration": 0.22058799999999934
        },
        {
          "name": "A#2",
          "midi": 46,
          "time": 54.264647999999966,
          "velocity": 0.6220472440944882,
          "duration": 0.4411759999999987
        },
        {
          "name": "E2",
          "midi": 40,
          "time": 54.264647999999966,
          "velocity": 0.7480314960629921,
          "duration": 0.22058799999999934
        },
        {
          "name": "A3",
          "midi": 57,
          "time": 54.705823999999964,
          "velocity": 0.6220472440944882,
          "duration": 0.8823519999999974
        },
        {
          "name": "C#3",
          "midi": 49,
          "time": 54.705823999999964,
          "velocity": 0.49606299212598426,
          "duration": 0.8823519999999974
        },
        {
          "name": "E2",
          "midi": 40,
          "time": 54.705823999999964,
          "velocity": 0.7480314960629921,
          "duration": 0.8823519999999974
        },
        {
          "name": "A2",
          "midi": 45,
          "time": 55.58817599999996,
          "velocity": 0.3700787401574803,
          "duration": 0.22058799999999934
        },
        {
          "name": "E2",
          "midi": 40,
          "time": 55.58817599999996,
          "velocity": 0.3700787401574803,
          "duration": 0.22058799999999934
        },
        {
          "name": "A2",
          "midi": 45,
          "time": 55.80876399999996,
          "velocity": 0.3700787401574803,
          "duration": 0.22058799999999934
        },
        {
          "name": "E2",
          "midi": 40,
          "time": 55.80876399999996,
          "velocity": 0.3700787401574803,
          "duration": 0.22058799999999934
        },
        {
          "name": "A2",
          "midi": 45,
          "time": 56.02935199999996,
          "velocity": 0.49606299212598426,
          "duration": 0.22058799999999934
        },
        {
          "name": "E2",
          "midi": 40,
          "time": 56.02935199999996,
          "velocity": 0.49606299212598426,
          "duration": 0.22058799999999934
        },
        {
          "name": "A2",
          "midi": 45,
          "time": 56.24993999999996,
          "velocity": 0.49606299212598426,
          "duration": 0.22058799999999934
        },
        {
          "name": "E2",
          "midi": 40,
          "time": 56.24993999999996,
          "velocity": 0.49606299212598426,
          "duration": 0.22058799999999934
        },
        {
          "name": "A2",
          "midi": 45,
          "time": 56.47052799999996,
          "velocity": 0.6220472440944882,
          "duration": 0.22058799999999934
        },
        {
          "name": "E2",
          "midi": 40,
          "time": 56.47052799999996,
          "velocity": 0.6220472440944882,
          "duration": 0.22058799999999934
        },
        {
          "name": "A2",
          "midi": 45,
          "time": 56.69111599999996,
          "velocity": 0.6220472440944882,
          "duration": 0.22058799999999934
        },
        {
          "name": "E2",
          "midi": 40,
          "time": 56.69111599999996,
          "velocity": 0.6220472440944882,
          "duration": 0.22058799999999934
        },
        {
          "name": "A2",
          "midi": 45,
          "time": 56.91170399999996,
          "velocity": 0.7480314960629921,
          "duration": 0.22058799999999934
        },
        {
          "name": "E2",
          "midi": 40,
          "time": 56.91170399999996,
          "velocity": 0.7480314960629921,
          "duration": 0.22058799999999934
        },
        {
          "name": "A2",
          "midi": 45,
          "time": 57.13229199999996,
          "velocity": 0.7480314960629921,
          "duration": 0.22058799999999934
        },
        {
          "name": "E2",
          "midi": 40,
          "time": 57.13229199999996,
          "velocity": 0.7480314960629921,
          "duration": 0.22058799999999934
        },
        {
          "name": "A2",
          "midi": 45,
          "time": 57.352879999999956,
          "velocity": 0.8740157480314961,
          "duration": 0.22058799999999934
        },
        {
          "name": "E2",
          "midi": 40,
          "time": 57.352879999999956,
          "velocity": 0.8740157480314961,
          "duration": 0.22058799999999934
        },
        {
          "name": "A2",
          "midi": 45,
          "time": 57.573467999999956,
          "velocity": 0.8740157480314961,
          "duration": 0.22058799999999934
        },
        {
          "name": "E2",
          "midi": 40,
          "time": 57.573467999999956,
          "velocity": 0.8740157480314961,
          "duration": 0.22058799999999934
        },
        {
          "name": "A2",
          "midi": 45,
          "time": 57.794055999999955,
          "velocity": 0.8740157480314961,
          "duration": 0.22058799999999934
        },
        {
          "name": "E2",
          "midi": 40,
          "time": 57.794055999999955,
          "velocity": 0.8740157480314961,
          "duration": 0.22058799999999934
        },
        {
          "name": "A2",
          "midi": 45,
          "time": 58.014643999999954,
          "velocity": 0.8740157480314961,
          "duration": 0.22058799999999934
        },
        {
          "name": "E2",
          "midi": 40,
          "time": 58.014643999999954,
          "velocity": 0.8740157480314961,
          "duration": 0.22058799999999934
        },
        {
          "name": "A3",
          "midi": 57,
          "time": 58.235231999999954,
          "velocity": 0.7480314960629921,
          "duration": 0.22058799999999934
        },
        {
          "name": "C#3",
          "midi": 49,
          "time": 58.235231999999954,
          "velocity": 0.6220472440944882,
          "duration": 0.22058799999999934
        },
        {
          "name": "C2",
          "midi": 36,
          "time": 58.235231999999954,
          "velocity": 0.7480314960629921,
          "duration": 0.22058799999999934
        },
        {
          "name": "C2",
          "midi": 36,
          "time": 58.45581999999995,
          "velocity": 0.7480314960629921,
          "duration": 0.22058799999999934
        },
        {
          "name": "C#3",
          "midi": 49,
          "time": 58.67640799999995,
          "velocity": 0.6220472440944882,
          "duration": 0.22058799999999934
        },
        {
          "name": "E2",
          "midi": 40,
          "time": 58.67640799999995,
          "velocity": 0.7480314960629921,
          "duration": 0.22058799999999934
        },
        {
          "name": "C#3",
          "midi": 49,
          "time": 59.11758399999995,
          "velocity": 0.6220472440944882,
          "duration": 0.22058799999999934
        },
        {
          "name": "C2",
          "midi": 36,
          "time": 59.11758399999995,
          "velocity": 0.7480314960629921,
          "duration": 0.22058799999999934
        },
        {
          "name": "C2",
          "midi": 36,
          "time": 59.33817199999995,
          "velocity": 0.7480314960629921,
          "duration": 0.22058799999999934
        },
        {
          "name": "C#3",
          "midi": 49,
          "time": 59.55875999999995,
          "velocity": 0.6220472440944882,
          "duration": 0.22058799999999934
        },
        {
          "name": "E2",
          "midi": 40,
          "time": 59.55875999999995,
          "velocity": 0.7480314960629921,
          "duration": 0.22058799999999934
        },
        {
          "name": "C#3",
          "midi": 49,
          "time": 59.99993599999995,
          "velocity": 0.6220472440944882,
          "duration": 0.22058799999999934
        },
        {
          "name": "C2",
          "midi": 36,
          "time": 59.99993599999995,
          "velocity": 0.7480314960629921,
          "duration": 0.22058799999999934
        },
        {
          "name": "C2",
          "midi": 36,
          "time": 60.22052399999995,
          "velocity": 0.7480314960629921,
          "duration": 0.22058799999999934
        },
        {
          "name": "C#3",
          "midi": 49,
          "time": 60.44111199999995,
          "velocity": 0.6220472440944882,
          "duration": 0.22058799999999934
        },
        {
          "name": "E2",
          "midi": 40,
          "time": 60.44111199999995,
          "velocity": 0.7480314960629921,
          "duration": 0.22058799999999934
        },
        {
          "name": "C#3",
          "midi": 49,
          "time": 60.882287999999946,
          "velocity": 0.6220472440944882,
          "duration": 0.22058799999999934
        },
        {
          "name": "C2",
          "midi": 36,
          "time": 60.882287999999946,
          "velocity": 0.7480314960629921,
          "duration": 0.22058799999999934
        },
        {
          "name": "C2",
          "midi": 36,
          "time": 61.102875999999945,
          "velocity": 0.7480314960629921,
          "duration": 0.22058799999999934
        },
        {
          "name": "C#3",
          "midi": 49,
          "time": 61.323463999999944,
          "velocity": 0.6220472440944882,
          "duration": 0.22058799999999934
        },
        {
          "name": "E2",
          "midi": 40,
          "time": 61.323463999999944,
          "velocity": 0.7480314960629921,
          "duration": 0.22058799999999934
        },
        {
          "name": "C#3",
          "midi": 49,
          "time": 61.76463999999994,
          "velocity": 0.6220472440944882,
          "duration": 0.22058799999999934
        },
        {
          "name": "C2",
          "midi": 36,
          "time": 61.76463999999994,
          "velocity": 0.7480314960629921,
          "duration": 0.22058799999999934
        },
        {
          "name": "C2",
          "midi": 36,
          "time": 61.98522799999994,
          "velocity": 0.7480314960629921,
          "duration": 0.22058799999999934
        },
        {
          "name": "C#3",
          "midi": 49,
          "time": 62.20581599999994,
          "velocity": 0.6220472440944882,
          "duration": 0.22058799999999934
        },
        {
          "name": "E2",
          "midi": 40,
          "time": 62.20581599999994,
          "velocity": 0.7480314960629921,
          "duration": 0.22058799999999934
        },
        {
          "name": "C#3",
          "midi": 49,
          "time": 62.64699199999994,
          "velocity": 0.6220472440944882,
          "duration": 0.22058799999999934
        },
        {
          "name": "C2",
          "midi": 36,
          "time": 62.64699199999994,
          "velocity": 0.7480314960629921,
          "duration": 0.22058799999999934
        },
        {
          "name": "C2",
          "midi": 36,
          "time": 62.86757999999994,
          "velocity": 0.7480314960629921,
          "duration": 0.22058799999999934
        },
        {
          "name": "C#3",
          "midi": 49,
          "time": 63.08816799999994,
          "velocity": 0.6220472440944882,
          "duration": 0.22058799999999934
        },
        {
          "name": "E2",
          "midi": 40,
          "time": 63.08816799999994,
          "velocity": 0.7480314960629921,
          "duration": 0.22058799999999934
        },
        {
          "name": "C#3",
          "midi": 49,
          "time": 63.52934399999994,
          "velocity": 0.6220472440944882,
          "duration": 0.22058799999999934
        },
        {
          "name": "C2",
          "midi": 36,
          "time": 63.52934399999994,
          "velocity": 0.7480314960629921,
          "duration": 0.22058799999999934
        },
        {
          "name": "C2",
          "midi": 36,
          "time": 63.74993199999994,
          "velocity": 0.7480314960629921,
          "duration": 0.22058799999999934
        },
        {
          "name": "C#3",
          "midi": 49,
          "time": 63.97051999999994,
          "velocity": 0.6220472440944882,
          "duration": 0.22058800000000645
        },
        {
          "name": "E2",
          "midi": 40,
          "time": 63.97051999999994,
          "velocity": 0.7480314960629921,
          "duration": 0.22058800000000645
        },
        {
          "name": "C#3",
          "midi": 49,
          "time": 64.41169599999995,
          "velocity": 0.6220472440944882,
          "duration": 0.22058800000000645
        },
        {
          "name": "C2",
          "midi": 36,
          "time": 64.41169599999995,
          "velocity": 0.7480314960629921,
          "duration": 0.22058800000000645
        },
        {
          "name": "C2",
          "midi": 36,
          "time": 64.63228399999996,
          "velocity": 0.7480314960629921,
          "duration": 0.22058800000000645
        },
        {
          "name": "C#3",
          "midi": 49,
          "time": 64.85287199999996,
          "velocity": 0.6220472440944882,
          "duration": 0.22058800000000645
        },
        {
          "name": "E2",
          "midi": 40,
          "time": 64.85287199999996,
          "velocity": 0.7480314960629921,
          "duration": 0.22058800000000645
        },
        {
          "name": "A3",
          "midi": 57,
          "time": 65.29404799999998,
          "velocity": 0.7480314960629921,
          "duration": 0.22058800000000645
        },
        {
          "name": "C#3",
          "midi": 49,
          "time": 65.29404799999998,
          "velocity": 0.6220472440944882,
          "duration": 0.22058800000000645
        },
        {
          "name": "C2",
          "midi": 36,
          "time": 65.29404799999998,
          "velocity": 0.7480314960629921,
          "duration": 0.22058800000000645
        },
        {
          "name": "C2",
          "midi": 36,
          "time": 65.51463599999998,
          "velocity": 0.7480314960629921,
          "duration": 0.22058800000000645
        },
        {
          "name": "C#3",
          "midi": 49,
          "time": 65.73522399999999,
          "velocity": 0.6220472440944882,
          "duration": 0.22058800000000645
        },
        {
          "name": "E2",
          "midi": 40,
          "time": 65.73522399999999,
          "velocity": 0.7480314960629921,
          "duration": 0.22058800000000645
        },
        {
          "name": "C#3",
          "midi": 49,
          "time": 66.1764,
          "velocity": 0.6220472440944882,
          "duration": 0.22058800000000645
        },
        {
          "name": "C2",
          "midi": 36,
          "time": 66.1764,
          "velocity": 0.7480314960629921,
          "duration": 0.22058800000000645
        },
        {
          "name": "C2",
          "midi": 36,
          "time": 66.39698800000001,
          "velocity": 0.7480314960629921,
          "duration": 0.22058800000000645
        },
        {
          "name": "C#3",
          "midi": 49,
          "time": 66.61757600000001,
          "velocity": 0.6220472440944882,
          "duration": 0.22058800000000645
        },
        {
          "name": "E2",
          "midi": 40,
          "time": 66.61757600000001,
          "velocity": 0.7480314960629921,
          "duration": 0.22058800000000645
        },
        {
          "name": "C#3",
          "midi": 49,
          "time": 67.05875200000003,
          "velocity": 0.6220472440944882,
          "duration": 0.22058800000000645
        },
        {
          "name": "C2",
          "midi": 36,
          "time": 67.05875200000003,
          "velocity": 0.7480314960629921,
          "duration": 0.22058800000000645
        },
        {
          "name": "C2",
          "midi": 36,
          "time": 67.27934000000003,
          "velocity": 0.7480314960629921,
          "duration": 0.22058800000000645
        },
        {
          "name": "C#3",
          "midi": 49,
          "time": 67.49992800000004,
          "velocity": 0.6220472440944882,
          "duration": 0.22058800000000645
        },
        {
          "name": "E2",
          "midi": 40,
          "time": 67.49992800000004,
          "velocity": 0.7480314960629921,
          "duration": 0.22058800000000645
        },
        {
          "name": "C#3",
          "midi": 49,
          "time": 67.94110400000005,
          "velocity": 0.6220472440944882,
          "duration": 0.22058800000000645
        },
        {
          "name": "C2",
          "midi": 36,
          "time": 67.94110400000005,
          "velocity": 0.7480314960629921,
          "duration": 0.22058800000000645
        },
        {
          "name": "C2",
          "midi": 36,
          "time": 68.16169200000006,
          "velocity": 0.7480314960629921,
          "duration": 0.22058800000000645
        },
        {
          "name": "C#3",
          "midi": 49,
          "time": 68.38228000000007,
          "velocity": 0.6220472440944882,
          "duration": 0.22058800000000645
        },
        {
          "name": "E2",
          "midi": 40,
          "time": 68.38228000000007,
          "velocity": 0.7480314960629921,
          "duration": 0.22058800000000645
        },
        {
          "name": "C#3",
          "midi": 49,
          "time": 68.82345600000008,
          "velocity": 0.6220472440944882,
          "duration": 0.22058800000000645
        },
        {
          "name": "C2",
          "midi": 36,
          "time": 68.82345600000008,
          "velocity": 0.7480314960629921,
          "duration": 0.22058800000000645
        },
        {
          "name": "C2",
          "midi": 36,
          "time": 69.04404400000008,
          "velocity": 0.7480314960629921,
          "duration": 0.22058800000000645
        },
        {
          "name": "C#3",
          "midi": 49,
          "time": 69.26463200000009,
          "velocity": 0.6220472440944882,
          "duration": 0.22058800000000645
        },
        {
          "name": "E2",
          "midi": 40,
          "time": 69.26463200000009,
          "velocity": 0.7480314960629921,
          "duration": 0.22058800000000645
        },
        {
          "name": "C#3",
          "midi": 49,
          "time": 69.7058080000001,
          "velocity": 0.6220472440944882,
          "duration": 0.22058800000000645
        },
        {
          "name": "C2",
          "midi": 36,
          "time": 69.7058080000001,
          "velocity": 0.7480314960629921,
          "duration": 0.22058800000000645
        },
        {
          "name": "C2",
          "midi": 36,
          "time": 69.92639600000011,
          "velocity": 0.7480314960629921,
          "duration": 0.22058800000000645
        },
        {
          "name": "C#3",
          "midi": 49,
          "time": 70.14698400000012,
          "velocity": 0.6220472440944882,
          "duration": 0.22058800000000645
        },
        {
          "name": "E2",
          "midi": 40,
          "time": 70.14698400000012,
          "velocity": 0.7480314960629921,
          "duration": 0.22058800000000645
        },
        {
          "name": "C#3",
          "midi": 49,
          "time": 70.58816000000013,
          "velocity": 0.6220472440944882,
          "duration": 0.22058800000000645
        },
        {
          "name": "C2",
          "midi": 36,
          "time": 70.58816000000013,
          "velocity": 0.7480314960629921,
          "duration": 0.22058800000000645
        },
        {
          "name": "A#2",
          "midi": 46,
          "time": 70.80874800000014,
          "velocity": 0.7480314960629921,
          "duration": 0.22058800000000645
        },
        {
          "name": "E2",
          "midi": 40,
          "time": 70.80874800000014,
          "velocity": 0.8740157480314961,
          "duration": 0.22058800000000645
        },
        {
          "name": "C2",
          "midi": 36,
          "time": 70.80874800000014,
          "velocity": 0.7480314960629921,
          "duration": 0.22058800000000645
        },
        {
          "name": "A#2",
          "midi": 46,
          "time": 71.02933600000014,
          "velocity": 0.7480314960629921,
          "duration": 0.22058800000000645
        },
        {
          "name": "E2",
          "midi": 40,
          "time": 71.02933600000014,
          "velocity": 0.8740157480314961,
          "duration": 0.22058800000000645
        },
        {
          "name": "C2",
          "midi": 36,
          "time": 71.02933600000014,
          "velocity": 0.7480314960629921,
          "duration": 0.22058800000000645
        },
        {
          "name": "C2",
          "midi": 36,
          "time": 71.47051200000016,
          "velocity": 0.7480314960629921,
          "duration": 0.22058800000000645
        },
        {
          "name": "A#2",
          "midi": 46,
          "time": 71.69110000000016,
          "velocity": 0.7480314960629921,
          "duration": 0.22058800000000645
        },
        {
          "name": "E2",
          "midi": 40,
          "time": 71.69110000000016,
          "velocity": 0.8740157480314961,
          "duration": 0.22058800000000645
        },
        {
          "name": "C2",
          "midi": 36,
          "time": 71.69110000000016,
          "velocity": 0.7480314960629921,
          "duration": 0.22058800000000645
        },
        {
          "name": "A#2",
          "midi": 46,
          "time": 71.91168800000017,
          "velocity": 0.7480314960629921,
          "duration": 0.22058800000000645
        },
        {
          "name": "E2",
          "midi": 40,
          "time": 71.91168800000017,
          "velocity": 0.8740157480314961,
          "duration": 0.22058800000000645
        },
        {
          "name": "C2",
          "midi": 36,
          "time": 71.91168800000017,
          "velocity": 0.7480314960629921,
          "duration": 0.22058800000000645
        },
        {
          "name": "A3",
          "midi": 57,
          "time": 72.35286400000018,
          "velocity": 0.7480314960629921,
          "duration": 0.22058800000000645
        },
        {
          "name": "C#3",
          "midi": 49,
          "time": 72.35286400000018,
          "velocity": 0.6220472440944882,
          "duration": 0.22058800000000645
        },
        {
          "name": "C2",
          "midi": 36,
          "time": 72.35286400000018,
          "velocity": 0.7480314960629921,
          "duration": 0.22058800000000645
        },
        {
          "name": "C2",
          "midi": 36,
          "time": 72.57345200000019,
          "velocity": 0.7480314960629921,
          "duration": 0.22058800000000645
        },
        {
          "name": "C#3",
          "midi": 49,
          "time": 72.7940400000002,
          "velocity": 0.6220472440944882,
          "duration": 0.22058800000000645
        },
        {
          "name": "E2",
          "midi": 40,
          "time": 72.7940400000002,
          "velocity": 0.7480314960629921,
          "duration": 0.22058800000000645
        },
        {
          "name": "C#3",
          "midi": 49,
          "time": 73.23521600000021,
          "velocity": 0.6220472440944882,
          "duration": 0.22058800000000645
        },
        {
          "name": "C2",
          "midi": 36,
          "time": 73.23521600000021,
          "velocity": 0.7480314960629921,
          "duration": 0.22058800000000645
        },
        {
          "name": "C2",
          "midi": 36,
          "time": 73.45580400000021,
          "velocity": 0.7480314960629921,
          "duration": 0.22058800000000645
        },
        {
          "name": "C#3",
          "midi": 49,
          "time": 73.67639200000022,
          "velocity": 0.6220472440944882,
          "duration": 0.22058800000000645
        },
        {
          "name": "E2",
          "midi": 40,
          "time": 73.67639200000022,
          "velocity": 0.7480314960629921,
          "duration": 0.22058800000000645
        },
        {
          "name": "C#3",
          "midi": 49,
          "time": 74.11756800000023,
          "velocity": 0.6220472440944882,
          "duration": 0.22058800000000645
        },
        {
          "name": "C2",
          "midi": 36,
          "time": 74.11756800000023,
          "velocity": 0.7480314960629921,
          "duration": 0.22058800000000645
        },
        {
          "name": "C2",
          "midi": 36,
          "time": 74.33815600000024,
          "velocity": 0.7480314960629921,
          "duration": 0.22058800000000645
        },
        {
          "name": "C#3",
          "midi": 49,
          "time": 74.55874400000025,
          "velocity": 0.6220472440944882,
          "duration": 0.22058800000000645
        },
        {
          "name": "E2",
          "midi": 40,
          "time": 74.55874400000025,
          "velocity": 0.7480314960629921,
          "duration": 0.22058800000000645
        },
        {
          "name": "C#3",
          "midi": 49,
          "time": 74.99992000000026,
          "velocity": 0.6220472440944882,
          "duration": 0.22058800000000645
        },
        {
          "name": "C2",
          "midi": 36,
          "time": 74.99992000000026,
          "velocity": 0.7480314960629921,
          "duration": 0.22058800000000645
        },
        {
          "name": "C2",
          "midi": 36,
          "time": 75.22050800000027,
          "velocity": 0.7480314960629921,
          "duration": 0.22058800000000645
        },
        {
          "name": "C#3",
          "midi": 49,
          "time": 75.44109600000027,
          "velocity": 0.6220472440944882,
          "duration": 0.22058800000000645
        },
        {
          "name": "E2",
          "midi": 40,
          "time": 75.44109600000027,
          "velocity": 0.7480314960629921,
          "duration": 0.22058800000000645
        },
        {
          "name": "C#3",
          "midi": 49,
          "time": 75.88227200000028,
          "velocity": 0.6220472440944882,
          "duration": 0.22058800000000645
        },
        {
          "name": "C2",
          "midi": 36,
          "time": 75.88227200000028,
          "velocity": 0.7480314960629921,
          "duration": 0.22058800000000645
        },
        {
          "name": "C2",
          "midi": 36,
          "time": 76.10286000000029,
          "velocity": 0.7480314960629921,
          "duration": 0.22058800000000645
        },
        {
          "name": "C#3",
          "midi": 49,
          "time": 76.3234480000003,
          "velocity": 0.6220472440944882,
          "duration": 0.22058800000000645
        },
        {
          "name": "E2",
          "midi": 40,
          "time": 76.3234480000003,
          "velocity": 0.7480314960629921,
          "duration": 0.22058800000000645
        },
        {
          "name": "C#3",
          "midi": 49,
          "time": 76.76462400000031,
          "velocity": 0.6220472440944882,
          "duration": 0.22058800000000645
        },
        {
          "name": "C2",
          "midi": 36,
          "time": 76.76462400000031,
          "velocity": 0.7480314960629921,
          "duration": 0.22058800000000645
        },
        {
          "name": "C2",
          "midi": 36,
          "time": 76.98521200000032,
          "velocity": 0.7480314960629921,
          "duration": 0.22058800000000645
        },
        {
          "name": "C#3",
          "midi": 49,
          "time": 77.20580000000032,
          "velocity": 0.6220472440944882,
          "duration": 0.22058800000000645
        },
        {
          "name": "E2",
          "midi": 40,
          "time": 77.20580000000032,
          "velocity": 0.7480314960629921,
          "duration": 0.22058800000000645
        },
        {
          "name": "C#3",
          "midi": 49,
          "time": 77.64697600000034,
          "velocity": 0.6220472440944882,
          "duration": 0.22058800000000645
        },
        {
          "name": "C2",
          "midi": 36,
          "time": 77.64697600000034,
          "velocity": 0.7480314960629921,
          "duration": 0.22058800000000645
        },
        {
          "name": "C2",
          "midi": 36,
          "time": 77.86756400000034,
          "velocity": 0.7480314960629921,
          "duration": 0.22058800000000645
        },
        {
          "name": "C#3",
          "midi": 49,
          "time": 78.08815200000035,
          "velocity": 0.6220472440944882,
          "duration": 0.22058800000000645
        },
        {
          "name": "E2",
          "midi": 40,
          "time": 78.08815200000035,
          "velocity": 0.7480314960629921,
          "duration": 0.22058800000000645
        },
        {
          "name": "C#3",
          "midi": 49,
          "time": 78.52932800000036,
          "velocity": 0.6220472440944882,
          "duration": 0.22058800000000645
        },
        {
          "name": "C2",
          "midi": 36,
          "time": 78.52932800000036,
          "velocity": 0.7480314960629921,
          "duration": 0.22058800000000645
        },
        {
          "name": "C2",
          "midi": 36,
          "time": 78.74991600000037,
          "velocity": 0.7480314960629921,
          "duration": 0.22058800000000645
        },
        {
          "name": "C#3",
          "midi": 49,
          "time": 78.97050400000037,
          "velocity": 0.6220472440944882,
          "duration": 0.22058800000000645
        },
        {
          "name": "E2",
          "midi": 40,
          "time": 78.97050400000037,
          "velocity": 0.7480314960629921,
          "duration": 0.22058800000000645
        },
        {
          "name": "A3",
          "midi": 57,
          "time": 79.41168000000039,
          "velocity": 0.7480314960629921,
          "duration": 0.22058800000000645
        },
        {
          "name": "C#3",
          "midi": 49,
          "time": 79.41168000000039,
          "velocity": 0.6220472440944882,
          "duration": 0.22058800000000645
        },
        {
          "name": "C2",
          "midi": 36,
          "time": 79.41168000000039,
          "velocity": 0.7480314960629921,
          "duration": 0.22058800000000645
        },
        {
          "name": "C2",
          "midi": 36,
          "time": 79.6322680000004,
          "velocity": 0.7480314960629921,
          "duration": 0.22058800000000645
        },
        {
          "name": "C#3",
          "midi": 49,
          "time": 79.8528560000004,
          "velocity": 0.6220472440944882,
          "duration": 0.22058800000000645
        },
        {
          "name": "E2",
          "midi": 40,
          "time": 79.8528560000004,
          "velocity": 0.7480314960629921,
          "duration": 0.22058800000000645
        },
        {
          "name": "A#2",
          "midi": 46,
          "time": 80.29403200000041,
          "velocity": 0.7480314960629921,
          "duration": 0.22058800000000645
        },
        {
          "name": "C2",
          "midi": 36,
          "time": 80.29403200000041,
          "velocity": 0.7480314960629921,
          "duration": 0.22058800000000645
        },
        {
          "name": "C2",
          "midi": 36,
          "time": 80.51462000000042,
          "velocity": 0.7480314960629921,
          "duration": 0.22058800000000645
        },
        {
          "name": "E2",
          "midi": 40,
          "time": 80.73520800000043,
          "velocity": 0.7480314960629921,
          "duration": 0.22058800000000645
        },
        {
          "name": "A#2",
          "midi": 46,
          "time": 81.17638400000044,
          "velocity": 0.7480314960629921,
          "duration": 0.22058800000000645
        },
        {
          "name": "C2",
          "midi": 36,
          "time": 81.17638400000044,
          "velocity": 0.7480314960629921,
          "duration": 0.22058800000000645
        },
        {
          "name": "C2",
          "midi": 36,
          "time": 81.39697200000045,
          "velocity": 0.7480314960629921,
          "duration": 0.22058800000000645
        },
        {
          "name": "E2",
          "midi": 40,
          "time": 81.61756000000045,
          "velocity": 0.7480314960629921,
          "duration": 0.22058800000000645
        },
        {
          "name": "C2",
          "midi": 36,
          "time": 82.05873600000047,
          "velocity": 0.7480314960629921,
          "duration": 0.22058800000000645
        },
        {
          "name": "C2",
          "midi": 36,
          "time": 82.27932400000047,
          "velocity": 0.7480314960629921,
          "duration": 0.22058800000000645
        },
        {
          "name": "E2",
          "midi": 40,
          "time": 82.49991200000048,
          "velocity": 0.7480314960629921,
          "duration": 0.22058800000000645
        },
        {
          "name": "C2",
          "midi": 36,
          "time": 82.72050000000048,
          "velocity": 0.7480314960629921,
          "duration": 0.22058800000000645
        },
        {
          "name": "E2",
          "midi": 40,
          "time": 82.94108800000049,
          "velocity": 0.8740157480314961,
          "duration": 0.22058800000000645
        },
        {
          "name": "C2",
          "midi": 36,
          "time": 83.1616760000005,
          "velocity": 0.7480314960629921,
          "duration": 0.22058800000000645
        },
        {
          "name": "E2",
          "midi": 40,
          "time": 83.3822640000005,
          "velocity": 0.8740157480314961,
          "duration": 0.22058800000000645
        },
        {
          "name": "C2",
          "midi": 36,
          "time": 83.60285200000051,
          "velocity": 0.7480314960629921,
          "duration": 0.22058800000000645
        },
        {
          "name": "E2",
          "midi": 40,
          "time": 83.82344000000052,
          "velocity": 0.8740157480314961,
          "duration": 0.22058800000000645
        },
        {
          "name": "C2",
          "midi": 36,
          "time": 84.04402800000052,
          "velocity": 0.7480314960629921,
          "duration": 0.22058800000000645
        },
        {
          "name": "E2",
          "midi": 40,
          "time": 84.26461600000053,
          "velocity": 0.8740157480314961,
          "duration": 0.22058800000000645
        },
        {
          "name": "C2",
          "midi": 36,
          "time": 84.48520400000054,
          "velocity": 0.7480314960629921,
          "duration": 0.22058800000000645
        },
        {
          "name": "E2",
          "midi": 40,
          "time": 84.70579200000054,
          "velocity": 0.8740157480314961,
          "duration": 0.22058800000000645
        },
        {
          "name": "C2",
          "midi": 36,
          "time": 84.92638000000055,
          "velocity": 0.7480314960629921,
          "duration": 0.22058800000000645
        },
        {
          "name": "E2",
          "midi": 40,
          "time": 85.14696800000056,
          "velocity": 0.8740157480314961,
          "duration": 0.22058800000000645
        },
        {
          "name": "C2",
          "midi": 36,
          "time": 85.36755600000056,
          "velocity": 0.7480314960629921,
          "duration": 0.22058800000000645
        },
        {
          "name": "E2",
          "midi": 40,
          "time": 85.58814400000057,
          "velocity": 0.8740157480314961,
          "duration": 0.22058800000000645
        },
        {
          "name": "E2",
          "midi": 40,
          "time": 85.80873200000057,
          "velocity": 0.8740157480314961,
          "duration": 0.11029399999999612
        },
        {
          "name": "E2",
          "midi": 40,
          "time": 85.91902600000057,
          "velocity": 0.8740157480314961,
          "duration": 0.11029399999999612
        },
        {
          "name": "E2",
          "midi": 40,
          "time": 86.02932000000057,
          "velocity": 0.8740157480314961,
          "duration": 0.11029399999999612
        },
        {
          "name": "E2",
          "midi": 40,
          "time": 86.13961400000056,
          "velocity": 0.8740157480314961,
          "duration": 0.11029399999999612
        },
        {
          "name": "E2",
          "midi": 40,
          "time": 86.24990800000056,
          "velocity": 0.8740157480314961,
          "duration": 0.11029399999999612
        },
        {
          "name": "E2",
          "midi": 40,
          "time": 86.36020200000056,
          "velocity": 0.8740157480314961,
          "duration": 0.11029399999999612
        },
        {
          "name": "A3",
          "midi": 57,
          "time": 86.47049600000055,
          "velocity": 0.7480314960629921,
          "duration": 0.4411760000000129
        },
        {
          "name": "C#3",
          "midi": 49,
          "time": 86.47049600000055,
          "velocity": 0.6220472440944882,
          "duration": 0.22058800000000645
        },
        {
          "name": "C2",
          "midi": 36,
          "time": 86.47049600000055,
          "velocity": 0.7480314960629921,
          "duration": 0.22058800000000645
        },
        {
          "name": "C#3",
          "midi": 49,
          "time": 86.91167200000056,
          "velocity": 0.6220472440944882,
          "duration": 0.33088200000000256
        },
        {
          "name": "E2",
          "midi": 40,
          "time": 86.91167200000056,
          "velocity": 0.7480314960629921,
          "duration": 0.22058800000000645
        },
        {
          "name": "E2",
          "midi": 40,
          "time": 87.24255400000057,
          "velocity": 0.7480314960629921,
          "duration": 0.11029399999999612
        },
        {
          "name": "C#3",
          "midi": 49,
          "time": 87.35284800000056,
          "velocity": 0.6220472440944882,
          "duration": 0.4411760000000129
        },
        {
          "name": "C2",
          "midi": 36,
          "time": 87.35284800000056,
          "velocity": 0.7480314960629921,
          "duration": 0.22058800000000645
        },
        {
          "name": "C2",
          "midi": 36,
          "time": 87.57343600000057,
          "velocity": 0.7480314960629921,
          "duration": 0.22058800000000645
        },
        {
          "name": "C#3",
          "midi": 49,
          "time": 87.79402400000058,
          "velocity": 0.6220472440944882,
          "duration": 0.4411760000000129
        },
        {
          "name": "E2",
          "midi": 40,
          "time": 87.79402400000058,
          "velocity": 0.7480314960629921,
          "duration": 0.22058800000000645
        },
        {
          "name": "C#3",
          "midi": 49,
          "time": 88.23520000000059,
          "velocity": 0.6220472440944882,
          "duration": 0.4411760000000129
        },
        {
          "name": "C2",
          "midi": 36,
          "time": 88.23520000000059,
          "velocity": 0.7480314960629921,
          "duration": 0.22058800000000645
        },
        {
          "name": "C#3",
          "midi": 49,
          "time": 88.6763760000006,
          "velocity": 0.6220472440944882,
          "duration": 0.33088200000000256
        },
        {
          "name": "E2",
          "midi": 40,
          "time": 88.6763760000006,
          "velocity": 0.7480314960629921,
          "duration": 0.22058800000000645
        },
        {
          "name": "E2",
          "midi": 40,
          "time": 89.0072580000006,
          "velocity": 0.7480314960629921,
          "duration": 0.11029399999999612
        },
        {
          "name": "C#3",
          "midi": 49,
          "time": 89.1175520000006,
          "velocity": 0.6220472440944882,
          "duration": 0.4411760000000129
        },
        {
          "name": "C2",
          "midi": 36,
          "time": 89.1175520000006,
          "velocity": 0.7480314960629921,
          "duration": 0.22058800000000645
        },
        {
          "name": "C2",
          "midi": 36,
          "time": 89.3381400000006,
          "velocity": 0.7480314960629921,
          "duration": 0.22058800000000645
        },
        {
          "name": "C#3",
          "midi": 49,
          "time": 89.55872800000061,
          "velocity": 0.6220472440944882,
          "duration": 0.4411760000000129
        },
        {
          "name": "E2",
          "midi": 40,
          "time": 89.55872800000061,
          "velocity": 0.7480314960629921,
          "duration": 0.22058800000000645
        },
        {
          "name": "A3",
          "midi": 57,
          "time": 89.99990400000063,
          "velocity": 0.7480314960629921,
          "duration": 0.22058800000000645
        },
        {
          "name": "C#3",
          "midi": 49,
          "time": 89.99990400000063,
          "velocity": 0.6220472440944882,
          "duration": 0.4411760000000129
        },
        {
          "name": "C2",
          "midi": 36,
          "time": 89.99990400000063,
          "velocity": 0.7480314960629921,
          "duration": 0.22058800000000645
        },
        {
          "name": "C#3",
          "midi": 49,
          "time": 90.44108000000064,
          "velocity": 0.6220472440944882,
          "duration": 0.33088200000000256
        },
        {
          "name": "E2",
          "midi": 40,
          "time": 90.44108000000064,
          "velocity": 0.7480314960629921,
          "duration": 0.22058800000000645
        },
        {
          "name": "E2",
          "midi": 40,
          "time": 90.77196200000064,
          "velocity": 0.7480314960629921,
          "duration": 0.11029399999999612
        },
        {
          "name": "C#3",
          "midi": 49,
          "time": 90.88225600000064,
          "velocity": 0.6220472440944882,
          "duration": 0.4411760000000129
        },
        {
          "name": "C2",
          "midi": 36,
          "time": 90.88225600000064,
          "velocity": 0.7480314960629921,
          "duration": 0.22058800000000645
        },
        {
          "name": "C2",
          "midi": 36,
          "time": 91.10284400000064,
          "velocity": 0.7480314960629921,
          "duration": 0.22058800000000645
        },
        {
          "name": "C#3",
          "midi": 49,
          "time": 91.32343200000065,
          "velocity": 0.6220472440944882,
          "duration": 0.4411760000000129
        },
        {
          "name": "E2",
          "midi": 40,
          "time": 91.32343200000065,
          "velocity": 0.7480314960629921,
          "duration": 0.22058800000000645
        },
        {
          "name": "C#3",
          "midi": 49,
          "time": 91.76460800000066,
          "velocity": 0.6220472440944882,
          "duration": 0.4411760000000129
        },
        {
          "name": "C2",
          "midi": 36,
          "time": 91.76460800000066,
          "velocity": 0.7480314960629921,
          "duration": 0.22058800000000645
        },
        {
          "name": "C#3",
          "midi": 49,
          "time": 92.20578400000068,
          "velocity": 0.6220472440944882,
          "duration": 0.33088200000000256
        },
        {
          "name": "E2",
          "midi": 40,
          "time": 92.20578400000068,
          "velocity": 0.7480314960629921,
          "duration": 0.22058800000000645
        },
        {
          "name": "E2",
          "midi": 40,
          "time": 92.53666600000068,
          "velocity": 0.7480314960629921,
          "duration": 0.11029399999999612
        },
        {
          "name": "C#3",
          "midi": 49,
          "time": 92.64696000000067,
          "velocity": 0.6220472440944882,
          "duration": 0.4411760000000129
        },
        {
          "name": "C2",
          "midi": 36,
          "time": 92.64696000000067,
          "velocity": 0.7480314960629921,
          "duration": 0.22058800000000645
        },
        {
          "name": "C2",
          "midi": 36,
          "time": 92.86754800000068,
          "velocity": 0.7480314960629921,
          "duration": 0.22058800000000645
        },
        {
          "name": "C#3",
          "midi": 49,
          "time": 93.08813600000069,
          "velocity": 0.6220472440944882,
          "duration": 0.4411760000000129
        },
        {
          "name": "E2",
          "midi": 40,
          "time": 93.08813600000069,
          "velocity": 0.7480314960629921,
          "duration": 0.22058800000000645
        },
        {
          "name": "A3",
          "midi": 57,
          "time": 93.5293120000007,
          "velocity": 0.7480314960629921,
          "duration": 0.4411760000000129
        },
        {
          "name": "C#3",
          "midi": 49,
          "time": 93.5293120000007,
          "velocity": 0.6220472440944882,
          "duration": 0.22058800000000645
        },
        {
          "name": "C2",
          "midi": 36,
          "time": 93.5293120000007,
          "velocity": 0.7480314960629921,
          "duration": 0.22058800000000645
        },
        {
          "name": "C#3",
          "midi": 49,
          "time": 93.97048800000071,
          "velocity": 0.6220472440944882,
          "duration": 0.33088200000000256
        },
        {
          "name": "E2",
          "midi": 40,
          "time": 93.97048800000071,
          "velocity": 0.7480314960629921,
          "duration": 0.22058800000000645
        },
        {
          "name": "E2",
          "midi": 40,
          "time": 94.30137000000072,
          "velocity": 0.7480314960629921,
          "duration": 0.11029399999999612
        },
        {
          "name": "C#3",
          "midi": 49,
          "time": 94.41166400000071,
          "velocity": 0.6220472440944882,
          "duration": 0.4411760000000129
        },
        {
          "name": "C2",
          "midi": 36,
          "time": 94.41166400000071,
          "velocity": 0.7480314960629921,
          "duration": 0.22058800000000645
        },
        {
          "name": "C2",
          "midi": 36,
          "time": 94.63225200000072,
          "velocity": 0.7480314960629921,
          "duration": 0.22058800000000645
        },
        {
          "name": "C#3",
          "midi": 49,
          "time": 94.85284000000073,
          "velocity": 0.6220472440944882,
          "duration": 0.4411760000000129
        },
        {
          "name": "E2",
          "midi": 40,
          "time": 94.85284000000073,
          "velocity": 0.7480314960629921,
          "duration": 0.22058800000000645
        },
        {
          "name": "C#3",
          "midi": 49,
          "time": 95.29401600000074,
          "velocity": 0.6220472440944882,
          "duration": 0.4411760000000129
        },
        {
          "name": "C2",
          "midi": 36,
          "time": 95.29401600000074,
          "velocity": 0.7480314960629921,
          "duration": 0.22058800000000645
        },
        {
          "name": "C#3",
          "midi": 49,
          "time": 95.73519200000075,
          "velocity": 0.6220472440944882,
          "duration": 0.33088200000000256
        },
        {
          "name": "E2",
          "midi": 40,
          "time": 95.73519200000075,
          "velocity": 0.7480314960629921,
          "duration": 0.22058800000000645
        },
        {
          "name": "E2",
          "midi": 40,
          "time": 96.06607400000075,
          "velocity": 0.7480314960629921,
          "duration": 0.11029399999999612
        },
        {
          "name": "C#3",
          "midi": 49,
          "time": 96.17636800000075,
          "velocity": 0.6220472440944882,
          "duration": 0.22058800000000645
        },
        {
          "name": "C2",
          "midi": 36,
          "time": 96.17636800000075,
          "velocity": 0.7480314960629921,
          "duration": 0.22058800000000645
        },
        {
          "name": "G3",
          "midi": 55,
          "time": 96.39695600000076,
          "velocity": 0.6220472440944882,
          "duration": 0.22058800000000645
        },
        {
          "name": "E2",
          "midi": 40,
          "time": 96.39695600000076,
          "velocity": 0.7480314960629921,
          "duration": 0.22058800000000645
        },
        {
          "name": "C2",
          "midi": 36,
          "time": 96.39695600000076,
          "velocity": 0.7480314960629921,
          "duration": 0.22058800000000645
        },
        {
          "name": "G3",
          "midi": 55,
          "time": 96.61754400000076,
          "velocity": 0.6220472440944882,
          "duration": 0.22058800000000645
        },
        {
          "name": "E2",
          "midi": 40,
          "time": 96.61754400000076,
          "velocity": 0.7480314960629921,
          "duration": 0.22058800000000645
        },
        {
          "name": "C2",
          "midi": 36,
          "time": 96.61754400000076,
          "velocity": 0.7480314960629921,
          "duration": 0.22058800000000645
        },
        {
          "name": "C#3",
          "midi": 49,
          "time": 96.83813200000077,
          "velocity": 0.49606299212598426,
          "duration": 0.22058800000000645
        },
        {
          "name": "C2",
          "midi": 36,
          "time": 96.83813200000077,
          "velocity": 0.7480314960629921,
          "duration": 0.22058800000000645
        },
        {
          "name": "A3",
          "midi": 57,
          "time": 97.05872000000078,
          "velocity": 0.7480314960629921,
          "duration": 0.22058800000000645
        },
        {
          "name": "C#3",
          "midi": 49,
          "time": 97.05872000000078,
          "velocity": 0.6220472440944882,
          "duration": 0.4411760000000129
        },
        {
          "name": "C2",
          "midi": 36,
          "time": 97.05872000000078,
          "velocity": 0.7480314960629921,
          "duration": 0.22058800000000645
        },
        {
          "name": "C#3",
          "midi": 49,
          "time": 97.49989600000079,
          "velocity": 0.6220472440944882,
          "duration": 0.33088200000000256
        },
        {
          "name": "E2",
          "midi": 40,
          "time": 97.49989600000079,
          "velocity": 0.7480314960629921,
          "duration": 0.22058800000000645
        },
        {
          "name": "E2",
          "midi": 40,
          "time": 97.83077800000079,
          "velocity": 0.7480314960629921,
          "duration": 0.11029399999999612
        },
        {
          "name": "C#3",
          "midi": 49,
          "time": 97.94107200000079,
          "velocity": 0.6220472440944882,
          "duration": 0.4411760000000129
        },
        {
          "name": "C2",
          "midi": 36,
          "time": 97.94107200000079,
          "velocity": 0.7480314960629921,
          "duration": 0.22058800000000645
        },
        {
          "name": "C2",
          "midi": 36,
          "time": 98.1616600000008,
          "velocity": 0.7480314960629921,
          "duration": 0.22058800000000645
        },
        {
          "name": "C#3",
          "midi": 49,
          "time": 98.3822480000008,
          "velocity": 0.6220472440944882,
          "duration": 0.4411760000000129
        },
        {
          "name": "E2",
          "midi": 40,
          "time": 98.3822480000008,
          "velocity": 0.7480314960629921,
          "duration": 0.22058800000000645
        },
        {
          "name": "C#3",
          "midi": 49,
          "time": 98.82342400000081,
          "velocity": 0.6220472440944882,
          "duration": 0.4411760000000129
        },
        {
          "name": "C2",
          "midi": 36,
          "time": 98.82342400000081,
          "velocity": 0.7480314960629921,
          "duration": 0.22058800000000645
        },
        {
          "name": "C#3",
          "midi": 49,
          "time": 99.26460000000083,
          "velocity": 0.6220472440944882,
          "duration": 0.33088200000000256
        },
        {
          "name": "E2",
          "midi": 40,
          "time": 99.26460000000083,
          "velocity": 0.7480314960629921,
          "duration": 0.22058800000000645
        },
        {
          "name": "E2",
          "midi": 40,
          "time": 99.59548200000083,
          "velocity": 0.7480314960629921,
          "duration": 0.11029399999999612
        },
        {
          "name": "C#3",
          "midi": 49,
          "time": 99.70577600000082,
          "velocity": 0.6220472440944882,
          "duration": 0.4411760000000129
        },
        {
          "name": "C2",
          "midi": 36,
          "time": 99.70577600000082,
          "velocity": 0.7480314960629921,
          "duration": 0.22058800000000645
        },
        {
          "name": "C2",
          "midi": 36,
          "time": 99.92636400000083,
          "velocity": 0.7480314960629921,
          "duration": 0.22058800000000645
        },
        {
          "name": "C#3",
          "midi": 49,
          "time": 100.14695200000084,
          "velocity": 0.6220472440944882,
          "duration": 0.4411760000000129
        },
        {
          "name": "E2",
          "midi": 40,
          "time": 100.14695200000084,
          "velocity": 0.7480314960629921,
          "duration": 0.22058800000000645
        },
        {
          "name": "E2",
          "midi": 40,
          "time": 100.36754000000084,
          "velocity": 0.7480314960629921,
          "duration": 0.22058800000000645
        },
        {
          "name": "A3",
          "midi": 57,
          "time": 100.58812800000085,
          "velocity": 0.7480314960629921,
          "duration": 0.22058800000000645
        },
        {
          "name": "C#3",
          "midi": 49,
          "time": 100.58812800000085,
          "velocity": 0.6220472440944882,
          "duration": 0.4411760000000129
        },
        {
          "name": "C2",
          "midi": 36,
          "time": 100.58812800000085,
          "velocity": 0.7480314960629921,
          "duration": 0.22058800000000645
        },
        {
          "name": "A#2",
          "midi": 46,
          "time": 101.02930400000086,
          "velocity": 0.6220472440944882,
          "duration": 0.33088200000000256
        },
        {
          "name": "E2",
          "midi": 40,
          "time": 101.02930400000086,
          "velocity": 0.7480314960629921,
          "duration": 0.22058800000000645
        },
        {
          "name": "E2",
          "midi": 40,
          "time": 101.36018600000087,
          "velocity": 0.7480314960629921,
          "duration": 0.11029399999999612
        },
        {
          "name": "A#2",
          "midi": 46,
          "time": 101.47048000000086,
          "velocity": 0.6220472440944882,
          "duration": 0.4411760000000129
        },
        {
          "name": "C2",
          "midi": 36,
          "time": 101.47048000000086,
          "velocity": 0.7480314960629921,
          "duration": 0.22058800000000645
        },
        {
          "name": "C2",
          "midi": 36,
          "time": 101.69106800000087,
          "velocity": 0.7480314960629921,
          "duration": 0.22058800000000645
        },
        {
          "name": "A#2",
          "midi": 46,
          "time": 101.91165600000087,
          "velocity": 0.6220472440944882,
          "duration": 0.4411760000000129
        },
        {
          "name": "E2",
          "midi": 40,
          "time": 101.91165600000087,
          "velocity": 0.7480314960629921,
          "duration": 0.22058800000000645
        },
        {
          "name": "A#2",
          "midi": 46,
          "time": 102.35283200000089,
          "velocity": 0.6220472440944882,
          "duration": 0.4411760000000129
        },
        {
          "name": "C2",
          "midi": 36,
          "time": 102.35283200000089,
          "velocity": 0.7480314960629921,
          "duration": 0.22058800000000645
        },
        {
          "name": "A#2",
          "midi": 46,
          "time": 102.7940080000009,
          "velocity": 0.6220472440944882,
          "duration": 0.33088200000000256
        },
        {
          "name": "E2",
          "midi": 40,
          "time": 102.7940080000009,
          "velocity": 0.7480314960629921,
          "duration": 0.22058800000000645
        },
        {
          "name": "E2",
          "midi": 40,
          "time": 103.1248900000009,
          "velocity": 0.7480314960629921,
          "duration": 0.11029399999999612
        },
        {
          "name": "A#2",
          "midi": 46,
          "time": 103.2351840000009,
          "velocity": 0.6220472440944882,
          "duration": 0.4411760000000129
        },
        {
          "name": "C2",
          "midi": 36,
          "time": 103.2351840000009,
          "velocity": 0.7480314960629921,
          "duration": 0.22058800000000645
        },
        {
          "name": "C2",
          "midi": 36,
          "time": 103.4557720000009,
          "velocity": 0.7480314960629921,
          "duration": 0.22058800000000645
        },
        {
          "name": "A#2",
          "midi": 46,
          "time": 103.67636000000091,
          "velocity": 0.6220472440944882,
          "duration": 0.4411760000000129
        },
        {
          "name": "E2",
          "midi": 40,
          "time": 103.67636000000091,
          "velocity": 0.7480314960629921,
          "duration": 0.22058800000000645
        },
        {
          "name": "A#2",
          "midi": 46,
          "time": 104.11753600000092,
          "velocity": 0.6220472440944882,
          "duration": 0.4411760000000129
        },
        {
          "name": "C2",
          "midi": 36,
          "time": 104.11753600000092,
          "velocity": 0.7480314960629921,
          "duration": 0.22058800000000645
        },
        {
          "name": "A#2",
          "midi": 46,
          "time": 104.55871200000094,
          "velocity": 0.6220472440944882,
          "duration": 0.33088200000000256
        },
        {
          "name": "E2",
          "midi": 40,
          "time": 104.55871200000094,
          "velocity": 0.7480314960629921,
          "duration": 0.22058800000000645
        },
        {
          "name": "E2",
          "midi": 40,
          "time": 104.88959400000094,
          "velocity": 0.7480314960629921,
          "duration": 0.11029399999999612
        },
        {
          "name": "A#2",
          "midi": 46,
          "time": 104.99988800000094,
          "velocity": 0.6220472440944882,
          "duration": 0.4411760000000129
        },
        {
          "name": "C2",
          "midi": 36,
          "time": 104.99988800000094,
          "velocity": 0.7480314960629921,
          "duration": 0.22058800000000645
        },
        {
          "name": "C2",
          "midi": 36,
          "time": 105.22047600000094,
          "velocity": 0.7480314960629921,
          "duration": 0.22058800000000645
        },
        {
          "name": "A#2",
          "midi": 46,
          "time": 105.44106400000095,
          "velocity": 0.6220472440944882,
          "duration": 0.4411760000000129
        },
        {
          "name": "E2",
          "midi": 40,
          "time": 105.44106400000095,
          "velocity": 0.7480314960629921,
          "duration": 0.22058800000000645
        },
        {
          "name": "A#2",
          "midi": 46,
          "time": 105.88224000000096,
          "velocity": 0.6220472440944882,
          "duration": 0.4411760000000129
        },
        {
          "name": "C2",
          "midi": 36,
          "time": 105.88224000000096,
          "velocity": 0.7480314960629921,
          "duration": 0.22058800000000645
        },
        {
          "name": "A#2",
          "midi": 46,
          "time": 106.32341600000098,
          "velocity": 0.6220472440944882,
          "duration": 0.33088200000000256
        },
        {
          "name": "E2",
          "midi": 40,
          "time": 106.32341600000098,
          "velocity": 0.7480314960629921,
          "duration": 0.22058800000000645
        },
        {
          "name": "E2",
          "midi": 40,
          "time": 106.65429800000098,
          "velocity": 0.7480314960629921,
          "duration": 0.11029399999999612
        },
        {
          "name": "A#2",
          "midi": 46,
          "time": 106.76459200000097,
          "velocity": 0.6220472440944882,
          "duration": 0.4411760000000129
        },
        {
          "name": "C2",
          "midi": 36,
          "time": 106.76459200000097,
          "velocity": 0.7480314960629921,
          "duration": 0.22058800000000645
        },
        {
          "name": "C2",
          "midi": 36,
          "time": 106.98518000000098,
          "velocity": 0.7480314960629921,
          "duration": 0.22058800000000645
        },
        {
          "name": "A#2",
          "midi": 46,
          "time": 107.20576800000099,
          "velocity": 0.6220472440944882,
          "duration": 0.4411760000000129
        },
        {
          "name": "E2",
          "midi": 40,
          "time": 107.20576800000099,
          "velocity": 0.7480314960629921,
          "duration": 0.22058800000000645
        },
        {
          "name": "A#2",
          "midi": 46,
          "time": 107.646944000001,
          "velocity": 0.6220472440944882,
          "duration": 0.4411760000000129
        },
        {
          "name": "C2",
          "midi": 36,
          "time": 107.646944000001,
          "velocity": 0.7480314960629921,
          "duration": 0.22058800000000645
        },
        {
          "name": "A#2",
          "midi": 46,
          "time": 108.08812000000101,
          "velocity": 0.6220472440944882,
          "duration": 0.33088200000000256
        },
        {
          "name": "E2",
          "midi": 40,
          "time": 108.08812000000101,
          "velocity": 0.7480314960629921,
          "duration": 0.22058800000000645
        },
        {
          "name": "E2",
          "midi": 40,
          "time": 108.41900200000102,
          "velocity": 0.7480314960629921,
          "duration": 0.11029399999999612
        },
        {
          "name": "A#2",
          "midi": 46,
          "time": 108.52929600000101,
          "velocity": 0.6220472440944882,
          "duration": 0.4411760000000129
        },
        {
          "name": "C2",
          "midi": 36,
          "time": 108.52929600000101,
          "velocity": 0.7480314960629921,
          "duration": 0.22058800000000645
        },
        {
          "name": "C2",
          "midi": 36,
          "time": 108.74988400000102,
          "velocity": 0.7480314960629921,
          "duration": 0.22058800000000645
        },
        {
          "name": "A#2",
          "midi": 46,
          "time": 108.97047200000102,
          "velocity": 0.6220472440944882,
          "duration": 0.4411760000000129
        },
        {
          "name": "E2",
          "midi": 40,
          "time": 108.97047200000102,
          "velocity": 0.7480314960629921,
          "duration": 0.22058800000000645
        },
        {
          "name": "A#2",
          "midi": 46,
          "time": 109.41164800000104,
          "velocity": 0.6220472440944882,
          "duration": 0.4411760000000129
        },
        {
          "name": "C2",
          "midi": 36,
          "time": 109.41164800000104,
          "velocity": 0.7480314960629921,
          "duration": 0.22058800000000645
        },
        {
          "name": "A#2",
          "midi": 46,
          "time": 109.85282400000105,
          "velocity": 0.6220472440944882,
          "duration": 0.33088200000000256
        },
        {
          "name": "E2",
          "midi": 40,
          "time": 109.85282400000105,
          "velocity": 0.7480314960629921,
          "duration": 0.22058800000000645
        },
        {
          "name": "E2",
          "midi": 40,
          "time": 110.18370600000105,
          "velocity": 0.7480314960629921,
          "duration": 0.11029399999999612
        },
        {
          "name": "A#2",
          "midi": 46,
          "time": 110.29400000000105,
          "velocity": 0.6220472440944882,
          "duration": 0.4411760000000129
        },
        {
          "name": "C2",
          "midi": 36,
          "time": 110.29400000000105,
          "velocity": 0.7480314960629921,
          "duration": 0.22058800000000645
        },
        {
          "name": "C2",
          "midi": 36,
          "time": 110.51458800000105,
          "velocity": 0.7480314960629921,
          "duration": 0.22058800000000645
        },
        {
          "name": "A#2",
          "midi": 46,
          "time": 110.73517600000106,
          "velocity": 0.6220472440944882,
          "duration": 0.4411760000000129
        },
        {
          "name": "E2",
          "midi": 40,
          "time": 110.73517600000106,
          "velocity": 0.7480314960629921,
          "duration": 0.22058800000000645
        },
        {
          "name": "A#2",
          "midi": 46,
          "time": 111.17635200000107,
          "velocity": 0.6220472440944882,
          "duration": 0.4411760000000129
        },
        {
          "name": "C2",
          "midi": 36,
          "time": 111.17635200000107,
          "velocity": 0.7480314960629921,
          "duration": 0.22058800000000645
        },
        {
          "name": "A#2",
          "midi": 46,
          "time": 111.61752800000109,
          "velocity": 0.6220472440944882,
          "duration": 0.33088200000000256
        },
        {
          "name": "E2",
          "midi": 40,
          "time": 111.61752800000109,
          "velocity": 0.7480314960629921,
          "duration": 0.22058800000000645
        },
        {
          "name": "E2",
          "midi": 40,
          "time": 111.94841000000109,
          "velocity": 0.7480314960629921,
          "duration": 0.11029399999999612
        },
        {
          "name": "A#2",
          "midi": 46,
          "time": 112.05870400000109,
          "velocity": 0.6220472440944882,
          "duration": 0.4411760000000129
        },
        {
          "name": "C2",
          "midi": 36,
          "time": 112.05870400000109,
          "velocity": 0.7480314960629921,
          "duration": 0.22058800000000645
        },
        {
          "name": "C2",
          "midi": 36,
          "time": 112.27929200000109,
          "velocity": 0.7480314960629921,
          "duration": 0.22058800000000645
        },
        {
          "name": "A#2",
          "midi": 46,
          "time": 112.4998800000011,
          "velocity": 0.6220472440944882,
          "duration": 0.4411760000000129
        },
        {
          "name": "E2",
          "midi": 40,
          "time": 112.4998800000011,
          "velocity": 0.7480314960629921,
          "duration": 0.22058800000000645
        },
        {
          "name": "A#2",
          "midi": 46,
          "time": 112.94105600000111,
          "velocity": 0.6220472440944882,
          "duration": 0.4411760000000129
        },
        {
          "name": "C2",
          "midi": 36,
          "time": 112.94105600000111,
          "velocity": 0.7480314960629921,
          "duration": 0.22058800000000645
        },
        {
          "name": "A#2",
          "midi": 46,
          "time": 113.38223200000112,
          "velocity": 0.6220472440944882,
          "duration": 0.33088200000000256
        },
        {
          "name": "E2",
          "midi": 40,
          "time": 113.38223200000112,
          "velocity": 0.7480314960629921,
          "duration": 0.22058800000000645
        },
        {
          "name": "E2",
          "midi": 40,
          "time": 113.71311400000113,
          "velocity": 0.7480314960629921,
          "duration": 0.11029399999999612
        },
        {
          "name": "A#2",
          "midi": 46,
          "time": 113.82340800000112,
          "velocity": 0.6220472440944882,
          "duration": 0.4411760000000129
        },
        {
          "name": "C2",
          "midi": 36,
          "time": 113.82340800000112,
          "velocity": 0.7480314960629921,
          "duration": 0.22058800000000645
        },
        {
          "name": "C2",
          "midi": 36,
          "time": 114.04399600000113,
          "velocity": 0.7480314960629921,
          "duration": 0.22058800000000645
        },
        {
          "name": "A#2",
          "midi": 46,
          "time": 114.26458400000114,
          "velocity": 0.6220472440944882,
          "duration": 0.4411760000000129
        },
        {
          "name": "E2",
          "midi": 40,
          "time": 114.26458400000114,
          "velocity": 0.7480314960629921,
          "duration": 0.22058800000000645
        },
        {
          "name": "A#2",
          "midi": 46,
          "time": 114.70576000000115,
          "velocity": 0.6220472440944882,
          "duration": 0.4411760000000129
        },
        {
          "name": "C2",
          "midi": 36,
          "time": 114.70576000000115,
          "velocity": 0.7480314960629921,
          "duration": 0.22058800000000645
        },
        {
          "name": "A#2",
          "midi": 46,
          "time": 115.14693600000116,
          "velocity": 0.6220472440944882,
          "duration": 0.33088200000000256
        },
        {
          "name": "E2",
          "midi": 40,
          "time": 115.14693600000116,
          "velocity": 0.7480314960629921,
          "duration": 0.22058800000000645
        },
        {
          "name": "E2",
          "midi": 40,
          "time": 115.47781800000116,
          "velocity": 0.7480314960629921,
          "duration": 0.11029399999999612
        },
        {
          "name": "A#2",
          "midi": 46,
          "time": 115.58811200000116,
          "velocity": 0.6220472440944882,
          "duration": 0.33088200000000256
        },
        {
          "name": "C2",
          "midi": 36,
          "time": 115.58811200000116,
          "velocity": 0.7480314960629921,
          "duration": 0.33088200000000256
        },
        {
          "name": "C2",
          "midi": 36,
          "time": 115.91899400000116,
          "velocity": 0.7480314960629921,
          "duration": 0.11029399999999612
        },
        {
          "name": "A#2",
          "midi": 46,
          "time": 116.02928800000116,
          "velocity": 0.6220472440944882,
          "duration": 0.33088200000000256
        },
        {
          "name": "E2",
          "midi": 40,
          "time": 116.02928800000116,
          "velocity": 0.7480314960629921,
          "duration": 0.33088200000000256
        },
        {
          "name": "E2",
          "midi": 40,
          "time": 116.36017000000116,
          "velocity": 0.7480314960629921,
          "duration": 0.11029399999999612
        },
        {
          "name": "A#2",
          "midi": 46,
          "time": 116.47046400000116,
          "velocity": 0.6220472440944882,
          "duration": 0.33088200000000256
        },
        {
          "name": "C2",
          "midi": 36,
          "time": 116.47046400000116,
          "velocity": 0.7480314960629921,
          "duration": 0.33088200000000256
        },
        {
          "name": "C2",
          "midi": 36,
          "time": 116.80134600000116,
          "velocity": 0.7480314960629921,
          "duration": 0.11029399999999612
        },
        {
          "name": "A#2",
          "midi": 46,
          "time": 116.91164000000116,
          "velocity": 0.6220472440944882,
          "duration": 0.33088200000000256
        },
        {
          "name": "E2",
          "midi": 40,
          "time": 116.91164000000116,
          "velocity": 0.7480314960629921,
          "duration": 0.22058800000000645
        },
        {
          "name": "E2",
          "midi": 40,
          "time": 117.24252200000116,
          "velocity": 0.7480314960629921,
          "duration": 0.11029399999999612
        },
        {
          "name": "A#2",
          "midi": 46,
          "time": 117.35281600000116,
          "velocity": 0.6220472440944882,
          "duration": 0.33088200000000256
        },
        {
          "name": "C2",
          "midi": 36,
          "time": 117.35281600000116,
          "velocity": 0.7480314960629921,
          "duration": 0.33088200000000256
        },
        {
          "name": "C2",
          "midi": 36,
          "time": 117.68369800000116,
          "velocity": 0.7480314960629921,
          "duration": 0.11029399999999612
        },
        {
          "name": "A#2",
          "midi": 46,
          "time": 117.79399200000115,
          "velocity": 0.6220472440944882,
          "duration": 0.22058800000000645
        },
        {
          "name": "E2",
          "midi": 40,
          "time": 117.79399200000115,
          "velocity": 0.7480314960629921,
          "duration": 0.22058800000000645
        },
        {
          "name": "G3",
          "midi": 55,
          "time": 118.01458000000116,
          "velocity": 0.7480314960629921,
          "duration": 0.22058800000000645
        },
        {
          "name": "C2",
          "midi": 36,
          "time": 118.01458000000116,
          "velocity": 0.7480314960629921,
          "duration": 0.22058800000000645
        },
        {
          "name": "A#2",
          "midi": 46,
          "time": 118.23516800000117,
          "velocity": 0.6220472440944882,
          "duration": 0.4411760000000129
        },
        {
          "name": "C2",
          "midi": 36,
          "time": 118.23516800000117,
          "velocity": 0.7480314960629921,
          "duration": 0.22058800000000645
        },
        {
          "name": "A#2",
          "midi": 46,
          "time": 118.67634400000118,
          "velocity": 0.6220472440944882,
          "duration": 0.33088200000000256
        },
        {
          "name": "E2",
          "midi": 40,
          "time": 118.67634400000118,
          "velocity": 0.7480314960629921,
          "duration": 0.22058800000000645
        },
        {
          "name": "E2",
          "midi": 40,
          "time": 119.00722600000118,
          "velocity": 0.7480314960629921,
          "duration": 0.11029399999999612
        },
        {
          "name": "A#2",
          "midi": 46,
          "time": 119.11752000000118,
          "velocity": 0.6220472440944882,
          "duration": 0.4411760000000129
        },
        {
          "name": "C2",
          "midi": 36,
          "time": 119.11752000000118,
          "velocity": 0.7480314960629921,
          "duration": 0.22058800000000645
        },
        {
          "name": "C2",
          "midi": 36,
          "time": 119.33810800000118,
          "velocity": 0.7480314960629921,
          "duration": 0.22058800000000645
        },
        {
          "name": "A#2",
          "midi": 46,
          "time": 119.55869600000119,
          "velocity": 0.6220472440944882,
          "duration": 0.4411760000000129
        },
        {
          "name": "E2",
          "midi": 40,
          "time": 119.55869600000119,
          "velocity": 0.7480314960629921,
          "duration": 0.22058800000000645
        },
        {
          "name": "A#2",
          "midi": 46,
          "time": 119.9998720000012,
          "velocity": 0.6220472440944882,
          "duration": 0.4411760000000129
        },
        {
          "name": "C2",
          "midi": 36,
          "time": 119.9998720000012,
          "velocity": 0.7480314960629921,
          "duration": 0.22058800000000645
        },
        {
          "name": "A#2",
          "midi": 46,
          "time": 120.44104800000122,
          "velocity": 0.6220472440944882,
          "duration": 0.33088200000000256
        },
        {
          "name": "E2",
          "midi": 40,
          "time": 120.44104800000122,
          "velocity": 0.7480314960629921,
          "duration": 0.22058800000000645
        },
        {
          "name": "E2",
          "midi": 40,
          "time": 120.77193000000122,
          "velocity": 0.7480314960629921,
          "duration": 0.11029399999999612
        },
        {
          "name": "A#2",
          "midi": 46,
          "time": 120.88222400000122,
          "velocity": 0.6220472440944882,
          "duration": 0.4411760000000129
        },
        {
          "name": "C2",
          "midi": 36,
          "time": 120.88222400000122,
          "velocity": 0.7480314960629921,
          "duration": 0.22058800000000645
        },
        {
          "name": "C2",
          "midi": 36,
          "time": 121.10281200000122,
          "velocity": 0.7480314960629921,
          "duration": 0.22058800000000645
        },
        {
          "name": "A#2",
          "midi": 46,
          "time": 121.32340000000123,
          "velocity": 0.6220472440944882,
          "duration": 0.4411760000000129
        },
        {
          "name": "E2",
          "midi": 40,
          "time": 121.32340000000123,
          "velocity": 0.7480314960629921,
          "duration": 0.22058800000000645
        },
        {
          "name": "A#2",
          "midi": 46,
          "time": 121.76457600000124,
          "velocity": 0.6220472440944882,
          "duration": 0.4411760000000129
        },
        {
          "name": "C2",
          "midi": 36,
          "time": 121.76457600000124,
          "velocity": 0.7480314960629921,
          "duration": 0.22058800000000645
        },
        {
          "name": "A#2",
          "midi": 46,
          "time": 122.20575200000125,
          "velocity": 0.6220472440944882,
          "duration": 0.33088200000000256
        },
        {
          "name": "E2",
          "midi": 40,
          "time": 122.20575200000125,
          "velocity": 0.7480314960629921,
          "duration": 0.22058800000000645
        },
        {
          "name": "E2",
          "midi": 40,
          "time": 122.53663400000126,
          "velocity": 0.7480314960629921,
          "duration": 0.11029399999999612
        },
        {
          "name": "A#2",
          "midi": 46,
          "time": 122.64692800000125,
          "velocity": 0.6220472440944882,
          "duration": 0.4411760000000129
        },
        {
          "name": "C2",
          "midi": 36,
          "time": 122.64692800000125,
          "velocity": 0.7480314960629921,
          "duration": 0.22058800000000645
        },
        {
          "name": "C2",
          "midi": 36,
          "time": 122.86751600000126,
          "velocity": 0.7480314960629921,
          "duration": 0.22058800000000645
        },
        {
          "name": "A#2",
          "midi": 46,
          "time": 123.08810400000127,
          "velocity": 0.6220472440944882,
          "duration": 0.4411760000000129
        },
        {
          "name": "E2",
          "midi": 40,
          "time": 123.08810400000127,
          "velocity": 0.7480314960629921,
          "duration": 0.22058800000000645
        },
        {
          "name": "A#2",
          "midi": 46,
          "time": 123.52928000000128,
          "velocity": 0.6220472440944882,
          "duration": 0.4411760000000129
        },
        {
          "name": "C2",
          "midi": 36,
          "time": 123.52928000000128,
          "velocity": 0.7480314960629921,
          "duration": 0.22058800000000645
        },
        {
          "name": "A#2",
          "midi": 46,
          "time": 123.97045600000129,
          "velocity": 0.6220472440944882,
          "duration": 0.33088200000000256
        },
        {
          "name": "E2",
          "midi": 40,
          "time": 123.97045600000129,
          "velocity": 0.7480314960629921,
          "duration": 0.22058800000000645
        },
        {
          "name": "E2",
          "midi": 40,
          "time": 124.3013380000013,
          "velocity": 0.7480314960629921,
          "duration": 0.11029399999999612
        },
        {
          "name": "A#2",
          "midi": 46,
          "time": 124.41163200000129,
          "velocity": 0.6220472440944882,
          "duration": 0.4411760000000129
        },
        {
          "name": "C2",
          "midi": 36,
          "time": 124.41163200000129,
          "velocity": 0.7480314960629921,
          "duration": 0.22058800000000645
        },
        {
          "name": "C2",
          "midi": 36,
          "time": 124.6322200000013,
          "velocity": 0.7480314960629921,
          "duration": 0.22058800000000645
        },
        {
          "name": "A#2",
          "midi": 46,
          "time": 124.8528080000013,
          "velocity": 0.6220472440944882,
          "duration": 0.4411760000000129
        },
        {
          "name": "E2",
          "midi": 40,
          "time": 124.8528080000013,
          "velocity": 0.7480314960629921,
          "duration": 0.22058800000000645
        },
        {
          "name": "A#2",
          "midi": 46,
          "time": 125.29398400000132,
          "velocity": 0.6220472440944882,
          "duration": 0.4411760000000129
        },
        {
          "name": "C2",
          "midi": 36,
          "time": 125.29398400000132,
          "velocity": 0.7480314960629921,
          "duration": 0.22058800000000645
        },
        {
          "name": "A#2",
          "midi": 46,
          "time": 125.73516000000133,
          "velocity": 0.6220472440944882,
          "duration": 0.33088200000000256
        },
        {
          "name": "E2",
          "midi": 40,
          "time": 125.73516000000133,
          "velocity": 0.7480314960629921,
          "duration": 0.22058800000000645
        },
        {
          "name": "E2",
          "midi": 40,
          "time": 126.06604200000133,
          "velocity": 0.7480314960629921,
          "duration": 0.11029399999999612
        },
        {
          "name": "A#2",
          "midi": 46,
          "time": 126.17633600000133,
          "velocity": 0.6220472440944882,
          "duration": 0.4411760000000129
        },
        {
          "name": "C2",
          "midi": 36,
          "time": 126.17633600000133,
          "velocity": 0.7480314960629921,
          "duration": 0.22058800000000645
        },
        {
          "name": "C2",
          "midi": 36,
          "time": 126.39692400000133,
          "velocity": 0.7480314960629921,
          "duration": 0.22058800000000645
        },
        {
          "name": "A#2",
          "midi": 46,
          "time": 126.61751200000134,
          "velocity": 0.6220472440944882,
          "duration": 0.4411760000000129
        },
        {
          "name": "E2",
          "midi": 40,
          "time": 126.61751200000134,
          "velocity": 0.7480314960629921,
          "duration": 0.22058800000000645
        },
        {
          "name": "A#2",
          "midi": 46,
          "time": 127.05868800000135,
          "velocity": 0.6220472440944882,
          "duration": 0.4411760000000129
        },
        {
          "name": "C2",
          "midi": 36,
          "time": 127.05868800000135,
          "velocity": 0.7480314960629921,
          "duration": 0.22058800000000645
        },
        {
          "name": "A#2",
          "midi": 46,
          "time": 127.49986400000137,
          "velocity": 0.6220472440944882,
          "duration": 0.33088200000000256
        },
        {
          "name": "E2",
          "midi": 40,
          "time": 127.49986400000137,
          "velocity": 0.7480314960629921,
          "duration": 0.22058800000000645
        },
        {
          "name": "E2",
          "midi": 40,
          "time": 127.83074600000137,
          "velocity": 0.7480314960629921,
          "duration": 0.11029399999999612
        },
        {
          "name": "A#2",
          "midi": 46,
          "time": 127.94104000000137,
          "velocity": 0.6220472440944882,
          "duration": 0.4411759999999987
        },
        {
          "name": "C2",
          "midi": 36,
          "time": 127.94104000000137,
          "velocity": 0.7480314960629921,
          "duration": 0.22058800000000645
        },
        {
          "name": "C2",
          "midi": 36,
          "time": 128.16162800000137,
          "velocity": 0.7480314960629921,
          "duration": 0.22058799999999223
        },
        {
          "name": "A#2",
          "midi": 46,
          "time": 128.38221600000136,
          "velocity": 0.6220472440944882,
          "duration": 0.44117599999998447
        },
        {
          "name": "E2",
          "midi": 40,
          "time": 128.38221600000136,
          "velocity": 0.7480314960629921,
          "duration": 0.22058799999999223
        },
        {
          "name": "A3",
          "midi": 57,
          "time": 128.82339200000135,
          "velocity": 0.6220472440944882,
          "duration": 0.8823519999999974
        },
        {
          "name": "C#3",
          "midi": 49,
          "time": 128.82339200000135,
          "velocity": 0.49606299212598426,
          "duration": 0.8823519999999974
        },
        {
          "name": "E2",
          "midi": 40,
          "time": 128.82339200000135,
          "velocity": 0.7480314960629921,
          "duration": 0.8823519999999974
        },
        {
          "name": "A2",
          "midi": 45,
          "time": 129.70574400000135,
          "velocity": 0.3700787401574803,
          "duration": 0.22058799999999223
        },
        {
          "name": "E2",
          "midi": 40,
          "time": 129.70574400000135,
          "velocity": 0.3700787401574803,
          "duration": 0.22058799999999223
        },
        {
          "name": "A2",
          "midi": 45,
          "time": 129.92633200000134,
          "velocity": 0.3700787401574803,
          "duration": 0.22058799999999223
        },
        {
          "name": "E2",
          "midi": 40,
          "time": 129.92633200000134,
          "velocity": 0.3700787401574803,
          "duration": 0.22058799999999223
        },
        {
          "name": "A2",
          "midi": 45,
          "time": 130.14692000000133,
          "velocity": 0.49606299212598426,
          "duration": 0.22058799999999223
        },
        {
          "name": "E2",
          "midi": 40,
          "time": 130.14692000000133,
          "velocity": 0.49606299212598426,
          "duration": 0.22058799999999223
        },
        {
          "name": "A2",
          "midi": 45,
          "time": 130.36750800000132,
          "velocity": 0.49606299212598426,
          "duration": 0.22058799999999223
        },
        {
          "name": "E2",
          "midi": 40,
          "time": 130.36750800000132,
          "velocity": 0.49606299212598426,
          "duration": 0.22058799999999223
        },
        {
          "name": "A2",
          "midi": 45,
          "time": 130.58809600000131,
          "velocity": 0.6220472440944882,
          "duration": 0.22058799999999223
        },
        {
          "name": "E2",
          "midi": 40,
          "time": 130.58809600000131,
          "velocity": 0.6220472440944882,
          "duration": 0.22058799999999223
        },
        {
          "name": "A2",
          "midi": 45,
          "time": 130.8086840000013,
          "velocity": 0.6220472440944882,
          "duration": 0.22058799999999223
        },
        {
          "name": "E2",
          "midi": 40,
          "time": 130.8086840000013,
          "velocity": 0.6220472440944882,
          "duration": 0.22058799999999223
        },
        {
          "name": "A2",
          "midi": 45,
          "time": 131.0292720000013,
          "velocity": 0.7480314960629921,
          "duration": 0.22058799999999223
        },
        {
          "name": "E2",
          "midi": 40,
          "time": 131.0292720000013,
          "velocity": 0.7480314960629921,
          "duration": 0.22058799999999223
        },
        {
          "name": "A2",
          "midi": 45,
          "time": 131.2498600000013,
          "velocity": 0.7480314960629921,
          "duration": 0.22058799999999223
        },
        {
          "name": "E2",
          "midi": 40,
          "time": 131.2498600000013,
          "velocity": 0.7480314960629921,
          "duration": 0.22058799999999223
        },
        {
          "name": "A2",
          "midi": 45,
          "time": 131.47044800000128,
          "velocity": 0.8740157480314961,
          "duration": 0.22058799999999223
        },
        {
          "name": "E2",
          "midi": 40,
          "time": 131.47044800000128,
          "velocity": 0.8740157480314961,
          "duration": 0.22058799999999223
        },
        {
          "name": "A2",
          "midi": 45,
          "time": 131.69103600000128,
          "velocity": 0.8740157480314961,
          "duration": 0.22058799999999223
        },
        {
          "name": "E2",
          "midi": 40,
          "time": 131.69103600000128,
          "velocity": 0.8740157480314961,
          "duration": 0.22058799999999223
        },
        {
          "name": "A2",
          "midi": 45,
          "time": 131.91162400000127,
          "velocity": 0.8740157480314961,
          "duration": 0.22058799999999223
        },
        {
          "name": "E2",
          "midi": 40,
          "time": 131.91162400000127,
          "velocity": 0.8740157480314961,
          "duration": 0.22058799999999223
        },
        {
          "name": "A2",
          "midi": 45,
          "time": 132.13221200000126,
          "velocity": 0.8740157480314961,
          "duration": 0.22058799999999223
        },
        {
          "name": "E2",
          "midi": 40,
          "time": 132.13221200000126,
          "velocity": 0.8740157480314961,
          "duration": 0.22058799999999223
        },
        {
          "name": "A3",
          "midi": 57,
          "time": 132.35280000000125,
          "velocity": 0.7480314960629921,
          "duration": 0.22058799999999223
        },
        {
          "name": "C#3",
          "midi": 49,
          "time": 132.35280000000125,
          "velocity": 0.6220472440944882,
          "duration": 0.22058799999999223
        },
        {
          "name": "C2",
          "midi": 36,
          "time": 132.35280000000125,
          "velocity": 0.7480314960629921,
          "duration": 0.22058799999999223
        },
        {
          "name": "C2",
          "midi": 36,
          "time": 132.57338800000124,
          "velocity": 0.7480314960629921,
          "duration": 0.22058799999999223
        },
        {
          "name": "C#3",
          "midi": 49,
          "time": 132.79397600000124,
          "velocity": 0.6220472440944882,
          "duration": 0.22058799999999223
        },
        {
          "name": "E2",
          "midi": 40,
          "time": 132.79397600000124,
          "velocity": 0.7480314960629921,
          "duration": 0.22058799999999223
        },
        {
          "name": "C#3",
          "midi": 49,
          "time": 133.23515200000122,
          "velocity": 0.6220472440944882,
          "duration": 0.22058799999999223
        },
        {
          "name": "C2",
          "midi": 36,
          "time": 133.23515200000122,
          "velocity": 0.7480314960629921,
          "duration": 0.22058799999999223
        },
        {
          "name": "C2",
          "midi": 36,
          "time": 133.4557400000012,
          "velocity": 0.7480314960629921,
          "duration": 0.22058799999999223
        },
        {
          "name": "C#3",
          "midi": 49,
          "time": 133.6763280000012,
          "velocity": 0.6220472440944882,
          "duration": 0.22058799999999223
        },
        {
          "name": "E2",
          "midi": 40,
          "time": 133.6763280000012,
          "velocity": 0.7480314960629921,
          "duration": 0.22058799999999223
        },
        {
          "name": "C#3",
          "midi": 49,
          "time": 134.1175040000012,
          "velocity": 0.6220472440944882,
          "duration": 0.22058799999999223
        },
        {
          "name": "C2",
          "midi": 36,
          "time": 134.1175040000012,
          "velocity": 0.7480314960629921,
          "duration": 0.22058799999999223
        },
        {
          "name": "C2",
          "midi": 36,
          "time": 134.33809200000118,
          "velocity": 0.7480314960629921,
          "duration": 0.22058799999999223
        },
        {
          "name": "C#3",
          "midi": 49,
          "time": 134.55868000000117,
          "velocity": 0.6220472440944882,
          "duration": 0.22058799999999223
        },
        {
          "name": "E2",
          "midi": 40,
          "time": 134.55868000000117,
          "velocity": 0.7480314960629921,
          "duration": 0.22058799999999223
        },
        {
          "name": "C#3",
          "midi": 49,
          "time": 134.99985600000116,
          "velocity": 0.6220472440944882,
          "duration": 0.22058799999999223
        },
        {
          "name": "C2",
          "midi": 36,
          "time": 134.99985600000116,
          "velocity": 0.7480314960629921,
          "duration": 0.22058799999999223
        },
        {
          "name": "C2",
          "midi": 36,
          "time": 135.22044400000115,
          "velocity": 0.7480314960629921,
          "duration": 0.22058799999999223
        },
        {
          "name": "C#3",
          "midi": 49,
          "time": 135.44103200000114,
          "velocity": 0.6220472440944882,
          "duration": 0.22058799999999223
        },
        {
          "name": "E2",
          "midi": 40,
          "time": 135.44103200000114,
          "velocity": 0.7480314960629921,
          "duration": 0.22058799999999223
        },
        {
          "name": "C#3",
          "midi": 49,
          "time": 135.88220800000113,
          "velocity": 0.6220472440944882,
          "duration": 0.22058799999999223
        },
        {
          "name": "C2",
          "midi": 36,
          "time": 135.88220800000113,
          "velocity": 0.7480314960629921,
          "duration": 0.22058799999999223
        },
        {
          "name": "C2",
          "midi": 36,
          "time": 136.10279600000112,
          "velocity": 0.7480314960629921,
          "duration": 0.22058799999999223
        },
        {
          "name": "C#3",
          "midi": 49,
          "time": 136.3233840000011,
          "velocity": 0.6220472440944882,
          "duration": 0.22058799999999223
        },
        {
          "name": "E2",
          "midi": 40,
          "time": 136.3233840000011,
          "velocity": 0.7480314960629921,
          "duration": 0.22058799999999223
        },
        {
          "name": "C#3",
          "midi": 49,
          "time": 136.7645600000011,
          "velocity": 0.6220472440944882,
          "duration": 0.22058799999999223
        },
        {
          "name": "C2",
          "midi": 36,
          "time": 136.7645600000011,
          "velocity": 0.7480314960629921,
          "duration": 0.22058799999999223
        },
        {
          "name": "C2",
          "midi": 36,
          "time": 136.9851480000011,
          "velocity": 0.7480314960629921,
          "duration": 0.22058799999999223
        },
        {
          "name": "C#3",
          "midi": 49,
          "time": 137.20573600000108,
          "velocity": 0.6220472440944882,
          "duration": 0.22058799999999223
        },
        {
          "name": "E2",
          "midi": 40,
          "time": 137.20573600000108,
          "velocity": 0.7480314960629921,
          "duration": 0.22058799999999223
        },
        {
          "name": "C#3",
          "midi": 49,
          "time": 137.64691200000107,
          "velocity": 0.6220472440944882,
          "duration": 0.22058799999999223
        },
        {
          "name": "C2",
          "midi": 36,
          "time": 137.64691200000107,
          "velocity": 0.7480314960629921,
          "duration": 0.22058799999999223
        },
        {
          "name": "C2",
          "midi": 36,
          "time": 137.86750000000106,
          "velocity": 0.7480314960629921,
          "duration": 0.22058799999999223
        },
        {
          "name": "C#3",
          "midi": 49,
          "time": 138.08808800000105,
          "velocity": 0.6220472440944882,
          "duration": 0.22058799999999223
        },
        {
          "name": "E2",
          "midi": 40,
          "time": 138.08808800000105,
          "velocity": 0.7480314960629921,
          "duration": 0.22058799999999223
        },
        {
          "name": "C#3",
          "midi": 49,
          "time": 138.52926400000104,
          "velocity": 0.6220472440944882,
          "duration": 0.22058799999999223
        },
        {
          "name": "C2",
          "midi": 36,
          "time": 138.52926400000104,
          "velocity": 0.7480314960629921,
          "duration": 0.22058799999999223
        },
        {
          "name": "C2",
          "midi": 36,
          "time": 138.74985200000103,
          "velocity": 0.7480314960629921,
          "duration": 0.22058799999999223
        },
        {
          "name": "C#3",
          "midi": 49,
          "time": 138.97044000000102,
          "velocity": 0.6220472440944882,
          "duration": 0.22058799999999223
        },
        {
          "name": "E2",
          "midi": 40,
          "time": 138.97044000000102,
          "velocity": 0.7480314960629921,
          "duration": 0.22058799999999223
        },
        {
          "name": "A3",
          "midi": 57,
          "time": 139.411616000001,
          "velocity": 0.7480314960629921,
          "duration": 0.22058799999999223
        },
        {
          "name": "C#3",
          "midi": 49,
          "time": 139.411616000001,
          "velocity": 0.6220472440944882,
          "duration": 0.22058799999999223
        },
        {
          "name": "C2",
          "midi": 36,
          "time": 139.411616000001,
          "velocity": 0.7480314960629921,
          "duration": 0.22058799999999223
        },
        {
          "name": "C2",
          "midi": 36,
          "time": 139.632204000001,
          "velocity": 0.7480314960629921,
          "duration": 0.22058799999999223
        },
        {
          "name": "C#3",
          "midi": 49,
          "time": 139.852792000001,
          "velocity": 0.6220472440944882,
          "duration": 0.22058799999999223
        },
        {
          "name": "E2",
          "midi": 40,
          "time": 139.852792000001,
          "velocity": 0.7480314960629921,
          "duration": 0.22058799999999223
        },
        {
          "name": "C#3",
          "midi": 49,
          "time": 140.29396800000097,
          "velocity": 0.6220472440944882,
          "duration": 0.22058799999999223
        },
        {
          "name": "C2",
          "midi": 36,
          "time": 140.29396800000097,
          "velocity": 0.7480314960629921,
          "duration": 0.22058799999999223
        },
        {
          "name": "C2",
          "midi": 36,
          "time": 140.51455600000097,
          "velocity": 0.7480314960629921,
          "duration": 0.22058799999999223
        },
        {
          "name": "C#3",
          "midi": 49,
          "time": 140.73514400000096,
          "velocity": 0.6220472440944882,
          "duration": 0.22058799999999223
        },
        {
          "name": "E2",
          "midi": 40,
          "time": 140.73514400000096,
          "velocity": 0.7480314960629921,
          "duration": 0.22058799999999223
        },
        {
          "name": "C#3",
          "midi": 49,
          "time": 141.17632000000094,
          "velocity": 0.6220472440944882,
          "duration": 0.22058799999999223
        },
        {
          "name": "C2",
          "midi": 36,
          "time": 141.17632000000094,
          "velocity": 0.7480314960629921,
          "duration": 0.22058799999999223
        },
        {
          "name": "C2",
          "midi": 36,
          "time": 141.39690800000093,
          "velocity": 0.7480314960629921,
          "duration": 0.22058799999999223
        },
        {
          "name": "C#3",
          "midi": 49,
          "time": 141.61749600000093,
          "velocity": 0.6220472440944882,
          "duration": 0.22058799999999223
        },
        {
          "name": "E2",
          "midi": 40,
          "time": 141.61749600000093,
          "velocity": 0.7480314960629921,
          "duration": 0.22058799999999223
        },
        {
          "name": "C#3",
          "midi": 49,
          "time": 142.0586720000009,
          "velocity": 0.6220472440944882,
          "duration": 0.22058799999999223
        },
        {
          "name": "C2",
          "midi": 36,
          "time": 142.0586720000009,
          "velocity": 0.7480314960629921,
          "duration": 0.22058799999999223
        },
        {
          "name": "C2",
          "midi": 36,
          "time": 142.2792600000009,
          "velocity": 0.7480314960629921,
          "duration": 0.22058799999999223
        },
        {
          "name": "C#3",
          "midi": 49,
          "time": 142.4998480000009,
          "velocity": 0.6220472440944882,
          "duration": 0.22058799999999223
        },
        {
          "name": "E2",
          "midi": 40,
          "time": 142.4998480000009,
          "velocity": 0.7480314960629921,
          "duration": 0.22058799999999223
        },
        {
          "name": "C#3",
          "midi": 49,
          "time": 142.94102400000088,
          "velocity": 0.6220472440944882,
          "duration": 0.22058799999999223
        },
        {
          "name": "C2",
          "midi": 36,
          "time": 142.94102400000088,
          "velocity": 0.7480314960629921,
          "duration": 0.22058799999999223
        },
        {
          "name": "C2",
          "midi": 36,
          "time": 143.16161200000087,
          "velocity": 0.7480314960629921,
          "duration": 0.22058799999999223
        },
        {
          "name": "C#3",
          "midi": 49,
          "time": 143.38220000000086,
          "velocity": 0.6220472440944882,
          "duration": 0.22058799999999223
        },
        {
          "name": "E2",
          "midi": 40,
          "time": 143.38220000000086,
          "velocity": 0.7480314960629921,
          "duration": 0.22058799999999223
        },
        {
          "name": "C#3",
          "midi": 49,
          "time": 143.82337600000085,
          "velocity": 0.6220472440944882,
          "duration": 0.22058799999999223
        },
        {
          "name": "C2",
          "midi": 36,
          "time": 143.82337600000085,
          "velocity": 0.7480314960629921,
          "duration": 0.22058799999999223
        },
        {
          "name": "C2",
          "midi": 36,
          "time": 144.04396400000084,
          "velocity": 0.7480314960629921,
          "duration": 0.22058799999999223
        },
        {
          "name": "C#3",
          "midi": 49,
          "time": 144.26455200000083,
          "velocity": 0.6220472440944882,
          "duration": 0.22058799999999223
        },
        {
          "name": "E2",
          "midi": 40,
          "time": 144.26455200000083,
          "velocity": 0.7480314960629921,
          "duration": 0.22058799999999223
        },
        {
          "name": "C#3",
          "midi": 49,
          "time": 144.70572800000082,
          "velocity": 0.6220472440944882,
          "duration": 0.22058799999999223
        },
        {
          "name": "C2",
          "midi": 36,
          "time": 144.70572800000082,
          "velocity": 0.7480314960629921,
          "duration": 0.22058799999999223
        },
        {
          "name": "A#2",
          "midi": 46,
          "time": 144.9263160000008,
          "velocity": 0.7480314960629921,
          "duration": 0.22058799999999223
        },
        {
          "name": "E2",
          "midi": 40,
          "time": 144.9263160000008,
          "velocity": 0.8740157480314961,
          "duration": 0.22058799999999223
        },
        {
          "name": "C2",
          "midi": 36,
          "time": 144.9263160000008,
          "velocity": 0.7480314960629921,
          "duration": 0.22058799999999223
        },
        {
          "name": "A#2",
          "midi": 46,
          "time": 145.1469040000008,
          "velocity": 0.7480314960629921,
          "duration": 0.22058799999999223
        },
        {
          "name": "E2",
          "midi": 40,
          "time": 145.1469040000008,
          "velocity": 0.8740157480314961,
          "duration": 0.22058799999999223
        },
        {
          "name": "C2",
          "midi": 36,
          "time": 145.1469040000008,
          "velocity": 0.7480314960629921,
          "duration": 0.22058799999999223
        },
        {
          "name": "C2",
          "midi": 36,
          "time": 145.5880800000008,
          "velocity": 0.7480314960629921,
          "duration": 0.22058799999999223
        },
        {
          "name": "A#2",
          "midi": 46,
          "time": 145.80866800000078,
          "velocity": 0.7480314960629921,
          "duration": 0.22058799999999223
        },
        {
          "name": "E2",
          "midi": 40,
          "time": 145.80866800000078,
          "velocity": 0.8740157480314961,
          "duration": 0.22058799999999223
        },
        {
          "name": "C2",
          "midi": 36,
          "time": 145.80866800000078,
          "velocity": 0.7480314960629921,
          "duration": 0.22058799999999223
        },
        {
          "name": "A#2",
          "midi": 46,
          "time": 146.02925600000077,
          "velocity": 0.7480314960629921,
          "duration": 0.22058799999999223
        },
        {
          "name": "E2",
          "midi": 40,
          "time": 146.02925600000077,
          "velocity": 0.8740157480314961,
          "duration": 0.22058799999999223
        },
        {
          "name": "C2",
          "midi": 36,
          "time": 146.02925600000077,
          "velocity": 0.7480314960629921,
          "duration": 0.22058799999999223
        },
        {
          "name": "A3",
          "midi": 57,
          "time": 146.47043200000076,
          "velocity": 0.7480314960629921,
          "duration": 0.22058799999999223
        },
        {
          "name": "C#3",
          "midi": 49,
          "time": 146.47043200000076,
          "velocity": 0.6220472440944882,
          "duration": 0.22058799999999223
        },
        {
          "name": "C2",
          "midi": 36,
          "time": 146.47043200000076,
          "velocity": 0.7480314960629921,
          "duration": 0.22058799999999223
        },
        {
          "name": "C2",
          "midi": 36,
          "time": 146.69102000000075,
          "velocity": 0.7480314960629921,
          "duration": 0.22058799999999223
        },
        {
          "name": "C#3",
          "midi": 49,
          "time": 146.91160800000074,
          "velocity": 0.6220472440944882,
          "duration": 0.22058799999999223
        },
        {
          "name": "E2",
          "midi": 40,
          "time": 146.91160800000074,
          "velocity": 0.7480314960629921,
          "duration": 0.22058799999999223
        },
        {
          "name": "C#3",
          "midi": 49,
          "time": 147.35278400000072,
          "velocity": 0.6220472440944882,
          "duration": 0.22058799999999223
        },
        {
          "name": "C2",
          "midi": 36,
          "time": 147.35278400000072,
          "velocity": 0.7480314960629921,
          "duration": 0.22058799999999223
        },
        {
          "name": "C2",
          "midi": 36,
          "time": 147.57337200000072,
          "velocity": 0.7480314960629921,
          "duration": 0.22058799999999223
        },
        {
          "name": "C#3",
          "midi": 49,
          "time": 147.7939600000007,
          "velocity": 0.6220472440944882,
          "duration": 0.22058799999999223
        },
        {
          "name": "E2",
          "midi": 40,
          "time": 147.7939600000007,
          "velocity": 0.7480314960629921,
          "duration": 0.22058799999999223
        },
        {
          "name": "C#3",
          "midi": 49,
          "time": 148.2351360000007,
          "velocity": 0.6220472440944882,
          "duration": 0.22058799999999223
        },
        {
          "name": "C2",
          "midi": 36,
          "time": 148.2351360000007,
          "velocity": 0.7480314960629921,
          "duration": 0.22058799999999223
        },
        {
          "name": "C2",
          "midi": 36,
          "time": 148.45572400000069,
          "velocity": 0.7480314960629921,
          "duration": 0.22058799999999223
        },
        {
          "name": "C#3",
          "midi": 49,
          "time": 148.67631200000068,
          "velocity": 0.6220472440944882,
          "duration": 0.22058799999999223
        },
        {
          "name": "E2",
          "midi": 40,
          "time": 148.67631200000068,
          "velocity": 0.7480314960629921,
          "duration": 0.22058799999999223
        },
        {
          "name": "C#3",
          "midi": 49,
          "time": 149.11748800000066,
          "velocity": 0.6220472440944882,
          "duration": 0.22058799999999223
        },
        {
          "name": "C2",
          "midi": 36,
          "time": 149.11748800000066,
          "velocity": 0.7480314960629921,
          "duration": 0.22058799999999223
        },
        {
          "name": "C2",
          "midi": 36,
          "time": 149.33807600000065,
          "velocity": 0.7480314960629921,
          "duration": 0.22058799999999223
        },
        {
          "name": "C#3",
          "midi": 49,
          "time": 149.55866400000065,
          "velocity": 0.6220472440944882,
          "duration": 0.22058799999999223
        },
        {
          "name": "E2",
          "midi": 40,
          "time": 149.55866400000065,
          "velocity": 0.7480314960629921,
          "duration": 0.22058799999999223
        },
        {
          "name": "C#3",
          "midi": 49,
          "time": 149.99984000000063,
          "velocity": 0.6220472440944882,
          "duration": 0.22058799999999223
        },
        {
          "name": "C2",
          "midi": 36,
          "time": 149.99984000000063,
          "velocity": 0.7480314960629921,
          "duration": 0.22058799999999223
        },
        {
          "name": "C2",
          "midi": 36,
          "time": 150.22042800000062,
          "velocity": 0.7480314960629921,
          "duration": 0.22058799999999223
        },
        {
          "name": "C#3",
          "midi": 49,
          "time": 150.44101600000062,
          "velocity": 0.6220472440944882,
          "duration": 0.22058799999999223
        },
        {
          "name": "E2",
          "midi": 40,
          "time": 150.44101600000062,
          "velocity": 0.7480314960629921,
          "duration": 0.22058799999999223
        },
        {
          "name": "C#3",
          "midi": 49,
          "time": 150.8821920000006,
          "velocity": 0.6220472440944882,
          "duration": 0.22058799999999223
        },
        {
          "name": "C2",
          "midi": 36,
          "time": 150.8821920000006,
          "velocity": 0.7480314960629921,
          "duration": 0.22058799999999223
        },
        {
          "name": "C2",
          "midi": 36,
          "time": 151.1027800000006,
          "velocity": 0.7480314960629921,
          "duration": 0.22058799999999223
        },
        {
          "name": "C#3",
          "midi": 49,
          "time": 151.32336800000058,
          "velocity": 0.6220472440944882,
          "duration": 0.22058799999999223
        },
        {
          "name": "E2",
          "midi": 40,
          "time": 151.32336800000058,
          "velocity": 0.7480314960629921,
          "duration": 0.22058799999999223
        },
        {
          "name": "C#3",
          "midi": 49,
          "time": 151.76454400000057,
          "velocity": 0.6220472440944882,
          "duration": 0.22058799999999223
        },
        {
          "name": "C2",
          "midi": 36,
          "time": 151.76454400000057,
          "velocity": 0.7480314960629921,
          "duration": 0.22058799999999223
        },
        {
          "name": "C2",
          "midi": 36,
          "time": 151.98513200000056,
          "velocity": 0.7480314960629921,
          "duration": 0.22058799999999223
        },
        {
          "name": "C#3",
          "midi": 49,
          "time": 152.20572000000055,
          "velocity": 0.6220472440944882,
          "duration": 0.22058799999999223
        },
        {
          "name": "E2",
          "midi": 40,
          "time": 152.20572000000055,
          "velocity": 0.7480314960629921,
          "duration": 0.22058799999999223
        },
        {
          "name": "C#3",
          "midi": 49,
          "time": 152.64689600000054,
          "velocity": 0.6220472440944882,
          "duration": 0.22058799999999223
        },
        {
          "name": "C2",
          "midi": 36,
          "time": 152.64689600000054,
          "velocity": 0.7480314960629921,
          "duration": 0.22058799999999223
        },
        {
          "name": "C2",
          "midi": 36,
          "time": 152.86748400000053,
          "velocity": 0.7480314960629921,
          "duration": 0.22058799999999223
        },
        {
          "name": "C#3",
          "midi": 49,
          "time": 153.08807200000052,
          "velocity": 0.6220472440944882,
          "duration": 0.22058799999999223
        },
        {
          "name": "E2",
          "midi": 40,
          "time": 153.08807200000052,
          "velocity": 0.7480314960629921,
          "duration": 0.22058799999999223
        },
        {
          "name": "A3",
          "midi": 57,
          "time": 153.5292480000005,
          "velocity": 0.7480314960629921,
          "duration": 0.22058799999999223
        },
        {
          "name": "C#3",
          "midi": 49,
          "time": 153.5292480000005,
          "velocity": 0.6220472440944882,
          "duration": 0.22058799999999223
        },
        {
          "name": "C2",
          "midi": 36,
          "time": 153.5292480000005,
          "velocity": 0.7480314960629921,
          "duration": 0.22058799999999223
        },
        {
          "name": "C2",
          "midi": 36,
          "time": 153.7498360000005,
          "velocity": 0.7480314960629921,
          "duration": 0.22058799999999223
        },
        {
          "name": "C#3",
          "midi": 49,
          "time": 153.9704240000005,
          "velocity": 0.6220472440944882,
          "duration": 0.22058799999999223
        },
        {
          "name": "E2",
          "midi": 40,
          "time": 153.9704240000005,
          "velocity": 0.7480314960629921,
          "duration": 0.22058799999999223
        },
        {
          "name": "A#2",
          "midi": 46,
          "time": 154.41160000000048,
          "velocity": 0.7480314960629921,
          "duration": 0.22058799999999223
        },
        {
          "name": "C2",
          "midi": 36,
          "time": 154.41160000000048,
          "velocity": 0.7480314960629921,
          "duration": 0.22058799999999223
        },
        {
          "name": "C2",
          "midi": 36,
          "time": 154.63218800000047,
          "velocity": 0.7480314960629921,
          "duration": 0.22058799999999223
        },
        {
          "name": "E2",
          "midi": 40,
          "time": 154.85277600000046,
          "velocity": 0.7480314960629921,
          "duration": 0.22058799999999223
        },
        {
          "name": "A#2",
          "midi": 46,
          "time": 155.29395200000044,
          "velocity": 0.7480314960629921,
          "duration": 0.22058799999999223
        },
        {
          "name": "C2",
          "midi": 36,
          "time": 155.29395200000044,
          "velocity": 0.7480314960629921,
          "duration": 0.22058799999999223
        },
        {
          "name": "C2",
          "midi": 36,
          "time": 155.51454000000044,
          "velocity": 0.7480314960629921,
          "duration": 0.22058799999999223
        },
        {
          "name": "E2",
          "midi": 40,
          "time": 155.73512800000043,
          "velocity": 0.7480314960629921,
          "duration": 0.22058799999999223
        },
        {
          "name": "C2",
          "midi": 36,
          "time": 156.1763040000004,
          "velocity": 0.7480314960629921,
          "duration": 0.22058799999999223
        },
        {
          "name": "C2",
          "midi": 36,
          "time": 156.3968920000004,
          "velocity": 0.7480314960629921,
          "duration": 0.22058799999999223
        },
        {
          "name": "E2",
          "midi": 40,
          "time": 156.6174800000004,
          "velocity": 0.7480314960629921,
          "duration": 0.22058799999999223
        },
        {
          "name": "C2",
          "midi": 36,
          "time": 156.8380680000004,
          "velocity": 0.7480314960629921,
          "duration": 0.22058799999999223
        },
        {
          "name": "E2",
          "midi": 40,
          "time": 157.05865600000038,
          "velocity": 0.8740157480314961,
          "duration": 0.22058799999999223
        },
        {
          "name": "C2",
          "midi": 36,
          "time": 157.27924400000038,
          "velocity": 0.7480314960629921,
          "duration": 0.22058799999999223
        },
        {
          "name": "E2",
          "midi": 40,
          "time": 157.49983200000037,
          "velocity": 0.8740157480314961,
          "duration": 0.22058799999999223
        },
        {
          "name": "C2",
          "midi": 36,
          "time": 157.72042000000036,
          "velocity": 0.7480314960629921,
          "duration": 0.22058799999999223
        },
        {
          "name": "E2",
          "midi": 40,
          "time": 157.94100800000035,
          "velocity": 0.8740157480314961,
          "duration": 0.22058799999999223
        },
        {
          "name": "C2",
          "midi": 36,
          "time": 158.16159600000034,
          "velocity": 0.7480314960629921,
          "duration": 0.22058799999999223
        },
        {
          "name": "E2",
          "midi": 40,
          "time": 158.38218400000034,
          "velocity": 0.8740157480314961,
          "duration": 0.22058799999999223
        },
        {
          "name": "C2",
          "midi": 36,
          "time": 158.60277200000033,
          "velocity": 0.7480314960629921,
          "duration": 0.22058799999999223
        },
        {
          "name": "E2",
          "midi": 40,
          "time": 158.82336000000032,
          "velocity": 0.8740157480314961,
          "duration": 0.22058799999999223
        },
        {
          "name": "C2",
          "midi": 36,
          "time": 159.0439480000003,
          "velocity": 0.7480314960629921,
          "duration": 0.22058799999999223
        },
        {
          "name": "E2",
          "midi": 40,
          "time": 159.2645360000003,
          "velocity": 0.8740157480314961,
          "duration": 0.22058799999999223
        },
        {
          "name": "C2",
          "midi": 36,
          "time": 159.4851240000003,
          "velocity": 0.7480314960629921,
          "duration": 0.22058799999999223
        },
        {
          "name": "E2",
          "midi": 40,
          "time": 159.7057120000003,
          "velocity": 0.8740157480314961,
          "duration": 0.22058799999999223
        },
        {
          "name": "E2",
          "midi": 40,
          "time": 159.92630000000028,
          "velocity": 0.8740157480314961,
          "duration": 0.11029400000001033
        },
        {
          "name": "E2",
          "midi": 40,
          "time": 160.0365940000003,
          "velocity": 0.8740157480314961,
          "duration": 0.11029400000001033
        },
        {
          "name": "E2",
          "midi": 40,
          "time": 160.1468880000003,
          "velocity": 0.8740157480314961,
          "duration": 0.11029400000001033
        },
        {
          "name": "E2",
          "midi": 40,
          "time": 160.2571820000003,
          "velocity": 0.8740157480314961,
          "duration": 0.11029400000001033
        },
        {
          "name": "E2",
          "midi": 40,
          "time": 160.36747600000032,
          "velocity": 0.8740157480314961,
          "duration": 0.11029400000001033
        },
        {
          "name": "E2",
          "midi": 40,
          "time": 160.47777000000033,
          "velocity": 0.8740157480314961,
          "duration": 0.11029400000001033
        },
        {
          "name": "A3",
          "midi": 57,
          "time": 160.58806400000034,
          "velocity": 0.7480314960629921,
          "duration": 0.22058799999999223
        },
        {
          "name": "C#3",
          "midi": 49,
          "time": 160.58806400000034,
          "velocity": 0.7480314960629921,
          "duration": 0.22058799999999223
        },
        {
          "name": "C2",
          "midi": 36,
          "time": 160.58806400000034,
          "velocity": 0.7480314960629921,
          "duration": 0.22058799999999223
        },
        {
          "name": "A3",
          "midi": 57,
          "time": 160.80865200000034,
          "velocity": 0.7480314960629921,
          "duration": 0.22058799999999223
        },
        {
          "name": "C2",
          "midi": 36,
          "time": 160.80865200000034,
          "velocity": 0.7480314960629921,
          "duration": 0.22058799999999223
        },
        {
          "name": "C#3",
          "midi": 49,
          "time": 161.02924000000033,
          "velocity": 0.7480314960629921,
          "duration": 0.22058799999999223
        },
        {
          "name": "E2",
          "midi": 40,
          "time": 161.02924000000033,
          "velocity": 0.8740157480314961,
          "duration": 0.22058799999999223
        },
        {
          "name": "C2",
          "midi": 36,
          "time": 161.24982800000032,
          "velocity": 0.7480314960629921,
          "duration": 0.22058799999999223
        },
        {
          "name": "C#3",
          "midi": 49,
          "time": 161.4704160000003,
          "velocity": 0.7480314960629921,
          "duration": 0.22058799999999223
        },
        {
          "name": "E2",
          "midi": 40,
          "time": 161.4704160000003,
          "velocity": 0.8740157480314961,
          "duration": 0.22058799999999223
        },
        {
          "name": "C2",
          "midi": 36,
          "time": 161.6910040000003,
          "velocity": 0.7480314960629921,
          "duration": 0.22058799999999223
        },
        {
          "name": "C#3",
          "midi": 49,
          "time": 161.9115920000003,
          "velocity": 0.7480314960629921,
          "duration": 0.22058799999999223
        },
        {
          "name": "E2",
          "midi": 40,
          "time": 161.9115920000003,
          "velocity": 0.8740157480314961,
          "duration": 0.22058799999999223
        },
        {
          "name": "C2",
          "midi": 36,
          "time": 162.1321800000003,
          "velocity": 0.7480314960629921,
          "duration": 0.22058799999999223
        },
        {
          "name": "C#3",
          "midi": 49,
          "time": 162.35276800000028,
          "velocity": 0.7480314960629921,
          "duration": 0.22058799999999223
        },
        {
          "name": "E2",
          "midi": 40,
          "time": 162.35276800000028,
          "velocity": 0.8740157480314961,
          "duration": 0.22058799999999223
        },
        {
          "name": "C2",
          "midi": 36,
          "time": 162.57335600000027,
          "velocity": 0.7480314960629921,
          "duration": 0.22058799999999223
        },
        {
          "name": "C#3",
          "midi": 49,
          "time": 162.79394400000027,
          "velocity": 0.7480314960629921,
          "duration": 0.22058799999999223
        },
        {
          "name": "E2",
          "midi": 40,
          "time": 162.79394400000027,
          "velocity": 0.8740157480314961,
          "duration": 0.22058799999999223
        },
        {
          "name": "C2",
          "midi": 36,
          "time": 163.01453200000026,
          "velocity": 0.7480314960629921,
          "duration": 0.22058799999999223
        },
        {
          "name": "C#3",
          "midi": 49,
          "time": 163.23512000000025,
          "velocity": 0.7480314960629921,
          "duration": 0.22058799999999223
        },
        {
          "name": "E2",
          "midi": 40,
          "time": 163.23512000000025,
          "velocity": 0.8740157480314961,
          "duration": 0.22058799999999223
        },
        {
          "name": "C2",
          "midi": 36,
          "time": 163.45570800000024,
          "velocity": 0.7480314960629921,
          "duration": 0.22058799999999223
        },
        {
          "name": "C#3",
          "midi": 49,
          "time": 163.67629600000024,
          "velocity": 0.7480314960629921,
          "duration": 0.22058799999999223
        },
        {
          "name": "E2",
          "midi": 40,
          "time": 163.67629600000024,
          "velocity": 0.8740157480314961,
          "duration": 0.22058799999999223
        },
        {
          "name": "C2",
          "midi": 36,
          "time": 163.89688400000023,
          "velocity": 0.7480314960629921,
          "duration": 0.22058799999999223
        },
        {
          "name": "A3",
          "midi": 57,
          "time": 164.11747200000022,
          "velocity": 0.7480314960629921,
          "duration": 0.22058799999999223
        },
        {
          "name": "C2",
          "midi": 36,
          "time": 164.11747200000022,
          "velocity": 0.7480314960629921,
          "duration": 0.22058799999999223
        },
        {
          "name": "A3",
          "midi": 57,
          "time": 164.3380600000002,
          "velocity": 0.7480314960629921,
          "duration": 0.22058799999999223
        },
        {
          "name": "C2",
          "midi": 36,
          "time": 164.3380600000002,
          "velocity": 0.7480314960629921,
          "duration": 0.22058799999999223
        },
        {
          "name": "C#3",
          "midi": 49,
          "time": 164.5586480000002,
          "velocity": 0.7480314960629921,
          "duration": 0.22058799999999223
        },
        {
          "name": "E2",
          "midi": 40,
          "time": 164.5586480000002,
          "velocity": 0.8740157480314961,
          "duration": 0.22058799999999223
        },
        {
          "name": "C2",
          "midi": 36,
          "time": 164.7792360000002,
          "velocity": 0.7480314960629921,
          "duration": 0.22058799999999223
        },
        {
          "name": "C#3",
          "midi": 49,
          "time": 164.9998240000002,
          "velocity": 0.7480314960629921,
          "duration": 0.22058799999999223
        },
        {
          "name": "E2",
          "midi": 40,
          "time": 164.9998240000002,
          "velocity": 0.8740157480314961,
          "duration": 0.22058799999999223
        },
        {
          "name": "C2",
          "midi": 36,
          "time": 165.22041200000018,
          "velocity": 0.7480314960629921,
          "duration": 0.22058799999999223
        },
        {
          "name": "C#3",
          "midi": 49,
          "time": 165.44100000000017,
          "velocity": 0.7480314960629921,
          "duration": 0.22058799999999223
        },
        {
          "name": "E2",
          "midi": 40,
          "time": 165.44100000000017,
          "velocity": 0.8740157480314961,
          "duration": 0.22058799999999223
        },
        {
          "name": "C2",
          "midi": 36,
          "time": 165.66158800000017,
          "velocity": 0.7480314960629921,
          "duration": 0.22058799999999223
        },
        {
          "name": "C#3",
          "midi": 49,
          "time": 165.88217600000016,
          "velocity": 0.7480314960629921,
          "duration": 0.22058799999999223
        },
        {
          "name": "E2",
          "midi": 40,
          "time": 165.88217600000016,
          "velocity": 0.8740157480314961,
          "duration": 0.22058799999999223
        },
        {
          "name": "C2",
          "midi": 36,
          "time": 166.10276400000015,
          "velocity": 0.7480314960629921,
          "duration": 0.22058799999999223
        },
        {
          "name": "C#3",
          "midi": 49,
          "time": 166.32335200000014,
          "velocity": 0.7480314960629921,
          "duration": 0.22058799999999223
        },
        {
          "name": "E2",
          "midi": 40,
          "time": 166.32335200000014,
          "velocity": 0.8740157480314961,
          "duration": 0.22058799999999223
        },
        {
          "name": "C2",
          "midi": 36,
          "time": 166.54394000000013,
          "velocity": 0.7480314960629921,
          "duration": 0.22058799999999223
        },
        {
          "name": "C#3",
          "midi": 49,
          "time": 166.76452800000013,
          "velocity": 0.7480314960629921,
          "duration": 0.22058799999999223
        },
        {
          "name": "E2",
          "midi": 40,
          "time": 166.76452800000013,
          "velocity": 0.8740157480314961,
          "duration": 0.22058799999999223
        },
        {
          "name": "C2",
          "midi": 36,
          "time": 166.98511600000012,
          "velocity": 0.7480314960629921,
          "duration": 0.22058799999999223
        },
        {
          "name": "C#3",
          "midi": 49,
          "time": 167.2057040000001,
          "velocity": 0.7480314960629921,
          "duration": 0.22058799999999223
        },
        {
          "name": "E2",
          "midi": 40,
          "time": 167.2057040000001,
          "velocity": 0.8740157480314961,
          "duration": 0.22058799999999223
        },
        {
          "name": "C2",
          "midi": 36,
          "time": 167.4262920000001,
          "velocity": 0.7480314960629921,
          "duration": 0.22058799999999223
        },
        {
          "name": "A3",
          "midi": 57,
          "time": 167.6468800000001,
          "velocity": 0.7480314960629921,
          "duration": 0.22058799999999223
        },
        {
          "name": "C2",
          "midi": 36,
          "time": 167.6468800000001,
          "velocity": 0.7480314960629921,
          "duration": 0.22058799999999223
        },
        {
          "name": "A3",
          "midi": 57,
          "time": 167.8674680000001,
          "velocity": 0.7480314960629921,
          "duration": 0.22058799999999223
        },
        {
          "name": "C2",
          "midi": 36,
          "time": 167.8674680000001,
          "velocity": 0.7480314960629921,
          "duration": 0.22058799999999223
        },
        {
          "name": "C#3",
          "midi": 49,
          "time": 168.08805600000008,
          "velocity": 0.7480314960629921,
          "duration": 0.22058799999999223
        },
        {
          "name": "E2",
          "midi": 40,
          "time": 168.08805600000008,
          "velocity": 0.8740157480314961,
          "duration": 0.22058799999999223
        },
        {
          "name": "C2",
          "midi": 36,
          "time": 168.30864400000007,
          "velocity": 0.7480314960629921,
          "duration": 0.22058799999999223
        },
        {
          "name": "C#3",
          "midi": 49,
          "time": 168.52923200000006,
          "velocity": 0.7480314960629921,
          "duration": 0.22058799999999223
        },
        {
          "name": "C2",
          "midi": 36,
          "time": 168.52923200000006,
          "velocity": 0.7480314960629921,
          "duration": 0.22058799999999223
        },
        {
          "name": "C2",
          "midi": 36,
          "time": 168.74982000000006,
          "velocity": 0.7480314960629921,
          "duration": 0.22058799999999223
        },
        {
          "name": "C#3",
          "midi": 49,
          "time": 168.97040800000005,
          "velocity": 0.7480314960629921,
          "duration": 0.22058799999999223
        },
        {
          "name": "E2",
          "midi": 40,
          "time": 168.97040800000005,
          "velocity": 0.8740157480314961,
          "duration": 0.22058799999999223
        },
        {
          "name": "C2",
          "midi": 36,
          "time": 169.19099600000004,
          "velocity": 0.7480314960629921,
          "duration": 0.22058799999999223
        },
        {
          "name": "C#3",
          "midi": 49,
          "time": 169.41158400000003,
          "velocity": 0.7480314960629921,
          "duration": 0.22058799999999223
        },
        {
          "name": "C2",
          "midi": 36,
          "time": 169.41158400000003,
          "velocity": 0.7480314960629921,
          "duration": 0.22058799999999223
        },
        {
          "name": "C2",
          "midi": 36,
          "time": 169.63217200000003,
          "velocity": 0.7480314960629921,
          "duration": 0.22058799999999223
        },
        {
          "name": "C#3",
          "midi": 49,
          "time": 169.85276000000002,
          "velocity": 0.7480314960629921,
          "duration": 0.22058799999999223
        },
        {
          "name": "E2",
          "midi": 40,
          "time": 169.85276000000002,
          "velocity": 0.8740157480314961,
          "duration": 0.22058799999999223
        },
        {
          "name": "C2",
          "midi": 36,
          "time": 170.073348,
          "velocity": 0.7480314960629921,
          "duration": 0.22058799999999223
        },
        {
          "name": "C#3",
          "midi": 49,
          "time": 170.293936,
          "velocity": 0.7480314960629921,
          "duration": 0.22058799999999223
        },
        {
          "name": "C2",
          "midi": 36,
          "time": 170.293936,
          "velocity": 0.7480314960629921,
          "duration": 0.22058799999999223
        },
        {
          "name": "C2",
          "midi": 36,
          "time": 170.514524,
          "velocity": 0.7480314960629921,
          "duration": 0.22058799999999223
        },
        {
          "name": "C#3",
          "midi": 49,
          "time": 170.735112,
          "velocity": 0.7480314960629921,
          "duration": 0.22058799999999223
        },
        {
          "name": "E2",
          "midi": 40,
          "time": 170.735112,
          "velocity": 0.8740157480314961,
          "duration": 0.22058799999999223
        },
        {
          "name": "C2",
          "midi": 36,
          "time": 170.95569999999998,
          "velocity": 0.7480314960629921,
          "duration": 0.22058799999999223
        },
        {
          "name": "A3",
          "midi": 57,
          "time": 171.17628799999997,
          "velocity": 0.7480314960629921,
          "duration": 0.22058799999999223
        },
        {
          "name": "C2",
          "midi": 36,
          "time": 171.17628799999997,
          "velocity": 0.7480314960629921,
          "duration": 0.22058799999999223
        },
        {
          "name": "A3",
          "midi": 57,
          "time": 171.39687599999996,
          "velocity": 0.7480314960629921,
          "duration": 0.22058799999999223
        },
        {
          "name": "C2",
          "midi": 36,
          "time": 171.39687599999996,
          "velocity": 0.7480314960629921,
          "duration": 0.22058799999999223
        },
        {
          "name": "C#3",
          "midi": 49,
          "time": 171.61746399999996,
          "velocity": 0.7480314960629921,
          "duration": 0.22058799999999223
        },
        {
          "name": "E2",
          "midi": 40,
          "time": 171.61746399999996,
          "velocity": 0.8740157480314961,
          "duration": 0.22058799999999223
        },
        {
          "name": "C2",
          "midi": 36,
          "time": 171.83805199999995,
          "velocity": 0.7480314960629921,
          "duration": 0.22058799999999223
        },
        {
          "name": "C#3",
          "midi": 49,
          "time": 172.05863999999994,
          "velocity": 0.7480314960629921,
          "duration": 0.22058799999999223
        },
        {
          "name": "C2",
          "midi": 36,
          "time": 172.05863999999994,
          "velocity": 0.7480314960629921,
          "duration": 0.22058799999999223
        },
        {
          "name": "C2",
          "midi": 36,
          "time": 172.27922799999993,
          "velocity": 0.7480314960629921,
          "duration": 0.22058799999999223
        },
        {
          "name": "C#3",
          "midi": 49,
          "time": 172.49981599999992,
          "velocity": 0.7480314960629921,
          "duration": 0.22058799999999223
        },
        {
          "name": "E2",
          "midi": 40,
          "time": 172.49981599999992,
          "velocity": 0.8740157480314961,
          "duration": 0.22058799999999223
        },
        {
          "name": "C2",
          "midi": 36,
          "time": 172.72040399999992,
          "velocity": 0.7480314960629921,
          "duration": 0.22058799999999223
        },
        {
          "name": "C#3",
          "midi": 49,
          "time": 172.9409919999999,
          "velocity": 0.7480314960629921,
          "duration": 0.22058799999999223
        },
        {
          "name": "C2",
          "midi": 36,
          "time": 172.9409919999999,
          "velocity": 0.7480314960629921,
          "duration": 0.22058799999999223
        },
        {
          "name": "C2",
          "midi": 36,
          "time": 173.1615799999999,
          "velocity": 0.7480314960629921,
          "duration": 0.22058799999999223
        },
        {
          "name": "C#3",
          "midi": 49,
          "time": 173.3821679999999,
          "velocity": 0.7480314960629921,
          "duration": 0.22058799999999223
        },
        {
          "name": "E2",
          "midi": 40,
          "time": 173.3821679999999,
          "velocity": 0.8740157480314961,
          "duration": 0.22058799999999223
        },
        {
          "name": "C2",
          "midi": 36,
          "time": 173.60275599999989,
          "velocity": 0.7480314960629921,
          "duration": 0.22058799999999223
        },
        {
          "name": "C#3",
          "midi": 49,
          "time": 173.82334399999988,
          "velocity": 0.7480314960629921,
          "duration": 0.22058799999999223
        },
        {
          "name": "C2",
          "midi": 36,
          "time": 173.82334399999988,
          "velocity": 0.7480314960629921,
          "duration": 0.22058799999999223
        },
        {
          "name": "C2",
          "midi": 36,
          "time": 174.04393199999987,
          "velocity": 0.7480314960629921,
          "duration": 0.22058799999999223
        },
        {
          "name": "C#3",
          "midi": 49,
          "time": 174.26451999999986,
          "velocity": 0.7480314960629921,
          "duration": 0.22058799999999223
        },
        {
          "name": "E2",
          "midi": 40,
          "time": 174.26451999999986,
          "velocity": 0.8740157480314961,
          "duration": 0.22058799999999223
        },
        {
          "name": "C2",
          "midi": 36,
          "time": 174.48510799999985,
          "velocity": 0.7480314960629921,
          "duration": 0.22058799999999223
        },
        {
          "name": "A3",
          "midi": 57,
          "time": 174.70569599999985,
          "velocity": 0.7480314960629921,
          "duration": 0.22058799999999223
        },
        {
          "name": "C2",
          "midi": 36,
          "time": 174.70569599999985,
          "velocity": 0.7480314960629921,
          "duration": 0.22058799999999223
        },
        {
          "name": "A3",
          "midi": 57,
          "time": 174.92628399999984,
          "velocity": 0.7480314960629921,
          "duration": 0.22058799999999223
        },
        {
          "name": "C2",
          "midi": 36,
          "time": 174.92628399999984,
          "velocity": 0.7480314960629921,
          "duration": 0.22058799999999223
        },
        {
          "name": "C#3",
          "midi": 49,
          "time": 175.14687199999983,
          "velocity": 0.7480314960629921,
          "duration": 0.22058799999999223
        },
        {
          "name": "E2",
          "midi": 40,
          "time": 175.14687199999983,
          "velocity": 0.8740157480314961,
          "duration": 0.22058799999999223
        },
        {
          "name": "C2",
          "midi": 36,
          "time": 175.36745999999982,
          "velocity": 0.7480314960629921,
          "duration": 0.22058799999999223
        },
        {
          "name": "C#3",
          "midi": 49,
          "time": 175.58804799999982,
          "velocity": 0.7480314960629921,
          "duration": 0.22058799999999223
        },
        {
          "name": "C2",
          "midi": 36,
          "time": 175.58804799999982,
          "velocity": 0.7480314960629921,
          "duration": 0.22058799999999223
        },
        {
          "name": "C2",
          "midi": 36,
          "time": 175.8086359999998,
          "velocity": 0.7480314960629921,
          "duration": 0.22058799999999223
        },
        {
          "name": "C#3",
          "midi": 49,
          "time": 176.0292239999998,
          "velocity": 0.7480314960629921,
          "duration": 0.22058799999999223
        },
        {
          "name": "E2",
          "midi": 40,
          "time": 176.0292239999998,
          "velocity": 0.8740157480314961,
          "duration": 0.22058799999999223
        },
        {
          "name": "C2",
          "midi": 36,
          "time": 176.2498119999998,
          "velocity": 0.7480314960629921,
          "duration": 0.22058799999999223
        },
        {
          "name": "C#3",
          "midi": 49,
          "time": 176.47039999999978,
          "velocity": 0.7480314960629921,
          "duration": 0.22058799999999223
        },
        {
          "name": "C2",
          "midi": 36,
          "time": 176.47039999999978,
          "velocity": 0.7480314960629921,
          "duration": 0.22058799999999223
        },
        {
          "name": "C2",
          "midi": 36,
          "time": 176.69098799999978,
          "velocity": 0.7480314960629921,
          "duration": 0.22058799999999223
        },
        {
          "name": "C#3",
          "midi": 49,
          "time": 176.91157599999977,
          "velocity": 0.7480314960629921,
          "duration": 0.22058799999999223
        },
        {
          "name": "E2",
          "midi": 40,
          "time": 176.91157599999977,
          "velocity": 0.8740157480314961,
          "duration": 0.22058799999999223
        },
        {
          "name": "C2",
          "midi": 36,
          "time": 177.13216399999976,
          "velocity": 0.7480314960629921,
          "duration": 0.22058799999999223
        },
        {
          "name": "C#3",
          "midi": 49,
          "time": 177.35275199999975,
          "velocity": 0.7480314960629921,
          "duration": 0.22058799999999223
        },
        {
          "name": "C2",
          "midi": 36,
          "time": 177.35275199999975,
          "velocity": 0.7480314960629921,
          "duration": 0.22058799999999223
        },
        {
          "name": "C2",
          "midi": 36,
          "time": 177.57333999999975,
          "velocity": 0.7480314960629921,
          "duration": 0.22058799999999223
        },
        {
          "name": "C#3",
          "midi": 49,
          "time": 177.79392799999974,
          "velocity": 0.7480314960629921,
          "duration": 0.22058799999999223
        },
        {
          "name": "E2",
          "midi": 40,
          "time": 177.79392799999974,
          "velocity": 0.8740157480314961,
          "duration": 0.22058799999999223
        },
        {
          "name": "C2",
          "midi": 36,
          "time": 178.01451599999973,
          "velocity": 0.7480314960629921,
          "duration": 0.22058799999999223
        },
        {
          "name": "A3",
          "midi": 57,
          "time": 178.23510399999972,
          "velocity": 0.7480314960629921,
          "duration": 0.22058799999999223
        },
        {
          "name": "E2",
          "midi": 40,
          "time": 178.23510399999972,
          "velocity": 0.8740157480314961,
          "duration": 0.22058799999999223
        },
        {
          "name": "A3",
          "midi": 57,
          "time": 178.45569199999971,
          "velocity": 0.7480314960629921,
          "duration": 0.22058799999999223
        },
        {
          "name": "C2",
          "midi": 36,
          "time": 178.45569199999971,
          "velocity": 0.7480314960629921,
          "duration": 0.22058799999999223
        },
        {
          "name": "C#3",
          "midi": 49,
          "time": 178.6762799999997,
          "velocity": 0.7480314960629921,
          "duration": 0.22058799999999223
        },
        {
          "name": "E2",
          "midi": 40,
          "time": 178.6762799999997,
          "velocity": 0.8740157480314961,
          "duration": 0.22058799999999223
        },
        {
          "name": "C2",
          "midi": 36,
          "time": 178.8968679999997,
          "velocity": 0.7480314960629921,
          "duration": 0.22058799999999223
        },
        {
          "name": "C#3",
          "midi": 49,
          "time": 179.1174559999997,
          "velocity": 0.7480314960629921,
          "duration": 0.22058799999999223
        },
        {
          "name": "E2",
          "midi": 40,
          "time": 179.1174559999997,
          "velocity": 0.8740157480314961,
          "duration": 0.22058799999999223
        },
        {
          "name": "C2",
          "midi": 36,
          "time": 179.33804399999968,
          "velocity": 0.7480314960629921,
          "duration": 0.22058799999999223
        },
        {
          "name": "C#3",
          "midi": 49,
          "time": 179.55863199999968,
          "velocity": 0.7480314960629921,
          "duration": 0.22058799999999223
        },
        {
          "name": "E2",
          "midi": 40,
          "time": 179.55863199999968,
          "velocity": 0.8740157480314961,
          "duration": 0.22058799999999223
        },
        {
          "name": "C2",
          "midi": 36,
          "time": 179.77921999999967,
          "velocity": 0.7480314960629921,
          "duration": 0.22058799999999223
        },
        {
          "name": "C#3",
          "midi": 49,
          "time": 179.99980799999966,
          "velocity": 0.7480314960629921,
          "duration": 0.22058799999999223
        },
        {
          "name": "E2",
          "midi": 40,
          "time": 179.99980799999966,
          "velocity": 0.8740157480314961,
          "duration": 0.22058799999999223
        },
        {
          "name": "C2",
          "midi": 36,
          "time": 180.22039599999965,
          "velocity": 0.7480314960629921,
          "duration": 0.22058799999999223
        },
        {
          "name": "C#3",
          "midi": 49,
          "time": 180.44098399999964,
          "velocity": 0.7480314960629921,
          "duration": 0.22058799999999223
        },
        {
          "name": "E2",
          "midi": 40,
          "time": 180.44098399999964,
          "velocity": 0.8740157480314961,
          "duration": 0.22058799999999223
        },
        {
          "name": "C2",
          "midi": 36,
          "time": 180.66157199999964,
          "velocity": 0.7480314960629921,
          "duration": 0.22058799999999223
        },
        {
          "name": "C#3",
          "midi": 49,
          "time": 180.88215999999963,
          "velocity": 0.7480314960629921,
          "duration": 0.22058799999999223
        },
        {
          "name": "E2",
          "midi": 40,
          "time": 180.88215999999963,
          "velocity": 0.8740157480314961,
          "duration": 0.22058799999999223
        },
        {
          "name": "E2",
          "midi": 40,
          "time": 181.10274799999962,
          "velocity": 0.8740157480314961,
          "duration": 0.11029400000001033
        },
        {
          "name": "E2",
          "midi": 40,
          "time": 181.21304199999963,
          "velocity": 0.8740157480314961,
          "duration": 0.11029400000001033
        },
        {
          "name": "E2",
          "midi": 40,
          "time": 181.32333599999964,
          "velocity": 0.8740157480314961,
          "duration": 0.11029400000001033
        },
        {
          "name": "E2",
          "midi": 40,
          "time": 181.43362999999965,
          "velocity": 0.8740157480314961,
          "duration": 0.11029400000001033
        },
        {
          "name": "E2",
          "midi": 40,
          "time": 181.54392399999966,
          "velocity": 0.8740157480314961,
          "duration": 0.11029400000001033
        },
        {
          "name": "E2",
          "midi": 40,
          "time": 181.65421799999967,
          "velocity": 0.8740157480314961,
          "duration": 0.11029400000001033
        },
        {
          "name": "A3",
          "midi": 57,
          "time": 181.76451199999968,
          "velocity": 0.7480314960629921,
          "duration": 0.44117599999998447
        },
        {
          "name": "C#3",
          "midi": 49,
          "time": 181.76451199999968,
          "velocity": 0.6220472440944882,
          "duration": 0.22058799999999223
        },
        {
          "name": "C2",
          "midi": 36,
          "time": 181.76451199999968,
          "velocity": 0.7480314960629921,
          "duration": 0.22058799999999223
        },
        {
          "name": "C#3",
          "midi": 49,
          "time": 182.20568799999967,
          "velocity": 0.6220472440944882,
          "duration": 0.33088200000000256
        },
        {
          "name": "E2",
          "midi": 40,
          "time": 182.20568799999967,
          "velocity": 0.7480314960629921,
          "duration": 0.22058799999999223
        },
        {
          "name": "E2",
          "midi": 40,
          "time": 182.53656999999967,
          "velocity": 0.7480314960629921,
          "duration": 0.11029400000001033
        },
        {
          "name": "C#3",
          "midi": 49,
          "time": 182.64686399999968,
          "velocity": 0.6220472440944882,
          "duration": 0.44117599999998447
        },
        {
          "name": "C2",
          "midi": 36,
          "time": 182.64686399999968,
          "velocity": 0.7480314960629921,
          "duration": 0.22058799999999223
        },
        {
          "name": "C2",
          "midi": 36,
          "time": 182.86745199999967,
          "velocity": 0.7480314960629921,
          "duration": 0.22058799999999223
        },
        {
          "name": "C#3",
          "midi": 49,
          "time": 183.08803999999967,
          "velocity": 0.6220472440944882,
          "duration": 0.44117599999998447
        },
        {
          "name": "E2",
          "midi": 40,
          "time": 183.08803999999967,
          "velocity": 0.7480314960629921,
          "duration": 0.22058799999999223
        },
        {
          "name": "C#3",
          "midi": 49,
          "time": 183.52921599999965,
          "velocity": 0.6220472440944882,
          "duration": 0.44117599999998447
        },
        {
          "name": "C2",
          "midi": 36,
          "time": 183.52921599999965,
          "velocity": 0.7480314960629921,
          "duration": 0.22058799999999223
        },
        {
          "name": "C#3",
          "midi": 49,
          "time": 183.97039199999963,
          "velocity": 0.6220472440944882,
          "duration": 0.33088200000000256
        },
        {
          "name": "E2",
          "midi": 40,
          "time": 183.97039199999963,
          "velocity": 0.7480314960629921,
          "duration": 0.22058799999999223
        },
        {
          "name": "E2",
          "midi": 40,
          "time": 184.30127399999964,
          "velocity": 0.7480314960629921,
          "duration": 0.11029400000001033
        },
        {
          "name": "C#3",
          "midi": 49,
          "time": 184.41156799999965,
          "velocity": 0.6220472440944882,
          "duration": 0.44117599999998447
        },
        {
          "name": "C2",
          "midi": 36,
          "time": 184.41156799999965,
          "velocity": 0.7480314960629921,
          "duration": 0.22058799999999223
        },
        {
          "name": "C2",
          "midi": 36,
          "time": 184.63215599999964,
          "velocity": 0.7480314960629921,
          "duration": 0.22058799999999223
        },
        {
          "name": "C#3",
          "midi": 49,
          "time": 184.85274399999963,
          "velocity": 0.6220472440944882,
          "duration": 0.44117599999998447
        },
        {
          "name": "E2",
          "midi": 40,
          "time": 184.85274399999963,
          "velocity": 0.7480314960629921,
          "duration": 0.22058799999999223
        },
        {
          "name": "A3",
          "midi": 57,
          "time": 185.29391999999962,
          "velocity": 0.7480314960629921,
          "duration": 0.22058799999999223
        },
        {
          "name": "C#3",
          "midi": 49,
          "time": 185.29391999999962,
          "velocity": 0.6220472440944882,
          "duration": 0.44117599999998447
        },
        {
          "name": "C2",
          "midi": 36,
          "time": 185.29391999999962,
          "velocity": 0.7480314960629921,
          "duration": 0.22058799999999223
        },
        {
          "name": "C#3",
          "midi": 49,
          "time": 185.7350959999996,
          "velocity": 0.6220472440944882,
          "duration": 0.33088200000000256
        },
        {
          "name": "E2",
          "midi": 40,
          "time": 185.7350959999996,
          "velocity": 0.7480314960629921,
          "duration": 0.22058799999999223
        },
        {
          "name": "E2",
          "midi": 40,
          "time": 186.0659779999996,
          "velocity": 0.7480314960629921,
          "duration": 0.11029400000001033
        },
        {
          "name": "C#3",
          "midi": 49,
          "time": 186.1762719999996,
          "velocity": 0.6220472440944882,
          "duration": 0.44117599999998447
        },
        {
          "name": "C2",
          "midi": 36,
          "time": 186.1762719999996,
          "velocity": 0.7480314960629921,
          "duration": 0.22058799999999223
        },
        {
          "name": "C2",
          "midi": 36,
          "time": 186.3968599999996,
          "velocity": 0.7480314960629921,
          "duration": 0.22058799999999223
        },
        {
          "name": "C#3",
          "midi": 49,
          "time": 186.6174479999996,
          "velocity": 0.6220472440944882,
          "duration": 0.44117599999998447
        },
        {
          "name": "E2",
          "midi": 40,
          "time": 186.6174479999996,
          "velocity": 0.7480314960629921,
          "duration": 0.22058799999999223
        },
        {
          "name": "C#3",
          "midi": 49,
          "time": 187.05862399999958,
          "velocity": 0.6220472440944882,
          "duration": 0.44117599999998447
        },
        {
          "name": "C2",
          "midi": 36,
          "time": 187.05862399999958,
          "velocity": 0.7480314960629921,
          "duration": 0.22058799999999223
        },
        {
          "name": "C#3",
          "midi": 49,
          "time": 187.49979999999957,
          "velocity": 0.6220472440944882,
          "duration": 0.33088200000000256
        },
        {
          "name": "E2",
          "midi": 40,
          "time": 187.49979999999957,
          "velocity": 0.7480314960629921,
          "duration": 0.22058799999999223
        },
        {
          "name": "E2",
          "midi": 40,
          "time": 187.83068199999957,
          "velocity": 0.7480314960629921,
          "duration": 0.11029400000001033
        },
        {
          "name": "C#3",
          "midi": 49,
          "time": 187.94097599999958,
          "velocity": 0.6220472440944882,
          "duration": 0.44117599999998447
        },
        {
          "name": "C2",
          "midi": 36,
          "time": 187.94097599999958,
          "velocity": 0.7480314960629921,
          "duration": 0.22058799999999223
        },
        {
          "name": "C2",
          "midi": 36,
          "time": 188.16156399999957,
          "velocity": 0.7480314960629921,
          "duration": 0.22058799999999223
        },
        {
          "name": "C#3",
          "midi": 49,
          "time": 188.38215199999956,
          "velocity": 0.6220472440944882,
          "duration": 0.44117599999998447
        },
        {
          "name": "E2",
          "midi": 40,
          "time": 188.38215199999956,
          "velocity": 0.7480314960629921,
          "duration": 0.22058799999999223
        },
        {
          "name": "A3",
          "midi": 57,
          "time": 188.82332799999955,
          "velocity": 0.7480314960629921,
          "duration": 0.44117599999998447
        },
        {
          "name": "C#3",
          "midi": 49,
          "time": 188.82332799999955,
          "velocity": 0.6220472440944882,
          "duration": 0.22058799999999223
        },
        {
          "name": "C2",
          "midi": 36,
          "time": 188.82332799999955,
          "velocity": 0.7480314960629921,
          "duration": 0.22058799999999223
        },
        {
          "name": "C#3",
          "midi": 49,
          "time": 189.26450399999953,
          "velocity": 0.6220472440944882,
          "duration": 0.33088200000000256
        },
        {
          "name": "E2",
          "midi": 40,
          "time": 189.26450399999953,
          "velocity": 0.7480314960629921,
          "duration": 0.22058799999999223
        },
        {
          "name": "E2",
          "midi": 40,
          "time": 189.59538599999954,
          "velocity": 0.7480314960629921,
          "duration": 0.11029400000001033
        },
        {
          "name": "C#3",
          "midi": 49,
          "time": 189.70567999999955,
          "velocity": 0.6220472440944882,
          "duration": 0.44117599999998447
        },
        {
          "name": "C2",
          "midi": 36,
          "time": 189.70567999999955,
          "velocity": 0.7480314960629921,
          "duration": 0.22058799999999223
        },
        {
          "name": "C2",
          "midi": 36,
          "time": 189.92626799999954,
          "velocity": 0.7480314960629921,
          "duration": 0.22058799999999223
        },
        {
          "name": "C#3",
          "midi": 49,
          "time": 190.14685599999953,
          "velocity": 0.6220472440944882,
          "duration": 0.44117599999998447
        },
        {
          "name": "E2",
          "midi": 40,
          "time": 190.14685599999953,
          "velocity": 0.7480314960629921,
          "duration": 0.22058799999999223
        },
        {
          "name": "C#3",
          "midi": 49,
          "time": 190.58803199999952,
          "velocity": 0.6220472440944882,
          "duration": 0.44117599999998447
        },
        {
          "name": "C2",
          "midi": 36,
          "time": 190.58803199999952,
          "velocity": 0.7480314960629921,
          "duration": 0.22058799999999223
        },
        {
          "name": "C#3",
          "midi": 49,
          "time": 191.0292079999995,
          "velocity": 0.6220472440944882,
          "duration": 0.33088200000000256
        },
        {
          "name": "E2",
          "midi": 40,
          "time": 191.0292079999995,
          "velocity": 0.7480314960629921,
          "duration": 0.22058799999999223
        },
        {
          "name": "E2",
          "midi": 40,
          "time": 191.3600899999995,
          "velocity": 0.7480314960629921,
          "duration": 0.11029400000001033
        },
        {
          "name": "C#3",
          "midi": 49,
          "time": 191.4703839999995,
          "velocity": 0.6220472440944882,
          "duration": 0.22058799999999223
        },
        {
          "name": "C2",
          "midi": 36,
          "time": 191.4703839999995,
          "velocity": 0.7480314960629921,
          "duration": 0.22058799999999223
        },
        {
          "name": "G3",
          "midi": 55,
          "time": 191.6909719999995,
          "velocity": 0.6220472440944882,
          "duration": 0.22058799999999223
        },
        {
          "name": "E2",
          "midi": 40,
          "time": 191.6909719999995,
          "velocity": 0.7480314960629921,
          "duration": 0.22058799999999223
        },
        {
          "name": "C2",
          "midi": 36,
          "time": 191.6909719999995,
          "velocity": 0.7480314960629921,
          "duration": 0.22058799999999223
        },
        {
          "name": "G3",
          "midi": 55,
          "time": 191.9115599999995,
          "velocity": 0.6220472440944882,
          "duration": 0.22058799999999223
        },
        {
          "name": "E2",
          "midi": 40,
          "time": 191.9115599999995,
          "velocity": 0.7480314960629921,
          "duration": 0.22058799999999223
        },
        {
          "name": "C2",
          "midi": 36,
          "time": 191.9115599999995,
          "velocity": 0.7480314960629921,
          "duration": 0.22058799999999223
        },
        {
          "name": "C#3",
          "midi": 49,
          "time": 192.1321479999995,
          "velocity": 0.49606299212598426,
          "duration": 0.22058799999999223
        },
        {
          "name": "C2",
          "midi": 36,
          "time": 192.1321479999995,
          "velocity": 0.7480314960629921,
          "duration": 0.22058799999999223
        },
        {
          "name": "A3",
          "midi": 57,
          "time": 192.35273599999948,
          "velocity": 0.7480314960629921,
          "duration": 0.22058799999999223
        },
        {
          "name": "C#3",
          "midi": 49,
          "time": 192.35273599999948,
          "velocity": 0.6220472440944882,
          "duration": 0.44117599999998447
        },
        {
          "name": "C2",
          "midi": 36,
          "time": 192.35273599999948,
          "velocity": 0.7480314960629921,
          "duration": 0.22058799999999223
        },
        {
          "name": "E3",
          "midi": 52,
          "time": 192.79391199999947,
          "velocity": 0.8740157480314961,
          "duration": 0.33088200000000256
        },
        {
          "name": "E2",
          "midi": 40,
          "time": 192.79391199999947,
          "velocity": 0.7480314960629921,
          "duration": 0.22058799999999223
        },
        {
          "name": "E2",
          "midi": 40,
          "time": 193.12479399999947,
          "velocity": 0.7480314960629921,
          "duration": 0.11029400000001033
        },
        {
          "name": "E3",
          "midi": 52,
          "time": 193.23508799999948,
          "velocity": 0.8740157480314961,
          "duration": 0.44117599999998447
        },
        {
          "name": "C2",
          "midi": 36,
          "time": 193.23508799999948,
          "velocity": 0.7480314960629921,
          "duration": 0.22058799999999223
        },
        {
          "name": "C2",
          "midi": 36,
          "time": 193.45567599999947,
          "velocity": 0.7480314960629921,
          "duration": 0.22058799999999223
        },
        {
          "name": "E3",
          "midi": 52,
          "time": 193.67626399999946,
          "velocity": 0.8740157480314961,
          "duration": 0.44117599999998447
        },
        {
          "name": "E2",
          "midi": 40,
          "time": 193.67626399999946,
          "velocity": 0.7480314960629921,
          "duration": 0.22058799999999223
        },
        {
          "name": "E3",
          "midi": 52,
          "time": 194.11743999999945,
          "velocity": 0.8740157480314961,
          "duration": 0.44117599999998447
        },
        {
          "name": "C2",
          "midi": 36,
          "time": 194.11743999999945,
          "velocity": 0.7480314960629921,
          "duration": 0.22058799999999223
        },
        {
          "name": "E3",
          "midi": 52,
          "time": 194.55861599999943,
          "velocity": 0.8740157480314961,
          "duration": 0.33088200000000256
        },
        {
          "name": "E2",
          "midi": 40,
          "time": 194.55861599999943,
          "velocity": 0.7480314960629921,
          "duration": 0.22058799999999223
        },
        {
          "name": "E2",
          "midi": 40,
          "time": 194.88949799999943,
          "velocity": 0.7480314960629921,
          "duration": 0.11029400000001033
        },
        {
          "name": "E2",
          "midi": 40,
          "time": 194.99979199999945,
          "velocity": 0.7480314960629921,
          "duration": 0.22058799999999223
        },
        {
          "name": "C2",
          "midi": 36,
          "time": 194.99979199999945,
          "velocity": 0.8740157480314961,
          "duration": 0.22058799999999223
        },
        {
          "name": "E2",
          "midi": 40,
          "time": 195.22037999999944,
          "velocity": 0.7480314960629921,
          "duration": 0.22058799999999223
        },
        {
          "name": "C2",
          "midi": 36,
          "time": 195.22037999999944,
          "velocity": 0.8740157480314961,
          "duration": 0.22058799999999223
        },
        {
          "name": "B2",
          "midi": 47,
          "time": 195.44096799999943,
          "velocity": 0.8740157480314961,
          "duration": 0.22058799999999223
        },
        {
          "name": "A2",
          "midi": 45,
          "time": 195.66155599999942,
          "velocity": 0.8740157480314961,
          "duration": 0.22058799999999223
        },
        {
          "name": "A3",
          "midi": 57,
          "time": 195.8821439999994,
          "velocity": 0.8740157480314961,
          "duration": 1.7647039999999947
        },
        {
          "name": "F2",
          "midi": 41,
          "time": 195.8821439999994,
          "velocity": 0.8740157480314961,
          "duration": 1.7647039999999947
        }
      ],
      "controlChanges": {
        "6": [
          {
            "number": 6,
            "time": 0,
            "value": 0.09448818897637795
          },
          {
            "number": 6,
            "time": 0,
            "value": 0.5039370078740157
          }
        ],
        "7": [
          {
            "number": 7,
            "time": 0,
            "value": 0.8188976377952756
          }
        ],
        "10": [
          {
            "number": 10,
            "time": 0,
            "value": 0.5039370078740157
          }
        ],
        "38": [
          {
            "number": 38,
            "time": 0,
            "value": 0
          }
        ],
        "91": [
          {
            "number": 91,
            "time": 0,
            "value": 0
          }
        ],
        "92": [
          {
            "number": 92,
            "time": 0,
            "value": 0
          }
        ],
        "93": [
          {
            "number": 93,
            "time": 0,
            "value": 0
          }
        ],
        "95": [
          {
            "number": 95,
            "time": 0,
            "value": 0
          }
        ],
        "100": [
          {
            "number": 100,
            "time": 0,
            "value": 0
          },
          {
            "number": 100,
            "time": 0,
            "value": 0.007874015748031496
          },
          {
            "number": 100,
            "time": 0,
            "value": 1
          }
        ],
        "101": [
          {
            "number": 101,
            "time": 0,
            "value": 0
          },
          {
            "number": 101,
            "time": 0,
            "value": 0
          },
          {
            "number": 101,
            "time": 0,
            "value": 1
          }
        ]
      }
    },
    {
      "startTime": 28.455852,
      "duration": 182.64686400000025,
      "length": 183,
      "id": 8,
      "name": "Voice",
      "instrumentNumber": 60,
      "instrument": "french horn",
      "instrumentFamily": "brass",
      "channelNumber": 13,
      "isPercussion": false,
      "notes": [
        {
          "name": "D3",
          "midi": 50,
          "time": 28.455852,
          "velocity": 0.7480314960629921,
          "duration": 0.22058799999999934
        },
        {
          "name": "D3",
          "midi": 50,
          "time": 28.67644,
          "velocity": 0.7480314960629921,
          "duration": 0.4411759999999987
        },
        {
          "name": "E3",
          "midi": 52,
          "time": 29.117615999999998,
          "velocity": 0.7480314960629921,
          "duration": 0.6617640000000016
        },
        {
          "name": "F#3",
          "midi": 54,
          "time": 29.77938,
          "velocity": 0.7480314960629921,
          "duration": 0.4411759999999987
        },
        {
          "name": "F#3",
          "midi": 54,
          "time": 30.220556,
          "velocity": 0.7480314960629921,
          "duration": 2.205879999999997
        },
        {
          "name": "F#3",
          "midi": 54,
          "time": 32.426435999999995,
          "velocity": 0.7480314960629921,
          "duration": 0.22058799999999934
        },
        {
          "name": "F3",
          "midi": 53,
          "time": 32.647023999999995,
          "velocity": 0.7480314960629921,
          "duration": 0.661763999999998
        },
        {
          "name": "F#3",
          "midi": 54,
          "time": 33.30878799999999,
          "velocity": 0.7480314960629921,
          "duration": 1.1029399999999967
        },
        {
          "name": "C#3",
          "midi": 49,
          "time": 35.07349199999999,
          "velocity": 0.7480314960629921,
          "duration": 0.22058799999999934
        },
        {
          "name": "C#3",
          "midi": 49,
          "time": 35.29407999999999,
          "velocity": 0.7480314960629921,
          "duration": 0.22058799999999934
        },
        {
          "name": "C#3",
          "midi": 49,
          "time": 35.514667999999986,
          "velocity": 0.7480314960629921,
          "duration": 0.4411759999999987
        },
        {
          "name": "F#3",
          "midi": 54,
          "time": 35.955843999999985,
          "velocity": 0.7480314960629921,
          "duration": 0.22058799999999934
        },
        {
          "name": "E3",
          "midi": 52,
          "time": 36.176431999999984,
          "velocity": 0.7480314960629921,
          "duration": 0.4411759999999987
        },
        {
          "name": "E3",
          "midi": 52,
          "time": 36.61760799999998,
          "velocity": 0.7480314960629921,
          "duration": 0.4411759999999987
        },
        {
          "name": "E3",
          "midi": 52,
          "time": 37.05878399999998,
          "velocity": 0.7480314960629921,
          "duration": 0.661763999999998
        },
        {
          "name": "D3",
          "midi": 50,
          "time": 37.72054799999998,
          "velocity": 0.7480314960629921,
          "duration": 0.22058799999999934
        },
        {
          "name": "D3",
          "midi": 50,
          "time": 37.94113599999998,
          "velocity": 0.7480314960629921,
          "duration": 0.8823519999999974
        },
        {
          "name": "E3",
          "midi": 52,
          "time": 39.485251999999974,
          "velocity": 0.7480314960629921,
          "duration": 0.22058799999999934
        },
        {
          "name": "E3",
          "midi": 52,
          "time": 39.705839999999974,
          "velocity": 0.7480314960629921,
          "duration": 0.22058799999999934
        },
        {
          "name": "E3",
          "midi": 52,
          "time": 39.92642799999997,
          "velocity": 0.7480314960629921,
          "duration": 0.22058799999999934
        },
        {
          "name": "F#3",
          "midi": 54,
          "time": 40.14701599999997,
          "velocity": 0.7480314960629921,
          "duration": 1.3235280000000031
        },
        {
          "name": "A3",
          "midi": 57,
          "time": 41.911719999999974,
          "velocity": 0.7480314960629921,
          "duration": 0.4411759999999987
        },
        {
          "name": "D4",
          "midi": 62,
          "time": 42.35289599999997,
          "velocity": 0.7480314960629921,
          "duration": 0.661763999999998
        },
        {
          "name": "C#4",
          "midi": 61,
          "time": 43.01465999999997,
          "velocity": 0.7480314960629921,
          "duration": 0.4411759999999987
        },
        {
          "name": "C#4",
          "midi": 61,
          "time": 43.45583599999997,
          "velocity": 0.7480314960629921,
          "duration": 1.7647040000000018
        },
        {
          "name": "F#3",
          "midi": 54,
          "time": 45.22053999999997,
          "velocity": 0.7480314960629921,
          "duration": 0.22058799999999934
        },
        {
          "name": "F#3",
          "midi": 54,
          "time": 45.44112799999997,
          "velocity": 0.7480314960629921,
          "duration": 0.4411759999999987
        },
        {
          "name": "E4",
          "midi": 64,
          "time": 46.32347999999997,
          "velocity": 0.7480314960629921,
          "duration": 0.4411759999999987
        },
        {
          "name": "E4",
          "midi": 64,
          "time": 46.76465599999997,
          "velocity": 0.7480314960629921,
          "duration": 0.22058799999999934
        },
        {
          "name": "E4",
          "midi": 64,
          "time": 46.985243999999966,
          "velocity": 0.7480314960629921,
          "duration": 0.4411759999999987
        },
        {
          "name": "E4",
          "midi": 64,
          "time": 47.426419999999965,
          "velocity": 0.7480314960629921,
          "duration": 0.8823519999999974
        },
        {
          "name": "D4",
          "midi": 62,
          "time": 48.30877199999996,
          "velocity": 0.7480314960629921,
          "duration": 0.22058799999999934
        },
        {
          "name": "D4",
          "midi": 62,
          "time": 48.52935999999996,
          "velocity": 0.7480314960629921,
          "duration": 0.8823519999999974
        },
        {
          "name": "D4",
          "midi": 62,
          "time": 49.85288799999996,
          "velocity": 0.7480314960629921,
          "duration": 0.22058799999999934
        },
        {
          "name": "D4",
          "midi": 62,
          "time": 50.07347599999996,
          "velocity": 0.7480314960629921,
          "duration": 0.22058799999999934
        },
        {
          "name": "E4",
          "midi": 64,
          "time": 50.294063999999956,
          "velocity": 0.7480314960629921,
          "duration": 0.4411759999999987
        },
        {
          "name": "F#4",
          "midi": 66,
          "time": 50.735239999999955,
          "velocity": 0.7480314960629921,
          "duration": 0.661763999999998
        },
        {
          "name": "F#4",
          "midi": 66,
          "time": 51.39700399999995,
          "velocity": 0.7480314960629921,
          "duration": 2.426468
        },
        {
          "name": "D4",
          "midi": 62,
          "time": 59.33817199999995,
          "velocity": 0.7480314960629921,
          "duration": 0.22058799999999934
        },
        {
          "name": "D4",
          "midi": 62,
          "time": 59.55875999999995,
          "velocity": 0.7480314960629921,
          "duration": 0.4411759999999987
        },
        {
          "name": "G4",
          "midi": 67,
          "time": 59.99993599999995,
          "velocity": 0.7480314960629921,
          "duration": 0.22058799999999934
        },
        {
          "name": "F#4",
          "midi": 66,
          "time": 60.22052399999995,
          "velocity": 0.7480314960629921,
          "duration": 0.4411759999999987
        },
        {
          "name": "G4",
          "midi": 67,
          "time": 60.661699999999946,
          "velocity": 0.7480314960629921,
          "duration": 0.4411759999999987
        },
        {
          "name": "F#4",
          "midi": 66,
          "time": 61.102875999999945,
          "velocity": 0.7480314960629921,
          "duration": 1.9852920000000012
        },
        {
          "name": "F#4",
          "midi": 66,
          "time": 63.529343999999945,
          "velocity": 0.7480314960629921,
          "duration": 0.22058799999999934
        },
        {
          "name": "E4",
          "midi": 64,
          "time": 63.749931999999944,
          "velocity": 0.7480314960629921,
          "duration": 0.4411759999999987
        },
        {
          "name": "D4",
          "midi": 62,
          "time": 64.19110799999994,
          "velocity": 0.7480314960629921,
          "duration": 0.4411759999999987
        },
        {
          "name": "C#4",
          "midi": 61,
          "time": 64.63228399999994,
          "velocity": 0.7480314960629921,
          "duration": 0.4411759999999987
        },
        {
          "name": "C#4",
          "midi": 61,
          "time": 65.07345999999994,
          "velocity": 0.7480314960629921,
          "duration": 0.4411759999999987
        },
        {
          "name": "B3",
          "midi": 59,
          "time": 65.51463599999994,
          "velocity": 0.7480314960629921,
          "duration": 0.22058800000000645
        },
        {
          "name": "B3",
          "midi": 59,
          "time": 65.73522399999995,
          "velocity": 0.7480314960629921,
          "duration": 0.4411759999999987
        },
        {
          "name": "D4",
          "midi": 62,
          "time": 66.39698799999995,
          "velocity": 0.7480314960629921,
          "duration": 0.22058800000000645
        },
        {
          "name": "D4",
          "midi": 62,
          "time": 66.61757599999996,
          "velocity": 0.7480314960629921,
          "duration": 0.4411759999999987
        },
        {
          "name": "G4",
          "midi": 67,
          "time": 67.05875199999996,
          "velocity": 0.7480314960629921,
          "duration": 0.4411759999999987
        },
        {
          "name": "F#4",
          "midi": 66,
          "time": 67.49992799999995,
          "velocity": 0.7480314960629921,
          "duration": 0.22058800000000645
        },
        {
          "name": "G4",
          "midi": 67,
          "time": 67.72051599999996,
          "velocity": 0.7480314960629921,
          "duration": 0.4411759999999987
        },
        {
          "name": "F#4",
          "midi": 66,
          "time": 68.16169199999996,
          "velocity": 0.7480314960629921,
          "duration": 3.308819999999997
        },
        {
          "name": "F#4",
          "midi": 66,
          "time": 71.69109999999996,
          "velocity": 0.7480314960629921,
          "duration": 0.22058800000000645
        },
        {
          "name": "E4",
          "midi": 64,
          "time": 71.91168799999997,
          "velocity": 0.7480314960629921,
          "duration": 0.22058800000000645
        },
        {
          "name": "D4",
          "midi": 62,
          "time": 72.13227599999998,
          "velocity": 0.7480314960629921,
          "duration": 1.1029400000000038
        },
        {
          "name": "D4",
          "midi": 62,
          "time": 73.45580399999999,
          "velocity": 0.7480314960629921,
          "duration": 0.22058800000000645
        },
        {
          "name": "D4",
          "midi": 62,
          "time": 73.67639199999999,
          "velocity": 0.7480314960629921,
          "duration": 0.4411759999999987
        },
        {
          "name": "G4",
          "midi": 67,
          "time": 74.11756799999999,
          "velocity": 0.7480314960629921,
          "duration": 0.22058800000000645
        },
        {
          "name": "F#4",
          "midi": 66,
          "time": 74.338156,
          "velocity": 0.7480314960629921,
          "duration": 0.4411759999999987
        },
        {
          "name": "G4",
          "midi": 67,
          "time": 74.779332,
          "velocity": 0.7480314960629921,
          "duration": 0.4411759999999987
        },
        {
          "name": "F#4",
          "midi": 66,
          "time": 75.220508,
          "velocity": 0.7480314960629921,
          "duration": 1.5441160000000025
        },
        {
          "name": "D4",
          "midi": 62,
          "time": 76.985212,
          "velocity": 0.7480314960629921,
          "duration": 0.22058800000000645
        },
        {
          "name": "D4",
          "midi": 62,
          "time": 77.20580000000001,
          "velocity": 0.7480314960629921,
          "duration": 0.4411759999999987
        },
        {
          "name": "F#4",
          "midi": 66,
          "time": 77.64697600000001,
          "velocity": 0.7480314960629921,
          "duration": 0.22058800000000645
        },
        {
          "name": "E4",
          "midi": 64,
          "time": 77.86756400000002,
          "velocity": 0.7480314960629921,
          "duration": 0.4411759999999987
        },
        {
          "name": "D4",
          "midi": 62,
          "time": 78.30874000000001,
          "velocity": 0.7480314960629921,
          "duration": 0.4411759999999987
        },
        {
          "name": "C#4",
          "midi": 61,
          "time": 78.74991600000001,
          "velocity": 0.7480314960629921,
          "duration": 0.22058800000000645
        },
        {
          "name": "C#4",
          "midi": 61,
          "time": 78.97050400000002,
          "velocity": 0.7480314960629921,
          "duration": 0.22058800000000645
        },
        {
          "name": "C#4",
          "midi": 61,
          "time": 79.19109200000003,
          "velocity": 0.7480314960629921,
          "duration": 0.4411759999999987
        },
        {
          "name": "B3",
          "midi": 59,
          "time": 79.63226800000002,
          "velocity": 0.7480314960629921,
          "duration": 0.22058800000000645
        },
        {
          "name": "B3",
          "midi": 59,
          "time": 79.85285600000003,
          "velocity": 0.7480314960629921,
          "duration": 0.4411759999999987
        },
        {
          "name": "D4",
          "midi": 62,
          "time": 80.95579600000003,
          "velocity": 0.7480314960629921,
          "duration": 0.22058800000000645
        },
        {
          "name": "G4",
          "midi": 67,
          "time": 81.17638400000004,
          "velocity": 0.7480314960629921,
          "duration": 0.4411759999999987
        },
        {
          "name": "F#4",
          "midi": 66,
          "time": 81.61756000000004,
          "velocity": 0.7480314960629921,
          "duration": 0.22058800000000645
        },
        {
          "name": "G4",
          "midi": 67,
          "time": 81.83814800000005,
          "velocity": 0.7480314960629921,
          "duration": 0.4411759999999987
        },
        {
          "name": "F#4",
          "midi": 66,
          "time": 82.27932400000005,
          "velocity": 0.7480314960629921,
          "duration": 2.426468
        },
        {
          "name": "D5",
          "midi": 74,
          "time": 84.92638000000005,
          "velocity": 0.7480314960629921,
          "duration": 0.8823519999999974
        },
        {
          "name": "C5",
          "midi": 72,
          "time": 85.80873200000005,
          "velocity": 0.7480314960629921,
          "duration": 0.22058800000000645
        },
        {
          "name": "D5",
          "midi": 74,
          "time": 86.02932000000006,
          "velocity": 0.7480314960629921,
          "duration": 0.4411759999999987
        },
        {
          "name": "D5",
          "midi": 74,
          "time": 86.47049600000005,
          "velocity": 0.7480314960629921,
          "duration": 2.2058799999999934
        },
        {
          "name": "E3",
          "midi": 52,
          "time": 103.23518400000005,
          "velocity": 0.7480314960629921,
          "duration": 0.6617640000000051
        },
        {
          "name": "F#3",
          "midi": 54,
          "time": 103.89694800000005,
          "velocity": 0.7480314960629921,
          "duration": 0.4411759999999987
        },
        {
          "name": "F#3",
          "midi": 54,
          "time": 104.33812400000005,
          "velocity": 0.7480314960629921,
          "duration": 1.5441160000000025
        },
        {
          "name": "F#3",
          "midi": 54,
          "time": 105.88224000000005,
          "velocity": 0.7480314960629921,
          "duration": 0.6617640000000051
        },
        {
          "name": "F3",
          "midi": 53,
          "time": 106.54400400000006,
          "velocity": 0.7480314960629921,
          "duration": 0.6617640000000051
        },
        {
          "name": "F#3",
          "midi": 54,
          "time": 107.20576800000006,
          "velocity": 0.7480314960629921,
          "duration": 0.22058800000000645
        },
        {
          "name": "F#3",
          "midi": 54,
          "time": 107.42635600000007,
          "velocity": 0.7480314960629921,
          "duration": 0.22058800000000645
        },
        {
          "name": "F3",
          "midi": 53,
          "time": 107.64694400000008,
          "velocity": 0.7480314960629921,
          "duration": 0.8823519999999974
        },
        {
          "name": "F#3",
          "midi": 54,
          "time": 108.52929600000007,
          "velocity": 0.7480314960629921,
          "duration": 0.8823519999999974
        },
        {
          "name": "F#3",
          "midi": 54,
          "time": 110.07341200000008,
          "velocity": 0.7480314960629921,
          "duration": 0.6617640000000051
        },
        {
          "name": "E3",
          "midi": 52,
          "time": 110.73517600000008,
          "velocity": 0.7480314960629921,
          "duration": 0.4411759999999987
        },
        {
          "name": "E3",
          "midi": 52,
          "time": 111.17635200000008,
          "velocity": 0.7480314960629921,
          "duration": 1.7647039999999947
        },
        {
          "name": "D4",
          "midi": 62,
          "time": 116.47046400000008,
          "velocity": 0.7480314960629921,
          "duration": 0.6617640000000051
        },
        {
          "name": "C#4",
          "midi": 61,
          "time": 117.13222800000008,
          "velocity": 0.7480314960629921,
          "duration": 0.4411759999999987
        },
        {
          "name": "C#4",
          "midi": 61,
          "time": 117.57340400000008,
          "velocity": 0.7480314960629921,
          "duration": 1.7647039999999947
        },
        {
          "name": "F#3",
          "midi": 54,
          "time": 119.33810800000008,
          "velocity": 0.7480314960629921,
          "duration": 0.6617640000000051
        },
        {
          "name": "E4",
          "midi": 64,
          "time": 120.44104800000008,
          "velocity": 0.7480314960629921,
          "duration": 0.4411759999999987
        },
        {
          "name": "E4",
          "midi": 64,
          "time": 120.88222400000008,
          "velocity": 0.7480314960629921,
          "duration": 0.22058800000000645
        },
        {
          "name": "E4",
          "midi": 64,
          "time": 121.10281200000009,
          "velocity": 0.7480314960629921,
          "duration": 0.4411759999999987
        },
        {
          "name": "E4",
          "midi": 64,
          "time": 121.54398800000008,
          "velocity": 0.7480314960629921,
          "duration": 0.8823519999999974
        },
        {
          "name": "D4",
          "midi": 62,
          "time": 122.42634000000008,
          "velocity": 0.7480314960629921,
          "duration": 0.22058800000000645
        },
        {
          "name": "D4",
          "midi": 62,
          "time": 122.64692800000009,
          "velocity": 0.7480314960629921,
          "duration": 0.8823519999999974
        },
        {
          "name": "D4",
          "midi": 62,
          "time": 123.97045600000008,
          "velocity": 0.7480314960629921,
          "duration": 0.22058800000000645
        },
        {
          "name": "D4",
          "midi": 62,
          "time": 124.19104400000009,
          "velocity": 0.7480314960629921,
          "duration": 0.22058800000000645
        },
        {
          "name": "E4",
          "midi": 64,
          "time": 124.4116320000001,
          "velocity": 0.7480314960629921,
          "duration": 0.4411759999999987
        },
        {
          "name": "F#4",
          "midi": 66,
          "time": 124.8528080000001,
          "velocity": 0.7480314960629921,
          "duration": 0.6617640000000051
        },
        {
          "name": "F#4",
          "midi": 66,
          "time": 125.5145720000001,
          "velocity": 0.7480314960629921,
          "duration": 2.426468
        },
        {
          "name": "D4",
          "midi": 62,
          "time": 133.4557400000001,
          "velocity": 0.7480314960629921,
          "duration": 0.22058799999999223
        },
        {
          "name": "D4",
          "midi": 62,
          "time": 133.6763280000001,
          "velocity": 0.7480314960629921,
          "duration": 0.4411760000000129
        },
        {
          "name": "G4",
          "midi": 67,
          "time": 134.1175040000001,
          "velocity": 0.7480314960629921,
          "duration": 0.22058799999999223
        },
        {
          "name": "F#4",
          "midi": 66,
          "time": 134.3380920000001,
          "velocity": 0.7480314960629921,
          "duration": 0.4411760000000129
        },
        {
          "name": "G4",
          "midi": 67,
          "time": 134.77926800000012,
          "velocity": 0.7480314960629921,
          "duration": 0.4411760000000129
        },
        {
          "name": "F#4",
          "midi": 66,
          "time": 135.22044400000013,
          "velocity": 0.7480314960629921,
          "duration": 1.985291999999987
        },
        {
          "name": "F#4",
          "midi": 66,
          "time": 137.64691200000013,
          "velocity": 0.7480314960629921,
          "duration": 0.22058799999999223
        },
        {
          "name": "E4",
          "midi": 64,
          "time": 137.86750000000012,
          "velocity": 0.7480314960629921,
          "duration": 0.4411760000000129
        },
        {
          "name": "D4",
          "midi": 62,
          "time": 138.30867600000013,
          "velocity": 0.7480314960629921,
          "duration": 0.4411760000000129
        },
        {
          "name": "C#4",
          "midi": 61,
          "time": 138.74985200000015,
          "velocity": 0.7480314960629921,
          "duration": 0.4411760000000129
        },
        {
          "name": "C#4",
          "midi": 61,
          "time": 139.19102800000016,
          "velocity": 0.7480314960629921,
          "duration": 0.4411760000000129
        },
        {
          "name": "B3",
          "midi": 59,
          "time": 139.63220400000017,
          "velocity": 0.7480314960629921,
          "duration": 0.22058799999999223
        },
        {
          "name": "B3",
          "midi": 59,
          "time": 139.85279200000016,
          "velocity": 0.7480314960629921,
          "duration": 0.4411760000000129
        },
        {
          "name": "D4",
          "midi": 62,
          "time": 140.51455600000017,
          "velocity": 0.7480314960629921,
          "duration": 0.22058799999999223
        },
        {
          "name": "D4",
          "midi": 62,
          "time": 140.73514400000016,
          "velocity": 0.7480314960629921,
          "duration": 0.4411760000000129
        },
        {
          "name": "G4",
          "midi": 67,
          "time": 141.17632000000017,
          "velocity": 0.7480314960629921,
          "duration": 0.4411760000000129
        },
        {
          "name": "F#4",
          "midi": 66,
          "time": 141.6174960000002,
          "velocity": 0.7480314960629921,
          "duration": 0.22058799999999223
        },
        {
          "name": "G4",
          "midi": 67,
          "time": 141.83808400000018,
          "velocity": 0.7480314960629921,
          "duration": 0.4411760000000129
        },
        {
          "name": "F#4",
          "midi": 66,
          "time": 142.2792600000002,
          "velocity": 0.7480314960629921,
          "duration": 3.308819999999997
        },
        {
          "name": "F#4",
          "midi": 66,
          "time": 145.80866800000018,
          "velocity": 0.7480314960629921,
          "duration": 0.22058799999999223
        },
        {
          "name": "E4",
          "midi": 64,
          "time": 146.02925600000017,
          "velocity": 0.7480314960629921,
          "duration": 0.22058799999999223
        },
        {
          "name": "D4",
          "midi": 62,
          "time": 146.24984400000017,
          "velocity": 0.7480314960629921,
          "duration": 1.1029399999999896
        },
        {
          "name": "D4",
          "midi": 62,
          "time": 147.57337200000015,
          "velocity": 0.7480314960629921,
          "duration": 0.22058799999999223
        },
        {
          "name": "D4",
          "midi": 62,
          "time": 147.79396000000014,
          "velocity": 0.7480314960629921,
          "duration": 0.4411760000000129
        },
        {
          "name": "G4",
          "midi": 67,
          "time": 148.23513600000015,
          "velocity": 0.7480314960629921,
          "duration": 0.22058799999999223
        },
        {
          "name": "F#4",
          "midi": 66,
          "time": 148.45572400000015,
          "velocity": 0.7480314960629921,
          "duration": 0.4411760000000129
        },
        {
          "name": "G4",
          "midi": 67,
          "time": 148.89690000000016,
          "velocity": 0.7480314960629921,
          "duration": 0.4411760000000129
        },
        {
          "name": "F#4",
          "midi": 66,
          "time": 149.33807600000017,
          "velocity": 0.7480314960629921,
          "duration": 1.5441160000000025
        },
        {
          "name": "D4",
          "midi": 62,
          "time": 151.10278000000017,
          "velocity": 0.7480314960629921,
          "duration": 0.22058799999999223
        },
        {
          "name": "D4",
          "midi": 62,
          "time": 151.32336800000016,
          "velocity": 0.7480314960629921,
          "duration": 0.4411760000000129
        },
        {
          "name": "F#4",
          "midi": 66,
          "time": 151.76454400000017,
          "velocity": 0.7480314960629921,
          "duration": 0.22058799999999223
        },
        {
          "name": "E4",
          "midi": 64,
          "time": 151.98513200000016,
          "velocity": 0.7480314960629921,
          "duration": 0.4411760000000129
        },
        {
          "name": "D4",
          "midi": 62,
          "time": 152.42630800000018,
          "velocity": 0.7480314960629921,
          "duration": 0.4411760000000129
        },
        {
          "name": "C#4",
          "midi": 61,
          "time": 152.8674840000002,
          "velocity": 0.7480314960629921,
          "duration": 0.22058799999999223
        },
        {
          "name": "C#4",
          "midi": 61,
          "time": 153.08807200000018,
          "velocity": 0.7480314960629921,
          "duration": 0.22058799999999223
        },
        {
          "name": "C#4",
          "midi": 61,
          "time": 153.30866000000017,
          "velocity": 0.7480314960629921,
          "duration": 0.4411760000000129
        },
        {
          "name": "B3",
          "midi": 59,
          "time": 153.7498360000002,
          "velocity": 0.7480314960629921,
          "duration": 0.22058799999999223
        },
        {
          "name": "B3",
          "midi": 59,
          "time": 153.97042400000018,
          "velocity": 0.7480314960629921,
          "duration": 0.4411760000000129
        },
        {
          "name": "D4",
          "midi": 62,
          "time": 155.0733640000002,
          "velocity": 0.7480314960629921,
          "duration": 0.22058799999999223
        },
        {
          "name": "G4",
          "midi": 67,
          "time": 155.2939520000002,
          "velocity": 0.7480314960629921,
          "duration": 0.4411760000000129
        },
        {
          "name": "F#4",
          "midi": 66,
          "time": 155.7351280000002,
          "velocity": 0.7480314960629921,
          "duration": 0.22058799999999223
        },
        {
          "name": "G4",
          "midi": 67,
          "time": 155.9557160000002,
          "velocity": 0.7480314960629921,
          "duration": 0.4411760000000129
        },
        {
          "name": "F#4",
          "midi": 66,
          "time": 156.3968920000002,
          "velocity": 0.7480314960629921,
          "duration": 2.426468
        },
        {
          "name": "D5",
          "midi": 74,
          "time": 159.0439480000002,
          "velocity": 0.7480314960629921,
          "duration": 0.8823519999999974
        },
        {
          "name": "C5",
          "midi": 72,
          "time": 159.9263000000002,
          "velocity": 0.7480314960629921,
          "duration": 0.22058799999999223
        },
        {
          "name": "D5",
          "midi": 74,
          "time": 160.1468880000002,
          "velocity": 0.7480314960629921,
          "duration": 0.4411760000000129
        },
        {
          "name": "D5",
          "midi": 74,
          "time": 160.5880640000002,
          "velocity": 0.7480314960629921,
          "duration": 1.7647039999999947
        },
        {
          "name": "F#4",
          "midi": 66,
          "time": 162.5733560000002,
          "velocity": 0.7480314960629921,
          "duration": 0.22058799999999223
        },
        {
          "name": "F#4",
          "midi": 66,
          "time": 162.79394400000018,
          "velocity": 0.7480314960629921,
          "duration": 0.22058799999999223
        },
        {
          "name": "C#5",
          "midi": 73,
          "time": 163.01453200000017,
          "velocity": 0.7480314960629921,
          "duration": 0.4411760000000129
        },
        {
          "name": "D5",
          "midi": 74,
          "time": 163.4557080000002,
          "velocity": 0.7480314960629921,
          "duration": 0.22058799999999223
        },
        {
          "name": "C#5",
          "midi": 73,
          "time": 163.67629600000018,
          "velocity": 0.7480314960629921,
          "duration": 0.4411760000000129
        },
        {
          "name": "C#5",
          "midi": 73,
          "time": 164.1174720000002,
          "velocity": 0.7480314960629921,
          "duration": 0.4411760000000129
        },
        {
          "name": "B4",
          "midi": 71,
          "time": 164.5586480000002,
          "velocity": 0.7480314960629921,
          "duration": 0.4411760000000129
        },
        {
          "name": "B4",
          "midi": 71,
          "time": 164.99982400000022,
          "velocity": 0.7480314960629921,
          "duration": 1.3235280000000103
        },
        {
          "name": "C#5",
          "midi": 73,
          "time": 166.76452800000024,
          "velocity": 0.7480314960629921,
          "duration": 0.6617640000000051
        },
        {
          "name": "D5",
          "midi": 74,
          "time": 167.42629200000025,
          "velocity": 0.7480314960629921,
          "duration": 0.4411760000000129
        },
        {
          "name": "D5",
          "midi": 74,
          "time": 167.86746800000026,
          "velocity": 0.7480314960629921,
          "duration": 2.426468
        },
        {
          "name": "C#5",
          "midi": 73,
          "time": 170.29393600000026,
          "velocity": 0.7480314960629921,
          "duration": 1.7647039999999947
        },
        {
          "name": "F#4",
          "midi": 66,
          "time": 172.27922800000024,
          "velocity": 0.7480314960629921,
          "duration": 0.22058799999999223
        },
        {
          "name": "F#4",
          "midi": 66,
          "time": 172.49981600000024,
          "velocity": 0.7480314960629921,
          "duration": 0.4411760000000129
        },
        {
          "name": "E5",
          "midi": 76,
          "time": 173.16158000000024,
          "velocity": 0.7480314960629921,
          "duration": 0.8823519999999974
        },
        {
          "name": "F#5",
          "midi": 78,
          "time": 174.04393200000024,
          "velocity": 0.7480314960629921,
          "duration": 0.22058799999999223
        },
        {
          "name": "E5",
          "midi": 76,
          "time": 174.26452000000023,
          "velocity": 0.7480314960629921,
          "duration": 0.4411760000000129
        },
        {
          "name": "E5",
          "midi": 76,
          "time": 174.70569600000024,
          "velocity": 0.7480314960629921,
          "duration": 0.4411760000000129
        },
        {
          "name": "D5",
          "midi": 74,
          "time": 175.14687200000026,
          "velocity": 0.7480314960629921,
          "duration": 0.22058799999999223
        },
        {
          "name": "G#6",
          "midi": 92,
          "time": 175.36746000000025,
          "velocity": 0.7480314960629921,
          "duration": 0.22058799999999223
        },
        {
          "name": "D5",
          "midi": 74,
          "time": 175.58804800000024,
          "velocity": 0.7480314960629921,
          "duration": 0.8823519999999974
        },
        {
          "name": "F#4",
          "midi": 66,
          "time": 177.13216400000024,
          "velocity": 0.7480314960629921,
          "duration": 0.6617640000000051
        },
        {
          "name": "G4",
          "midi": 67,
          "time": 177.79392800000025,
          "velocity": 0.7480314960629921,
          "duration": 0.4411760000000129
        },
        {
          "name": "F#4",
          "midi": 66,
          "time": 178.23510400000026,
          "velocity": 0.7480314960629921,
          "duration": 4.411759999999987
        }
      ],
      "controlChanges": {
        "6": [
          {
            "number": 6,
            "time": 0,
            "value": 0.09448818897637795
          },
          {
            "number": 6,
            "time": 0,
            "value": 0.5039370078740157
          },
          {
            "number": 6,
            "time": 0,
            "value": 0.09448818897637795
          },
          {
            "number": 6,
            "time": 0,
            "value": 0.5039370078740157
          },
          {
            "number": 6,
            "time": 0,
            "value": 0.5039370078740157
          },
          {
            "number": 6,
            "time": 0,
            "value": 0.5039370078740157
          }
        ],
        "7": [
          {
            "number": 7,
            "time": 0,
            "value": 0.8188976377952756
          },
          {
            "number": 7,
            "time": 0,
            "value": 0.8188976377952756
          }
        ],
        "10": [
          {
            "number": 10,
            "time": 0,
            "value": 0.5039370078740157
          },
          {
            "number": 10,
            "time": 0,
            "value": 0.5039370078740157
          }
        ],
        "38": [
          {
            "number": 38,
            "time": 0,
            "value": 0
          },
          {
            "number": 38,
            "time": 0,
            "value": 0
          }
        ],
        "91": [
          {
            "number": 91,
            "time": 0,
            "value": 0
          },
          {
            "number": 91,
            "time": 0,
            "value": 0
          }
        ],
        "92": [
          {
            "number": 92,
            "time": 0,
            "value": 0
          },
          {
            "number": 92,
            "time": 0,
            "value": 0
          }
        ],
        "93": [
          {
            "number": 93,
            "time": 0,
            "value": 0
          },
          {
            "number": 93,
            "time": 0,
            "value": 0
          }
        ],
        "95": [
          {
            "number": 95,
            "time": 0,
            "value": 0
          },
          {
            "number": 95,
            "time": 0,
            "value": 0
          }
        ],
        "100": [
          {
            "number": 100,
            "time": 0,
            "value": 0
          },
          {
            "number": 100,
            "time": 0,
            "value": 0.007874015748031496
          },
          {
            "number": 100,
            "time": 0,
            "value": 1
          },
          {
            "number": 100,
            "time": 0,
            "value": 0
          },
          {
            "number": 100,
            "time": 0,
            "value": 0.007874015748031496
          },
          {
            "number": 100,
            "time": 0,
            "value": 1
          },
          {
            "number": 100,
            "time": 0,
            "value": 0.015748031496062992
          },
          {
            "number": 100,
            "time": 0,
            "value": 1
          },
          {
            "number": 100,
            "time": 0,
            "value": 0.015748031496062992
          },
          {
            "number": 100,
            "time": 0,
            "value": 1
          }
        ],
        "101": [
          {
            "number": 101,
            "time": 0,
            "value": 0
          },
          {
            "number": 101,
            "time": 0,
            "value": 0
          },
          {
            "number": 101,
            "time": 0,
            "value": 1
          },
          {
            "number": 101,
            "time": 0,
            "value": 0
          },
          {
            "number": 101,
            "time": 0,
            "value": 0
          },
          {
            "number": 101,
            "time": 0,
            "value": 1
          },
          {
            "number": 101,
            "time": 0,
            "value": 0
          },
          {
            "number": 101,
            "time": 0,
            "value": 1
          },
          {
            "number": 101,
            "time": 0,
            "value": 0
          },
          {
            "number": 101,
            "time": 0,
            "value": 1
          }
        ]
      }
    }
  ]
}
