{
  "header": {
    "PPQ": 256,
    "timeSignature": [
      4,
      4
    ],
    "bpm": 120,
    "name": "Still Alive"
  },
  "startTime": 0,
  "duration": 175,
  "tracks": [
    {
      "startTime": 0,
      "duration": 0,
      "length": 0,
      "id": 0,
      "name": "Still Alive"
    },
    {
      "startTime": 1,
      "duration": 175,
      "length": 422,
      "id": 1,
      "instrumentNumber": 0,
      "instrument": "acoustic grand piano",
      "instrumentFamily": "piano",
      "channelNumber": 0,
      "isPercussion": false,
      "notes": [
        {
          "name": "G4",
          "midi": 67,
          "time": 1,
          "velocity": 0.7874015748031497,
          "duration": 0.25
        },
        {
          "name": "F#4",
          "midi": 66,
          "time": 1.25,
          "velocity": 0.7874015748031497,
          "duration": 0.25
        },
        {
          "name": "E4",
          "midi": 64,
          "time": 1.5,
          "velocity": 0.7874015748031497,
          "duration": 0.25
        },
        {
          "name": "E4",
          "midi": 64,
          "time": 1.75,
          "velocity": 0.7874015748031497,
          "duration": 0.25
        },
        {
          "name": "F#4",
          "midi": 66,
          "time": 2,
          "velocity": 0.7874015748031497,
          "duration": 1
        },
        {
          "name": "A3",
          "midi": 57,
          "time": 4.75,
          "velocity": 0.7874015748031497,
          "duration": 0.25
        },
        {
          "name": "G4",
          "midi": 67,
          "time": 5,
          "velocity": 0.7874015748031497,
          "duration": 0.25
        },
        {
          "name": "F#4",
          "midi": 66,
          "time": 5.25,
          "velocity": 0.7874015748031497,
          "duration": 0.25
        },
        {
          "name": "E4",
          "midi": 64,
          "time": 5.5,
          "velocity": 0.7874015748031497,
          "duration": 0.25
        },
        {
          "name": "E4",
          "midi": 64,
          "time": 5.75,
          "velocity": 0.7874015748031497,
          "duration": 0.5
        },
        {
          "name": "F#4",
          "midi": 66,
          "time": 6.25,
          "velocity": 0.7874015748031497,
          "duration": 0.75
        },
        {
          "name": "D4",
          "midi": 62,
          "time": 7,
          "velocity": 0.7874015748031497,
          "duration": 0.5
        },
        {
          "name": "E4",
          "midi": 64,
          "time": 7.5,
          "velocity": 0.7874015748031497,
          "duration": 0.25
        },
        {
          "name": "A3",
          "midi": 57,
          "time": 7.75,
          "velocity": 0.7874015748031497,
          "duration": 1.75
        },
        {
          "name": "A3",
          "midi": 57,
          "time": 9.75,
          "velocity": 0.7874015748031497,
          "duration": 0.25
        },
        {
          "name": "E4",
          "midi": 64,
          "time": 10,
          "velocity": 0.7874015748031497,
          "duration": 0.5
        },
        {
          "name": "F#4",
          "midi": 66,
          "time": 10.5,
          "velocity": 0.7874015748031497,
          "duration": 0.25
        },
        {
          "name": "G4",
          "midi": 67,
          "time": 10.75,
          "velocity": 0.7874015748031497,
          "duration": 0.75
        },
        {
          "name": "E4",
          "midi": 64,
          "time": 11.5,
          "velocity": 0.7874015748031497,
          "duration": 0.25
        },
        {
          "name": "C#4",
          "midi": 61,
          "time": 11.75,
          "velocity": 0.7874015748031497,
          "duration": 0.5
        },
        {
          "name": "D4",
          "midi": 62,
          "time": 12.25,
          "velocity": 0.7874015748031497,
          "duration": 0.75
        },
        {
          "name": "E4",
          "midi": 64,
          "time": 13,
          "velocity": 0.7874015748031497,
          "duration": 0.5
        },
        {
          "name": "A3",
          "midi": 57,
          "time": 13.5,
          "velocity": 0.7874015748031497,
          "duration": 0.25
        },
        {
          "name": "A3",
          "midi": 57,
          "time": 13.75,
          "velocity": 0.7874015748031497,
          "duration": 0.5
        },
        {
          "name": "F#4",
          "midi": 66,
          "time": 14.25,
          "velocity": 0.7874015748031497,
          "duration": 1.75
        },
        {
          "name": "G4",
          "midi": 67,
          "time": 17,
          "velocity": 0.7874015748031497,
          "duration": 0.25
        },
        {
          "name": "F#4",
          "midi": 66,
          "time": 17.25,
          "velocity": 0.7874015748031497,
          "duration": 0.25
        },
        {
          "name": "E4",
          "midi": 64,
          "time": 17.5,
          "velocity": 0.7874015748031497,
          "duration": 0.25
        },
        {
          "name": "E4",
          "midi": 64,
          "time": 17.75,
          "velocity": 0.7874015748031497,
          "duration": 0.25
        },
        {
          "name": "F#4",
          "midi": 66,
          "time": 18,
          "velocity": 0.7874015748031497,
          "duration": 1
        },
        {
          "name": "A3",
          "midi": 57,
          "time": 20.75,
          "velocity": 0.7874015748031497,
          "duration": 0.25
        },
        {
          "name": "G4",
          "midi": 67,
          "time": 21,
          "velocity": 0.7874015748031497,
          "duration": 0.25
        },
        {
          "name": "F#4",
          "midi": 66,
          "time": 21.25,
          "velocity": 0.7874015748031497,
          "duration": 0.25
        },
        {
          "name": "E4",
          "midi": 64,
          "time": 21.5,
          "velocity": 0.7874015748031497,
          "duration": 0.25
        },
        {
          "name": "E4",
          "midi": 64,
          "time": 21.75,
          "velocity": 0.7874015748031497,
          "duration": 0.75
        },
        {
          "name": "F#4",
          "midi": 66,
          "time": 22.5,
          "velocity": 0.7874015748031497,
          "duration": 0.25
        },
        {
          "name": "D4",
          "midi": 62,
          "time": 22.75,
          "velocity": 0.7874015748031497,
          "duration": 0.75
        },
        {
          "name": "E4",
          "midi": 64,
          "time": 23.5,
          "velocity": 0.7874015748031497,
          "duration": 0.25
        },
        {
          "name": "A3",
          "midi": 57,
          "time": 23.75,
          "velocity": 0.7874015748031497,
          "duration": 1.25
        },
        {
          "name": "E4",
          "midi": 64,
          "time": 26,
          "velocity": 0.7874015748031497,
          "duration": 0.5
        },
        {
          "name": "F#4",
          "midi": 66,
          "time": 26.5,
          "velocity": 0.7874015748031497,
          "duration": 0.25
        },
        {
          "name": "G4",
          "midi": 67,
          "time": 26.75,
          "velocity": 0.7874015748031497,
          "duration": 0.75
        },
        {
          "name": "E4",
          "midi": 64,
          "time": 27.5,
          "velocity": 0.7874015748031497,
          "duration": 0.25
        },
        {
          "name": "C#4",
          "midi": 61,
          "time": 27.75,
          "velocity": 0.7874015748031497,
          "duration": 0.75
        },
        {
          "name": "D4",
          "midi": 62,
          "time": 28.5,
          "velocity": 0.7874015748031497,
          "duration": 0.25
        },
        {
          "name": "E4",
          "midi": 64,
          "time": 28.75,
          "velocity": 0.7874015748031497,
          "duration": 0.5
        },
        {
          "name": "A3",
          "midi": 57,
          "time": 29.25,
          "velocity": 0.7874015748031497,
          "duration": 0.25
        },
        {
          "name": "D4",
          "midi": 62,
          "time": 29.5,
          "velocity": 0.7874015748031497,
          "duration": 0.25
        },
        {
          "name": "E4",
          "midi": 64,
          "time": 29.75,
          "velocity": 0.7874015748031497,
          "duration": 0.25
        },
        {
          "name": "F4",
          "midi": 65,
          "time": 30,
          "velocity": 0.7874015748031497,
          "duration": 0.25
        },
        {
          "name": "E4",
          "midi": 64,
          "time": 30.25,
          "velocity": 0.7874015748031497,
          "duration": 0.25
        },
        {
          "name": "D4",
          "midi": 62,
          "time": 30.5,
          "velocity": 0.7874015748031497,
          "duration": 0.25
        },
        {
          "name": "C4",
          "midi": 60,
          "time": 30.75,
          "velocity": 0.7874015748031497,
          "duration": 0.25
        },
        {
          "name": "A3",
          "midi": 57,
          "time": 31.5,
          "velocity": 0.7874015748031497,
          "duration": 0.25
        },
        {
          "name": "A#3",
          "midi": 58,
          "time": 31.75,
          "velocity": 0.7874015748031497,
          "duration": 0.25
        },
        {
          "name": "C4",
          "midi": 60,
          "time": 32,
          "velocity": 0.7874015748031497,
          "duration": 0.5
        },
        {
          "name": "F4",
          "midi": 65,
          "time": 32.5,
          "velocity": 0.7874015748031497,
          "duration": 0.5
        },
        {
          "name": "E4",
          "midi": 64,
          "time": 33,
          "velocity": 0.7874015748031497,
          "duration": 0.25
        },
        {
          "name": "D4",
          "midi": 62,
          "time": 33.25,
          "velocity": 0.7874015748031497,
          "duration": 0.25
        },
        {
          "name": "D4",
          "midi": 62,
          "time": 33.5,
          "velocity": 0.7874015748031497,
          "duration": 0.25
        },
        {
          "name": "C4",
          "midi": 60,
          "time": 33.75,
          "velocity": 0.7874015748031497,
          "duration": 0.25
        },
        {
          "name": "D4",
          "midi": 62,
          "time": 34,
          "velocity": 0.7874015748031497,
          "duration": 0.25
        },
        {
          "name": "C4",
          "midi": 60,
          "time": 34.25,
          "velocity": 0.7874015748031497,
          "duration": 0.25
        },
        {
          "name": "C4",
          "midi": 60,
          "time": 34.5,
          "velocity": 0.7874015748031497,
          "duration": 0.5
        },
        {
          "name": "C4",
          "midi": 60,
          "time": 35,
          "velocity": 0.7874015748031497,
          "duration": 0.5
        },
        {
          "name": "A3",
          "midi": 57,
          "time": 35.5,
          "velocity": 0.7874015748031497,
          "duration": 0.25
        },
        {
          "name": "A#3",
          "midi": 58,
          "time": 35.75,
          "velocity": 0.7874015748031497,
          "duration": 0.25
        },
        {
          "name": "C4",
          "midi": 60,
          "time": 36,
          "velocity": 0.7874015748031497,
          "duration": 0.5
        },
        {
          "name": "F4",
          "midi": 65,
          "time": 36.5,
          "velocity": 0.7874015748031497,
          "duration": 0.5
        },
        {
          "name": "G4",
          "midi": 67,
          "time": 37,
          "velocity": 0.7874015748031497,
          "duration": 0.25
        },
        {
          "name": "F4",
          "midi": 65,
          "time": 37.25,
          "velocity": 0.7874015748031497,
          "duration": 0.25
        },
        {
          "name": "E4",
          "midi": 64,
          "time": 37.5,
          "velocity": 0.7874015748031497,
          "duration": 0.25
        },
        {
          "name": "D4",
          "midi": 62,
          "time": 37.75,
          "velocity": 0.7874015748031497,
          "duration": 0.25
        },
        {
          "name": "D4",
          "midi": 62,
          "time": 38,
          "velocity": 0.7874015748031497,
          "duration": 0.25
        },
        {
          "name": "E4",
          "midi": 64,
          "time": 38.25,
          "velocity": 0.7874015748031497,
          "duration": 0.25
        },
        {
          "name": "F4",
          "midi": 65,
          "time": 38.5,
          "velocity": 0.7874015748031497,
          "duration": 0.5
        },
        {
          "name": "F4",
          "midi": 65,
          "time": 39,
          "velocity": 0.7874015748031497,
          "duration": 0.5
        },
        {
          "name": "G4",
          "midi": 67,
          "time": 39.5,
          "velocity": 0.7874015748031497,
          "duration": 0.25
        },
        {
          "name": "A4",
          "midi": 69,
          "time": 39.75,
          "velocity": 0.7874015748031497,
          "duration": 0.25
        },
        {
          "name": "A#4",
          "midi": 70,
          "time": 40,
          "velocity": 0.7874015748031497,
          "duration": 0.25
        },
        {
          "name": "A#4",
          "midi": 70,
          "time": 40.25,
          "velocity": 0.7874015748031497,
          "duration": 0.25
        },
        {
          "name": "A4",
          "midi": 69,
          "time": 40.5,
          "velocity": 0.7874015748031497,
          "duration": 0.5
        },
        {
          "name": "G4",
          "midi": 67,
          "time": 41,
          "velocity": 0.7874015748031497,
          "duration": 0.5
        },
        {
          "name": "F4",
          "midi": 65,
          "time": 41.5,
          "velocity": 0.7874015748031497,
          "duration": 0.25
        },
        {
          "name": "G4",
          "midi": 67,
          "time": 41.75,
          "velocity": 0.7874015748031497,
          "duration": 0.25
        },
        {
          "name": "A4",
          "midi": 69,
          "time": 42,
          "velocity": 0.7874015748031497,
          "duration": 0.25
        },
        {
          "name": "A4",
          "midi": 69,
          "time": 42.25,
          "velocity": 0.7874015748031497,
          "duration": 0.25
        },
        {
          "name": "G4",
          "midi": 67,
          "time": 42.5,
          "velocity": 0.7874015748031497,
          "duration": 0.5
        },
        {
          "name": "F4",
          "midi": 65,
          "time": 43,
          "velocity": 0.7874015748031497,
          "duration": 0.5
        },
        {
          "name": "D4",
          "midi": 62,
          "time": 43.5,
          "velocity": 0.7874015748031497,
          "duration": 0.25
        },
        {
          "name": "C4",
          "midi": 60,
          "time": 43.75,
          "velocity": 0.7874015748031497,
          "duration": 0.25
        },
        {
          "name": "D4",
          "midi": 62,
          "time": 44,
          "velocity": 0.7874015748031497,
          "duration": 0.25
        },
        {
          "name": "F4",
          "midi": 65,
          "time": 44.25,
          "velocity": 0.7874015748031497,
          "duration": 0.25
        },
        {
          "name": "F4",
          "midi": 65,
          "time": 44.5,
          "velocity": 0.7874015748031497,
          "duration": 0.25
        },
        {
          "name": "E4",
          "midi": 64,
          "time": 44.75,
          "velocity": 0.7874015748031497,
          "duration": 0.5
        },
        {
          "name": "E4",
          "midi": 64,
          "time": 45.25,
          "velocity": 0.7874015748031497,
          "duration": 0.25
        },
        {
          "name": "F#4",
          "midi": 66,
          "time": 45.5,
          "velocity": 0.7874015748031497,
          "duration": 0.25
        },
        {
          "name": "F#4",
          "midi": 66,
          "time": 45.75,
          "velocity": 0.7874015748031497,
          "duration": 0.25
        },
        {
          "name": "A4",
          "midi": 69,
          "time": 46,
          "velocity": 0.6692913385826772,
          "duration": 0.25
        },
        {
          "name": "D5",
          "midi": 74,
          "time": 46.25,
          "velocity": 0.6692913385826772,
          "duration": 0.25
        },
        {
          "name": "F#5",
          "midi": 78,
          "time": 46.5,
          "velocity": 0.6692913385826772,
          "duration": 0.25
        },
        {
          "name": "D5",
          "midi": 74,
          "time": 46.75,
          "velocity": 0.5748031496062992,
          "duration": 0.25
        },
        {
          "name": "B4",
          "midi": 71,
          "time": 47,
          "velocity": 0.5590551181102362,
          "duration": 0.25
        },
        {
          "name": "D5",
          "midi": 74,
          "time": 47.25,
          "velocity": 0.6377952755905512,
          "duration": 0.25
        },
        {
          "name": "F#5",
          "midi": 78,
          "time": 47.5,
          "velocity": 0.6692913385826772,
          "duration": 0.25
        },
        {
          "name": "D5",
          "midi": 74,
          "time": 47.75,
          "velocity": 0.5196850393700787,
          "duration": 0.25
        },
        {
          "name": "A4",
          "midi": 69,
          "time": 48,
          "velocity": 0.48031496062992124,
          "duration": 0.25
        },
        {
          "name": "D5",
          "midi": 74,
          "time": 48.25,
          "velocity": 0.6377952755905512,
          "duration": 0.25
        },
        {
          "name": "F#5",
          "midi": 78,
          "time": 48.5,
          "velocity": 0.6614173228346457,
          "duration": 0.25
        },
        {
          "name": "D5",
          "midi": 74,
          "time": 48.75,
          "velocity": 0.5511811023622047,
          "duration": 0.25
        },
        {
          "name": "B4",
          "midi": 71,
          "time": 49,
          "velocity": 0.5039370078740157,
          "duration": 0.25
        },
        {
          "name": "D5",
          "midi": 74,
          "time": 49.25,
          "velocity": 0.6535433070866141,
          "duration": 0.25
        },
        {
          "name": "F#5",
          "midi": 78,
          "time": 49.5,
          "velocity": 0.6377952755905512,
          "duration": 0.25
        },
        {
          "name": "D5",
          "midi": 74,
          "time": 49.75,
          "velocity": 0.5275590551181102,
          "duration": 0.25
        },
        {
          "name": "A4",
          "midi": 69,
          "time": 50,
          "velocity": 0.5275590551181102,
          "duration": 0.25
        },
        {
          "name": "D5",
          "midi": 74,
          "time": 50.25,
          "velocity": 0.6614173228346457,
          "duration": 0.25
        },
        {
          "name": "F#5",
          "midi": 78,
          "time": 50.5,
          "velocity": 0.6377952755905512,
          "duration": 0.25
        },
        {
          "name": "D5",
          "midi": 74,
          "time": 50.75,
          "velocity": 0.5275590551181102,
          "duration": 0.25
        },
        {
          "name": "B4",
          "midi": 71,
          "time": 51,
          "velocity": 0.5275590551181102,
          "duration": 0.25
        },
        {
          "name": "D5",
          "midi": 74,
          "time": 51.25,
          "velocity": 0.6614173228346457,
          "duration": 0.25
        },
        {
          "name": "F#5",
          "midi": 78,
          "time": 51.5,
          "velocity": 0.6535433070866141,
          "duration": 0.25
        },
        {
          "name": "D5",
          "midi": 74,
          "time": 51.75,
          "velocity": 0.49606299212598426,
          "duration": 0.25
        },
        {
          "name": "A3",
          "midi": 57,
          "time": 52.75,
          "velocity": 0.7874015748031497,
          "duration": 0.25
        },
        {
          "name": "G4",
          "midi": 67,
          "time": 53,
          "velocity": 0.7874015748031497,
          "duration": 0.25
        },
        {
          "name": "F#4",
          "midi": 66,
          "time": 53.25,
          "velocity": 0.7874015748031497,
          "duration": 0.25
        },
        {
          "name": "E4",
          "midi": 64,
          "time": 53.5,
          "velocity": 0.7874015748031497,
          "duration": 0.25
        },
        {
          "name": "E4",
          "midi": 64,
          "time": 53.75,
          "velocity": 0.7874015748031497,
          "duration": 0.375
        },
        {
          "name": "F#4",
          "midi": 66,
          "time": 54.125,
          "velocity": 0.7874015748031497,
          "duration": 0.875
        },
        {
          "name": "A3",
          "midi": 57,
          "time": 56.75,
          "velocity": 0.7874015748031497,
          "duration": 0.25
        },
        {
          "name": "G4",
          "midi": 67,
          "time": 57,
          "velocity": 0.7874015748031497,
          "duration": 0.25
        },
        {
          "name": "F#4",
          "midi": 66,
          "time": 57.25,
          "velocity": 0.7874015748031497,
          "duration": 0.25
        },
        {
          "name": "E4",
          "midi": 64,
          "time": 57.5,
          "velocity": 0.7874015748031497,
          "duration": 0.25
        },
        {
          "name": "E4",
          "midi": 64,
          "time": 57.75,
          "velocity": 0.7874015748031497,
          "duration": 0.75
        },
        {
          "name": "F#4",
          "midi": 66,
          "time": 58.5,
          "velocity": 0.7874015748031497,
          "duration": 0.25
        },
        {
          "name": "D4",
          "midi": 62,
          "time": 58.75,
          "velocity": 0.7874015748031497,
          "duration": 0.5
        },
        {
          "name": "E4",
          "midi": 64,
          "time": 59.25,
          "velocity": 0.7874015748031497,
          "duration": 0.5
        },
        {
          "name": "A3",
          "midi": 57,
          "time": 59.75,
          "velocity": 0.7874015748031497,
          "duration": 1.25
        },
        {
          "name": "E4",
          "midi": 64,
          "time": 62,
          "velocity": 0.7874015748031497,
          "duration": 0.5
        },
        {
          "name": "F#4",
          "midi": 66,
          "time": 62.5,
          "velocity": 0.7874015748031497,
          "duration": 0.25
        },
        {
          "name": "G4",
          "midi": 67,
          "time": 62.75,
          "velocity": 0.7874015748031497,
          "duration": 0.75
        },
        {
          "name": "E4",
          "midi": 64,
          "time": 63.5,
          "velocity": 0.7874015748031497,
          "duration": 0.5
        },
        {
          "name": "C#4",
          "midi": 61,
          "time": 64,
          "velocity": 0.7874015748031497,
          "duration": 0.5
        },
        {
          "name": "D4",
          "midi": 62,
          "time": 64.5,
          "velocity": 0.7874015748031497,
          "duration": 0.25
        },
        {
          "name": "E4",
          "midi": 64,
          "time": 64.75,
          "velocity": 0.7874015748031497,
          "duration": 0.75
        },
        {
          "name": "A3",
          "midi": 57,
          "time": 65.5,
          "velocity": 0.7874015748031497,
          "duration": 0.25
        },
        {
          "name": "A3",
          "midi": 57,
          "time": 65.75,
          "velocity": 0.7874015748031497,
          "duration": 0.5
        },
        {
          "name": "F#4",
          "midi": 66,
          "time": 66.25,
          "velocity": 0.7874015748031497,
          "duration": 1.25
        },
        {
          "name": "A3",
          "midi": 57,
          "time": 68.75,
          "velocity": 0.7874015748031497,
          "duration": 0.25
        },
        {
          "name": "G4",
          "midi": 67,
          "time": 69,
          "velocity": 0.7874015748031497,
          "duration": 0.25
        },
        {
          "name": "B4",
          "midi": 71,
          "time": 69,
          "velocity": 0.7874015748031497,
          "duration": 0.25
        },
        {
          "name": "F#4",
          "midi": 66,
          "time": 69.25,
          "velocity": 0.7874015748031497,
          "duration": 0.25
        },
        {
          "name": "A4",
          "midi": 69,
          "time": 69.25,
          "velocity": 0.7874015748031497,
          "duration": 0.25
        },
        {
          "name": "E4",
          "midi": 64,
          "time": 69.5,
          "velocity": 0.7874015748031497,
          "duration": 0.25
        },
        {
          "name": "G4",
          "midi": 67,
          "time": 69.5,
          "velocity": 0.7874015748031497,
          "duration": 0.25
        },
        {
          "name": "E4",
          "midi": 64,
          "time": 69.75,
          "velocity": 0.7874015748031497,
          "duration": 0.25
        },
        {
          "name": "G4",
          "midi": 67,
          "time": 69.75,
          "velocity": 0.7874015748031497,
          "duration": 0.25
        },
        {
          "name": "F#4",
          "midi": 66,
          "time": 70,
          "velocity": 0.7874015748031497,
          "duration": 0.5
        },
        {
          "name": "A4",
          "midi": 69,
          "time": 70,
          "velocity": 0.7874015748031497,
          "duration": 0.5
        },
        {
          "name": "A3",
          "midi": 57,
          "time": 72.75,
          "velocity": 0.7874015748031497,
          "duration": 0.25
        },
        {
          "name": "G4",
          "midi": 67,
          "time": 73,
          "velocity": 0.7874015748031497,
          "duration": 0.25
        },
        {
          "name": "B4",
          "midi": 71,
          "time": 73,
          "velocity": 0.7874015748031497,
          "duration": 0.25
        },
        {
          "name": "F#4",
          "midi": 66,
          "time": 73.25,
          "velocity": 0.7874015748031497,
          "duration": 0.25
        },
        {
          "name": "A4",
          "midi": 69,
          "time": 73.25,
          "velocity": 0.7874015748031497,
          "duration": 0.25
        },
        {
          "name": "E4",
          "midi": 64,
          "time": 73.5,
          "velocity": 0.7874015748031497,
          "duration": 0.25
        },
        {
          "name": "G4",
          "midi": 67,
          "time": 73.5,
          "velocity": 0.7874015748031497,
          "duration": 0.25
        },
        {
          "name": "E4",
          "midi": 64,
          "time": 73.75,
          "velocity": 0.7874015748031497,
          "duration": 0.75
        },
        {
          "name": "G4",
          "midi": 67,
          "time": 73.75,
          "velocity": 0.7874015748031497,
          "duration": 0.75
        },
        {
          "name": "F#4",
          "midi": 66,
          "time": 74.5,
          "velocity": 0.7874015748031497,
          "duration": 0.25
        },
        {
          "name": "A4",
          "midi": 69,
          "time": 74.5,
          "velocity": 0.7874015748031497,
          "duration": 0.25
        },
        {
          "name": "D4",
          "midi": 62,
          "time": 74.75,
          "velocity": 0.7874015748031497,
          "duration": 0.75
        },
        {
          "name": "F#4",
          "midi": 66,
          "time": 74.75,
          "velocity": 0.7874015748031497,
          "duration": 0.75
        },
        {
          "name": "E4",
          "midi": 64,
          "time": 75.5,
          "velocity": 0.7874015748031497,
          "duration": 0.25
        },
        {
          "name": "G4",
          "midi": 67,
          "time": 75.5,
          "velocity": 0.7874015748031497,
          "duration": 0.25
        },
        {
          "name": "A3",
          "midi": 57,
          "time": 75.75,
          "velocity": 0.7874015748031497,
          "duration": 1.25
        },
        {
          "name": "D4",
          "midi": 62,
          "time": 75.75,
          "velocity": 0.7874015748031497,
          "duration": 1.25
        },
        {
          "name": "E4",
          "midi": 64,
          "time": 78,
          "velocity": 0.7874015748031497,
          "duration": 0.5
        },
        {
          "name": "F#4",
          "midi": 66,
          "time": 78.5,
          "velocity": 0.7874015748031497,
          "duration": 0.25
        },
        {
          "name": "G4",
          "midi": 67,
          "time": 78.75,
          "velocity": 0.7874015748031497,
          "duration": 0.75
        },
        {
          "name": "E4",
          "midi": 64,
          "time": 79.5,
          "velocity": 0.7874015748031497,
          "duration": 0.5
        },
        {
          "name": "C#4",
          "midi": 61,
          "time": 80,
          "velocity": 0.7874015748031497,
          "duration": 0.5
        },
        {
          "name": "D4",
          "midi": 62,
          "time": 80.5,
          "velocity": 0.7874015748031497,
          "duration": 0.25
        },
        {
          "name": "E4",
          "midi": 64,
          "time": 80.75,
          "velocity": 0.7874015748031497,
          "duration": 0.5
        },
        {
          "name": "A3",
          "midi": 57,
          "time": 81.25,
          "velocity": 0.7874015748031497,
          "duration": 0.25
        },
        {
          "name": "D4",
          "midi": 62,
          "time": 81.5,
          "velocity": 0.7874015748031497,
          "duration": 0.25
        },
        {
          "name": "E4",
          "midi": 64,
          "time": 81.75,
          "velocity": 0.7874015748031497,
          "duration": 0.25
        },
        {
          "name": "F4",
          "midi": 65,
          "time": 82,
          "velocity": 0.7874015748031497,
          "duration": 0.25
        },
        {
          "name": "E4",
          "midi": 64,
          "time": 82.25,
          "velocity": 0.7874015748031497,
          "duration": 0.25
        },
        {
          "name": "D4",
          "midi": 62,
          "time": 82.5,
          "velocity": 0.7874015748031497,
          "duration": 0.25
        },
        {
          "name": "C4",
          "midi": 60,
          "time": 82.75,
          "velocity": 0.7874015748031497,
          "duration": 0.75
        },
        {
          "name": "A3",
          "midi": 57,
          "time": 83.5,
          "velocity": 0.7874015748031497,
          "duration": 0.25
        },
        {
          "name": "A#3",
          "midi": 58,
          "time": 83.75,
          "velocity": 0.7874015748031497,
          "duration": 0.25
        },
        {
          "name": "C4",
          "midi": 60,
          "time": 84,
          "velocity": 0.7874015748031497,
          "duration": 0.5
        },
        {
          "name": "F4",
          "midi": 65,
          "time": 84.5,
          "velocity": 0.7874015748031497,
          "duration": 0.5
        },
        {
          "name": "E4",
          "midi": 64,
          "time": 85,
          "velocity": 0.7874015748031497,
          "duration": 0.25
        },
        {
          "name": "D4",
          "midi": 62,
          "time": 85.25,
          "velocity": 0.7874015748031497,
          "duration": 0.25
        },
        {
          "name": "D4",
          "midi": 62,
          "time": 85.5,
          "velocity": 0.7874015748031497,
          "duration": 0.25
        },
        {
          "name": "C4",
          "midi": 60,
          "time": 85.75,
          "velocity": 0.7874015748031497,
          "duration": 0.25
        },
        {
          "name": "D4",
          "midi": 62,
          "time": 86,
          "velocity": 0.7874015748031497,
          "duration": 0.25
        },
        {
          "name": "C4",
          "midi": 60,
          "time": 86.25,
          "velocity": 0.7874015748031497,
          "duration": 0.25
        },
        {
          "name": "C4",
          "midi": 60,
          "time": 86.5,
          "velocity": 0.7874015748031497,
          "duration": 0.5
        },
        {
          "name": "C4",
          "midi": 60,
          "time": 87,
          "velocity": 0.7874015748031497,
          "duration": 0.5
        },
        {
          "name": "A3",
          "midi": 57,
          "time": 87.5,
          "velocity": 0.7874015748031497,
          "duration": 0.25
        },
        {
          "name": "A#3",
          "midi": 58,
          "time": 87.75,
          "velocity": 0.7874015748031497,
          "duration": 0.25
        },
        {
          "name": "C4",
          "midi": 60,
          "time": 88,
          "velocity": 0.7874015748031497,
          "duration": 0.5
        },
        {
          "name": "F4",
          "midi": 65,
          "time": 88.5,
          "velocity": 0.7874015748031497,
          "duration": 0.5
        },
        {
          "name": "G4",
          "midi": 67,
          "time": 89,
          "velocity": 0.7874015748031497,
          "duration": 0.25
        },
        {
          "name": "F4",
          "midi": 65,
          "time": 89.25,
          "velocity": 0.7874015748031497,
          "duration": 0.25
        },
        {
          "name": "E4",
          "midi": 64,
          "time": 89.5,
          "velocity": 0.7874015748031497,
          "duration": 0.25
        },
        {
          "name": "D4",
          "midi": 62,
          "time": 89.75,
          "velocity": 0.7874015748031497,
          "duration": 0.25
        },
        {
          "name": "D4",
          "midi": 62,
          "time": 90,
          "velocity": 0.7874015748031497,
          "duration": 0.25
        },
        {
          "name": "E4",
          "midi": 64,
          "time": 90.25,
          "velocity": 0.7874015748031497,
          "duration": 0.25
        },
        {
          "name": "F4",
          "midi": 65,
          "time": 90.5,
          "velocity": 0.7874015748031497,
          "duration": 0.5
        },
        {
          "name": "F4",
          "midi": 65,
          "time": 91,
          "velocity": 0.7874015748031497,
          "duration": 0.5
        },
        {
          "name": "G4",
          "midi": 67,
          "time": 91.5,
          "velocity": 0.7874015748031497,
          "duration": 0.25
        },
        {
          "name": "A4",
          "midi": 69,
          "time": 91.75,
          "velocity": 0.7874015748031497,
          "duration": 0.25
        },
        {
          "name": "A#4",
          "midi": 70,
          "time": 92,
          "velocity": 0.7874015748031497,
          "duration": 0.25
        },
        {
          "name": "A#4",
          "midi": 70,
          "time": 92.25,
          "velocity": 0.7874015748031497,
          "duration": 0.25
        },
        {
          "name": "A4",
          "midi": 69,
          "time": 92.5,
          "velocity": 0.7874015748031497,
          "duration": 0.25
        },
        {
          "name": "A4",
          "midi": 69,
          "time": 92.75,
          "velocity": 0.7874015748031497,
          "duration": 0.25
        },
        {
          "name": "G4",
          "midi": 67,
          "time": 93,
          "velocity": 0.7874015748031497,
          "duration": 0.5
        },
        {
          "name": "F4",
          "midi": 65,
          "time": 93.5,
          "velocity": 0.7874015748031497,
          "duration": 0.25
        },
        {
          "name": "G4",
          "midi": 67,
          "time": 93.75,
          "velocity": 0.7874015748031497,
          "duration": 0.25
        },
        {
          "name": "A4",
          "midi": 69,
          "time": 94,
          "velocity": 0.7874015748031497,
          "duration": 0.25
        },
        {
          "name": "A4",
          "midi": 69,
          "time": 94.25,
          "velocity": 0.7874015748031497,
          "duration": 0.25
        },
        {
          "name": "G4",
          "midi": 67,
          "time": 94.5,
          "velocity": 0.7874015748031497,
          "duration": 0.25
        },
        {
          "name": "F4",
          "midi": 65,
          "time": 94.75,
          "velocity": 0.7874015748031497,
          "duration": 0.25
        },
        {
          "name": "F4",
          "midi": 65,
          "time": 95,
          "velocity": 0.7874015748031497,
          "duration": 0.5
        },
        {
          "name": "D4",
          "midi": 62,
          "time": 95.5,
          "velocity": 0.7874015748031497,
          "duration": 0.25
        },
        {
          "name": "C4",
          "midi": 60,
          "time": 95.75,
          "velocity": 0.7874015748031497,
          "duration": 0.25
        },
        {
          "name": "D4",
          "midi": 62,
          "time": 96,
          "velocity": 0.7874015748031497,
          "duration": 0.25
        },
        {
          "name": "F4",
          "midi": 65,
          "time": 96.25,
          "velocity": 0.7874015748031497,
          "duration": 0.25
        },
        {
          "name": "F4",
          "midi": 65,
          "time": 96.5,
          "velocity": 0.7874015748031497,
          "duration": 0.25
        },
        {
          "name": "E4",
          "midi": 64,
          "time": 96.75,
          "velocity": 0.7874015748031497,
          "duration": 0.5
        },
        {
          "name": "E4",
          "midi": 64,
          "time": 97.25,
          "velocity": 0.7874015748031497,
          "duration": 0.25
        },
        {
          "name": "F#4",
          "midi": 66,
          "time": 97.5,
          "velocity": 0.7874015748031497,
          "duration": 0.25
        },
        {
          "name": "F#4",
          "midi": 66,
          "time": 97.75,
          "velocity": 0.7874015748031497,
          "duration": 1.25
        },
        {
          "name": "A3",
          "midi": 57,
          "time": 104.75,
          "velocity": 0.7874015748031497,
          "duration": 0.25
        },
        {
          "name": "G4",
          "midi": 67,
          "time": 105,
          "velocity": 0.7874015748031497,
          "duration": 0.25
        },
        {
          "name": "F#4",
          "midi": 66,
          "time": 105.25,
          "velocity": 0.7874015748031497,
          "duration": 0.25
        },
        {
          "name": "E4",
          "midi": 64,
          "time": 105.5,
          "velocity": 0.7874015748031497,
          "duration": 0.25
        },
        {
          "name": "E4",
          "midi": 64,
          "time": 105.75,
          "velocity": 0.7874015748031497,
          "duration": 0.375
        },
        {
          "name": "F#4",
          "midi": 66,
          "time": 106.125,
          "velocity": 0.7874015748031497,
          "duration": 0.875
        },
        {
          "name": "A3",
          "midi": 57,
          "time": 108.75,
          "velocity": 0.7874015748031497,
          "duration": 0.25
        },
        {
          "name": "G4",
          "midi": 67,
          "time": 109,
          "velocity": 0.7874015748031497,
          "duration": 0.25
        },
        {
          "name": "F#4",
          "midi": 66,
          "time": 109.25,
          "velocity": 0.7874015748031497,
          "duration": 0.25
        },
        {
          "name": "E4",
          "midi": 64,
          "time": 109.5,
          "velocity": 0.7874015748031497,
          "duration": 0.25
        },
        {
          "name": "E4",
          "midi": 64,
          "time": 109.75,
          "velocity": 0.7874015748031497,
          "duration": 0.75
        },
        {
          "name": "F#4",
          "midi": 66,
          "time": 110.5,
          "velocity": 0.7874015748031497,
          "duration": 0.25
        },
        {
          "name": "D4",
          "midi": 62,
          "time": 110.75,
          "velocity": 0.7874015748031497,
          "duration": 0.5
        },
        {
          "name": "E4",
          "midi": 64,
          "time": 111.25,
          "velocity": 0.7874015748031497,
          "duration": 0.5
        },
        {
          "name": "A3",
          "midi": 57,
          "time": 111.75,
          "velocity": 0.7874015748031497,
          "duration": 1.25
        },
        {
          "name": "E4",
          "midi": 64,
          "time": 114,
          "velocity": 0.7874015748031497,
          "duration": 0.5
        },
        {
          "name": "F#4",
          "midi": 66,
          "time": 114.5,
          "velocity": 0.7874015748031497,
          "duration": 0.25
        },
        {
          "name": "G4",
          "midi": 67,
          "time": 114.75,
          "velocity": 0.7874015748031497,
          "duration": 0.75
        },
        {
          "name": "E4",
          "midi": 64,
          "time": 115.5,
          "velocity": 0.7874015748031497,
          "duration": 0.5
        },
        {
          "name": "C#4",
          "midi": 61,
          "time": 116,
          "velocity": 0.7874015748031497,
          "duration": 0.5
        },
        {
          "name": "D4",
          "midi": 62,
          "time": 116.5,
          "velocity": 0.7874015748031497,
          "duration": 0.25
        },
        {
          "name": "E4",
          "midi": 64,
          "time": 116.75,
          "velocity": 0.7874015748031497,
          "duration": 0.75
        },
        {
          "name": "A3",
          "midi": 57,
          "time": 117.5,
          "velocity": 0.7874015748031497,
          "duration": 0.25
        },
        {
          "name": "A3",
          "midi": 57,
          "time": 117.75,
          "velocity": 0.7874015748031497,
          "duration": 0.5
        },
        {
          "name": "F#4",
          "midi": 66,
          "time": 118.25,
          "velocity": 0.7874015748031497,
          "duration": 1.25
        },
        {
          "name": "A3",
          "midi": 57,
          "time": 120.75,
          "velocity": 0.7874015748031497,
          "duration": 0.25
        },
        {
          "name": "G4",
          "midi": 67,
          "time": 121,
          "velocity": 0.7874015748031497,
          "duration": 0.25
        },
        {
          "name": "B4",
          "midi": 71,
          "time": 121,
          "velocity": 0.7874015748031497,
          "duration": 0.25
        },
        {
          "name": "F#4",
          "midi": 66,
          "time": 121.25,
          "velocity": 0.7874015748031497,
          "duration": 0.25
        },
        {
          "name": "A4",
          "midi": 69,
          "time": 121.25,
          "velocity": 0.7874015748031497,
          "duration": 0.25
        },
        {
          "name": "E4",
          "midi": 64,
          "time": 121.5,
          "velocity": 0.7874015748031497,
          "duration": 0.25
        },
        {
          "name": "G4",
          "midi": 67,
          "time": 121.5,
          "velocity": 0.7874015748031497,
          "duration": 0.25
        },
        {
          "name": "E4",
          "midi": 64,
          "time": 121.75,
          "velocity": 0.7874015748031497,
          "duration": 0.25
        },
        {
          "name": "G4",
          "midi": 67,
          "time": 121.75,
          "velocity": 0.7874015748031497,
          "duration": 0.25
        },
        {
          "name": "F#4",
          "midi": 66,
          "time": 122,
          "velocity": 0.7874015748031497,
          "duration": 0.5
        },
        {
          "name": "A4",
          "midi": 69,
          "time": 122,
          "velocity": 0.7874015748031497,
          "duration": 0.5
        },
        {
          "name": "A3",
          "midi": 57,
          "time": 124.75,
          "velocity": 0.7874015748031497,
          "duration": 0.25
        },
        {
          "name": "G4",
          "midi": 67,
          "time": 125,
          "velocity": 0.7874015748031497,
          "duration": 0.25
        },
        {
          "name": "B4",
          "midi": 71,
          "time": 125,
          "velocity": 0.7874015748031497,
          "duration": 0.25
        },
        {
          "name": "F#4",
          "midi": 66,
          "time": 125.25,
          "velocity": 0.7874015748031497,
          "duration": 0.25
        },
        {
          "name": "A4",
          "midi": 69,
          "time": 125.25,
          "velocity": 0.7874015748031497,
          "duration": 0.25
        },
        {
          "name": "E4",
          "midi": 64,
          "time": 125.5,
          "velocity": 0.7874015748031497,
          "duration": 0.25
        },
        {
          "name": "G4",
          "midi": 67,
          "time": 125.5,
          "velocity": 0.7874015748031497,
          "duration": 0.25
        },
        {
          "name": "E4",
          "midi": 64,
          "time": 125.75,
          "velocity": 0.7874015748031497,
          "duration": 0.75
        },
        {
          "name": "G4",
          "midi": 67,
          "time": 125.75,
          "velocity": 0.7874015748031497,
          "duration": 0.75
        },
        {
          "name": "F#4",
          "midi": 66,
          "time": 126.5,
          "velocity": 0.7874015748031497,
          "duration": 0.25
        },
        {
          "name": "A4",
          "midi": 69,
          "time": 126.5,
          "velocity": 0.7874015748031497,
          "duration": 0.25
        },
        {
          "name": "D4",
          "midi": 62,
          "time": 126.75,
          "velocity": 0.7874015748031497,
          "duration": 0.75
        },
        {
          "name": "F#4",
          "midi": 66,
          "time": 126.75,
          "velocity": 0.7874015748031497,
          "duration": 0.75
        },
        {
          "name": "E4",
          "midi": 64,
          "time": 127.5,
          "velocity": 0.7874015748031497,
          "duration": 0.25
        },
        {
          "name": "G4",
          "midi": 67,
          "time": 127.5,
          "velocity": 0.7874015748031497,
          "duration": 0.25
        },
        {
          "name": "A3",
          "midi": 57,
          "time": 127.75,
          "velocity": 0.7874015748031497,
          "duration": 1.25
        },
        {
          "name": "D4",
          "midi": 62,
          "time": 127.75,
          "velocity": 0.7874015748031497,
          "duration": 1.25
        },
        {
          "name": "E4",
          "midi": 64,
          "time": 130,
          "velocity": 0.7874015748031497,
          "duration": 0.5
        },
        {
          "name": "F#4",
          "midi": 66,
          "time": 130.5,
          "velocity": 0.7874015748031497,
          "duration": 0.25
        },
        {
          "name": "G4",
          "midi": 67,
          "time": 130.75,
          "velocity": 0.7874015748031497,
          "duration": 0.75
        },
        {
          "name": "E4",
          "midi": 64,
          "time": 131.5,
          "velocity": 0.7874015748031497,
          "duration": 0.5
        },
        {
          "name": "C#4",
          "midi": 61,
          "time": 132,
          "velocity": 0.7874015748031497,
          "duration": 0.5
        },
        {
          "name": "D4",
          "midi": 62,
          "time": 132.5,
          "velocity": 0.7874015748031497,
          "duration": 0.25
        },
        {
          "name": "E4",
          "midi": 64,
          "time": 132.75,
          "velocity": 0.7874015748031497,
          "duration": 0.5
        },
        {
          "name": "A3",
          "midi": 57,
          "time": 133.25,
          "velocity": 0.7874015748031497,
          "duration": 0.25
        },
        {
          "name": "D4",
          "midi": 62,
          "time": 133.5,
          "velocity": 0.7874015748031497,
          "duration": 0.25
        },
        {
          "name": "E4",
          "midi": 64,
          "time": 133.75,
          "velocity": 0.7874015748031497,
          "duration": 0.25
        },
        {
          "name": "F4",
          "midi": 65,
          "time": 134,
          "velocity": 0.7874015748031497,
          "duration": 0.25
        },
        {
          "name": "E4",
          "midi": 64,
          "time": 134.25,
          "velocity": 0.7874015748031497,
          "duration": 0.25
        },
        {
          "name": "D4",
          "midi": 62,
          "time": 134.5,
          "velocity": 0.7874015748031497,
          "duration": 0.25
        },
        {
          "name": "C4",
          "midi": 60,
          "time": 134.75,
          "velocity": 0.7874015748031497,
          "duration": 0.75
        },
        {
          "name": "A3",
          "midi": 57,
          "time": 135.5,
          "velocity": 0.7874015748031497,
          "duration": 0.25
        },
        {
          "name": "A#3",
          "midi": 58,
          "time": 135.75,
          "velocity": 0.7874015748031497,
          "duration": 0.25
        },
        {
          "name": "C4",
          "midi": 60,
          "time": 136,
          "velocity": 0.7874015748031497,
          "duration": 0.5
        },
        {
          "name": "F4",
          "midi": 65,
          "time": 136.5,
          "velocity": 0.7874015748031497,
          "duration": 0.5
        },
        {
          "name": "E4",
          "midi": 64,
          "time": 137,
          "velocity": 0.7874015748031497,
          "duration": 0.25
        },
        {
          "name": "D4",
          "midi": 62,
          "time": 137.25,
          "velocity": 0.7874015748031497,
          "duration": 0.25
        },
        {
          "name": "D4",
          "midi": 62,
          "time": 137.5,
          "velocity": 0.7874015748031497,
          "duration": 0.25
        },
        {
          "name": "C4",
          "midi": 60,
          "time": 137.75,
          "velocity": 0.7874015748031497,
          "duration": 0.25
        },
        {
          "name": "D4",
          "midi": 62,
          "time": 138,
          "velocity": 0.7874015748031497,
          "duration": 0.25
        },
        {
          "name": "C4",
          "midi": 60,
          "time": 138.25,
          "velocity": 0.7874015748031497,
          "duration": 0.25
        },
        {
          "name": "C4",
          "midi": 60,
          "time": 138.5,
          "velocity": 0.7874015748031497,
          "duration": 0.5
        },
        {
          "name": "C4",
          "midi": 60,
          "time": 139,
          "velocity": 0.7874015748031497,
          "duration": 0.5
        },
        {
          "name": "A3",
          "midi": 57,
          "time": 139.5,
          "velocity": 0.7874015748031497,
          "duration": 0.25
        },
        {
          "name": "A#3",
          "midi": 58,
          "time": 139.75,
          "velocity": 0.7874015748031497,
          "duration": 0.25
        },
        {
          "name": "C4",
          "midi": 60,
          "time": 140,
          "velocity": 0.7874015748031497,
          "duration": 0.5
        },
        {
          "name": "F4",
          "midi": 65,
          "time": 140.5,
          "velocity": 0.7874015748031497,
          "duration": 0.5
        },
        {
          "name": "G4",
          "midi": 67,
          "time": 141,
          "velocity": 0.7874015748031497,
          "duration": 0.25
        },
        {
          "name": "F4",
          "midi": 65,
          "time": 141.25,
          "velocity": 0.7874015748031497,
          "duration": 0.25
        },
        {
          "name": "E4",
          "midi": 64,
          "time": 141.5,
          "velocity": 0.7874015748031497,
          "duration": 0.25
        },
        {
          "name": "D4",
          "midi": 62,
          "time": 141.75,
          "velocity": 0.7874015748031497,
          "duration": 0.25
        },
        {
          "name": "D4",
          "midi": 62,
          "time": 142,
          "velocity": 0.7874015748031497,
          "duration": 0.25
        },
        {
          "name": "E4",
          "midi": 64,
          "time": 142.25,
          "velocity": 0.7874015748031497,
          "duration": 0.25
        },
        {
          "name": "F4",
          "midi": 65,
          "time": 142.5,
          "velocity": 0.7874015748031497,
          "duration": 0.5
        },
        {
          "name": "F4",
          "midi": 65,
          "time": 143,
          "velocity": 0.7874015748031497,
          "duration": 0.5
        },
        {
          "name": "G4",
          "midi": 67,
          "time": 143.5,
          "velocity": 0.7874015748031497,
          "duration": 0.25
        },
        {
          "name": "A4",
          "midi": 69,
          "time": 143.75,
          "velocity": 0.7874015748031497,
          "duration": 0.25
        },
        {
          "name": "A#4",
          "midi": 70,
          "time": 144,
          "velocity": 0.7874015748031497,
          "duration": 0.25
        },
        {
          "name": "A#4",
          "midi": 70,
          "time": 144.25,
          "velocity": 0.7874015748031497,
          "duration": 0.25
        },
        {
          "name": "A4",
          "midi": 69,
          "time": 144.5,
          "velocity": 0.7874015748031497,
          "duration": 0.25
        },
        {
          "name": "A4",
          "midi": 69,
          "time": 144.75,
          "velocity": 0.7874015748031497,
          "duration": 0.25
        },
        {
          "name": "G4",
          "midi": 67,
          "time": 145,
          "velocity": 0.7874015748031497,
          "duration": 0.5
        },
        {
          "name": "F4",
          "midi": 65,
          "time": 145.5,
          "velocity": 0.7874015748031497,
          "duration": 0.25
        },
        {
          "name": "G4",
          "midi": 67,
          "time": 145.75,
          "velocity": 0.7874015748031497,
          "duration": 0.25
        },
        {
          "name": "A4",
          "midi": 69,
          "time": 146,
          "velocity": 0.7874015748031497,
          "duration": 0.25
        },
        {
          "name": "A4",
          "midi": 69,
          "time": 146.25,
          "velocity": 0.7874015748031497,
          "duration": 0.25
        },
        {
          "name": "G4",
          "midi": 67,
          "time": 146.5,
          "velocity": 0.7874015748031497,
          "duration": 0.25
        },
        {
          "name": "F4",
          "midi": 65,
          "time": 146.75,
          "velocity": 0.7874015748031497,
          "duration": 0.25
        },
        {
          "name": "F4",
          "midi": 65,
          "time": 147,
          "velocity": 0.7874015748031497,
          "duration": 0.5
        },
        {
          "name": "D4",
          "midi": 62,
          "time": 147.5,
          "velocity": 0.7874015748031497,
          "duration": 0.25
        },
        {
          "name": "C4",
          "midi": 60,
          "time": 147.75,
          "velocity": 0.7874015748031497,
          "duration": 0.25
        },
        {
          "name": "D4",
          "midi": 62,
          "time": 148,
          "velocity": 0.7874015748031497,
          "duration": 0.25
        },
        {
          "name": "F4",
          "midi": 65,
          "time": 148.25,
          "velocity": 0.7874015748031497,
          "duration": 0.25
        },
        {
          "name": "F4",
          "midi": 65,
          "time": 148.5,
          "velocity": 0.7874015748031497,
          "duration": 0.25
        },
        {
          "name": "E4",
          "midi": 64,
          "time": 148.75,
          "velocity": 0.7874015748031497,
          "duration": 0.5
        },
        {
          "name": "E4",
          "midi": 64,
          "time": 149.25,
          "velocity": 0.7874015748031497,
          "duration": 0.25
        },
        {
          "name": "F#4",
          "midi": 66,
          "time": 149.5,
          "velocity": 0.7874015748031497,
          "duration": 0.25
        },
        {
          "name": "F#4",
          "midi": 66,
          "time": 149.75,
          "velocity": 0.7874015748031497,
          "duration": 1.25
        },
        {
          "name": "A4",
          "midi": 69,
          "time": 150,
          "velocity": 0.7874015748031497,
          "duration": 1
        },
        {
          "name": "A4",
          "midi": 69,
          "time": 151.25,
          "velocity": 0.7874015748031497,
          "duration": 0.25
        },
        {
          "name": "A4",
          "midi": 69,
          "time": 151.5,
          "velocity": 0.7874015748031497,
          "duration": 0.24609375
        },
        {
          "name": "A4",
          "midi": 69,
          "time": 151.75,
          "velocity": 0.7874015748031497,
          "duration": 0.24609375
        },
        {
          "name": "B4",
          "midi": 71,
          "time": 152,
          "velocity": 0.7874015748031497,
          "duration": 0.24609375
        },
        {
          "name": "A4",
          "midi": 69,
          "time": 152.25,
          "velocity": 0.7874015748031497,
          "duration": 0.24609375
        },
        {
          "name": "F#4",
          "midi": 66,
          "time": 152.5,
          "velocity": 0.7874015748031497,
          "duration": 0.24609375
        },
        {
          "name": "D4",
          "midi": 62,
          "time": 152.75,
          "velocity": 0.7874015748031497,
          "duration": 0.5
        },
        {
          "name": "E4",
          "midi": 64,
          "time": 153.25,
          "velocity": 0.7874015748031497,
          "duration": 0.25
        },
        {
          "name": "G4",
          "midi": 67,
          "time": 153.25,
          "velocity": 0.7874015748031497,
          "duration": 0.25
        },
        {
          "name": "F#4",
          "midi": 66,
          "time": 153.5,
          "velocity": 0.7874015748031497,
          "duration": 0.25
        },
        {
          "name": "A4",
          "midi": 69,
          "time": 153.5,
          "velocity": 0.7874015748031497,
          "duration": 0.25
        },
        {
          "name": "F#4",
          "midi": 66,
          "time": 153.75,
          "velocity": 0.7874015748031497,
          "duration": 1.25
        },
        {
          "name": "A4",
          "midi": 69,
          "time": 153.75,
          "velocity": 0.7874015748031497,
          "duration": 1.25
        },
        {
          "name": "A4",
          "midi": 69,
          "time": 155.25,
          "velocity": 0.7874015748031497,
          "duration": 0.25
        },
        {
          "name": "A4",
          "midi": 69,
          "time": 155.5,
          "velocity": 0.7874015748031497,
          "duration": 0.24609375
        },
        {
          "name": "A4",
          "midi": 69,
          "time": 155.75,
          "velocity": 0.7874015748031497,
          "duration": 0.24609375
        },
        {
          "name": "B4",
          "midi": 71,
          "time": 156,
          "velocity": 0.7874015748031497,
          "duration": 0.24609375
        },
        {
          "name": "A4",
          "midi": 69,
          "time": 156.25,
          "velocity": 0.7874015748031497,
          "duration": 0.24609375
        },
        {
          "name": "F#4",
          "midi": 66,
          "time": 156.5,
          "velocity": 0.7874015748031497,
          "duration": 0.24609375
        },
        {
          "name": "D4",
          "midi": 62,
          "time": 156.75,
          "velocity": 0.7874015748031497,
          "duration": 0.5
        },
        {
          "name": "E4",
          "midi": 64,
          "time": 157.25,
          "velocity": 0.7874015748031497,
          "duration": 0.25
        },
        {
          "name": "G4",
          "midi": 67,
          "time": 157.25,
          "velocity": 0.7874015748031497,
          "duration": 0.25
        },
        {
          "name": "F#4",
          "midi": 66,
          "time": 157.5,
          "velocity": 0.7874015748031497,
          "duration": 0.25
        },
        {
          "name": "A4",
          "midi": 69,
          "time": 157.5,
          "velocity": 0.7874015748031497,
          "duration": 0.25
        },
        {
          "name": "F#4",
          "midi": 66,
          "time": 157.75,
          "velocity": 0.7874015748031497,
          "duration": 1.25
        },
        {
          "name": "A4",
          "midi": 69,
          "time": 157.75,
          "velocity": 0.7874015748031497,
          "duration": 1.25
        },
        {
          "name": "A4",
          "midi": 69,
          "time": 159.25,
          "velocity": 0.7874015748031497,
          "duration": 0.25
        },
        {
          "name": "A4",
          "midi": 69,
          "time": 159.5,
          "velocity": 0.7874015748031497,
          "duration": 0.24609375
        },
        {
          "name": "A4",
          "midi": 69,
          "time": 159.75,
          "velocity": 0.7874015748031497,
          "duration": 0.24609375
        },
        {
          "name": "B4",
          "midi": 71,
          "time": 160,
          "velocity": 0.7874015748031497,
          "duration": 0.24609375
        },
        {
          "name": "A4",
          "midi": 69,
          "time": 160.25,
          "velocity": 0.7874015748031497,
          "duration": 0.24609375
        },
        {
          "name": "F#4",
          "midi": 66,
          "time": 160.5,
          "velocity": 0.7874015748031497,
          "duration": 0.24609375
        },
        {
          "name": "D4",
          "midi": 62,
          "time": 160.75,
          "velocity": 0.7874015748031497,
          "duration": 0.5
        },
        {
          "name": "E4",
          "midi": 64,
          "time": 161.25,
          "velocity": 0.7874015748031497,
          "duration": 0.25
        },
        {
          "name": "G4",
          "midi": 67,
          "time": 161.25,
          "velocity": 0.7874015748031497,
          "duration": 0.25
        },
        {
          "name": "F#4",
          "midi": 66,
          "time": 161.5,
          "velocity": 0.7874015748031497,
          "duration": 0.25
        },
        {
          "name": "A4",
          "midi": 69,
          "time": 161.5,
          "velocity": 0.7874015748031497,
          "duration": 0.25
        },
        {
          "name": "F#4",
          "midi": 66,
          "time": 161.75,
          "velocity": 0.7874015748031497,
          "duration": 1.25
        },
        {
          "name": "A4",
          "midi": 69,
          "time": 161.75,
          "velocity": 0.7874015748031497,
          "duration": 1.25
        },
        {
          "name": "A4",
          "midi": 69,
          "time": 163.25,
          "velocity": 0.7874015748031497,
          "duration": 0.25
        },
        {
          "name": "A4",
          "midi": 69,
          "time": 163.5,
          "velocity": 0.7874015748031497,
          "duration": 0.24609375
        },
        {
          "name": "A4",
          "midi": 69,
          "time": 163.75,
          "velocity": 0.7874015748031497,
          "duration": 0.24609375
        },
        {
          "name": "B4",
          "midi": 71,
          "time": 164,
          "velocity": 0.7874015748031497,
          "duration": 0.24609375
        },
        {
          "name": "A4",
          "midi": 69,
          "time": 164.25,
          "velocity": 0.7874015748031497,
          "duration": 0.24609375
        },
        {
          "name": "F#4",
          "midi": 66,
          "time": 164.5,
          "velocity": 0.7874015748031497,
          "duration": 0.24609375
        },
        {
          "name": "D4",
          "midi": 62,
          "time": 164.75,
          "velocity": 0.7874015748031497,
          "duration": 0.5
        },
        {
          "name": "E4",
          "midi": 64,
          "time": 165.25,
          "velocity": 0.7874015748031497,
          "duration": 0.25
        },
        {
          "name": "G4",
          "midi": 67,
          "time": 165.25,
          "velocity": 0.7874015748031497,
          "duration": 0.25
        },
        {
          "name": "F#4",
          "midi": 66,
          "time": 165.5,
          "velocity": 0.7874015748031497,
          "duration": 0.25
        },
        {
          "name": "A4",
          "midi": 69,
          "time": 165.5,
          "velocity": 0.7874015748031497,
          "duration": 0.25
        },
        {
          "name": "F#4",
          "midi": 66,
          "time": 165.75,
          "velocity": 0.7874015748031497,
          "duration": 1.25
        },
        {
          "name": "A4",
          "midi": 69,
          "time": 165.75,
          "velocity": 0.7874015748031497,
          "duration": 1.25
        },
        {
          "name": "A4",
          "midi": 69,
          "time": 167.25,
          "velocity": 0.7874015748031497,
          "duration": 0.25
        },
        {
          "name": "A4",
          "midi": 69,
          "time": 167.5,
          "velocity": 0.7874015748031497,
          "duration": 0.24609375
        },
        {
          "name": "A4",
          "midi": 69,
          "time": 167.75,
          "velocity": 0.7874015748031497,
          "duration": 0.24609375
        },
        {
          "name": "B4",
          "midi": 71,
          "time": 168,
          "velocity": 0.7874015748031497,
          "duration": 0.24609375
        },
        {
          "name": "A4",
          "midi": 69,
          "time": 168.25,
          "velocity": 0.7874015748031497,
          "duration": 0.24609375
        },
        {
          "name": "F#4",
          "midi": 66,
          "time": 168.5,
          "velocity": 0.7874015748031497,
          "duration": 0.24609375
        },
        {
          "name": "D4",
          "midi": 62,
          "time": 168.75,
          "velocity": 0.7874015748031497,
          "duration": 0.5
        },
        {
          "name": "E4",
          "midi": 64,
          "time": 169.25,
          "velocity": 0.7874015748031497,
          "duration": 0.25
        },
        {
          "name": "G4",
          "midi": 67,
          "time": 169.25,
          "velocity": 0.7874015748031497,
          "duration": 0.25
        },
        {
          "name": "F#4",
          "midi": 66,
          "time": 169.5,
          "velocity": 0.7874015748031497,
          "duration": 0.25
        },
        {
          "name": "A4",
          "midi": 69,
          "time": 169.5,
          "velocity": 0.7874015748031497,
          "duration": 0.25
        },
        {
          "name": "F#4",
          "midi": 66,
          "time": 169.75,
          "velocity": 0.7874015748031497,
          "duration": 0.75
        },
        {
          "name": "A4",
          "midi": 69,
          "time": 169.75,
          "velocity": 0.7874015748031497,
          "duration": 0.75
        },
        {
          "name": "G4",
          "midi": 67,
          "time": 171.25,
          "velocity": 0.7874015748031497,
          "duration": 0.25
        },
        {
          "name": "A4",
          "midi": 69,
          "time": 171.5,
          "velocity": 0.7874015748031497,
          "duration": 0.25
        },
        {
          "name": "A4",
          "midi": 69,
          "time": 171.75,
          "velocity": 0.7874015748031497,
          "duration": 0.75
        },
        {
          "name": "G4",
          "midi": 67,
          "time": 173.25,
          "velocity": 0.7874015748031497,
          "duration": 0.25
        },
        {
          "name": "F#4",
          "midi": 66,
          "time": 173.5,
          "velocity": 0.7874015748031497,
          "duration": 0.25
        },
        {
          "name": "F#4",
          "midi": 66,
          "time": 173.75,
          "velocity": 0.7874015748031497,
          "duration": 1.25
        }
      ],
      "controlChanges": {
        "7": [
          {
            "number": 7,
            "time": 1,
            "value": 1
          }
        ],
        "10": [
          {
            "number": 10,
            "time": 1,
            "value": 0.4015748031496063
          }
        ],
        "64": [
          {
            "number": 64,
            "time": 1,
            "value": 0
          }
        ],
        "91": [
          {
            "number": 91,
            "time": 1,
            "value": 0.3779527559055118
          }
        ],
        "121": [
          {
            "number": 121,
            "time": 1,
            "value": 0
          }
        ]
      }
    },
    {
      "startTime": 2,
      "duration": 175,
      "length": 521,
      "id": 2,
      "instrumentNumber": 0,
      "instrument": "acoustic grand piano",
      "instrumentFamily": "piano",
      "channelNumber": 1,
      "isPercussion": false,
      "notes": [
        {
          "name": "A2",
          "midi": 45,
          "time": 2,
          "velocity": 0.7874015748031497,
          "duration": 0.25
        },
        {
          "name": "D3",
          "midi": 50,
          "time": 2.25,
          "velocity": 0.7874015748031497,
          "duration": 0.25
        },
        {
          "name": "F#3",
          "midi": 54,
          "time": 2.5,
          "velocity": 0.7874015748031497,
          "duration": 0.25
        },
        {
          "name": "D3",
          "midi": 50,
          "time": 2.75,
          "velocity": 0.7874015748031497,
          "duration": 0.25
        },
        {
          "name": "B2",
          "midi": 47,
          "time": 3,
          "velocity": 0.7874015748031497,
          "duration": 0.25
        },
        {
          "name": "D3",
          "midi": 50,
          "time": 3.25,
          "velocity": 0.7874015748031497,
          "duration": 0.25
        },
        {
          "name": "F#3",
          "midi": 54,
          "time": 3.5,
          "velocity": 0.7874015748031497,
          "duration": 0.25
        },
        {
          "name": "D3",
          "midi": 50,
          "time": 3.75,
          "velocity": 0.7874015748031497,
          "duration": 0.25
        },
        {
          "name": "A2",
          "midi": 45,
          "time": 4,
          "velocity": 0.7874015748031497,
          "duration": 0.25
        },
        {
          "name": "D3",
          "midi": 50,
          "time": 4.25,
          "velocity": 0.7874015748031497,
          "duration": 0.25
        },
        {
          "name": "F#3",
          "midi": 54,
          "time": 4.5,
          "velocity": 0.7874015748031497,
          "duration": 0.25
        },
        {
          "name": "D3",
          "midi": 50,
          "time": 4.75,
          "velocity": 0.7874015748031497,
          "duration": 0.25
        },
        {
          "name": "B2",
          "midi": 47,
          "time": 5,
          "velocity": 0.7874015748031497,
          "duration": 0.25
        },
        {
          "name": "D3",
          "midi": 50,
          "time": 5.25,
          "velocity": 0.7874015748031497,
          "duration": 0.25
        },
        {
          "name": "F#3",
          "midi": 54,
          "time": 5.5,
          "velocity": 0.7874015748031497,
          "duration": 0.25
        },
        {
          "name": "D3",
          "midi": 50,
          "time": 5.75,
          "velocity": 0.7874015748031497,
          "duration": 0.25
        },
        {
          "name": "A2",
          "midi": 45,
          "time": 6,
          "velocity": 0.7874015748031497,
          "duration": 0.25
        },
        {
          "name": "D3",
          "midi": 50,
          "time": 6.25,
          "velocity": 0.7874015748031497,
          "duration": 0.25
        },
        {
          "name": "F#3",
          "midi": 54,
          "time": 6.5,
          "velocity": 0.7874015748031497,
          "duration": 0.25
        },
        {
          "name": "D3",
          "midi": 50,
          "time": 6.75,
          "velocity": 0.7874015748031497,
          "duration": 0.25
        },
        {
          "name": "B2",
          "midi": 47,
          "time": 7,
          "velocity": 0.7874015748031497,
          "duration": 0.25
        },
        {
          "name": "D3",
          "midi": 50,
          "time": 7.25,
          "velocity": 0.7874015748031497,
          "duration": 0.25
        },
        {
          "name": "F#3",
          "midi": 54,
          "time": 7.5,
          "velocity": 0.7874015748031497,
          "duration": 0.25
        },
        {
          "name": "D3",
          "midi": 50,
          "time": 7.75,
          "velocity": 0.7874015748031497,
          "duration": 0.25
        },
        {
          "name": "A2",
          "midi": 45,
          "time": 8,
          "velocity": 0.7874015748031497,
          "duration": 0.25
        },
        {
          "name": "D3",
          "midi": 50,
          "time": 8.25,
          "velocity": 0.7874015748031497,
          "duration": 0.25
        },
        {
          "name": "F#3",
          "midi": 54,
          "time": 8.5,
          "velocity": 0.7874015748031497,
          "duration": 0.25
        },
        {
          "name": "D3",
          "midi": 50,
          "time": 8.75,
          "velocity": 0.7874015748031497,
          "duration": 0.25
        },
        {
          "name": "B2",
          "midi": 47,
          "time": 9,
          "velocity": 0.7874015748031497,
          "duration": 0.25
        },
        {
          "name": "D3",
          "midi": 50,
          "time": 9.25,
          "velocity": 0.7874015748031497,
          "duration": 0.25
        },
        {
          "name": "F#3",
          "midi": 54,
          "time": 9.5,
          "velocity": 0.7874015748031497,
          "duration": 0.25
        },
        {
          "name": "D3",
          "midi": 50,
          "time": 9.75,
          "velocity": 0.7874015748031497,
          "duration": 0.25
        },
        {
          "name": "B2",
          "midi": 47,
          "time": 10,
          "velocity": 0.7874015748031497,
          "duration": 0.25
        },
        {
          "name": "E3",
          "midi": 52,
          "time": 10.25,
          "velocity": 0.7874015748031497,
          "duration": 0.25
        },
        {
          "name": "G3",
          "midi": 55,
          "time": 10.5,
          "velocity": 0.7874015748031497,
          "duration": 0.25
        },
        {
          "name": "E3",
          "midi": 52,
          "time": 10.75,
          "velocity": 0.7874015748031497,
          "duration": 0.25
        },
        {
          "name": "B2",
          "midi": 47,
          "time": 11,
          "velocity": 0.7874015748031497,
          "duration": 0.25
        },
        {
          "name": "E3",
          "midi": 52,
          "time": 11.25,
          "velocity": 0.7874015748031497,
          "duration": 0.25
        },
        {
          "name": "G3",
          "midi": 55,
          "time": 11.5,
          "velocity": 0.7874015748031497,
          "duration": 0.25
        },
        {
          "name": "E3",
          "midi": 52,
          "time": 11.75,
          "velocity": 0.7874015748031497,
          "duration": 0.25
        },
        {
          "name": "A2",
          "midi": 45,
          "time": 12,
          "velocity": 0.7874015748031497,
          "duration": 0.25
        },
        {
          "name": "E3",
          "midi": 52,
          "time": 12.25,
          "velocity": 0.7874015748031497,
          "duration": 0.25
        },
        {
          "name": "G3",
          "midi": 55,
          "time": 12.5,
          "velocity": 0.7874015748031497,
          "duration": 0.25
        },
        {
          "name": "C#3",
          "midi": 49,
          "time": 12.75,
          "velocity": 0.7874015748031497,
          "duration": 0.25
        },
        {
          "name": "A2",
          "midi": 45,
          "time": 13,
          "velocity": 0.7874015748031497,
          "duration": 0.25
        },
        {
          "name": "E3",
          "midi": 52,
          "time": 13.25,
          "velocity": 0.7874015748031497,
          "duration": 0.25
        },
        {
          "name": "G3",
          "midi": 55,
          "time": 13.5,
          "velocity": 0.7874015748031497,
          "duration": 0.25
        },
        {
          "name": "C#3",
          "midi": 49,
          "time": 13.75,
          "velocity": 0.7874015748031497,
          "duration": 0.25
        },
        {
          "name": "A2",
          "midi": 45,
          "time": 14,
          "velocity": 0.7874015748031497,
          "duration": 0.25
        },
        {
          "name": "D3",
          "midi": 50,
          "time": 14.25,
          "velocity": 0.7874015748031497,
          "duration": 0.25
        },
        {
          "name": "F#3",
          "midi": 54,
          "time": 14.5,
          "velocity": 0.7874015748031497,
          "duration": 0.25
        },
        {
          "name": "D3",
          "midi": 50,
          "time": 14.75,
          "velocity": 0.7874015748031497,
          "duration": 0.25
        },
        {
          "name": "B2",
          "midi": 47,
          "time": 15,
          "velocity": 0.7874015748031497,
          "duration": 0.25
        },
        {
          "name": "D3",
          "midi": 50,
          "time": 15.25,
          "velocity": 0.7874015748031497,
          "duration": 0.25
        },
        {
          "name": "F#3",
          "midi": 54,
          "time": 15.5,
          "velocity": 0.7874015748031497,
          "duration": 0.25
        },
        {
          "name": "D3",
          "midi": 50,
          "time": 15.75,
          "velocity": 0.7874015748031497,
          "duration": 0.25
        },
        {
          "name": "A2",
          "midi": 45,
          "time": 16,
          "velocity": 0.7874015748031497,
          "duration": 0.25
        },
        {
          "name": "D3",
          "midi": 50,
          "time": 16.25,
          "velocity": 0.7874015748031497,
          "duration": 0.25
        },
        {
          "name": "F#3",
          "midi": 54,
          "time": 16.5,
          "velocity": 0.7874015748031497,
          "duration": 0.25
        },
        {
          "name": "D3",
          "midi": 50,
          "time": 16.75,
          "velocity": 0.7874015748031497,
          "duration": 0.25
        },
        {
          "name": "B2",
          "midi": 47,
          "time": 17,
          "velocity": 0.7874015748031497,
          "duration": 0.25
        },
        {
          "name": "D3",
          "midi": 50,
          "time": 17.25,
          "velocity": 0.7874015748031497,
          "duration": 0.25
        },
        {
          "name": "F#3",
          "midi": 54,
          "time": 17.5,
          "velocity": 0.7874015748031497,
          "duration": 0.25
        },
        {
          "name": "D3",
          "midi": 50,
          "time": 17.75,
          "velocity": 0.7874015748031497,
          "duration": 0.25
        },
        {
          "name": "A2",
          "midi": 45,
          "time": 18,
          "velocity": 0.7874015748031497,
          "duration": 0.25
        },
        {
          "name": "D3",
          "midi": 50,
          "time": 18.25,
          "velocity": 0.7874015748031497,
          "duration": 0.25
        },
        {
          "name": "F#3",
          "midi": 54,
          "time": 18.5,
          "velocity": 0.7874015748031497,
          "duration": 0.25
        },
        {
          "name": "D3",
          "midi": 50,
          "time": 18.75,
          "velocity": 0.7874015748031497,
          "duration": 0.25
        },
        {
          "name": "B2",
          "midi": 47,
          "time": 19,
          "velocity": 0.7874015748031497,
          "duration": 0.25
        },
        {
          "name": "D3",
          "midi": 50,
          "time": 19.25,
          "velocity": 0.7874015748031497,
          "duration": 0.25
        },
        {
          "name": "F#3",
          "midi": 54,
          "time": 19.5,
          "velocity": 0.7874015748031497,
          "duration": 0.25
        },
        {
          "name": "D3",
          "midi": 50,
          "time": 19.75,
          "velocity": 0.7874015748031497,
          "duration": 0.25
        },
        {
          "name": "A2",
          "midi": 45,
          "time": 20,
          "velocity": 0.7874015748031497,
          "duration": 0.25
        },
        {
          "name": "D3",
          "midi": 50,
          "time": 20.25,
          "velocity": 0.7874015748031497,
          "duration": 0.25
        },
        {
          "name": "F#3",
          "midi": 54,
          "time": 20.5,
          "velocity": 0.7874015748031497,
          "duration": 0.25
        },
        {
          "name": "D3",
          "midi": 50,
          "time": 20.75,
          "velocity": 0.7874015748031497,
          "duration": 0.25
        },
        {
          "name": "B2",
          "midi": 47,
          "time": 21,
          "velocity": 0.7874015748031497,
          "duration": 0.25
        },
        {
          "name": "D3",
          "midi": 50,
          "time": 21.25,
          "velocity": 0.7874015748031497,
          "duration": 0.25
        },
        {
          "name": "F#3",
          "midi": 54,
          "time": 21.5,
          "velocity": 0.7874015748031497,
          "duration": 0.25
        },
        {
          "name": "D3",
          "midi": 50,
          "time": 21.75,
          "velocity": 0.7874015748031497,
          "duration": 0.25
        },
        {
          "name": "A2",
          "midi": 45,
          "time": 22,
          "velocity": 0.7874015748031497,
          "duration": 0.25
        },
        {
          "name": "D3",
          "midi": 50,
          "time": 22.25,
          "velocity": 0.7874015748031497,
          "duration": 0.25
        },
        {
          "name": "F#3",
          "midi": 54,
          "time": 22.5,
          "velocity": 0.7874015748031497,
          "duration": 0.25
        },
        {
          "name": "D3",
          "midi": 50,
          "time": 22.75,
          "velocity": 0.7874015748031497,
          "duration": 0.25
        },
        {
          "name": "B2",
          "midi": 47,
          "time": 23,
          "velocity": 0.7874015748031497,
          "duration": 0.25
        },
        {
          "name": "D3",
          "midi": 50,
          "time": 23.25,
          "velocity": 0.7874015748031497,
          "duration": 0.25
        },
        {
          "name": "F#3",
          "midi": 54,
          "time": 23.5,
          "velocity": 0.7874015748031497,
          "duration": 0.25
        },
        {
          "name": "D3",
          "midi": 50,
          "time": 23.75,
          "velocity": 0.7874015748031497,
          "duration": 0.25
        },
        {
          "name": "A2",
          "midi": 45,
          "time": 24,
          "velocity": 0.7874015748031497,
          "duration": 0.25
        },
        {
          "name": "D3",
          "midi": 50,
          "time": 24.25,
          "velocity": 0.7874015748031497,
          "duration": 0.25
        },
        {
          "name": "F#3",
          "midi": 54,
          "time": 24.5,
          "velocity": 0.7874015748031497,
          "duration": 0.25
        },
        {
          "name": "D3",
          "midi": 50,
          "time": 24.75,
          "velocity": 0.7874015748031497,
          "duration": 0.25
        },
        {
          "name": "B2",
          "midi": 47,
          "time": 25,
          "velocity": 0.7874015748031497,
          "duration": 0.25
        },
        {
          "name": "D3",
          "midi": 50,
          "time": 25.25,
          "velocity": 0.7874015748031497,
          "duration": 0.25
        },
        {
          "name": "F#3",
          "midi": 54,
          "time": 25.5,
          "velocity": 0.7874015748031497,
          "duration": 0.25
        },
        {
          "name": "D3",
          "midi": 50,
          "time": 25.75,
          "velocity": 0.7874015748031497,
          "duration": 0.25
        },
        {
          "name": "B2",
          "midi": 47,
          "time": 26,
          "velocity": 0.7874015748031497,
          "duration": 0.25
        },
        {
          "name": "E3",
          "midi": 52,
          "time": 26.25,
          "velocity": 0.7874015748031497,
          "duration": 0.25
        },
        {
          "name": "G3",
          "midi": 55,
          "time": 26.5,
          "velocity": 0.7874015748031497,
          "duration": 0.25
        },
        {
          "name": "E3",
          "midi": 52,
          "time": 26.75,
          "velocity": 0.7874015748031497,
          "duration": 0.25
        },
        {
          "name": "B2",
          "midi": 47,
          "time": 27,
          "velocity": 0.7874015748031497,
          "duration": 0.25
        },
        {
          "name": "E3",
          "midi": 52,
          "time": 27.25,
          "velocity": 0.7874015748031497,
          "duration": 0.25
        },
        {
          "name": "G3",
          "midi": 55,
          "time": 27.5,
          "velocity": 0.7874015748031497,
          "duration": 0.25
        },
        {
          "name": "E3",
          "midi": 52,
          "time": 27.75,
          "velocity": 0.7874015748031497,
          "duration": 0.25
        },
        {
          "name": "A2",
          "midi": 45,
          "time": 28,
          "velocity": 0.7874015748031497,
          "duration": 0.25
        },
        {
          "name": "E3",
          "midi": 52,
          "time": 28.25,
          "velocity": 0.7874015748031497,
          "duration": 0.25
        },
        {
          "name": "G3",
          "midi": 55,
          "time": 28.5,
          "velocity": 0.7874015748031497,
          "duration": 0.25
        },
        {
          "name": "C#3",
          "midi": 49,
          "time": 28.75,
          "velocity": 0.7874015748031497,
          "duration": 0.25
        },
        {
          "name": "A2",
          "midi": 45,
          "time": 29,
          "velocity": 0.7874015748031497,
          "duration": 0.25
        },
        {
          "name": "E3",
          "midi": 52,
          "time": 29.25,
          "velocity": 0.7874015748031497,
          "duration": 0.25
        },
        {
          "name": "G3",
          "midi": 55,
          "time": 29.5,
          "velocity": 0.7874015748031497,
          "duration": 0.25
        },
        {
          "name": "C#3",
          "midi": 49,
          "time": 29.75,
          "velocity": 0.7874015748031497,
          "duration": 0.25
        },
        {
          "name": "A#2",
          "midi": 46,
          "time": 30,
          "velocity": 0.7874015748031497,
          "duration": 0.25
        },
        {
          "name": "D3",
          "midi": 50,
          "time": 30.25,
          "velocity": 0.7874015748031497,
          "duration": 0.25
        },
        {
          "name": "F3",
          "midi": 53,
          "time": 30.5,
          "velocity": 0.7874015748031497,
          "duration": 0.25
        },
        {
          "name": "A3",
          "midi": 57,
          "time": 30.75,
          "velocity": 0.7874015748031497,
          "duration": 0.25
        },
        {
          "name": "D3",
          "midi": 50,
          "time": 46,
          "velocity": 0.7874015748031497,
          "duration": 0.75
        },
        {
          "name": "D3",
          "midi": 50,
          "time": 46.75,
          "velocity": 0.7874015748031497,
          "duration": 0.25
        },
        {
          "name": "B2",
          "midi": 47,
          "time": 47,
          "velocity": 0.7874015748031497,
          "duration": 0.75
        },
        {
          "name": "B2",
          "midi": 47,
          "time": 47.75,
          "velocity": 0.7874015748031497,
          "duration": 0.25
        },
        {
          "name": "D3",
          "midi": 50,
          "time": 48,
          "velocity": 0.7874015748031497,
          "duration": 0.75
        },
        {
          "name": "D3",
          "midi": 50,
          "time": 48.75,
          "velocity": 0.7874015748031497,
          "duration": 0.25
        },
        {
          "name": "B2",
          "midi": 47,
          "time": 49,
          "velocity": 0.7874015748031497,
          "duration": 0.75
        },
        {
          "name": "B2",
          "midi": 47,
          "time": 49.75,
          "velocity": 0.7874015748031497,
          "duration": 0.25
        },
        {
          "name": "D3",
          "midi": 50,
          "time": 50,
          "velocity": 0.7874015748031497,
          "duration": 0.75
        },
        {
          "name": "D3",
          "midi": 50,
          "time": 50.75,
          "velocity": 0.7874015748031497,
          "duration": 0.25
        },
        {
          "name": "B2",
          "midi": 47,
          "time": 51,
          "velocity": 0.7874015748031497,
          "duration": 0.75
        },
        {
          "name": "B2",
          "midi": 47,
          "time": 51.75,
          "velocity": 0.7874015748031497,
          "duration": 0.25
        },
        {
          "name": "D3",
          "midi": 50,
          "time": 52,
          "velocity": 0.7874015748031497,
          "duration": 0.75
        },
        {
          "name": "D3",
          "midi": 50,
          "time": 52.75,
          "velocity": 0.7874015748031497,
          "duration": 0.25
        },
        {
          "name": "B2",
          "midi": 47,
          "time": 53,
          "velocity": 0.7874015748031497,
          "duration": 0.75
        },
        {
          "name": "B2",
          "midi": 47,
          "time": 53.75,
          "velocity": 0.7874015748031497,
          "duration": 0.25
        },
        {
          "name": "A2",
          "midi": 45,
          "time": 54,
          "velocity": 0.7874015748031497,
          "duration": 0.25
        },
        {
          "name": "D3",
          "midi": 50,
          "time": 54.25,
          "velocity": 0.7874015748031497,
          "duration": 0.25
        },
        {
          "name": "F#3",
          "midi": 54,
          "time": 54.5,
          "velocity": 0.7874015748031497,
          "duration": 0.25
        },
        {
          "name": "D3",
          "midi": 50,
          "time": 54.75,
          "velocity": 0.7874015748031497,
          "duration": 0.25
        },
        {
          "name": "B2",
          "midi": 47,
          "time": 55,
          "velocity": 0.7874015748031497,
          "duration": 0.25
        },
        {
          "name": "D3",
          "midi": 50,
          "time": 55.25,
          "velocity": 0.7874015748031497,
          "duration": 0.25
        },
        {
          "name": "F#3",
          "midi": 54,
          "time": 55.5,
          "velocity": 0.7874015748031497,
          "duration": 0.25
        },
        {
          "name": "D3",
          "midi": 50,
          "time": 55.75,
          "velocity": 0.7874015748031497,
          "duration": 0.25
        },
        {
          "name": "A2",
          "midi": 45,
          "time": 56,
          "velocity": 0.7874015748031497,
          "duration": 0.25
        },
        {
          "name": "D3",
          "midi": 50,
          "time": 56.25,
          "velocity": 0.7874015748031497,
          "duration": 0.25
        },
        {
          "name": "F#3",
          "midi": 54,
          "time": 56.5,
          "velocity": 0.7874015748031497,
          "duration": 0.25
        },
        {
          "name": "D3",
          "midi": 50,
          "time": 56.75,
          "velocity": 0.7874015748031497,
          "duration": 0.25
        },
        {
          "name": "B2",
          "midi": 47,
          "time": 57,
          "velocity": 0.7874015748031497,
          "duration": 0.25
        },
        {
          "name": "D3",
          "midi": 50,
          "time": 57.25,
          "velocity": 0.7874015748031497,
          "duration": 0.25
        },
        {
          "name": "F#3",
          "midi": 54,
          "time": 57.5,
          "velocity": 0.7874015748031497,
          "duration": 0.25
        },
        {
          "name": "D3",
          "midi": 50,
          "time": 57.75,
          "velocity": 0.7874015748031497,
          "duration": 0.25
        },
        {
          "name": "A2",
          "midi": 45,
          "time": 58,
          "velocity": 0.7874015748031497,
          "duration": 0.25
        },
        {
          "name": "D3",
          "midi": 50,
          "time": 58.25,
          "velocity": 0.7874015748031497,
          "duration": 0.25
        },
        {
          "name": "F#3",
          "midi": 54,
          "time": 58.5,
          "velocity": 0.7874015748031497,
          "duration": 0.25
        },
        {
          "name": "D3",
          "midi": 50,
          "time": 58.75,
          "velocity": 0.7874015748031497,
          "duration": 0.25
        },
        {
          "name": "B2",
          "midi": 47,
          "time": 59,
          "velocity": 0.7874015748031497,
          "duration": 0.25
        },
        {
          "name": "D3",
          "midi": 50,
          "time": 59.25,
          "velocity": 0.7874015748031497,
          "duration": 0.25
        },
        {
          "name": "F#3",
          "midi": 54,
          "time": 59.5,
          "velocity": 0.7874015748031497,
          "duration": 0.25
        },
        {
          "name": "D3",
          "midi": 50,
          "time": 59.75,
          "velocity": 0.7874015748031497,
          "duration": 0.25
        },
        {
          "name": "A2",
          "midi": 45,
          "time": 60,
          "velocity": 0.7874015748031497,
          "duration": 0.25
        },
        {
          "name": "D3",
          "midi": 50,
          "time": 60.25,
          "velocity": 0.7874015748031497,
          "duration": 0.25
        },
        {
          "name": "F#3",
          "midi": 54,
          "time": 60.5,
          "velocity": 0.7874015748031497,
          "duration": 0.25
        },
        {
          "name": "D3",
          "midi": 50,
          "time": 60.75,
          "velocity": 0.7874015748031497,
          "duration": 0.25
        },
        {
          "name": "B2",
          "midi": 47,
          "time": 61,
          "velocity": 0.7874015748031497,
          "duration": 0.25
        },
        {
          "name": "D3",
          "midi": 50,
          "time": 61.25,
          "velocity": 0.7874015748031497,
          "duration": 0.25
        },
        {
          "name": "F#3",
          "midi": 54,
          "time": 61.5,
          "velocity": 0.7874015748031497,
          "duration": 0.25
        },
        {
          "name": "D3",
          "midi": 50,
          "time": 61.75,
          "velocity": 0.7874015748031497,
          "duration": 0.25
        },
        {
          "name": "B2",
          "midi": 47,
          "time": 62,
          "velocity": 0.7874015748031497,
          "duration": 0.25
        },
        {
          "name": "E3",
          "midi": 52,
          "time": 62.25,
          "velocity": 0.7874015748031497,
          "duration": 0.25
        },
        {
          "name": "G3",
          "midi": 55,
          "time": 62.5,
          "velocity": 0.7874015748031497,
          "duration": 0.25
        },
        {
          "name": "E3",
          "midi": 52,
          "time": 62.75,
          "velocity": 0.7874015748031497,
          "duration": 0.25
        },
        {
          "name": "B2",
          "midi": 47,
          "time": 63,
          "velocity": 0.7874015748031497,
          "duration": 0.25
        },
        {
          "name": "E3",
          "midi": 52,
          "time": 63.25,
          "velocity": 0.7874015748031497,
          "duration": 0.25
        },
        {
          "name": "G3",
          "midi": 55,
          "time": 63.5,
          "velocity": 0.7874015748031497,
          "duration": 0.25
        },
        {
          "name": "E3",
          "midi": 52,
          "time": 63.75,
          "velocity": 0.7874015748031497,
          "duration": 0.25
        },
        {
          "name": "A2",
          "midi": 45,
          "time": 64,
          "velocity": 0.7874015748031497,
          "duration": 0.25
        },
        {
          "name": "E3",
          "midi": 52,
          "time": 64.25,
          "velocity": 0.7874015748031497,
          "duration": 0.25
        },
        {
          "name": "G3",
          "midi": 55,
          "time": 64.5,
          "velocity": 0.7874015748031497,
          "duration": 0.25
        },
        {
          "name": "E3",
          "midi": 52,
          "time": 64.75,
          "velocity": 0.7874015748031497,
          "duration": 0.25
        },
        {
          "name": "A2",
          "midi": 45,
          "time": 65,
          "velocity": 0.7874015748031497,
          "duration": 0.25
        },
        {
          "name": "E3",
          "midi": 52,
          "time": 65.25,
          "velocity": 0.7874015748031497,
          "duration": 0.25
        },
        {
          "name": "G3",
          "midi": 55,
          "time": 65.5,
          "velocity": 0.7874015748031497,
          "duration": 0.25
        },
        {
          "name": "E3",
          "midi": 52,
          "time": 65.75,
          "velocity": 0.7874015748031497,
          "duration": 0.25
        },
        {
          "name": "A2",
          "midi": 45,
          "time": 66,
          "velocity": 0.7874015748031497,
          "duration": 0.25
        },
        {
          "name": "D3",
          "midi": 50,
          "time": 66.25,
          "velocity": 0.7874015748031497,
          "duration": 0.25
        },
        {
          "name": "F#3",
          "midi": 54,
          "time": 66.5,
          "velocity": 0.7874015748031497,
          "duration": 0.25
        },
        {
          "name": "D3",
          "midi": 50,
          "time": 66.75,
          "velocity": 0.7874015748031497,
          "duration": 0.25
        },
        {
          "name": "B2",
          "midi": 47,
          "time": 67,
          "velocity": 0.7874015748031497,
          "duration": 0.25
        },
        {
          "name": "D3",
          "midi": 50,
          "time": 67.25,
          "velocity": 0.7874015748031497,
          "duration": 0.25
        },
        {
          "name": "F#3",
          "midi": 54,
          "time": 67.5,
          "velocity": 0.7874015748031497,
          "duration": 0.25
        },
        {
          "name": "D3",
          "midi": 50,
          "time": 67.75,
          "velocity": 0.7874015748031497,
          "duration": 0.25
        },
        {
          "name": "D3",
          "midi": 50,
          "time": 68,
          "velocity": 0.7874015748031497,
          "duration": 0.75
        },
        {
          "name": "D3",
          "midi": 50,
          "time": 68.75,
          "velocity": 0.7874015748031497,
          "duration": 0.25
        },
        {
          "name": "B2",
          "midi": 47,
          "time": 69,
          "velocity": 0.7874015748031497,
          "duration": 0.75
        },
        {
          "name": "B2",
          "midi": 47,
          "time": 69.75,
          "velocity": 0.7874015748031497,
          "duration": 0.25
        },
        {
          "name": "D3",
          "midi": 50,
          "time": 70,
          "velocity": 0.7874015748031497,
          "duration": 0.75
        },
        {
          "name": "D3",
          "midi": 50,
          "time": 70.75,
          "velocity": 0.7874015748031497,
          "duration": 0.25
        },
        {
          "name": "B2",
          "midi": 47,
          "time": 71,
          "velocity": 0.7874015748031497,
          "duration": 0.75
        },
        {
          "name": "B2",
          "midi": 47,
          "time": 71.75,
          "velocity": 0.7874015748031497,
          "duration": 0.25
        },
        {
          "name": "D3",
          "midi": 50,
          "time": 72,
          "velocity": 0.7874015748031497,
          "duration": 0.75
        },
        {
          "name": "D3",
          "midi": 50,
          "time": 72.75,
          "velocity": 0.7874015748031497,
          "duration": 0.25
        },
        {
          "name": "B2",
          "midi": 47,
          "time": 73,
          "velocity": 0.7874015748031497,
          "duration": 0.75
        },
        {
          "name": "B2",
          "midi": 47,
          "time": 73.75,
          "velocity": 0.7874015748031497,
          "duration": 0.25
        },
        {
          "name": "D3",
          "midi": 50,
          "time": 74,
          "velocity": 0.7874015748031497,
          "duration": 0.75
        },
        {
          "name": "D3",
          "midi": 50,
          "time": 74.75,
          "velocity": 0.7874015748031497,
          "duration": 0.25
        },
        {
          "name": "B2",
          "midi": 47,
          "time": 75,
          "velocity": 0.7874015748031497,
          "duration": 0.75
        },
        {
          "name": "B2",
          "midi": 47,
          "time": 75.75,
          "velocity": 0.7874015748031497,
          "duration": 0.25
        },
        {
          "name": "D3",
          "midi": 50,
          "time": 76,
          "velocity": 0.7874015748031497,
          "duration": 0.75
        },
        {
          "name": "D3",
          "midi": 50,
          "time": 76.75,
          "velocity": 0.7874015748031497,
          "duration": 0.25
        },
        {
          "name": "B2",
          "midi": 47,
          "time": 77,
          "velocity": 0.7874015748031497,
          "duration": 0.75
        },
        {
          "name": "B2",
          "midi": 47,
          "time": 77.75,
          "velocity": 0.7874015748031497,
          "duration": 0.25
        },
        {
          "name": "E3",
          "midi": 52,
          "time": 78,
          "velocity": 0.7874015748031497,
          "duration": 0.75
        },
        {
          "name": "E3",
          "midi": 52,
          "time": 78.75,
          "velocity": 0.7874015748031497,
          "duration": 0.25
        },
        {
          "name": "E3",
          "midi": 52,
          "time": 79,
          "velocity": 0.7874015748031497,
          "duration": 0.25
        },
        {
          "name": "F#3",
          "midi": 54,
          "time": 79.25,
          "velocity": 0.7874015748031497,
          "duration": 0.25
        },
        {
          "name": "G3",
          "midi": 55,
          "time": 79.5,
          "velocity": 0.7874015748031497,
          "duration": 0.5
        },
        {
          "name": "A2",
          "midi": 45,
          "time": 80,
          "velocity": 0.7874015748031497,
          "duration": 0.75
        },
        {
          "name": "A2",
          "midi": 45,
          "time": 80.75,
          "velocity": 0.7874015748031497,
          "duration": 0.25
        },
        {
          "name": "A2",
          "midi": 45,
          "time": 81,
          "velocity": 0.7874015748031497,
          "duration": 0.25
        },
        {
          "name": "B2",
          "midi": 47,
          "time": 81.25,
          "velocity": 0.7874015748031497,
          "duration": 0.25
        },
        {
          "name": "C#3",
          "midi": 49,
          "time": 81.5,
          "velocity": 0.7874015748031497,
          "duration": 0.25
        },
        {
          "name": "A2",
          "midi": 45,
          "time": 81.75,
          "velocity": 0.7874015748031497,
          "duration": 0.25
        },
        {
          "name": "A#2",
          "midi": 46,
          "time": 82,
          "velocity": 0.7874015748031497,
          "duration": 0.5
        },
        {
          "name": "A#2",
          "midi": 46,
          "time": 82.5,
          "velocity": 0.7874015748031497,
          "duration": 0.25
        },
        {
          "name": "A#2",
          "midi": 46,
          "time": 82.75,
          "velocity": 0.7874015748031497,
          "duration": 0.25
        },
        {
          "name": "A#2",
          "midi": 46,
          "time": 83,
          "velocity": 0.7874015748031497,
          "duration": 0.25
        },
        {
          "name": "A#2",
          "midi": 46,
          "time": 83.25,
          "velocity": 0.7874015748031497,
          "duration": 0.25
        },
        {
          "name": "A#2",
          "midi": 46,
          "time": 83.5,
          "velocity": 0.7874015748031497,
          "duration": 0.25
        },
        {
          "name": "A#2",
          "midi": 46,
          "time": 83.75,
          "velocity": 0.7874015748031497,
          "duration": 0.25
        },
        {
          "name": "C3",
          "midi": 48,
          "time": 84,
          "velocity": 0.7874015748031497,
          "duration": 0.25
        },
        {
          "name": "F3",
          "midi": 53,
          "time": 84,
          "velocity": 0.7874015748031497,
          "duration": 0.25
        },
        {
          "name": "C3",
          "midi": 48,
          "time": 84.25,
          "velocity": 0.7874015748031497,
          "duration": 0.25
        },
        {
          "name": "F3",
          "midi": 53,
          "time": 84.25,
          "velocity": 0.7874015748031497,
          "duration": 0.25
        },
        {
          "name": "G2",
          "midi": 43,
          "time": 85,
          "velocity": 0.7874015748031497,
          "duration": 0.25
        },
        {
          "name": "C3",
          "midi": 48,
          "time": 85,
          "velocity": 0.7874015748031497,
          "duration": 0.25
        },
        {
          "name": "G2",
          "midi": 43,
          "time": 85.25,
          "velocity": 0.7874015748031497,
          "duration": 0.25
        },
        {
          "name": "C3",
          "midi": 48,
          "time": 85.25,
          "velocity": 0.7874015748031497,
          "duration": 0.25
        },
        {
          "name": "F2",
          "midi": 41,
          "time": 86,
          "velocity": 0.7874015748031497,
          "duration": 0.25
        },
        {
          "name": "A#2",
          "midi": 46,
          "time": 86,
          "velocity": 0.7874015748031497,
          "duration": 0.25
        },
        {
          "name": "F2",
          "midi": 41,
          "time": 86.25,
          "velocity": 0.7874015748031497,
          "duration": 0.25
        },
        {
          "name": "A#2",
          "midi": 46,
          "time": 86.25,
          "velocity": 0.7874015748031497,
          "duration": 0.25
        },
        {
          "name": "C3",
          "midi": 48,
          "time": 87,
          "velocity": 0.7874015748031497,
          "duration": 0.25
        },
        {
          "name": "F3",
          "midi": 53,
          "time": 87,
          "velocity": 0.7874015748031497,
          "duration": 0.25
        },
        {
          "name": "C3",
          "midi": 48,
          "time": 87.25,
          "velocity": 0.7874015748031497,
          "duration": 0.25
        },
        {
          "name": "F3",
          "midi": 53,
          "time": 87.25,
          "velocity": 0.7874015748031497,
          "duration": 0.25
        },
        {
          "name": "C3",
          "midi": 48,
          "time": 88,
          "velocity": 0.7874015748031497,
          "duration": 0.25
        },
        {
          "name": "F3",
          "midi": 53,
          "time": 88,
          "velocity": 0.7874015748031497,
          "duration": 0.25
        },
        {
          "name": "C3",
          "midi": 48,
          "time": 88.25,
          "velocity": 0.7874015748031497,
          "duration": 0.25
        },
        {
          "name": "F3",
          "midi": 53,
          "time": 88.25,
          "velocity": 0.7874015748031497,
          "duration": 0.25
        },
        {
          "name": "G2",
          "midi": 43,
          "time": 89,
          "velocity": 0.7874015748031497,
          "duration": 0.25
        },
        {
          "name": "C3",
          "midi": 48,
          "time": 89,
          "velocity": 0.7874015748031497,
          "duration": 0.25
        },
        {
          "name": "G2",
          "midi": 43,
          "time": 89.25,
          "velocity": 0.7874015748031497,
          "duration": 0.25
        },
        {
          "name": "C3",
          "midi": 48,
          "time": 89.25,
          "velocity": 0.7874015748031497,
          "duration": 0.25
        },
        {
          "name": "F2",
          "midi": 41,
          "time": 90,
          "velocity": 0.7874015748031497,
          "duration": 0.25
        },
        {
          "name": "A#2",
          "midi": 46,
          "time": 90,
          "velocity": 0.7874015748031497,
          "duration": 0.25
        },
        {
          "name": "F2",
          "midi": 41,
          "time": 90.25,
          "velocity": 0.7874015748031497,
          "duration": 0.25
        },
        {
          "name": "A#2",
          "midi": 46,
          "time": 90.25,
          "velocity": 0.7874015748031497,
          "duration": 0.25
        },
        {
          "name": "C3",
          "midi": 48,
          "time": 91,
          "velocity": 0.7874015748031497,
          "duration": 0.25
        },
        {
          "name": "F3",
          "midi": 53,
          "time": 91,
          "velocity": 0.7874015748031497,
          "duration": 0.25
        },
        {
          "name": "C3",
          "midi": 48,
          "time": 91.25,
          "velocity": 0.7874015748031497,
          "duration": 0.25
        },
        {
          "name": "F3",
          "midi": 53,
          "time": 91.25,
          "velocity": 0.7874015748031497,
          "duration": 0.25
        },
        {
          "name": "F2",
          "midi": 41,
          "time": 92,
          "velocity": 0.7874015748031497,
          "duration": 0.25
        },
        {
          "name": "A#2",
          "midi": 46,
          "time": 92,
          "velocity": 0.7874015748031497,
          "duration": 0.25
        },
        {
          "name": "F2",
          "midi": 41,
          "time": 92.25,
          "velocity": 0.7874015748031497,
          "duration": 0.25
        },
        {
          "name": "A#2",
          "midi": 46,
          "time": 92.25,
          "velocity": 0.7874015748031497,
          "duration": 0.25
        },
        {
          "name": "F2",
          "midi": 41,
          "time": 92.5,
          "velocity": 0.7874015748031497,
          "duration": 0.25
        },
        {
          "name": "A#2",
          "midi": 46,
          "time": 92.5,
          "velocity": 0.7874015748031497,
          "duration": 0.25
        },
        {
          "name": "F2",
          "midi": 41,
          "time": 92.75,
          "velocity": 0.7874015748031497,
          "duration": 0.25
        },
        {
          "name": "A#2",
          "midi": 46,
          "time": 92.75,
          "velocity": 0.7874015748031497,
          "duration": 0.25
        },
        {
          "name": "G2",
          "midi": 43,
          "time": 93,
          "velocity": 0.7874015748031497,
          "duration": 0.25
        },
        {
          "name": "C3",
          "midi": 48,
          "time": 93,
          "velocity": 0.7874015748031497,
          "duration": 0.25
        },
        {
          "name": "G2",
          "midi": 43,
          "time": 93.25,
          "velocity": 0.7874015748031497,
          "duration": 0.25
        },
        {
          "name": "C3",
          "midi": 48,
          "time": 93.25,
          "velocity": 0.7874015748031497,
          "duration": 0.25
        },
        {
          "name": "G2",
          "midi": 43,
          "time": 93.5,
          "velocity": 0.7874015748031497,
          "duration": 0.25
        },
        {
          "name": "C3",
          "midi": 48,
          "time": 93.5,
          "velocity": 0.7874015748031497,
          "duration": 0.25
        },
        {
          "name": "G2",
          "midi": 43,
          "time": 93.75,
          "velocity": 0.7874015748031497,
          "duration": 0.25
        },
        {
          "name": "C3",
          "midi": 48,
          "time": 93.75,
          "velocity": 0.7874015748031497,
          "duration": 0.25
        },
        {
          "name": "C3",
          "midi": 48,
          "time": 94,
          "velocity": 0.7874015748031497,
          "duration": 0.25
        },
        {
          "name": "F3",
          "midi": 53,
          "time": 94,
          "velocity": 0.7874015748031497,
          "duration": 0.25
        },
        {
          "name": "C3",
          "midi": 48,
          "time": 94.25,
          "velocity": 0.7874015748031497,
          "duration": 0.25
        },
        {
          "name": "F3",
          "midi": 53,
          "time": 94.25,
          "velocity": 0.7874015748031497,
          "duration": 0.25
        },
        {
          "name": "B2",
          "midi": 47,
          "time": 94.5,
          "velocity": 0.7874015748031497,
          "duration": 0.25
        },
        {
          "name": "E3",
          "midi": 52,
          "time": 94.5,
          "velocity": 0.7874015748031497,
          "duration": 0.25
        },
        {
          "name": "B2",
          "midi": 47,
          "time": 94.75,
          "velocity": 0.7874015748031497,
          "duration": 0.25
        },
        {
          "name": "E3",
          "midi": 52,
          "time": 94.75,
          "velocity": 0.7874015748031497,
          "duration": 0.25
        },
        {
          "name": "A2",
          "midi": 45,
          "time": 95,
          "velocity": 0.7874015748031497,
          "duration": 0.25
        },
        {
          "name": "D3",
          "midi": 50,
          "time": 95,
          "velocity": 0.7874015748031497,
          "duration": 0.25
        },
        {
          "name": "A2",
          "midi": 45,
          "time": 95.25,
          "velocity": 0.7874015748031497,
          "duration": 0.25
        },
        {
          "name": "D3",
          "midi": 50,
          "time": 95.25,
          "velocity": 0.7874015748031497,
          "duration": 0.25
        },
        {
          "name": "G2",
          "midi": 43,
          "time": 95.5,
          "velocity": 0.7874015748031497,
          "duration": 0.25
        },
        {
          "name": "C3",
          "midi": 48,
          "time": 95.5,
          "velocity": 0.7874015748031497,
          "duration": 0.25
        },
        {
          "name": "G2",
          "midi": 43,
          "time": 95.75,
          "velocity": 0.7874015748031497,
          "duration": 0.25
        },
        {
          "name": "C3",
          "midi": 48,
          "time": 95.75,
          "velocity": 0.7874015748031497,
          "duration": 0.25
        },
        {
          "name": "A#2",
          "midi": 46,
          "time": 96,
          "velocity": 0.7874015748031497,
          "duration": 0.5
        },
        {
          "name": "F3",
          "midi": 53,
          "time": 96.5,
          "velocity": 0.7874015748031497,
          "duration": 0.5
        },
        {
          "name": "A2",
          "midi": 45,
          "time": 97,
          "velocity": 0.7874015748031497,
          "duration": 0.5
        },
        {
          "name": "E3",
          "midi": 52,
          "time": 97.5,
          "velocity": 0.7874015748031497,
          "duration": 0.5
        },
        {
          "name": "D3",
          "midi": 50,
          "time": 98,
          "velocity": 0.7874015748031497,
          "duration": 0.75
        },
        {
          "name": "D3",
          "midi": 50,
          "time": 98.75,
          "velocity": 0.7874015748031497,
          "duration": 0.25
        },
        {
          "name": "B2",
          "midi": 47,
          "time": 99,
          "velocity": 0.7874015748031497,
          "duration": 0.75
        },
        {
          "name": "B2",
          "midi": 47,
          "time": 99.75,
          "velocity": 0.7874015748031497,
          "duration": 0.25
        },
        {
          "name": "D3",
          "midi": 50,
          "time": 100,
          "velocity": 0.7874015748031497,
          "duration": 0.75
        },
        {
          "name": "D3",
          "midi": 50,
          "time": 100.75,
          "velocity": 0.7874015748031497,
          "duration": 0.25
        },
        {
          "name": "B2",
          "midi": 47,
          "time": 101,
          "velocity": 0.7874015748031497,
          "duration": 0.75
        },
        {
          "name": "B2",
          "midi": 47,
          "time": 101.75,
          "velocity": 0.7874015748031497,
          "duration": 0.25
        },
        {
          "name": "D3",
          "midi": 50,
          "time": 102,
          "velocity": 0.7874015748031497,
          "duration": 0.75
        },
        {
          "name": "D3",
          "midi": 50,
          "time": 102.75,
          "velocity": 0.7874015748031497,
          "duration": 0.25
        },
        {
          "name": "B2",
          "midi": 47,
          "time": 103,
          "velocity": 0.7874015748031497,
          "duration": 0.75
        },
        {
          "name": "B2",
          "midi": 47,
          "time": 103.75,
          "velocity": 0.7874015748031497,
          "duration": 0.25
        },
        {
          "name": "D3",
          "midi": 50,
          "time": 104,
          "velocity": 0.7874015748031497,
          "duration": 0.75
        },
        {
          "name": "D3",
          "midi": 50,
          "time": 104.75,
          "velocity": 0.7874015748031497,
          "duration": 0.25
        },
        {
          "name": "B2",
          "midi": 47,
          "time": 105,
          "velocity": 0.7874015748031497,
          "duration": 0.75
        },
        {
          "name": "B2",
          "midi": 47,
          "time": 105.75,
          "velocity": 0.7874015748031497,
          "duration": 0.25
        },
        {
          "name": "A2",
          "midi": 45,
          "time": 106,
          "velocity": 0.7874015748031497,
          "duration": 0.25
        },
        {
          "name": "D3",
          "midi": 50,
          "time": 106.25,
          "velocity": 0.7874015748031497,
          "duration": 0.25
        },
        {
          "name": "F#3",
          "midi": 54,
          "time": 106.5,
          "velocity": 0.7874015748031497,
          "duration": 0.25
        },
        {
          "name": "D3",
          "midi": 50,
          "time": 106.75,
          "velocity": 0.7874015748031497,
          "duration": 0.25
        },
        {
          "name": "B2",
          "midi": 47,
          "time": 107,
          "velocity": 0.7874015748031497,
          "duration": 0.25
        },
        {
          "name": "D3",
          "midi": 50,
          "time": 107.25,
          "velocity": 0.7874015748031497,
          "duration": 0.25
        },
        {
          "name": "F#3",
          "midi": 54,
          "time": 107.5,
          "velocity": 0.7874015748031497,
          "duration": 0.25
        },
        {
          "name": "D3",
          "midi": 50,
          "time": 107.75,
          "velocity": 0.7874015748031497,
          "duration": 0.25
        },
        {
          "name": "A2",
          "midi": 45,
          "time": 108,
          "velocity": 0.7874015748031497,
          "duration": 0.25
        },
        {
          "name": "D3",
          "midi": 50,
          "time": 108.25,
          "velocity": 0.7874015748031497,
          "duration": 0.25
        },
        {
          "name": "F#3",
          "midi": 54,
          "time": 108.5,
          "velocity": 0.7874015748031497,
          "duration": 0.25
        },
        {
          "name": "D3",
          "midi": 50,
          "time": 108.75,
          "velocity": 0.7874015748031497,
          "duration": 0.25
        },
        {
          "name": "B2",
          "midi": 47,
          "time": 109,
          "velocity": 0.7874015748031497,
          "duration": 0.25
        },
        {
          "name": "D3",
          "midi": 50,
          "time": 109.25,
          "velocity": 0.7874015748031497,
          "duration": 0.25
        },
        {
          "name": "F#3",
          "midi": 54,
          "time": 109.5,
          "velocity": 0.7874015748031497,
          "duration": 0.25
        },
        {
          "name": "D3",
          "midi": 50,
          "time": 109.75,
          "velocity": 0.7874015748031497,
          "duration": 0.25
        },
        {
          "name": "A2",
          "midi": 45,
          "time": 110,
          "velocity": 0.7874015748031497,
          "duration": 0.25
        },
        {
          "name": "D3",
          "midi": 50,
          "time": 110.25,
          "velocity": 0.7874015748031497,
          "duration": 0.25
        },
        {
          "name": "F#3",
          "midi": 54,
          "time": 110.5,
          "velocity": 0.7874015748031497,
          "duration": 0.25
        },
        {
          "name": "D3",
          "midi": 50,
          "time": 110.75,
          "velocity": 0.7874015748031497,
          "duration": 0.25
        },
        {
          "name": "B2",
          "midi": 47,
          "time": 111,
          "velocity": 0.7874015748031497,
          "duration": 0.25
        },
        {
          "name": "D3",
          "midi": 50,
          "time": 111.25,
          "velocity": 0.7874015748031497,
          "duration": 0.25
        },
        {
          "name": "F#3",
          "midi": 54,
          "time": 111.5,
          "velocity": 0.7874015748031497,
          "duration": 0.25
        },
        {
          "name": "D3",
          "midi": 50,
          "time": 111.75,
          "velocity": 0.7874015748031497,
          "duration": 0.25
        },
        {
          "name": "A2",
          "midi": 45,
          "time": 112,
          "velocity": 0.7874015748031497,
          "duration": 0.25
        },
        {
          "name": "D3",
          "midi": 50,
          "time": 112.25,
          "velocity": 0.7874015748031497,
          "duration": 0.25
        },
        {
          "name": "F#3",
          "midi": 54,
          "time": 112.5,
          "velocity": 0.7874015748031497,
          "duration": 0.25
        },
        {
          "name": "D3",
          "midi": 50,
          "time": 112.75,
          "velocity": 0.7874015748031497,
          "duration": 0.25
        },
        {
          "name": "B2",
          "midi": 47,
          "time": 113,
          "velocity": 0.7874015748031497,
          "duration": 0.25
        },
        {
          "name": "D3",
          "midi": 50,
          "time": 113.25,
          "velocity": 0.7874015748031497,
          "duration": 0.25
        },
        {
          "name": "F#3",
          "midi": 54,
          "time": 113.5,
          "velocity": 0.7874015748031497,
          "duration": 0.25
        },
        {
          "name": "D3",
          "midi": 50,
          "time": 113.75,
          "velocity": 0.7874015748031497,
          "duration": 0.25
        },
        {
          "name": "B2",
          "midi": 47,
          "time": 114,
          "velocity": 0.7874015748031497,
          "duration": 0.25
        },
        {
          "name": "E3",
          "midi": 52,
          "time": 114.25,
          "velocity": 0.7874015748031497,
          "duration": 0.25
        },
        {
          "name": "G3",
          "midi": 55,
          "time": 114.5,
          "velocity": 0.7874015748031497,
          "duration": 0.25
        },
        {
          "name": "E3",
          "midi": 52,
          "time": 114.75,
          "velocity": 0.7874015748031497,
          "duration": 0.25
        },
        {
          "name": "B2",
          "midi": 47,
          "time": 115,
          "velocity": 0.7874015748031497,
          "duration": 0.25
        },
        {
          "name": "E3",
          "midi": 52,
          "time": 115.25,
          "velocity": 0.7874015748031497,
          "duration": 0.25
        },
        {
          "name": "G3",
          "midi": 55,
          "time": 115.5,
          "velocity": 0.7874015748031497,
          "duration": 0.25
        },
        {
          "name": "E3",
          "midi": 52,
          "time": 115.75,
          "velocity": 0.7874015748031497,
          "duration": 0.25
        },
        {
          "name": "A2",
          "midi": 45,
          "time": 116,
          "velocity": 0.7874015748031497,
          "duration": 0.25
        },
        {
          "name": "E3",
          "midi": 52,
          "time": 116.25,
          "velocity": 0.7874015748031497,
          "duration": 0.25
        },
        {
          "name": "G3",
          "midi": 55,
          "time": 116.5,
          "velocity": 0.7874015748031497,
          "duration": 0.25
        },
        {
          "name": "E3",
          "midi": 52,
          "time": 116.75,
          "velocity": 0.7874015748031497,
          "duration": 0.25
        },
        {
          "name": "A2",
          "midi": 45,
          "time": 117,
          "velocity": 0.7874015748031497,
          "duration": 0.25
        },
        {
          "name": "E3",
          "midi": 52,
          "time": 117.25,
          "velocity": 0.7874015748031497,
          "duration": 0.25
        },
        {
          "name": "G3",
          "midi": 55,
          "time": 117.5,
          "velocity": 0.7874015748031497,
          "duration": 0.25
        },
        {
          "name": "E3",
          "midi": 52,
          "time": 117.75,
          "velocity": 0.7874015748031497,
          "duration": 0.25
        },
        {
          "name": "A2",
          "midi": 45,
          "time": 118,
          "velocity": 0.7874015748031497,
          "duration": 0.25
        },
        {
          "name": "D3",
          "midi": 50,
          "time": 118.25,
          "velocity": 0.7874015748031497,
          "duration": 0.25
        },
        {
          "name": "F#3",
          "midi": 54,
          "time": 118.5,
          "velocity": 0.7874015748031497,
          "duration": 0.25
        },
        {
          "name": "D3",
          "midi": 50,
          "time": 118.75,
          "velocity": 0.7874015748031497,
          "duration": 0.25
        },
        {
          "name": "B2",
          "midi": 47,
          "time": 119,
          "velocity": 0.7874015748031497,
          "duration": 0.25
        },
        {
          "name": "D3",
          "midi": 50,
          "time": 119.25,
          "velocity": 0.7874015748031497,
          "duration": 0.25
        },
        {
          "name": "F#3",
          "midi": 54,
          "time": 119.5,
          "velocity": 0.7874015748031497,
          "duration": 0.25
        },
        {
          "name": "D3",
          "midi": 50,
          "time": 119.75,
          "velocity": 0.7874015748031497,
          "duration": 0.25
        },
        {
          "name": "D3",
          "midi": 50,
          "time": 120,
          "velocity": 0.7874015748031497,
          "duration": 0.75
        },
        {
          "name": "D3",
          "midi": 50,
          "time": 120.75,
          "velocity": 0.7874015748031497,
          "duration": 0.25
        },
        {
          "name": "B2",
          "midi": 47,
          "time": 121,
          "velocity": 0.7874015748031497,
          "duration": 0.75
        },
        {
          "name": "B2",
          "midi": 47,
          "time": 121.75,
          "velocity": 0.7874015748031497,
          "duration": 0.25
        },
        {
          "name": "D3",
          "midi": 50,
          "time": 122,
          "velocity": 0.7874015748031497,
          "duration": 0.75
        },
        {
          "name": "D3",
          "midi": 50,
          "time": 122.75,
          "velocity": 0.7874015748031497,
          "duration": 0.25
        },
        {
          "name": "B2",
          "midi": 47,
          "time": 123,
          "velocity": 0.7874015748031497,
          "duration": 0.75
        },
        {
          "name": "B2",
          "midi": 47,
          "time": 123.75,
          "velocity": 0.7874015748031497,
          "duration": 0.25
        },
        {
          "name": "D3",
          "midi": 50,
          "time": 124,
          "velocity": 0.7874015748031497,
          "duration": 0.75
        },
        {
          "name": "D3",
          "midi": 50,
          "time": 124.75,
          "velocity": 0.7874015748031497,
          "duration": 0.25
        },
        {
          "name": "B2",
          "midi": 47,
          "time": 125,
          "velocity": 0.7874015748031497,
          "duration": 0.75
        },
        {
          "name": "B2",
          "midi": 47,
          "time": 125.75,
          "velocity": 0.7874015748031497,
          "duration": 0.25
        },
        {
          "name": "D3",
          "midi": 50,
          "time": 126,
          "velocity": 0.7874015748031497,
          "duration": 0.75
        },
        {
          "name": "D3",
          "midi": 50,
          "time": 126.75,
          "velocity": 0.7874015748031497,
          "duration": 0.25
        },
        {
          "name": "B2",
          "midi": 47,
          "time": 127,
          "velocity": 0.7874015748031497,
          "duration": 0.75
        },
        {
          "name": "B2",
          "midi": 47,
          "time": 127.75,
          "velocity": 0.7874015748031497,
          "duration": 0.25
        },
        {
          "name": "D3",
          "midi": 50,
          "time": 128,
          "velocity": 0.7874015748031497,
          "duration": 0.75
        },
        {
          "name": "D3",
          "midi": 50,
          "time": 128.75,
          "velocity": 0.7874015748031497,
          "duration": 0.25
        },
        {
          "name": "B2",
          "midi": 47,
          "time": 129,
          "velocity": 0.7874015748031497,
          "duration": 0.75
        },
        {
          "name": "B2",
          "midi": 47,
          "time": 129.75,
          "velocity": 0.7874015748031497,
          "duration": 0.25
        },
        {
          "name": "E3",
          "midi": 52,
          "time": 130,
          "velocity": 0.7874015748031497,
          "duration": 0.75
        },
        {
          "name": "E3",
          "midi": 52,
          "time": 130.75,
          "velocity": 0.7874015748031497,
          "duration": 0.25
        },
        {
          "name": "E3",
          "midi": 52,
          "time": 131,
          "velocity": 0.7874015748031497,
          "duration": 0.25
        },
        {
          "name": "F#3",
          "midi": 54,
          "time": 131.25,
          "velocity": 0.7874015748031497,
          "duration": 0.25
        },
        {
          "name": "G3",
          "midi": 55,
          "time": 131.5,
          "velocity": 0.7874015748031497,
          "duration": 0.5
        },
        {
          "name": "A2",
          "midi": 45,
          "time": 132,
          "velocity": 0.7874015748031497,
          "duration": 0.75
        },
        {
          "name": "A2",
          "midi": 45,
          "time": 132.75,
          "velocity": 0.7874015748031497,
          "duration": 0.25
        },
        {
          "name": "A2",
          "midi": 45,
          "time": 133,
          "velocity": 0.7874015748031497,
          "duration": 0.25
        },
        {
          "name": "B2",
          "midi": 47,
          "time": 133.25,
          "velocity": 0.7874015748031497,
          "duration": 0.25
        },
        {
          "name": "C#3",
          "midi": 49,
          "time": 133.5,
          "velocity": 0.7874015748031497,
          "duration": 0.25
        },
        {
          "name": "A2",
          "midi": 45,
          "time": 133.75,
          "velocity": 0.7874015748031497,
          "duration": 0.25
        },
        {
          "name": "A#2",
          "midi": 46,
          "time": 134,
          "velocity": 0.7874015748031497,
          "duration": 0.5
        },
        {
          "name": "A#2",
          "midi": 46,
          "time": 134.5,
          "velocity": 0.7874015748031497,
          "duration": 0.25
        },
        {
          "name": "A#2",
          "midi": 46,
          "time": 134.75,
          "velocity": 0.7874015748031497,
          "duration": 0.25
        },
        {
          "name": "A#2",
          "midi": 46,
          "time": 135,
          "velocity": 0.7874015748031497,
          "duration": 0.25
        },
        {
          "name": "A#2",
          "midi": 46,
          "time": 135.25,
          "velocity": 0.7874015748031497,
          "duration": 0.25
        },
        {
          "name": "A#2",
          "midi": 46,
          "time": 135.5,
          "velocity": 0.7874015748031497,
          "duration": 0.25
        },
        {
          "name": "A#2",
          "midi": 46,
          "time": 135.75,
          "velocity": 0.7874015748031497,
          "duration": 0.25
        },
        {
          "name": "C3",
          "midi": 48,
          "time": 136,
          "velocity": 0.7874015748031497,
          "duration": 0.25
        },
        {
          "name": "F3",
          "midi": 53,
          "time": 136,
          "velocity": 0.7874015748031497,
          "duration": 0.25
        },
        {
          "name": "C3",
          "midi": 48,
          "time": 136.25,
          "velocity": 0.7874015748031497,
          "duration": 0.25
        },
        {
          "name": "F3",
          "midi": 53,
          "time": 136.25,
          "velocity": 0.7874015748031497,
          "duration": 0.25
        },
        {
          "name": "G2",
          "midi": 43,
          "time": 137,
          "velocity": 0.7874015748031497,
          "duration": 0.25
        },
        {
          "name": "C3",
          "midi": 48,
          "time": 137,
          "velocity": 0.7874015748031497,
          "duration": 0.25
        },
        {
          "name": "G2",
          "midi": 43,
          "time": 137.25,
          "velocity": 0.7874015748031497,
          "duration": 0.25
        },
        {
          "name": "C3",
          "midi": 48,
          "time": 137.25,
          "velocity": 0.7874015748031497,
          "duration": 0.25
        },
        {
          "name": "F2",
          "midi": 41,
          "time": 138,
          "velocity": 0.7874015748031497,
          "duration": 0.25
        },
        {
          "name": "A#2",
          "midi": 46,
          "time": 138,
          "velocity": 0.7874015748031497,
          "duration": 0.25
        },
        {
          "name": "F2",
          "midi": 41,
          "time": 138.25,
          "velocity": 0.7874015748031497,
          "duration": 0.25
        },
        {
          "name": "A#2",
          "midi": 46,
          "time": 138.25,
          "velocity": 0.7874015748031497,
          "duration": 0.25
        },
        {
          "name": "C3",
          "midi": 48,
          "time": 139,
          "velocity": 0.7874015748031497,
          "duration": 0.25
        },
        {
          "name": "F3",
          "midi": 53,
          "time": 139,
          "velocity": 0.7874015748031497,
          "duration": 0.25
        },
        {
          "name": "C3",
          "midi": 48,
          "time": 139.25,
          "velocity": 0.7874015748031497,
          "duration": 0.25
        },
        {
          "name": "F3",
          "midi": 53,
          "time": 139.25,
          "velocity": 0.7874015748031497,
          "duration": 0.25
        },
        {
          "name": "C3",
          "midi": 48,
          "time": 140,
          "velocity": 0.7874015748031497,
          "duration": 0.25
        },
        {
          "name": "F3",
          "midi": 53,
          "time": 140,
          "velocity": 0.7874015748031497,
          "duration": 0.25
        },
        {
          "name": "C3",
          "midi": 48,
          "time": 140.25,
          "velocity": 0.7874015748031497,
          "duration": 0.25
        },
        {
          "name": "F3",
          "midi": 53,
          "time": 140.25,
          "velocity": 0.7874015748031497,
          "duration": 0.25
        },
        {
          "name": "G2",
          "midi": 43,
          "time": 141,
          "velocity": 0.7874015748031497,
          "duration": 0.25
        },
        {
          "name": "C3",
          "midi": 48,
          "time": 141,
          "velocity": 0.7874015748031497,
          "duration": 0.25
        },
        {
          "name": "G2",
          "midi": 43,
          "time": 141.25,
          "velocity": 0.7874015748031497,
          "duration": 0.25
        },
        {
          "name": "C3",
          "midi": 48,
          "time": 141.25,
          "velocity": 0.7874015748031497,
          "duration": 0.25
        },
        {
          "name": "F2",
          "midi": 41,
          "time": 142,
          "velocity": 0.7874015748031497,
          "duration": 0.25
        },
        {
          "name": "A#2",
          "midi": 46,
          "time": 142,
          "velocity": 0.7874015748031497,
          "duration": 0.25
        },
        {
          "name": "F2",
          "midi": 41,
          "time": 142.25,
          "velocity": 0.7874015748031497,
          "duration": 0.25
        },
        {
          "name": "A#2",
          "midi": 46,
          "time": 142.25,
          "velocity": 0.7874015748031497,
          "duration": 0.25
        },
        {
          "name": "C3",
          "midi": 48,
          "time": 143,
          "velocity": 0.7874015748031497,
          "duration": 0.25
        },
        {
          "name": "F3",
          "midi": 53,
          "time": 143,
          "velocity": 0.7874015748031497,
          "duration": 0.25
        },
        {
          "name": "C3",
          "midi": 48,
          "time": 143.25,
          "velocity": 0.7874015748031497,
          "duration": 0.25
        },
        {
          "name": "F3",
          "midi": 53,
          "time": 143.25,
          "velocity": 0.7874015748031497,
          "duration": 0.25
        },
        {
          "name": "F2",
          "midi": 41,
          "time": 144,
          "velocity": 0.7874015748031497,
          "duration": 0.25
        },
        {
          "name": "A#2",
          "midi": 46,
          "time": 144,
          "velocity": 0.7874015748031497,
          "duration": 0.25
        },
        {
          "name": "F2",
          "midi": 41,
          "time": 144.25,
          "velocity": 0.7874015748031497,
          "duration": 0.25
        },
        {
          "name": "A#2",
          "midi": 46,
          "time": 144.25,
          "velocity": 0.7874015748031497,
          "duration": 0.25
        },
        {
          "name": "F2",
          "midi": 41,
          "time": 144.5,
          "velocity": 0.7874015748031497,
          "duration": 0.25
        },
        {
          "name": "A#2",
          "midi": 46,
          "time": 144.5,
          "velocity": 0.7874015748031497,
          "duration": 0.25
        },
        {
          "name": "F2",
          "midi": 41,
          "time": 144.75,
          "velocity": 0.7874015748031497,
          "duration": 0.25
        },
        {
          "name": "A#2",
          "midi": 46,
          "time": 144.75,
          "velocity": 0.7874015748031497,
          "duration": 0.25
        },
        {
          "name": "G2",
          "midi": 43,
          "time": 145,
          "velocity": 0.7874015748031497,
          "duration": 0.25
        },
        {
          "name": "C3",
          "midi": 48,
          "time": 145,
          "velocity": 0.7874015748031497,
          "duration": 0.25
        },
        {
          "name": "G2",
          "midi": 43,
          "time": 145.25,
          "velocity": 0.7874015748031497,
          "duration": 0.25
        },
        {
          "name": "C3",
          "midi": 48,
          "time": 145.25,
          "velocity": 0.7874015748031497,
          "duration": 0.25
        },
        {
          "name": "G2",
          "midi": 43,
          "time": 145.5,
          "velocity": 0.7874015748031497,
          "duration": 0.25
        },
        {
          "name": "C3",
          "midi": 48,
          "time": 145.5,
          "velocity": 0.7874015748031497,
          "duration": 0.25
        },
        {
          "name": "G2",
          "midi": 43,
          "time": 145.75,
          "velocity": 0.7874015748031497,
          "duration": 0.25
        },
        {
          "name": "C3",
          "midi": 48,
          "time": 145.75,
          "velocity": 0.7874015748031497,
          "duration": 0.25
        },
        {
          "name": "C3",
          "midi": 48,
          "time": 146,
          "velocity": 0.7874015748031497,
          "duration": 0.25
        },
        {
          "name": "F3",
          "midi": 53,
          "time": 146,
          "velocity": 0.7874015748031497,
          "duration": 0.25
        },
        {
          "name": "C3",
          "midi": 48,
          "time": 146.25,
          "velocity": 0.7874015748031497,
          "duration": 0.25
        },
        {
          "name": "F3",
          "midi": 53,
          "time": 146.25,
          "velocity": 0.7874015748031497,
          "duration": 0.25
        },
        {
          "name": "B2",
          "midi": 47,
          "time": 146.5,
          "velocity": 0.7874015748031497,
          "duration": 0.25
        },
        {
          "name": "E3",
          "midi": 52,
          "time": 146.5,
          "velocity": 0.7874015748031497,
          "duration": 0.25
        },
        {
          "name": "B2",
          "midi": 47,
          "time": 146.75,
          "velocity": 0.7874015748031497,
          "duration": 0.25
        },
        {
          "name": "E3",
          "midi": 52,
          "time": 146.75,
          "velocity": 0.7874015748031497,
          "duration": 0.25
        },
        {
          "name": "A2",
          "midi": 45,
          "time": 147,
          "velocity": 0.7874015748031497,
          "duration": 0.25
        },
        {
          "name": "D3",
          "midi": 50,
          "time": 147,
          "velocity": 0.7874015748031497,
          "duration": 0.25
        },
        {
          "name": "A2",
          "midi": 45,
          "time": 147.25,
          "velocity": 0.7874015748031497,
          "duration": 0.25
        },
        {
          "name": "D3",
          "midi": 50,
          "time": 147.25,
          "velocity": 0.7874015748031497,
          "duration": 0.25
        },
        {
          "name": "G2",
          "midi": 43,
          "time": 147.5,
          "velocity": 0.7874015748031497,
          "duration": 0.25
        },
        {
          "name": "C3",
          "midi": 48,
          "time": 147.5,
          "velocity": 0.7874015748031497,
          "duration": 0.25
        },
        {
          "name": "G2",
          "midi": 43,
          "time": 147.75,
          "velocity": 0.7874015748031497,
          "duration": 0.25
        },
        {
          "name": "C3",
          "midi": 48,
          "time": 147.75,
          "velocity": 0.7874015748031497,
          "duration": 0.25
        },
        {
          "name": "A#2",
          "midi": 46,
          "time": 148,
          "velocity": 0.7874015748031497,
          "duration": 0.5
        },
        {
          "name": "F3",
          "midi": 53,
          "time": 148.5,
          "velocity": 0.7874015748031497,
          "duration": 0.5
        },
        {
          "name": "A2",
          "midi": 45,
          "time": 149,
          "velocity": 0.7874015748031497,
          "duration": 0.5
        },
        {
          "name": "E3",
          "midi": 52,
          "time": 149.5,
          "velocity": 0.7874015748031497,
          "duration": 0.5
        },
        {
          "name": "D3",
          "midi": 50,
          "time": 150,
          "velocity": 0.7874015748031497,
          "duration": 0.75
        },
        {
          "name": "D3",
          "midi": 50,
          "time": 150.75,
          "velocity": 0.7874015748031497,
          "duration": 0.25
        },
        {
          "name": "B2",
          "midi": 47,
          "time": 151,
          "velocity": 0.7874015748031497,
          "duration": 0.75
        },
        {
          "name": "B2",
          "midi": 47,
          "time": 151.75,
          "velocity": 0.7874015748031497,
          "duration": 0.25
        },
        {
          "name": "D3",
          "midi": 50,
          "time": 152,
          "velocity": 0.7874015748031497,
          "duration": 0.75
        },
        {
          "name": "D3",
          "midi": 50,
          "time": 152.75,
          "velocity": 0.7874015748031497,
          "duration": 0.25
        },
        {
          "name": "B2",
          "midi": 47,
          "time": 153,
          "velocity": 0.7874015748031497,
          "duration": 0.75
        },
        {
          "name": "B2",
          "midi": 47,
          "time": 153.75,
          "velocity": 0.7874015748031497,
          "duration": 0.25
        },
        {
          "name": "D3",
          "midi": 50,
          "time": 154,
          "velocity": 0.7874015748031497,
          "duration": 0.75
        },
        {
          "name": "D3",
          "midi": 50,
          "time": 154.75,
          "velocity": 0.7874015748031497,
          "duration": 0.25
        },
        {
          "name": "B2",
          "midi": 47,
          "time": 155,
          "velocity": 0.7874015748031497,
          "duration": 0.75
        },
        {
          "name": "B2",
          "midi": 47,
          "time": 155.75,
          "velocity": 0.7874015748031497,
          "duration": 0.25
        },
        {
          "name": "D3",
          "midi": 50,
          "time": 156,
          "velocity": 0.7874015748031497,
          "duration": 0.75
        },
        {
          "name": "D3",
          "midi": 50,
          "time": 156.75,
          "velocity": 0.7874015748031497,
          "duration": 0.25
        },
        {
          "name": "B2",
          "midi": 47,
          "time": 157,
          "velocity": 0.7874015748031497,
          "duration": 0.75
        },
        {
          "name": "B2",
          "midi": 47,
          "time": 157.75,
          "velocity": 0.7874015748031497,
          "duration": 0.25
        },
        {
          "name": "D3",
          "midi": 50,
          "time": 158,
          "velocity": 0.7874015748031497,
          "duration": 0.75
        },
        {
          "name": "D3",
          "midi": 50,
          "time": 158.75,
          "velocity": 0.7874015748031497,
          "duration": 0.25
        },
        {
          "name": "B2",
          "midi": 47,
          "time": 159,
          "velocity": 0.7874015748031497,
          "duration": 0.75
        },
        {
          "name": "B2",
          "midi": 47,
          "time": 159.75,
          "velocity": 0.7874015748031497,
          "duration": 0.25
        },
        {
          "name": "D3",
          "midi": 50,
          "time": 160,
          "velocity": 0.7874015748031497,
          "duration": 0.75
        },
        {
          "name": "D3",
          "midi": 50,
          "time": 160.75,
          "velocity": 0.7874015748031497,
          "duration": 0.25
        },
        {
          "name": "B2",
          "midi": 47,
          "time": 161,
          "velocity": 0.7874015748031497,
          "duration": 0.75
        },
        {
          "name": "B2",
          "midi": 47,
          "time": 161.75,
          "velocity": 0.7874015748031497,
          "duration": 0.25
        },
        {
          "name": "D3",
          "midi": 50,
          "time": 162,
          "velocity": 0.7874015748031497,
          "duration": 0.75
        },
        {
          "name": "D3",
          "midi": 50,
          "time": 162.75,
          "velocity": 0.7874015748031497,
          "duration": 0.25
        },
        {
          "name": "B2",
          "midi": 47,
          "time": 163,
          "velocity": 0.7874015748031497,
          "duration": 0.75
        },
        {
          "name": "B2",
          "midi": 47,
          "time": 163.75,
          "velocity": 0.7874015748031497,
          "duration": 0.25
        },
        {
          "name": "D3",
          "midi": 50,
          "time": 164,
          "velocity": 0.7874015748031497,
          "duration": 0.75
        },
        {
          "name": "D3",
          "midi": 50,
          "time": 164.75,
          "velocity": 0.7874015748031497,
          "duration": 0.25
        },
        {
          "name": "B2",
          "midi": 47,
          "time": 165,
          "velocity": 0.7874015748031497,
          "duration": 0.75
        },
        {
          "name": "B2",
          "midi": 47,
          "time": 165.75,
          "velocity": 0.7874015748031497,
          "duration": 0.25
        },
        {
          "name": "D3",
          "midi": 50,
          "time": 166,
          "velocity": 0.7874015748031497,
          "duration": 0.75
        },
        {
          "name": "D3",
          "midi": 50,
          "time": 166.75,
          "velocity": 0.7874015748031497,
          "duration": 0.25
        },
        {
          "name": "B2",
          "midi": 47,
          "time": 167,
          "velocity": 0.7874015748031497,
          "duration": 0.75
        },
        {
          "name": "B2",
          "midi": 47,
          "time": 167.75,
          "velocity": 0.7874015748031497,
          "duration": 0.25
        },
        {
          "name": "D3",
          "midi": 50,
          "time": 168,
          "velocity": 0.7874015748031497,
          "duration": 0.75
        },
        {
          "name": "D3",
          "midi": 50,
          "time": 168.75,
          "velocity": 0.7874015748031497,
          "duration": 0.25
        },
        {
          "name": "B2",
          "midi": 47,
          "time": 169,
          "velocity": 0.7874015748031497,
          "duration": 0.75
        },
        {
          "name": "B2",
          "midi": 47,
          "time": 169.75,
          "velocity": 0.7874015748031497,
          "duration": 0.25
        },
        {
          "name": "D3",
          "midi": 50,
          "time": 170,
          "velocity": 0.7874015748031497,
          "duration": 0.75
        },
        {
          "name": "D3",
          "midi": 50,
          "time": 170.75,
          "velocity": 0.7874015748031497,
          "duration": 0.25
        },
        {
          "name": "B2",
          "midi": 47,
          "time": 171,
          "velocity": 0.7874015748031497,
          "duration": 0.75
        },
        {
          "name": "B2",
          "midi": 47,
          "time": 171.75,
          "velocity": 0.7874015748031497,
          "duration": 0.25
        },
        {
          "name": "D3",
          "midi": 50,
          "time": 172,
          "velocity": 0.7874015748031497,
          "duration": 0.75
        },
        {
          "name": "D3",
          "midi": 50,
          "time": 172.75,
          "velocity": 0.7874015748031497,
          "duration": 0.25
        },
        {
          "name": "B2",
          "midi": 47,
          "time": 173,
          "velocity": 0.7874015748031497,
          "duration": 0.75
        },
        {
          "name": "B2",
          "midi": 47,
          "time": 173.75,
          "velocity": 0.7874015748031497,
          "duration": 0.25
        },
        {
          "name": "D3",
          "midi": 50,
          "time": 174,
          "velocity": 0.7874015748031497,
          "duration": 1
        }
      ],
      "controlChanges": {
        "7": [
          {
            "number": 7,
            "time": 1,
            "value": 0.7874015748031497
          }
        ],
        "10": [
          {
            "number": 10,
            "time": 1,
            "value": 0.4015748031496063
          }
        ],
        "64": [
          {
            "number": 64,
            "time": 1,
            "value": 0
          }
        ],
        "91": [
          {
            "number": 91,
            "time": 1,
            "value": 0.3779527559055118
          }
        ],
        "121": [
          {
            "number": 121,
            "time": 1,
            "value": 0
          }
        ]
      }
    }
  ]
}
